# Blender 4.1.1
# www.blender.org
mtllib polygon425.mtl
o polygon425
v -2144.035156 551.040771 -169.999863
v -2144.035156 551.040771 -171.999451
v -2133.598145 569.117859 -169.999847
v -2133.598145 569.117859 -171.999435
v -2139.001221 589.280212 -169.999878
v -2139.001221 589.280212 -171.999481
v -2157.078125 599.717041 -169.999878
v -2157.078125 599.717041 -171.999481
v -2177.239990 594.314514 -169.999878
v -2177.239990 594.314514 -171.999481
v -2187.677002 576.237488 -169.999863
v -2187.677002 576.237488 -171.999451
v -2182.274170 556.075073 -169.999863
v -2182.274170 556.075073 -171.999451
v -2164.197021 545.638306 -169.999863
v -2164.197021 545.638184 -171.999451
v -2156.722168 602.421021 -171.999481
v -2178.900146 596.478210 -171.999481
v -2190.381104 576.593384 -171.999451
v -2184.437988 554.414856 -171.999451
v -2164.553223 542.934265 -171.999451
v -2142.375000 548.877075 -171.999451
v -2130.894043 568.761902 -171.999435
v -2136.837158 590.940491 -171.999481
v -2142.375000 548.877075 -168.999451
v -2130.894043 568.761902 -168.999435
v -2136.837158 590.940491 -168.999481
v -2156.722168 602.421021 -168.999481
v -2178.900146 596.478210 -168.999481
v -2190.381104 576.593384 -168.999451
v -2184.437988 554.414856 -168.999451
v -2164.553223 542.934265 -168.999451
v -2398.488037 872.214417 -169.999924
v -2398.488037 872.214417 -171.999802
v -2388.051025 890.291504 -169.999924
v -2388.051025 890.291504 -171.999802
v -2393.453125 910.453796 -169.999908
v -2393.453125 910.453796 -171.999786
v -2411.530762 920.890686 -169.999908
v -2411.530762 920.890686 -171.999786
v -2431.693115 915.488098 -169.999908
v -2431.693115 915.488098 -171.999786
v -2442.129883 897.411133 -169.999908
v -2442.129883 897.411133 -171.999786
v -2436.727051 877.248718 -169.999924
v -2436.727051 877.248718 -171.999802
v -2418.649902 866.812012 -169.999924
v -2418.649902 866.812012 -171.999802
v -2411.175049 923.594666 -171.999786
v -2433.353027 917.651855 -171.999786
v -2444.834229 897.767151 -171.999786
v -2438.891113 875.588562 -171.999802
v -2419.006104 864.108032 -171.999786
v -2396.827148 870.050720 -171.999802
v -2385.347168 889.935608 -171.999802
v -2391.290039 912.114014 -171.999786
v -2396.827148 870.050720 -168.999802
v -2385.347168 889.935608 -168.999802
v -2391.290039 912.114014 -168.999786
v -2411.175049 923.594666 -168.999786
v -2433.353027 917.651855 -168.999786
v -2444.834229 897.767151 -168.999786
v -2438.891113 875.588562 -168.999802
v -2419.006104 864.108032 -168.999786
v -1943.962036 552.148804 -169.999863
v -1943.962036 552.148865 -171.999451
v -1933.525146 570.225891 -169.999847
v -1933.525146 570.225891 -171.999435
v -1938.928101 590.388184 -169.999878
v -1938.928101 590.388184 -171.999481
v -1957.005127 600.825073 -169.999878
v -1957.005127 600.825073 -171.999481
v -1977.167114 595.422485 -169.999878
v -1977.167114 595.422485 -171.999481
v -1987.604004 577.345459 -169.999863
v -1987.604004 577.345459 -171.999451
v -1982.201050 557.183167 -169.999863
v -1982.201050 557.183167 -171.999451
v -1964.124146 546.746399 -169.999863
v -1964.124146 546.746399 -171.999451
v -1956.649048 603.529114 -171.999481
v -1978.828125 597.586182 -171.999481
v -1990.308105 577.701477 -171.999451
v -1984.365112 555.523010 -171.999451
v -1964.479980 544.042358 -171.999451
v -1942.302124 549.985168 -171.999451
v -1930.821045 569.869873 -171.999435
v -1936.764038 592.048462 -171.999481
v -1942.302124 549.985168 -168.999451
v -1930.821045 569.869873 -168.999435
v -1936.764038 592.048462 -168.999481
v -1956.649048 603.529114 -168.999481
v -1978.828125 597.586182 -168.999481
v -1990.308105 577.701477 -168.999451
v -1984.365112 555.523010 -168.999451
v -1964.479980 544.042358 -168.999451
v -1760.058105 585.781677 -170.000061
v -1760.058105 585.781799 -171.999451
v -1749.621094 603.858765 -169.999878
v -1749.621094 603.858765 -171.999481
v -1755.024048 624.021179 -169.999863
v -1755.024048 624.021179 -171.999466
v -1773.101074 634.458008 -169.999863
v -1773.101074 634.458069 -171.999466
v -1793.263062 629.055359 -169.999863
v -1793.263062 629.055481 -171.999466
v -1803.699951 610.978455 -169.999878
v -1803.699951 610.978455 -171.999481
v -1798.297119 590.816101 -169.999878
v -1798.297119 590.816101 -171.999481
v -1780.219971 580.379272 -169.999863
v -1780.219971 580.379211 -171.999451
v -1772.745117 637.162048 -171.999466
v -1794.923096 631.219177 -171.999466
v -1806.404053 611.334412 -171.999481
v -1800.461060 589.155762 -171.999481
v -1780.576050 577.675415 -171.999451
v -1758.398071 583.618103 -171.999451
v -1746.917114 603.502869 -171.999481
v -1752.859985 625.681458 -171.999466
v -1758.398071 583.618103 -168.999451
v -1746.917114 603.502869 -168.999481
v -1752.859985 625.681458 -168.999466
v -1772.745117 637.162048 -168.999466
v -1794.923096 631.219177 -168.999466
v -1806.404053 611.334412 -168.999481
v -1800.461060 589.155762 -168.999481
v -1780.576050 577.675415 -168.999451
v -2177.642090 1842.448120 -69.999977
v -2177.642090 1842.448120 -71.999977
v -2161.665771 1881.016968 -69.999977
v -2161.665771 1881.016968 -71.999977
v -2177.642090 1919.587036 -69.999985
v -2177.642090 1919.587036 -71.999985
v -2216.211182 1935.563110 -69.999977
v -2216.211182 1935.563110 -71.999977
v -2254.781006 1919.587036 -69.999985
v -2254.781006 1919.587036 -71.999985
v -2270.757080 1881.016968 -69.999977
v -2270.757080 1881.016968 -71.999977
v -2254.781006 1842.448120 -69.999977
v -2254.781006 1842.448120 -71.999977
v -2216.211182 1826.472046 -69.999977
v -2216.211182 1826.472046 -71.999977
v -2216.211182 1941.016968 -71.999977
v -2258.638184 1923.443970 -71.999985
v -2276.211182 1881.016968 -71.999977
v -2258.638184 1838.591064 -71.999977
v -2216.211182 1821.016968 -71.999969
v -2173.785156 1838.591064 -71.999977
v -2156.211182 1881.016968 -71.999977
v -2173.785156 1923.443970 -71.999985
v -2173.785156 1838.591064 -68.999977
v -2156.211182 1881.016968 -68.999977
v -2173.785156 1923.443970 -68.999985
v -2216.211182 1941.016968 -68.999977
v -2258.638184 1923.443970 -68.999985
v -2276.211182 1881.016968 -68.999977
v -2258.638184 1838.591064 -68.999977
v -2216.211182 1821.016968 -68.999969
v -1799.914062 1842.448120 -69.999977
v -1799.914062 1842.448120 -71.999977
v -1783.938110 1881.016968 -69.999977
v -1783.938110 1881.016968 -71.999977
v -1799.914062 1919.587036 -69.999985
v -1799.914062 1919.587036 -71.999985
v -1838.482910 1935.563110 -69.999977
v -1838.482910 1935.563110 -71.999977
v -1877.053101 1919.587036 -69.999985
v -1877.053101 1919.587036 -71.999985
v -1893.029053 1881.016968 -69.999977
v -1893.029053 1881.016968 -71.999977
v -1877.053101 1842.448120 -69.999977
v -1877.053101 1842.448120 -71.999977
v -1838.482910 1826.472046 -69.999977
v -1838.482910 1826.472046 -71.999977
v -1838.482910 1941.016968 -71.999977
v -1880.909790 1923.443970 -71.999985
v -1898.482910 1881.016968 -71.999977
v -1880.909790 1838.591064 -71.999977
v -1838.482910 1821.016968 -71.999969
v -1796.057129 1838.591064 -71.999977
v -1778.482910 1881.016968 -71.999977
v -1796.057129 1923.443970 -71.999985
v -1796.057129 1838.591064 -68.999977
v -1778.482910 1881.016968 -68.999977
v -1796.057129 1923.443970 -68.999985
v -1838.482910 1941.016968 -68.999977
v -1880.909790 1923.443970 -68.999985
v -1898.482910 1881.016968 -68.999977
v -1880.909790 1838.591064 -68.999977
v -1838.482910 1821.016968 -68.999969
v -1879.115112 2179.875000 -70.000008
v -1879.115112 2179.875000 -72.000229
v -1868.678101 2197.952148 -70.000015
v -1868.678101 2197.952148 -72.000229
v -1874.079956 2218.114014 -70.000023
v -1874.079956 2218.114014 -72.000237
v -1892.156982 2228.551025 -70.000023
v -1892.156982 2228.551025 -72.000244
v -1912.319946 2223.148193 -70.000023
v -1912.319946 2223.148193 -72.000237
v -1922.756958 2205.072021 -70.000008
v -1922.756958 2205.072021 -72.000221
v -1917.354004 2184.909180 -70.000008
v -1917.354004 2184.909180 -72.000229
v -1899.276978 2174.472168 -70.000015
v -1899.276978 2174.472168 -72.000237
v -1891.801025 2231.255127 -72.000237
v -1913.979980 2225.312012 -72.000244
v -1925.459961 2205.427002 -72.000221
v -1919.518066 2183.249023 -72.000229
v -1899.633057 2171.768066 -72.000229
v -1877.453979 2177.711182 -72.000229
v -1865.973999 2197.596191 -72.000229
v -1871.917114 2219.774170 -72.000237
v -1877.453979 2177.711182 -69.000229
v -1865.973999 2197.596191 -69.000229
v -1871.917114 2219.774170 -69.000237
v -1891.801025 2231.255127 -69.000237
v -1913.979980 2225.312012 -69.000244
v -1925.459961 2205.427002 -69.000221
v -1919.518066 2183.249023 -69.000229
v -1899.633057 2171.768066 -69.000229
v -2137.341064 2184.909180 -70.000008
v -2137.341064 2184.909180 -72.000229
v -2131.937988 2205.072021 -70.000008
v -2131.937988 2205.072021 -72.000221
v -2142.375000 2223.148193 -70.000023
v -2142.375000 2223.148193 -72.000237
v -2162.537109 2228.551025 -70.000023
v -2162.537109 2228.551025 -72.000244
v -2180.614990 2218.114014 -70.000023
v -2180.614990 2218.114014 -72.000237
v -2186.017090 2197.952148 -70.000015
v -2186.017090 2197.952148 -72.000229
v -2175.579834 2179.875000 -70.000008
v -2175.579834 2179.875000 -72.000229
v -2155.418213 2174.472168 -70.000015
v -2155.418213 2174.472168 -72.000237
v -2162.894043 2231.255127 -72.000237
v -2182.778076 2219.774170 -72.000237
v -2188.721191 2197.596191 -72.000229
v -2177.241211 2177.711182 -72.000229
v -2155.062012 2171.768066 -72.000229
v -2135.177002 2183.249023 -72.000229
v -2129.234131 2205.427002 -72.000221
v -2140.715088 2225.312012 -72.000244
v -2135.177002 2183.249023 -69.000229
v -2129.234131 2205.427002 -69.000221
v -2140.715088 2225.312012 -69.000244
v -2162.894043 2231.255127 -69.000237
v -2182.778076 2219.774170 -69.000237
v -2188.721191 2197.596191 -69.000229
v -2177.241211 2177.711182 -69.000229
v -2155.062012 2171.768066 -69.000229
vn -0.8660 0.5000 -0.0000
vn -0.9659 -0.2588 -0.0000
vn -0.5000 -0.8660 -0.0000
vn 0.2588 -0.9659 -0.0000
vn 0.8660 -0.5000 -0.0000
vn 0.9659 0.2588 -0.0000
vn 0.5000 0.8660 -0.0000
vn 0.5000 0.8660 -0.0001
vn -0.2588 0.9659 -0.0001
vn -0.2588 0.9659 -0.0000
vn -0.0000 -0.0000 -1.0000
vn -0.8660 0.5000 -0.0001
vn 0.8660 -0.5000 -0.0001
vn -0.9239 0.3827 -0.0000
vn -0.9239 -0.3827 -0.0000
vn -0.3827 -0.9239 -0.0000
vn 0.3827 -0.9239 -0.0000
vn 0.9239 -0.3827 -0.0000
vn 0.9239 0.3827 -0.0000
vn 0.3827 0.9239 -0.0000
vn -0.3827 0.9239 -0.0000
vn -0.2589 0.9659 -0.0000
vn -0.9659 0.2588 -0.0000
vn -0.8660 -0.5000 -0.0000
vn -0.2588 -0.9659 -0.0000
vn 0.5000 -0.8660 -0.0000
vn 0.9659 -0.2588 -0.0000
vn 0.8660 0.5000 -0.0000
vn 0.2588 0.9659 -0.0000
vn 0.2589 0.9659 -0.0000
vn -0.5000 0.8660 -0.0000
vt 0.000000 0.125000
vt 1.000000 0.000000
vt 1.000000 0.125000
vt 0.000000 0.000000
vt 1.000000 -0.125000
vt 0.000000 -0.125000
vt 1.000000 -0.250000
vt 0.000000 -0.250000
s 0
usemtl mt_renga
f 3/1/1 2/2/1 1/3/1
f 4/4/1 2/2/1 3/1/1
f 5/1/2 4/2/2 3/3/2
f 6/4/2 4/2/2 5/1/2
f 7/1/3 6/2/3 5/3/3
f 8/4/3 6/2/3 7/1/3
f 9/1/4 8/2/4 7/3/4
f 10/4/4 8/2/4 9/1/4
f 11/1/5 10/2/5 9/3/5
f 12/4/5 10/2/5 11/1/5
f 13/1/6 12/2/6 11/3/6
f 14/4/6 12/2/6 13/1/6
f 15/1/7 14/2/7 13/3/7
f 16/4/8 14/2/8 15/1/8
f 1/1/9 16/2/9 15/3/9
f 2/4/10 16/2/10 1/1/10
f 10/4/11 17/5/11 8/2/11
f 18/6/11 17/5/11 10/4/11
f 12/4/11 18/5/11 10/2/11
f 19/6/11 18/5/11 12/4/11
f 14/4/11 19/5/11 12/2/11
f 20/6/11 19/5/11 14/4/11
f 16/4/11 20/5/11 14/2/11
f 21/6/11 20/5/11 16/4/11
f 2/4/11 21/5/11 16/2/11
f 22/6/11 21/5/11 2/4/11
f 4/4/11 22/5/11 2/2/11
f 23/6/11 22/5/11 4/4/11
f 6/4/11 23/5/11 4/2/11
f 24/6/11 23/5/11 6/4/11
f 8/4/11 24/5/11 6/2/11
f 17/6/11 24/5/11 8/4/11
f 23/6/5 25/7/5 22/5/5
f 26/8/5 25/7/5 23/6/5
f 24/6/6 26/7/6 23/5/6
f 27/8/6 26/7/6 24/6/6
f 17/6/7 27/7/7 24/5/7
f 28/8/7 27/7/7 17/6/7
f 18/6/10 28/7/10 17/5/10
f 29/8/10 28/7/10 18/6/10
f 19/6/1 29/7/1 18/5/1
f 30/8/1 29/7/1 19/6/1
f 20/6/2 30/7/2 19/5/2
f 31/8/2 30/7/2 20/6/2
f 21/6/3 31/7/3 20/5/3
f 32/8/3 31/7/3 21/6/3
f 22/6/4 32/7/4 21/5/4
f 25/8/4 32/7/4 22/6/4
f 35/1/1 34/2/1 33/3/1
f 36/4/1 34/2/1 35/1/1
f 37/1/2 36/2/2 35/3/2
f 38/4/2 36/2/2 37/1/2
f 39/1/3 38/2/3 37/3/3
f 40/4/3 38/2/3 39/1/3
f 41/1/4 40/2/4 39/3/4
f 42/4/4 40/2/4 41/1/4
f 43/1/5 42/2/5 41/3/5
f 44/4/5 42/2/5 43/1/5
f 45/1/6 44/2/6 43/3/6
f 46/4/6 44/2/6 45/1/6
f 47/1/7 46/2/7 45/3/7
f 48/4/7 46/2/7 47/1/7
f 33/1/10 48/2/10 47/3/10
f 34/4/10 48/2/10 33/1/10
f 42/4/11 49/5/11 40/2/11
f 50/6/11 49/5/11 42/4/11
f 44/4/11 50/5/11 42/2/11
f 51/6/11 50/5/11 44/4/11
f 46/4/11 51/5/11 44/2/11
f 52/6/11 51/5/11 46/4/11
f 48/4/11 52/5/11 46/2/11
f 53/6/11 52/5/11 48/4/11
f 34/4/11 53/5/11 48/2/11
f 54/6/11 53/5/11 34/4/11
f 36/4/11 54/5/11 34/2/11
f 55/6/11 54/5/11 36/4/11
f 38/4/11 55/5/11 36/2/11
f 56/6/11 55/5/11 38/4/11
f 40/4/11 56/5/11 38/2/11
f 49/6/11 56/5/11 40/4/11
f 55/6/5 57/7/5 54/5/5
f 58/8/5 57/7/5 55/6/5
f 56/6/6 58/7/6 55/5/6
f 59/8/6 58/7/6 56/6/6
f 49/6/7 59/7/7 56/5/7
f 60/8/7 59/7/7 49/6/7
f 50/6/10 60/7/10 49/5/10
f 61/8/10 60/7/10 50/6/10
f 51/6/1 61/7/1 50/5/1
f 62/8/1 61/7/1 51/6/1
f 52/6/2 62/7/2 51/5/2
f 63/8/2 62/7/2 52/6/2
f 53/6/3 63/7/3 52/5/3
f 64/8/3 63/7/3 53/6/3
f 54/6/4 64/7/4 53/5/4
f 57/8/4 64/7/4 54/6/4
f 67/1/12 66/2/12 65/3/12
f 68/4/1 66/2/1 67/1/1
f 69/1/2 68/2/2 67/3/2
f 70/4/2 68/2/2 69/1/2
f 71/1/3 70/2/3 69/3/3
f 72/4/3 70/2/3 71/1/3
f 73/1/4 72/2/4 71/3/4
f 74/4/4 72/2/4 73/1/4
f 75/1/5 74/2/5 73/3/5
f 76/4/5 74/2/5 75/1/5
f 77/1/6 76/2/6 75/3/6
f 78/4/6 76/2/6 77/1/6
f 79/1/7 78/2/7 77/3/7
f 80/4/7 78/2/7 79/1/7
f 65/1/10 80/2/10 79/3/10
f 66/4/10 80/2/10 65/1/10
f 74/4/11 81/5/11 72/2/11
f 82/6/11 81/5/11 74/4/11
f 76/4/11 82/5/11 74/2/11
f 83/6/11 82/5/11 76/4/11
f 78/4/11 83/5/11 76/2/11
f 84/6/11 83/5/11 78/4/11
f 80/4/11 84/5/11 78/2/11
f 85/6/11 84/5/11 80/4/11
f 66/4/11 85/5/11 80/2/11
f 86/6/11 85/5/11 66/4/11
f 68/4/11 86/5/11 66/2/11
f 87/6/11 86/5/11 68/4/11
f 70/4/11 87/5/11 68/2/11
f 88/6/11 87/5/11 70/4/11
f 72/4/11 88/5/11 70/2/11
f 81/6/11 88/5/11 72/4/11
f 87/6/5 89/7/5 86/5/5
f 90/8/5 89/7/5 87/6/5
f 88/6/6 90/7/6 87/5/6
f 91/8/6 90/7/6 88/6/6
f 81/6/7 91/7/7 88/5/7
f 92/8/7 91/7/7 81/6/7
f 82/6/10 92/7/10 81/5/10
f 93/8/10 92/7/10 82/6/10
f 83/6/1 93/7/1 82/5/1
f 94/8/1 93/7/1 83/6/1
f 84/6/2 94/7/2 83/5/2
f 95/8/2 94/7/2 84/6/2
f 85/6/3 95/7/3 84/5/3
f 96/8/3 95/7/3 85/6/3
f 86/6/4 96/7/4 85/5/4
f 89/8/4 96/7/4 86/6/4
f 99/1/1 98/2/1 97/3/1
f 100/4/1 98/2/1 99/1/1
f 101/1/2 100/2/2 99/3/2
f 102/4/2 100/2/2 101/1/2
f 103/1/3 102/2/3 101/3/3
f 104/4/3 102/2/3 103/1/3
f 105/1/4 104/2/4 103/3/4
f 106/4/4 104/2/4 105/1/4
f 107/1/13 106/2/13 105/3/13
f 108/4/5 106/2/5 107/1/5
f 109/1/6 108/2/6 107/3/6
f 110/4/6 108/2/6 109/1/6
f 111/1/7 110/2/7 109/3/7
f 112/4/7 110/2/7 111/1/7
f 98/4/10 111/3/10 97/1/10
f 112/2/10 111/3/10 98/4/10
f 106/4/11 113/5/11 104/2/11
f 114/6/11 113/5/11 106/4/11
f 108/4/11 114/5/11 106/2/11
f 115/6/11 114/5/11 108/4/11
f 110/4/11 115/5/11 108/2/11
f 116/6/11 115/5/11 110/4/11
f 112/4/11 116/5/11 110/2/11
f 117/6/11 116/5/11 112/4/11
f 98/4/11 117/5/11 112/2/11
f 118/6/11 117/5/11 98/4/11
f 100/4/11 118/5/11 98/2/11
f 119/6/11 118/5/11 100/4/11
f 102/4/11 119/5/11 100/2/11
f 120/6/11 119/5/11 102/4/11
f 104/4/11 120/5/11 102/2/11
f 113/6/11 120/5/11 104/4/11
f 119/6/5 121/7/5 118/5/5
f 122/8/5 121/7/5 119/6/5
f 120/6/6 122/7/6 119/5/6
f 123/8/6 122/7/6 120/6/6
f 113/6/7 123/7/7 120/5/7
f 124/8/7 123/7/7 113/6/7
f 114/6/10 124/7/10 113/5/10
f 125/8/10 124/7/10 114/6/10
f 115/6/1 125/7/1 114/5/1
f 126/8/1 125/7/1 115/6/1
f 116/6/2 126/7/2 115/5/2
f 127/8/2 126/7/2 116/6/2
f 117/6/3 127/7/3 116/5/3
f 128/8/3 127/7/3 117/6/3
f 118/6/4 128/7/4 117/5/4
f 121/8/4 128/7/4 118/6/4
f 131/1/14 130/2/14 129/3/14
f 132/4/14 130/2/14 131/1/14
f 133/1/15 132/2/15 131/3/15
f 134/4/15 132/2/15 133/1/15
f 135/1/16 134/2/16 133/3/16
f 136/4/16 134/2/16 135/1/16
f 137/1/17 136/2/17 135/3/17
f 138/4/17 136/2/17 137/1/17
f 139/1/18 138/2/18 137/3/18
f 140/4/18 138/2/18 139/1/18
f 141/1/19 140/2/19 139/3/19
f 142/4/19 140/2/19 141/1/19
f 143/1/20 142/2/20 141/3/20
f 144/4/20 142/2/20 143/1/20
f 129/1/21 144/2/21 143/3/21
f 130/4/21 144/2/21 129/1/21
f 138/4/11 145/5/11 136/2/11
f 146/6/11 145/5/11 138/4/11
f 140/4/11 146/5/11 138/2/11
f 147/6/11 146/5/11 140/4/11
f 142/4/11 147/5/11 140/2/11
f 148/6/11 147/5/11 142/4/11
f 144/4/11 148/5/11 142/2/11
f 149/6/11 148/5/11 144/4/11
f 130/4/11 149/5/11 144/2/11
f 150/6/11 149/5/11 130/4/11
f 132/4/11 150/5/11 130/2/11
f 151/6/11 150/5/11 132/4/11
f 134/4/11 151/5/11 132/2/11
f 152/6/11 151/5/11 134/4/11
f 136/4/11 152/5/11 134/2/11
f 145/6/11 152/5/11 136/4/11
f 151/6/18 153/7/18 150/5/18
f 154/8/18 153/7/18 151/6/18
f 152/6/19 154/7/19 151/5/19
f 155/8/19 154/7/19 152/6/19
f 145/6/20 155/7/20 152/5/20
f 156/8/20 155/7/20 145/6/20
f 146/6/21 156/7/21 145/5/21
f 157/8/21 156/7/21 146/6/21
f 147/6/14 157/7/14 146/5/14
f 158/8/14 157/7/14 147/6/14
f 148/6/15 158/7/15 147/5/15
f 159/8/15 158/7/15 148/6/15
f 149/6/16 159/7/16 148/5/16
f 160/8/16 159/7/16 149/6/16
f 150/6/17 160/7/17 149/5/17
f 153/8/17 160/7/17 150/6/17
f 163/1/14 162/2/14 161/3/14
f 164/4/14 162/2/14 163/1/14
f 165/1/15 164/2/15 163/3/15
f 166/4/15 164/2/15 165/1/15
f 167/1/16 166/2/16 165/3/16
f 168/4/16 166/2/16 167/1/16
f 169/1/17 168/2/17 167/3/17
f 170/4/17 168/2/17 169/1/17
f 171/1/18 170/2/18 169/3/18
f 172/4/18 170/2/18 171/1/18
f 173/1/19 172/2/19 171/3/19
f 174/4/19 172/2/19 173/1/19
f 175/1/20 174/2/20 173/3/20
f 176/4/20 174/2/20 175/1/20
f 161/1/21 176/2/21 175/3/21
f 162/4/21 176/2/21 161/1/21
f 170/4/11 177/5/11 168/2/11
f 178/6/11 177/5/11 170/4/11
f 172/4/11 178/5/11 170/2/11
f 179/6/11 178/5/11 172/4/11
f 174/4/11 179/5/11 172/2/11
f 180/6/11 179/5/11 174/4/11
f 176/4/11 180/5/11 174/2/11
f 181/6/11 180/5/11 176/4/11
f 162/4/11 181/5/11 176/2/11
f 182/6/11 181/5/11 162/4/11
f 164/4/11 182/5/11 162/2/11
f 183/6/11 182/5/11 164/4/11
f 166/4/11 183/5/11 164/2/11
f 184/6/11 183/5/11 166/4/11
f 168/4/11 184/5/11 166/2/11
f 177/6/11 184/5/11 168/4/11
f 183/6/18 185/7/18 182/5/18
f 186/8/18 185/7/18 183/6/18
f 184/6/19 186/7/19 183/5/19
f 187/8/19 186/7/19 184/6/19
f 177/6/20 187/7/20 184/5/20
f 188/8/20 187/7/20 177/6/20
f 178/6/21 188/7/21 177/5/21
f 189/8/21 188/7/21 178/6/21
f 179/6/14 189/7/14 178/5/14
f 190/8/14 189/7/14 179/6/14
f 180/6/15 190/7/15 179/5/15
f 191/8/15 190/7/15 180/6/15
f 181/6/16 191/7/16 180/5/16
f 192/8/16 191/7/16 181/6/16
f 182/6/17 192/7/17 181/5/17
f 185/8/17 192/7/17 182/6/17
f 195/1/1 194/2/1 193/3/1
f 196/4/1 194/2/1 195/1/1
f 197/1/2 196/2/2 195/3/2
f 198/4/2 196/2/2 197/1/2
f 199/1/3 198/2/3 197/3/3
f 200/4/3 198/2/3 199/1/3
f 201/1/4 200/2/4 199/3/4
f 202/4/4 200/2/4 201/1/4
f 203/1/5 202/2/5 201/3/5
f 204/4/5 202/2/5 203/1/5
f 205/1/6 204/2/6 203/3/6
f 206/4/6 204/2/6 205/1/6
f 207/1/7 206/2/7 205/3/7
f 208/4/7 206/2/7 207/1/7
f 193/1/22 208/2/22 207/3/22
f 194/4/10 208/2/10 193/1/10
f 202/4/11 209/5/11 200/2/11
f 210/6/11 209/5/11 202/4/11
f 204/4/11 210/5/11 202/2/11
f 211/6/11 210/5/11 204/4/11
f 206/4/11 211/5/11 204/2/11
f 212/6/11 211/5/11 206/4/11
f 208/4/11 212/5/11 206/2/11
f 213/6/11 212/5/11 208/4/11
f 194/4/11 213/5/11 208/2/11
f 214/6/11 213/5/11 194/4/11
f 196/4/11 214/5/11 194/2/11
f 215/6/11 214/5/11 196/4/11
f 198/4/11 215/5/11 196/2/11
f 216/6/11 215/5/11 198/4/11
f 200/4/11 216/5/11 198/2/11
f 209/6/11 216/5/11 200/4/11
f 215/6/5 217/7/5 214/5/5
f 218/8/5 217/7/5 215/6/5
f 216/6/6 218/7/6 215/5/6
f 219/8/6 218/7/6 216/6/6
f 209/6/7 219/7/7 216/5/7
f 220/8/7 219/7/7 209/6/7
f 210/6/10 220/7/10 209/5/10
f 221/8/10 220/7/10 210/6/10
f 211/6/1 221/7/1 210/5/1
f 222/8/1 221/7/1 211/6/1
f 212/6/2 222/7/2 211/5/2
f 223/8/2 222/7/2 212/6/2
f 213/6/3 223/7/3 212/5/3
f 224/8/3 223/7/3 213/6/3
f 214/6/4 224/7/4 213/5/4
f 217/8/4 224/7/4 214/6/4
f 227/1/23 226/2/23 225/3/23
f 228/4/23 226/2/23 227/1/23
f 229/1/24 228/2/24 227/3/24
f 230/4/24 228/2/24 229/1/24
f 231/1/25 230/2/25 229/3/25
f 232/4/25 230/2/25 231/1/25
f 233/1/26 232/2/26 231/3/26
f 234/4/26 232/2/26 233/1/26
f 235/1/27 234/2/27 233/3/27
f 236/4/27 234/2/27 235/1/27
f 237/1/28 236/2/28 235/3/28
f 238/4/28 236/2/28 237/1/28
f 239/1/29 238/2/29 237/3/29
f 240/4/30 238/2/30 239/1/30
f 225/1/31 240/2/31 239/3/31
f 226/4/31 240/2/31 225/1/31
f 234/4/11 241/5/11 232/2/11
f 242/6/11 241/5/11 234/4/11
f 236/4/11 242/5/11 234/2/11
f 243/6/11 242/5/11 236/4/11
f 238/4/11 243/5/11 236/2/11
f 244/6/11 243/5/11 238/4/11
f 240/4/11 244/5/11 238/2/11
f 245/6/11 244/5/11 240/4/11
f 226/4/11 245/5/11 240/2/11
f 246/6/11 245/5/11 226/4/11
f 228/4/11 246/5/11 226/2/11
f 247/6/11 246/5/11 228/4/11
f 230/4/11 247/5/11 228/2/11
f 248/6/11 247/5/11 230/4/11
f 232/4/11 248/5/11 230/2/11
f 241/6/11 248/5/11 232/4/11
f 247/6/27 249/7/27 246/5/27
f 250/8/27 249/7/27 247/6/27
f 248/6/28 250/7/28 247/5/28
f 251/8/28 250/7/28 248/6/28
f 241/6/29 251/7/29 248/5/29
f 252/8/29 251/7/29 241/6/29
f 242/6/31 252/7/31 241/5/31
f 253/8/31 252/7/31 242/6/31
f 243/6/23 253/7/23 242/5/23
f 254/8/23 253/7/23 243/6/23
f 244/6/24 254/7/24 243/5/24
f 255/8/24 254/7/24 244/6/24
f 245/6/25 255/7/25 244/5/25
f 256/8/25 255/7/25 245/6/25
f 246/6/26 256/7/26 245/5/26
f 249/8/26 256/7/26 246/6/26
