# Blender 4.1.1
# www.blender.org
mtllib polygon804.mtl
o polygon804
v 4742.208008 -855.183228 -177.834610
v 4742.233398 -855.137451 -256.384918
v 4739.149902 -861.453064 -177.834610
v 4739.068359 -861.453735 -256.384918
v 4764.052246 -816.846252 -177.834610
v 4764.077148 -816.800842 -256.384918
v 4759.770020 -823.972839 -177.834610
v 4759.767090 -823.970215 -256.384918
v 4788.696289 -774.014038 -177.834610
v 4788.722168 -773.968262 -256.384888
v 4785.169434 -780.154602 -177.834610
v 4785.166016 -780.152222 -256.384888
v 4803.819336 -745.037659 -177.834610
v 4803.843262 -745.065552 -256.384888
v 4800.696289 -751.664246 -177.834610
v 4800.693359 -751.661804 -256.384888
v 4828.268066 -766.329895 -180.702591
v 4828.268066 -766.329956 -256.384888
v 4831.773438 -760.390991 -180.700897
v 4831.773438 -760.391052 -256.384888
v 4833.359375 -769.234192 -180.695099
v 4833.359375 -769.234741 -256.384888
v 4793.674316 -748.119080 -177.834610
v 4793.803223 -747.890137 -256.384888
v 4778.284668 -776.386353 -177.834610
v 4778.284668 -776.386414 -256.384888
v 4752.879395 -820.227051 -177.834610
v 4752.879395 -820.227112 -256.384918
v 4757.112793 -812.920288 -177.834610
v 4757.112793 -812.920349 -256.384918
v 4734.573242 -850.945984 -177.834610
v 4734.558105 -850.967896 -256.384918
v 4768.520020 -870.583252 -180.732178
v 4768.520020 -870.583313 -256.384888
v 4773.395996 -872.857788 -180.731781
v 4773.395996 -872.858093 -256.384888
v 4765.308105 -876.188660 -180.733780
v 4765.308105 -876.188721 -256.384888
v 4770.094238 -878.562866 -180.733780
v 4770.094238 -878.563110 -256.384888
v 4797.458008 -741.311157 -256.384888
v 4797.523438 -741.341614 -177.834610
v 4781.737305 -770.068420 -256.384888
v 4781.711426 -770.114197 -177.834610
v 4731.092285 -856.938354 -177.834610
v 4731.002441 -856.878784 -256.384918
v 4836.737793 -763.394226 -256.384888
v 4836.737793 -763.394165 -180.693085
vn 0.8988 -0.4384 -0.0000
vn 0.8940 -0.4480 -0.0009
vn 0.8572 -0.5150 -0.0000
vn 0.8570 -0.5152 -0.0001
vn 0.8672 -0.4980 -0.0000
vn 0.8669 -0.4985 -0.0001
vn 0.9046 -0.4263 0.0004
vn 0.9024 -0.4309 -0.0000
vn -0.8612 0.5083 -0.0000
vn -0.4955 -0.8686 -0.0000
vn -0.4956 -0.8686 -0.0000
vn -0.4507 -0.8927 -0.0033
vn -0.4802 -0.8772 -0.0000
vn -0.4801 -0.8772 -0.0000
vn -0.4776 -0.8786 -0.0000
vn -0.4775 -0.8786 -0.0000
vn 0.4924 0.8704 -0.0000
vn 0.4867 0.8736 0.0007
vn 0.4853 0.8744 -0.0003
vn 0.4773 0.8787 0.0007
vn 0.4228 0.9062 -0.0000
vn -0.8677 0.4972 -0.0000
vn -0.4444 -0.8958 -0.0000
vn 0.5069 0.8620 -0.0002
vn 0.5063 0.8624 -0.0001
vn -0.8775 0.4795 -0.0000
vn -0.8776 0.4795 -0.0000
vn -0.4888 -0.8724 0.0005
vn -0.4934 -0.8698 -0.0001
vn -0.8696 0.4938 -0.0000
vn -0.8742 0.4856 0.0009
vn -0.8569 0.5155 -0.0000
vn -0.8647 0.5023 0.0014
vn 0.5176 0.8556 -0.0000
vn -0.8653 0.5013 -0.0000
vn 0.4875 0.8731 0.0007
vt 0.369873 -0.441406
vt 0.487061 0.604492
vt 0.487061 -0.441406
vt 0.369873 0.604492
vt 2.746826 -1.613037
vt 2.568604 -0.556152
vt 2.574463 -1.613037
vt 2.730469 -0.556152
vt 0.356201 -0.556152
vt 0.478272 -1.613037
vt 0.478272 -0.556152
vt 0.356201 -1.613037
vt 1.797852 -1.613037
vt 1.991211 -0.556641
vt 1.800537 -0.556396
vt 1.987305 -1.613037
vt 3.675049 -1.613037
vt 3.496582 -0.556152
vt 3.507568 -1.613037
vt 3.675049 -0.556152
vt 3.929443 -1.613037
vt 3.797119 -0.557129
vt 3.797119 -1.613037
vt 3.929443 -0.557129
vt -3.149902 -0.555176
vt -3.011719 -1.613037
vt -2.995117 -0.555176
vt -3.149902 -1.613037
vt 1.268555 -0.556152
vt 1.450928 -1.613037
vt 1.450928 -0.556152
vt 1.268799 -1.613037
vt -0.665771 -0.555908
vt -0.509766 -1.613037
vt -0.507080 -0.555908
vt -0.668457 -1.613037
s 0
usemtl mt_town_n_isigakiB2.004
f 3/1/1 2/2/1 1/3/1
f 4/4/2 2/2/2 3/1/2
f 7/1/3 6/2/3 5/3/3
f 8/4/4 6/2/4 7/1/4
f 11/1/5 10/2/5 9/3/5
f 12/4/6 10/2/6 11/1/6
f 15/1/7 14/2/7 13/3/7
f 16/4/8 14/2/8 15/1/8
f 19/3/9 18/4/9 17/1/9
f 20/2/9 18/4/9 19/3/9
f 17/3/10 22/4/10 21/1/10
f 18/2/11 22/4/11 17/3/11
f 24/2/12 15/1/12 23/3/12
f 16/4/13 15/1/13 24/2/13
f 26/2/14 11/1/14 25/3/14
f 12/4/14 11/1/14 26/2/14
f 28/2/15 7/1/15 27/3/15
f 8/4/16 7/1/16 28/2/16
f 5/1/17 30/2/17 29/3/17
f 6/4/18 30/2/18 5/1/18
f 1/1/19 32/2/19 31/3/19
f 2/4/20 32/2/20 1/1/20
f 35/1/21 34/2/21 33/3/21
f 36/4/21 34/2/21 35/1/21
f 34/2/22 37/1/22 33/3/22
f 38/4/22 37/1/22 34/2/22
f 37/5/23 40/6/23 39/7/23
f 38/8/23 40/6/23 37/5/23
f 41/9/24 13/10/24 14/11/24
f 42/12/25 13/10/25 41/9/25
f 25/13/26 43/14/26 26/15/26
f 44/16/27 43/14/27 25/13/27
f 45/17/28 4/18/28 3/19/28
f 46/20/29 4/18/29 45/17/29
f 42/21/30 24/22/30 23/23/30
f 41/24/31 24/22/31 42/21/31
f 46/25/32 31/26/32 32/27/32
f 45/28/33 31/26/33 46/25/33
f 20/29/34 48/30/34 47/31/34
f 19/32/34 48/30/34 20/29/34
f 28/33/35 29/34/35 30/35/35
f 27/36/35 29/34/35 28/33/35
f 9/1/36 43/2/36 44/3/36
f 10/4/36 43/2/36 9/1/36
