# Blender 4.1.1
# www.blender.org
mtllib polygon430.mtl
o polygon430
v -1849.867920 2557.428223 -75.817253
v -1849.867920 2557.428223 -132.337402
v -1837.025146 2547.345215 -75.817261
v -1837.025146 2547.345215 -132.337402
v -1841.013062 2537.735107 -75.817261
v -1841.013062 2537.735107 -132.337402
v -1856.491089 2541.466064 -75.817322
v -1856.491089 2541.466064 -132.337402
v -1869.881104 2506.378174 -75.817245
v -1869.881104 2506.378174 -132.337402
v -1867.509033 2490.224121 -75.817253
v -1867.509033 2490.224121 -132.337387
v -1877.016968 2486.000000 -75.817253
v -1877.016968 2486.000000 -132.337387
v -1885.674072 2499.361084 -75.817314
v -1885.674072 2499.361084 -132.337402
v -1914.791016 2506.704102 -75.817245
v -1914.791016 2506.704102 -132.337402
v -1921.953979 2492.032227 -75.817253
v -1921.953979 2492.032227 -132.337387
v -1932.186035 2493.914062 -75.817253
v -1932.186035 2493.914062 -132.337387
v -1931.787109 2509.829834 -75.817314
v -1931.787109 2509.829834 -132.337418
v -1964.758057 2516.942139 -75.817245
v -1964.758057 2516.942139 -132.337402
v -1976.144043 2505.239990 -75.817245
v -1976.144043 2505.239990 -132.337402
v -1985.278076 2510.222168 -75.817245
v -1985.278076 2510.222168 -132.337418
v -1979.929932 2525.218018 -75.817314
v -1979.929932 2525.218018 -132.337402
v -2214.385986 2537.933105 -75.817261
v -2214.385986 2537.933105 -132.337402
v -2230.117188 2533.559082 -75.817253
v -2230.117188 2533.559082 -132.337402
v -2235.498047 2542.464111 -75.817261
v -2235.498047 2542.464111 -132.337402
v -2223.324219 2552.724121 -75.817322
v -2223.324219 2552.724121 -132.337402
v -2177.072021 2498.114014 -75.817253
v -2177.072021 2498.114014 -132.337402
v -2186.969971 2485.129150 -75.817253
v -2186.969971 2485.129150 -132.337387
v -2196.635986 2488.979004 -75.817253
v -2196.635986 2488.979004 -132.337387
v -2193.127197 2504.508057 -75.817314
v -2193.127197 2504.508057 -132.337402
v -2073.874023 2523.769043 -75.817253
v -2073.874023 2523.769043 -132.337402
v -2070.518066 2507.790771 -75.817245
v -2070.518066 2507.790771 -132.337402
v -2079.750000 2502.992188 -75.817245
v -2079.750000 2502.992188 -132.337402
v -2089.208008 2515.799072 -75.817314
v -2089.208008 2515.799072 -132.337402
v -2125.572021 2509.694824 -75.817245
v -2125.572021 2509.694824 -132.337418
v -2126.288086 2493.383057 -75.817253
v -2126.287109 2493.383057 -132.337387
v -2136.421143 2491.026855 -75.817253
v -2136.421143 2491.026855 -132.337387
v -2142.404053 2505.780762 -75.817314
v -2142.404053 2505.780762 -132.337402
v -1987.179077 2484.739990 -131.360687
v -2067.477051 2484.739990 -131.360687
v -1976.471069 2495.940918 -131.360687
v -2078.665771 2495.940918 -131.360687
v -1821.709961 2612.177246 -131.360703
v -2262.929199 2598.290771 -131.360703
v -2251.329834 2593.185059 -239.022079
v -2183.833008 2479.806152 -239.022079
v -2096.790771 2639.587158 -239.022110
v -2078.839844 2502.699219 -239.022003
v -1977.911011 2502.699219 -239.022003
v -1951.853027 2639.542236 -239.022110
v -1829.577026 2579.646240 -239.022079
v -1829.577026 2607.639893 -239.022110
v -1821.709961 2612.177246 -151.370499
v -1821.709961 2582.487061 -151.370499
v -1821.709961 2582.487061 -131.360703
v -2067.477051 2484.739990 -151.370483
v -2078.665771 2495.940918 -151.370483
v -1987.179077 2484.739990 -151.370483
v -1976.471069 2495.940918 -151.370483
v -2189.629150 2472.614014 -151.370468
v -2189.629150 2472.614014 -131.360672
v -1865.677124 2476.343018 -131.360687
v -1865.677124 2476.343018 -151.370483
v -2262.929199 2598.290771 -151.370499
v -2103.255127 2646.459229 -224.856720
v -1951.438965 2646.459229 -224.856720
v -2262.929199 2598.292236 -224.856720
v -1821.709961 2612.178223 -224.856720
v -1821.709961 2582.487061 -224.856689
v -2189.629150 2472.614014 -224.856689
v -1976.471069 2495.940918 -224.856583
v -1868.658081 2485.296143 -239.022079
v -1865.677124 2476.343018 -224.856689
v -2078.665771 2495.940918 -224.856583
v -1955.674072 2533.246826 -340.660675
v -1976.864014 2548.716797 -291.250183
v -1976.864014 2517.775879 -291.250183
v -1934.485107 2517.775879 -291.250183
v -1934.485107 2548.716797 -291.250183
v -2099.154053 2533.246826 -340.660675
v -2120.343994 2548.716797 -291.250183
v -2120.343994 2517.775879 -291.250183
v -2077.964111 2517.775879 -291.250183
v -2077.964111 2548.716797 -291.250183
v -1987.179077 2484.739746 -319.320099
v -2006.379150 2517.775879 -378.316895
v -2067.477051 2484.739746 -319.320099
v -2048.758057 2517.775879 -378.316895
v -2067.958008 2581.753906 -319.320068
v -2048.758057 2548.716797 -378.316864
v -1987.659790 2581.753906 -319.320068
v -2006.379150 2548.716797 -378.316864
v -2078.665771 2570.552979 -319.320068
v -2078.665771 2495.940918 -319.320099
v -1976.471069 2495.940918 -319.320099
v -1976.471069 2570.552979 -319.320068
v -2027.568970 2533.247070 -463.823181
v -2048.758057 2548.716797 -414.412720
v -2048.758057 2517.775879 -414.412750
v -2006.379150 2517.775879 -414.412750
v -2006.379150 2548.716797 -414.412720
v -2025.073975 2487.402832 -351.441711
v -2021.682129 2487.402832 -351.441711
v -2013.196045 2491.557861 -358.469208
v -2004.498047 2487.402832 -351.441711
v -2001.105103 2487.402832 -351.441711
v -2053.642090 2487.402832 -351.441711
v -2050.250000 2487.402832 -351.441711
v -2041.764038 2491.557861 -358.469208
v -2033.064941 2487.402832 -351.441711
v -2029.673096 2487.402832 -351.441711
v -2013.196045 2513.666992 -358.469208
v -2025.073975 2511.340820 -351.441711
v -2001.106079 2511.354980 -351.441589
v -2021.682129 2487.402832 -323.331390
v -2025.073975 2487.402832 -323.331390
v -2001.105103 2487.402832 -323.331390
v -2004.498047 2487.402832 -323.331390
v -2041.764038 2513.666992 -358.469208
v -2053.642090 2511.340820 -351.441711
v -2029.673096 2511.354980 -351.441589
v -2050.250000 2487.402832 -323.331390
v -2053.642090 2487.402832 -323.331390
v -2029.673096 2487.402832 -323.331390
v -2033.064941 2487.402832 -323.331390
vn 0.9674 0.2531 -0.0000
vn 0.6175 0.7865 -0.0000
vn 0.6175 0.7866 -0.0000
vn 0.4533 -0.8914 -0.0000
vn 0.8473 -0.5311 -0.0000
vn -0.2344 -0.9721 -0.0000
vn -0.2343 -0.9722 -0.0000
vn 0.8759 -0.4825 -0.0000
vn 0.9894 0.1453 -0.0000
vn -0.2849 -0.9585 -0.0000
vn 0.2490 -0.9685 -0.0000
vn -0.8392 -0.5438 -0.0000
vn 0.4505 -0.8928 -0.0000
vn 0.8986 -0.4387 -0.0000
vn -0.7764 -0.6303 -0.0000
vn -0.3414 -0.9399 -0.0000
vn -0.9997 0.0251 -0.0000
vn 0.1493 -0.9888 -0.0000
vn 0.7167 -0.6974 -0.0000
vn -0.9343 -0.3564 -0.0000
vn -0.6177 -0.7864 -0.0000
vn -0.9419 0.3359 -0.0000
vn -0.3691 -0.9294 -0.0000
vn 0.2679 -0.9635 -0.0000
vn -0.9867 0.1628 -0.0000
vn -0.9298 -0.3682 -0.0000
vn -0.6444 0.7646 -0.0000
vn -0.6444 0.7647 -0.0000
vn 0.2669 -0.9637 -0.0000
vn 0.7953 -0.6062 -0.0000
vn 0.2670 -0.9637 -0.0000
vn -0.8848 -0.4660 -0.0000
vn -0.5189 -0.8549 -0.0000
vn -0.9754 0.2204 -0.0000
vn 0.9038 -0.4280 -0.0000
vn 0.9786 0.2055 -0.0000
vn 0.9038 -0.4279 -0.0000
vn -0.2257 -0.9742 -0.0000
vn 0.3078 -0.9514 -0.0000
vn -0.8044 -0.5941 -0.0000
vn 0.7692 -0.6389 -0.0000
vn 0.9990 -0.0438 -0.0000
vn 0.9990 -0.0439 -0.0000
vn 0.7693 -0.6389 -0.0000
vn -0.4605 -0.8877 -0.0000
vn 0.0619 -0.9981 -0.0000
vn -0.9267 -0.3758 -0.0000
vn -0.0000 -0.0000 1.0000
vn -0.0000 -0.0000 -1.0000
vn 1.0000 -0.0000 -0.0000
vn -0.7075 -0.7067 -0.0000
vn -0.0000 -1.0000 -0.0000
vn 0.7228 -0.6910 -0.0000
vn 0.2057 -0.9786 -0.0000
vn 0.9239 -0.3827 -0.0000
vn -0.8638 -0.5038 -0.0000
vn -0.1742 -0.9847 -0.0000
vn -0.0000 0.8997 -0.4365
vn 0.0003 0.8986 -0.4388
vn -0.2496 0.8276 -0.5028
vn -0.2470 0.8228 -0.5119
vn 0.2276 0.8724 -0.4326
vn 0.2328 0.8811 -0.4116
vn 0.8742 -0.0000 -0.4855
vn -0.7331 -0.4364 -0.5216
vn -0.7646 -0.4459 -0.4653
vn -0.1432 -0.8988 -0.4143
vn -0.1503 -0.8497 -0.5054
vn 0.1902 -0.9046 -0.3815
vn 0.1929 -0.8847 -0.4244
vn 0.8468 -0.3508 -0.3999
vn 0.8468 -0.3507 -0.3999
vn -0.9191 -0.0000 -0.3941
vn 0.9191 -0.0000 -0.3941
vn -0.0000 -0.9543 -0.2988
vn -0.0000 0.9543 -0.2988
vn -0.0000 -0.8725 -0.4886
vn -0.0000 0.8725 -0.4886
vn -0.8919 -0.0000 -0.4522
vn 0.8919 -0.0000 -0.4522
vn -0.6012 -0.6006 -0.5271
vn 0.6137 -0.5867 -0.5283
vn -0.6137 0.5867 -0.5283
vn 0.6012 0.6006 -0.5271
vn 0.9190 -0.0000 -0.3941
vn -0.0000 -0.8608 -0.5090
vn -0.0000 -0.8608 -0.5089
vn -0.5092 -0.0000 -0.8606
vn 0.5025 -0.0000 -0.8645
vn 0.5025 -0.0000 -0.8646
vn -0.5092 -0.0000 -0.8607
vn -1.0000 -0.0000 -0.0000
vt 1.783203 0.931396
vt 1.970703 0.190674
vt 1.970703 0.931396
vt 1.783203 0.190674
vt 1.655518 0.931396
vt 1.655518 0.190674
vt 1.471680 0.931396
vt 1.471680 0.190674
vt 2.365234 -0.760254
vt 1.507080 -0.648193
vt 2.264160 -0.648193
vt 1.401611 -0.760254
vt 3.824463 -1.925293
vt -0.335938 -1.786133
vt -1.422119 -0.623291
vt -2.072510 0.242432
vt -2.624268 -0.623291
vt -1.237061 0.242432
vt -0.467529 0.242432
vt -0.279053 -0.623291
vt 0.697754 -0.415527
vt 0.697754 -0.623291
vt 1.305664 1.184326
vt 1.666992 1.376221
vt 1.305664 1.376221
vt 1.666992 1.184326
vt 0.916504 1.184326
vt 0.750488 1.376221
vt 0.750488 1.184326
vt 0.916504 1.376221
vt -0.439941 1.376221
vt -0.439941 1.184326
vt -0.598877 1.376221
vt -0.598877 1.184326
vt 2.141113 1.184326
vt 2.141113 1.376221
vt 3.112549 1.184326
vt 3.112549 1.376221
vt -1.847656 1.376221
vt -1.847656 1.184326
vt -0.476318 0.877685
vt -2.104736 0.997803
vt -2.150146 0.877685
vt -0.476318 0.997803
vt 5.092529 0.877685
vt 4.147461 0.997803
vt 4.096191 0.877685
vt 5.124512 0.997803
vt -0.288086 0.877685
vt 1.225098 0.997803
vt -0.178955 0.997803
vt 1.350342 0.877685
vt 2.206787 0.877685
vt 1.890869 0.997803
vt 1.839600 0.877685
vt 2.238770 0.997803
vt 1.983887 0.877685
vt 3.951660 0.997803
vt 2.038330 0.997803
vt 3.961182 0.877685
vt 3.398926 0.997803
vt 1.898682 0.877685
vt 3.517578 0.877685
vt 1.972412 0.997803
vt 3.630859 0.997803
vt 3.675781 0.877685
vt 3.824463 -1.627686
vt 3.409912 -0.563965
vt 0.366699 0.242432
vt 0.355225 -0.526611
vt 0.096924 0.751953
vt 0.856934 0.751953
vt 0.476807 0.373779
vt 0.769287 0.751953
vt 0.184570 0.751953
vt 0.205078 0.751953
vt 0.745606 0.751953
vt 0.359131 0.373779
vt 0.690918 0.751953
vt 0.023682 0.751953
vt -0.072021 0.183838
vt -0.966797 0.621094
vt -1.328125 0.183838
vt -0.427246 0.621094
vt -1.579590 0.184082
vt -0.467529 0.621094
vt -0.029053 0.184082
vt -1.094482 0.621094
vt -1.030273 0.621094
vt 0.187012 0.184082
vt -0.362305 0.621094
vt -0.400879 0.621094
vt -1.375732 0.184082
vt -0.953125 0.621094
vt -0.016846 0.184082
vt 0.103027 0.183838
vt -1.495605 0.183838
vt 0.514648 1.066650
vt 0.641846 0.944092
vt 0.713379 0.944092
vt 0.368897 0.944092
vt 0.315674 0.944092
vt 0.740234 1.135742
vt 0.581543 1.413818
vt 0.270508 1.154785
vt 0.448730 1.413818
vt -0.838379 0.447998
vt -0.800781 0.852295
vt -0.800781 0.447998
vt -0.838379 0.852295
vt -1.122070 0.852295
s 1
usemtl mt_renga.002
f 3/1/1 2/2/2 1/3/3
f 4/4/1 2/2/2 3/1/1
f 5/5/4 4/4/1 3/1/1
f 6/6/5 4/4/1 5/5/4
f 7/7/6 6/6/5 5/5/4
s 0
f 8/8/7 6/6/7 7/7/7
s 1
f 11/1/8 10/2/9 9/3/9
f 12/4/8 10/2/9 11/1/8
f 13/5/10 12/4/8 11/1/8
f 14/6/11 12/4/8 13/5/10
f 15/7/12 14/6/11 13/5/10
s 0
f 16/8/12 14/6/12 15/7/12
s 1
f 19/1/13 18/2/14 17/3/14
f 20/4/13 18/2/14 19/1/13
f 21/5/15 20/4/13 19/1/13
f 22/6/16 20/4/13 21/5/15
f 23/7/17 22/6/16 21/5/15
s 0
f 24/8/17 22/6/17 23/7/17
s 1
f 27/1/18 26/2/19 25/3/19
f 28/4/18 26/2/19 27/1/18
f 29/5/20 28/4/18 27/1/18
f 30/6/21 28/4/18 29/5/20
f 31/7/22 30/6/21 29/5/20
s 0
f 32/8/22 30/6/22 31/7/22
s 1
f 35/1/23 34/2/24 33/3/24
f 36/4/23 34/2/24 35/1/23
f 37/5/25 36/4/23 35/1/23
f 38/6/26 36/4/23 37/5/25
f 39/7/27 38/6/26 37/5/25
s 0
f 40/8/28 38/6/28 39/7/28
s 1
f 43/1/29 42/2/30 41/3/30
f 44/4/31 42/2/30 43/1/29
f 45/5/32 44/4/31 43/1/29
f 46/6/33 44/4/31 45/5/32
f 47/7/34 46/6/33 45/5/32
s 0
f 48/8/34 46/6/34 47/7/34
s 1
f 51/1/35 50/2/36 49/3/36
f 52/4/37 50/2/36 51/1/35
f 53/5/38 52/4/37 51/1/35
f 54/6/39 52/4/37 53/5/38
f 55/7/40 54/6/39 53/5/38
s 0
f 56/8/40 54/6/40 55/7/40
s 1
f 59/1/41 58/2/42 57/3/43
f 60/4/44 58/2/42 59/1/41
f 61/5/45 60/4/44 59/1/41
f 62/6/46 60/4/44 61/5/45
f 63/7/47 62/6/46 61/5/45
s 0
f 64/8/47 62/6/47 63/7/47
f 67/9/48 66/10/48 65/11/48
f 68/12/48 66/10/48 67/9/48
f 69/13/48 68/12/48 67/9/48
f 70/14/48 68/12/48 69/13/48
f 73/15/49 72/16/49 71/17/49
f 74/18/49 72/16/49 73/15/49
f 75/19/49 74/18/49 73/15/49
f 76/20/49 75/19/49 73/15/49
f 77/21/49 75/19/49 76/20/49
f 78/22/49 77/21/49 76/20/49
f 69/23/50 80/24/50 79/25/50
f 81/26/50 80/24/50 69/23/50
f 68/27/51 82/28/51 66/29/51
f 83/30/51 82/28/51 68/27/51
f 66/29/52 84/31/52 65/32/52
f 82/28/52 84/31/52 66/29/52
f 65/32/53 85/33/53 67/34/53
f 84/31/53 85/33/53 65/32/53
f 83/30/54 87/35/54 86/36/54
f 68/27/54 87/35/54 83/30/54
f 88/37/55 80/24/55 81/26/55
f 89/38/55 80/24/55 88/37/55
f 86/25/56 70/37/56 90/38/56
f 87/23/56 70/37/56 86/25/56
f 67/34/57 89/39/57 88/40/57
f 85/33/57 89/39/57 67/34/57
f 92/41/58 73/42/58 91/43/58
f 76/44/59 73/42/59 92/41/59
f 91/45/60 71/46/60 93/47/60
f 73/48/61 71/46/61 91/45/61
f 92/49/62 78/50/62 76/51/62
f 94/52/63 78/50/63 92/49/63
f 95/53/64 78/54/64 94/55/64
f 77/56/64 78/54/64 95/53/64
f 96/57/65 71/58/65 72/59/65
f 93/60/66 71/58/66 96/57/66
f 98/51/67 97/52/67 75/50/67
f 99/49/68 97/52/68 98/51/68
f 72/61/69 100/62/69 96/63/69
f 74/64/70 100/62/70 72/61/70
f 98/65/71 95/53/71 99/66/71
f 77/56/72 95/53/72 98/65/72
f 81/67/48 67/9/48 88/68/48
f 69/13/48 67/9/48 81/67/48
f 75/19/49 77/21/49 98/69/49
f 70/14/48 87/70/48 68/12/48
f 103/71/73 102/72/73 101/73/73
f 105/74/74 104/75/74 101/73/74
f 101/73/75 104/76/75 103/77/75
f 101/78/76 102/79/76 105/80/76
f 108/71/73 107/72/73 106/73/73
f 110/74/74 109/75/74 106/73/74
f 106/73/75 109/76/75 108/77/75
f 106/78/76 107/79/76 110/80/76
f 113/81/77 112/82/77 111/83/77
f 114/84/77 112/82/77 113/81/77
f 117/85/78 116/86/78 115/87/78
f 118/88/78 116/86/78 117/85/78
f 114/89/79 119/90/79 116/91/79
f 120/85/79 119/90/79 114/89/79
f 118/92/80 121/93/80 112/94/80
f 122/95/80 121/93/80 118/92/80
f 114/84/81 113/81/81 120/96/81
f 112/82/82 121/97/82 111/83/82
f 116/86/83 119/90/83 115/87/83
f 118/92/84 117/90/84 122/95/84
f 125/71/73 124/72/73 123/73/73
f 127/74/85 126/75/85 123/73/85
f 123/73/75 126/76/75 125/77/75
f 123/78/76 124/79/76 127/80/76
f 130/98/86 129/99/86 128/100/86
f 131/101/87 129/99/87 130/98/87
f 132/102/87 131/101/87 130/98/87
f 135/98/87 134/99/87 133/100/87
f 136/101/87 134/99/87 135/98/87
f 137/102/86 136/101/86 135/98/86
f 130/98/88 139/103/88 138/104/88
f 128/100/88 139/103/88 130/98/88
f 140/105/89 130/98/89 138/106/89
f 132/102/90 130/98/90 140/105/90
f 142/107/52 129/108/52 141/109/52
f 128/110/52 129/108/52 142/107/52
f 143/107/52 131/108/52 132/110/52
f 144/109/52 131/108/52 143/107/52
f 135/98/91 146/103/91 145/104/91
f 133/100/91 146/103/91 135/98/91
f 147/105/90 135/98/90 145/106/90
f 137/102/90 135/98/90 147/105/90
f 149/107/52 134/108/52 148/109/52
f 133/110/52 134/108/52 149/107/52
f 150/107/52 136/108/52 137/110/52
f 151/109/52 136/108/52 150/107/52
f 139/111/92 128/110/92 142/107/92
f 143/107/50 132/110/50 140/111/50
f 146/111/92 133/110/92 149/107/92
f 150/107/50 137/110/50 147/111/50
