# Blender 4.1.1
# www.blender.org
mtllib polygon559.mtl
o polygon559
v -1932.913086 3336.360840 -64.004753
v -1932.913086 3104.080811 -64.004723
v -1932.913086 3336.360840 -110.936485
v -1932.913086 3104.080811 -110.936470
v -2267.157959 3336.360840 -64.004753
v -2267.157959 3336.360840 -110.936485
v -2267.157959 3104.080811 -64.004723
v -2267.157959 3104.080811 -110.936470
vn -1.0000 -0.0000 -0.0000
vn -0.0000 -1.0000 -0.0000
vn 1.0000 -0.0000 -0.0000
vn -0.0000 1.0000 -0.0000
vt -6.278320 9.192383
vt -0.975098 1.060547
vt -7.692383 7.778320
vt 0.439453 2.475098
vt 9.278319 -9.192383
vt 10.692380 -7.778320
s 0
usemtl png_net_b
f 3/1/1 2/2/1 1/3/1
f 4/4/1 2/2/1 3/1/1
f 6/4/2 1/5/2 5/2/2
f 3/6/2 1/5/2 6/4/2
f 8/1/3 5/2/3 7/3/3
f 6/4/3 5/2/3 8/1/3
f 4/4/4 7/5/4 2/2/4
f 8/6/4 7/5/4 4/4/4
