# Blender 4.1.1
# www.blender.org
mtllib polygon821.mtl
o polygon821
v 1046.509033 -4917.613770 -2396.577637
v 1141.428101 -4764.978516 -2588.854736
v 822.002563 -4702.333496 -2369.742676
v 930.072144 -4355.941406 -2671.732666
v 721.149658 -4497.280273 -2215.450684
v 877.242004 -3968.227295 -2525.754639
v 746.840515 -3981.491455 -2129.015625
v 750.521484 -3560.253174 -2218.394531
v 2541.824219 -4937.438965 -2194.999512
v 2529.643066 -4933.422852 -2211.036621
v 2454.318115 -5012.331543 -2194.999512
v 2485.469238 -4882.460449 -2318.687500
v 2223.321045 -4837.673828 -2596.038574
v 2487.694092 -4852.984863 -2352.233643
v 2515.558105 -4811.293945 -2374.128662
v 3151.732178 -3996.394775 -2070.499512
v 3160.427979 -3921.179443 -2057.208740
v 2833.429932 -3889.083252 -2587.838379
v 3164.882080 -3845.028320 -2043.799438
v 2808.379883 -3593.805420 -2570.066650
v 3168.645264 -3769.299316 -2033.055542
v 3170.223145 -3693.660400 -2022.312622
v 3024.786133 -3442.516602 -2015.999634
v 2889.057129 -3123.759277 -2015.999512
v 2690.865234 -3291.140137 -2570.456543
v 2854.300049 -2887.800293 -2015.999634
v 2546.989014 -3011.567139 -2532.259766
v 2834.839844 -2872.312500 -2015.999634
v 2769.083008 -2844.760254 -2009.605713
v 1390.467896 -4866.492188 -2639.224609
v 1282.446045 -5219.666504 -2247.662354
v 1592.774048 -4990.499512 -2570.800537
v 1552.174072 -5370.455566 -2127.347168
v 943.267090 -2992.901367 -2464.382812
v 1028.294067 -3193.794189 -2614.722656
v 1152.106079 -2892.279053 -2413.132812
v 1250.493042 -2978.800049 -2609.436768
v 1448.787109 -2892.698486 -1789.685791
v 1612.880005 -2950.520264 -1834.310791
v 2267.127197 -2911.839355 -1946.282837
v 2308.631104 -2955.726074 -2559.391602
v 2425.300049 -2860.698486 -1970.369629
v 2536.780029 -2833.261475 -1988.455811
v 2620.052246 -2825.234375 -1995.833740
v 2505.091064 -4622.482422 -2614.574463
v 2566.442139 -4763.959473 -2379.083740
v 2621.878906 -4738.119629 -2353.194336
v 2663.028076 -4735.343750 -2314.024414
v 2768.409912 -4743.511719 -2194.999268
v 2833.519043 -4684.560547 -2194.999512
v 1865.364014 -5016.205566 -2558.020752
v 1890.042114 -5343.464844 -2096.502197
v 1971.134033 -5307.181641 -2117.521240
v 2052.238037 -5262.205078 -2138.936035
v 2174.550049 -5188.287598 -2166.816406
v 2023.711060 -4956.253906 -2553.444580
v 2247.949951 -5142.170410 -2179.718262
v 2321.349854 -5096.053711 -2189.999512
v 2612.704102 -4524.392090 -2620.264648
v 2894.628174 -4622.050293 -2187.840576
v 2943.158936 -4554.500488 -2178.140625
v 2762.299072 -4297.625977 -2612.970703
v 2991.163086 -4471.350586 -2164.422607
v 3033.813965 -4380.064453 -2147.890625
v 2813.868896 -4122.859863 -2608.799561
v 3074.229248 -4274.959473 -2127.564697
v 3110.159912 -4169.618652 -2106.350586
v 3135.444092 -4082.938477 -2088.368652
v 3168.291260 -3637.784424 -2019.410400
v 3161.667969 -3582.132568 -2016.499634
v 3149.462158 -3557.663330 -2016.499634
v 2734.233154 -2836.108398 -2006.409546
v 2699.383057 -2830.070068 -2003.212769
v 2659.718018 -2826.346680 -1999.522827
v 2041.515991 -2962.146484 -1911.197754
v 1954.348999 -3000.472168 -2457.240967
v 2151.632080 -2932.627197 -2485.409424
v 2438.423096 -5024.160156 -2194.999512
v 2711.514893 -4792.205566 -2194.999512
v 2707.247070 -4778.821777 -2215.429443
v 922.527588 -3588.417236 -2656.035645
v 720.735779 -3323.372314 -2296.516602
v 1157.385010 -3263.475342 -2852.846680
v 1352.994019 -3129.111328 -2878.542725
v 1606.333130 -3018.475098 -2494.873779
v 1748.337036 -3026.017334 -2466.232666
v 1784.091064 -2980.482422 -1868.649536
vn -0.7341 -0.3152 -0.6014
vn -0.4844 -0.5386 -0.6895
vn -0.4587 -0.5753 -0.6772
vn -0.8398 -0.1412 -0.5241
vn -0.9178 -0.0109 -0.3968
vn -0.9366 0.0143 -0.3502
vn -0.9500 0.0237 -0.3114
vn -0.9315 -0.1228 -0.3423
vn 0.5095 -0.6531 -0.5603
vn 0.5467 -0.6332 -0.5478
vn 0.5366 -0.6270 -0.5647
vn 0.4989 -0.6606 -0.5610
vn 0.4146 -0.7146 -0.5634
vn 0.4883 -0.6600 -0.5709
vn 0.5101 -0.6544 -0.5582
vn 0.8529 0.0310 -0.5212
vn 0.8517 0.0204 -0.5236
vn 0.8489 -0.0268 -0.5279
vn 0.8441 0.0485 -0.5340
vn 0.8407 0.2489 -0.4809
vn 0.8366 0.0470 -0.5459
vn 0.8378 0.0584 -0.5428
vn 0.8168 0.3545 -0.4552
vn 0.8902 0.2362 -0.3895
vn 0.7424 0.5178 -0.4251
vn 0.7459 0.4664 -0.4755
vn 0.4425 0.7973 -0.4105
vn 0.4544 0.7633 -0.4592
vn 0.2635 0.8809 -0.3931
vn -0.3035 -0.6621 -0.6852
vn -0.2193 -0.7093 -0.6700
vn -0.1192 -0.7345 -0.6680
vn -0.0087 -0.7801 -0.6256
vn 0.0853 0.8822 -0.4630
vn -0.6614 0.4166 -0.6237
vn -0.4048 0.4318 -0.8060
vn -0.1644 0.8727 -0.4598
vn 0.3024 0.9376 -0.1716
vn 0.2067 0.9703 -0.1255
vn -0.2326 0.9528 -0.1950
vn 0.1371 0.9811 -0.1367
vn -0.2476 0.9674 -0.0533
vn -0.2008 0.9297 -0.3086
vn -0.0594 0.9454 -0.3203
vn 0.5027 -0.6691 -0.5473
vn 0.5489 -0.6457 -0.5309
vn 0.5489 -0.6456 -0.5309
vn 0.5498 -0.6448 -0.5310
vn 0.6021 -0.5905 -0.5374
vn 0.5666 -0.6258 -0.5361
vn 0.5571 -0.6388 -0.5306
vn 0.1529 -0.7769 -0.6108
vn 0.1566 -0.8017 -0.5768
vn 0.2353 -0.7840 -0.5744
vn 0.3221 -0.7538 -0.5727
vn 0.3390 -0.7424 -0.5778
vn 0.2956 -0.7620 -0.5761
vn 0.3657 -0.7271 -0.5811
vn 0.3862 -0.7262 -0.5687
vn 0.6287 -0.5542 -0.5455
vn 0.6799 -0.4825 -0.5522
vn 0.7368 -0.3987 -0.5460
vn 0.7737 -0.3322 -0.5394
vn 0.7886 -0.3187 -0.5258
vn 0.8181 -0.2475 -0.5191
vn 0.8460 -0.1293 -0.5172
vn 0.8339 -0.2001 -0.5144
vn 0.8371 -0.1385 -0.5292
vn 0.8366 -0.0892 -0.5405
vn 0.8369 0.0909 -0.5398
vn 0.8141 0.2488 -0.5248
vn 0.7182 0.5080 -0.4757
vn 0.1633 0.9169 -0.3641
vn 0.0955 0.9328 -0.3475
vn 0.0281 0.9423 -0.3336
vn -0.1971 0.9800 -0.0282
vn -0.1522 0.9873 -0.0450
vn -0.0950 0.9953 -0.0180
vn 0.4575 -0.6868 -0.5648
vn 0.5493 -0.6418 -0.5352
vn 0.5497 -0.6449 -0.5309
vn -0.8734 0.0934 -0.4780
vn -0.8542 0.0215 -0.5195
vn -0.6568 0.5491 -0.5168
vn -0.2808 0.8029 -0.5259
vn 0.1367 0.9774 -0.1615
vn -0.0057 0.9962 -0.0864
vn 0.0427 0.9964 -0.0735
vt -5.391113 -0.421875
vt -5.879639 -0.148926
vt -5.879639 -0.382080
vt -5.148926 -0.115479
vt -5.139648 -0.593506
vt -4.776123 -0.252686
vt -4.776367 -0.616943
vt -4.452637 -0.533935
vt 0.224121 -0.552002
vt 0.137207 -0.533447
vt 0.133545 -0.551758
vt 0.132080 -0.407959
vt 0.305908 -0.090820
vt 0.114014 -0.368897
vt 0.074951 -0.343506
vt -1.014160 -0.006592
vt -0.997070 -0.692871
vt -0.955322 -0.681885
vt -1.039063 -0.703613
vt -1.362793 -0.087646
vt -1.101563 -0.715576
vt -1.164063 -0.727295
vt -1.681641 -0.040283
vt -1.650635 -0.755127
vt -1.426514 -0.756104
vt -1.779785 -0.760742
vt -2.075439 -0.089844
vt -1.930420 -0.767578
vt -2.006104 -0.768799
vt -6.246094 -0.164307
vt -6.244385 -0.524902
vt -6.632080 -0.070557
vt -6.632080 -0.635498
vt -3.557617 -0.469727
vt -3.883789 -0.132568
vt -3.791992 -0.428711
vt -3.520508 -0.139648
vt -3.121094 -1.030029
vt -3.000244 -0.951416
vt -2.381348 -0.788330
vt -2.311768 -0.123047
vt -2.517578 -0.810303
vt -2.226074 -0.774170
vt -2.153809 -0.772217
vt -0.027100 -0.063477
vt 0.020264 -0.337647
vt -0.024902 -0.367676
vt -0.048828 -0.413330
vt -0.101807 -0.551270
vt -0.224365 -0.550049
vt 0.770996 -0.055420
vt 1.117920 -0.635498
vt 1.117920 -0.070557
vt 0.883057 -0.622559
vt 0.794190 -0.613770
vt 0.591309 -0.026855
vt 0.524170 -0.586670
vt 0.705566 -0.605225
vt 0.430908 -0.570068
vt 0.337647 -0.553467
vt -0.147949 -0.055176
vt -0.282471 -0.553467
vt -0.340576 -0.556641
vt -0.627930 -0.096924
vt -0.475342 -0.575195
vt -0.610107 -0.593994
vt -0.807861 -0.068848
vt -0.706299 -0.613037
vt -0.802490 -0.632324
vt -0.878906 -0.656982
vt -1.220947 -0.742188
vt -1.278076 -0.757324
vt -1.314453 -0.756836
vt -2.043701 -0.769531
vt -2.081543 -0.770264
vt -2.117676 -0.771240
vt -2.660889 -0.270752
vt -2.657471 -0.853271
vt -2.503662 -0.267822
vt 0.238770 -0.552246
vt -0.048096 -0.528076
vt -0.042969 -0.551514
vt -4.316895 -0.052002
vt -4.166260 -0.542969
vt -3.753174 0.245117
vt -3.429932 0.217773
vt -3.078369 -0.239258
vt -2.880615 -0.284668
vt -2.867676 -0.902344
s 1
usemtl mt_mountain_blend
f 3/1/1 2/2/2 1/3/3
f 4/4/4 2/2/2 3/1/1
f 5/5/5 4/4/4 3/1/1
f 6/6/6 4/4/4 5/5/5
f 7/7/7 6/6/6 5/5/5
f 8/8/8 6/6/6 7/7/7
f 11/9/9 10/10/10 9/11/11
f 12/12/12 10/10/10 11/9/9
f 13/13/13 12/12/12 11/9/9
f 14/14/14 12/12/12 13/13/13
f 15/15/15 14/14/14 13/13/13
f 18/16/16 17/17/17 16/18/18
f 19/19/19 17/17/17 18/16/16
f 20/20/20 19/19/19 18/16/16
f 21/21/21 19/19/19 20/20/20
f 22/22/22 21/21/21 20/20/20
f 25/23/23 24/24/24 23/25/25
f 26/26/26 24/24/24 25/23/23
f 27/27/27 26/26/26 25/23/23
f 28/28/28 26/26/26 27/27/27
f 29/29/29 28/28/28 27/27/27
f 30/30/30 1/3/3 2/2/2
f 31/31/31 1/3/3 30/30/30
f 32/32/32 31/31/31 30/30/30
f 33/33/33 31/31/31 32/32/32
f 36/34/34 35/35/35 34/36/36
f 37/37/37 35/35/35 36/34/34
f 38/38/38 37/37/37 36/34/34
f 39/39/39 37/37/37 38/38/38
f 42/40/40 41/41/41 40/42/42
f 27/27/27 41/41/41 42/40/40
f 43/43/43 27/27/27 42/40/40
f 44/44/44 27/27/27 43/43/43
f 45/45/45 15/15/15 13/13/13
f 46/46/46 15/15/15 45/45/45
f 47/47/47 46/46/46 45/45/45
f 45/45/45 48/48/47 47/47/47
s 0
f 49/49/48 48/48/48 45/45/48
s 1
f 50/50/49 49/49/50 45/45/51
f 51/51/52 33/52/33 32/53/32
f 52/54/53 33/52/33 51/51/52
f 53/55/54 52/54/53 51/51/52
f 56/56/55 55/57/56 54/58/57
f 57/59/58 55/57/56 56/56/55
f 58/60/59 57/59/58 56/56/55
f 59/61/60 50/50/49 45/45/51
f 60/62/61 50/50/49 59/61/60
f 61/63/62 60/62/61 59/61/60
f 62/64/63 61/63/62 59/61/60
f 63/65/64 61/63/62 62/64/63
f 64/66/65 63/65/64 62/64/63
f 65/67/66 64/66/65 62/64/63
f 66/68/67 64/66/65 65/67/66
f 67/69/68 66/68/67 65/67/66
f 18/16/16 67/69/68 65/67/66
f 68/70/69 67/69/68 18/16/16
f 16/18/18 68/70/69 18/16/16
f 20/20/20 69/71/70 22/22/22
f 70/72/71 69/71/70 20/20/20
f 71/73/72 70/72/71 20/20/20
f 27/27/27 72/74/73 29/29/29
f 73/75/74 72/74/73 27/27/27
f 74/76/75 73/75/74 27/27/27
f 40/42/42 76/77/76 75/78/77
f 77/79/78 76/77/76 40/42/42
f 41/41/41 77/79/78 40/42/42
f 78/80/79 13/13/13 11/9/9
f 58/60/59 13/13/13 78/80/79
s 0
f 80/81/80 49/49/80 79/82/80
f 48/48/81 49/49/81 80/81/81
s 1
f 51/51/52 54/58/57 53/55/54
f 56/56/55 54/58/57 51/51/52
f 20/20/20 23/25/25 71/73/72
f 25/23/23 23/25/25 20/20/20
f 8/8/8 81/83/82 6/6/6
f 82/84/83 81/83/82 8/8/8
f 81/83/82 35/35/35 83/85/84
f 82/84/83 35/35/35 81/83/82
f 35/35/35 84/86/85 83/85/84
f 37/37/37 84/86/85 35/35/35
f 37/37/37 85/87/86 84/86/85
f 39/39/39 85/87/86 37/37/37
f 39/39/39 86/88/87 85/87/86
f 87/89/88 86/88/87 39/39/39
f 87/89/88 76/77/76 86/88/87
f 75/78/77 76/77/76 87/89/88
f 13/13/13 58/60/59 56/56/55
f 34/36/36 35/35/35 82/84/83
f 74/76/75 27/27/27 44/44/44
