# Blender 4.1.1
# www.blender.org
mtllib polygon0.133.mtl
o TreeA.124
v 27.500000 47.632805 -24.640636
v -27.500000 47.632805 -24.640636
v 0.000000 -0.000022 -184.640579
v -55.000000 -0.000003 -24.640629
v -27.500000 -47.632809 -24.640623
v 27.500000 -47.632809 -24.640623
v 55.000000 -0.000003 -24.640629
v 0.000000 -0.000021 -177.218781
v 3.953125 -6.851560 22.179689
v 7.906250 0.000003 22.179689
v 3.953125 6.851566 22.179689
v -3.953125 6.851566 22.179689
v -7.906250 0.000003 22.179689
v -3.953125 -6.851560 22.179689
v 0.000000 -0.000028 -237.640579
v 61.093750 -0.000011 -95.140625
v -61.093750 -0.000011 -95.140625
v 73.046875 -0.000006 -52.390629
v -73.046875 -0.000006 -52.390629
v 18.593750 -0.000001 -9.640625
v -21.250000 -0.000001 -9.640625
v 43.203129 -43.203136 -95.140617
v -43.203129 43.203121 -95.140625
v 51.648438 -51.648445 -52.390621
v -51.648438 51.648430 -52.390636
v 13.148439 -13.148440 -9.640623
v -15.023439 15.023439 -9.640627
v 0.000000 -61.093758 -95.140610
v 0.000000 61.093739 -95.140633
v 0.000000 -73.046883 -52.390621
v 0.000000 73.046867 -52.390636
v 0.000000 -18.593752 -9.640623
v 0.000000 21.249996 -9.640628
v -43.203129 -43.203136 -95.140617
v 43.203129 43.203121 -95.140625
v -51.648438 -51.648445 -52.390621
v 51.648438 51.648430 -52.390636
v -13.148439 -13.148440 -9.640623
v 15.023439 15.023439 -9.640627
vn 0.4728 0.8190 -0.3251
vn -0.4728 0.8190 -0.3251
vn -0.0000 -0.0000 -1.0000
vn -0.9457 -0.0000 -0.3251
vn -0.4728 -0.8190 -0.3251
vn 0.4728 -0.8190 -0.3251
vn 0.9457 -0.0000 -0.3251
vn 0.4997 -0.8653 -0.0396
vn 0.9992 -0.0000 -0.0396
vn 0.4997 0.8653 -0.0396
vn -0.4997 0.8653 -0.0396
vn -0.9992 -0.0000 -0.0396
vn -0.4997 -0.8653 -0.0396
vn 0.9239 0.3827 -0.0000
vn -0.0000 1.0000 -0.0000
vn 0.7071 0.7071 -0.0000
vn 1.0000 -0.0000 -0.0000
vn 0.7071 -0.7071 -0.0000
vt 0.500000 0.722229
vt 0.944458 0.055542
vt 0.611084 -0.055542
vt 0.473267 0.005066
vt 0.526733 0.005066
vt 0.500000 0.277771
vt 1.000000 0.421875
vt 0.000000 0.421875
vt 0.500977 1.125000
vt -0.055542 0.210938
vt 1.055542 0.210938
vt 0.361877 0.000000
vt 0.661621 0.000000
s 1
usemtl mt_treeA
f 3/1/3 2/2/2 1/3/1
f 4/3/4 2/2/2 3/1/3
f 5/2/5 4/3/4 3/1/3
f 3/1/3 6/3/6 5/2/5
f 7/2/7 6/3/6 3/1/3
f 1/3/1 7/2/7 3/1/3
f 10/4/9 9/5/8 8/6/3
f 11/4/10 10/5/9 8/6/3
f 12/4/11 11/5/10 8/6/3
f 13/4/12 12/5/11 8/6/3
f 14/4/13 13/5/12 8/6/3
f 9/4/8 14/5/13 8/6/3
f 17/7/15 16/8/15 15/9/14
f 18/10/15 16/8/15 17/7/15
f 19/11/15 18/10/15 17/7/15
f 20/12/15 18/10/15 19/11/15
f 21/13/15 20/12/15 19/11/15
f 23/7/16 22/8/16 15/9/14
f 24/10/16 22/8/16 23/7/16
f 25/11/16 24/10/16 23/7/16
f 26/12/16 24/10/16 25/11/16
f 27/13/16 26/12/16 25/11/16
f 29/7/17 28/8/17 15/9/14
f 30/10/17 28/8/17 29/7/17
f 31/11/17 30/10/17 29/7/17
f 32/12/17 30/10/17 31/11/17
f 33/13/17 32/12/17 31/11/17
f 35/7/18 34/8/18 15/9/14
f 36/10/18 34/8/18 35/7/18
f 37/11/18 36/10/18 35/7/18
f 38/12/18 36/10/18 37/11/18
f 39/13/18 38/12/18 37/11/18
