# Blender 4.1.1
# www.blender.org
mtllib polygon139.mtl
o polygon139
v -4856.523438 12902.988281 -424.292816
v -4857.721191 12989.189453 130.998657
v -5204.283203 12712.028320 -376.242920
v -5230.688477 12785.068359 130.998657
v -5649.802246 12635.129883 -255.201599
v -5701.413086 12695.000000 130.998688
v -5910.924316 12034.318359 -141.195221
v -6011.839844 12005.969727 130.998764
v -5668.080078 11667.089844 -141.195175
v -5690.411133 11571.019531 130.998825
v -4858.665039 11827.149414 130.998795
v -4062.541992 11853.149414 130.998779
v -4114.182129 11940.929688 -269.001221
v -4873.342285 11909.459961 -172.757919
v -3865.209229 12982.339844 130.998657
v -4345.172363 13124.250000 130.998627
v -3947.753906 12877.750000 -356.169922
v -4385.846191 13028.859375 -426.727051
v -3867.234863 12466.299805 -324.514282
v -3743.613037 12472.889648 130.998718
vn -0.3762 0.9155 -0.1429
vn -0.3666 0.9188 -0.1462
vn -0.3679 0.9183 -0.1464
vn -0.3397 0.9273 -0.1572
vn -0.5749 0.7956 -0.1911
vn -0.6186 0.7555 -0.2155
vn -0.9426 -0.0345 -0.3321
vn -0.9350 -0.1020 -0.3396
vn -0.3062 -0.8851 -0.3505
vn -0.2854 -0.8962 -0.3397
vn 0.1452 -0.9541 -0.2620
vn 0.5162 -0.8202 -0.2466
vn 0.5509 -0.7941 -0.2569
vn 0.1340 -0.9548 -0.2652
vn 0.6980 0.6610 -0.2755
vn 0.0426 0.9808 -0.1901
vn 0.7219 0.6498 -0.2380
vn 0.0210 0.9850 -0.1712
vn 0.9631 -0.1156 -0.2430
vn 0.9612 -0.1038 -0.2555
vt 4.701660 0.695801
vt 5.211426 -0.269287
vt 5.209961 0.672852
vt 4.703857 -0.127441
vt 4.193359 0.703613
vt 4.196045 -0.000488
vt 3.169434 0.703369
vt 3.174805 0.123779
vt 2.334717 0.588135
vt 2.463379 0.046875
vt 1.335449 0.035889
vt 0.206055 0.346191
vt 0.180420 -0.337158
vt 1.286865 0.458740
vt 6.245361 0.393311
vt 5.728271 -0.314941
vt 6.245361 -0.360596
vt 5.727539 0.533203
vt -1.542725 -0.213867
vt -0.634033 0.413330
vt -1.542725 0.540283
vt -0.738525 -0.275879
s 1
usemtl mt_gake.014
f 3/1/3 2/2/2 1/3/1
f 4/4/4 2/2/2 3/1/3
f 5/5/5 4/4/4 3/1/3
f 6/6/6 4/4/4 5/5/5
f 7/7/7 6/6/6 5/5/5
f 8/8/8 6/6/6 7/7/7
f 9/9/9 8/8/8 7/7/7
f 10/10/10 8/8/8 9/9/9
f 11/11/11 10/10/10 9/9/9
f 11/11/11 13/12/13 12/13/12
f 14/14/14 13/12/13 11/11/11
f 9/9/9 14/14/14 11/11/11
f 17/15/17 16/16/16 15/17/15
f 18/18/18 16/16/16 17/15/17
f 18/18/18 2/2/2 16/16/16
f 1/3/1 2/2/2 18/18/18
f 15/19/15 19/20/19 17/21/17
f 20/22/20 19/20/19 15/19/15
f 20/22/20 13/12/13 19/20/19
f 12/13/12 13/12/13 20/22/20
