# Blender 4.1.1
# www.blender.org
mtllib polygon685.mtl
o polygon685
v -2155.708984 -2688.339600 -538.451721
v -2129.598145 -2671.668701 -530.402710
v -2146.029053 -2705.510010 -564.906006
v -2118.329834 -2691.103027 -566.094177
v -2129.462158 -2720.642090 -579.177795
v -2102.359131 -2710.662109 -584.786499
v -2128.442139 -2722.171143 -581.430359
v -2127.121094 -2724.153076 -584.087769
v -2097.162109 -2769.092285 -565.951111
v -2075.129150 -2756.113037 -566.402771
v -2095.974121 -2770.874023 -562.182007
v -2062.221191 -2772.027832 -536.658752
v -2085.913086 -2785.965576 -535.544373
v -2058.252197 -2779.406006 -521.687012
v -2081.780029 -2792.165527 -522.260254
v -2081.897217 -2791.988770 -518.246582
v -2568.665039 -3967.256348 -977.747070
v -2570.719238 -3968.549072 -981.163269
v -2572.187012 -3957.969971 -981.478088
v -2590.653076 -3976.078125 -986.766663
v -2595.359863 -3966.186279 -987.980896
v -2594.358887 -3977.189941 -987.053101
v -2600.864014 -3978.039307 -984.323853
v -2646.886230 -3956.484131 -901.902771
v -2647.899902 -3942.687988 -905.623779
v -2646.724854 -3958.958008 -905.669006
v -2647.319580 -3964.204102 -942.684937
v -2646.272949 -3976.484131 -936.800720
v -2642.060791 -3978.508301 -948.621826
v -2155.035156 -2689.352783 -485.707672
v -2125.604980 -2672.304932 -484.952087
v -2156.256104 -2687.520996 -525.068237
v -2156.879150 -2686.585938 -529.862061
v -2551.668213 -3959.152100 -898.126587
v -2547.116211 -3961.371338 -941.701355
v -2546.419922 -3950.435303 -955.956665
v -2545.809082 -3961.102051 -954.808472
v -2125.075195 -2727.222168 -584.409363
v -2092.903076 -2720.298096 -587.797180
v -2118.609863 -2736.921143 -587.021301
v -2098.973145 -2766.375244 -568.048462
v -2623.128906 -3980.481201 -971.981201
v -2622.925049 -3968.299072 -972.740540
v -2624.022217 -3956.917236 -901.845337
v -2552.311035 -3946.243164 -900.582397
v -2057.432129 -2777.475586 -484.952057
v -2082.540039 -2791.024658 -485.598938
v -2303.496094 -4579.871094 -1371.987549
v -2273.576172 -4668.858887 -1358.750488
v -2271.304199 -4662.647949 -1370.653564
v -2234.606201 -4745.820801 -1355.634277
v -2229.946045 -4744.596191 -1367.029297
v -2231.322998 -4756.903320 -1356.113403
v -2181.829834 -4823.958008 -1362.920410
v -2188.937988 -4829.854004 -1350.586304
v -2164.649170 -4813.647949 -1366.063354
v -2212.239990 -4733.868652 -1368.999268
v -2253.096191 -4654.497070 -1368.999512
v -2284.871094 -4573.866211 -1368.999634
v -2370.493164 -4238.588867 -1372.484619
v -2363.277100 -4350.123047 -1357.508545
v -2356.272217 -4350.055176 -1371.246460
v -2359.266113 -4365.937988 -1357.294434
v -2332.796143 -4476.167969 -1371.650513
v -2337.020996 -4483.308594 -1358.636475
v -2309.312988 -4580.667969 -1359.389526
v -2314.683105 -4471.755859 -1368.999512
v -2383.622070 -4153.372070 -1373.192749
v -2378.489990 -4236.811523 -1360.493530
v -2375.877197 -4246.038574 -1360.041626
v -2303.853027 -4592.133301 -1358.841553
v -2352.493896 -4235.229492 -1368.999512
v -2338.775146 -4347.555176 -1368.999512
vn 0.3348 -0.6402 0.6914
vn 0.4593 -0.8584 0.2286
vn 0.3768 -0.8084 0.4522
vn 0.3660 -0.6137 0.6996
vn 0.3420 -0.5604 0.7543
vn 0.2338 -0.3225 0.9172
vn 0.3760 -0.6636 0.6467
vn 0.2420 -0.3984 0.8847
vn -0.4155 0.7385 0.5310
vn -0.3308 0.5885 0.7377
vn -0.3571 0.6301 0.6895
vn -0.4129 0.7440 0.5253
vn -0.4130 0.7441 0.5252
vn -0.4675 0.8543 0.2271
vn -0.4679 0.8523 0.2337
vn -0.4743 0.8793 -0.0433
vn -0.5489 -0.0096 0.8359
vn -0.5487 -0.0513 0.8344
vn -0.7685 -0.0348 0.6388
vn -0.1913 0.0295 0.9811
vn 0.0839 0.0388 0.9957
vn 0.1615 0.0975 0.9820
vn 0.4482 0.0669 0.8914
vn 0.9972 0.0721 -0.0193
vn 0.6720 -0.1249 -0.7299
vn 0.7540 -0.1189 -0.6460
vn 0.9642 0.1005 0.2452
vn 0.9814 0.1442 0.1264
vn 0.8401 0.0866 0.5355
vn 0.4866 -0.8634 -0.1334
vn 0.5017 -0.8632 -0.0559
vn 0.5015 -0.8633 -0.0557
vn 0.4798 -0.8774 0.0026
vn -0.9454 -0.0191 0.3254
vn -0.9927 -0.0675 -0.1003
vn -0.6385 -0.1743 -0.7496
vn -0.9444 -0.0207 0.3280
vn 0.1020 -0.1178 0.9878
vn -0.0589 0.1379 0.9887
vn -0.0513 0.1256 0.9907
vn -0.2484 0.4380 0.8640
vn 0.6481 0.0365 0.7607
vn 0.6384 0.0372 0.7688
vn 0.0369 -0.1981 -0.9795
vn -0.6513 -0.1731 -0.7388
vn -0.4737 0.8800 -0.0355
vn -0.4739 0.8799 -0.0353
vn -0.4975 -0.2230 -0.8383
vn -0.8403 -0.3980 -0.3680
vn -0.3816 -0.1269 -0.9156
vn -0.8186 -0.4300 -0.3809
vn -0.4292 -0.2689 -0.8623
vn -0.8876 -0.2461 -0.3894
vn -0.4352 -0.3063 -0.8466
vn -0.6794 -0.4420 -0.5857
vn -0.6734 -0.4365 -0.5967
vn -0.1037 -0.1118 -0.9883
vn -0.0554 -0.0683 -0.9961
vn 0.0753 0.0341 -0.9966
vn 0.1405 0.0408 -0.9892
vn -0.3818 -0.0607 -0.9222
vn -0.8844 -0.1179 -0.4516
vn -0.3343 -0.0536 -0.9409
vn -0.8674 -0.2260 -0.4434
vn -0.4901 -0.1047 -0.8654
vn -0.9073 -0.1677 -0.3856
vn -0.8874 -0.2165 -0.4069
vn -0.8741 -0.2456 -0.4191
vn 0.1363 0.0349 -0.9900
vn -0.8336 -0.1329 -0.5362
vn -0.3178 -0.0568 -0.9464
vn -0.8211 -0.2575 -0.5095
vn -0.8837 -0.1180 -0.4530
vn -0.8183 -0.4090 -0.4038
vn -0.8728 -0.3448 -0.3453
vn 0.1861 0.0217 -0.9823
vn 0.1283 0.0156 -0.9916
vt -2.040771 1.000000
vt -2.038574 0.000000
vt -2.103760 1.000000
vt -1.984863 0.000000
vt -2.013184 1.000000
vt -1.970947 0.000000
vt -2.008545 1.000000
vt -2.003906 1.000000
vt -1.883057 1.000000
vt -1.869385 0.000000
vt -1.890625 1.000000
vt -1.830566 0.000000
vt -1.825439 1.000000
vt -1.791748 0.000000
vt -1.775146 1.000000
vt -1.768066 1.000000
vt 0.992432 0.000000
vt 0.982422 1.000000
vt 1.009521 1.000000
vt 0.750244 1.000000
vt 0.709229 0.000000
vt 0.723633 1.000000
vt 0.686279 1.000000
vt 0.400391 1.000000
vt 0.434570 0.000000
vt 0.395264 1.000000
vt 0.502197 0.000000
vt 0.462158 1.000000
vt 0.500977 1.000000
vt -2.113037 1.000000
vt -2.080322 0.000000
vt -2.142822 1.000000
vt -2.109863 1.000000
vt -3.327393 0.000000
vt -3.272461 1.000000
vt -3.146240 1.000000
vt -3.308105 1.000000
vt -3.405518 0.000000
vt -3.369873 1.000000
vt -2.001221 1.000000
vt -1.945557 0.000000
vt -1.966064 1.000000
vt -1.896484 1.000000
vt 0.593262 1.000000
vt 0.615723 0.000000
vt -2.908447 0.000000
vt -2.967285 1.000000
vt -2.900879 1.000000
vt -3.159180 0.000000
vt -1.722656 0.000000
vt -1.697266 1.000000
vt 0.528809 0.000000
vt 0.469727 1.000000
vt -0.070557 0.000000
vt 1.092773 1.000000
vt 1.171631 0.000000
vt 1.169678 1.000000
vt 1.836182 0.000000
vt 1.786133 1.000000
vt 2.542236 0.000000
vt 2.258545 1.000000
vt 2.302979 0.000000
vt 2.496338 1.000000
vt 2.762207 0.000000
vt 2.711914 1.000000
vt 2.899658 1.000000
vt -1.543457 0.000000
vt -1.682373 1.000000
vt -2.198730 0.000000
vt -1.591064 1.000000
vt -0.763672 0.000000
vt -0.885742 1.000000
vt -0.197021 1.000000
vt 3.103516 1.000000
vt 3.157227 0.000000
vt 3.366211 0.000000
vt 2.953369 0.000000
vt -2.337646 1.000000
vt -2.711426 1.000000
vt -2.242920 1.000000
vt -0.102295 1.000000
vt 3.475098 1.000000
vt 3.529541 0.000000
vt 3.661865 1.000000
vt 3.312256 1.000000
s 1
usemtl mt_gake_blend
f 3/1/1 2/2/2 1/3/3
f 4/4/4 2/2/2 3/1/1
f 5/5/5 4/4/4 3/1/1
f 6/6/6 4/4/4 5/5/5
f 7/7/7 6/6/6 5/5/5
f 8/8/8 6/6/6 7/7/7
f 11/9/9 10/10/10 9/11/11
f 12/12/12 10/10/10 11/9/9
f 13/13/13 12/12/12 11/9/9
f 14/14/14 12/12/12 13/13/13
f 15/15/15 14/14/14 13/13/13
f 16/16/16 14/14/14 15/15/15
f 19/17/17 18/18/18 17/19/19
f 20/20/20 18/18/18 19/17/17
f 21/21/21 20/20/20 19/17/17
f 22/22/22 20/20/20 21/21/21
f 23/23/23 22/22/22 21/21/21
f 26/24/24 25/25/25 24/26/26
f 27/27/27 25/25/25 26/24/24
f 28/28/28 27/27/27 26/24/24
f 29/29/29 27/27/27 28/28/28
f 32/30/30 31/31/31 30/32/32
f 2/2/2 31/31/31 32/30/30
f 33/33/33 2/2/2 32/30/30
f 1/3/3 2/2/2 33/33/33
f 36/34/34 35/35/35 34/36/36
f 37/37/37 35/35/35 36/34/34
f 19/38/17 37/37/37 36/34/34
f 17/39/19 37/37/37 19/38/17
f 38/40/38 6/6/6 8/8/8
f 39/41/39 6/6/6 38/40/38
f 40/42/40 39/41/39 38/40/38
f 41/43/41 39/41/39 40/42/40
f 42/44/42 27/27/27 29/29/29
f 43/45/43 27/27/27 42/44/42
f 21/21/21 43/45/43 42/44/42
f 25/46/25 44/47/44 24/48/26
f 45/49/45 44/47/44 25/46/25
f 45/49/45 34/36/36 44/47/44
f 36/34/34 34/36/36 45/49/45
f 41/43/41 10/10/10 39/41/39
f 9/11/11 10/10/10 41/43/41
f 16/16/16 46/50/46 14/14/14
f 47/51/47 46/50/46 16/16/16
f 42/44/42 23/23/23 21/21/21
f 50/52/48 49/53/49 48/54/50
f 51/55/51 49/53/49 50/52/48
f 52/56/52 51/55/51 50/52/48
s 0
f 53/57/53 51/55/53 52/56/53
s 1
f 54/58/54 53/57/55 52/56/52
f 55/59/56 53/57/55 54/58/54
f 52/60/52 56/61/57 54/62/54
f 57/63/58 56/61/57 52/60/52
f 50/64/48 57/63/58 52/60/52
f 58/65/59 57/63/58 50/64/48
f 59/66/60 58/65/59 50/64/48
f 62/67/61 61/68/62 60/69/63
s 0
f 63/70/64 61/68/64 62/67/64
s 1
f 64/71/65 63/70/66 62/67/61
f 65/72/67 63/70/66 64/71/65
f 66/73/68 65/72/67 64/71/65
f 67/74/69 64/75/65 62/76/61
f 48/77/50 64/75/65 67/74/69
f 59/66/60 48/77/50 67/74/69
f 50/64/48 48/77/50 59/66/60
f 60/69/63 69/78/70 68/79/71
s 0
f 70/80/72 69/78/72 60/69/72
s 1
f 61/68/62 70/80/73 60/69/63
f 48/54/50 66/73/68 64/71/65
s 0
f 71/81/74 66/73/74 48/54/74
s 1
f 49/53/49 71/81/75 48/54/50
f 72/82/76 60/83/63 68/84/71
f 73/85/77 60/83/63 72/82/76
f 73/85/77 62/76/61 60/83/63
f 67/74/69 62/76/61 73/85/77
