# Blender 4.1.1
# www.blender.org
mtllib polygon308.mtl
o polygon308
v 2511.487061 -4611.649902 -2163.085693
v 2412.569092 -4712.173828 -2163.085449
v 2662.133057 -4769.191895 -2191.743652
v 2524.381104 -4892.108887 -2191.743652
v 2541.824219 -4937.437500 -2194.999512
v 2711.514893 -4792.205566 -2194.999512
vn -0.0915 0.0977 -0.9910
vn -0.0919 0.0958 -0.9911
vn -0.0930 0.0915 -0.9915
vn -0.0906 0.1015 -0.9907
vn -0.0476 0.0533 -0.9974
vn -0.0426 0.0498 -0.9979
vt 4.112305 3.500244
vt 2.570557 3.126709
vt 3.153320 2.589111
vt 3.300781 4.157715
vt 3.332031 4.331787
vt 4.331787 3.554932
s 1
usemtl mt_tuti_off
f 3/1/1 2/2/2 1/3/3
f 4/4/4 2/2/2 3/1/1
s 0
f 5/5/5 4/4/5 3/1/5
f 6/6/6 5/5/6 3/1/6
