# Blender 4.1.1
# www.blender.org
mtllib polygon33.mtl
o polygon33
v 586.838684 -7112.917969 -946.829041
v 936.884583 -7112.917969 -946.829041
v 667.354370 -7025.852051 -946.829224
v 717.432007 -6824.280762 -946.828796
v 935.171204 -6974.557617 -946.829041
v 920.336304 -6796.967285 -946.828735
v 1118.354004 -6866.782715 -946.828613
v 1152.134033 -6974.557617 -946.829041
v 1221.152100 -8527.376953 -1502.608154
v 1225.723022 -8546.512695 -1502.608154
v 1271.721069 -8476.807617 -1502.608154
v 1319.520020 -8452.715820 -1502.608154
v 1132.082886 -8265.677734 -1502.608032
v 1108.222046 -8313.024414 -1502.608032
v 1067.838013 -8329.921875 -1502.608032
v 1080.765991 -8340.481445 -1502.608032
v 1108.222046 -8313.024414 -1633.802979
v 991.067261 -8430.180664 -1633.802979
v 1271.721069 -8476.807617 -1633.803101
v 1154.707886 -8593.819336 -1633.802979
v -138.539001 -7955.187500 -803.528992
v -350.660767 -8157.907715 -803.529053
v -4.142548 -8072.645508 -803.528992
v -162.953400 -8385.885742 -803.529053
v 47.506287 -8328.524414 -803.528992
v 748.068359 -8124.707031 -943.746948
v 748.068726 -7988.328125 -943.746582
v 674.442871 -8081.558594 -946.828674
v 674.442871 -7972.558594 -946.828674
v 1035.855103 -8152.029297 -946.828735
v 942.583008 -8124.705566 -943.746948
v 774.306152 -8158.088867 -946.828979
v 942.582397 -7988.326172 -943.746582
v 1035.855103 -7972.883789 -946.828674
v -190.703888 -7974.605469 -1253.209961
v -266.935486 -7827.509766 -1251.723022
v -396.258698 -8080.877930 -1256.313110
v -472.399017 -7933.959961 -1254.828003
v 922.083557 -8104.208008 -946.829102
v 922.084595 -8008.825684 -946.829102
v 845.325073 -8056.516602 -946.829102
v 768.565552 -8008.824219 -946.829102
v 768.565552 -8104.208008 -946.829102
v 848.173584 -7398.384277 -980.874878
v 848.173584 -7579.152344 -980.874878
v 616.686768 -7398.384277 -980.874878
v 783.353027 -7617.797363 -980.874817
v 616.686768 -7617.797363 -980.874817
v 992.653015 -7707.652344 -828.998901
v 932.653015 -7677.652344 -828.998840
v 536.763306 -7707.652344 -828.998901
v 566.763367 -7677.650879 -828.998840
v 536.763489 -7307.650879 -828.999023
v 566.763611 -7337.650879 -828.999023
v 932.653015 -7337.650879 -828.999023
v 932.653015 -7677.652344 -858.998840
v 872.653015 -7647.045410 -858.998840
v 566.763367 -7677.650879 -858.998840
v 592.652771 -7647.045410 -858.998840
v 566.763611 -7337.650879 -858.999023
v 592.652771 -7367.650879 -858.998962
v 872.653015 -7367.650879 -858.998962
v 799.427551 -7425.018066 -888.999084
v 592.652771 -7367.650391 -888.998962
v 654.632080 -7425.017090 -888.999084
v 592.652771 -7647.044922 -888.998840
v 654.632080 -7590.687012 -888.999146
v 799.427551 -7590.685547 -888.999146
v 932.653015 -7430.949219 -828.998901
v 992.653015 -7430.949219 -828.998901
v 992.653015 -7307.650879 -828.999023
v 872.653015 -7430.949219 -858.998901
v 932.653015 -7430.949219 -858.998901
v 932.653015 -7337.650879 -858.999023
v 799.427307 -7487.045410 -888.999146
v 872.653015 -7430.948730 -888.998901
v 872.653015 -7367.650391 -888.998962
v 771.582703 -7527.045410 -888.999146
v 799.427551 -7527.045410 -888.999146
v 771.582703 -7487.045410 -888.999268
v 932.653015 -7587.081055 -828.998962
v 992.653015 -7587.081055 -828.998962
v 872.653015 -7587.081055 -858.998962
v 932.653015 -7587.081055 -858.998962
v 872.653015 -7587.080566 -888.998962
v 872.653015 -7647.044922 -888.998840
v 814.641785 -7585.189453 -1040.889160
v 814.641785 -7430.992676 -1040.889038
v 656.072021 -7585.190430 -1040.889160
v 656.072021 -7430.992676 -1040.889038
v 399.514404 -8871.372070 -99.172134
v 182.593292 -8871.372070 -99.172066
v 399.514404 -8593.588867 -99.172173
v 136.219299 -8793.588867 -99.172142
v 136.218689 -8593.588867 -99.172173
v 175.348175 -8831.134766 -171.188721
v 360.384888 -8831.134766 -171.188721
v 175.347595 -8640.850586 -171.188751
v 360.384888 -8640.850586 -171.188751
vn -0.0000 -0.0000 -1.0000
vn 0.0418 -0.0000 -0.9991
vn 0.0362 -0.0262 -0.9990
vn 0.0116 -0.1395 -0.9902
vn -0.0024 0.1040 -0.9946
vn -0.0000 0.0919 -0.9958
vn -0.0296 -0.0208 -0.9993
vn -0.0330 -0.0000 -0.9995
vn -0.0123 -0.1235 -0.9923
vn 0.1708 0.2228 -0.9598
vn 0.0078 0.0141 -0.9999
vn -0.0000 -0.0000 1.0000
vt -1.101563 1.475586
vt 0.980957 2.626953
vt -1.626953 2.626953
vt -0.920898 -1.200195
vt 0.967773 0.764160
vt 0.855957 -1.626953
vt 2.381348 -0.644043
vt 2.604492 0.764160
vt 1.332031 0.004395
vt 1.455078 0.593262
vt 1.333984 0.519531
vt 1.451172 -0.362305
vt -0.456055 -0.354492
vt -0.334961 0.007812
vt -0.453613 0.299805
vt -0.333984 0.287598
vt -0.330078 1.201172
vt 1.336426 1.196289
vt 1.916504 0.775391
vt -0.720215 -0.760254
vt 1.613770 -0.760254
vt -0.603027 1.630859
vt 1.024902 2.480469
vt -1.769043 0.682617
vt -0.844727 -0.365234
vt -0.844727 1.167480
vt -1.769043 -0.542481
vt -0.515137 1.474609
vt 1.598145 1.167480
vt 2.769043 1.474609
vt 2.769043 -0.539062
vt 1.598145 -0.365234
vt -0.466309 1.251953
vt 1.521484 -0.253418
vt 1.521484 1.253906
vt -0.466309 -0.252930
vt 0.500000 0.500000
vt 1.312012 -0.080566
vt 1.312012 1.080566
vt -0.312012 -0.080566
vt -0.312012 1.080566
vt -1.225098 2.225098
vt 1.617188 -1.225098
vt -1.225098 -1.225098
vt 2.225098 -0.258789
vt 2.225098 2.225098
vt 4.510254 8.898438
vt 4.065918 3.753906
vt 4.510254 2.974121
vt 4.065918 8.508789
vt -1.414063 8.898438
vt -0.969727 8.508789
vt -0.969727 3.753906
vt 3.612793 4.533691
vt 3.612793 8.172363
vt -0.525391 8.172363
vt -0.525391 4.533691
vt -1.001465 0.898926
vt -2.047852 2.001465
vt -1.001465 -1.677246
vt 3.047852 2.001465
vt 2.020020 0.898926
vt 2.020020 -1.677246
vt 0.412109 2.974121
vt 0.412109 3.753906
vt -1.414063 2.974121
vt 0.412109 4.533691
vt -0.893555 -2.980469
vt 0.129883 -1.677246
vt -2.047852 -2.980469
vt 0.129883 -1.182129
vt 0.859375 -1.677246
vt 0.859375 -1.182129
vt 2.724609 2.974121
vt 2.724609 3.753906
vt 2.724609 4.533691
vt 1.954102 -2.980469
vt 3.047852 -2.980469
vt 0.150391 3.232910
vt -3.318848 -0.236328
vt 0.150391 -0.236328
vt -3.318848 3.232910
s 0
usemtl mt_town_isigakiA
f 3/1/1 2/2/1 1/3/1
f 4/4/1 2/2/1 3/1/1
f 4/4/1 5/5/1 2/2/1
f 6/6/1 5/5/1 4/4/1
f 7/7/1 5/5/1 6/6/1
f 8/8/1 5/5/1 7/7/1
f 11/9/1 10/10/1 9/11/1
f 12/12/1 10/10/1 11/9/1
f 13/13/1 12/12/1 11/9/1
f 14/14/1 13/13/1 11/9/1
f 15/15/1 13/13/1 14/14/1
f 16/16/1 15/15/1 14/14/1
f 19/9/1 18/17/1 17/14/1
f 20/18/1 18/17/1 19/9/1
f 23/19/1 22/20/1 21/21/1
f 24/22/1 22/20/1 23/19/1
f 25/23/1 24/22/1 23/19/1
f 28/24/2 27/25/2 26/26/2
s 1
f 29/27/3 27/25/4 28/24/2
s 0
f 32/28/5 31/29/5 30/30/5
f 26/26/6 31/29/6 32/28/6
s 1
f 34/31/7 31/29/8 33/32/9
f 30/30/8 31/29/8 34/31/7
f 29/27/3 33/32/9 27/25/4
f 34/31/7 33/32/9 29/27/3
s 0
f 26/26/10 32/28/10 28/24/10
f 37/33/11 36/34/11 35/35/11
f 38/36/11 36/34/11 37/33/11
f 41/37/1 40/38/1 39/39/1
f 42/40/1 40/38/1 41/37/1
f 43/41/1 42/40/1 41/37/1
f 43/41/1 41/37/1 39/39/1
f 46/42/12 45/43/12 44/44/12
f 47/45/12 45/43/12 46/42/12
f 48/46/12 47/45/12 46/42/12
f 51/47/1 50/48/1 49/49/1
f 52/50/1 50/48/1 51/47/1
f 53/51/1 52/50/1 51/47/1
f 54/52/1 52/50/1 53/51/1
f 55/53/1 54/52/1 53/51/1
f 58/50/1 57/54/1 56/48/1
f 59/55/1 57/54/1 58/50/1
f 60/52/1 59/55/1 58/50/1
f 61/56/1 59/55/1 60/52/1
f 62/57/1 61/56/1 60/52/1
f 65/58/1 64/59/1 63/60/1
f 66/61/1 64/59/1 65/58/1
f 67/62/1 66/61/1 65/58/1
f 68/63/1 66/61/1 67/62/1
f 55/53/1 70/64/1 69/65/1
f 71/66/1 70/64/1 55/53/1
f 53/51/1 71/66/1 55/53/1
f 62/57/1 73/65/1 72/67/1
f 74/53/1 73/65/1 62/57/1
f 60/52/1 74/53/1 62/57/1
f 63/60/1 76/68/1 75/69/1
f 77/70/1 76/68/1 63/60/1
f 64/59/1 77/70/1 63/60/1
f 80/71/1 79/72/1 78/73/1
f 75/69/1 79/72/1 80/71/1
f 82/74/1 50/48/1 81/75/1
f 49/49/1 50/48/1 82/74/1
f 84/75/1 57/54/1 83/76/1
f 56/48/1 57/54/1 84/75/1
f 76/68/1 79/72/1 75/69/1
f 85/77/1 79/72/1 76/68/1
f 85/77/1 68/63/1 79/72/1
f 86/78/1 68/63/1 85/77/1
f 66/61/1 68/63/1 86/78/1
f 89/79/1 88/80/1 87/81/1
f 90/82/1 88/80/1 89/79/1
f 93/42/12 92/43/12 91/44/12
f 94/45/12 92/43/12 93/42/12
f 95/46/12 94/45/12 93/42/12
f 98/79/1 97/80/1 96/81/1
f 99/82/1 97/80/1 98/79/1
