# Blender 4.1.1
# www.blender.org
mtllib polygon24.mtl
o polygon24
v -426.387177 -2179.421143 -260.999512
v -376.835388 -2143.918213 -260.999542
v -434.547699 -2165.536133 -260.999542
v -405.937683 -2115.536133 -260.999542
v -479.831268 -2108.415039 -260.999542
v -377.327576 -2065.536133 -260.999542
v -479.831268 -2052.842041 -260.999542
v -479.831268 -1952.078003 -260.999542
v -582.334900 -2065.536133 -260.999542
v -629.846375 -1970.655884 -260.999542
v -720.159180 -2064.634033 -260.999542
v -853.962585 -1987.388916 -260.999512
v -590.253479 -2309.118896 -260.999512
v -479.831146 -2322.794189 -260.999481
v -582.334900 -2293.306152 -260.999512
v -479.831146 -2306.000000 -260.999512
v -479.831146 -2250.427002 -260.999512
v -377.327484 -2293.306152 -260.999512
v -405.937561 -2243.306152 -260.999512
v -376.835388 -2214.924072 -260.999481
v -434.547577 -2193.306152 -260.999481
v -16.497669 -1935.890869 -260.999542
v -105.699997 -1987.388916 -260.999512
v -96.440430 -2019.393921 -260.999542
v -239.503372 -2064.634033 -260.999542
v -206.294296 -2179.421143 -260.999512
v -310.395203 -2179.421143 -260.999512
v -328.705566 -2242.709961 -260.999512
v -329.816193 -1970.655884 -260.999542
v -258.549103 -1828.335938 -260.999573
v -479.831268 -1800.932007 -260.999573
v -479.831268 -1632.991821 -260.999573
v -701.113403 -1828.335938 -260.999573
v -780.299194 -1670.201904 -260.999542
v -1002.632996 -1901.559814 -260.999573
v -328.705566 -2116.131104 -260.999542
v -368.391205 -2179.421143 -260.999512
v -553.724915 -2115.536133 -260.999542
v -525.114807 -2165.536133 -260.999542
v -582.827087 -2143.918213 -260.999542
v -533.275269 -2179.421143 -260.999512
v -179.363297 -1670.201904 -260.999542
v -289.060089 -2265.598145 -260.999512
v -369.408905 -2309.118896 -260.999512
v -863.222168 -2019.393921 -260.999542
v -753.368103 -2179.421143 -260.999512
v -649.267212 -2179.421143 -260.999512
v -630.956787 -2116.131104 -260.999542
v -670.602234 -2265.598145 -260.999512
v -630.956787 -2242.709961 -260.999512
v -582.827087 -2214.924072 -260.999481
v -591.271179 -2179.421143 -260.999512
v -525.114807 -2193.306152 -260.999481
v -553.724915 -2243.306152 -260.999512
v -2027.347046 2057.655029 -95.999992
v -2027.347046 2057.655029 -100.171539
v -2018.702148 2061.236084 -96.000008
v -2018.702148 2061.236084 -100.171547
v -2015.119995 2069.881104 -96.000000
v -2015.119995 2069.881104 -100.171539
v -2018.702148 2078.527100 -96.000000
v -2018.702148 2078.527100 -100.171539
v -2027.347046 2082.108154 -96.000008
v -2027.347046 2082.108154 -100.171547
v -2035.992920 2078.527100 -96.000000
v -2035.992920 2078.527100 -100.171539
v -2039.573975 2069.881104 -96.000000
v -2039.573975 2069.881104 -100.171539
v -2035.992920 2061.236084 -96.000008
v -2035.992920 2061.236084 -100.171547
v -2027.347046 2038.883057 -69.389450
v -2027.347046 2050.932129 -99.999992
v -2049.267090 2047.962158 -69.389442
v -2040.746948 2056.482178 -99.999992
v -2058.346191 2069.881104 -69.389442
v -2046.297119 2069.881104 -100.000000
v -2049.267090 2091.801025 -69.389458
v -2040.746948 2083.281006 -100.000008
v -2027.347046 2100.879883 -69.389450
v -2027.347046 2088.831055 -100.000008
v -2005.428101 2091.801025 -69.389458
v -2013.948120 2083.281006 -100.000008
v -1996.348999 2069.881104 -69.389442
v -2008.398071 2069.881104 -100.000000
v -2005.428101 2047.962158 -69.389442
v -2013.948120 2056.482178 -99.999992
v -2027.347046 2028.058960 -69.389442
v -2056.919922 2040.308105 -69.389450
v -2027.347046 2011.823120 -69.389442
v -2068.401123 2028.828125 -69.389442
v -2027.347046 1990.174927 -69.389435
v -2083.708008 2013.520996 -69.389442
v -2069.169922 2069.881104 -69.389442
v -2085.406006 2069.881104 -69.389442
v -2107.052979 2069.881104 -69.389442
v -2056.919922 2099.454102 -69.389450
v -2068.401123 2110.935059 -69.389458
v -2083.708008 2126.242188 -69.389450
v -2027.347046 2111.704102 -69.389458
v -2027.347046 2127.939941 -69.389450
v -2027.347046 2149.588135 -69.389465
v -1997.774048 2099.454102 -69.389450
v -1986.294067 2110.935059 -69.389458
v -1970.986084 2126.242188 -69.389450
v -1985.525146 2069.881104 -69.389442
v -1969.289062 2069.881104 -69.389442
v -1947.640991 2069.881104 -69.389442
v -1997.774048 2040.308105 -69.389450
v -1986.294067 2028.828125 -69.389442
v -1970.986084 2013.520996 -69.389442
vn -0.0000 -0.0000 -1.0000
vn -0.7071 0.7071 -0.0000
vn -0.0000 1.0000 -0.0000
vn -1.0000 -0.0000 -0.0000
vn -0.9238 -0.3828 -0.0000
vn -0.3827 -0.9239 -0.0000
vn 0.7071 -0.7071 -0.0000
vn 0.3827 -0.9239 -0.0000
vn 0.3826 -0.9239 -0.0000
vn 1.0000 -0.0000 -0.0000
vn 0.7071 0.7071 -0.0000
vn -0.6580 -0.6580 -0.3663
vn -0.3596 -0.8683 -0.3418
vn -0.9305 -0.0000 -0.3663
vn -0.6580 0.6580 -0.3663
vn -0.0000 0.9305 -0.3663
vn 0.6580 0.6580 -0.3663
vn 0.9305 -0.0000 -0.3663
vn 0.8682 -0.3596 -0.3418
vn 0.3596 -0.8683 -0.3418
vn 0.3596 -0.8682 -0.3418
vn 0.0255 -0.0106 -0.9996
vn 0.0255 0.0106 -0.9996
vn 0.0106 0.0255 -0.9996
vn -0.0106 0.0255 -0.9996
vn -0.0255 0.0106 -0.9996
vn -0.0255 -0.0106 -0.9996
vn -0.0106 -0.0255 -0.9996
vn 0.0106 -0.0255 -0.9996
vt 2.000000 9.000000
vt 3.000000 8.000000
vt 3.000000 9.000000
vt 2.000000 8.000000
vt 1.000000 8.000000
vt 2.000000 7.000000
vt 1.000000 7.000000
vt 1.000000 5.000000
vt 0.000000 7.000000
vt 0.000000 5.000000
vt -1.000000 5.000000
vt -1.000000 3.000000
vt 9.000000 7.000000
vt 8.000000 5.375000
vt 9.000000 5.375000
vt 8.000000 7.000000
vt 8.000000 8.000000
vt 7.000000 7.000000
vt 7.000000 8.000000
vt 6.000000 8.000000
vt 6.000000 9.000000
vt 4.000000 9.000000
vt 4.375000 3.000000
vt 4.000000 3.000000
vt 4.000000 1.000000
vt 4.000000 5.000000
vt 5.000000 4.875000
vt 5.000000 7.000000
vt 6.000000 7.000000
vt 2.000000 5.000000
vt 2.000000 3.000000
vt 1.000000 3.000000
vt 1.000000 1.000000
vt 0.000000 3.000000
vt 0.000000 1.000000
vt -1.000000 1.000000
vt 4.000000 7.000000
vt 4.000000 8.000000
vt 5.000000 8.000000
vt 0.000000 8.000000
vt 0.000000 9.000000
vt -1.000000 8.000000
vt -1.000000 9.000000
vt 3.000000 5.000000
vt 3.000000 3.000000
vt 3.000000 1.000000
vt 2.000000 1.000000
vt 6.000000 5.375000
vt 7.000000 5.375000
vt -2.000000 5.001953
vt -3.000000 5.001953
vt -2.375000 3.000000
vt -3.000000 7.000000
vt -2.000000 7.000000
vt -2.000000 8.000000
vt -4.000000 5.501953
vt -5.000000 7.000000
vt -5.000000 5.501953
vt -4.000000 7.000000
vt -4.000000 8.000000
vt -3.000000 8.000000
vt -2.000000 9.001953
vt 9.000000 9.000000
vt 9.000000 8.000000
vt 3.000000 7.000000
vt -5.000000 8.000000
vt -5.000000 9.000000
vt -2.000000 3.001953
vt -2.000000 0.939453
vt -1.000000 7.000000
vt 8.000000 4.500000
vt 9.000000 4.000000
vt 9.000000 4.500000
vt 8.000000 4.000000
vt 7.000000 4.500000
vt 7.000000 4.000000
vt 6.000000 4.500000
vt 6.000000 4.000000
vt 5.000000 4.500000
vt 5.000000 4.000000
vt 4.000000 4.500000
vt 4.000000 4.000000
vt 3.000000 4.500000
vt 3.000000 4.000000
vt 2.000000 4.500000
vt 2.000000 4.000000
vt 1.000000 4.500000
vt 1.000000 4.000000
vt 2.000000 1.500000
vt 1.000000 1.500000
vt 3.000000 1.500000
vt 4.000000 1.500000
vt 5.000000 1.500000
vt 5.000000 3.000000
vt 6.000000 1.500000
vt 6.000000 3.000000
vt 7.000000 1.500000
vt 7.000000 3.000000
vt 8.000000 1.500000
vt 8.000000 3.000000
vt 9.000000 1.500000
vt 9.000000 3.000000
vt 1.000000 0.500000
vt 2.000000 0.500000
vt 1.000000 -1.000000
vt 2.000000 -1.000000
vt 3.000000 0.500000
vt 3.000000 -1.000000
vt 4.000000 0.500000
vt 4.000000 -1.000000
vt 5.000000 1.000000
vt 5.000000 0.500000
vt 5.000000 -1.000000
vt 6.000000 1.000000
vt 6.000000 0.500000
vt 6.000000 -1.000000
vt 7.000000 1.000000
vt 7.000000 0.500000
vt 7.000000 -1.000000
vt 8.000000 1.000000
vt 8.000000 0.500000
vt 8.000000 -1.000000
vt 9.000000 1.000000
vt 9.000000 0.500000
vt 9.000000 -1.000000
s 1
usemtl mt_zb_w_hamon
f 3/1/1 2/2/1 1/3/1
f 4/4/1 2/2/1 3/1/1
f 5/5/1 4/4/1 3/1/1
s 0
f 6/6/1 4/4/1 5/5/1
f 7/7/1 6/6/1 5/5/1
f 8/8/1 6/6/1 7/7/1
f 9/9/1 8/8/1 7/7/1
f 10/10/1 8/8/1 9/9/1
f 11/11/1 10/10/1 9/9/1
f 12/12/1 10/10/1 11/11/1
f 15/13/1 14/14/1 13/15/1
f 16/16/1 14/14/1 15/13/1
f 17/17/1 16/16/1 15/13/1
f 18/18/1 16/16/1 17/17/1
f 19/19/1 18/18/1 17/17/1
f 20/20/1 18/18/1 19/19/1
s 1
f 21/21/1 20/20/1 19/19/1
f 1/22/1 20/20/1 21/21/1
s 0
f 24/23/1 23/24/1 22/25/1
f 25/26/1 23/24/1 24/23/1
f 26/27/1 25/26/1 24/23/1
f 27/28/1 25/26/1 26/27/1
f 28/29/1 27/28/1 26/27/1
f 20/20/1 27/28/1 28/29/1
f 18/18/1 20/20/1 28/29/1
f 8/8/1 29/30/1 6/6/1
f 30/31/1 29/30/1 8/8/1
f 31/32/1 30/31/1 8/8/1
f 32/33/1 30/31/1 31/32/1
f 33/34/1 32/33/1 31/32/1
f 34/35/1 32/33/1 33/34/1
f 35/36/1 34/35/1 33/34/1
f 27/28/1 36/37/1 25/26/1
f 2/38/1 36/37/1 27/28/1
f 37/39/1 2/38/1 27/28/1
s 1
f 1/22/1 2/38/1 37/39/1
f 20/20/1 1/22/1 37/39/1
s 0
f 5/5/1 9/9/1 7/7/1
f 38/40/1 9/9/1 5/5/1
s 1
f 39/41/1 38/40/1 5/5/1
f 40/42/1 38/40/1 39/41/1
f 41/43/1 40/42/1 39/41/1
s 0
f 29/30/1 25/44/1 6/6/1
f 23/45/1 25/44/1 29/30/1
f 30/31/1 23/45/1 29/30/1
f 22/46/1 23/45/1 30/31/1
f 42/47/1 22/46/1 30/31/1
f 43/48/1 28/29/1 26/27/1
f 18/18/1 28/29/1 43/48/1
f 44/49/1 18/18/1 43/48/1
f 14/14/1 18/18/1 44/49/1
f 11/50/1 46/51/1 45/52/1
f 47/53/1 46/51/1 11/50/1
f 48/54/1 47/53/1 11/50/1
f 40/55/1 47/53/1 48/54/1
f 49/56/1 15/57/1 13/58/1
f 50/59/1 15/57/1 49/56/1
f 46/51/1 50/59/1 49/56/1
f 47/53/1 50/59/1 46/51/1
f 47/53/1 51/60/1 50/59/1
f 52/61/1 51/60/1 47/53/1
f 40/55/1 52/61/1 47/53/1
s 1
f 41/62/1 52/61/1 40/55/1
f 17/17/1 21/21/1 19/19/1
f 53/63/1 21/21/1 17/17/1
f 54/64/1 53/63/1 17/17/1
s 0
f 6/6/1 2/2/1 4/4/1
f 36/65/1 2/2/1 6/6/1
f 25/44/1 36/65/1 6/6/1
f 51/60/1 15/57/1 50/59/1
f 54/66/1 15/57/1 51/60/1
s 1
f 53/67/1 54/66/1 51/60/1
s 0
f 12/68/1 45/52/1 35/69/1
f 11/50/1 45/52/1 12/68/1
f 40/42/1 9/9/1 38/40/1
f 48/70/1 9/9/1 40/42/1
s 1
f 41/62/1 51/60/1 52/61/1
f 53/67/1 51/60/1 41/62/1
s 0
f 8/8/1 33/34/1 31/32/1
f 10/10/1 33/34/1 8/8/1
f 12/12/1 33/34/1 10/10/1
f 35/36/1 33/34/1 12/12/1
f 18/18/1 14/14/1 16/16/1
f 37/39/1 27/28/1 20/20/1
s 1
f 39/41/1 5/5/1 3/1/1
s 0
f 17/17/1 15/13/1 54/64/1
f 48/70/1 11/11/1 9/9/1
f 32/33/1 42/47/1 30/31/1
s 1
f 57/71/2 56/72/3 55/73/3
f 58/74/2 56/72/3 57/71/2
f 59/75/4 58/74/2 57/71/2
f 60/76/4 58/74/2 59/75/4
f 61/77/5 60/76/4 59/75/4
f 62/78/5 60/76/4 61/77/5
s 0
f 63/79/6 62/78/6 61/77/6
f 64/80/6 62/78/6 63/79/6
s 1
f 65/81/7 64/80/8 63/79/9
f 66/82/7 64/80/8 65/81/7
f 67/83/10 66/82/7 65/81/7
f 68/84/10 66/82/7 67/83/10
f 69/85/11 68/84/10 67/83/10
f 70/86/11 68/84/10 69/85/11
f 55/87/3 70/86/11 69/85/11
f 56/88/3 70/86/11 55/87/3
f 73/89/12 72/32/13 71/90/13
f 74/31/12 72/32/13 73/89/12
f 75/91/14 74/31/12 73/89/12
f 76/45/14 74/31/12 75/91/14
f 77/92/15 76/45/14 75/91/14
f 78/24/15 76/45/14 77/92/15
f 79/93/16 78/24/15 77/92/15
f 80/94/16 78/24/15 79/93/16
f 81/95/17 80/94/16 79/93/16
f 82/96/17 80/94/16 81/95/17
f 83/97/18 82/96/17 81/95/17
f 84/98/18 82/96/17 83/97/18
f 85/99/19 84/98/18 83/97/18
f 86/100/19 84/98/18 85/99/19
s 0
f 71/101/20 86/100/20 85/99/20
f 72/102/21 86/100/21 71/101/21
f 87/33/1 73/89/1 71/90/1
f 88/47/1 73/89/1 87/33/1
f 89/103/1 88/47/1 87/33/1
f 90/104/1 88/47/1 89/103/1
f 91/105/1 90/104/1 89/103/1
f 92/106/1 90/104/1 91/105/1
f 88/47/1 75/91/1 73/89/1
f 93/46/1 75/91/1 88/47/1
f 90/104/1 93/46/1 88/47/1
f 94/107/1 93/46/1 90/104/1
f 92/106/1 94/107/1 90/104/1
f 95/108/1 94/107/1 92/106/1
f 93/46/1 77/92/1 75/91/1
f 96/25/1 77/92/1 93/46/1
f 94/107/1 96/25/1 93/46/1
f 97/109/1 96/25/1 94/107/1
f 95/108/1 97/109/1 94/107/1
f 98/110/1 97/109/1 95/108/1
f 96/25/1 79/93/1 77/92/1
f 99/111/1 79/93/1 96/25/1
f 97/109/1 99/111/1 96/25/1
f 100/112/1 99/111/1 97/109/1
f 98/110/1 100/112/1 97/109/1
f 101/113/1 100/112/1 98/110/1
f 99/111/1 81/95/1 79/93/1
f 102/114/1 81/95/1 99/111/1
f 100/112/1 102/114/1 99/111/1
f 103/115/1 102/114/1 100/112/1
f 101/113/1 103/115/1 100/112/1
f 104/116/1 103/115/1 101/113/1
f 102/114/1 83/97/1 81/95/1
f 105/117/1 83/97/1 102/114/1
f 103/115/1 105/117/1 102/114/1
f 106/118/1 105/117/1 103/115/1
f 104/116/1 106/118/1 103/115/1
f 107/119/1 106/118/1 104/116/1
f 105/117/1 85/99/1 83/97/1
f 108/120/1 85/99/1 105/117/1
f 106/118/1 108/120/1 105/117/1
f 109/121/1 108/120/1 106/118/1
f 107/119/1 109/121/1 106/118/1
f 110/122/1 109/121/1 107/119/1
f 86/100/22 60/76/22 84/98/22
f 58/74/22 60/76/22 86/100/22
f 84/98/23 62/78/23 82/96/23
f 60/76/23 62/78/23 84/98/23
f 82/96/24 64/80/24 80/94/24
f 62/78/24 64/80/24 82/96/24
f 80/94/25 66/82/25 78/24/25
f 64/80/25 66/82/25 80/94/25
f 78/24/26 68/84/26 76/45/26
f 66/82/26 68/84/26 78/24/26
f 76/45/27 70/86/27 74/31/27
f 68/84/27 70/86/27 76/45/27
f 74/31/28 56/88/28 72/32/28
f 70/86/28 56/88/28 74/31/28
f 72/102/29 58/74/29 86/100/29
f 56/72/29 58/74/29 72/102/29
f 85/99/1 87/123/1 71/101/1
f 108/120/1 87/123/1 85/99/1
f 108/120/1 89/124/1 87/123/1
f 109/121/1 89/124/1 108/120/1
f 91/125/1 109/121/1 110/122/1
f 89/124/1 109/121/1 91/125/1
