# Blender 4.1.1
# www.blender.org
mtllib Object_3.mtl
o Object_6
v 1152636.500000 1205682.875000 2170.014160
v 1164299.750000 1194045.125000 2170.010254
v 1165675.625000 1205432.125000 2170.014160
v 1140738.875000 1203400.625000 2170.013428
v 1143859.750000 1224009.250000 2170.020264
v 1140763.500000 1223985.125000 2170.020264
v 1143203.250000 1225925.875000 2170.020996
v 1141215.250000 1225916.125000 2170.020996
v 1141205.625000 1227738.875000 2170.021729
v 1140765.750000 1225913.875000 2170.020996
v 1140768.375000 1228152.000000 2170.021729
v 1143203.250000 1227744.875000 2170.021729
v 1143618.125000 1228161.375000 2170.021729
v 1171814.750000 1200120.875000 2170.012207
v 1170226.375000 1197193.625000 2170.011230
v 1171846.375000 1197183.000000 2170.011230
v 1170123.250000 1200114.875000 2170.012207
v 1168403.750000 1196225.375000 2170.010986
v 1168349.750000 1202235.125000 2170.012939
v 1143617.250000 1225927.875000 2170.020996
v 1108992.500000 1180491.375000 7510.005371
v 1113528.375000 1181205.000000 7510.005859
v 1109011.000000 1181725.875000 7510.005859
v 1113470.250000 1179855.750000 7510.005371
v 1109710.500000 1179030.500000 7510.004883
v 1111020.750000 1177625.625000 7510.004395
v 1110393.250000 1177383.500000 7510.004395
v 1111135.375000 1183832.375000 7510.006348
v 1113471.875000 1182501.000000 7510.006348
v 1112442.000000 1183648.500000 7510.006348
v 1109646.500000 1183043.250000 7510.006348
v 1112993.750000 1176743.625000 7510.004395
v 1114949.750000 1178518.500000 7510.004883
v 1114780.375000 1177817.000000 7510.004395
v 1115159.750000 1176988.000000 7510.004395
v 1114403.000000 1171099.375000 7510.002441
v 1113437.375000 1170908.625000 7510.002441
v 1113755.000000 1170702.750000 7510.001953
v 1112997.875000 1171552.000000 7510.002441
v 1112661.500000 1172257.625000 7510.002441
v 1111848.625000 1177107.250000 7510.004395
v 1114878.750000 1175465.625000 7510.003906
v 1113218.250000 1176188.500000 7510.003906
v 1113221.750000 1175467.125000 7510.003906
v 1112714.125000 1174583.750000 7510.003418
v 1114816.250000 1173934.750000 7510.003418
v 1112560.375000 1173935.625000 7510.003418
v 1112559.375000 1172694.750000 7510.002930
v 1114699.875000 1172716.250000 7510.002930
v 1149546.750000 1182140.125000 7927.116211
v 1151129.750000 1182624.250000 7927.116699
v 1150685.750000 1183873.750000 8113.976074
v 1149546.750000 1182140.125000 7927.116211
v 1151398.000000 1181068.500000 7702.886230
v 1151129.750000 1182624.250000 7927.116699
v 1149914.625000 1180734.125000 7702.885254
v 1151398.000000 1181068.500000 7702.886230
v 1149914.625000 1180734.125000 7702.885254
v 1151458.875000 1179458.250000 7478.654785
v 1150076.375000 1179286.125000 7478.654785
v 1150076.375000 1179286.125000 7478.654785
v 1150342.000000 1177741.750000 7226.408691
v 1146013.125000 1165548.750000 5509.507324
v 1146640.500000 1164689.500000 5409.506836
v 1147993.000000 1165436.375000 5595.522949
v 1145434.500000 1163907.875000 5330.003906
v 1144872.125000 1164804.125000 5399.967773
v 1144152.875000 1163268.875000 5250.500977
v 1143640.125000 1164190.875000 5290.428711
v 1142581.625000 1163531.125000 5152.229492
v 1148895.750000 1170214.125000 5931.362305
v 1150325.250000 1169764.250000 5931.362305
v 1150657.500000 1171330.750000 6194.880371
v 1149983.500000 1169005.625000 5834.533203
v 1148247.500000 1169325.500000 5837.009277
v 1150216.500000 1168080.000000 5852.948242
v 1150539.750000 1167294.000000 5817.498535
v 1150216.500000 1168080.000000 5852.948242
v 1151668.125000 1177795.375000 7226.408691
v 1151458.625000 1176128.250000 6974.162109
v 1151668.125000 1177795.375000 7226.408691
v 1150187.125000 1176199.000000 6974.162109
v 1151458.625000 1176128.250000 6974.162109
v 1150187.125000 1176199.000000 6974.162109
v 1150105.375000 1174653.125000 6721.916504
v 1149828.625000 1173133.125000 6458.398438
v 1151111.625000 1172855.250000 6458.398438
v 1151321.125000 1174459.500000 6721.916504
v 1149828.625000 1173133.125000 6458.398438
v 1151111.625000 1172855.250000 6458.398438
v 1149307.250000 1171693.125000 6194.880371
v 1149307.250000 1171693.125000 6194.880371
v 1148895.750000 1170214.125000 5931.362305
v 1149105.375000 1183555.500000 8151.347168
v 1150038.375000 1184799.750000 8327.284180
v 1149056.750000 1184504.625000 8327.284180
v 1149105.375000 1183555.500000 8151.347168
v 1150452.375000 1184041.750000 8151.347656
v 1150452.375000 1184041.750000 8151.347656
v 1149019.875000 1183264.750000 8113.975586
v 1149019.875000 1183264.750000 8113.975586
v 1147529.000000 1168185.375000 5817.499023
v 1147701.875000 1167370.875000 5781.539062
v 1149360.250000 1166194.000000 5781.538574
v 1147413.750000 1166825.125000 5653.784180
v 1143076.250000 1162601.125000 5132.265625
v 1141468.250000 1162952.875000 5014.030273
v 1141468.250000 1162952.875000 5014.030273
v 1141944.625000 1162014.875000 5014.029785
v 1140074.125000 1162105.500000 4767.496582
v 1140074.125000 1162105.500000 4767.496582
v 1140605.250000 1161021.500000 4767.496582
v 1141944.625000 1162014.875000 5014.029785
v 1138826.875000 1161669.500000 4767.496582
v 1140022.875000 1159759.750000 4767.496094
vn -0.0000 -0.0000 1.0000
vn 0.0425 -0.1397 0.9893
vn 0.0412 -0.1346 0.9901
vn 0.0481 -0.1400 0.9890
vn 0.0424 -0.1397 0.9893
vn 0.0346 -0.1394 0.9896
vn 0.0411 -0.1344 0.9901
vn 0.0294 -0.1459 0.9889
vn 0.0345 -0.1394 0.9896
vn 0.0294 -0.1460 0.9889
vn 0.0194 -0.1488 0.9887
vn 0.0192 -0.1543 0.9878
vn 0.0192 -0.1544 0.9878
vn 0.0059 -0.1538 0.9881
vn -0.0296 -0.1077 0.9937
vn -0.0240 -0.1329 0.9908
vn -0.0681 -0.0862 0.9939
vn -0.0166 -0.0962 0.9952
vn -0.0317 -0.0897 0.9955
vn -0.0564 -0.0766 0.9955
vn -0.0644 -0.0789 0.9948
vn -0.0809 -0.0696 0.9943
vn -0.0329 -0.1266 0.9914
vn -0.0420 -0.1335 0.9902
vn -0.0431 -0.1610 0.9860
vn -0.0105 -0.0388 0.9992
vn -0.0097 -0.0418 0.9991
vn -0.0367 -0.0453 0.9983
vn -0.0198 -0.0325 0.9993
vn -0.0367 -0.0452 0.9983
vn 0.0060 -0.1496 0.9887
vn 0.0059 -0.1537 0.9881
vn -0.0085 -0.1556 0.9878
vn 0.0060 -0.1500 0.9887
vn -0.0089 -0.1605 0.9870
vn -0.0085 -0.1555 0.9878
vn -0.0089 -0.1606 0.9870
vn -0.0219 -0.1593 0.9870
vn -0.0351 -0.1616 0.9862
vn -0.0344 -0.1589 0.9867
vn -0.0268 -0.1552 0.9875
vn -0.0344 -0.1590 0.9867
vn -0.0440 -0.1641 0.9855
vn -0.0438 -0.1634 0.9856
vn -0.0329 -0.1265 0.9914
vn -0.0431 -0.1611 0.9860
vn 0.0552 -0.1580 0.9859
vn 0.0632 -0.1860 0.9805
vn 0.0539 -0.1793 0.9823
vn 0.0552 -0.1579 0.9859
vn 0.0591 -0.1636 0.9848
vn 0.0591 -0.1637 0.9847
vn 0.0516 -0.1410 0.9887
vn 0.0515 -0.1410 0.9887
vn -0.0086 -0.0292 0.9995
vn -0.0532 -0.0879 0.9947
vn -0.0464 -0.0517 0.9976
vn -0.0865 -0.1081 0.9904
vn -0.0790 -0.0581 0.9952
vn -0.1086 -0.0604 0.9923
vn -0.1085 -0.0604 0.9923
vn -0.1093 -0.0550 0.9925
vn -0.1086 -0.0604 0.9922
vn -0.0663 -0.0329 0.9973
vn -0.0664 -0.0329 0.9973
vn -0.0511 -0.0250 0.9984
vn -0.1094 -0.0550 0.9925
vt 0.283850 -0.686133
vt 0.400452 -0.530957
vt 0.414221 -0.682764
vt 0.164868 -0.655713
vt 0.196069 -0.930469
vt 0.165088 -0.930127
vt 0.189514 -0.956006
vt 0.169629 -0.955908
vt 0.169519 -0.980176
vt 0.165125 -0.955859
vt 0.165161 -0.985693
vt 0.189514 -0.980273
vt 0.193652 -0.985840
vt 0.475635 -0.611963
vt 0.459741 -0.572949
vt 0.475928 -0.572803
vt 0.458716 -0.611865
vt 0.441504 -0.560010
vt 0.440955 -0.640137
vt 0.193652 -0.956055
vt -0.152600 -0.350244
vt -0.107227 -0.359717
vt -0.152417 -0.366699
vt -0.107813 -0.341748
vt -0.145459 -0.330762
vt -0.132312 -0.312012
vt -0.138611 -0.308789
vt -0.131177 -0.394775
vt -0.107813 -0.377051
vt -0.118103 -0.392334
vt -0.146082 -0.384277
vt -0.112610 -0.300244
vt -0.093018 -0.323926
vt -0.094739 -0.314600
vt -0.090930 -0.303516
vt -0.098511 -0.225000
vt -0.108142 -0.222461
vt -0.104993 -0.219727
vt -0.112537 -0.231055
vt -0.115906 -0.240430
vt -0.124036 -0.305127
vt -0.093750 -0.283203
vt -0.110339 -0.292871
vt -0.110303 -0.283252
vt -0.115393 -0.271484
vt -0.094373 -0.262793
vt -0.116931 -0.262842
vt -0.116931 -0.246289
vt -0.095544 -0.246582
vt 0.352148 -0.403174
vt 0.367566 -0.397998
vt 0.368372 -0.402344
vt 0.366577 -0.392822
vt 0.351160 -0.397949
vt 0.365625 -0.387598
vt 0.350208 -0.392725
vt 0.349255 -0.387695
vt 0.333215 -0.301611
vt 0.348633 -0.296436
vt 0.350903 -0.308740
vt 0.347168 -0.288672
vt 0.331751 -0.293799
vt 0.345740 -0.280908
vt 0.330322 -0.286035
vt 0.328601 -0.276807
vt 0.344202 -0.360498
vt 0.359473 -0.354590
vt 0.360498 -0.360156
vt 0.358191 -0.347754
vt 0.341455 -0.345801
vt 0.356543 -0.339014
vt 0.355225 -0.331787
vt 0.364600 -0.382178
vt 0.363611 -0.376758
vt 0.348303 -0.382617
vt 0.347388 -0.377588
vt 0.346326 -0.371875
vt 0.361523 -0.365723
vt 0.362585 -0.371338
vt 0.345264 -0.366211
vt 0.353101 -0.408350
vt 0.369251 -0.407031
vt 0.353833 -0.412207
vt 0.368518 -0.403223
vt 0.352954 -0.407520
vt 0.338965 -0.332422
vt 0.337500 -0.324561
vt 0.353210 -0.321045
vt 0.335742 -0.315088
vt 0.344019 -0.271631
vt 0.326880 -0.267529
vt 0.342261 -0.262354
vt 0.324793 -0.256397
vt 0.340356 -0.249170
vt 0.320544 -0.248682
vt 0.332446 -0.223340
s 0
usemtl Material_179_2
f 1/1/1 2/2/1 3/3/1
f 1/1/1 4/4/1 2/2/1
f 5/5/1 4/4/1 1/1/1
f 5/5/1 6/6/1 4/4/1
f 7/7/1 6/6/1 5/5/1
f 7/7/1 8/8/1 6/6/1
f 9/9/1 8/8/1 7/7/1
f 9/9/1 10/10/1 8/8/1
f 11/11/1 10/10/1 9/9/1
f 12/12/1 7/7/1 13/13/1
f 12/12/1 9/9/1 7/7/1
f 11/11/1 9/9/1 12/12/1
f 14/14/1 15/15/1 16/16/1
f 14/14/1 17/17/1 15/15/1
f 17/17/1 18/18/1 15/15/1
f 17/17/1 19/19/1 18/18/1
f 19/19/1 2/2/1 18/18/1
f 19/19/1 3/3/1 2/2/1
f 20/20/1 7/7/1 5/5/1
f 20/20/1 13/13/1 7/7/1
f 6/6/1 8/8/1 10/10/1
f 13/13/1 11/11/1 12/12/1
f 21/21/1 22/22/1 23/23/1
f 21/21/1 24/24/1 22/22/1
f 25/25/1 24/24/1 21/21/1
f 25/25/1 26/26/1 24/24/1
f 27/27/1 26/26/1 25/25/1
f 28/28/1 29/29/1 30/30/1
f 28/28/1 22/22/1 29/29/1
f 31/31/1 22/22/1 28/28/1
f 31/31/1 23/23/1 22/22/1
f 32/32/1 33/33/1 24/24/1
f 32/32/1 34/34/1 33/33/1
f 35/35/1 34/34/1 32/32/1
f 36/36/1 37/37/1 38/38/1
f 36/36/1 39/39/1 37/37/1
f 40/40/1 39/39/1 36/36/1
f 41/41/1 24/24/1 26/26/1
f 41/41/1 32/32/1 24/24/1
f 32/32/1 42/42/1 35/35/1
f 32/32/1 43/43/1 42/42/1
f 44/44/1 42/42/1 43/43/1
f 44/44/1 45/45/1 42/42/1
f 45/45/1 46/46/1 42/42/1
f 45/45/1 47/47/1 46/46/1
f 36/36/1 48/48/1 40/40/1
f 36/36/1 49/49/1 48/48/1
f 49/49/1 47/47/1 48/48/1
f 49/49/1 46/46/1 47/47/1
s 1
f 50/50/2 51/51/3 52/52/4
f 53/50/5 54/53/6 55/51/7
f 56/54/8 57/53/9 50/50/2
f 58/54/10 59/55/11 57/53/9
f 60/56/12 59/55/11 56/54/8
f 61/56/13 62/57/14 59/55/11
f 63/58/15 64/59/16 65/60/17
f 63/58/15 66/61/18 64/59/16
f 67/62/19 66/61/18 63/58/15
f 67/62/19 68/63/20 66/61/18
f 69/64/21 68/63/20 67/62/19
f 69/64/21 70/65/22 68/63/20
f 71/66/23 72/67/24 73/68/25
f 71/66/23 74/69/26 72/67/24
f 75/70/27 74/69/26 71/66/23
f 75/70/27 76/71/28 74/69/26
f 77/72/29 78/71/30 75/70/27
f 62/57/14 79/73/31 59/55/11
f 62/57/32 80/74/33 81/73/34
f 82/75/35 83/74/36 62/57/14
f 84/75/37 85/76/38 80/74/33
f 86/77/39 87/78/40 88/79/41
f 89/77/39 73/68/25 90/78/42
f 91/80/43 73/68/25 86/77/39
f 92/80/44 93/66/45 73/68/46
f 94/81/47 95/82/48 96/83/49
f 97/81/50 98/84/51 95/82/48
f 52/52/4 99/84/52 97/81/50
f 100/85/53 52/52/4 97/81/50
f 101/85/54 53/50/5 52/52/4
f 85/76/38 88/79/41 83/74/36
f 85/76/38 86/77/39 88/79/41
f 102/86/55 77/72/29 75/70/27
f 102/86/55 103/87/56 77/72/29
f 103/87/56 104/88/57 77/72/29
f 103/87/56 105/89/58 104/88/57
f 105/89/58 65/60/17 104/88/57
f 105/89/58 63/58/15 65/60/17
f 70/65/22 106/90/59 68/63/20
f 70/65/22 107/91/60 106/90/59
f 108/91/61 109/92/62 106/90/59
f 107/91/63 110/93/64 109/92/62
f 111/93/65 112/94/66 113/92/67
f 111/93/65 114/95/1 112/94/66
f 115/96/1 112/94/66 114/95/1
