# Blender 4.1.1
# www.blender.org
mtllib polygon136.mtl
o polygon136
v 8910.900391 5498.417480 -154.769455
v 9120.097656 5588.804199 -236.255768
v 9110.201172 5648.854492 -138.295074
v 9260.014648 5557.299805 -238.999847
v 9285.996094 5606.802246 -144.040863
v 9498.967773 5325.706055 -232.396957
v 9539.969727 5342.913086 -151.718018
v 9522.009766 4835.245117 -222.194275
v 9576.580078 4808.712402 -129.887589
v 9398.567383 4698.319336 -227.969452
v 9419.386719 4652.506348 -135.250031
v 9185.153320 4636.214355 -146.910645
v 4342.381348 9880.455078 -366.334564
v 4409.034668 9484.609375 -196.651428
v 4485.687988 9521.329102 -365.890625
v 5226.815430 9021.949219 -302.617767
v 5275.013184 9064.425781 -456.354614
v 5559.636230 8538.412109 -403.777191
v 5626.451172 8555.648438 -550.771851
v 5367.645996 7975.384277 -637.609985
v 5135.934082 10271.799805 -510.088776
v 5139.434082 10334.729492 -280.092987
v 4643.079102 10194.459961 -465.346313
v 4614.366211 10249.479492 -222.772903
v 4245.985352 9891.666016 -159.798569
v 8605.998047 5071.508301 -149.772202
v 8662.469727 5061.667480 -235.929993
v 8723.188477 5393.009766 -138.686127
v 8772.583008 5353.114258 -263.882721
v 8938.509766 5458.062500 -250.102844
v 7213.533203 6472.404785 -206.652649
v 7083.268555 6454.000000 -436.387787
v 7095.958984 6375.967773 -207.371140
v 6841.368164 6428.353516 -432.091858
v 6815.479004 6340.877930 -162.426773
v 6546.764648 6507.864258 -204.595367
v 6617.326660 7029.789062 -531.939575
v 6416.569824 7266.391113 -542.473816
v 6382.458496 7221.103516 -359.002625
v 5838.652344 7244.259277 -642.403015
v 5814.275391 7174.822266 -406.850739
v 5469.005371 7410.469238 -413.615479
v 5300.209473 7956.790039 -441.509766
v 5522.334473 7456.134277 -692.419189
v 9030.765625 4196.964355 -183.704697
v 9099.782227 4477.963379 -127.158218
v 9050.046875 4490.870117 -212.582626
v 9160.909180 4674.331543 -225.310181
v 7922.828613 8700.439453 -723.695618
v 7974.544434 8713.727539 -516.486206
v 7251.062500 9366.479492 -777.276367
v 7309.393555 9379.123047 -537.231262
v 6393.940918 9838.768555 -427.887360
v 6366.409180 9789.926758 -661.480957
v 8828.591797 4171.109863 -161.314606
v 8873.365234 4112.575195 -125.438889
v 8939.113281 4123.536133 -173.663681
v 8953.025391 4066.615234 -97.368286
v 9032.777344 4143.116211 -100.612595
v 9064.646484 4170.412109 -108.870987
v 8656.687500 4619.406250 -104.389938
v 8688.051758 4434.598145 -164.746521
v 8675.561523 4743.551270 -109.626358
v 8729.450195 4741.807129 -154.313141
v 8364.089844 7971.565918 -655.616760
v 8426.065430 7966.520020 -406.437103
v 8015.337402 7219.250000 -593.582214
v 8076.625488 7199.502441 -376.910706
v 7407.576172 6803.214355 -543.344910
v 7423.536621 6789.737793 -465.089081
v 7267.082520 6576.261230 -441.571533
v 7289.169434 6549.087891 -346.246765
v 6613.902832 6557.643555 -465.033264
v 6557.831055 6988.977539 -294.335602
v 8806.213867 4134.145996 -110.296585
v 8630.830078 4422.513184 -90.887283
v 8642.037109 4869.911133 -129.500183
vn -0.4772 0.7512 -0.4560
vn -0.1769 0.8339 -0.5228
vn -0.1585 0.8354 -0.5263
vn 0.4122 0.7559 -0.5086
vn 0.4084 0.7608 -0.5044
vn 0.8001 0.3516 -0.4859
vn 0.8040 0.3431 -0.4857
vn 0.7973 -0.2622 -0.5437
vn 0.7909 -0.2992 -0.5339
vn 0.3816 -0.7834 -0.4906
vn 0.3854 -0.7900 -0.4769
vn 0.4535 -0.7349 -0.5042
vn -0.8839 0.2227 -0.4112
vn -0.7221 -0.5415 -0.4304
vn -0.6727 -0.5995 -0.4336
vn -0.6461 -0.6585 -0.3859
vn -0.6772 -0.6250 -0.3883
vn -0.9126 -0.0367 -0.4071
vn -0.9105 0.0042 -0.4134
vn -0.9493 0.0655 -0.3075
vn 0.0963 0.9597 -0.2640
vn 0.0579 0.9639 -0.2599
vn -0.4556 0.8541 -0.2509
vn -0.4983 0.8251 -0.2664
vn -0.8904 0.1644 -0.4245
vn -0.8321 0.0563 -0.5518
vn -0.8255 0.0522 -0.5620
vn -0.6934 0.5502 -0.4652
vn -0.6944 0.5563 -0.4565
vn -0.4720 0.7545 -0.4561
vn 0.5488 -0.7985 -0.2472
vn 0.3350 -0.8917 -0.3043
vn 0.3335 -0.8891 -0.3134
vn -0.1989 -0.9274 -0.3169
vn -0.2124 -0.9233 -0.3199
vn -0.7691 -0.5554 -0.3162
vn -0.8798 -0.3800 -0.2857
vn -0.3485 -0.8929 -0.2852
vn -0.3787 -0.8776 -0.2940
vn -0.2539 -0.9257 -0.2804
vn -0.2245 -0.9282 -0.2968
vn -0.7664 -0.5838 -0.2681
vn -0.9461 0.0366 -0.3219
vn -0.7832 -0.5721 -0.2435
vn 0.7606 -0.4178 -0.4969
vn 0.8128 -0.2844 -0.5085
vn 0.8081 -0.2966 -0.5089
vn 0.4407 -0.7462 -0.4990
vn 0.7662 0.6001 -0.2297
vn 0.7827 0.5792 -0.2276
vn 0.5563 0.8100 -0.1857
vn 0.5803 0.7936 -0.1828
vn 0.3659 0.9030 -0.2254
vn 0.3660 0.9010 -0.2329
vn -0.5558 -0.5370 -0.6346
vn -0.3337 -0.7127 -0.6170
vn 0.1370 -0.7781 -0.6130
vn 0.2388 -0.7570 -0.6083
vn 0.5239 -0.6887 -0.5011
vn 0.7101 -0.4977 -0.4981
vn -0.7575 0.0829 -0.6475
vn -0.7558 -0.1576 -0.6356
vn -0.6557 -0.1036 -0.7479
vn -0.6368 -0.1059 -0.7637
vn 0.9679 0.0653 -0.2429
vn 0.9690 -0.0038 -0.2471
vn 0.7256 -0.6380 -0.2577
vn 0.7463 -0.6095 -0.2675
vn 0.6439 -0.7220 -0.2532
vn 0.6659 -0.6979 -0.2638
vn 0.6512 -0.6797 -0.3376
vn 0.5793 -0.7603 -0.2939
vn -0.8354 -0.4593 -0.3018
vn -0.9141 -0.2929 -0.2806
vn -0.5514 -0.5417 -0.6344
vn -0.7672 -0.1648 -0.6199
vn -0.7216 -0.2756 -0.6351
vt 2.410095 1.000000
vt 2.414307 0.000000
vt 2.333557 1.000000
vt 2.463257 0.000000
vt 2.475464 1.000000
vt 2.548340 0.000000
vt 2.568665 1.000000
vt 2.556396 0.000000
vt 2.587341 1.000000
vt 2.510925 0.000000
vt 2.532349 1.000000
vt 2.454834 1.000000
vt 0.787170 0.000000
vt 0.709534 1.000000
vt 0.738464 0.000000
vt 1.023743 1.000000
vt 1.066040 0.000000
vt 1.113281 1.000000
vt 1.186768 0.000000
vt 1.096252 0.000000
vt 0.847839 0.000000
vt 0.991882 1.000000
vt 1.020203 0.000000
vt 0.809570 1.000000
vt 0.652527 1.000000
vt 2.267883 1.000000
vt 2.250488 0.000000
vt 2.233765 1.000000
vt 2.289734 0.000000
vt 2.348511 0.000000
vt 1.707031 1.000000
vt 1.701233 0.000000
vt 1.748108 1.000000
vt 1.616638 0.000000
vt 1.608948 1.000000
vt 1.469238 1.000000
vt 1.417175 1.000000
vt 1.468079 0.000000
vt 1.535767 0.000000
vt 1.265991 0.000000
vt 1.214417 1.000000
vt 1.093689 1.000000
vt 1.034607 1.000000
vt 1.152832 0.000000
vt 2.391296 0.000000
vt 2.422546 1.000000
vt 2.383850 0.000000
vt 2.427795 0.000000
vt 0.060120 0.000000
vt 0.063477 1.000000
vt 0.000000 0.000000
vt 0.127197 1.000000
vt 0.190857 1.000000
vt 0.120239 0.000000
vt 0.254517 1.000000
vt 0.180359 0.000000
vt 2.351746 0.000000
vt 2.321899 1.000000
vt 2.308594 0.000000
vt 2.354797 1.000000
vt 2.397217 1.000000
vt 2.408325 1.000000
vt 2.251770 1.000000
vt 2.260193 0.000000
vt 2.245117 1.000000
vt 2.273132 0.000000
vt 2.042053 1.000000
vt 2.149170 0.000000
vt 1.994873 0.000000
vt 2.273193 1.000000
vt 2.027222 0.000000
vt 2.129700 1.000000
vt 1.814636 0.000000
vt 1.837708 1.000000
vt 1.765503 0.000000
vt 1.796082 1.000000
vt 1.534607 0.000000
vt 1.474426 1.000000
vt 2.285461 1.000000
vt 2.236084 1.000000
vt 2.239990 1.000000
s 1
usemtl mt_kusa_blend
f 3/1/3 2/2/2 1/3/1
f 4/4/4 2/2/2 3/1/3
f 5/5/5 4/4/4 3/1/3
f 6/6/6 4/4/4 5/5/5
f 7/7/7 6/6/6 5/5/5
f 8/8/8 6/6/6 7/7/7
f 9/9/9 8/8/8 7/7/7
f 10/10/10 8/8/8 9/9/9
f 11/11/11 10/10/10 9/9/9
f 12/12/12 10/10/10 11/11/11
f 15/13/15 14/14/14 13/15/13
f 16/16/16 14/14/14 15/13/15
f 17/17/17 16/16/16 15/13/15
f 18/18/18 16/16/16 17/17/17
f 19/19/19 18/18/18 17/17/17
f 20/20/20 18/18/18 19/19/19
f 23/21/23 22/22/22 21/23/21
f 24/24/24 22/22/22 23/21/23
f 13/15/13 24/24/24 23/21/23
f 25/25/25 24/24/24 13/15/13
f 14/14/14 25/25/25 13/15/13
f 28/26/28 27/27/27 26/28/26
f 29/29/29 27/27/27 28/26/28
f 1/3/1 29/29/29 28/26/28
f 30/30/30 29/29/29 1/3/1
f 2/2/2 30/30/30 1/3/1
f 33/31/33 32/32/32 31/33/31
f 34/34/34 32/32/32 33/31/33
f 35/35/35 34/34/34 33/31/33
f 36/36/36 34/34/34 35/35/35
f 39/37/39 38/38/38 37/39/37
f 40/40/40 38/38/38 39/37/39
f 41/41/41 40/40/40 39/37/39
f 42/42/42 40/40/40 41/41/41
f 20/20/20 43/43/43 18/18/18
f 42/42/42 43/43/43 20/20/20
f 44/44/44 42/42/42 20/20/20
f 40/40/40 42/42/42 44/44/44
f 47/45/47 46/46/46 45/47/45
f 12/12/12 46/46/46 47/45/47
f 48/48/48 12/12/12 47/45/47
f 10/10/10 12/12/12 48/48/48
f 51/49/51 50/50/50 49/51/49
f 52/52/52 50/50/50 51/49/51
f 53/53/53 52/52/52 51/49/51
f 54/54/54 53/53/53 51/49/51
f 22/55/22 53/53/53 54/54/54
f 21/56/21 22/55/22 54/54/54
f 57/57/57 56/58/56 55/59/55
f 58/60/58 56/58/56 57/57/57
f 59/61/59 58/60/58 57/57/57
f 45/47/45 59/61/59 57/57/57
f 60/62/60 59/61/59 45/47/45
f 46/46/46 60/62/60 45/47/45
f 63/63/63 62/64/62 61/65/61
f 64/66/64 62/64/62 63/63/63
f 27/27/27 64/66/64 63/63/63
f 50/67/50 65/68/65 49/69/49
f 66/70/66 65/68/65 50/67/50
f 66/70/66 67/71/67 65/68/65
f 68/72/68 67/71/67 66/70/66
f 68/72/68 69/73/69 67/71/67
f 70/74/70 69/73/69 68/72/68
f 70/74/70 71/75/71 69/73/69
f 72/76/72 71/75/71 70/74/70
f 72/76/72 32/32/32 71/75/71
f 31/33/31 32/32/32 72/76/72
f 36/36/36 73/77/73 34/34/34
f 74/78/74 73/77/73 36/36/36
f 74/78/74 37/39/37 73/77/73
f 39/37/39 37/39/37 74/78/74
f 75/79/75 55/59/55 56/58/56
f 76/80/76 55/59/55 75/79/75
f 76/80/76 62/64/62 55/59/55
f 61/65/61 62/64/62 76/80/76
f 77/81/77 27/27/27 63/63/63
f 26/28/26 27/27/27 77/81/77
