# Blender 4.1.1
# www.blender.org
mtllib polygon0.602.mtl
o Yacht.002
v -0.000062 41.687263 -8.192597
v 4.820833 38.786709 -8.192597
v -0.000062 38.406765 -2.212331
v 8.279426 29.776760 -2.212330
v -0.000062 35.391479 1.188401
v 4.967467 29.157328 1.487249
v -0.000062 28.057468 5.684351
v 9.739214 11.357790 1.639977
v -0.000061 10.271298 5.442384
v 10.156819 -3.112042 1.155263
v -0.000061 -3.258764 4.347117
v 9.280621 -14.604620 0.514257
v -0.000061 -14.488339 3.008777
v 7.564765 -23.288279 -0.550456
v -0.000061 -23.536230 1.338398
v -0.000061 -29.122858 -0.052813
v -7.800000 -24.699312 -7.999251
v -7.800000 -24.699314 -9.927095
v -10.636340 -22.281719 -7.999250
v -10.636340 -22.281721 -9.927095
v -14.109569 -14.145110 -7.999251
v -14.109569 -14.145109 -9.927095
v -15.476390 -1.553766 -7.999253
v -15.476390 -1.553766 -9.927097
v -14.173679 12.997899 -7.999255
v -14.173679 12.997900 -9.927100
v -10.979480 23.716408 -7.999256
v -10.979480 23.716406 -8.741542
v 10.979480 23.716408 -7.999256
v 10.979480 23.716406 -8.741542
v 14.173679 12.997899 -7.999255
v 14.173679 12.997900 -9.927100
v 15.476390 -1.553766 -7.999253
v 15.476390 -1.553766 -9.927097
v 14.109569 -14.145110 -7.999251
v 14.109569 -14.145109 -9.927095
v 10.636340 -22.281719 -7.999250
v 10.636340 -22.281721 -9.927095
v 7.800000 -24.699312 -7.999251
v 7.800000 -24.699314 -9.927095
v -9.076639 -25.546261 -8.192590
v -11.747729 -22.655451 -8.192591
v -8.072698 -28.031689 -2.212323
v -10.799519 -23.010229 -2.212323
v -7.564886 -23.288279 -0.550456
v -12.781649 -14.510809 -2.212324
v -9.280741 -14.604620 0.514257
v -13.988359 -3.155153 -2.212326
v -10.156940 -3.112042 1.155263
v -12.772580 12.271608 -2.212327
v -9.739336 11.357790 1.639977
v -8.279551 29.776760 -2.212330
v -1.360165 -28.694628 -0.499710
v -0.310559 -25.952145 10.129922
v -0.310559 -28.641148 10.129924
v 0.310559 -28.641148 10.129924
v 1.360165 -28.694628 -0.499710
v 0.600697 -21.983002 0.961615
v -0.600697 -21.983002 0.961615
v 0.310559 -25.952145 10.129922
v -1.360165 0.489537 3.701614
v -0.500465 9.138419 18.611406
v -0.500465 0.418548 18.611410
v 0.500465 0.418548 18.611410
v 1.360165 0.489537 3.701614
v 0.682578 15.204970 4.072314
v -0.682578 15.204970 4.072314
v 0.500465 9.138419 18.611406
v 9.880369 30.400335 -8.192596
v 15.314819 12.957548 -8.192595
v 12.772459 12.271608 -2.212327
v 13.988239 -3.155153 -2.212326
v 12.781529 -14.510809 -2.212324
v 0.000000 12.828477 -21.252329
v 0.690369 -5.215972 -21.252329
v 0.000000 12.828474 -47.184280
v 2.661919 -2.416242 -47.274803
v 0.000000 12.828471 -73.116226
v 2.815883 1.495418 -73.297295
v 0.000000 12.828468 -99.048180
v 0.624253 6.154422 -99.319771
v 0.000000 12.828465 -125.661697
v 0.000000 10.545815 -126.386002
v -0.822654 12.745937 -8.392751
v -0.822654 12.745923 -127.640099
v -0.822654 14.391237 -8.392752
v -0.822654 14.391223 -127.640091
v 2.139149 14.391237 -8.392752
v 0.822654 14.391223 -127.640091
v 0.822654 12.745937 -8.392751
v 0.822654 12.745923 -127.640099
v -15.314939 12.957548 -8.192595
v -16.772739 -3.250387 -8.192593
v -15.325839 -14.489011 -8.192590
v 8.190619 -22.750002 -8.192590
v 9.957435 -11.248761 -8.192592
v 8.606234 -11.167049 -10.367238
v 10.557920 -3.250001 -8.192593
v 8.496523 -7.423104 -12.876808
v 8.688453 -3.250001 -12.375799
v 7.433291 -5.160225 -13.436040
v 6.853872 12.437380 -10.641312
v 7.071137 2.542415 -14.013980
v 7.030827 5.535086 -40.653839
v 7.119068 20.595285 -14.013983
v 9.355488 20.700762 -40.765240
v 4.920140 30.113327 -14.013983
v 6.394156 28.775204 -40.820953
v 0.828636 38.648159 -14.013985
v 1.540246 35.866436 -40.876640
v 1.542445 31.941601 -67.291885
v 5.863744 26.579752 -67.292336
v 0.828636 24.265226 -97.631004
v 4.720513 18.060566 -97.693329
v 0.828636 14.513105 -120.573387
v 2.721533 11.855908 -97.755661
v -0.818888 12.774075 -127.603004
v -0.818888 12.774074 -126.098999
v -0.818888 9.764120 -127.603004
v -0.818888 9.764120 -126.887100
v 0.818888 9.764120 -127.603004
v 0.818888 9.764120 -126.887100
v 0.818888 12.774075 -127.603004
v 0.818888 12.774074 -126.098999
v -4.967592 29.157328 1.487249
v 9.076518 -25.546261 -8.192590
v 8.072577 -28.031689 -2.212323
v 11.747609 -22.655451 -8.192591
v 10.799399 -23.010229 -2.212323
v 15.325709 -14.489011 -8.192590
v -7.093328 -23.260420 -21.252325
v -4.369120 -17.660965 -47.365341
v -3.246710 -9.837638 -73.478363
v 7.024901 -22.750002 -8.192590
v -0.000061 -25.546261 -8.192590
v -0.000062 -28.031689 -2.212323
v -4.820957 38.786709 -8.192597
v -9.880493 30.400335 -8.192596
v -7.433562 -5.160225 -13.436040
v -6.854290 12.437380 -10.641312
v -0.000062 24.309448 -8.192595
v 6.233953 22.803305 -8.192595
v -5.158885 -28.703329 -1.069800
v 5.158763 -28.703329 -1.069800
v 9.807909 13.604438 -8.192595
v 16.772619 -3.250387 -8.192593
v 5.328239 8.527762 -67.293701
v 8.512341 20.234682 -67.292801
v -6.234076 22.803305 -8.192595
v -9.807909 13.604438 -8.192595
v -8.143966 13.020908 -10.362330
v -8.688873 -3.250001 -12.375799
v -8.606356 -11.167049 -10.367238
v -7.557557 -11.167049 -10.367238
v -8.496646 -7.423106 -12.876808
v -7.228291 -7.423106 -12.876808
v 8.143756 13.020908 -10.362330
v -8.190741 -22.750002 -8.192590
v -9.957557 -11.248761 -8.192592
v -0.000062 40.587238 -8.133098
v -0.000062 40.587238 -10.052235
v 4.830939 37.343040 -8.133097
v 4.830939 37.343040 -10.052234
v -4.831064 37.343040 -8.133097
v -4.831064 37.343040 -10.052234
v -7.026423 -9.541060 -4.908226
v -7.228291 -6.179441 -11.656069
v 7.228168 -7.423104 -12.876808
v 7.228168 -6.179440 -11.656069
v 7.557434 -11.167049 -10.367238
v 7.026299 -9.541060 -4.908226
v -10.558040 -3.250001 -8.192593
v -7.269963 -26.581259 -4.566721
v 7.269839 -26.581259 -4.566720
v -7.025023 -22.750002 -8.192590
v -1.711826 -0.519627 -99.591377
v 8.981359 30.184057 -8.133097
v -8.981483 30.184057 -8.133097
vn 0.4666 0.7755 0.4254
vn 0.6117 0.5869 0.5304
vn 0.6150 0.5900 0.5231
vn 0.5985 0.5066 0.6206
vn 0.5174 0.4472 0.7296
vn 0.6135 0.1711 0.7709
vn 0.3649 -0.0127 0.9310
vn 0.3656 -0.0206 0.9305
vn 0.2999 -0.0770 0.9509
vn 0.2999 -0.0759 0.9509
vn 0.2565 -0.1144 0.9597
vn 0.2540 -0.1670 0.9527
vn 0.2439 -0.1761 0.9537
vn 0.2427 -0.2344 0.9413
vn -0.6487 -0.7611 -0.0000
vn -0.9197 -0.3926 -0.0000
vn -0.9942 -0.1079 -0.0000
vn -0.9960 0.0892 -0.0000
vn -0.9584 0.2856 -0.0000
vn 0.9584 0.2856 -0.0000
vn 0.9960 0.0892 -0.0000
vn 0.9942 -0.1079 -0.0000
vn 0.9197 -0.3926 -0.0000
vn 0.6487 -0.7611 -0.0000
vn -0.7254 -0.6703 -0.1568
vn -0.8734 -0.4743 0.1103
vn -0.4594 -0.2495 0.8525
vn -0.4616 -0.1077 0.8805
vn -0.6038 -0.2135 0.7680
vn -0.6142 -0.0653 0.7864
vn -0.6568 -0.0918 0.7484
vn -0.6596 0.0520 0.7498
vn -0.7855 0.0019 0.6189
vn -0.7484 0.1921 0.6348
vn -0.9952 -0.0000 0.0983
vn -0.0000 -0.0000 1.0000
vn -0.0000 -1.0000 0.0050
vn 0.9911 0.0909 0.0974
vn -0.0000 0.2127 -0.9771
vn -0.9927 0.0964 0.0731
vn -0.0000 0.9177 0.3973
vn 0.9995 -0.0000 0.0316
vn -0.9983 -0.0000 0.0576
vn -0.0000 -1.0000 -0.0048
vn 0.9973 0.0445 0.0577
vn -0.0000 0.0252 -0.9997
vn -0.9985 0.0452 0.0314
vn -0.0000 0.9229 0.3851
vn 0.9999 -0.0000 0.0125
vn 0.8239 0.4970 0.2724
vn 0.9178 0.2859 0.2755
vn 0.8865 0.2275 0.4030
vn 0.9149 0.0721 0.3972
vn 0.6596 0.0520 0.7498
vn 0.6581 -0.0699 0.7497
vn 0.6134 -0.0905 0.7845
vn 0.6038 -0.2135 0.7680
vn -0.9993 -0.0382 -0.0000
vn -0.9809 -0.1707 -0.0927
vn -0.9851 -0.1720 -0.0000
vn -0.9698 -0.2403 -0.0419
vn -0.9705 -0.2411 -0.0000
vn -0.9932 -0.0956 0.0665
vn -0.9957 -0.0931 -0.0000
vn -0.9997 -0.0070 0.0219
vn -1.0000 -0.0000 -0.0000
vn -0.0000 1.0000 -0.0000
vn 0.7808 -0.6247 -0.0086
vn 1.0000 -0.0000 -0.0000
vn -0.0000 -1.0000 -0.0000
vn -0.8865 0.2275 0.4030
vn -0.9149 0.0721 0.3972
vn -0.9040 0.0813 0.4196
vn -0.9018 -0.0958 0.4214
vn -0.9140 -0.1177 0.3884
vn -0.9000 -0.2099 0.3821
vn -0.9093 -0.3984 0.1205
vn 0.8401 -0.1291 -0.5268
vn 0.8466 -0.0636 -0.5284
vn 0.9479 -0.1577 -0.2767
vn 0.9130 0.0070 -0.4080
vn 0.5784 0.0710 -0.8126
vn 0.4922 0.1523 -0.8571
vn -1.0000 0.0027 0.0018
vn -0.9852 0.1504 -0.0818
vn -0.9710 -0.2243 -0.0821
vn -0.9382 -0.3443 -0.0344
vn -0.9014 -0.4321 -0.0280
vn -0.8248 -0.5643 0.0366
vn -0.8226 -0.5624 0.0835
vn -0.7768 -0.6261 0.0675
vn -0.7667 -0.6179 0.1744
vn -0.8328 -0.5241 0.1782
vn -0.8252 -0.5198 0.2210
vn -0.9460 0.3036 0.1138
vn -0.6150 0.5900 0.5231
vn -0.5985 0.5066 0.6206
vn -0.7138 0.1971 0.6720
vn -0.6135 0.1711 0.7709
vn -0.3649 -0.0127 0.9310
vn 0.7254 -0.6703 -0.1568
vn 0.8734 -0.4743 0.1103
vn 0.9093 -0.3984 0.1205
vn 0.9000 -0.2099 0.3821
vn 0.9159 -0.0973 0.3893
vn -0.9179 0.3959 -0.0269
vn -0.9081 0.4188 -0.0049
vn -0.9067 0.4178 0.0574
vn -0.8778 0.4679 0.1025
vn -0.8719 0.4639 0.1565
vn -0.0000 -0.0000 -1.0000
vn -0.0000 -0.9234 -0.3838
vn -0.4666 0.7755 0.4254
vn -0.6117 0.5869 0.5304
vn -0.8239 0.4970 0.2724
vn -0.9178 0.2859 0.2755
vn -0.0000 0.1568 -0.9876
vn -0.0000 0.2020 -0.9794
vn 0.0562 0.2327 -0.9709
vn -0.0000 -0.8621 -0.5068
vn 0.0163 -0.8924 -0.4509
vn -0.0000 -0.8925 -0.4510
vn -0.0551 -0.7930 -0.6067
vn -0.9852 0.1516 0.0800
vn -0.9646 0.2624 0.0260
vn -0.9383 -0.3439 0.0359
vn -0.9217 -0.3847 0.0504
vn -0.7235 0.2811 -0.6305
vn -0.7757 0.1030 -0.6226
vn -0.1547 0.1264 -0.9798
vn -0.4921 0.1523 -0.8571
vn -0.4042 -0.2636 0.8759
vn -0.2435 -0.1992 0.9492
vn -0.2064 -0.2364 0.9495
vn 0.4616 -0.1077 0.8805
vn 0.4594 -0.2495 0.8525
vn 0.4042 -0.2636 0.8759
vn 0.7138 0.1971 0.6720
vn 0.7484 0.1921 0.6348
vn 0.7855 0.0019 0.6189
vn -0.0000 -0.5568 -0.8307
vn -0.0000 -0.2399 -0.9708
vn 0.1030 0.2345 -0.9666
vn 0.1547 0.1264 -0.9798
vn 0.9100 0.0808 -0.4067
vn -0.2440 -0.1654 0.9556
vn -0.2535 -0.1756 0.9513
vn -0.2580 -0.0734 0.9633
vn -0.2994 -0.1129 0.9474
vn -0.3000 -0.0233 0.9536
vn -0.3699 -0.0750 0.9260
vn 0.5575 0.8302 -0.0000
vn -0.5575 0.8302 -0.0000
vn 0.9902 -0.1264 -0.0587
vn 0.9996 0.0197 -0.0201
vn -0.9972 -0.0521 0.0531
vn -0.9939 -0.0841 -0.0716
vn -0.0000 -0.7005 0.7137
vn -0.8401 -0.1291 -0.5268
vn -0.8466 -0.0636 -0.5284
vn -0.0000 -0.0200 -0.9998
vn -0.0000 -0.8951 -0.4459
vn -0.0000 0.6874 0.7263
vn -0.9136 -0.3814 0.1412
vn -0.9477 0.3043 0.0964
vn -0.0000 -0.1845 -0.9828
vn -0.9422 0.3267 0.0747
vn -0.9428 0.3275 0.0615
vn 0.9985 -0.0132 0.0535
vn 0.9942 0.0261 -0.1045
vn 0.7235 0.2811 -0.6305
vn 0.7884 0.0351 -0.6141
vn -0.9871 0.0722 0.1430
vn -0.9956 -0.0161 -0.0921
vn -0.5784 0.0709 -0.8126
vn -0.9949 -0.0344 -0.0949
vn -0.9123 0.0406 -0.4076
vn -0.9072 -0.1123 -0.4054
vn 0.8997 -0.1158 0.4208
vn 0.9040 0.0813 0.4196
vn -0.0000 -0.2533 0.9674
vn 0.8651 0.5016 -0.0000
vn -0.8651 0.5016 -0.0000
vn -0.5174 0.4472 0.7296
vn 0.2045 -0.1831 0.9616
vn -0.9590 0.2608 0.1106
vn -0.0562 0.2327 -0.9709
vn -0.1030 0.2345 -0.9666
vt 1.593872 0.063721
vt 1.596191 0.262940
vt 1.614380 0.262940
vt 1.539795 0.063721
vt 1.574951 0.017822
vt 1.535889 0.013672
vt 1.528931 -0.042969
vt 1.424194 0.011719
vt 1.417480 -0.039673
vt 1.333496 0.018188
vt 1.332642 -0.024902
vt 1.261475 0.026855
vt 1.262207 -0.006836
vt 1.207031 0.041260
vt 1.205444 0.015747
vt 1.170410 0.034546
vt 0.587280 1.062744
vt 0.675903 1.018799
vt 0.675903 1.062744
vt 0.587280 1.018799
vt 0.763550 1.062744
vt 0.763550 1.018799
vt 1.001953 1.062744
vt 1.001953 1.018799
vt 0.764526 1.062744
vt 0.764526 1.018799
vt 0.590332 1.062744
vt 0.590332 1.018799
vt 1.174561 0.063721
vt 1.210938 0.262940
vt 1.192871 0.262940
vt 1.208740 0.063721
vt 1.262085 0.063721
vt 1.333252 0.063721
vt 1.429932 0.063721
vt 0.852783 0.027344
vt 0.841553 0.027344
vt 0.852905 0.197388
vt 0.824951 0.196777
vt 0.867432 0.022339
vt 0.831055 0.022339
vt 0.867065 0.199951
vt 0.805664 0.196411
vt 1.543701 0.262940
vt 1.434326 0.262940
vt 0.182373 0.246704
vt 0.098755 0.000000
vt 0.182373 0.000000
vt 0.111816 0.247559
vt 0.182373 0.493286
vt 0.129883 0.494995
vt 0.182373 0.739990
vt 0.151489 0.742554
vt 0.182373 0.993164
vt 0.171875 1.000000
vt 1.126953 0.006958
vt 1.126953 0.185791
vt 1.149658 0.006958
vt 1.149658 0.185791
vt 1.332642 0.262940
vt 1.262207 0.262940
vt 1.202148 0.340332
vt 1.202393 0.275147
vt 1.007324 0.275147
vt 1.337769 0.276245
vt 1.257080 0.399414
vt 1.363403 0.382324
vt 1.287354 0.418579
vt 1.519653 0.352783
vt 0.277100 0.113281
vt 0.201782 0.352661
vt 0.186890 0.113281
vt 0.277588 0.353638
vt 0.322266 0.113281
vt 0.315552 0.354126
vt 0.367310 0.113281
vt 0.353516 0.354736
vt 0.333862 0.592163
vt 0.304565 0.592163
vt 0.295410 0.864746
vt 0.264404 0.865356
vt 0.246704 1.071045
vt 0.233398 0.865967
vt 0.539795 0.880493
vt 0.539795 0.814209
vt 0.539795 0.848999
vt 0.667847 0.880493
vt 0.667847 0.848999
vt 0.667847 0.814209
vt 0.015137 0.000000
vt 0.041138 0.248413
vt 0.077393 0.496704
vt 1.121216 0.594116
vt 1.109253 0.594116
vt 1.128662 0.594116
vt 1.117798 0.594116
vt 1.074097 0.263428
vt 0.971069 0.062988
vt 0.958252 0.263428
vt 1.074097 0.062988
vt 1.190063 0.263428
vt 1.177246 0.062988
vt 0.482910 0.628662
vt 0.613159 0.445190
vt 0.613159 0.636108
vt 0.482910 0.452637
vt 0.375977 0.540649
vt 0.385742 0.460571
vt 1.008301 0.012085
vt 1.074097 -0.017334
vt 1.140015 0.012085
vt 0.894653 0.594116
vt 0.913940 0.594116
vt 0.908935 0.594116
vt 0.942749 0.594116
vt 1.027222 0.594116
vt 0.216797 0.592163
vt 0.275269 0.592163
vt 1.521484 0.346680
vt 1.553955 0.275147
vt 1.608521 0.276001
vt 1.172974 0.048340
vt 0.756592 0.629150
vt 0.860229 0.509766
vt 0.849121 0.605957
vt 0.725830 0.499878
vt 1.161499 0.944092
vt 1.244873 0.976440
vt 1.244873 0.944092
vt 1.161499 0.976440
vt 1.329224 0.976440
vt 1.329224 0.944092
vt 1.230835 0.710327
vt 1.253784 0.620850
vt 1.271362 0.682129
vt 1.217407 0.696533
vt 1.230957 0.403198
vt 1.559814 0.886597
vt 1.629639 0.672363
vt 1.629761 0.884644
vt 1.559814 0.670532
vt 0.950562 0.594116
vt 1.039185 0.594116
vt 1.193726 0.914429
vt 1.318604 0.737671
vt 1.308838 0.914429
vt 1.188965 0.737671
vt 0.928833 0.267456
vt 0.961548 0.191528
vt 0.882324 0.496460
vt 0.944702 0.496460
vt 0.913452 0.566284
vt 0.851685 0.294922
vt 1.202148 0.341186
vt 1.008545 0.275147
vt 1.202759 0.339478
vt 1.008423 0.277222
vt 0.120605 0.745117
vt 1.353394 0.661865
vt 1.394897 0.621216
vt 0.649414 0.493897
vt 0.636475 0.640991
vt 0.636597 0.639893
vt 0.725952 0.498535
vt 0.649536 0.492676
vt 0.756714 0.627930
vt 0.860352 0.508545
vt 0.849243 0.604736
vt 1.156982 0.944702
vt 1.047119 0.976440
vt 1.442749 0.976440
vt 1.333740 0.944702
vt 0.975342 0.294922
vt 0.385742 0.620606
s 0
usemtl mt_yacht
f 3/1/1 2/2/1 1/3/1
f 4/4/2 2/2/2 3/1/2
f 5/5/3 4/4/3 3/1/3
f 6/6/4 4/4/4 5/5/4
f 7/7/5 6/6/5 5/5/5
f 8/8/6 6/6/6 7/7/6
f 9/9/7 8/8/7 7/7/7
f 10/10/8 8/8/8 9/9/8
f 11/11/9 10/10/9 9/9/9
f 12/12/10 10/10/10 11/11/10
f 13/13/11 12/12/11 11/11/11
f 14/14/12 12/12/12 13/13/12
f 15/15/13 14/14/13 13/13/13
f 16/16/14 14/14/14 15/15/14
f 19/17/15 18/18/15 17/19/15
f 20/20/15 18/18/15 19/17/15
f 21/21/16 20/20/16 19/17/16
f 22/22/16 20/20/16 21/21/16
f 23/23/17 22/22/17 21/21/17
f 24/24/17 22/22/17 23/23/17
f 25/25/18 24/24/18 23/23/18
f 26/26/18 24/24/18 25/25/18
f 27/27/19 26/26/19 25/25/19
f 28/28/19 26/26/19 27/27/19
f 31/25/20 30/28/20 29/27/20
f 32/26/20 30/28/20 31/25/20
f 33/23/21 32/26/21 31/25/21
f 34/24/21 32/26/21 33/23/21
f 35/21/22 34/24/22 33/23/22
f 36/22/22 34/24/22 35/21/22
f 37/17/23 36/22/23 35/21/23
f 38/20/23 36/22/23 37/17/23
f 39/19/24 38/20/24 37/17/24
f 40/18/24 38/20/24 39/19/24
f 43/29/25 42/30/25 41/31/25
f 44/32/26 42/30/26 43/29/26
f 45/14/27 44/32/27 43/29/27
f 46/33/28 44/32/28 45/14/28
f 47/12/29 46/33/29 45/14/29
f 48/34/30 46/33/30 47/12/30
f 49/10/31 48/34/31 47/12/31
f 50/35/32 48/34/32 49/10/32
f 51/8/33 50/35/33 49/10/33
f 52/4/34 50/35/34 51/8/34
f 55/36/35 54/37/35 53/38/35
f 56/36/36 54/37/36 55/36/36
f 57/38/37 56/36/37 55/36/37
f 58/39/38 56/36/38 57/38/38
f 53/38/39 58/39/39 57/38/39
f 59/39/39 58/39/39 53/38/39
f 54/37/40 59/39/40 53/38/40
f 60/37/41 59/39/41 54/37/41
f 56/36/36 60/37/36 54/37/36
f 58/39/42 60/37/42 56/36/42
f 63/40/43 62/41/43 61/42/43
f 64/40/36 62/41/36 63/40/36
f 65/42/44 64/40/44 63/40/44
f 66/43/45 64/40/45 65/42/45
f 61/42/46 66/43/46 65/42/46
f 67/43/46 66/43/46 61/42/46
f 62/41/47 67/43/47 61/42/47
f 68/41/48 67/43/48 62/41/48
f 64/40/36 68/41/36 62/41/36
f 66/43/49 68/41/49 64/40/49
f 4/4/50 69/44/50 2/2/50
f 70/45/51 69/44/51 4/4/51
f 71/35/52 70/45/52 4/4/52
f 72/34/53 70/45/53 71/35/53
f 10/10/54 72/34/54 71/35/54
f 73/33/55 72/34/55 10/10/55
f 12/12/56 73/33/56 10/10/56
f 14/14/57 73/33/57 12/12/57
f 76/46/58 75/47/58 74/48/58
f 77/49/59 75/47/59 76/46/59
f 78/50/60 77/49/60 76/46/60
f 79/51/61 77/49/61 78/50/61
f 80/52/62 79/51/62 78/50/62
f 81/53/63 79/51/63 80/52/63
f 82/54/64 81/53/64 80/52/64
f 83/55/65 81/53/65 82/54/65
f 86/56/66 85/57/66 84/56/66
f 87/57/66 85/57/66 86/56/66
f 88/58/67 87/57/67 86/56/67
f 89/59/67 87/57/67 88/58/67
f 90/58/68 89/59/68 88/58/68
f 91/59/69 89/59/69 90/58/69
f 84/56/70 91/59/70 90/58/70
f 85/57/70 91/59/70 84/56/70
f 92/45/71 50/35/71 52/4/71
f 48/34/72 50/35/72 92/45/72
f 93/60/73 48/34/73 92/45/73
f 46/33/74 48/34/74 93/60/74
f 94/61/75 46/33/75 93/60/75
f 44/32/76 46/33/76 94/61/76
f 42/30/77 44/32/77 94/61/77
f 97/62/78 96/63/78 95/64/78
f 98/65/79 96/63/79 97/62/79
f 99/66/80 98/65/80 97/62/80
f 100/67/81 98/65/81 99/66/81
f 101/68/82 100/67/82 99/66/82
f 102/69/83 100/67/83 101/68/83
f 105/70/84 104/71/84 103/72/84
f 106/73/85 104/71/85 105/70/85
f 107/74/86 106/73/86 105/70/86
f 108/75/87 106/73/87 107/74/87
f 109/76/88 108/75/88 107/74/88
f 110/77/89 108/75/89 109/76/89
f 111/78/90 108/75/90 110/77/90
f 112/79/91 108/75/91 111/78/91
f 113/80/92 112/79/92 111/78/92
f 114/81/93 112/79/93 113/80/93
f 115/82/94 114/81/94 113/80/94
f 116/83/95 114/81/95 115/82/95
f 119/84/66 118/85/66 117/84/66
f 120/86/66 118/85/66 119/84/66
f 121/87/70 120/86/70 119/84/70
f 122/88/70 120/86/70 121/87/70
f 123/87/69 122/88/69 121/87/69
f 124/89/69 122/88/69 123/87/69
f 52/4/96 5/5/96 3/1/96
f 125/6/97 5/5/97 52/4/97
f 51/8/98 125/6/98 52/4/98
f 7/7/99 125/6/99 51/8/99
f 9/9/100 7/7/100 51/8/100
f 128/30/101 127/29/101 126/31/101
f 129/32/102 127/29/102 128/30/102
f 130/61/103 129/32/103 128/30/103
f 73/33/104 129/32/104 130/61/104
f 72/34/105 73/33/105 130/61/105
f 77/49/106 131/90/106 75/47/106
f 132/91/107 131/90/107 77/49/107
f 79/51/108 132/91/108 77/49/108
f 133/92/109 132/91/109 79/51/109
f 81/53/110 133/92/110 79/51/110
f 126/93/111 95/94/111 128/95/111
f 134/96/111 95/94/111 126/93/111
f 135/93/111 134/96/111 126/93/111
f 41/93/111 134/96/111 135/93/111
f 135/97/112 43/98/112 41/99/112
f 136/100/112 43/98/112 135/97/112
f 126/101/112 136/100/112 135/97/112
f 127/102/112 136/100/112 126/101/112
f 137/2/113 3/1/113 1/3/113
f 52/4/114 3/1/114 137/2/114
f 138/44/115 52/4/115 137/2/115
f 92/45/116 52/4/116 138/44/116
f 140/103/117 101/104/117 139/105/117
f 102/106/117 101/104/117 140/103/117
f 141/107/118 102/106/118 140/103/118
f 142/108/119 102/106/119 141/107/119
f 136/100/120 143/109/120 43/98/120
f 16/110/121 143/109/121 136/100/121
f 127/102/122 16/110/122 136/100/122
f 144/111/123 16/110/123 127/102/123
f 69/112/111 142/113/111 141/114/111
f 145/115/111 142/113/111 69/112/111
f 70/115/111 145/115/111 69/112/111
f 146/116/111 145/115/111 70/115/111
f 106/73/124 147/117/124 104/71/124
f 148/118/125 147/117/125 106/73/125
f 108/75/126 148/118/126 106/73/126
f 112/79/127 148/118/127 108/75/127
f 151/119/128 150/120/128 149/121/128
f 152/67/129 150/120/129 151/119/129
f 140/69/130 152/67/130 151/119/130
f 139/68/131 152/67/131 140/69/131
f 143/122/132 45/14/132 43/29/132
f 15/15/133 45/14/133 143/122/133
f 16/16/134 15/15/134 143/122/134
f 14/14/135 129/32/135 73/33/135
f 127/29/136 129/32/136 14/14/136
f 144/122/137 127/29/137 14/14/137
f 8/8/138 4/4/138 6/6/138
f 71/35/139 4/4/139 8/8/139
f 10/10/140 71/35/140 8/8/140
f 155/66/141 154/62/141 153/62/141
f 156/66/141 154/62/141 155/66/141
f 139/68/142 156/66/142 155/66/142
f 157/119/143 102/69/143 142/121/143
f 100/67/144 102/69/144 157/119/144
f 98/65/145 100/67/145 157/119/145
f 15/15/146 47/12/146 45/14/146
f 13/13/147 47/12/147 15/15/147
f 13/13/148 49/10/148 47/12/148
f 11/11/149 49/10/149 13/13/149
f 94/123/111 158/124/111 42/125/111
f 159/126/111 158/124/111 94/123/111
f 11/11/150 51/8/150 49/10/150
f 9/9/151 51/8/151 11/11/151
f 162/127/152 161/128/152 160/129/152
f 163/130/152 161/128/152 162/127/152
f 160/129/153 165/131/153 164/132/153
f 161/128/153 165/131/153 160/129/153
f 156/133/154 166/134/154 154/135/154
f 167/136/155 166/134/155 156/133/155
f 170/135/156 169/136/156 168/133/156
f 171/134/157 169/136/157 170/135/157
f 168/66/158 167/137/158 156/66/158
f 169/137/158 167/137/158 168/66/158
f 159/63/159 153/62/159 158/64/159
f 172/65/160 153/62/160 159/63/160
f 166/138/161 174/139/161 173/140/161
f 171/141/161 174/139/161 166/138/161
f 93/116/111 150/142/111 172/143/111
f 92/115/111 150/142/111 93/116/111
f 92/115/111 149/113/111 150/142/111
f 138/112/111 149/113/111 92/115/111
f 138/112/111 141/114/111 149/113/111
f 69/112/111 141/114/111 138/112/111
f 99/66/142 168/66/142 101/68/142
f 97/62/141 168/66/141 99/66/141
f 169/144/162 166/145/162 167/146/162
f 171/147/162 166/145/162 169/144/162
f 175/148/163 174/149/163 134/148/163
f 173/149/163 174/149/163 175/148/163
f 158/94/111 41/93/111 42/95/111
f 175/96/111 41/93/111 158/94/111
f 2/150/111 137/151/111 1/152/111
f 69/153/111 137/151/111 2/150/111
f 156/66/142 101/68/142 168/66/142
f 139/68/142 101/68/142 156/66/142
f 114/81/164 148/118/164 112/79/164
f 116/83/165 148/118/165 114/81/165
f 154/154/166 158/155/166 153/156/166
f 175/157/166 158/155/166 154/154/166
f 176/158/167 81/53/167 83/55/167
f 133/92/168 81/53/168 176/158/168
f 97/62/166 134/64/166 170/62/166
f 95/64/166 134/64/166 97/62/166
f 175/159/169 166/134/169 173/160/169
f 154/135/170 166/134/170 175/159/170
f 145/120/171 157/119/171 142/121/171
f 98/65/172 157/119/172 145/120/172
f 174/160/173 170/135/173 134/159/173
f 171/134/174 170/135/174 174/160/174
f 155/66/175 152/67/175 139/68/175
f 153/62/176 152/67/176 155/66/176
f 152/67/177 172/65/177 150/120/177
f 153/62/178 172/65/178 152/67/178
f 172/161/111 94/123/111 93/162/111
f 159/126/111 94/123/111 172/161/111
f 89/59/111 85/57/111 87/57/111
f 91/59/111 85/57/111 89/59/111
f 146/60/179 72/34/179 130/61/179
f 70/45/180 72/34/180 146/60/180
f 122/88/181 118/85/181 120/86/181
f 124/89/181 118/85/181 122/88/181
f 123/87/111 119/84/111 117/84/111
f 121/87/111 119/84/111 123/87/111
f 146/163/111 96/164/111 98/165/111
f 130/166/111 96/164/111 146/163/111
f 130/166/111 95/167/111 96/164/111
f 128/168/111 95/167/111 130/166/111
f 162/169/182 177/170/182 163/130/182
f 178/171/183 164/172/183 165/131/183
f 5/5/184 125/6/184 7/7/184
f 16/16/185 144/122/185 14/14/185
f 97/62/141 170/62/141 168/66/141
f 98/143/111 145/115/111 146/116/111
f 147/117/186 148/118/186 116/83/186
f 69/153/111 138/173/111 137/151/111
f 41/93/111 175/96/111 134/96/111
f 140/103/187 149/174/187 141/107/187
f 151/119/188 149/121/188 140/69/188
f 53/38/37 57/38/37 55/36/37
f 60/37/41 58/39/41 59/39/41
f 61/42/44 65/42/44 63/40/44
f 68/41/48 66/43/48 67/43/48
