# Blender 4.1.1
# www.blender.org
mtllib polygon686.mtl
o polygon686
v -2155.035156 -2689.352783 -485.707672
v -2147.750000 -2700.278809 -485.674713
v -2125.606201 -2672.305908 -484.952087
v -2057.433105 -2777.476807 -484.952057
v -2082.540039 -2791.024658 -485.598938
vn 0.0198 0.0102 -0.9998
vn 0.0188 0.0111 -0.9998
vn 0.0184 0.0113 -0.9998
vn 0.0187 0.0125 -0.9997
vn 0.0189 0.0127 -0.9997
vt 0.500000 0.000000
vt 0.402069 1.000000
vt 0.368103 1.000000
vt 1.000000 0.000000
vt 0.753204 1.000000
s 1
usemtl mt_tuti_blend.003
f 3/1/3 2/2/2 1/3/1
f 4/4/4 2/2/2 3/1/3
f 5/5/5 2/2/2 4/4/4
