# Blender 4.1.1
# www.blender.org
mtllib polygon752.mtl
o polygon752
v 2088.693115 -5907.466309 -1218.999268
v 2034.769043 -5786.188965 -1218.999146
v 2026.386963 -5791.949219 -1218.999146
v 1984.981079 -5755.953125 -1218.999146
v 1978.198120 -5761.877441 -1218.999146
v 1957.728027 -5709.223145 -1218.999146
v 1946.294922 -5711.936035 -1218.999146
v 1997.431030 -5557.618164 -1218.999390
v 2368.433105 -5222.032715 -1219.499390
v 2382.435059 -5263.256348 -1218.999390
v 2389.325195 -5255.416504 -1218.999390
v 2514.372070 -5443.126465 -1218.999390
v 2523.842041 -5439.069824 -1218.999390
v 2566.732178 -5701.647461 -1218.999146
v 2556.626221 -5701.809570 -1218.999146
v 2540.237793 -5827.259277 -1218.999146
v 2549.532227 -5833.313965 -1218.999146
v 2407.721191 -5878.965820 -1218.999268
v 2402.104004 -5870.677734 -1218.999268
v 2305.901123 -5969.667480 -1218.999268
v 2308.454102 -5979.818359 -1218.999268
v 2169.486084 -5972.413574 -1218.999268
v 2172.713135 -5962.571289 -1218.999268
v 2080.750000 -5914.216309 -1218.999268
v 2007.511963 -5558.987305 -1218.999390
v 2001.692139 -5442.735840 -1218.999390
v 1991.457153 -5438.273926 -1218.999390
v 2198.315186 -5251.649902 -1218.999390
v 2204.728027 -5260.027344 -1218.999390
v 2218.285156 -5222.032715 -1219.499390
vn -0.0000 -0.0000 -1.0000
vn 0.0100 -0.0087 -0.9999
vn -0.0117 -0.0090 -0.9999
vt -0.132996 0.500000
vt -0.128357 1.000000
vt 0.044128 1.000000
vt -0.271179 1.000000
vt -0.272705 0.500000
vt -0.455139 1.000000
vt -0.448242 0.500000
vt -0.639710 0.500000
vt 1.148865 0.500000
vt 1.147156 1.000000
vt 1.232178 1.000000
vt 0.951172 1.000000
vt 0.941528 0.500000
vt 0.807190 0.500000
vt 0.806824 1.000000
vt 0.604187 1.000000
vt 0.609985 0.500000
vt 0.450501 0.500000
vt 0.455261 1.000000
vt 0.242127 1.000000
vt 0.248596 0.500000
vt 0.134766 0.500000
vt 0.142883 1.000000
vt 0.024048 0.500000
vt -0.636231 1.000000
vt -0.772217 1.000000
vt -0.783508 0.500000
vt -0.940979 0.500000
vt -0.937500 1.000000
vt -0.939270 1.000000
s 0
usemtl mt_tuti_blend.007
f 3/1/1 2/2/1 1/3/1
f 4/4/1 2/2/1 3/1/1
f 5/5/1 4/4/1 3/1/1
f 6/6/1 4/4/1 5/5/1
f 7/7/1 6/6/1 5/5/1
f 8/8/1 6/6/1 7/7/1
f 11/9/2 10/10/2 9/11/2
f 12/12/1 10/10/1 11/9/1
f 13/13/1 12/12/1 11/9/1
f 14/14/1 12/12/1 13/13/1
f 14/14/1 15/15/1 12/12/1
f 16/16/1 15/15/1 14/14/1
f 17/17/1 16/16/1 14/14/1
f 18/18/1 16/16/1 17/17/1
f 18/18/1 19/19/1 16/16/1
f 20/20/1 19/19/1 18/18/1
f 21/21/1 20/20/1 18/18/1
f 22/22/1 20/20/1 21/21/1
f 22/22/1 23/23/1 20/20/1
f 1/3/1 23/23/1 22/22/1
f 24/24/1 1/3/1 22/22/1
f 3/1/1 1/3/1 24/24/1
f 8/8/1 25/25/1 6/6/1
f 26/26/1 25/25/1 8/8/1
f 27/27/1 26/26/1 8/8/1
f 28/28/1 26/26/1 27/27/1
f 28/28/1 29/29/1 26/26/1
s 1
f 30/30/3 29/29/3 28/28/3
