# Blender 4.1.1
# www.blender.org
mtllib polygon562.mtl
o polygon562
v -2265.371094 3334.921143 -69.000397
v -2265.371094 3220.221191 -69.000381
v -2258.953125 3328.555176 -69.000397
v -2258.953125 3220.000000 -69.000381
v -2218.788086 3283.538086 -69.000389
v -2218.788086 3220.000000 -69.000381
v -2100.000000 3220.000000 -69.000381
v -2100.000000 3156.462158 -69.000366
v -1981.213135 3220.000000 -69.000381
v -1981.213135 3156.462158 -69.000366
v -1941.097046 3220.000000 -69.000381
v -1941.097046 3111.959229 -69.000374
v -1934.701050 3220.221191 -69.000381
v -1934.701050 3105.522217 -69.000366
v -2100.036133 3334.921143 -69.000397
v -2100.000000 3328.555176 -69.000397
v -1941.098022 3328.555176 -69.000397
v -1981.213135 3283.538086 -69.000389
v -2100.036133 3105.522217 -69.000366
v -2100.000000 3111.959229 -69.000374
v -2258.953125 3111.959229 -69.000374
v -2218.788086 3156.462158 -69.000366
v -2100.000000 3283.538086 -69.000389
v -1934.701050 3334.921143 -69.000397
v -2265.371094 3105.522217 -69.000366
vn -0.0000 -0.0000 -1.0000
vt -0.958130 0.065063
vt -0.998718 0.997131
vt -0.998718 0.003174
vt -0.958130 0.999268
vt -0.718994 0.449524
vt -0.718994 0.999268
vt 0.000488 0.999268
vt 0.000488 1.552979
vt 0.721191 0.999268
vt 0.721191 1.552979
vt 0.958984 0.999268
vt 0.958984 1.933167
vt 0.999451 0.997131
vt 0.999451 1.995728
vt 0.000244 0.003174
vt 0.000488 0.065063
vt 0.958984 0.065063
vt 0.721191 0.449524
vt 0.000244 1.995728
vt 0.000488 1.933167
vt -0.958130 1.933167
vt -0.718994 1.552979
vt 0.000488 0.449524
vt 0.999451 0.003174
vt -0.998718 1.995728
s 0
usemtl bsk_yuka_a_d
f 3/1/1 2/2/1 1/3/1
f 4/4/1 2/2/1 3/1/1
f 5/5/1 4/4/1 3/1/1
f 6/6/1 4/4/1 5/5/1
f 7/7/1 6/6/1 5/5/1
f 8/8/1 6/6/1 7/7/1
f 9/9/1 8/8/1 7/7/1
f 10/10/1 8/8/1 9/9/1
f 11/11/1 10/10/1 9/9/1
f 12/12/1 10/10/1 11/11/1
f 13/13/1 12/12/1 11/11/1
f 14/14/1 12/12/1 13/13/1
f 15/15/1 3/1/1 1/3/1
f 16/16/1 3/1/1 15/15/1
f 17/17/1 16/16/1 15/15/1
f 18/18/1 16/16/1 17/17/1
f 11/11/1 18/18/1 17/17/1
f 9/9/1 18/18/1 11/11/1
f 19/19/1 12/12/1 14/14/1
f 20/20/1 12/12/1 19/19/1
f 21/21/1 20/20/1 19/19/1
f 22/22/1 20/20/1 21/21/1
f 4/4/1 22/22/1 21/21/1
f 6/6/1 22/22/1 4/4/1
f 16/16/1 5/5/1 3/1/1
f 23/23/1 5/5/1 16/16/1
f 18/18/1 23/23/1 16/16/1
f 7/7/1 23/23/1 18/18/1
f 9/9/1 7/7/1 18/18/1
f 20/20/1 10/10/1 12/12/1
f 8/8/1 10/10/1 20/20/1
f 22/22/1 8/8/1 20/20/1
f 6/6/1 8/8/1 22/22/1
f 24/24/1 17/17/1 15/15/1
f 13/13/1 17/17/1 24/24/1
f 25/25/1 21/21/1 19/19/1
f 2/2/1 21/21/1 25/25/1
f 17/17/1 13/13/1 11/11/1
f 21/21/1 2/2/1 4/4/1
f 7/7/1 5/5/1 23/23/1
