# Blender 4.1.1
# www.blender.org
mtllib Plano.001.mtl
o Plano.001
v 0.097963 2.123096 -0.231210
v 0.160866 2.069598 -0.225573
v 0.110411 2.290536 -0.137041
v 0.209816 2.190266 -0.132023
v 0.238599 2.122775 -0.138252
v 0.193771 1.987183 -0.235358
v 0.218353 1.865090 -0.236167
v 0.282436 1.992450 -0.144407
v 0.297226 1.865640 -0.156963
v 0.167483 2.055042 -0.230601
v 0.244638 2.109782 -0.142213
v 0.200606 1.989717 -0.244531
v 0.225817 1.864500 -0.245360
v 0.291540 1.995119 -0.151253
v 0.306708 1.865065 -0.164130
v 0.173646 2.059311 -0.239652
v 0.252775 2.115451 -0.149003
v 0.220535 2.197008 -0.142705
v 0.117635 2.300803 -0.147899
v 0.104749 2.127476 -0.245379
v 0.169864 2.072097 -0.239543
v 0.250330 2.127144 -0.149152
v -0.097963 2.123096 -0.231210
v -0.160866 2.069598 -0.225573
v 0.000000 2.167541 -0.243997
v 0.000000 2.338082 -0.138839
v -0.110411 2.290536 -0.137041
v -0.209816 2.190266 -0.132023
v -0.238599 2.122775 -0.138252
v -0.193771 1.987183 -0.235358
v -0.218353 1.865090 -0.236167
v -0.282436 1.992450 -0.144407
v -0.297226 1.865640 -0.156963
v -0.167483 2.055042 -0.230601
v -0.244638 2.109782 -0.142213
v -0.200606 1.989717 -0.244531
v -0.225817 1.864500 -0.245360
v -0.291540 1.995119 -0.151253
v -0.306708 1.865065 -0.164130
v -0.173646 2.059311 -0.239652
v -0.252775 2.115451 -0.149003
v -0.220535 2.197008 -0.142705
v -0.117635 2.300803 -0.147899
v 0.000000 2.350020 -0.149760
v 0.000000 2.173484 -0.258616
v -0.104749 2.127476 -0.245379
v -0.169864 2.072097 -0.239543
v -0.250330 2.127144 -0.149152
vn -0.2333 -0.5104 0.8277
vn -0.4543 -0.4108 0.7905
vn -0.4386 -0.4327 0.7876
vn -0.6724 -0.3077 0.6733
vn -0.7041 -0.1464 0.6949
vn 0.6723 0.3077 -0.6733
vn 0.7000 0.1508 -0.6981
vn -0.7439 -0.2446 -0.6219
vn -0.0316 -0.9988 0.0384
vn -0.7721 -0.1514 -0.6172
vn 0.5613 0.1656 0.8109
vn 0.6026 -0.0087 0.7980
vn -0.5746 0.8184 -0.0053
vn 0.2270 0.5112 -0.8290
vn 0.4543 0.4108 -0.7905
vn 0.6003 0.3235 -0.7314
vn 0.4478 0.4816 0.7533
vn 0.6267 0.1977 0.7537
vn -0.3292 -0.8461 -0.4192
vn -0.5451 -0.6910 -0.4747
vn 0.2613 0.6515 0.7122
vn 0.4527 -0.8816 0.1339
vn 0.2333 -0.5104 0.8277
vn 0.4543 -0.4108 0.7905
vn 0.6003 -0.3235 0.7314
vn 0.6724 -0.3077 0.6733
vn 0.7000 -0.1508 0.6981
vn -0.6723 0.3077 -0.6733
vn -0.7041 0.1464 -0.6949
vn 0.7439 -0.2446 -0.6219
vn 0.0316 -0.9988 0.0384
vn 0.7721 -0.1514 -0.6172
vn -0.5612 0.1656 0.8109
vn -0.6026 -0.0087 0.7980
vn 0.5746 0.8184 -0.0053
vn -0.2270 0.5112 -0.8290
vn -0.4543 0.4108 -0.7905
vn -0.4386 0.4327 -0.7876
vn -0.4478 0.4816 0.7533
vn -0.6267 0.1977 0.7537
vn 0.3292 -0.8461 -0.4192
vn 0.5451 -0.6910 -0.4747
vn -0.2521 0.6138 0.7481
vn -0.4527 -0.8816 0.1339
vn -0.3125 -0.4479 0.8377
vn -0.6003 -0.3235 0.7314
vn -0.6602 -0.2261 0.7163
vn -0.7000 -0.1508 0.6981
vn 0.6602 0.2261 -0.7163
vn 0.7041 0.1464 -0.6949
vn 0.5612 0.1656 0.8109
vn 0.3037 0.4498 -0.8399
vn 0.4386 0.4327 -0.7876
vn -0.3381 -0.8718 -0.3544
vn 0.2521 0.6138 0.7481
vn 0.3125 -0.4479 0.8377
vn 0.4386 -0.4327 0.7876
vn 0.6602 -0.2261 0.7163
vn 0.7041 -0.1464 0.6949
vn -0.6602 0.2261 -0.7163
vn -0.7000 0.1508 -0.6981
vn -0.5613 0.1656 0.8109
vn -0.3037 0.4498 -0.8399
vn -0.6003 0.3235 -0.7314
vn 0.3381 -0.8718 -0.3544
vn -0.2613 0.6515 0.7122
s 0
usemtl Material.002
f 25//1 3//1 26//1
f 3//2 1//2 4//2
f 2//3 4//3 1//3
f 8//4 10//4 6//4
f 7//5 8//5 6//5
f 16//6 14//6 12//6
f 13//7 14//7 15//7
f 10//8 12//8 6//8
f 9//9 13//9 15//9
f 7//10 12//10 13//10
f 11//11 14//11 17//11
f 9//12 14//12 8//12
f 11//13 16//13 10//13
f 19//14 45//14 44//14
f 19//15 18//15 20//15
f 21//16 18//16 22//16
f 3//17 18//17 19//17
f 5//18 18//18 4//18
f 25//19 20//19 1//19
f 2//20 20//20 21//20
f 26//21 19//21 44//21
f 2//22 22//22 5//22
f 27//23 25//23 26//23
f 27//24 28//24 23//24
f 24//25 28//25 29//25
f 34//26 32//26 30//26
f 31//27 32//27 33//27
f 38//28 40//28 36//28
f 37//29 38//29 36//29
f 36//30 34//30 30//30
f 33//31 37//31 31//31
f 31//32 36//32 30//32
f 35//33 38//33 32//33
f 38//34 33//34 32//34
f 40//35 35//35 34//35
f 45//36 43//36 44//36
f 43//37 46//37 42//37
f 47//38 42//38 46//38
f 27//39 42//39 28//39
f 42//40 29//40 28//40
f 46//41 25//41 23//41
f 24//42 46//42 23//42
f 26//43 43//43 27//43
f 48//44 24//44 29//44
f 25//45 1//45 3//45
f 2//46 5//46 4//46
f 8//47 11//47 10//47
f 7//48 9//48 8//48
f 16//49 17//49 14//49
f 13//50 12//50 14//50
f 10//8 16//8 12//8
f 9//9 7//9 13//9
f 7//10 6//10 12//10
f 11//51 8//51 14//51
f 9//12 15//12 14//12
f 11//13 17//13 16//13
f 19//52 20//52 45//52
f 21//53 20//53 18//53
f 3//17 4//17 18//17
f 5//18 22//18 18//18
f 25//54 45//54 20//54
f 2//20 1//20 20//20
f 26//55 3//55 19//55
f 2//22 21//22 22//22
f 27//56 23//56 25//56
f 24//57 23//57 28//57
f 34//58 35//58 32//58
f 31//59 30//59 32//59
f 38//60 41//60 40//60
f 37//61 39//61 38//61
f 36//30 40//30 34//30
f 33//31 39//31 37//31
f 31//32 37//32 36//32
f 35//62 41//62 38//62
f 38//34 39//34 33//34
f 40//35 41//35 35//35
f 45//63 46//63 43//63
f 47//64 48//64 42//64
f 27//39 43//39 42//39
f 42//40 48//40 29//40
f 46//65 45//65 25//65
f 24//42 47//42 46//42
f 26//66 44//66 43//66
f 48//44 47//44 24//44
