# Blender 4.1.1
# www.blender.org
mtllib polygon0.583.mtl
o Cruiser.012
v -1.248203 40.173061 -16.000006
v 3.007535 37.809292 -18.574463
v 3.248013 40.173061 -16.000006
v 9.030362 35.644253 -18.574463
v 9.992398 37.855923 -16.000004
v 13.634120 17.967747 -18.500000
v 15.147610 24.521706 -16.000004
v 14.959008 -9.080103 -18.499998
v 15.724330 -20.083521 -15.999996
v 14.962430 -32.340115 -18.499996
v 13.801908 -52.469261 -15.999993
v 13.804170 -51.984154 -18.499994
v 8.783720 -56.419701 -15.999993
v 8.785185 -55.934353 -18.499992
v -6.783908 -56.419701 -15.999993
v -6.785373 -55.934353 -18.499992
v -11.802099 -52.469261 -15.999993
v -11.804349 -51.984154 -18.499994
v -12.962620 -32.340115 -18.499996
v 15.958459 46.769745 -16.000006
v 19.749899 24.521706 -16.000004
v 15.871309 -53.564724 -15.999993
v 9.700590 -57.980492 -15.999993
v -7.700777 -57.980492 -15.999993
v -13.871489 -53.564724 -15.999993
v -13.724520 -20.083521 -15.999996
v -17.750099 24.521706 -16.000004
v -11.820650 -53.564720 -6.362945
v -15.164370 25.137915 -8.500002
v -12.199650 -13.905299 -3.681473
v -13.871510 25.446020 -4.750003
v -12.578650 25.754128 -1.000003
v -10.344580 44.247044 -6.488444
v 0.999905 43.496067 -2.419683
v 0.999905 56.325172 -7.067317
v 12.344389 44.247044 -6.488444
v 0.999905 60.954319 -11.976887
v 8.549038 59.671844 -16.000008
v 0.999905 64.134247 -16.000008
v 12.894070 -32.340115 -18.499996
v 11.616789 -47.414333 -18.499994
v 8.299528 -50.266624 -18.499992
v -6.299716 -50.266624 -18.499992
v -9.616976 -47.414333 -18.499994
v -10.894258 -32.340115 -18.499996
v 12.866600 -31.183130 -15.729006
v 11.567780 -47.326927 -15.728312
v 8.272062 -50.185570 -15.729004
v -6.272250 -50.185570 -15.729004
v -9.567965 -47.326927 -15.728312
v -10.866789 -31.183130 -15.729006
v -11.972139 -31.463650 -20.999996
v -11.890718 -32.424583 -18.499996
v -10.578890 -47.906029 -20.999992
v -10.578890 -47.906033 -18.499994
v -6.670505 -53.266617 -20.999994
v -6.670505 -53.266621 -18.499994
v 8.670317 -53.266617 -20.999994
v 8.670317 -53.266621 -18.499994
v 12.578700 -47.906029 -20.999992
v 12.578700 -47.906033 -18.499994
v 13.890530 -32.424583 -18.499996
v 3.839078 -2.606472 -32.376339
v 3.839078 -3.573755 -30.000002
v 6.172696 -4.146266 -32.376339
v 6.172696 -4.815700 -29.999998
v 9.369289 -19.662132 -32.376331
v 10.095610 -22.739044 -29.999996
v 9.369289 -25.483673 -32.423687
v 8.805510 -38.469025 -32.761436
v 8.805510 -38.406033 -33.510117
v -6.575656 -38.406033 -33.510117
v 14.578459 25.754128 -1.000003
v 15.871319 25.446020 -4.750003
v 14.199460 -13.905299 -3.681473
v 17.164179 25.137915 -8.500002
v 13.820458 -53.564720 -6.362945
v -12.959200 -9.080104 -18.499998
v -13.147799 20.929907 -16.000002
v -11.634310 17.967747 -18.500000
v -7.992587 37.855923 -16.000004
v -7.030551 35.644253 -18.574463
v -1.007724 37.809292 -18.574463
v -11.820650 -57.474628 -6.362944
v -6.500888 -56.937279 -6.362945
v -6.500888 -60.847187 -6.362944
v 8.500700 -56.937279 -6.362945
v 8.500700 -60.847187 -6.362944
v 13.820458 -57.474628 -6.362944
v 10.886620 4.330053 -26.739050
v 8.067900 -2.339870 -32.376339
v 13.532990 -2.995386 -25.922600
v 12.247099 -19.662132 -32.376331
v 13.634120 -28.869411 -26.770796
v 12.247099 -25.483664 -32.423687
v 10.872650 -42.025177 -31.663952
v 10.341760 -42.980251 -33.894676
v 9.030362 19.519018 -18.500002
v 4.524381 22.812477 -18.500002
v 2.865079 13.524637 -27.718771
v -2.524570 22.812477 -18.500002
v -0.865634 13.524637 -27.718782
v -7.030551 19.519018 -18.500002
v -4.596408 10.231177 -27.392200
v -8.887239 4.330051 -26.739050
v -6.068454 -2.339870 -32.376339
v -11.533600 -2.995387 -25.922600
v -10.247650 -19.662132 -32.376331
v -11.634310 -28.869411 -26.770796
v -10.247650 -25.483673 -32.423687
v -8.873079 -42.025177 -31.663952
v -8.342318 -42.980251 -33.894676
v -3.194405 -19.385244 -29.364058
v -3.194405 -19.385242 -36.024891
v -3.194405 -15.190793 -31.830564
v -3.194405 -17.130783 -36.024891
v 5.194215 -15.190793 -31.830564
v 5.194215 -17.130783 -36.024891
v 5.194215 -19.385242 -36.024891
v 13.927879 3.687476 -18.499998
v -1.839694 -3.573756 -30.000002
v -4.173251 -4.815700 -29.999998
v -1.839694 -5.652370 -29.999998
v -8.096164 -22.739044 -29.999996
v 3.839078 -5.652370 -29.999998
v -1.839694 4.893040 -30.823820
v 3.839078 4.893040 -30.823820
v 6.595791 10.231177 -27.392200
v -1.839694 -2.606472 -32.376350
v -1.839694 -4.334010 -33.784527
v -1.839694 3.005589 -32.321640
v -4.173251 -4.146267 -32.376339
v -7.369906 -19.662132 -32.376331
v -6.586947 -26.438995 -40.472454
v -7.426669 -27.374535 -41.587551
v -7.426547 -30.332794 -41.529335
v -13.958650 46.769745 -16.000006
v 7.445279 58.582001 -18.500008
v 7.445279 58.582001 -16.000008
v 0.999905 62.391815 -18.500008
v 0.999905 62.391815 -16.000008
v -5.445468 58.582001 -18.500008
v -5.445468 58.582001 -16.000008
v -7.369906 -25.483673 -32.423687
v -6.586947 -29.717554 -40.208775
v 13.971950 -31.463650 -20.999996
v -11.928070 3.687475 -18.499998
v 11.769559 -55.743675 -0.999993
v 3.839078 -4.334009 -33.784527
v -6.549228 59.671844 -16.000008
v 5.194215 -19.385244 -29.364058
v 5.194215 -10.996344 -29.364059
v 5.194215 -10.996344 -31.830568
v 6.907926 -59.116230 -0.999993
v -4.908114 -59.116230 -0.999993
v -9.769747 -55.743675 -0.999993
v 11.426539 -28.869411 -26.770796
v -9.426730 -28.869411 -26.770796
v -9.426730 -26.956081 -26.226246
v 9.424222 -30.334257 -41.529335
v -3.194406 -10.996344 -29.364059
v -3.194406 -10.996344 -31.830568
v 3.839078 3.005589 -32.321640
v -6.575656 -38.469025 -32.761436
v 8.584745 -29.717554 -40.208775
v 8.584745 -26.438995 -40.472466
v 11.426539 -26.956081 -26.226246
v 9.424100 -27.374535 -41.587551
v 14.657680 46.022675 -16.000006
v -12.657869 46.022675 -16.000006
vn 0.1209 0.7235 -0.6797
vn 0.1306 0.7242 -0.6771
vn -0.1209 0.7235 -0.6797
vn 0.6314 0.4582 -0.6257
vn 0.4971 0.5313 -0.6860
vn 0.7753 0.0703 -0.6277
vn 0.5718 0.1774 -0.8010
vn 0.9775 0.0204 -0.2097
vn 0.9625 -0.0028 -0.2713
vn 0.9218 -0.0373 -0.3859
vn 0.8617 -0.4983 -0.0960
vn 0.6848 -0.3186 -0.6554
vn 0.3103 -0.9333 -0.1810
vn 0.2409 -0.6656 -0.7063
vn -0.3103 -0.9332 -0.1810
vn -0.2410 -0.6656 -0.7063
vn -0.8616 -0.4983 -0.0961
vn -0.6848 -0.3187 -0.6554
vn -0.9218 -0.0373 -0.3859
vn -0.0000 -0.0000 -1.0000
vn -0.9527 -0.2824 0.1119
vn -0.9425 0.0711 0.3266
vn -0.8683 -0.4553 0.1968
vn -0.9440 0.0864 0.3184
vn -0.9410 -0.0318 0.3368
vn -0.5959 0.0996 0.7969
vn -0.6571 0.3432 0.6711
vn -0.0000 0.2782 0.9605
vn -0.0000 0.6225 0.7826
vn 0.6571 0.3432 0.6711
vn -0.0000 0.7166 0.6975
vn 0.5344 0.5716 0.6226
vn -0.0000 0.7845 0.6201
vn -0.9366 -0.0481 -0.3471
vn -0.5191 0.2673 -0.8118
vn -0.2076 0.5578 -0.8036
vn 0.2070 0.5587 -0.8031
vn 0.5202 0.2681 -0.8109
vn 0.9363 -0.0775 -0.3427
vn -0.6215 -0.4406 -0.6477
vn -0.6854 0.3437 -0.6419
vn -0.2665 0.7137 -0.6478
vn 0.2654 0.7138 -0.6481
vn 0.6846 0.3438 -0.6427
vn 0.6231 -0.4439 -0.6439
vn -0.9964 -0.0844 -0.0000
vn -0.4776 -0.8786 -0.0000
vn -0.8080 -0.5891 -0.0000
vn -0.3937 -0.9193 -0.0000
vn -0.0000 -1.0000 -0.0000
vn 0.8080 -0.5891 -0.0000
vn -0.4039 -0.3218 -0.8564
vn 0.4562 -0.5992 -0.6579
vn 0.8177 -0.1657 -0.5512
vn -0.6141 -0.4022 -0.6790
vn -0.8352 0.1537 -0.5280
vn -0.7907 0.0381 -0.6111
vn -0.9716 -0.2335 0.0379
vn -0.5672 0.6572 -0.4963
vn -0.4378 0.5205 -0.7331
vn 0.4418 0.5320 -0.7223
vn 0.5958 0.0996 0.7969
vn 0.9440 0.0864 0.3184
vn 0.9410 -0.0318 0.3368
vn 0.9527 -0.2824 0.1119
vn 0.9425 0.0711 0.3266
vn 0.8683 -0.4553 0.1968
vn -0.7479 0.1687 -0.6420
vn -0.9780 0.0209 -0.2074
vn -0.9626 -0.0027 -0.2709
vn -0.8065 0.0910 -0.5842
vn -0.5094 0.5395 -0.6704
vn -0.6314 0.4582 -0.6257
vn -0.1306 0.7242 -0.6771
vn -0.1858 -0.6512 -0.7358
vn -0.7780 -0.4512 -0.4372
vn -0.2745 -0.8230 -0.4973
vn 0.1858 -0.6513 -0.7358
vn 0.2745 -0.8230 -0.4973
vn 0.7780 -0.4512 -0.4372
vn 0.9112 0.1511 -0.3833
vn 0.3902 0.1830 -0.9024
vn 0.7780 0.3188 -0.5415
vn 0.7389 0.2158 -0.6384
vn 0.9895 -0.1354 0.0509
vn 0.8955 -0.1984 -0.3985
vn 0.8489 -0.3073 0.4301
vn 0.8531 -0.0492 -0.5194
vn 0.2174 0.5272 -0.8214
vn 0.2069 0.6704 -0.7126
vn 0.5889 0.5164 -0.6217
vn -0.2069 0.6704 -0.7126
vn -0.2174 0.5272 -0.8214
vn -0.5889 0.5164 -0.6217
vn -0.5281 0.4152 -0.7408
vn -0.7780 0.3188 -0.5414
vn -0.7388 0.2155 -0.6385
vn -0.9112 0.1511 -0.3833
vn -0.3902 0.1830 -0.9024
vn -0.9895 -0.1354 0.0510
vn -0.8952 -0.1980 -0.3993
vn -0.8489 -0.3073 0.4301
vn -0.8372 -0.0453 -0.5451
vn -0.8504 0.2833 -0.4432
vn -0.5774 -0.5773 -0.5773
vn -0.7071 -0.7071 -0.0000
vn -0.6036 0.4294 -0.6717
vn 0.8504 0.2833 -0.4432
vn 0.6036 0.4294 -0.6717
vn 0.5774 -0.5774 -0.5773
vn 0.9367 0.2309 -0.2632
vn -0.2217 -0.2661 -0.9381
vn 0.6154 -0.3884 -0.6859
vn -0.4713 -0.5783 -0.6659
vn 0.7907 0.0419 -0.6108
vn 0.2217 -0.2661 -0.9381
vn -0.2254 0.4186 -0.8797
vn 0.2254 0.4186 -0.8797
vn 0.5281 0.4152 -0.7408
vn -0.8240 -0.1751 -0.5388
vn -0.7363 -0.6390 -0.2226
vn -0.8617 0.3154 -0.3975
vn 0.4232 -0.3232 -0.8464
vn 0.8396 0.1603 -0.5190
vn -0.5071 0.3178 -0.8011
vn 0.4874 0.8295 -0.2729
vn -0.4883 -0.7338 -0.4724
vn -0.0000 1.0000 -0.0000
vn 0.7115 0.7026 -0.0000
vn 0.7008 0.7134 -0.0000
vn 0.0674 0.9977 -0.0000
vn -0.5088 0.8609 -0.0000
vn 0.9741 -0.2248 0.0259
vn 0.1649 -0.7192 0.6750
vn -0.0016 -0.0046 -1.0000
vn -0.9489 0.3155 -0.0000
vn -0.9964 0.0844 -0.0000
vn -0.9369 0.3497 -0.0000
vn -0.8080 0.5891 -0.0000
vn 0.0016 -0.0046 -1.0000
vn 0.5623 -0.2872 0.7754
vn 0.7363 -0.6390 -0.2226
vn -0.5344 0.5716 0.6226
vn -0.8550 0.3185 0.4093
vn 0.7071 -0.7071 -0.0000
vn 0.7071 0.7071 -0.0000
vn 0.5774 0.5774 -0.5773
vn -0.0034 -0.0046 -1.0000
vn -0.0019 -0.0052 -1.0000
vn -0.0000 -0.0050 -1.0000
vn -0.1661 -0.6076 0.7767
vn 0.1661 -0.6076 0.7767
vn -0.5623 -0.2872 0.7755
vn -0.3172 -0.3046 0.8981
vn 0.3219 -0.3111 0.8942
vn 0.5327 -0.7528 0.3867
vn 0.4872 -0.7344 -0.4725
vn 0.5088 -0.8609 -0.0000
vn -0.5774 0.5773 -0.5774
vn -0.7071 0.7071 -0.0000
vn -0.0000 0.0838 -0.9965
vn 0.3174 -0.9378 0.1410
vn -0.3174 -0.9378 0.1410
vn 0.8617 0.3154 -0.3975
vn 0.5614 0.6618 -0.4968
vn 0.0034 -0.0046 -1.0000
vn 0.0019 -0.0052 -1.0000
vn -0.1655 -0.7189 0.6752
vn -0.4874 0.8295 -0.2728
vn 0.8080 0.5891 -0.0000
vn -0.5225 -0.7574 0.3917
vn -0.0000 -0.9221 -0.3869
vn 0.5052 0.3181 -0.8022
vn 0.8550 0.3185 0.4093
vn -0.0000 -0.9193 0.3936
vn -0.0000 0.1955 -0.9807
vn -0.9367 0.2309 -0.2631
vn 0.8672 0.4980 -0.0000
vn -0.8672 0.4980 -0.0000
vt 0.106079 -0.673706
vt 0.124512 -0.612793
vt 0.141480 -0.612793
vt 0.124146 -0.673706
vt 0.279541 -0.612793
vt 0.228394 -0.673706
vt 0.490845 -0.612793
vt 0.576782 -0.673706
vt 0.672607 -0.612793
vt 0.829834 -0.673706
vt 0.826050 -0.612793
vt 0.860718 -0.673706
vt 0.856934 -0.612793
vt 0.054565 -0.673340
vt 0.124146 -0.673340
vt 0.106079 -0.673340
vt 0.228394 -0.673340
vt 0.576782 -0.673340
vt 0.838379 -0.673340
vt 0.829834 -0.673340
vt 0.872925 -0.673340
vt 0.860718 -0.673340
vt 0.838379 -0.881348
vt 0.838379 -0.673706
vt 0.223511 -0.836792
vt 0.528565 -0.940674
vt 0.221069 -0.918457
vt 0.218750 -1.000000
vt 0.074219 -0.878540
vt 0.080078 -0.968628
vt -0.020142 -0.865723
vt -0.056274 -0.757080
vt -0.046265 -0.673706
vt -0.081177 -0.673706
vt 0.826050 -0.601440
vt 0.672607 -0.601440
vt 0.790405 -0.601440
vt 0.856934 -0.601440
vt 0.812622 -0.601440
vt 0.790405 -0.616089
vt 0.663574 -0.712402
vt 0.672607 -0.616089
vt 0.789673 -0.712402
vt 0.812622 -0.616089
vt 0.812012 -0.712402
vt 0.647583 0.984375
vt 0.526245 0.945312
vt 0.518677 0.984375
vt 0.647583 0.945312
vt 0.699463 0.945312
vt 0.699463 0.984375
vt 0.819214 0.984375
vt 0.871094 0.984375
vt 0.819214 0.945312
vt 0.452271 -0.305786
vt 0.447876 -0.358398
vt 0.440308 -0.305786
vt 0.457520 -0.358398
vt 0.573486 -0.305786
vt 0.573608 -0.358398
vt 0.602539 -0.304810
vt 0.755737 -0.260620
vt 0.720825 -0.280396
vt 0.256348 -0.673706
vt 0.171753 -0.477661
vt 0.213257 -0.490601
vt 0.213257 -0.397217
vt 0.171753 -0.571045
vt 0.054565 -0.477661
vt 0.054565 -0.570923
vt 0.012939 -0.397217
vt 0.012939 -0.490479
vt 0.443359 -0.448608
vt 0.438232 -0.305786
vt 0.386108 -0.448608
vt 0.645508 -0.429810
vt 0.748291 -0.309936
vt 0.284912 -0.448608
vt 0.212280 -0.612793
vt 0.254395 -0.612793
vt 0.327026 -0.448608
vt 0.142578 0.680054
vt 0.137329 0.715820
vt 0.134644 0.680054
vt 0.142578 0.709717
vt 0.180786 0.680054
vt 0.180786 0.709717
vt 0.186035 0.715820
vt 0.391113 -0.612793
vt 0.084595 0.919922
vt 0.081421 0.945068
vt 0.076660 0.919922
vt 0.138306 0.987427
vt 0.084595 0.858521
vt 0.138306 0.791016
vt 0.314209 -0.448730
vt 0.381714 -0.337891
vt 0.339966 -0.448730
vt 0.464111 -0.358398
vt 0.453735 -0.274658
vt 0.381714 -0.340210
vt 0.396484 -0.307007
vt 0.070679 0.777832
vt -0.002075 0.728271
vt 0.059692 0.742310
vt -0.002075 0.984741
vt 0.070679 0.935059
vt 0.059814 0.970581
vt 0.633789 -0.102051
vt 0.626465 -0.126709
vt 0.651856 -0.103271
vt 0.256348 -0.673340
vt 0.802856 -0.015625
vt 0.744263 -0.054688
vt 0.744263 -0.015625
vt 0.802856 -0.054688
vt 0.861328 -0.015625
vt 0.646973 -0.132568
vt 0.339966 -0.448608
vt 0.279541 -0.612549
vt 0.267456 -0.612549
vt 0.141480 -0.612549
vt 0.350220 -0.612549
vt 0.490845 -0.612549
vt 0.992432 0.945312
vt 1.000000 0.984375
vt 0.871094 0.945312
vt 0.855469 -1.000000
vt 0.868896 -0.881348
vt 0.054565 -0.673706
vt 0.188721 0.680054
vt 0.188721 0.652954
vt 0.180786 0.652954
vt 0.244629 0.906860
vt 0.261963 0.768310
vt 0.261963 0.942505
vt 0.238892 0.744873
vt 0.223511 0.744873
vt 0.910889 -0.992432
vt 0.946655 -0.990479
vt 0.946655 -0.991821
vt 0.910889 -0.989868
vt 0.318848 -0.995361
vt 0.387329 0.787720
vt 0.389404 0.939331
vt 0.378784 0.787720
vt 0.467163 0.787720
vt 0.467163 0.766235
vt 0.895264 -0.881348
vt 0.881714 -1.000000
vt 0.861328 -0.054688
vt 0.142578 0.772949
vt 0.180786 0.724243
vt 0.180786 0.772949
vt 0.142578 0.724243
vt 0.180786 0.631348
vt 0.142578 0.652954
vt 0.142578 0.631348
vt 0.755737 -0.261475
vt 0.720825 -0.269775
vt 0.805786 -0.302490
vt 0.923706 -0.302490
vt 0.864746 -0.214844
vt 0.747925 -0.555786
vt 0.866333 -0.881348
vt 0.992920 -0.673706
vt 0.983521 -0.881348
vt 0.856934 -0.673706
vt 0.081421 0.833374
vt 0.076660 0.858521
vt 0.381714 -0.338135
vt 0.396484 -0.307251
vt 0.205933 0.729858
vt 0.229370 0.684692
vt 0.229370 0.729858
vt 0.205933 0.684692
vt 0.200439 0.768310
vt 0.217651 0.906860
vt 0.200439 0.942505
vt 0.515259 -0.306397
vt 0.594360 -0.137817
vt 0.568726 -0.131470
vt 0.560791 -0.306397
vt 0.864746 -0.881348
vt 0.872925 -0.673706
vt 0.661865 -0.601318
vt 0.671021 -0.601318
vt 0.630493 -0.441895
vt 0.626465 -0.127686
vt 0.633789 -0.103149
vt 0.651856 -0.104370
vt 0.646973 -0.133545
vt 0.186035 0.971069
vt 0.186035 0.804932
vt 0.279175 0.945068
vt 0.362305 0.822754
vt 0.356690 0.944946
vt 0.273682 0.822754
vt 0.748291 -0.311890
vt 0.134644 0.652954
vt 0.568726 -0.132446
vt 0.594360 -0.138916
vt 0.464966 0.939331
vt 0.475586 0.787720
vt 0.740967 -0.054077
vt 0.629517 -0.015625
vt 0.976074 -0.015625
vt 0.864624 -0.054077
vt 0.218750 -0.998779
vt 0.080078 -0.969238
vt 0.318848 -0.998657
vt 0.387329 0.766235
vt 0.981567 -0.555786
s 1
usemtl mt_town_new_test12
f 3/1/1 2/2/2 1/1/3
f 4/3/4 2/2/2 3/1/1
f 5/4/5 4/3/4 3/1/1
f 6/5/6 4/3/4 5/4/5
f 7/6/7 6/5/6 5/4/5
f 8/7/8 6/5/6 7/6/7
f 9/8/9 8/7/8 7/6/7
f 10/9/10 8/7/8 9/8/9
f 11/10/11 10/9/10 9/8/9
f 12/11/12 10/9/10 11/10/11
f 13/12/13 12/11/12 11/10/11
f 14/13/14 12/11/12 13/12/13
f 15/12/15 14/13/14 13/12/13
f 16/13/16 14/13/14 15/12/15
f 17/10/17 16/13/16 15/12/15
f 18/11/18 16/13/16 17/10/17
f 19/9/19 18/11/18 17/10/17
s 0
f 20/14/20 5/15/20 3/16/20
f 7/17/20 5/15/20 20/14/20
f 21/17/20 7/17/20 20/14/20
f 9/18/20 7/17/20 21/17/20
f 22/19/20 9/18/20 21/17/20
f 11/20/20 9/18/20 22/19/20
f 23/21/20 11/20/20 22/19/20
f 13/22/20 11/20/20 23/21/20
f 24/21/20 13/22/20 23/21/20
f 15/22/20 13/22/20 24/21/20
f 25/19/20 15/22/20 24/21/20
f 17/20/20 15/22/20 25/19/20
f 26/18/20 17/20/20 25/19/20
s 1
f 28/23/21 27/6/22 25/24/23
f 29/25/24 27/6/22 28/23/21
f 30/26/25 29/25/24 28/23/21
f 31/27/24 29/25/24 30/26/25
f 32/28/26 31/27/24 30/26/25
f 33/29/27 31/27/24 32/28/26
f 34/30/28 33/29/27 32/28/26
f 35/31/29 33/29/27 34/30/28
f 36/29/30 35/31/29 34/30/28
f 37/32/31 35/31/29 36/29/30
f 38/33/32 37/32/31 36/29/30
f 39/34/33 37/32/31 38/33/32
f 12/35/12 40/36/34 10/36/10
f 41/37/35 40/36/34 12/35/12
f 14/38/14 41/37/35 12/35/12
f 42/39/36 41/37/35 14/38/14
f 16/38/16 42/39/36 14/38/14
f 43/39/37 42/39/36 16/38/16
f 18/35/18 43/39/37 16/38/16
f 44/37/38 43/39/37 18/35/18
f 19/36/19 44/37/38 18/35/18
f 45/36/39 44/37/38 19/36/19
f 41/40/35 46/41/40 40/42/34
f 47/43/41 46/41/40 41/40/35
f 42/44/36 47/43/41 41/40/35
f 48/45/42 47/43/41 42/44/36
f 43/44/37 48/45/42 42/44/36
f 49/45/43 48/45/42 43/44/37
f 44/40/38 49/45/43 43/44/37
f 50/43/44 49/45/43 44/40/38
f 45/42/39 50/43/44 44/40/38
f 51/41/45 50/43/44 45/42/39
f 54/46/46 53/47/46 52/48/46
f 55/49/46 53/47/46 54/46/46
f 57/50/47 55/49/48 56/51/49
f 58/52/50 57/50/47 56/51/49
f 60/53/51 59/54/51 58/52/51
f 65/55/52 64/56/53 63/57/54
f 66/58/55 64/56/53 65/55/52
f 67/59/56 66/58/55 65/55/52
f 68/60/57 66/58/55 67/59/56
f 69/61/58 68/60/57 67/59/56
f 70/62/59 68/60/57 69/61/58
f 71/63/60 70/62/59 69/61/58
f 72/63/61 70/62/59 71/63/60
f 73/28/62 36/29/30 34/30/28
f 74/27/63 36/29/30 73/28/62
f 75/26/64 74/27/63 73/28/62
f 76/25/63 74/27/63 75/26/64
f 77/23/65 76/25/63 75/26/64
f 21/6/66 76/25/63 77/23/65
f 22/24/67 21/6/66 77/23/65
f 79/64/68 78/7/69 26/8/70
f 80/5/71 78/7/69 79/64/68
f 81/4/72 80/5/71 79/64/68
f 82/3/73 80/5/71 81/4/72
f 1/1/3 82/3/73 81/4/72
f 83/2/74 82/3/73 1/1/3
f 2/2/2 83/2/74 1/1/3
f 85/65/75 84/66/76 28/67/21
f 86/68/77 84/66/76 85/65/75
f 87/69/78 86/68/77 85/65/75
f 88/70/79 86/68/77 87/69/78
f 77/71/65 88/70/79 87/69/78
f 89/72/80 88/70/79 77/71/65
f 92/73/81 91/74/82 90/75/83
f 93/59/84 91/74/82 92/73/81
f 94/76/85 93/59/84 92/73/81
f 95/61/86 93/59/84 94/76/85
f 96/77/87 95/61/86 94/76/85
f 97/62/88 95/61/86 96/77/87
f 100/78/89 99/79/90 98/80/91
f 101/79/92 99/79/90 100/78/89
f 102/78/93 101/79/92 100/78/89
f 103/80/94 101/79/92 102/78/93
f 104/81/95 103/80/94 102/78/93
f 105/75/96 103/80/94 104/81/95
f 108/59/97 107/73/98 106/74/99
f 109/76/100 107/73/98 108/59/97
f 110/61/101 109/76/100 108/59/97
f 111/77/102 109/76/100 110/61/101
f 112/62/103 111/77/102 110/61/101
f 115/82/104 114/83/105 113/84/106
f 116/85/107 114/83/105 115/82/104
f 117/86/108 116/85/107 115/82/104
f 118/87/109 116/85/107 117/86/108
f 119/88/110 118/87/109 117/86/108
f 120/89/111 90/75/83 98/80/91
f 92/73/81 90/75/83 120/89/111
f 8/7/8 92/73/81 120/89/111
f 94/76/85 92/73/81 8/7/8
f 10/9/10 94/76/85 8/7/8
f 123/90/112 122/91/113 121/92/114
f 124/93/115 122/91/113 123/90/112
f 125/94/116 124/93/115 123/90/112
f 68/95/57 124/93/115 125/94/116
f 102/96/93 126/97/117 104/98/95
f 127/97/118 126/97/117 102/96/93
f 100/96/89 127/97/118 102/96/93
f 128/98/119 127/97/118 100/96/89
f 129/57/120 123/99/112 121/56/114
f 130/100/121 123/99/112 129/57/120
f 126/101/117 130/100/121 129/57/120
f 131/102/122 130/100/121 126/101/117
f 122/58/113 129/57/120 121/56/114
f 132/55/123 129/57/120 122/58/113
f 124/60/115 132/55/123 122/58/113
f 133/59/124 132/55/123 124/60/115
f 48/103/42 46/104/40 47/105/41
f 51/106/45 46/104/40 48/103/42
f 49/107/43 51/106/45 48/103/42
f 50/108/44 51/106/45 49/107/43
f 135/109/125 133/59/124 134/110/126
f 108/59/97 133/59/124 135/109/125
f 136/111/127 108/59/97 135/109/125
f 110/61/101 108/59/97 136/111/127
s 0
f 81/15/20 137/14/20 1/16/20
f 27/17/20 137/14/20 81/15/20
f 79/112/20 27/17/20 81/15/20
f 26/18/20 27/17/20 79/112/20
s 1
f 140/113/128 139/114/129 138/115/130
f 141/116/131 139/114/129 140/113/128
f 142/117/132 141/116/131 140/113/128
f 110/61/101 72/63/61 112/62/103
f 144/61/133 72/63/61 110/61/101
f 136/111/127 144/61/133 110/61/101
f 145/118/134 144/61/133 136/111/127
f 106/74/99 104/119/95 126/101/117
f 105/75/96 104/119/95 106/74/99
f 107/73/98 105/75/96 106/74/99
f 91/74/82 63/57/54 127/101/118
f 65/55/52 63/57/54 91/74/82
f 67/59/56 65/55/52 91/74/82
s 0
f 6/120/135 98/121/135 4/122/135
f 120/123/20 98/121/20 6/120/20
f 8/124/20 120/123/20 6/120/20
s 1
f 60/53/136 62/125/137 146/126/137
f 61/127/138 62/125/137 60/53/136
f 59/54/139 61/127/138 60/53/136
s 0
f 80/120/20 147/123/20 78/124/20
f 103/121/20 147/123/20 80/120/20
f 82/122/140 103/121/140 80/120/140
s 1
f 148/128/141 75/26/64 73/28/62
f 77/23/65 75/26/64 148/128/141
f 89/129/80 77/23/65 148/128/141
f 149/100/142 64/56/53 125/99/116
f 63/57/54 64/56/53 149/100/142
f 127/101/118 63/57/54 149/100/142
f 150/33/143 37/32/31 39/34/33
f 33/29/27 37/32/31 150/33/143
f 137/130/144 33/29/27 150/33/143
f 33/29/27 29/25/24 31/27/24
f 27/6/22 29/25/24 33/29/27
f 137/130/144 27/6/22 33/29/27
f 117/86/108 151/131/145 119/88/110
f 152/132/146 151/131/145 117/86/108
f 153/133/147 152/132/146 117/86/108
s 0
f 99/134/148 4/135/148 98/136/148
f 2/137/149 4/135/149 99/134/149
f 83/138/150 2/137/150 99/134/150
s 1
f 19/9/19 78/7/69 109/76/100
f 26/8/70 78/7/69 19/9/19
f 17/10/17 26/8/70 19/9/19
f 148/139/141 155/140/151 154/141/152
f 156/142/153 155/140/151 148/139/141
f 32/143/26 156/142/153 148/139/141
f 157/144/154 96/145/87 94/146/85
f 158/147/155 96/145/87 157/144/154
f 159/148/156 158/147/155 157/144/154
f 69/61/58 97/62/88 71/63/60
f 95/61/86 97/62/88 69/61/58
f 160/111/157 95/61/86 69/61/58
f 88/149/79 154/150/152 155/150/151
f 148/128/141 154/150/152 88/149/79
f 89/129/80 148/128/141 88/149/79
f 142/117/158 141/116/158 143/151/158
f 113/152/106 119/153/110 151/154/145
f 114/155/105 119/153/110 113/152/106
f 114/155/105 118/87/109 119/153/110
f 116/85/107 118/87/109 114/155/105
f 152/156/146 162/157/159 161/158/160
f 153/133/147 162/157/159 152/156/146
s 0
f 112/159/161 71/160/161 97/159/161
f 72/160/161 71/160/161 112/159/161
f 38/161/20 150/162/20 39/163/20
f 20/164/20 150/162/20 38/161/20
s 1
f 85/165/75 23/166/162 87/167/78
f 24/168/163 23/166/162 85/165/75
f 66/169/55 125/94/116 64/170/53
f 68/95/57 125/94/116 66/169/55
f 127/171/118 131/172/122 126/171/117
f 163/172/164 131/172/122 127/171/118
f 129/57/120 106/74/99 126/101/117
f 132/55/123 106/74/99 129/57/120
f 72/63/61 164/62/165 70/62/59
f 144/61/133 164/62/165 72/63/61
f 144/61/133 124/60/115 164/62/165
f 133/59/124 124/60/115 144/61/133
f 149/173/142 123/174/112 130/175/121
f 125/176/116 123/174/112 149/173/142
s 0
f 82/177/166 101/178/166 103/179/166
f 83/138/167 101/178/167 82/177/167
s 1
f 133/180/124 145/181/134 134/182/126
f 144/183/133 145/181/134 133/180/124
f 67/180/56 165/181/168 69/183/58
f 166/182/169 165/181/168 67/180/56
f 55/49/170 56/51/170 54/46/170
f 85/184/75 25/24/23 24/185/163
f 28/23/21 25/24/23 85/184/75
f 158/76/155 51/186/45 45/187/39
f 159/188/156 51/186/45 158/76/155
f 40/187/34 167/188/171 157/76/154
f 46/186/40 167/188/171 40/187/34
f 30/26/25 156/128/153 32/28/26
f 28/23/21 156/128/153 30/26/25
s 0
f 109/76/172 45/9/172 19/9/172
f 158/76/172 45/9/172 109/76/172
f 10/9/172 157/76/172 94/76/172
f 40/9/172 157/76/172 10/9/172
s 1
f 133/59/124 106/74/99 132/55/123
f 108/59/97 106/74/99 133/59/124
f 67/59/56 168/109/173 166/110/169
f 93/59/84 168/109/173 67/59/56
f 76/25/63 36/29/30 74/27/63
f 21/6/66 36/29/30 76/25/63
f 166/189/169 135/190/125 134/189/126
f 168/190/173 135/190/125 166/189/169
f 136/191/127 165/192/168 145/192/134
f 160/191/157 165/192/168 136/191/127
f 20/130/174 36/29/30 21/6/66
f 38/33/32 36/29/30 20/130/174
f 95/61/86 168/109/173 93/59/84
f 160/111/157 168/109/173 95/61/86
f 68/95/57 164/193/165 124/93/115
f 70/194/59 164/193/165 68/95/57
f 167/195/171 51/196/45 159/197/156
f 46/198/40 51/196/45 167/195/171
f 168/190/173 136/191/127 135/190/125
f 160/191/157 136/191/127 168/190/173
s 0
f 96/199/175 112/159/175 97/159/175
f 111/199/175 112/159/175 96/199/175
f 163/102/176 130/100/176 131/102/176
f 149/100/176 130/100/176 163/102/176
s 1
f 84/129/76 156/128/153 28/23/21
f 86/149/77 156/128/153 84/129/76
f 86/149/77 155/150/151 156/128/153
f 88/149/79 155/150/151 86/149/77
f 161/200/160 115/82/104 113/84/106
f 162/157/159 115/82/104 161/200/160
f 153/133/147 115/82/104 162/157/159
f 117/86/108 115/82/104 153/133/147
f 166/201/169 145/202/134 165/202/168
f 134/201/126 145/202/134 166/201/169
f 128/81/119 98/80/91 90/75/83
f 100/78/89 98/80/91 128/81/119
f 22/24/67 87/184/78 23/185/162
f 77/23/65 87/184/78 22/24/67
f 105/75/96 147/89/177 103/80/94
f 107/73/98 147/89/177 105/75/96
f 107/73/98 78/7/69 147/89/177
f 109/76/100 78/7/69 107/73/98
f 111/203/102 158/147/155 109/204/100
f 96/145/87 158/147/155 111/203/102
f 128/119/119 91/74/82 127/101/118
f 90/75/83 91/74/82 128/119/119
s 0
f 137/14/20 3/16/20 1/16/20
f 20/14/20 3/16/20 137/14/20
s 1
f 59/54/128 58/52/128 57/50/128
f 139/205/129 169/206/178 138/115/130
f 170/207/179 143/208/179 142/117/179
f 37/32/31 33/29/27 35/31/29
f 32/209/26 73/209/62 34/210/28
f 163/102/164 127/101/118 149/100/142
f 91/74/82 93/59/84 67/59/56
f 148/139/141 73/211/62 32/143/26
f 157/144/154 167/212/171 159/148/156
s 0
f 99/134/150 101/178/150 83/138/150
f 20/164/20 137/213/20 150/162/20
s 1
f 69/61/58 165/118/168 160/111/157
s 0
f 25/19/20 27/17/20 26/18/20
