# Blender 4.1.1
# www.blender.org
mtllib polygon0.194.mtl
o polygon0.009
v 17.320509 5.000001 -5.000001
v 20.000000 14.999998 -5.000003
v 0.000000 14.999998 -5.000002
v 17.320509 24.999998 -5.000003
v 9.999998 32.320507 -5.000005
v 0.000000 34.999996 -5.000005
v -10.000000 32.320507 -5.000005
v -17.320509 24.999998 -5.000003
v -20.000000 14.999998 -5.000003
v -17.320509 5.000000 -5.000001
v -9.999998 -2.320508 -5.000000
v 0.000001 -4.999999 -5.000000
v 10.000000 -2.320506 -5.000000
vn -0.0000 -0.0000 -1.0000
vt -1.500000 -0.500000
vt -2.010742 -0.500000
vt -1.942261 -0.755371
vt -1.942261 -0.244629
vt -1.755371 -0.057739
vt -1.500000 0.010742
vt -1.244629 -0.057739
vt -1.057739 -0.244629
vt -0.989258 -0.500000
vt -1.057739 -0.755371
vt -1.244629 -0.942261
vt -1.500000 -1.010742
vt -1.755371 -0.942261
s 0
usemtl mt_circle
f 3/1/1 2/2/1 1/3/1
f 4/4/1 2/2/1 3/1/1
f 5/5/1 4/4/1 3/1/1
f 3/1/1 6/6/1 5/5/1
f 7/7/1 6/6/1 3/1/1
f 8/8/1 7/7/1 3/1/1
f 3/1/1 9/9/1 8/8/1
f 10/10/1 9/9/1 3/1/1
f 11/11/1 10/10/1 3/1/1
f 3/1/1 12/12/1 11/11/1
f 13/13/1 12/12/1 3/1/1
f 1/3/1 13/13/1 3/1/1
