# Blender 4.1.1
# www.blender.org
mtllib polygon360.mtl
o polygon360
v 913.455078 1570.062866 -874.287415
v 911.711853 1571.805908 -877.436584
v 340.434204 2143.083008 -213.361832
v 335.959381 2147.559082 -213.361954
v 915.411987 1573.762939 -875.862061
v 341.024750 2148.149170 -213.362045
v 913.544373 1569.972778 -874.394531
v 911.622314 1571.894775 -877.329346
v 433.083893 2050.434082 -245.195343
v 428.921387 2054.596191 -245.195343
v 433.831085 2055.343018 -245.195343
v 913.600830 1569.916992 -874.472778
v 911.565857 1571.951782 -877.251404
v 498.696777 1984.821167 -266.862030
v 494.764679 1988.753174 -266.862183
v 499.559052 1989.615234 -266.862183
v 913.693237 1569.823853 -874.622375
v 911.473633 1572.043823 -877.101440
v 593.003784 1890.514038 -300.362091
v 589.399780 1894.117920 -300.362061
v 594.030273 1895.144043 -300.361969
v 913.765503 1569.751831 -874.763733
v 911.401550 1572.115845 -876.960205
v 657.416870 1826.101074 -322.861969
v 654.032898 1829.485107 -322.862061
v 658.553101 1830.620972 -322.861969
v 913.859802 1569.657959 -875.001038
v 911.307007 1572.210815 -876.723022
v 736.519897 1746.998047 -349.195343
v 733.386597 1750.130981 -349.195435
v 737.781616 1751.393066 -349.195343
v 913.932556 1569.584961 -875.260620
v 911.234680 1572.282959 -876.463501
v 800.361694 1683.156006 -365.862061
v 797.396301 1686.120972 -365.862061
v 801.707397 1687.466919 -365.861969
v 1115.351074 1368.167114 -349.195404
v 937.430115 1546.086792 -876.723022
v 1112.217041 1371.299927 -349.195251
v 934.877625 1548.639771 -875.001038
v 938.982300 1550.191772 -875.862061
v 1116.613037 1372.562012 -349.195343
v 1194.705078 1288.813110 -322.861938
v 937.335815 1546.182007 -876.960144
v 1191.321045 1292.197021 -322.861938
v 934.971863 1548.545898 -874.763550
v 1195.841064 1293.333008 -322.861938
v 1259.338013 1224.179932 -300.362030
v 937.263672 1546.253784 -877.101440
v 1255.734009 1227.784058 -300.361938
v 935.044189 1548.473877 -874.622253
v 1260.364014 1228.811035 -300.361938
v 1353.972900 1129.545044 -266.862030
v 937.171448 1546.345825 -877.251404
v 1350.040894 1133.477051 -266.861908
v 935.136597 1548.380859 -874.472717
v 1354.835083 1134.339111 -266.862030
v 1419.816040 1063.702026 -245.195206
v 937.114807 1546.402954 -877.329346
v 1415.653076 1067.864014 -245.195206
v 935.193176 1548.324829 -874.394348
v 1420.563110 1068.611084 -245.195099
v 1512.778076 970.739319 -213.361816
v 937.025513 1546.491821 -877.436707
v 1508.303101 975.214355 -213.361694
v 935.282471 1548.234985 -874.287231
v 1513.369019 975.805054 -213.361816
v 1582.126953 901.390991 -192.455093
v 1577.427124 906.090759 -192.443588
v 1582.605103 906.569275 -192.449280
v 817.902710 1430.855835 -874.287292
v 819.645813 1429.111816 -877.436584
v 1390.924072 857.834656 -213.361893
v 1395.399048 853.359192 -213.361893
v 1390.332886 852.768311 -213.361893
v 815.945679 1427.155884 -875.862000
v 817.813599 1430.944824 -874.394409
v 819.735291 1429.022949 -877.329285
v 1298.274048 950.484192 -245.195190
v 1302.437012 946.321594 -245.195206
v 1297.527100 945.574402 -245.195312
v 817.757141 1431.000854 -874.472656
v 819.791992 1428.965820 -877.251282
v 1232.661011 1016.096924 -266.861908
v 1236.593018 1012.164917 -266.861908
v 1231.799072 1011.302917 -266.861908
v 817.664673 1431.093872 -874.622498
v 819.883728 1428.873779 -877.101562
v 1138.354004 1110.404053 -300.361908
v 1141.957886 1106.800049 -300.361908
v 1137.328003 1105.774048 -300.362000
v 817.592163 1431.165771 -874.763672
v 819.956299 1428.802002 -876.960022
v 1073.941040 1174.818115 -322.861908
v 1077.325073 1171.433105 -322.861847
v 1072.805054 1170.296997 -322.861908
v 817.497864 1431.259766 -875.000854
v 820.050781 1428.707764 -876.722961
v 994.837708 1253.921021 -349.195129
v 997.971375 1250.787109 -349.195251
v 993.575989 1249.525024 -349.195312
v 817.425598 1431.332764 -875.260681
v 820.123047 1428.634766 -876.463379
v 930.996094 1317.761963 -365.862030
v 933.961487 1314.797119 -365.862000
v 929.650085 1313.451050 -365.862000
v 796.075195 1452.682861 -874.287292
v 223.054489 2025.703979 -213.362045
v 794.332275 1454.425903 -877.436584
v 218.579193 2030.179077 -213.362030
v 792.375305 1450.725830 -875.862000
v 217.988174 2025.112915 -213.362045
v 796.164429 1452.593872 -874.394409
v 315.704193 1933.054199 -245.195419
v 794.242615 1454.515869 -877.329407
v 311.541687 1937.217163 -245.195419
v 310.794373 1932.307251 -245.195419
v 796.221008 1452.536987 -874.472656
v 381.316864 1867.441162 -266.862000
v 794.186157 1454.571777 -877.251221
v 377.384979 1871.373169 -266.862000
v 376.522369 1866.579102 -266.861908
v 796.313416 1452.444824 -874.622498
v 475.624023 1773.134033 -300.362000
v 794.094116 1454.663818 -877.101562
v 472.019867 1776.737915 -300.362000
v 470.993256 1772.107910 -300.362091
v 796.385864 1452.371826 -874.763672
v 540.037292 1708.721069 -322.861969
v 794.021851 1454.735840 -876.960022
v 536.653198 1712.105103 -322.861969
v 535.516479 1707.585083 -322.861969
v 796.480286 1452.277954 -875.000854
v 619.140381 1629.617920 -349.195190
v 793.927307 1454.830811 -876.722961
v 616.006714 1632.751953 -349.195312
v 614.744995 1628.356079 -349.195374
v 796.552307 1452.205811 -875.260681
v 682.981873 1565.776001 -365.862061
v 793.855042 1454.902954 -876.463379
v 680.016479 1568.741943 -365.862030
v 678.670898 1564.429932 -365.861969
v 1460.047119 788.711060 -192.443466
v 1464.746948 784.011292 -192.454987
v 1459.568115 783.532593 -192.449188
v 1051.341064 1432.177124 -365.861969
v 937.502686 1546.014771 -876.463501
v 1048.376099 1435.141968 -365.862030
v 934.805115 1548.712769 -875.260437
v 1052.687012 1436.487915 -365.861969
v 149.231201 2099.527100 -192.455231
v 153.930878 2094.827148 -192.443726
v 148.752396 2094.348145 -192.449417
v 271.310608 2212.207031 -192.443649
v 266.610779 2216.906006 -192.455261
v 271.789001 2217.385010 -192.449356
vn -0.7071 -0.7071 -0.0000
vn -0.7072 -0.7070 -0.0002
vn 0.7159 -0.0836 0.6932
vn 0.7160 -0.0834 0.6931
vn -0.0837 0.7159 -0.6932
vn -0.0833 0.7160 -0.6931
vn -0.7071 -0.7071 0.0001
vn 0.7460 -0.1135 0.6562
vn 0.7459 -0.1135 0.6563
vn -0.1136 0.7459 -0.6563
vn -0.1134 0.7460 -0.6563
vn -0.7070 -0.7072 -0.0000
vn 0.7712 -0.1387 0.6213
vn -0.1387 0.7712 -0.6213
vn -0.7072 -0.7070 -0.0000
vn 0.8126 -0.1801 0.5543
vn 0.8125 -0.1802 0.5544
vn -0.1802 0.8125 -0.5544
vn -0.1801 0.8126 -0.5543
vn 0.8449 -0.2123 0.4910
vn 0.8448 -0.2124 0.4911
vn -0.2125 0.8448 -0.4911
vn -0.2123 0.8449 -0.4910
vn 0.8871 -0.2546 0.3851
vn 0.8871 -0.2547 0.3851
vn -0.2547 0.8871 -0.3851
vn -0.2548 0.8870 -0.3851
vn 0.9194 -0.2869 0.2690
vn 0.9194 -0.2870 0.2689
vn -0.2870 0.9194 -0.2690
vn -0.2871 0.9194 -0.2690
vn -0.7070 -0.7073 -0.0001
vn -0.2545 0.8871 0.3851
vn -0.2547 0.8870 0.3851
vn 0.8871 -0.2547 -0.3850
vn 0.8870 -0.2547 -0.3851
vn -0.2122 0.8449 0.4910
vn -0.2123 0.8449 0.4911
vn 0.8448 -0.2124 -0.4911
vn 0.8449 -0.2123 -0.4910
vn -0.1801 0.8126 0.5543
vn -0.1802 0.8125 0.5544
vn 0.8125 -0.1802 -0.5544
vn 0.8126 -0.1800 -0.5543
vn -0.1388 0.7712 0.6213
vn -0.1386 0.7712 0.6213
vn 0.7712 -0.1387 -0.6213
vn -0.7070 -0.7072 -0.0002
vn -0.1134 0.7460 0.6562
vn -0.1135 0.7459 0.6563
vn 0.7459 -0.1135 -0.6563
vn -0.0836 0.7159 0.6932
vn -0.0835 0.7160 0.6931
vn 0.7159 -0.0836 -0.6932
vn 0.7160 -0.0835 -0.6931
vn -0.0636 0.6959 0.7153
vn 0.6959 -0.0636 -0.7153
vn 0.6960 -0.0635 -0.7152
vn 0.7072 0.7070 -0.0001
vn 0.7071 0.7071 -0.0001
vn -0.7160 0.0835 0.6931
vn -0.7159 0.0836 0.6932
vn 0.0835 -0.7160 -0.6931
vn 0.7071 0.7071 -0.0000
vn 0.7071 0.7071 0.0001
vn -0.7460 0.1135 0.6563
vn -0.7459 0.1135 0.6563
vn 0.1136 -0.7459 -0.6563
vn 0.1134 -0.7460 -0.6563
vn -0.7712 0.1387 0.6213
vn -0.7712 0.1388 0.6213
vn 0.1386 -0.7712 -0.6213
vn 0.1386 -0.7713 -0.6213
vn -0.8126 0.1801 0.5543
vn -0.8125 0.1802 0.5544
vn 0.1801 -0.8126 -0.5543
vn 0.1800 -0.8126 -0.5543
vn -0.8449 0.2123 0.4910
vn -0.8448 0.2124 0.4911
vn 0.2124 -0.8448 -0.4911
vn 0.2123 -0.8449 -0.4910
vn 0.7070 0.7072 0.0001
vn -0.8871 0.2546 0.3850
vn -0.8870 0.2547 0.3851
vn 0.2548 -0.8870 -0.3851
vn 0.2546 -0.8871 -0.3850
vn 0.7070 0.7072 -0.0000
vn -0.9194 0.2870 0.2690
vn 0.2871 -0.9194 -0.2690
vn 0.2868 -0.9195 -0.2689
vn 0.0837 -0.7159 0.6932
vn 0.0835 -0.7159 0.6931
vn -0.7159 0.0836 -0.6932
vn -0.7159 0.0835 -0.6932
vn 0.7072 0.7071 -0.0000
vn 0.1135 -0.7459 0.6563
vn -0.7460 0.1135 -0.6563
vn -0.7459 0.1135 -0.6563
vn 0.1388 -0.7712 0.6213
vn 0.1386 -0.7712 0.6213
vn -0.7712 0.1387 -0.6213
vn 0.1802 -0.8125 0.5544
vn 0.1800 -0.8126 0.5543
vn -0.8125 0.1801 -0.5544
vn -0.8125 0.1802 -0.5544
vn 0.2123 -0.8449 0.4910
vn -0.8448 0.2124 -0.4911
vn -0.8448 0.2125 -0.4911
vn 0.2546 -0.8871 0.3851
vn -0.8871 0.2546 -0.3851
vn 0.2871 -0.9194 0.2690
vn -0.9194 0.2870 -0.2689
vn -0.9194 0.2869 -0.2690
vn -0.6959 0.0637 0.7153
vn -0.6959 0.0636 0.7153
vn 0.0635 -0.6960 -0.7153
vn -0.2868 0.9195 0.2689
vn -0.2870 0.9194 0.2690
vn 0.9194 -0.2870 -0.2690
vn 0.0637 -0.6959 0.7153
vn 0.0636 -0.6959 0.7153
vn -0.6959 0.0637 -0.7153
vn -0.6960 0.0635 -0.7152
vn -0.7070 -0.7072 0.0001
vn 0.6959 -0.0636 0.7153
vn 0.6960 -0.0635 0.7153
vn -0.0637 0.6959 -0.7153
vn -0.0636 0.6959 -0.7153
vt -12.791500 -1.545898
vt 0.220703 8.337402
vt 0.258301 8.287598
vt -12.890140 -1.542480
vt 0.239746 8.312500
vt -12.840819 -1.544434
vt -11.297359 -0.420410
vt -11.389160 -0.411133
vt -11.343260 -0.416016
vt -10.282229 0.344727
vt -10.367680 0.358398
vt -10.325200 0.351562
vt -8.873047 1.406738
vt -8.949707 1.426758
vt -8.911621 1.416504
vt -7.981445 2.078125
vt -8.051758 2.103516
vt -8.016602 2.090820
vt -7.011230 2.809570
vt -7.072754 2.841309
vt -7.041992 2.825684
vt -6.406738 3.265137
vt -6.459961 3.303223
vt -6.433594 3.284180
vt -13.912109 -2.390625
vt -14.016109 -2.390625
vt -13.963870 -2.390625
s 0
usemtl mt_toudai.006
f 3/1/1 2/2/1 1/3/1
f 4/4/2 2/2/2 3/1/2
f 5/5/3 3/1/3 1/3/3
f 6/6/4 3/1/4 5/5/4
f 2/2/5 6/6/5 5/5/5
f 4/4/6 6/6/6 2/2/6
f 9/7/1 8/2/1 7/3/1
f 10/8/7 8/2/7 9/7/7
f 5/5/8 9/7/8 7/3/8
f 11/9/9 9/7/9 5/5/9
f 8/2/10 11/9/10 5/5/10
f 10/8/11 11/9/11 8/2/11
f 14/10/12 13/2/12 12/3/12
f 15/11/1 13/2/1 14/10/1
f 5/5/13 14/10/13 12/3/13
f 16/12/13 14/10/13 5/5/13
f 13/2/14 16/12/14 5/5/14
f 15/11/14 16/12/14 13/2/14
f 19/13/15 18/2/15 17/3/15
f 20/14/12 18/2/12 19/13/12
f 5/5/16 19/13/16 17/3/16
f 21/15/17 19/13/17 5/5/17
f 18/2/18 21/15/18 5/5/18
f 20/14/19 21/15/19 18/2/19
f 24/16/1 23/2/1 22/3/1
f 25/17/1 23/2/1 24/16/1
f 5/5/20 24/16/20 22/3/20
f 26/18/21 24/16/21 5/5/21
f 23/2/22 26/18/22 5/5/22
f 25/17/23 26/18/23 23/2/23
f 29/19/1 28/2/1 27/3/1
f 30/20/12 28/2/12 29/19/12
f 5/5/24 29/19/24 27/3/24
f 31/21/25 29/19/25 5/5/25
f 28/2/26 31/21/26 5/5/26
f 30/20/27 31/21/27 28/2/27
f 34/22/1 33/2/1 32/3/1
f 35/23/1 33/2/1 34/22/1
f 5/5/28 34/22/28 32/3/28
f 36/24/29 34/22/29 5/5/29
f 33/2/30 36/24/30 5/5/30
f 35/23/31 36/24/31 33/2/31
f 39/19/32 38/2/32 37/20/32
f 40/3/15 38/2/15 39/19/15
f 39/19/33 41/5/33 40/3/33
f 42/21/34 41/5/34 39/19/34
f 42/21/35 38/2/35 41/5/35
f 37/20/36 38/2/36 42/21/36
f 45/16/1 44/2/1 43/17/1
f 46/3/1 44/2/1 45/16/1
f 45/16/37 41/5/37 46/3/37
f 47/18/38 41/5/38 45/16/38
f 47/18/39 44/2/39 41/5/39
f 43/17/40 44/2/40 47/18/40
f 50/13/1 49/2/1 48/14/1
f 51/3/7 49/2/7 50/13/7
f 50/13/41 41/5/41 51/3/41
f 52/15/42 41/5/42 50/13/42
f 52/15/43 49/2/43 41/5/43
f 48/14/44 49/2/44 52/15/44
f 55/10/1 54/2/1 53/11/1
f 56/3/1 54/2/1 55/10/1
f 55/10/45 41/5/45 56/3/45
f 57/12/46 41/5/46 55/10/46
f 57/12/47 54/2/47 41/5/47
f 53/11/47 54/2/47 57/12/47
f 60/7/48 59/2/48 58/8/48
f 61/3/1 59/2/1 60/7/1
f 60/7/49 41/5/49 61/3/49
f 62/9/50 41/5/50 60/7/50
f 62/9/51 59/2/51 41/5/51
f 58/8/51 59/2/51 62/9/51
f 65/1/1 64/2/1 63/4/1
f 66/3/1 64/2/1 65/1/1
f 65/1/52 41/5/52 66/3/52
f 67/6/53 41/5/53 65/1/53
f 67/6/54 64/2/54 41/5/54
f 63/4/55 64/2/55 67/6/55
f 69/25/1 64/2/1 68/26/1
f 66/3/1 64/2/1 69/25/1
f 69/25/56 41/5/56 66/3/56
f 70/27/56 41/5/56 69/25/56
f 70/27/57 64/2/57 41/5/57
f 68/26/58 64/2/58 70/27/58
f 73/1/59 72/2/59 71/3/59
f 74/4/60 72/2/60 73/1/60
f 73/1/61 76/5/61 75/6/61
f 71/3/62 76/5/62 73/1/62
f 75/6/63 72/2/63 74/4/63
f 76/5/63 72/2/63 75/6/63
f 79/7/64 78/2/64 77/3/64
f 80/8/65 78/2/65 79/7/65
f 79/7/66 76/5/66 81/9/66
f 77/3/67 76/5/67 79/7/67
f 81/9/68 78/2/68 80/8/68
f 76/5/69 78/2/69 81/9/69
f 84/10/64 83/2/64 82/3/64
f 85/11/64 83/2/64 84/10/64
f 84/10/70 76/5/70 86/12/70
f 82/3/71 76/5/71 84/10/71
f 86/12/72 83/2/72 85/11/72
f 76/5/73 83/2/73 86/12/73
f 89/13/59 88/2/59 87/3/59
f 90/14/64 88/2/64 89/13/64
f 89/13/74 76/5/74 91/15/74
f 87/3/75 76/5/75 89/13/75
f 91/15/76 88/2/76 90/14/76
f 76/5/77 88/2/77 91/15/77
f 94/16/64 93/2/64 92/3/64
f 95/17/59 93/2/59 94/16/59
f 94/16/78 76/5/78 96/18/78
f 92/3/79 76/5/79 94/16/79
f 96/18/80 93/2/80 95/17/80
f 76/5/81 93/2/81 96/18/81
f 99/19/82 98/2/82 97/3/82
f 100/20/64 98/2/64 99/19/64
f 99/19/83 76/5/83 101/21/83
f 97/3/84 76/5/84 99/19/84
f 101/21/85 98/2/85 100/20/85
f 76/5/86 98/2/86 101/21/86
f 104/22/64 103/2/64 102/3/64
f 105/23/87 103/2/87 104/22/87
f 104/22/88 76/5/88 106/24/88
f 102/3/88 76/5/88 104/22/88
f 106/24/89 103/2/89 105/23/89
f 76/5/90 103/2/90 106/24/90
f 109/2/64 108/1/64 107/3/64
f 110/4/64 108/1/64 109/2/64
f 108/1/91 111/5/91 107/3/91
f 112/6/92 111/5/92 108/1/92
f 112/6/93 109/2/93 111/5/93
f 110/4/94 109/2/94 112/6/94
f 115/2/95 114/7/95 113/3/95
f 116/8/65 114/7/65 115/2/65
f 114/7/96 111/5/96 113/3/96
f 117/9/96 111/5/96 114/7/96
f 117/9/97 115/2/97 111/5/97
f 116/8/98 115/2/98 117/9/98
f 120/2/64 119/10/64 118/3/64
f 121/11/64 119/10/64 120/2/64
f 119/10/99 111/5/99 118/3/99
f 122/12/100 111/5/100 119/10/100
f 122/12/101 120/2/101 111/5/101
f 121/11/101 120/2/101 122/12/101
f 125/2/64 124/13/64 123/3/64
f 126/14/64 124/13/64 125/2/64
f 124/13/102 111/5/102 123/3/102
f 127/15/103 111/5/103 124/13/103
f 127/15/104 125/2/104 111/5/104
f 126/14/105 125/2/105 127/15/105
f 130/2/64 129/16/64 128/3/64
f 131/17/64 129/16/64 130/2/64
f 129/16/106 111/5/106 128/3/106
f 132/18/106 111/5/106 129/16/106
f 132/18/107 130/2/107 111/5/107
f 131/17/108 130/2/108 132/18/108
f 135/2/64 134/19/64 133/3/64
f 136/20/95 134/19/95 135/2/95
f 134/19/109 111/5/109 133/3/109
f 137/21/109 111/5/109 134/19/109
f 137/21/110 135/2/110 111/5/110
f 136/20/110 135/2/110 137/21/110
f 140/2/64 139/22/64 138/3/64
f 141/23/95 139/22/95 140/2/95
f 139/22/111 111/5/111 138/3/111
f 142/24/111 111/5/111 139/22/111
f 142/24/112 140/2/112 111/5/112
f 141/23/113 140/2/113 142/24/113
f 143/25/59 72/2/59 71/3/59
f 144/26/64 72/2/64 143/25/64
f 76/5/114 143/25/114 71/3/114
f 145/27/115 143/25/115 76/5/115
f 72/2/116 145/27/116 76/5/116
f 144/26/116 145/27/116 72/2/116
f 148/22/1 147/2/1 146/23/1
f 149/3/15 147/2/15 148/22/15
f 148/22/117 41/5/117 149/3/117
f 150/24/118 41/5/118 148/22/118
f 150/24/119 147/2/119 41/5/119
f 146/23/119 147/2/119 150/24/119
f 152/25/64 109/2/64 151/26/64
f 107/3/64 109/2/64 152/25/64
f 152/25/120 111/5/120 107/3/120
f 153/27/121 111/5/121 152/25/121
f 153/27/122 109/2/122 111/5/122
f 151/26/123 109/2/123 153/27/123
f 154/25/1 2/2/1 1/3/1
f 155/26/124 2/2/124 154/25/124
f 5/5/125 154/25/125 1/3/125
f 156/27/126 154/25/126 5/5/126
f 2/2/127 156/27/127 5/5/127
f 155/26/128 156/27/128 2/2/128
