# Blender 4.1.1
# www.blender.org
mtllib Object_5.mtl
o Object_8
v 1107123.250000 1111348.000000 4610.192383
v 1107256.750000 1111218.500000 4518.077637
v 1107256.750000 1111218.500000 4670.645996
v 1107190.125000 1111283.250000 4482.150879
v 1107035.875000 1111432.875000 4478.959473
v 1107131.250000 1111338.750000 4391.446777
v 1107477.750000 1111004.000000 4478.959473
v 1107323.500000 1111153.625000 4482.150879
v 1107380.750000 1111096.500000 4391.446777
v 1107390.250000 1111088.875000 4610.192383
v 1107323.500000 1111153.625000 4482.150879
v 1107349.750000 1114853.500000 4422.034668
v 1107349.875000 1111948.875000 4822.123047
v 1107349.875000 1114853.500000 4821.988770
v 1107349.750000 1114853.500000 4422.034668
v 1107349.750000 1111949.125000 4425.702148
v 1107349.875000 1111948.875000 4822.123047
v 1109818.500000 1114893.750000 4421.919922
v 1107393.250000 1114893.625000 4821.911133
v 1109818.500000 1114893.750000 4821.885742
v 1107392.625000 1114893.750000 4421.882812
v 1109863.625000 1111513.375000 4426.953125
v 1109863.875000 1114853.625000 4822.126953
v 1109863.750000 1111513.375000 4822.125488
v 1109863.625000 1111513.375000 4426.953125
v 1109863.625000 1114853.500000 4422.027344
v 1109863.875000 1114853.625000 4822.126953
v 1108064.625000 1111476.125000 4427.174805
v 1109818.375000 1111476.000000 4821.866211
v 1108064.500000 1111476.125000 4821.519531
v 1108064.625000 1111476.125000 4427.174805
v 1109818.625000 1111476.125000 4427.145996
v 1109818.375000 1111476.000000 4821.866211
v 1109881.750000 1115143.000000 2961.016113
v 1109971.375000 1115053.375000 3118.427734
v 1109971.375000 1115053.375000 2961.016113
v 1109881.750000 1115143.000000 3118.427734
v 1109847.000000 1115182.500000 3161.927002
v 1109990.625000 1115038.875000 3414.210449
v 1109990.625000 1115038.875000 3161.927002
v 1109847.000000 1115182.500000 3414.210449
v 1107061.750000 1114958.250000 3006.049805
v 1107255.875000 1115152.375000 3347.108887
v 1107255.875000 1115152.375000 3006.049805
v 1107061.750000 1114958.250000 3347.108887
v 1110001.875000 1115029.875000 3001.510986
v 1110145.500000 1114886.250000 3253.794434
v 1110145.500000 1114886.250000 3001.510986
v 1110001.875000 1115029.875000 3253.794434
v 1110103.500000 1111286.875000 3022.167236
v 1109908.500000 1111093.500000 3363.226074
v 1109908.500000 1111093.500000 3022.166992
v 1110103.500000 1111286.875000 3363.226318
v 1106885.250000 1111509.000000 3283.734131
v 1107008.250000 1111516.500000 3298.734131
v 1107008.250000 1111509.000000 3283.734131
v 1106885.250000 1111516.500000 3298.734131
v 1106885.250000 1111516.500000 3298.734131
v 1107008.250000 1111501.500000 3298.734131
v 1107008.250000 1111516.500000 3298.734131
v 1106885.250000 1111501.500000 3298.734131
v 1106885.250000 1111501.500000 3298.734131
v 1107008.250000 1111509.000000 3283.734131
v 1107008.250000 1111501.500000 3298.734131
v 1106885.250000 1111509.000000 3283.734131
v 1107008.250000 1111509.000000 3283.734131
v 1106885.250000 1111509.000000 3141.922363
v 1107008.250000 1111516.500000 3156.922363
v 1107008.250000 1111509.000000 3141.922363
v 1106885.250000 1111516.500000 3156.922363
v 1106885.250000 1111516.500000 3156.922363
v 1107008.250000 1111501.500000 3156.922363
v 1107008.250000 1111516.500000 3156.922363
v 1106885.250000 1111501.500000 3156.922363
v 1106885.250000 1111501.500000 3156.922363
v 1107008.250000 1111509.000000 3141.922363
v 1107008.250000 1111501.500000 3156.922363
v 1106885.250000 1111509.000000 3141.922363
v 1107008.250000 1111509.000000 3141.922363
v 1106923.125000 1111521.375000 3318.573730
v 1106764.625000 1111521.375000 3121.808838
v 1106764.625000 1111521.375000 3318.573730
v 1106923.125000 1111521.375000 3121.808838
v 1106923.125000 1111499.250000 3121.808838
v 1106764.625000 1111499.250000 3318.573730
v 1106764.625000 1111499.250000 3121.808838
v 1106923.125000 1111499.250000 3318.573730
v 1107093.125000 1111500.625000 3261.454590
v 1106924.125000 1111327.875000 3294.082520
v 1107093.125000 1111500.625000 3389.737061
v 1106924.125000 1111327.875000 3261.454590
v 1107369.750000 1110892.000000 3294.082275
v 1107538.750000 1111064.750000 3261.454346
v 1107538.750000 1111064.750000 3389.736816
v 1107369.750000 1110892.000000 3261.454346
v 1107093.125000 1111500.625000 3389.737061
v 1107369.750000 1110892.000000 3294.082275
v 1107538.750000 1111064.750000 3389.736816
v 1106924.125000 1111327.875000 3294.082520
v 1106924.125000 1111327.875000 3294.082520
v 1107369.750000 1110892.000000 3261.454346
v 1107369.750000 1110892.000000 3294.082275
v 1106924.125000 1111327.875000 3261.454590
v 1106924.125000 1111327.875000 3294.082520
v 1107093.125000 1111500.625000 3261.454590
v 1107093.125000 1111500.625000 3389.737061
v 1106924.125000 1111327.875000 3261.454590
v 1107538.750000 1111064.750000 3261.454346
v 1107369.750000 1110892.000000 3294.082275
v 1107538.750000 1111064.750000 3389.736816
v 1107369.750000 1110892.000000 3261.454346
v 1107369.750000 1110892.000000 3294.082275
v 1107093.125000 1111500.625000 3389.737061
v 1107538.750000 1111064.750000 3389.736816
v 1106924.125000 1111327.875000 3294.082520
v 1107369.750000 1110892.000000 3261.454346
v 1106924.125000 1111327.875000 3294.082520
v 1107369.750000 1110892.000000 3294.082275
v 1106924.125000 1111327.875000 3261.454590
v 1106923.125000 1111499.250000 3121.808838
v 1106923.125000 1111521.375000 3318.573730
v 1106923.125000 1111499.250000 3318.573730
v 1106923.125000 1111521.375000 3121.808838
v 1106764.625000 1111499.250000 3318.573730
v 1106764.625000 1111521.375000 3121.808838
v 1106764.625000 1111499.250000 3121.808838
v 1106764.625000 1111521.375000 3318.573730
v 1106923.125000 1111521.375000 3121.808838
v 1106764.625000 1111499.250000 3121.808838
v 1106764.625000 1111521.375000 3121.808838
v 1106923.125000 1111499.250000 3121.808838
v 1106923.125000 1111499.250000 3318.573730
v 1106764.625000 1111521.375000 3318.573730
v 1106764.625000 1111499.250000 3318.573730
v 1106923.125000 1111521.375000 3318.573730
vn -0.6965 -0.7175 -0.0000
vn -0.6965 -0.7175 -0.0001
vn -0.6964 -0.7176 -0.0000
vn -0.6966 -0.7175 0.0028
vn -0.6965 -0.7175 0.0054
vn -0.6965 -0.7174 0.0128
vn -0.6964 -0.7176 0.0054
vn -0.6965 -0.7176 0.0029
vn -0.6963 -0.7176 0.0128
vn -0.6966 -0.7175 -0.0000
vn -0.6965 -0.7175 0.0029
vn -1.0000 -0.0000 0.0003
vn -1.0000 -0.0000 -0.0000
vn -1.0000 -0.0000 -0.0002
vn -0.0000 1.0000 -0.0000
vn -0.0000 1.0000 0.0003
vn 1.0000 -0.0000 -0.0000
vn 1.0000 -0.0000 0.0001
vn 1.0000 -0.0000 -0.0004
vn -0.0001 -1.0000 -0.0000
vn -0.0000 -1.0000 -0.0003
vn 0.7072 0.7071 -0.0000
vn 0.7070 0.7072 -0.0000
vn 0.7073 0.7069 -0.0000
vn 0.7071 0.7072 -0.0000
vn -0.7073 0.7069 -0.0000
vn -0.7069 0.7073 -0.0000
vn 0.7040 -0.7102 -0.0000
vn -0.0000 0.8943 -0.4474
vn -0.0000 0.8945 -0.4470
vn -0.0000 -0.0000 1.0000
vn -0.0000 -0.8943 -0.4474
vn -0.0000 -0.8945 -0.4470
vn -0.0000 -1.0000 -0.0000
vn -0.7148 0.6993 -0.0000
vn -0.7150 0.6991 -0.0000
vn 0.7149 -0.6992 -0.0000
vn -0.2573 -0.2631 0.9298
vn -0.6993 -0.7148 -0.0000
vn 0.7151 -0.6991 -0.0000
vn 0.7150 -0.6991 -0.0000
vn -0.7149 0.6992 -0.0000
vn 0.2573 0.2632 -0.9298
vn 0.2573 0.2631 -0.9298
vn 0.6993 0.7148 -0.0000
vn -0.0000 -0.0000 -1.0000
vt 0.292603 0.925598
vt 0.360962 0.798950
vt 0.253296 0.798889
vt 0.378479 0.862305
vt 0.395996 1.002258
vt 0.456116 0.920044
vt 0.397888 0.597473
vt 0.379761 0.736816
vt 0.457397 0.679687
vt 0.295105 0.672241
vt 0.009521 1.124390
vt 0.627319 1.017151
vt 0.009766 1.015381
vt 0.626099 1.125671
vt 0.003601 1.281372
vt 0.773804 1.140869
vt 0.003845 1.139099
vt 0.772583 1.282654
vt 0.008545 1.123901
vt 0.703064 1.016663
vt 0.008789 1.014893
vt 0.701904 1.125183
vt 0.495972 0.597534
vt 0.252869 0.284668
vt 0.252869 0.597534
vt 0.495972 0.284668
vt 0.743652 0.599060
vt 0.498657 0.284546
vt 0.498657 0.599060
vt 0.743652 0.284546
vt 0.997437 0.599121
vt 0.750244 0.283997
vt 0.750244 0.599121
vt 0.997437 0.283997
vt 0.250854 0.598572
vt 0.000671 0.284363
vt 0.000671 0.598572
vt 0.250854 0.284363
vt 0.251160 0.915771
vt 0.001770 0.600220
vt 0.001770 0.915771
vt 0.251160 0.600220
vt -0.009583 1.028870
vt -0.003296 1.083069
vt -0.003296 1.028870
vt -0.009583 1.083069
vt -0.003296 1.137268
vt -0.009583 1.137268
vt -0.002869 1.191467
vt -0.010010 1.191467
vt 0.774414 0.000488
vt 0.999756 0.281982
vt 0.999756 0.000488
vt 0.774414 0.281982
vt 0.479675 0.601440
vt 0.479675 0.994141
vt 0.993042 0.994141
vt 0.993042 0.601440
vt 0.781189 0.244934
vt 0.780457 0.144958
vt 0.781189 0.144958
vt 0.780457 0.244934
vt 0.781189 0.044922
vt 0.780457 0.044922
s 1
usemtl Material_179_4
f 1/1/1 2/2/2 3/3/3
f 1/1/1 4/4/4 2/2/2
f 5/5/5 4/4/4 1/1/1
f 5/5/5 6/6/6 4/4/4
f 7/7/7 8/8/8 9/9/9
f 7/7/7 10/10/10 8/8/8
f 10/10/1 2/2/1 11/8/11
s 0
f 10/10/3 3/3/3 2/2/3
f 12/11/12 13/12/13 14/13/12
f 15/11/14 16/14/14 17/12/14
f 18/15/15 19/16/15 20/17/15
f 18/15/16 21/18/16 19/16/16
f 22/19/17 23/20/17 24/21/17
s 1
f 25/19/18 26/22/19 27/20/19
s 0
f 28/15/20 29/16/20 30/17/20
f 31/15/21 32/18/21 33/16/21
f 34/23/22 35/24/22 36/25/22
f 34/23/23 37/26/23 35/24/23
f 38/27/24 39/28/24 40/29/24
f 38/27/25 41/30/25 39/28/25
f 42/31/26 43/32/26 44/33/26
f 42/31/27 45/34/27 43/32/27
f 46/35/25 47/36/25 48/37/25
f 46/35/24 49/38/24 47/36/24
f 50/39/28 51/40/28 52/41/28
f 50/39/28 53/42/28 51/40/28
f 54/43/29 55/44/29 56/45/29
f 54/43/30 57/46/30 55/44/30
f 58/46/31 59/47/31 60/44/31
f 58/46/31 61/48/31 59/47/31
f 62/48/32 63/49/32 64/47/32
f 62/48/33 65/50/33 66/49/32
f 67/43/29 68/44/29 69/45/29
f 67/43/30 70/46/30 68/44/30
f 71/46/31 72/47/31 73/44/31
f 71/46/31 74/48/31 72/47/31
f 75/48/32 76/49/32 77/47/32
f 75/48/33 78/50/33 79/49/32
f 80/51/15 81/52/15 82/53/15
f 80/51/15 83/54/15 81/52/15
f 84/52/34 85/51/34 86/54/34
f 84/52/34 87/53/34 85/51/34
f 88/55/35 89/56/35 90/55/35
f 88/55/36 91/56/36 89/56/36
f 92/57/37 93/58/37 94/58/37
f 92/57/37 95/57/37 93/58/37
f 96/55/38 97/57/38 98/58/38
f 96/55/38 99/56/38 97/57/38
f 100/56/39 101/57/39 102/57/39
f 100/56/39 103/56/39 101/57/39
f 104/56/40 105/55/40 106/55/40
f 104/56/41 107/56/41 105/55/41
f 108/58/42 109/57/42 110/58/42
f 108/58/42 111/57/42 109/57/42
f 112/57/43 113/55/43 114/58/43
f 112/57/44 115/56/44 113/55/44
f 116/57/45 117/56/45 118/57/45
f 116/57/45 119/56/45 117/56/45
f 120/59/17 121/60/17 122/61/17
f 120/59/17 123/62/17 121/60/17
f 124/63/13 125/60/13 126/61/13
f 124/63/13 127/64/13 125/60/13
f 128/62/46 129/61/46 130/60/46
f 128/62/46 131/59/46 129/61/46
f 132/61/31 133/64/31 134/63/31
f 132/61/31 135/60/31 133/64/31
