# Blender 4.1.1
# www.blender.org
mtllib polygon770.mtl
o polygon770
v 4254.451172 -2407.045166 -338.031219
v 4200.112305 -2407.045166 -334.642303
v 4249.511230 -2407.045166 -417.239807
v 4194.769043 -2407.045166 -420.315613
v 4255.133301 -2407.044922 -449.124908
v 4203.183105 -2407.044922 -468.033112
v 4271.768066 -2407.044922 -477.937286
v 4229.416992 -2407.044922 -513.473267
v 4297.253418 -2407.044922 -499.322327
v 4269.611328 -2407.044922 -547.199890
v 4328.516113 -2407.044922 -510.701202
v 4318.916016 -2407.044922 -565.145752
v 4361.786133 -2407.044922 -510.701202
v 4371.387207 -2407.045898 -565.145752
v 4393.049316 -2407.044922 -499.322327
v 4420.690918 -2407.044922 -547.199890
v 4418.534668 -2407.044922 -477.937286
v 4460.886230 -2407.044922 -513.473267
v 4435.169434 -2407.044922 -449.124908
v 4487.120117 -2407.044922 -468.033112
v 4495.534180 -2407.046143 -420.315613
v 3498.454834 -4624.175293 -498.030945
v 3537.677002 -4664.559082 -526.025452
v 3501.897949 -4627.719727 -577.239563
v 3540.037109 -4666.988281 -580.315308
v 3497.979980 -4623.686035 -609.124634
v 3534.174072 -4660.952637 -628.032837
v 3486.391113 -4611.753418 -637.936951
v 3515.897217 -4642.133789 -673.472961
v 3468.635254 -4593.471680 -659.321960
v 3487.893066 -4613.300293 -707.199524
v 3446.853027 -4571.044434 -670.700867
v 3453.541992 -4577.931641 -725.145508
v 3423.674072 -4547.178223 -670.700928
v 3416.984863 -4540.291992 -725.145569
v 3401.892090 -4524.750977 -659.322021
v 3382.633057 -4504.922852 -707.199646
v 3384.135254 -4506.469727 -637.936951
v 3354.629883 -4476.089355 -673.473083
v 3372.546143 -4494.537598 -609.124634
v 3336.352051 -4457.270996 -628.032837
v 3342.312988 -4463.408203 -579.361877
v 4440.791992 -2407.045166 -417.239807
v 4490.190918 -2407.045166 -334.642303
v 4435.852051 -2407.045166 -338.031219
v 3370.070801 -4491.987793 -544.052124
v 3368.628906 -4490.503418 -577.239563
vn -0.0000 1.0000 -0.0000
vn -0.7174 -0.6967 -0.0000
vn -0.7173 -0.6967 -0.0000
vt -0.994385 -0.010254
vt -1.766235 -1.300781
vt -0.917236 -1.247803
vt -1.849731 0.037842
vt -0.906494 0.488037
vt -1.718262 0.783447
vt -0.646606 0.938232
vt -1.308350 1.493408
vt -0.248413 1.272339
vt -0.680298 2.020386
vt 0.240112 1.450073
vt 0.090088 2.300781
vt 0.759888 1.450073
vt 0.909912 2.300781
vt 1.248413 1.272339
vt 1.680298 2.020386
vt 1.646606 0.938232
vt 2.308350 1.493408
vt 1.906494 0.488037
vt 2.718262 0.783447
vt 2.849731 0.037842
vt -1.796631 -0.814087
vt 2.616455 0.024780
vt 1.994385 -0.010254
vt 2.766235 -1.300781
vt 1.917236 -1.247803
vt 1.959351 -0.572754
s 1
usemtl mt_town_isigakiA.005
f 3/1/1 2/2/1 1/3/1
f 4/4/1 2/2/1 3/1/1
f 5/5/1 4/4/1 3/1/1
f 6/6/1 4/4/1 5/5/1
f 7/7/1 6/6/1 5/5/1
f 8/8/1 6/6/1 7/7/1
f 9/9/1 8/8/1 7/7/1
f 10/10/1 8/8/1 9/9/1
f 11/11/1 10/10/1 9/9/1
f 12/12/1 10/10/1 11/11/1
f 13/13/1 12/12/1 11/11/1
f 14/14/1 12/12/1 13/13/1
f 15/15/1 14/14/1 13/13/1
f 16/16/1 14/14/1 15/15/1
f 17/17/1 16/16/1 15/15/1
f 18/18/1 16/16/1 17/17/1
f 19/19/1 18/18/1 17/17/1
f 20/20/1 18/18/1 19/19/1
f 21/21/1 20/20/1 19/19/1
f 24/1/3 23/22/2 22/3/2
f 25/4/3 23/22/2 24/1/3
f 26/5/2 25/4/3 24/1/3
f 27/6/2 25/4/3 26/5/2
f 28/7/2 27/6/2 26/5/2
f 29/8/2 27/6/2 28/7/2
f 30/9/3 29/8/2 28/7/2
f 31/10/3 29/8/2 30/9/3
f 32/11/2 31/10/3 30/9/3
f 33/12/3 31/10/3 32/11/2
f 34/13/2 33/12/3 32/11/2
f 35/14/3 33/12/3 34/13/2
f 36/15/3 35/14/3 34/13/2
f 37/16/2 35/14/3 36/15/3
f 38/17/2 37/16/2 36/15/3
f 39/18/2 37/16/2 38/17/2
f 40/19/2 39/18/2 38/17/2
f 41/20/2 39/18/2 40/19/2
f 42/23/3 41/20/2 40/19/2
f 43/24/1 21/21/1 19/19/1
f 44/25/1 21/21/1 43/24/1
f 45/26/1 44/25/1 43/24/1
f 42/23/3 47/24/3 46/27/3
f 40/19/2 47/24/3 42/23/3
