# Blender 4.1.1
# www.blender.org
mtllib polygon0.209.mtl
o GolfFlag.002
v -0.000035 -0.035000 0.000000
v -0.000033 -0.035000 -3.000000
v -0.030348 -0.017500 0.000000
v -0.030346 -0.017500 -3.000000
v -0.030348 0.017500 -0.000000
v -0.030346 0.017500 -3.000000
v -0.000035 0.035000 -0.000000
v -0.000033 0.035000 -3.000000
v 0.030278 0.017500 -0.000000
v 0.030280 0.017500 -3.000000
v 0.030278 -0.017500 0.000000
v 0.030280 -0.017500 -3.000000
v 0.740276 -0.004233 -2.644711
v 0.611300 -0.040330 -2.749330
v 0.732479 0.005957 -2.465855
v 0.608231 -0.035967 -2.584199
v 0.725279 0.015212 -2.288730
v 0.602871 -0.025954 -2.412417
v 0.719603 0.022077 -2.116029
v 0.595858 -0.011864 -2.235834
v 0.716138 0.025474 -1.949748
v 0.588089 0.004090 -2.057058
v 0.715224 0.024869 -1.790873
v 0.580580 0.019402 -1.879037
v 0.016271 -0.000203 -2.982587
v 0.060470 0.003065 -2.796983
v 0.162267 0.023077 -2.871986
v 0.170344 0.030977 -2.691644
v 0.315506 0.042861 -2.804544
v 0.318678 0.029077 -2.657532
v 0.463767 -0.018048 -2.785128
v 0.468118 -0.037946 -2.641540
v 0.070234 0.015682 -2.613462
v 0.176087 0.031624 -2.530624
v 0.323332 0.010725 -2.514823
v 0.470777 -0.051885 -2.493040
v 0.064255 0.022373 -2.441083
v 0.177209 0.026875 -2.377661
v 0.328532 -0.009313 -2.373701
v 0.471122 -0.057675 -2.337820
v 0.041326 0.024898 -2.276589
v 0.172379 0.019342 -2.228890
v 0.333258 -0.027888 -2.231201
v 0.468894 -0.054407 -2.175132
v 0.464240 -0.042594 -2.005398
v 0.336563 -0.042082 -2.084575
v 0.161976 0.010909 -2.089466
v 0.021253 0.002554 -2.165215
v 0.155435 -0.155435 -0.047250
v 0.089740 -0.089740 -0.081839
v 0.000000 -0.219818 -0.047250
v 0.000000 -0.126912 -0.081839
v 0.253824 0.000000 0.000000
v 0.219818 -0.000000 -0.047250
v 0.179481 -0.179481 0.000000
v 0.179481 0.179481 -0.000000
v 0.155435 0.155435 -0.047250
v 0.000000 0.253824 -0.000000
v 0.000000 0.219818 -0.047250
v -0.179481 0.179481 -0.000000
v -0.155435 0.155435 -0.047250
v -0.253824 0.000000 0.000000
v -0.219818 -0.000000 -0.047250
v -0.179481 -0.179481 0.000000
v -0.155435 -0.155435 -0.047250
v 0.000000 -0.253824 0.000000
v 0.219818 0.000000 0.047250
v 0.155435 -0.155435 0.047250
v 0.155435 0.155435 0.047250
v 0.000000 0.219818 0.047250
v -0.155435 0.155435 0.047250
v -0.219818 0.000000 0.047250
v -0.155435 -0.155435 0.047250
v 0.000000 -0.219818 0.047250
v 0.126912 0.000000 0.081839
v 0.089740 -0.089740 0.081839
v 0.089740 0.089740 0.081839
v 0.000000 0.126912 0.081839
v -0.089740 0.089740 0.081839
v -0.126912 0.000000 0.081839
v -0.089740 -0.089740 0.081839
v 0.000000 -0.126912 0.081839
v 0.126912 -0.000000 -0.081839
v 0.089740 0.089740 -0.081839
v 0.000000 0.126912 -0.081839
v -0.089740 0.089740 -0.081839
v -0.126912 -0.000000 -0.081839
v -0.089740 -0.089740 -0.081839
v 0.000000 -0.000000 -0.094500
v 0.000000 0.000000 0.094500
vn -0.0000 -1.0000 -0.0000
vn -0.0000 -0.7924 -0.6100
vn -0.8660 -0.5000 -0.0000
vn -0.6862 -0.3962 -0.6100
vn -0.8660 0.5000 -0.0000
vn -0.6862 0.3962 -0.6100
vn -0.0000 1.0000 -0.0000
vn -0.0000 0.7924 -0.6100
vn 0.8660 0.5000 -0.0000
vn 0.6862 0.3962 -0.6100
vn 0.8660 -0.5000 -0.0000
vn 0.6862 -0.3962 -0.6100
vn 0.2197 -0.9734 0.0650
vn 0.0500 -0.9986 -0.0185
vn 0.2632 -0.9630 0.0577
vn 0.1768 -0.9841 0.0198
vn 0.2720 -0.9609 0.0513
vn 0.2344 -0.9708 0.0514
vn 0.2390 -0.9704 0.0360
vn 0.2529 -0.9646 0.0743
vn 0.1657 -0.9861 0.0152
vn 0.2322 -0.9690 0.0846
vn 0.0682 -0.9966 0.0453
vn 0.0974 -0.9912 0.0894
vn 0.1755 -0.9842 -0.0245
vn 0.1968 -0.9803 0.0181
vn 0.1666 -0.9859 0.0133
vn 0.1085 -0.9940 0.0102
vn -0.1176 -0.9919 -0.0470
vn -0.2152 -0.9727 -0.0872
vn -0.2741 -0.9550 -0.1137
vn -0.2061 -0.9748 -0.0857
vn 0.1536 -0.9877 0.0291
vn 0.0032 -0.9998 -0.0184
vn -0.2719 -0.9569 -0.1019
vn -0.1101 -0.9927 -0.0496
vn 0.0627 -0.9980 0.0070
vn -0.0933 -0.9947 -0.0435
vn -0.2844 -0.9535 -0.0997
vn -0.0000 -1.0000 -0.0079
vn 0.0123 -0.9953 -0.0957
vn -0.1235 -0.9887 -0.0851
vn -0.2481 -0.9654 -0.0809
vn 0.1109 -0.9933 0.0326
vn 0.2552 -0.9635 0.0812
vn -0.1759 -0.9836 -0.0391
vn -0.1271 -0.9893 -0.0711
vn 0.0567 -0.9903 -0.1265
vn 0.4584 -0.4584 -0.7614
vn 0.1809 -0.1809 -0.9667
vn -0.0000 -0.6483 -0.7614
vn -0.0000 -0.2558 -0.9667
vn 1.0000 -0.0000 -0.0000
vn 0.6483 -0.0000 -0.7614
vn 0.7071 -0.7071 -0.0000
vn 0.7071 0.7071 -0.0000
vn 0.4584 0.4584 -0.7614
vn -0.0000 0.6483 -0.7614
vn -0.7071 0.7071 -0.0000
vn -0.4584 0.4584 -0.7614
vn -1.0000 -0.0000 -0.0000
vn -0.6483 -0.0000 -0.7614
vn -0.7071 -0.7071 -0.0000
vn -0.4584 -0.4584 -0.7614
vn 0.6483 -0.0000 0.7614
vn 0.4584 -0.4584 0.7614
vn 0.4584 0.4584 0.7614
vn -0.0000 0.6483 0.7614
vn -0.4584 0.4584 0.7614
vn -0.6483 -0.0000 0.7614
vn -0.4584 -0.4584 0.7614
vn -0.0000 -0.6483 0.7614
vn 0.2558 -0.0000 0.9667
vn 0.1809 -0.1809 0.9667
vn 0.1809 0.1809 0.9667
vn -0.0000 0.2558 0.9667
vn -0.1809 0.1809 0.9667
vn -0.2558 -0.0000 0.9667
vn -0.1809 -0.1809 0.9667
vn -0.0000 -0.2558 0.9667
vn 0.2558 -0.0000 -0.9667
vn 0.1809 0.1809 -0.9667
vn -0.0000 0.2558 -0.9667
vn -0.1809 0.1809 -0.9667
vn -0.2558 -0.0000 -0.9667
vn -0.1809 -0.1809 -0.9667
vn -0.0000 -0.0000 -1.0000
vn -0.0000 -0.0000 1.0000
vt 0.603271 0.765198
vt 0.532471 0.977661
vt 0.532471 0.765198
vt 0.603271 0.977661
vt 0.674103 0.765198
vt 0.674103 0.977661
vt 0.744934 0.765198
vt 0.744934 0.977661
vt 0.815735 0.765198
vt 0.815735 0.977661
vt 0.886566 0.765198
vt 0.886566 0.977661
vt 0.957398 0.765198
vt 0.957398 0.977661
vt 0.455597 0.348083
vt 0.377533 0.426178
vt 0.455597 0.426178
vt 0.377533 0.348083
vt 0.455597 0.269989
vt 0.377533 0.269989
vt 0.455597 0.191925
vt 0.377533 0.191925
vt 0.455597 0.113831
vt 0.377533 0.113831
vt 0.455597 0.035736
vt 0.377533 0.035736
vt 0.143249 0.426178
vt 0.065155 0.348083
vt 0.065155 0.426178
vt 0.142700 0.348083
vt 0.221344 0.426178
vt 0.221344 0.348083
vt 0.299439 0.426178
vt 0.299439 0.348083
vt 0.065155 0.269989
vt 0.142700 0.269989
vt 0.221344 0.269989
vt 0.299439 0.269989
vt 0.065155 0.191925
vt 0.142700 0.191925
vt 0.221344 0.191925
vt 0.299439 0.191925
vt 0.065155 0.113831
vt 0.142700 0.113831
vt 0.221344 0.113831
vt 0.299439 0.113831
vt 0.299439 0.035736
vt 0.221344 0.035736
vt 0.143249 0.035736
vt 0.065155 0.035736
vt 0.635071 0.663696
vt 0.610016 0.697083
vt 0.610016 0.663696
vt 0.635071 0.697083
vt 0.810364 0.630310
vt 0.785309 0.663696
vt 0.785309 0.630310
vt 0.810364 0.663696
vt 0.760284 0.663696
vt 0.760284 0.630310
vt 0.735229 0.663696
vt 0.735229 0.630310
vt 0.710175 0.663696
vt 0.710175 0.630310
vt 0.685150 0.663696
vt 0.685150 0.630310
vt 0.660095 0.663696
vt 0.660095 0.630310
vt 0.635071 0.630310
vt 0.610016 0.630310
vt 0.810364 0.596924
vt 0.785309 0.596924
vt 0.760284 0.596924
vt 0.735229 0.596924
vt 0.710175 0.596924
vt 0.685150 0.596924
vt 0.660095 0.596924
vt 0.635071 0.596924
vt 0.610016 0.596924
vt 0.810364 0.563538
vt 0.785309 0.563538
vt 0.760284 0.563538
vt 0.735229 0.563538
vt 0.710175 0.563538
vt 0.685150 0.563538
vt 0.660095 0.563538
vt 0.635071 0.563538
vt 0.785309 0.697083
vt 0.810364 0.697083
vt 0.769043 0.983276
vt 0.783234 0.823029
vt 0.823456 0.913818
vt 0.674408 0.961945
vt 0.634186 0.871155
vt 0.688599 0.801697
vt 0.760284 0.697083
vt 0.735229 0.697083
vt 0.610016 0.563538
vt 0.710175 0.697083
vt 0.685150 0.697083
vt 0.660095 0.697083
vt 0.797852 0.730499
vt 0.772797 0.730499
vt 0.747742 0.730499
vt 0.722717 0.730499
vt 0.697662 0.730499
vt 0.672638 0.730499
vt 0.647583 0.730499
vt 0.622528 0.730499
vt 0.797852 0.530151
vt 0.772797 0.530151
vt 0.747742 0.530151
vt 0.722717 0.530151
vt 0.697662 0.530151
vt 0.672638 0.530151
vt 0.647583 0.530151
vt 0.622528 0.530151
s 1
usemtl M_flag
f 3/1/3 2/2/2 1/3/1
f 4/4/4 2/2/2 3/1/3
f 5/5/5 4/4/4 3/1/3
f 6/6/6 4/4/4 5/5/5
f 7/7/7 6/6/6 5/5/5
f 8/8/8 6/6/6 7/7/7
f 9/9/9 8/8/8 7/7/7
f 10/10/10 8/8/8 9/9/9
f 11/11/11 10/10/10 9/9/9
f 12/12/12 10/10/10 11/11/11
f 1/13/1 12/12/12 11/11/11
f 2/14/2 12/12/12 1/13/1
f 15/15/15 14/16/14 13/17/13
f 16/18/16 14/16/14 15/15/15
f 17/19/17 16/18/16 15/15/15
f 18/20/18 16/18/16 17/19/17
f 19/21/19 18/20/18 17/19/17
f 20/22/20 18/20/18 19/21/19
f 21/23/21 20/22/20 19/21/19
f 22/24/22 20/22/20 21/23/21
f 23/25/23 22/24/22 21/23/21
f 24/26/24 22/24/22 23/25/23
f 27/27/27 26/28/26 25/29/25
f 28/30/28 26/28/26 27/27/27
f 29/31/29 28/30/28 27/27/27
f 30/32/30 28/30/28 29/31/29
f 31/33/31 30/32/30 29/31/29
f 32/34/32 30/32/30 31/33/31
f 14/16/14 32/34/32 31/33/31
f 16/18/16 32/34/32 14/16/14
f 28/30/28 33/35/33 26/28/26
f 34/36/34 33/35/33 28/30/28
f 30/32/30 34/36/34 28/30/28
f 35/37/35 34/36/34 30/32/30
f 32/34/32 35/37/35 30/32/30
f 36/38/36 35/37/35 32/34/32
f 16/18/16 36/38/36 32/34/32
f 18/20/18 36/38/36 16/18/16
f 34/36/34 37/39/37 33/35/33
f 38/40/38 37/39/37 34/36/34
f 35/37/35 38/40/38 34/36/34
f 39/41/39 38/40/38 35/37/35
f 36/38/36 39/41/39 35/37/35
f 40/42/40 39/41/39 36/38/36
f 18/20/18 40/42/40 36/38/36
f 20/22/20 40/42/40 18/20/18
f 38/40/38 41/43/41 37/39/37
f 42/44/42 41/43/41 38/40/38
f 39/41/39 42/44/42 38/40/38
f 43/45/43 42/44/42 39/41/39
f 40/42/40 43/45/43 39/41/39
f 44/46/44 43/45/43 40/42/40
f 20/22/20 44/46/44 40/42/40
f 22/24/22 44/46/44 20/22/20
f 45/47/45 22/24/22 24/26/24
f 44/46/44 22/24/22 45/47/45
f 46/48/46 44/46/44 45/47/45
f 43/45/43 44/46/44 46/48/46
f 47/49/47 43/45/43 46/48/46
f 42/44/42 43/45/43 47/49/47
f 48/50/48 42/44/42 47/49/47
f 41/43/41 42/44/42 48/50/48
f 51/51/51 50/52/50 49/53/49
f 52/54/52 50/52/50 51/51/51
f 55/55/55 54/56/54 53/57/53
f 49/58/49 54/56/54 55/55/55
f 53/57/53 57/59/57 56/60/56
f 54/56/54 57/59/57 53/57/53
f 56/60/56 59/61/58 58/62/7
f 57/59/57 59/61/58 56/60/56
f 58/62/7 61/63/60 60/64/59
f 59/61/58 61/63/60 58/62/7
f 60/64/59 63/65/62 62/66/61
f 61/63/60 63/65/62 60/64/59
f 62/66/61 65/67/64 64/68/63
f 63/65/62 65/67/64 62/66/61
f 64/68/63 51/51/51 66/69/1
f 65/67/64 51/51/51 64/68/63
f 66/69/1 49/53/49 55/70/55
f 51/51/51 49/53/49 66/69/1
f 68/71/66 53/57/53 67/72/65
f 55/55/55 53/57/53 68/71/66
f 67/72/65 56/60/56 69/73/67
f 53/57/53 56/60/56 67/72/65
f 69/73/67 58/62/7 70/74/68
f 56/60/56 58/62/7 69/73/67
f 70/74/68 60/64/59 71/75/69
f 58/62/7 60/64/59 70/74/68
f 71/75/69 62/66/61 72/76/70
f 60/64/59 62/66/61 71/75/69
f 72/76/70 64/68/63 73/77/71
f 62/66/61 64/68/63 72/76/70
f 73/77/71 66/69/1 74/78/72
f 64/68/63 66/69/1 73/77/71
f 74/78/72 55/70/55 68/79/66
f 66/69/1 55/70/55 74/78/72
f 76/80/74 67/72/65 75/81/73
f 68/71/66 67/72/65 76/80/74
f 75/81/73 69/73/67 77/82/75
f 67/72/65 69/73/67 75/81/73
f 77/82/75 70/74/68 78/83/76
f 69/73/67 70/74/68 77/82/75
f 78/83/76 71/75/69 79/84/77
f 70/74/68 71/75/69 78/83/76
f 79/84/77 72/76/70 80/85/78
f 71/75/69 72/76/70 79/84/77
f 80/85/78 73/77/71 81/86/79
f 72/76/70 73/77/71 80/85/78
f 81/86/79 74/78/72 82/87/80
f 73/77/71 74/78/72 81/86/79
f 49/58/49 83/88/81 54/56/54
f 50/89/50 83/88/81 49/58/49
f 12/90/12 8/91/8 10/92/10
f 2/93/2 8/91/8 12/90/12
f 4/94/4 8/91/8 2/93/2
f 6/95/6 8/91/8 4/94/4
f 54/56/54 84/96/82 57/59/57
f 83/88/81 84/96/82 54/56/54
f 57/59/57 85/97/83 59/61/58
f 84/96/82 85/97/83 57/59/57
f 82/87/80 68/79/66 76/98/74
f 74/78/72 68/79/66 82/87/80
f 59/61/58 86/99/84 61/63/60
f 85/97/83 86/99/84 59/61/58
f 61/63/60 87/100/85 63/65/62
f 86/99/84 87/100/85 61/63/60
f 63/65/62 88/101/86 65/67/64
f 87/100/85 88/101/86 63/65/62
f 65/67/64 52/54/52 51/51/51
f 88/101/86 52/54/52 65/67/64
f 83/88/81 50/89/50 89/102/87
f 84/96/82 83/88/81 89/103/87
f 85/97/83 84/96/82 89/104/87
f 86/99/84 85/97/83 89/105/87
f 87/100/85 86/99/84 89/106/87
f 88/101/86 87/100/85 89/107/87
f 52/54/52 88/101/86 89/108/87
f 50/52/50 52/54/52 89/109/87
f 76/80/74 75/81/73 90/110/88
f 75/81/73 77/82/75 90/111/88
f 77/82/75 78/83/76 90/112/88
f 78/83/76 79/84/77 90/113/88
f 79/84/77 80/85/78 90/114/88
f 80/85/78 81/86/79 90/115/88
f 81/86/79 82/87/80 90/116/88
f 82/87/80 76/98/74 90/117/88
