# Blender 4.1.1
# www.blender.org
mtllib polygon688.mtl
o polygon688
v -4419.432129 -4893.920898 -4.999417
v -4531.354980 -5138.529297 -4.999387
v -3961.328857 -5074.584473 -4.999395
v -4013.449219 -5316.803223 -4.999366
v -3576.933105 -5117.649414 -4.999390
v -3590.084229 -5365.955078 -4.999361
v -3148.417969 -5359.243164 -4.999361
v -3185.959961 -5109.862305 -4.999391
v -2765.979248 -5246.946289 -4.999374
v -2826.083008 -5002.722168 -4.999403
v -2460.925049 -5203.807129 -2.035609
v -4679.468262 -4894.288086 -5.499172
v -4578.699219 -4830.939941 -4.999424
v -4763.454102 -5001.959961 -4.999404
v -2421.763184 -4940.053223 -4.999411
v -5041.295898 -5133.995117 0.000612
v -4635.255371 -5367.371094 0.000640
v -4069.179932 -5562.295898 0.000663
v -3601.979248 -5615.631348 0.000669
v -3110.655029 -5608.341309 0.000669
v -2706.706787 -5490.469727 0.000655
v -2492.797119 -5418.201172 0.000890
vn -0.0000 -0.0000 -1.0000
vn 0.0007 0.0001 -1.0000
vn -0.0008 -0.0072 -1.0000
vn -0.0008 -0.0070 -1.0000
vn 0.0021 -0.0072 -1.0000
vn 0.0050 -0.0053 -1.0000
vn 0.0030 -0.0019 -1.0000
vn 0.0044 -0.0067 -1.0000
vn 0.0024 0.0004 -1.0000
vn 0.0045 0.0007 -1.0000
vn -0.0019 -0.0032 -1.0000
vn 0.0018 -0.0115 -0.9999
vn -0.0100 -0.0169 -0.9998
vn -0.0100 -0.0173 -0.9998
vn -0.0065 -0.0189 -0.9998
vn -0.0023 -0.0199 -0.9998
vn -0.0023 -0.0198 -0.9998
vn 0.0003 -0.0200 -0.9998
vn 0.0056 -0.0192 -0.9998
vn 0.0064 -0.0190 -0.9998
vn 0.0113 -0.0112 -0.9999
vt -0.193848 0.000000
vt -0.509766 0.300049
vt -0.446289 0.000000
vt -0.168457 0.300049
vt 0.064941 0.000000
vt 0.095215 0.300049
vt 0.360107 0.300049
vt 0.322022 0.000000
vt 0.597900 0.300049
vt 0.567139 0.000000
vt 0.813721 0.300049
vt -0.532715 0.000000
vt -0.816162 0.000000
vt -0.767334 0.300049
vt 0.819092 0.000000
vt 0.101807 0.300049
vt -0.968262 1.000000
vt -0.790527 0.300049
vt 0.014648 1.000000
vt 1.285156 0.300049
vt 1.308105 1.000000
vt 2.315674 1.000000
vt 3.117188 0.300049
vt 3.338379 1.000000
vt 4.116699 1.000000
vt 3.853027 0.300049
vt 4.698975 1.000000
vt 4.483887 0.300049
vt 2.198730 0.300049
s 1
usemtl mt_suna_blend.005
f 3/1/1 2/2/2 1/3/1
f 4/4/3 2/2/2 3/1/1
f 5/5/1 4/4/3 3/1/1
f 6/6/4 4/4/3 5/5/1
f 7/7/5 6/6/4 5/5/1
f 8/8/1 7/7/5 5/5/1
f 9/9/6 7/7/5 8/8/1
f 10/10/7 9/9/6 8/8/1
f 11/11/8 9/9/6 10/10/7
f 13/12/9 2/2/2 12/13/10
f 1/3/1 2/2/2 13/12/9
s 0
f 2/2/11 14/14/11 12/13/11
s 1
f 15/15/12 11/11/8 10/10/7
s 0
f 2/16/13 16/17/13 14/18/13
f 17/19/14 16/17/14 2/16/14
f 4/20/15 17/19/15 2/16/15
f 18/21/15 17/19/15 4/20/15
s 1
f 19/22/16 18/21/17 4/20/3
s 0
f 7/23/18 20/24/18 19/22/18
s 1
f 21/25/19 20/24/19 7/23/5
f 9/26/6 21/25/19 7/23/5
s 0
f 22/27/20 21/25/20 9/26/20
f 11/28/21 22/27/21 9/26/21
s 1
f 6/29/4 19/22/16 4/20/3
s 0
f 7/23/18 19/22/18 6/29/18
