# Blender 4.1.1
# www.blender.org
mtllib polygon14.mtl
o polygon14
v -421.641388 -2375.617188 -1350.231689
v -443.722382 -2217.681152 -1349.999756
v -515.940063 -2217.681152 -1349.999756
v -479.831146 -2185.631104 -1335.621704
v -526.332458 -2193.213135 -1329.606689
v -530.669678 -2163.833252 -1288.999756
v -539.831177 -2179.421387 -1288.999756
v -530.669678 -2163.833252 -1168.999756
v -539.831177 -2179.421387 -1168.999756
v -533.275269 -2179.421143 -918.999512
v -530.669678 -2195.009277 -1288.999756
v -530.669678 -2195.009277 -1168.999756
v -525.114807 -2193.306152 -918.999512
v -533.275269 -2179.421143 -260.999512
v -525.114807 -2193.306152 -260.999481
v -525.114807 -2165.536133 -260.999542
v -525.114807 -2165.536133 -918.999512
v -434.547699 -2165.536133 -260.999542
v -434.547699 -2165.536133 -918.999512
v -426.387177 -2179.421143 -260.999512
v -426.387177 -2179.421143 -918.999512
v -290.460297 -3583.741211 -1349.999634
v -311.115906 -3491.908203 -1349.999634
v -417.778259 -3600.424072 -1349.999390
v -402.642303 -3502.043945 -1349.999634
v -477.595886 -3464.969971 -1349.999634
v -383.026001 -3379.996338 -1349.999634
v -513.577271 -3376.453125 -1349.999634
v -469.755249 -3213.379883 -1349.999512
v -428.992645 -2195.009277 -1168.999756
v -434.547577 -2193.306152 -918.999512
v -434.547577 -2193.306152 -260.999481
v -428.992645 -2195.009277 -1288.999756
v -419.831268 -2179.421387 -1288.999756
v -419.831177 -2179.421387 -1168.999756
v -280.907104 -3212.338135 -1349.999512
v -333.098846 -3041.068115 -1349.999634
v -461.845062 -3057.543945 -1349.999512
v -476.162170 -2917.305420 -1349.999634
v -329.364868 -2906.647217 -1349.999634
v -363.714050 -2772.225830 -1349.999512
v -465.173187 -2777.066162 -1349.999512
v -401.679352 -2563.748047 -1349.999512
v -473.897186 -2570.974121 -1349.999512
v -494.918396 -2370.511230 -1349.999756
v -433.329987 -2193.213135 -1329.606689
v -428.992798 -2163.833252 -1288.999756
v -428.992798 -2163.833252 -1168.999756
v -266.195587 -3383.609131 -1349.999634
v -597.247559 -3418.533936 -1349.999634
v -539.876770 -3534.433105 -1349.999634
v -176.018097 -3514.543213 -1349.999634
vn -0.0009 0.0009 -1.0000
vn -0.0000 0.0015 -1.0000
vn -0.0023 0.0001 -1.0000
vn -0.0000 0.7024 -0.7118
vn 0.4521 -0.5672 -0.6884
vn -0.4521 -0.5672 -0.6884
vn -0.7146 0.3632 -0.5978
vn -0.4789 0.8427 -0.2460
vn -0.9871 0.0506 -0.1518
vn -0.4988 0.8667 0.0085
vn -0.9999 -0.0000 0.0131
vn -0.9999 -0.0000 0.0132
vn -0.5500 -0.8316 0.0772
vn -0.4988 -0.8667 0.0085
vn -0.4944 -0.8692 0.0085
vn -1.0000 -0.0000 -0.0000
vn -0.4966 -0.8680 -0.0000
vn -0.4967 0.8680 -0.0000
vn -0.4944 0.8692 0.0085
vn 0.4966 0.8680 -0.0000
vn 0.4944 0.8692 0.0085
vn 1.0000 -0.0000 -0.0000
vn 0.9999 -0.0000 0.0132
vn -0.0000 -0.0000 -1.0000
vn 0.4988 -0.8667 0.0085
vn 0.4944 -0.8692 0.0085
vn 0.4966 -0.8680 -0.0000
vn 0.9871 0.0506 -0.1518
vn 0.5500 -0.8316 0.0771
vn 0.9999 -0.0000 0.0131
vn 0.7146 0.3632 -0.5978
vn 0.4790 0.8427 -0.2460
vn 0.4988 0.8667 0.0085
vn -0.0033 -0.0016 -1.0000
vn -0.0032 -0.0004 -1.0000
vt 0.000000 1.813965
vt 1.000000 1.813965
vt 1.000000 2.372803
vt 0.500000 1.548340
vt 0.112549 1.532471
vt 0.076416 1.304932
vt 0.000000 1.304932
vt 0.076416 0.895020
vt 0.000000 0.895020
vt 0.000000 0.403809
vt 2.925049 1.304932
vt 3.000000 1.304932
vt 3.000000 1.813965
vt 3.000000 0.895020
vt 2.925049 0.895020
vt 3.000000 0.403809
vt 2.878662 0.403809
vt 3.000000 -0.632080
vt 2.878662 -0.632080
vt 0.122559 -0.632080
vt 0.000000 -0.632080
vt 0.122559 0.403809
vt 0.877441 -0.632080
vt 0.877441 0.403809
vt 1.000000 -0.632080
vt 1.000000 0.403809
vt 0.497803 8.331543
vt 0.715088 7.959229
vt 0.838135 8.285399
vt 0.510010 8.004883
vt 0.280029 7.936523
vt 0.495117 7.423096
vt 0.000000 7.423096
vt 0.000000 6.659424
vt 2.077637 0.895020
vt 2.124023 0.403809
vt 2.000000 0.403809
vt 2.124023 -0.632080
vt 2.000000 -0.632080
vt 2.000000 1.304932
vt 2.077637 1.304932
vt 2.000000 1.813965
vt 2.000000 0.895020
vt 1.000000 6.674316
vt 1.000000 5.925781
vt 0.000000 5.925781
vt 0.000000 5.199219
vt 0.000000 4.472412
vt 1.000000 4.119873
vt 1.000000 5.022705
vt 1.000000 3.035889
vt 0.000000 3.261963
vt 0.000000 2.441406
vt 0.887451 1.532471
vt 1.000000 1.304932
vt 0.923584 1.304932
vt 1.000000 0.895020
vt 0.923584 0.895020
vt 1.000000 7.423096
vt 0.000000 7.981445
vt 0.152832 8.264648
vt 1.000000 8.082031
s 1
usemtl mt_zc_w_nagare
f 3/1/1 2/2/2 1/3/3
f 4/4/4 2/2/5 3/1/6
f 5/5/7 4/4/4 3/1/6
f 6/6/8 4/4/4 5/5/7
f 7/7/9 6/6/8 5/5/7
f 8/8/10 6/6/8 7/7/9
f 9/9/11 8/8/10 7/7/9
f 10/10/12 8/8/10 9/9/11
f 11/11/13 7/12/9 3/13/6
f 9/14/11 7/12/9 11/11/13
f 12/15/14 9/14/11 11/11/13
f 10/16/12 9/14/11 12/15/14
f 13/17/15 10/16/12 12/15/14
f 14/18/16 10/16/12 13/17/15
f 15/19/17 14/18/16 13/17/15
f 16/20/18 10/10/12 14/21/16
f 17/22/19 10/10/12 16/20/18
f 18/23/20 17/22/19 16/20/18
f 19/24/21 17/22/19 18/23/20
f 20/25/22 19/24/21 18/23/20
f 21/26/23 19/24/21 20/25/22
s 0
f 24/27/24 23/28/24 22/29/24
f 25/30/24 23/28/24 24/27/24
f 26/31/24 25/30/24 24/27/24
f 27/32/24 25/30/24 26/31/24
f 28/33/24 27/32/24 26/31/24
f 29/34/24 27/32/24 28/33/24
s 1
f 30/35/25 13/17/15 12/15/14
f 31/36/26 13/17/15 30/35/25
f 21/37/23 31/36/26 30/35/25
f 32/38/27 31/36/26 21/37/23
f 20/39/22 32/38/27 21/37/23
f 34/40/28 33/41/29 2/42/5
f 30/35/25 33/41/29 34/40/28
f 35/43/30 30/35/25 34/40/28
f 21/37/23 30/35/25 35/43/30
s 0
f 29/34/24 36/44/24 27/32/24
f 37/45/24 36/44/24 29/34/24
f 38/46/24 37/45/24 29/34/24
f 39/47/24 37/45/24 38/46/24
f 42/48/24 41/49/24 40/50/24
f 43/51/24 41/49/24 42/48/24
f 44/52/24 43/51/24 42/48/24
f 45/53/24 43/51/24 44/52/24
s 1
f 46/54/31 34/55/28 2/2/5
f 47/56/32 34/55/28 46/54/31
f 4/4/4 47/56/32 46/54/31
f 6/6/8 47/56/32 4/4/4
f 47/56/32 35/57/30 34/55/28
f 48/58/33 35/57/30 47/56/32
f 6/6/8 48/58/33 47/56/32
f 8/8/10 48/58/33 6/6/8
s 0
f 27/32/24 23/28/24 25/30/24
f 49/59/24 23/28/24 27/32/24
f 36/44/24 49/59/24 27/32/24
f 26/31/24 50/60/24 28/33/24
f 51/61/24 50/60/24 26/31/24
f 24/27/24 51/61/24 26/31/24
s 1
f 48/58/33 21/26/23 35/57/30
f 19/24/21 21/26/23 48/58/33
f 8/8/10 19/24/21 48/58/33
f 2/42/5 11/11/13 3/13/6
f 33/41/29 11/11/13 2/42/5
f 33/41/29 12/15/14 11/11/13
f 30/35/25 12/15/14 33/41/29
f 31/36/26 15/19/17 13/17/15
f 32/38/27 15/19/17 31/36/26
s 0
f 23/28/24 52/62/24 22/29/24
f 49/59/24 52/62/24 23/28/24
f 39/47/24 40/50/24 37/45/24
f 42/48/24 40/50/24 39/47/24
f 45/53/34 1/3/34 43/51/34
s 1
f 3/1/1 1/3/3 45/53/35
f 17/22/19 8/8/10 10/10/12
f 19/24/21 8/8/10 17/22/19
f 7/7/9 5/5/7 3/1/6
f 46/54/31 2/2/5 4/4/4
