# Blender 4.1.1
# www.blender.org
mtllib polygon347.mtl
o polygon347
v 272.769196 2206.505127 -158.611862
v 264.637482 2214.637207 -155.861862
v 262.484100 2196.219971 -158.611847
v 254.352371 2204.352051 -155.861862
v 161.785599 2111.785156 -155.861847
v 1458.587891 794.412781 -158.611679
v 1466.719971 786.281067 -155.861679
v 1468.873047 804.698181 -158.611679
v 1477.005127 796.566467 -155.861679
v 1569.571045 889.133179 -155.861710
v 1561.439941 897.264893 -158.611694
v 1579.857056 899.418091 -155.861694
v 1571.725098 907.549988 -158.611694
v 169.917374 2103.654053 -158.611847
v 159.632202 2093.368164 -158.611832
v 151.500397 2101.500000 -155.861847
v 1228.071045 1265.346069 -3.195151
v 630.565491 1863.443115 -3.195223
v 1210.667114 1247.941040 -3.195149
v 612.974915 1845.770996 -3.195220
v 458.882294 1774.926025 -3.195212
v 441.525055 1757.487915 -3.195210
v 1095.668091 1109.593018 -3.195133
v 1114.563110 1128.489014 -3.195135
vn -0.1645 0.1645 -0.9726
vn 0.1645 -0.1644 -0.9726
vn 0.1645 -0.1645 -0.9726
vn 0.1644 -0.1645 -0.9726
vn -0.0000 -0.0000 -1.0000
vt 0.888916 1.000000
vt 1.116150 0.599976
vt 1.116150 1.000000
vt 0.888916 0.599976
vt 0.356140 0.599976
vt -0.851257 1.000000
vt -1.078491 0.599976
vt -1.078491 1.000000
vt -0.851257 0.599976
vt -0.318481 0.599976
vt -0.318481 1.000000
vt -0.091187 0.599976
vt -0.091187 1.000000
vt 0.356140 1.000000
vt 0.128906 1.000000
vt 0.128906 0.599976
vt 1.274963 0.799988
vt -0.233398 1.000000
vt 1.274963 1.000000
vt -0.233398 0.799988
s 1
usemtl mt_gake_blend.013
f 3/1/1 2/2/1 1/3/1
f 4/4/1 2/2/1 3/1/1
f 5/5/1 4/4/1 3/1/1
f 8/6/2 7/7/2 6/8/2
f 9/9/2 7/7/2 8/6/2
f 10/10/3 9/9/2 8/6/2
f 11/11/3 10/10/3 8/6/2
f 12/12/3 10/10/3 11/11/3
f 13/13/4 12/12/3 11/11/3
f 14/14/1 5/5/1 3/1/1
f 15/15/1 5/5/1 14/14/1
f 5/5/1 15/15/1 16/16/1
s 0
f 19/17/5 18/18/5 17/19/5
f 20/20/5 18/18/5 19/17/5
f 21/20/5 20/20/5 19/17/5
f 21/20/5 23/19/5 22/18/5
f 24/17/5 23/19/5 21/20/5
f 19/17/5 24/17/5 21/20/5
