# Blender 4.1.1
# www.blender.org
mtllib polygon517.mtl
o polygon517
v -118.527100 2445.993164 -104.788986
v -118.527100 2445.993164 -98.978165
v -350.371704 2445.992188 -89.044258
v -350.371704 2445.992188 -83.530029
v -543.270569 2445.993164 -74.660980
v -543.270569 2445.993164 -69.610641
v -740.264954 2445.993164 -63.168205
v -740.264954 2445.993164 -58.303913
v -891.024963 2445.993164 -63.263428
v -891.024963 2445.993164 -58.366405
v -118.527100 2445.993164 -43.204990
v -350.371704 2445.992188 -43.201126
v -543.270569 2445.993164 -43.095287
v -740.264954 2445.993164 -43.033131
v -891.024963 2445.993164 -42.893833
vn -0.0000 1.0000 -0.0000
vt 101.541008 0.146484
vt 106.541008 0.228516
vt 106.541008 0.304688
vt 101.541008 0.068359
vt 96.291016 -0.023438
vt 96.291016 -0.099609
vt 91.791016 -0.167969
vt 91.791016 -0.248047
vt 88.238281 -0.167969
vt 88.238281 -0.248047
vt 106.541008 -0.498047
vt 101.541008 -0.496094
vt 96.291016 -0.505859
vt 91.791016 -0.498047
vt 88.238281 -0.500000
s 0
usemtl mt_town_n_isigakiB2.002
f 3/1/1 2/2/1 1/3/1
f 4/4/1 2/2/1 3/1/1
f 5/5/1 4/4/1 3/1/1
f 6/6/1 4/4/1 5/5/1
f 7/7/1 6/6/1 5/5/1
f 8/8/1 6/6/1 7/7/1
f 9/9/1 8/8/1 7/7/1
f 10/10/1 8/8/1 9/9/1
f 4/4/1 11/11/1 2/2/1
f 12/12/1 11/11/1 4/4/1
f 6/6/1 12/12/1 4/4/1
f 13/13/1 12/12/1 6/6/1
f 8/8/1 13/13/1 6/6/1
f 14/14/1 13/13/1 8/8/1
f 15/15/1 8/8/1 10/10/1
f 14/14/1 8/8/1 15/15/1
