# Blender 4.1.1
# www.blender.org
mtllib Object_7.mtl
o Object_10
v 1116936.875000 1106068.000000 2859.980469
v 1116872.625000 1107151.250000 2859.980713
v 1116872.625000 1106004.250000 2859.980225
v 1116936.875000 1107153.500000 2859.980713
v 1117338.500000 1106518.125000 2859.980469
v 1117338.500000 1107153.500000 2859.980713
v 1118526.375000 1107153.500000 2859.980713
v 1118526.375000 1107788.875000 2859.980957
v 1119714.250000 1107153.500000 2859.980713
v 1119714.250000 1107788.875000 2859.980957
v 1120115.375000 1107153.500000 2859.980713
v 1120115.375000 1108233.875000 2859.981201
v 1120179.375000 1107151.250000 2859.980713
v 1120179.375000 1108298.250000 2859.981201
v 1118526.000000 1106004.250000 2859.980225
v 1118526.375000 1106068.000000 2859.980469
v 1120115.375000 1106068.000000 2859.980469
v 1119714.250000 1106518.125000 2859.980469
v 1118526.000000 1108298.250000 2859.981201
v 1118526.375000 1108233.875000 2859.981201
v 1116936.875000 1108233.875000 2859.981201
v 1117338.500000 1107788.875000 2859.980957
v 1118526.375000 1106518.125000 2859.980469
v 1120179.375000 1106004.250000 2859.980225
v 1116872.625000 1108298.250000 2859.981201
vn -0.0000 -0.0000 1.0000
vt -0.479065 0.467468
vt -0.499359 0.001434
vt -0.499359 0.498413
vt -0.479065 0.000366
vt -0.359497 0.275238
vt -0.359497 0.000366
vt 0.000244 0.000366
vt 0.000244 -0.276489
vt 0.360596 0.000366
vt 0.360596 -0.276489
vt 0.479492 0.000366
vt 0.479492 -0.466583
vt 0.499725 0.001434
vt 0.499725 -0.497864
vt 0.000122 0.498413
vt 0.000244 0.467468
vt 0.479492 0.467468
vt 0.360596 0.275238
vt 0.000122 -0.497864
vt 0.000244 -0.466583
vt -0.479065 -0.466583
vt -0.359497 -0.276489
vt 0.000244 0.275238
vt 0.499725 0.498413
vt -0.499359 -0.497864
s 0
usemtl Material_179_6
f 1/1/1 2/2/1 3/3/1
f 1/1/1 4/4/1 2/2/1
f 5/5/1 4/4/1 1/1/1
f 5/5/1 6/6/1 4/4/1
f 7/7/1 6/6/1 5/5/1
f 7/7/1 8/8/1 6/6/1
f 9/9/1 8/8/1 7/7/1
f 9/9/1 10/10/1 8/8/1
f 11/11/1 10/10/1 9/9/1
f 11/11/1 12/12/1 10/10/1
f 13/13/1 12/12/1 11/11/1
f 13/13/1 14/14/1 12/12/1
f 15/15/1 1/1/1 3/3/1
f 15/15/1 16/16/1 1/1/1
f 17/17/1 16/16/1 15/15/1
f 17/17/1 18/18/1 16/16/1
f 11/11/1 18/18/1 17/17/1
f 11/11/1 9/9/1 18/18/1
f 19/19/1 12/12/1 14/14/1
f 19/19/1 20/20/1 12/12/1
f 21/21/1 20/20/1 19/19/1
f 21/21/1 22/22/1 20/20/1
f 4/4/1 22/22/1 21/21/1
f 4/4/1 6/6/1 22/22/1
f 16/16/1 5/5/1 1/1/1
f 16/16/1 23/23/1 5/5/1
f 18/18/1 23/23/1 16/16/1
f 18/18/1 7/7/1 23/23/1
f 9/9/1 7/7/1 18/18/1
f 20/20/1 10/10/1 12/12/1
f 20/20/1 8/8/1 10/10/1
f 22/22/1 8/8/1 20/20/1
f 22/22/1 6/6/1 8/8/1
f 24/24/1 17/17/1 15/15/1
f 24/24/1 13/13/1 17/17/1
f 25/25/1 21/21/1 19/19/1
f 25/25/1 2/2/1 21/21/1
f 17/17/1 13/13/1 11/11/1
f 21/21/1 2/2/1 4/4/1
f 7/7/1 5/5/1 23/23/1
