# Blender 4.1.1
# www.blender.org
mtllib polygon356.mtl
o polygon356
v 5394.579102 -124.722504 -86.386612
v 5162.666016 247.007385 -86.386658
v 5142.516113 -300.019379 -106.588654
v 4914.173340 57.685307 -106.588707
v 4518.049316 545.766602 -105.120972
vn 0.0558 0.0348 -0.9978
vn 0.0524 0.0381 -0.9979
vn 0.0553 0.0348 -0.9979
vn 0.0517 0.0386 -0.9979
vn 0.0487 0.0425 -0.9979
vt 40.888668 2.945313
vt 41.046879 -1.328125
vt 42.859379 1.576172
vt 39.105469 0.150391
vt 36.011719 -3.662109
s 1
usemtl mt_suna.005
f 3/1/3 2/2/2 1/3/1
f 4/4/4 2/2/2 3/1/3
f 5/5/5 2/2/2 4/4/4
