# Blender 4.1.1
# www.blender.org
mtllib polygon364.mtl
o polygon364
v 3233.659912 -6011.814453 -166.462769
v 3067.945801 -5933.189453 -173.884796
v 3235.632080 -5950.020020 -190.833313
v 3104.003906 -5847.101074 -142.694305
v 3237.933105 -5854.837891 -153.436310
v 3237.252197 -5794.621094 -70.472176
v 154.415695 -8666.436523 -120.249664
v 168.805191 -8531.598633 -119.920280
v 268.590881 -8663.352539 -144.501968
v 276.605194 -8514.637695 -143.505371
v 368.367493 -8518.331055 -101.913582
v 3234.717041 -6048.716309 -87.710403
v 3059.359863 -6024.255371 -82.076180
v 3058.661133 -5979.922852 -151.211182
v 3071.873047 -5791.062500 -70.805450
v 159.385803 -8501.194336 132.590607
v 150.257202 -8530.415039 -60.025917
v 159.033005 -8660.908203 132.590637
v 153.003876 -8666.221680 -60.460854
v 380.171661 -8664.023438 -119.590973
v 379.221100 -8664.353516 -59.590965
v 375.690491 -8520.141602 -41.913612
v 381.266602 -8663.224609 132.590637
v 386.940277 -8513.931641 132.590622
v 3053.209229 -6026.779297 151.939606
v 3235.432129 -6051.582520 129.000717
v 3236.557129 -5797.431641 129.000687
v 3104.668945 -5800.634277 146.935699
vn 0.1295 0.3602 0.9238
vn 0.0578 -0.3614 0.9306
vn 0.0534 -0.3663 0.9290
vn 0.0004 -0.8093 0.5874
vn 0.2084 -0.0246 0.9777
vn 0.2164 -0.0182 0.9761
vn -0.4122 0.0161 0.9109
vn 0.1386 0.8975 0.4187
vn 0.1966 0.8263 0.5279
vn 0.1526 0.4067 0.9007
vn 0.5958 -0.4822 0.6422
vn 0.9820 -0.1278 0.1388
vn 0.9977 -0.0515 -0.0431
vn 0.9989 -0.0022 -0.0470
vn 0.9993 0.0203 -0.0318
vn 0.9552 0.0184 0.2954
vn 0.9941 -0.1061 0.0239
vn -0.2167 -0.1349 0.9669
vn -0.9968 -0.0788 -0.0162
vn -0.9920 -0.0390 0.1199
vn -0.9996 -0.0258 0.0108
vn -0.0559 -0.9977 0.0391
vn 0.0331 -0.9884 0.1484
vn 0.1704 -0.9827 0.0722
vn 0.0266 -0.9888 -0.1466
vn 0.1366 0.9905 0.0143
vn 0.1385 0.9903 0.0126
vn 0.0224 -0.9997 -0.0140
vn -0.0214 -0.9989 -0.0407
vn 0.9982 -0.0548 0.0256
vn 0.9626 -0.2225 -0.1548
vn -0.9973 0.0379 0.0629
vn 0.0484 -0.9982 -0.0360
vn -0.0183 -0.7925 0.6096
vt 0.000000 -8.299316
vt 0.000000 -7.780762
vt 0.669922 -8.355469
vt -0.669922 -8.071289
vt -0.669922 -8.366699
vt -1.340332 -8.393555
vt 0.000000 8.470215
vt -0.669922 8.157715
vt -0.669922 8.502441
vt 0.000000 8.044434
vt 0.669922 8.075684
vt 1.340332 -7.718262
vt 1.340332 -8.331543
vt 0.669922 -7.798828
vt 1.340332 -6.685547
vt 1.340332 -6.943359
vt 1.340332 -6.814453
vt 1.340332 -7.071777
vt 1.340332 -7.200684
vt -2.506348 8.468262
vt -1.340332 8.145996
vt -2.506348 7.984863
vt -1.340332 8.497069
vt 0.669922 8.504395
vt 1.340332 8.467285
vt 1.340332 8.069824
vt 2.506348 8.459473
vt -2.506348 7.501953
vt -1.340332 6.709473
vt -2.506348 6.910156
vt -1.340332 7.794922
vt -1.340332 7.251953
vt -1.340332 7.523438
vt -1.340332 6.980957
vt 2.506348 -8.325684
vt 2.506348 -7.691895
vt -2.506348 -8.109375
vt -2.506348 -8.385254
vt -1.340332 -7.865723
vt 2.506348 -7.003906
vt 2.506348 -6.317383
vt 2.506348 8.023926
s 0
usemtl mt_gake_off.003
f 3/1/1 2/2/1 1/3/1
f 4/4/2 2/2/2 3/1/2
f 5/5/3 4/4/3 3/1/3
f 6/6/4 4/4/4 5/5/4
f 9/7/5 8/8/5 7/9/5
f 10/10/6 8/8/6 9/7/6
f 11/11/7 10/10/7 9/7/7
f 1/3/8 13/12/8 12/13/8
f 14/14/9 13/12/9 1/3/9
f 2/2/10 14/14/10 1/3/10
f 15/15/11 2/16/11 4/17/11
f 14/18/12 2/16/12 15/15/12
f 13/19/13 14/18/13 15/15/13
f 18/20/14 17/21/14 16/22/14
f 19/23/15 17/21/15 18/20/15
f 19/23/16 8/8/16 17/21/16
f 7/9/17 8/8/17 19/23/17
f 20/24/18 11/11/18 9/7/18
f 21/25/19 11/11/19 20/24/19
f 21/25/20 22/26/20 11/11/20
f 23/27/21 22/26/21 21/25/21
f 16/28/22 22/29/22 24/30/22
f 17/31/23 22/29/23 16/28/23
f 10/32/24 17/31/24 8/33/24
f 11/34/25 17/31/25 10/32/25
f 26/35/26 13/12/26 25/36/26
f 12/13/27 13/12/27 26/35/27
f 28/37/28 6/6/28 27/38/28
f 15/39/29 6/6/29 28/37/29
f 15/15/30 25/40/30 13/19/30
f 28/41/31 25/40/31 15/15/31
f 24/42/32 22/26/32 23/27/32
f 22/29/33 17/31/33 11/34/33
f 15/39/34 4/4/34 6/6/34
