# Blender 4.1.1
# www.blender.org
mtllib polygon439.mtl
o polygon439
v -2027.265991 2482.998779 -277.010101
v -2034.996948 2481.929199 -272.546600
v -2031.729980 2481.929199 -269.279083
v -2027.265991 2481.929199 -268.083099
v -2022.803101 2481.929199 -269.279083
v -2019.535156 2481.929199 -272.546600
v -2036.193115 2481.928955 -277.010101
v -2034.996948 2481.928955 -281.473602
v -2031.729980 2481.928955 -284.741089
v -2018.338989 2481.928955 -277.010101
v -2022.803101 2481.928955 -284.741089
v -2027.265991 2481.928955 -285.937103
v -2019.535156 2481.928955 -281.473602
vn -0.0000 -1.0000 -0.0000
vn 0.1030 -0.9929 -0.0595
vn 0.0595 -0.9929 -0.1030
vn -0.0000 -0.9929 -0.1190
vn -0.0594 -0.9929 -0.1030
vn -0.1030 -0.9929 -0.0595
vn 0.1189 -0.9929 -0.0000
vn 0.1030 -0.9929 0.0595
vn 0.0595 -0.9929 0.1030
vn -0.1189 -0.9929 -0.0000
vn -0.0594 -0.9929 0.1031
vn -0.0000 -0.9929 0.1190
vn -0.1030 -0.9929 0.0595
vt 0.125000 0.211639
vt 0.125000 0.317444
vt 0.198395 0.267181
s 1
usemtl mt_big_bridge.002
f 3/1/3 2/2/2 1/3/1
f 4/1/4 3/2/3 1/3/1
f 5/2/5 4/1/4 1/3/1
f 6/2/6 5/1/5 1/3/1
f 2/1/2 7/2/7 1/3/1
f 7/2/7 8/1/8 1/3/1
f 8/2/8 9/1/9 1/3/1
f 10/2/10 6/1/6 1/3/1
f 12/1/12 11/2/11 1/3/1
f 9/2/9 12/1/12 1/3/1
f 11/1/11 13/2/13 1/3/1
f 13/1/13 10/2/10 1/3/1
