# Blender 4.1.1
# www.blender.org
mtllib polygon25.001.mtl
o polygon25.001
v 107.853096 -2166.846191 -259.999542
v 54.985653 -2274.552002 -259.999512
v 240.742004 -2267.494141 -284.652832
v 194.406082 -2359.294434 -284.652832
v 353.897369 -2326.117188 -296.476318
v 305.740784 -2417.114258 -298.472748
v 461.566589 -2392.895996 -308.299774
v 411.594788 -2483.092041 -312.292572
v 534.785034 -2544.412354 -323.246490
v 1083.556030 -3838.989014 -505.889893
v 1056.996094 -3993.426025 -531.114502
v 1191.919067 -4010.697754 -531.114563
v 1040.828003 -4138.226074 -553.537476
v 1185.656006 -4170.899902 -553.537476
v 1004.041077 -4278.824707 -575.960571
v 1158.828979 -4326.476074 -575.960571
v 1114.431030 -4451.420410 -594.646362
v 589.726501 -2456.792236 -316.250092
v 648.888794 -2618.879395 -334.200378
v 710.330383 -2534.954102 -324.200348
v 845.580811 -2609.643311 -342.801880
v 819.387024 -2801.742188 -361.403442
v 802.106873 -2883.193115 -364.999451
v 1098.414062 -2795.406250 -364.999481
v 873.294189 -2996.898926 -366.950439
v 1067.173096 -2872.646240 -368.544342
v 1043.876099 -2965.206787 -366.702820
v 1060.020996 -3529.957764 -455.440887
v 1068.197021 -3684.551758 -480.665375
v 1191.901001 -3677.694580 -480.665375
v 1212.843018 -3844.408691 -505.889923
v 951.343018 -4391.286621 -594.646301
v 959.900146 -4420.371582 -598.383484
v 1091.092041 -4468.219727 -598.383545
v 1049.929077 -4542.843262 -615.977173
v -69.802910 -2231.343018 -260.999512
v -10.295179 -2136.347168 -260.999542
v 49.212547 -2041.351807 -260.999542
v 1078.553101 -3041.298096 -376.385651
v 940.235046 -3085.762939 -376.385681
v 1111.787109 -3197.947998 -402.737457
v 980.199585 -3233.965820 -402.737427
v 1032.341064 -3377.968018 -429.089081
v 788.946533 -2746.513916 -348.627930
v 982.301697 -2685.407959 -361.403503
v 1157.196045 -3350.392090 -429.089081
v 1178.143066 -3510.822754 -455.440857
v 955.272461 -4514.102539 -615.977173
vn -0.1096 0.0550 -0.9925
vn -0.0628 0.0309 -0.9975
vn -0.0464 0.0225 -0.9987
vn -0.1086 0.0601 -0.9923
vn -0.0790 0.0583 -0.9952
vn -0.0807 0.0698 -0.9943
vn -0.0561 0.0774 -0.9954
vn -0.0641 0.0795 -0.9948
vn -0.0309 0.0909 -0.9954
vn 0.0141 0.1541 -0.9880
vn 0.0202 0.1578 -0.9873
vn 0.0062 0.1536 -0.9881
vn 0.0193 0.1509 -0.9884
vn 0.0319 0.1414 -0.9894
vn 0.0326 0.1446 -0.9889
vn 0.0310 0.1374 -0.9900
vn 0.0336 0.1488 -0.9883
vn 0.0417 0.1355 -0.9899
vn 0.0484 0.1398 -0.9890
vn 0.0473 0.1374 -0.9894
vn 0.0411 0.1335 -0.9902
vn -0.0159 0.0976 -0.9951
vn -0.0286 0.1094 -0.9936
vn -0.0229 0.1348 -0.9906
vn -0.0677 0.0865 -0.9939
vn -0.0201 0.0328 -0.9993
vn -0.0087 0.0292 -0.9995
vn -0.0526 0.0866 -0.9949
vn -0.0097 0.0415 -0.9991
vn -0.0378 0.0461 -0.9982
vn -0.0106 0.0384 -0.9992
vn -0.0085 0.1556 -0.9878
vn -0.0089 0.1605 -0.9870
vn -0.0223 0.1592 -0.9870
vn 0.0063 0.1498 -0.9887
vn 0.0520 0.1410 -0.9886
vn 0.0561 0.1588 -0.9857
vn 0.0599 0.1642 -0.9846
vn 0.0646 0.1883 -0.9800
vn 0.0071 -0.0042 -1.0000
vn 0.0066 -0.0041 -1.0000
vn 0.0073 -0.0046 -1.0000
vn -0.0472 0.1595 -0.9861
vn -0.0336 0.1263 -0.9914
vn -0.0427 0.1330 -0.9902
vn -0.0447 0.1632 -0.9856
vn -0.0449 0.1641 -0.9854
vn -0.0853 0.1062 -0.9907
vn -0.0465 0.0518 -0.9976
vn -0.0353 0.1600 -0.9865
vn -0.0272 0.1552 -0.9875
vn -0.0316 0.1610 -0.9865
vn -0.0348 0.1576 -0.9869
vn 0.0551 0.1816 -0.9818
vt 1.000000 1.736816
vt 0.000000 0.736816
vt 1.000000 0.736816
vt 0.000000 1.736816
vt 1.000000 2.569336
vt 0.000000 2.569336
vt 1.000000 3.401367
vt 0.000000 3.401367
vt 0.000000 4.098633
vt 1.000000 12.986330
vt 0.000000 12.982420
vt 0.000000 12.528810
vt 0.000000 13.450200
vt 1.000000 13.453130
vt 0.000000 13.918460
vt 1.000000 13.919430
vt 1.000000 14.308590
vt 1.000000 4.098633
vt 0.000000 4.796387
vt 1.000000 4.796387
vt 1.000000 5.902344
vt 1.000000 7.972656
vt 0.000000 7.565918
vt 0.000000 6.860352
vt 0.000000 8.766113
vt 1.000000 8.620117
vt 1.000000 9.406738
vt 1.000000 12.010250
vt 0.000000 12.075680
vt 0.000000 11.622069
vt 1.000000 12.498050
vt 0.000000 14.308109
vt 0.000000 14.386230
vt 1.000000 14.386230
vt 1.000000 14.729489
vt 0.500000 0.000000
vt 0.000000 0.000000
vt 1.000000 0.000000
vt 1.000000 10.520020
vt 0.000000 10.087399
vt 1.000000 10.019040
vt 0.000000 10.599120
vt 0.000000 11.110350
vt 0.000000 6.007324
vt 1.000000 7.008301
vt 1.000000 11.021001
vt 1.000000 11.522460
vt 0.000000 14.729489
s 1
usemtl mt_zc_w_nagare_off
f 3/1/1 2/2/2 1/3/3
f 4/4/4 2/2/2 3/1/1
f 5/5/5 4/4/4 3/1/1
f 6/6/6 4/4/4 5/5/5
f 7/7/7 6/6/6 5/5/5
f 8/8/8 6/6/6 7/7/7
f 9/9/9 8/8/8 7/7/7
f 12/10/10 11/11/11 10/12/12
s 0
f 13/13/13 11/11/13 12/10/13
s 1
f 14/14/14 13/13/15 12/10/16
f 15/15/17 13/13/15 14/14/14
s 0
f 16/16/18 15/15/18 14/14/18
s 1
f 17/17/19 15/15/20 16/16/21
f 18/18/22 9/9/9 7/7/7
f 19/19/23 9/9/9 18/18/22
f 20/20/24 19/19/23 18/18/22
f 21/21/25 19/19/23 20/20/24
f 24/22/26 23/23/27 22/24/28
f 25/25/29 23/23/27 24/22/26
f 26/26/30 25/25/29 24/22/26
f 27/27/31 25/25/29 26/26/30
f 30/28/32 29/29/33 28/30/34
f 10/12/12 29/29/33 30/28/32
f 31/31/35 10/12/12 30/28/32
f 12/10/10 10/12/12 31/31/35
f 17/17/19 32/32/36 15/15/20
f 33/33/37 32/32/36 17/17/19
f 34/34/38 33/33/37 17/17/19
f 35/35/39 33/33/37 34/34/38
f 37/36/40 2/2/2 36/37/41
f 1/3/3 2/2/2 37/36/40
f 38/38/42 1/3/3 37/36/40
f 41/39/43 40/40/44 39/41/45
f 42/42/46 40/40/44 41/39/43
s 0
f 43/43/47 42/42/47 41/39/47
s 1
f 21/21/25 44/44/48 19/19/23
f 45/45/49 44/44/48 21/21/25
f 45/45/49 22/24/28 44/44/48
f 24/22/26 22/24/28 45/45/49
f 27/27/31 40/40/44 25/25/29
f 39/41/45 40/40/44 27/27/31
s 0
f 46/46/50 43/43/50 41/39/50
s 1
f 47/47/51 43/43/52 46/46/53
f 47/47/51 28/30/34 43/43/52
f 30/28/32 28/30/34 47/47/51
f 33/33/37 35/35/39 48/48/54
