# Blender 4.1.1
# www.blender.org
mtllib polygon564.mtl
o polygon564
v -2260.347168 3012.954834 -160.222961
v -2260.347168 3012.954834 -69.000114
v -2260.347168 2892.954834 -160.222961
v -2260.347168 2892.954834 -69.000099
v -2086.456055 2892.954834 -160.222961
v -2086.456055 2892.954834 -69.000099
v -2086.454834 3012.954834 -160.222961
v -2086.454834 3012.954834 -69.000114
v -2453.748047 3392.954834 -209.000214
v -2453.748047 3392.954834 -69.000160
v -2630.257080 3294.574219 -209.000198
v -2630.257080 3294.574219 -69.000137
v -2563.458008 3177.077148 -209.000183
v -2563.458008 3177.077148 -69.000145
v -2453.748047 3238.225830 -209.000183
v -2453.748047 3238.225830 -69.000137
vn -1.0000 -0.0000 -0.0000
vn -0.0000 -1.0000 -0.0000
vn 1.0000 -0.0000 -0.0000
vn -0.0000 1.0000 -0.0000
vn -0.4869 0.8735 -0.0000
vn -0.8693 -0.4942 -0.0000
vn 0.4868 -0.8735 -0.0000
vn 0.4869 -0.8735 -0.0000
vt -3.000000 1.000000
vt -2.000000 -0.031250
vt -2.000000 1.000000
vt -3.000000 -0.031250
vt 1.000000 1.000000
vt 3.000000 -0.031250
vt 3.000000 1.000000
vt 1.000000 -0.031250
vt 0.000000 1.000000
vt 0.000000 -0.031250
vt -4.000000 2.000000
vt -2.000000 -0.125000
vt -2.000000 2.000000
vt -4.000000 -0.125000
vt 2.000000 2.000000
vt 4.000000 -0.125000
vt 4.000000 2.000000
vt 2.000000 -0.125000
vt 0.000000 2.000000
vt 0.000000 -0.125000
s 0
usemtl mt_town_kabeBC.002
f 3/1/1 2/2/1 1/3/1
f 4/4/1 2/2/1 3/1/1
f 5/5/2 4/6/2 3/7/2
f 6/8/2 4/6/2 5/5/2
f 7/9/3 6/8/3 5/5/3
f 8/10/3 6/8/3 7/9/3
f 1/3/4 8/10/4 7/9/4
f 2/2/4 8/10/4 1/3/4
f 11/11/5 10/12/5 9/13/5
f 12/14/5 10/12/5 11/11/5
f 13/15/6 12/16/6 11/17/6
f 14/18/6 12/16/6 13/15/6
f 15/19/7 14/18/7 13/15/7
f 16/20/8 14/18/8 15/19/8
f 9/13/3 16/20/3 15/19/3
f 10/12/3 16/20/3 9/13/3
