# Blender 4.1.1
# www.blender.org
mtllib polygon819.mtl
o polygon819
v 1592.774048 -4990.499512 -2570.800537
v 1865.364014 -5016.205566 -2558.020752
v 1613.833130 -4791.250488 -2868.836914
v 1889.718994 -4811.944824 -2900.099609
v 1832.977051 -4481.651367 -3570.206543
v 2107.567139 -4606.285156 -3069.596680
v 2014.366943 -4411.118652 -3593.518799
v 2130.777100 -4313.130371 -3600.928467
v 1956.591064 -4297.807129 -4095.299316
v 2018.501953 -4207.062500 -4091.420654
v 1894.982910 -4175.248535 -4582.438965
v 2023.004150 -4132.831543 -4088.246582
v 1965.042114 -4112.287598 -4609.961426
v 2023.711060 -4956.253906 -2553.444580
v 2223.321045 -4837.673828 -2596.038574
v 2505.091064 -4622.482422 -2614.574463
v 2364.327148 -4405.039551 -3048.733398
v 2612.704102 -4524.392090 -2620.264648
v 2520.052002 -4224.258789 -3023.837646
v 2762.299072 -4297.625977 -2612.970703
v 2613.859863 -4091.297607 -2944.006592
v 2813.868896 -4122.859863 -2608.799561
v 2833.429932 -3889.083252 -2587.838379
v 1825.329956 -3685.550049 -4591.717773
v 1853.766113 -3621.377686 -4066.380615
v 1721.748047 -3646.117676 -4559.817871
v 1786.678101 -3574.934570 -4064.394775
v 1597.421021 -3583.226318 -4064.749512
v 1517.596069 -3437.568604 -3567.349365
v 1365.696045 -3632.249756 -3597.467529
v 1157.385010 -3263.475342 -2852.846680
v 1153.431030 -3593.343262 -3070.581299
v 922.527588 -3588.417236 -2656.035645
v 1138.656006 -3705.979736 -3115.291748
v 877.242004 -3968.227295 -2525.754639
v 1175.411011 -4187.908691 -3211.787598
v 2051.389160 -3848.548584 -4598.686523
v 2136.437012 -3808.331787 -4074.373779
v 2041.612915 -3727.381592 -4563.291504
v 2163.273193 -3743.442627 -4071.599365
v 2136.415039 -3620.487549 -4066.342529
v 2299.593994 -3682.248779 -3647.330322
v 2265.269043 -3511.239746 -3646.472656
v 2396.367188 -3478.444336 -3250.739502
v 2122.387207 -3402.804443 -3612.559082
v 2301.574219 -3256.593262 -3067.799561
v 2075.541992 -3119.688477 -2879.314697
v 2308.631104 -2955.726074 -2559.391602
v 2151.632080 -2932.627197 -2485.409424
v 2104.871094 -4208.134766 -3615.620605
v 2084.347168 -4126.520508 -4087.976562
v 2182.401123 -4210.109863 -3610.490723
v 2309.624023 -4125.072754 -3616.172607
v 2465.019043 -3887.922607 -3257.742188
v 2621.039062 -3884.533447 -2960.176270
v 2637.030029 -3599.350342 -2838.690674
v 2808.379883 -3593.805420 -2570.066650
v 2690.865234 -3291.140137 -2570.456543
v 2062.582031 -4054.401611 -4577.272461
v 2174.233154 -4063.504395 -4085.282471
v 2345.086182 -3967.024414 -3630.191650
v 2316.803223 -3816.543457 -3641.964355
v 2438.367188 -3674.512451 -3304.009521
v 2256.388184 -3762.838379 -3655.299561
v 1599.271118 -3848.548584 -4598.686523
v 1513.213989 -3798.145752 -4073.937500
v 1545.029053 -3922.915771 -4571.651855
v 1454.239990 -3840.603516 -4075.753418
v 1452.029785 -4011.884766 -4083.075684
v 1334.347046 -4044.101318 -3652.394775
v 1547.896973 -4159.720215 -4089.395752
v 1455.294067 -4309.249512 -3489.679443
v 1580.287109 -4365.930176 -3590.277588
v 1659.311035 -4333.631836 -3640.506592
v 1928.912109 -3646.117676 -4559.817871
v 1916.105103 -3557.592529 -4063.653809
v 1906.549072 -3485.655762 -3542.243652
v 1982.492920 -3394.789551 -3562.112549
v 1926.049072 -3174.001709 -2843.911621
v 2123.161133 -3988.629395 -4549.806152
v 2198.993164 -3960.548584 -4080.880615
v 2105.631104 -3922.915771 -4571.651855
v 2180.279053 -3852.881592 -4076.278809
v 1527.499023 -3988.629395 -4549.806152
v 1588.078125 -4054.401611 -4577.272461
v 1626.708984 -4223.619629 -4092.128418
v 1686.544922 -4218.406738 -4091.905762
v 1260.316040 -4664.451660 -2835.237549
v 1041.979980 -4307.569824 -2891.557617
v 930.072144 -4355.941406 -2671.732666
v 1954.348999 -3000.472168 -2457.240967
v 1748.337036 -3026.017334 -2466.232666
v 1724.792114 -3097.856689 -2867.016602
v 1606.333130 -3018.475098 -2494.873779
v 1352.994019 -3129.111328 -2878.542725
v 1825.329956 -4203.380371 -4558.987305
v 1755.676025 -4175.248535 -4582.438965
v 1829.404907 -4312.631836 -4095.933350
v 1711.531006 -4270.970215 -4094.152588
v 1682.543091 -4409.010254 -3617.694336
v 1412.029053 -3745.048584 -3633.283447
v 1491.788086 -3713.772705 -4070.330811
v 1609.046021 -3727.381592 -4563.291504
v 1641.260010 -3641.156738 -4534.951660
v 1326.266968 -3794.587646 -3618.902588
v 1823.307129 -3414.628418 -3527.981689
v 2524.900146 -3388.263428 -2912.313477
v 2546.989014 -3011.567139 -2532.259766
v 1390.467896 -4866.492188 -2639.224609
v 1141.428101 -4764.978516 -2588.854736
v 2009.399902 -3641.156738 -4534.951660
v 2038.924072 -3554.074707 -4063.503418
v 1685.617920 -4112.287598 -4609.961426
v 2068.333984 -3974.644775 -4604.077148
v 2008.250000 -3861.135742 -4630.196777
v 1825.329956 -4149.861328 -4611.567383
v 1938.380005 -4074.544434 -4639.318848
v 1582.327026 -3974.644775 -4604.077148
v 1712.279053 -4074.544434 -4639.318848
v 1675.145996 -3691.137695 -4591.956543
v 1642.409790 -3861.135742 -4630.196777
v 1975.515137 -3691.137695 -4591.956543
v 1825.329956 -3729.242676 -4624.557617
vn -0.1521 -0.8167 -0.5567
vn 0.1108 -0.8485 -0.5175
vn -0.2342 -0.8249 -0.5144
vn 0.1467 -0.8627 -0.4839
vn 0.0166 -0.9201 -0.3913
vn 0.4823 -0.7574 -0.4402
vn 0.4524 -0.8301 -0.3260
vn 0.8821 -0.3204 -0.3454
vn 0.4933 -0.8269 -0.2699
vn 0.9265 -0.2834 -0.2475
vn 0.3710 -0.7692 -0.5203
vn 0.6925 -0.6834 -0.2310
vn 0.4772 -0.6523 -0.5889
vn 0.3498 -0.8092 -0.4721
vn 0.4381 -0.7616 -0.4776
vn 0.5462 -0.6740 -0.4973
vn 0.6409 -0.6092 -0.4670
vn 0.6489 -0.5586 -0.5165
vn 0.7802 -0.3862 -0.4920
vn 0.7828 -0.3454 -0.5176
vn 0.8410 -0.1689 -0.5139
vn 0.8468 -0.1250 -0.5170
vn 0.8571 0.0485 -0.5129
vn 0.0032 0.8048 -0.5935
vn -0.0839 0.9719 -0.2199
vn 0.0677 0.8764 -0.4768
vn 0.2790 0.9314 -0.2338
vn -0.4367 0.8627 -0.2550
vn -0.3817 0.8294 -0.4080
vn -0.9101 0.1747 -0.3757
vn -0.7406 0.4919 -0.4578
vn -0.8587 0.2721 -0.4343
vn -0.8901 0.1043 -0.4437
vn -0.8890 0.1606 -0.4287
vn -0.9099 -0.0041 -0.4148
vn -0.8533 -0.2759 -0.4425
vn 0.7400 0.2711 -0.6156
vn 0.9416 0.2047 -0.2675
vn 0.8005 0.2943 -0.5221
vn 0.9604 -0.0961 -0.2615
vn 0.7923 0.5306 -0.3013
vn 0.9385 -0.1086 -0.3277
vn 0.7712 0.5394 -0.3381
vn 0.7908 0.4684 -0.3941
vn 0.2672 0.9005 -0.3431
vn 0.4675 0.7666 -0.4402
vn -0.1505 0.9062 -0.3951
vn 0.1001 0.8760 -0.4717
vn -0.2196 0.8943 -0.3899
vn 0.7238 -0.5904 -0.3573
vn 0.3304 -0.9251 -0.1874
vn 0.2798 -0.9140 -0.2938
vn 0.7826 -0.5384 -0.3125
vn 0.9210 -0.0242 -0.3888
vn 0.8775 0.0431 -0.4776
vn 0.8530 0.2158 -0.4752
vn 0.8238 0.2020 -0.5297
vn 0.7802 0.3792 -0.4974
vn 0.6214 -0.6054 -0.4973
vn 0.8037 -0.5479 -0.2320
vn 0.9520 -0.0536 -0.3014
vn 0.8447 0.3841 -0.3729
vn 0.9067 0.1623 -0.3893
vn 0.9164 0.1500 -0.3710
vn -0.7379 0.2710 -0.6181
vn -0.9058 0.3386 -0.2547
vn -0.8275 0.2467 -0.5044
vn -0.8473 0.4657 -0.2552
vn -0.9387 -0.2589 -0.2279
vn -0.9073 -0.2640 -0.3273
vn -0.7236 -0.6503 -0.2313
vn -0.6556 -0.6451 -0.3924
vn -0.2926 -0.8686 -0.3998
vn -0.4568 -0.8270 -0.3276
vn -0.0842 0.8738 -0.4789
vn -0.4208 0.8865 -0.1926
vn -0.1370 0.9380 -0.3183
vn -0.4477 0.8485 -0.2822
vn -0.0450 0.9409 -0.3357
vn 0.8911 -0.2171 -0.3985
vn 0.9712 -0.0164 -0.2376
vn 0.8265 0.2525 -0.5031
vn 0.8521 0.4598 -0.2500
vn -0.8950 -0.2076 -0.3949
vn -0.6251 -0.5800 -0.5224
vn -0.2626 -0.9212 -0.2870
vn -0.5026 -0.8239 -0.2620
vn -0.5331 -0.6575 -0.5324
vn -0.8400 -0.2800 -0.4647
vn -0.8398 -0.2308 -0.4915
vn -0.2336 0.8934 -0.3838
vn 0.0611 0.9592 -0.2761
vn 0.1497 0.9405 -0.3050
vn 0.0276 0.9794 -0.2001
vn -0.2717 0.8746 -0.4015
vn -0.0152 -0.9005 -0.4347
vn -0.3541 -0.7807 -0.5149
vn -0.0981 -0.9633 -0.2500
vn -0.6682 -0.7109 -0.2192
vn -0.6780 -0.6635 -0.3163
vn -0.8948 0.3126 -0.3187
vn -0.9486 0.1915 -0.2520
vn -0.8063 0.3118 -0.5025
vn -0.5023 0.7799 -0.3734
vn -0.8217 0.4564 -0.3413
vn 0.3084 0.8816 -0.3574
vn 0.7743 0.4192 -0.4741
vn 0.5197 0.6730 -0.5263
vn -0.3400 -0.7685 -0.5421
vn -0.5780 -0.6192 -0.5315
vn 0.4727 0.7706 -0.4276
vn 0.2592 0.9256 -0.2759
vn -0.4658 -0.6407 -0.6103
vn 0.6028 -0.1309 -0.7871
vn 0.5381 0.1989 -0.8191
vn -0.0000 -0.6241 -0.7814
vn 0.3154 -0.4326 -0.8446
vn -0.6028 -0.1309 -0.7871
vn -0.3155 -0.4326 -0.8446
vn -0.3248 0.5249 -0.7868
vn -0.5381 0.1989 -0.8191
vn 0.3248 0.5249 -0.7868
vn -0.0000 0.5992 -0.8006
vt 1.101074 0.400879
vt 0.770996 -0.055420
vt 1.117920 -0.070557
vt 0.648193 0.450684
vt 0.511963 0.867676
vt 0.315430 0.468994
vt 0.274902 0.879883
vt -0.097900 0.869385
vt 0.277100 1.216797
vt -0.101562 1.200928
vt -0.120850 1.556885
vt -0.282715 1.185303
vt -0.528809 1.556885
vt 0.591309 -0.026855
vt 0.305908 -0.090820
vt -0.027100 -0.063477
vt -0.069336 0.455566
vt -0.147949 -0.055176
vt -0.644043 0.360596
vt -0.627930 -0.096924
vt -0.811279 0.319336
vt -0.807861 -0.068848
vt -1.014160 -0.006592
vt -3.023438 1.556885
vt -2.576904 1.114014
vt -2.688232 1.556885
vt -2.766113 1.114014
vt -3.326904 1.131104
vt -3.351563 0.754639
vt -4.008545 0.761231
vt -3.753174 0.245117
vt -4.204590 0.337647
vt -4.316895 -0.052002
vt -4.339355 0.373291
vt -4.776123 -0.252686
vt -5.133545 0.449951
vt -1.775635 1.556885
vt -1.498047 1.102783
vt -1.499268 1.556885
vt -1.626221 1.108643
vt -1.865723 1.106201
vt -1.605225 0.797363
vt -1.838623 0.790771
vt -1.678223 0.468262
vt -2.052002 0.767578
vt -2.052002 0.340332
vt -2.457275 0.156738
vt -2.311768 -0.123047
vt -2.503662 -0.267822
vt -0.471680 1.179199
vt -0.240234 0.865479
vt -0.416016 0.850586
vt -0.787354 0.819092
vt -1.072510 0.489990
vt -1.045166 0.281738
vt -1.394287 0.242432
vt -1.362793 -0.087646
vt -1.681641 -0.040283
vt -0.773193 1.556885
vt -0.822998 1.151855
vt -0.999512 0.796631
vt -1.335449 0.798828
vt -1.475830 0.527344
vt -1.497803 0.800293
vt -4.166016 1.556885
vt -4.091553 1.086182
vt -3.590332 1.556885
vt -4.347656 1.128174
vt -4.885498 1.179443
vt -4.905518 0.879150
vt -5.560547 1.167236
vt -5.878174 0.739258
vt -6.175537 0.787842
vt -6.613525 0.400879
vt -6.598633 0.808106
vt -2.485352 1.556885
vt -2.417480 1.120605
vt -2.607910 0.724121
vt -2.457275 0.741943
vt -2.655029 0.142822
vt -1.017578 1.556885
vt -1.232178 1.123047
vt -1.258545 1.556885
vt -1.390137 1.114014
vt -4.741455 1.556885
vt -5.583496 1.556885
vt -6.138916 1.139648
vt -6.592041 1.119873
vt -5.862793 0.208496
vt -5.148193 0.148193
vt -5.148926 -0.115479
vt -2.660889 -0.270752
vt -2.880615 -0.284668
vt -2.898682 0.128906
vt -3.078369 -0.239258
vt -3.429932 0.217773
vt 0.468018 1.220459
vt 0.645752 1.556885
vt 0.286865 1.556885
vt 0.847412 1.150879
vt 0.883057 0.822510
vt 1.000000 0.808106
vt -4.167725 0.763428
vt -3.899658 1.112793
vt -3.359131 1.556885
vt -3.128174 1.556885
vt -4.379395 0.796631
vt -2.758545 0.706055
vt -1.673340 0.264404
vt -2.075439 -0.089844
vt -6.246094 -0.164307
vt -6.632080 -0.070557
vt -5.879639 -0.148926
vt -2.052002 1.556885
vt -2.052002 1.110840
vt 1.000000 1.119873
vt 1.000000 1.556885
vt 1.375000 1.950684
vt 1.088623 2.450684
vt 1.088623 1.950684
vt 1.375000 2.950684
vt 1.088623 2.950684
vt -6.592041 1.556885
s 1
usemtl mt_mountain_s.002
f 3/1/3 2/2/2 1/3/1
f 4/4/4 2/2/2 3/1/3
f 5/5/5 4/4/4 3/1/3
f 6/6/6 4/4/4 5/5/5
f 7/7/7 6/6/6 5/5/5
f 8/8/8 6/6/6 7/7/7
f 9/9/9 8/8/8 7/7/7
f 10/10/10 8/8/8 9/9/9
f 11/11/11 10/10/10 9/9/9
f 12/12/12 10/10/10 11/11/11
f 13/13/13 12/12/12 11/11/11
f 4/4/4 14/14/14 2/2/2
f 15/15/15 14/14/14 4/4/4
f 6/6/6 15/15/15 4/4/4
f 16/16/16 15/15/15 6/6/6
f 17/17/17 16/16/16 6/6/6
f 18/18/18 16/16/16 17/17/17
f 19/19/19 18/18/18 17/17/17
f 20/20/20 18/18/18 19/19/19
f 21/21/21 20/20/20 19/19/19
f 22/22/22 20/20/20 21/21/21
f 23/23/23 22/22/22 21/21/21
f 26/24/26 25/25/25 24/26/24
f 27/27/27 25/25/25 26/24/26
f 28/28/28 27/27/27 26/24/26
f 29/29/29 27/27/27 28/28/28
f 30/30/30 29/29/29 28/28/28
f 31/31/31 29/29/29 30/30/30
f 32/32/32 31/31/31 30/30/30
f 33/33/33 31/31/31 32/32/32
f 34/34/34 33/33/33 32/32/32
f 35/35/35 33/33/33 34/34/34
f 36/36/36 35/35/35 34/34/34
f 39/37/39 38/38/38 37/39/37
f 40/40/40 38/38/38 39/37/39
f 41/41/41 40/40/40 39/37/39
f 42/42/42 40/40/40 41/41/41
f 43/43/43 42/42/42 41/41/41
f 44/44/44 42/42/42 43/43/43
f 45/45/45 44/44/44 43/43/43
f 46/46/46 44/44/44 45/45/45
f 47/47/47 46/46/46 45/45/45
f 48/48/48 46/46/46 47/47/47
f 49/49/49 48/48/48 47/47/47
f 51/50/51 50/51/50 12/12/12
f 52/52/52 50/51/50 51/50/51
f 53/53/53 52/52/52 51/50/51
f 19/19/19 52/52/52 53/53/53
f 54/54/54 19/19/19 53/53/53
f 21/21/21 19/19/19 54/54/54
f 55/55/55 21/21/21 54/54/54
f 23/23/23 21/21/21 55/55/55
f 56/56/56 23/23/23 55/55/55
f 57/57/57 23/23/23 56/56/56
f 58/58/58 57/57/57 56/56/56
f 59/59/59 12/12/12 13/13/13
f 51/50/51 12/12/12 59/59/59
f 60/60/60 51/50/51 59/59/59
f 53/53/53 51/50/51 60/60/60
f 61/61/61 53/53/53 60/60/60
f 54/54/54 53/53/53 61/61/61
f 62/62/62 54/54/54 61/61/61
f 63/63/63 54/54/54 62/62/62
f 64/64/64 63/63/63 62/62/62
f 67/65/67 66/66/66 65/67/65
f 68/68/68 66/66/66 67/65/67
f 69/69/69 68/68/68 67/65/67
f 70/70/70 68/68/68 69/69/69
f 71/71/71 70/70/70 69/69/69
f 72/72/72 70/70/70 71/71/71
f 73/73/73 72/72/72 71/71/71
f 3/74/3 72/72/72 73/73/73
f 74/75/74 3/74/3 73/73/73
f 25/25/25 75/76/75 24/26/24
f 76/77/76 75/76/75 25/25/25
f 77/78/77 76/77/76 25/25/25
f 78/79/78 76/77/76 77/78/77
f 79/80/79 78/79/78 77/78/77
f 47/47/47 78/79/78 79/80/79
f 49/49/49 47/47/47 79/80/79
f 80/81/80 60/60/60 59/59/59
f 81/82/81 60/60/60 80/81/80
f 82/83/82 81/82/81 80/81/80
f 83/84/83 81/82/81 82/83/82
f 38/38/38 83/84/83 82/83/82
f 64/64/64 83/84/83 38/38/38
f 84/85/84 69/69/69 67/65/67
f 71/71/71 69/69/69 84/85/84
f 85/86/85 71/71/71 84/85/84
f 86/87/86 71/71/71 85/86/85
f 87/88/87 86/87/86 85/86/85
f 74/75/74 86/87/86 87/88/87
f 88/89/88 72/72/72 3/74/3
f 36/36/36 72/72/72 88/89/88
f 89/90/89 36/36/36 88/89/88
f 35/35/35 36/36/36 89/90/89
f 90/91/90 35/35/35 89/90/89
f 79/80/79 91/92/91 49/49/49
f 92/93/92 91/92/91 79/80/79
f 93/94/93 92/93/92 79/80/79
f 94/95/94 92/93/92 93/94/93
f 95/96/95 94/95/94 93/94/93
f 98/97/98 97/98/97 96/99/96
f 99/100/99 97/98/97 98/97/98
f 100/101/100 99/100/99 98/97/98
f 74/102/74 99/100/99 100/101/100
f 3/1/3 74/102/74 100/101/100
f 30/30/30 101/103/101 32/32/32
f 102/104/102 101/103/101 30/30/30
f 28/28/28 102/104/102 30/30/30
f 103/105/103 102/104/102 28/28/28
f 104/106/104 103/105/103 28/28/28
f 68/68/68 101/103/101 66/66/66
f 105/107/105 101/103/101 68/68/68
f 70/70/70 105/107/105 68/68/68
f 34/34/34 105/107/105 70/70/70
f 36/36/36 34/34/34 70/70/70
f 27/27/27 77/78/77 25/25/25
f 106/108/106 77/78/77 27/27/27
f 29/29/29 106/108/106 27/27/27
f 93/94/93 106/108/106 29/29/29
f 95/96/95 93/94/93 29/29/29
f 44/44/44 56/56/56 63/63/63
f 107/109/107 56/56/56 44/44/44
f 46/46/46 107/109/107 44/44/44
f 108/110/108 107/109/107 46/46/46
f 48/48/48 108/110/108 46/46/46
f 109/111/109 3/74/3 1/112/1
f 88/89/88 3/74/3 109/111/109
f 110/113/110 88/89/88 109/111/109
f 90/91/90 88/89/88 110/113/110
f 9/9/9 96/99/96 11/11/11
f 98/97/98 96/99/96 9/9/9
f 7/7/7 98/97/98 9/9/9
f 5/5/5 98/97/98 7/7/7
f 111/114/111 41/41/41 39/37/39
f 112/115/112 41/41/41 111/114/111
f 75/76/75 112/115/112 111/114/111
f 76/77/76 112/115/112 75/76/75
f 50/51/50 10/10/10 12/12/12
f 8/8/8 10/10/10 50/51/50
f 17/17/17 8/8/8 50/51/50
f 6/6/6 8/8/8 17/17/17
f 112/115/112 43/43/43 41/41/41
f 45/45/45 43/43/43 112/115/112
f 76/77/76 45/45/45 112/115/112
f 78/79/78 45/45/45 76/77/76
f 87/116/87 99/100/99 74/102/74
f 97/98/97 99/100/99 87/116/87
f 113/117/113 97/98/97 87/116/87
f 114/118/114 82/119/82 80/120/80
f 115/121/115 82/119/82 114/118/114
f 116/118/116 11/119/11 96/120/96
f 117/121/117 11/119/11 116/118/116
f 118/118/118 85/119/85 84/120/84
f 119/121/119 85/119/85 118/118/118
f 120/118/120 103/119/103 104/120/104
f 121/121/121 103/119/103 120/118/120
f 122/118/122 75/119/75 111/120/111
f 123/121/123 75/119/75 122/118/122
f 81/82/81 61/61/61 60/60/60
f 83/84/83 61/61/61 81/82/81
f 5/5/5 100/101/100 98/97/98
f 3/1/3 100/101/100 5/5/5
f 62/62/62 83/84/83 64/64/64
f 61/61/61 83/84/83 62/62/62
f 40/40/40 64/64/64 38/38/38
f 42/42/42 64/64/64 40/40/40
f 42/42/42 63/63/63 64/64/64
f 44/44/44 63/63/63 42/42/42
f 73/73/73 86/87/86 74/75/74
f 71/71/71 86/87/86 73/73/73
f 115/118/115 39/119/39 37/120/37
f 122/121/122 39/119/39 115/118/115
f 117/118/117 59/119/59 13/120/13
f 114/121/114 59/119/59 117/118/117
f 119/118/119 97/119/97 113/120/113
f 116/121/116 97/119/97 119/118/119
f 121/118/121 67/119/67 65/120/65
f 118/121/118 67/119/67 121/118/121
f 79/80/79 106/108/106 93/94/93
f 77/78/77 106/108/106 79/80/79
f 102/104/102 66/66/66 101/103/101
f 103/105/103 66/66/66 102/104/102
f 17/17/17 52/52/52 19/19/19
f 50/51/50 52/52/52 17/17/17
f 54/54/54 56/56/56 55/55/55
f 63/63/63 56/56/56 54/54/54
f 123/118/123 26/119/26 24/120/24
f 120/121/120 26/119/26 123/118/123
f 107/109/107 58/58/58 56/56/56
f 108/110/108 58/58/58 107/109/107
f 104/122/104 26/119/26 120/121/120
f 84/122/84 67/119/67 118/121/118
f 80/122/80 59/119/59 114/121/114
f 13/122/13 11/119/11 117/121/117
f 24/122/24 75/119/75 123/121/123
f 111/122/111 39/119/39 122/121/122
f 37/122/37 82/119/82 115/121/115
f 96/122/96 97/119/97 116/121/116
f 65/122/65 103/119/103 121/121/121
f 113/122/113 85/119/85 119/121/119
f 32/32/32 101/103/101 34/34/34
f 105/107/105 34/34/34 101/103/101
f 47/47/47 45/45/45 78/79/78
f 88/89/88 90/91/90 89/90/89
f 95/96/95 29/29/29 31/31/31
f 72/72/72 36/36/36 70/70/70
f 104/106/104 28/28/28 26/24/26
f 37/39/37 38/38/38 82/83/82
f 65/67/65 66/66/66 103/105/103
f 113/123/113 87/88/87 85/86/85
