# Blender 4.1.1
# www.blender.org
mtllib polygon680.mtl
o polygon680
v -5409.342773 -1956.797119 -669.656372
v -5422.424805 -1963.564087 -666.519226
v -5364.145996 -2063.289795 -656.185730
v -5376.911621 -2070.446045 -651.473267
v -5315.692871 -2167.037109 -645.726746
v -5328.194824 -2174.518066 -641.958801
v -5262.167480 -2265.922119 -635.874817
v -5274.337402 -2273.809814 -631.865112
v -5205.170898 -2353.673096 -626.459656
v -5215.109375 -2362.194824 -623.292358
v -5125.498047 -2453.979004 -613.762512
v -5134.752441 -2461.539795 -611.576904
v -5061.206055 -2563.568848 -604.573975
v -5071.766113 -2570.179932 -601.898315
v -5006.147461 -2683.104492 -602.245361
v -5018.099121 -2688.427246 -600.007080
v -4970.761230 -2800.042236 -605.812866
v -4982.678223 -2803.813965 -602.841309
v -4944.697266 -2907.853027 -605.202942
v -5034.808105 -2943.918945 -605.202637
v -4894.402344 -3019.047119 -612.496033
v -4982.139160 -3064.561035 -612.495605
v -4924.848145 -3164.209473 -622.703674
v -4993.435059 -3069.971191 -612.495605
v -4935.617188 -3170.010010 -622.703674
v -4525.984375 -4459.907227 -732.845886
v -4503.848145 -4586.198242 -739.460876
v -4492.856445 -4583.577637 -739.460876
v -4488.479004 -4602.380371 -739.556396
v -4379.412109 -4575.916016 -739.556396
v -4348.599121 -4775.438477 -740.617554
v -4337.533203 -4774.023438 -740.617554
v -4329.375977 -4991.485352 -732.002747
v -4317.896973 -4991.331055 -732.002747
v -4328.507324 -5002.757324 -731.553345
v -4317.120117 -5002.668457 -731.553345
v -4328.021973 -5122.368164 -726.668945
v -4316.259766 -5123.336914 -729.513489
v -4349.602051 -5241.266602 -722.347229
v -4337.862793 -5245.520996 -724.968750
v -4393.277344 -5350.059082 -710.971985
v -4382.459961 -5356.721680 -712.429565
v -4440.227051 -5453.596191 -697.406311
v -4429.800293 -5461.922363 -698.041626
v -4487.994141 -5544.636230 -685.005493
v -4476.142090 -5551.112793 -686.305847
v -4517.534668 -5640.063477 -672.222961
v -5047.435059 -2947.534912 -605.202637
v -5089.209473 -2833.575439 -602.841675
v -5075.749023 -2831.212158 -602.841675
v -5122.391113 -2725.892090 -600.006714
v -5109.268066 -2721.547119 -600.006714
v -5172.017090 -2622.616211 -601.898743
v -5160.440918 -2616.035889 -601.898743
v -5233.261230 -2525.918213 -611.576721
v -5222.938477 -2517.686035 -611.576721
v -5298.730957 -2422.588867 -623.292725
v -4933.429688 -2903.653076 -608.566772
v -4884.628418 -3013.842285 -615.882996
v -4836.414062 -3116.199463 -622.703247
v -4827.577148 -3110.756348 -625.458374
v -4787.963379 -3194.715820 -634.513489
v -4781.947266 -3190.932129 -637.002747
v -4741.028320 -3273.693115 -647.796814
v -4736.315918 -3271.108154 -648.039856
v -4714.526367 -3305.725098 -648.628601
v -4499.436035 -4604.919434 -739.556396
v -4453.465332 -4791.811035 -740.617554
v -4432.931152 -4993.066406 -732.002869
v -4432.032227 -5003.566406 -731.553345
v -4432.814453 -5114.395020 -726.538208
v -5362.402832 -2324.357910 -631.864746
v -4876.657227 -3245.043213 -634.513672
v -4887.735352 -3250.934082 -634.513672
v -4833.520996 -3323.394043 -647.796692
v -4844.857422 -3329.359131 -647.796631
v -4797.418457 -3427.953125 -649.334961
v -4803.498047 -3432.478027 -651.452148
v -4752.661133 -3517.043213 -658.025696
v -4760.124023 -3520.431152 -660.375671
v -4722.931152 -3610.494873 -668.403748
v -4591.595215 -4224.469727 -718.189697
v -4564.234375 -4344.295410 -726.461975
v -4579.541992 -4221.804199 -716.306030
v -4552.706543 -4341.947266 -722.930420
v -4433.179688 -4313.192871 -721.506653
v -4410.298340 -4432.676270 -731.896667
v -4382.935059 -4555.475098 -739.460815
v -4370.843262 -4552.742188 -739.460938
v -4367.506348 -4573.329102 -739.556396
v -4442.385254 -5003.645996 -731.553345
v -4445.426270 -5113.588867 -729.358521
v -4465.541016 -5209.089355 -725.238098
v -4453.895020 -5213.834473 -723.223816
v -4505.565430 -5301.375977 -714.155762
v -4493.804199 -5306.359863 -711.442932
v -4543.705078 -5405.438477 -697.406311
v -5519.433105 -2006.452148 -666.519653
v -5470.815430 -2115.993896 -651.473816
v -5419.512207 -2222.280762 -641.958801
v -5431.726562 -2228.141846 -641.958801
v -5373.290039 -2331.081787 -631.864746
v -4628.883301 -3912.090088 -694.058716
v -4533.503418 -3785.148926 -686.642883
v -4653.085449 -3810.826172 -686.642944
v -4560.762207 -3679.884277 -676.679749
v -4680.071289 -3714.964111 -676.679749
v -4597.872070 -3567.172119 -666.716553
v -4714.272461 -3607.602295 -666.716614
v -4611.086426 -4118.225098 -711.115234
v -4599.625000 -4116.903809 -708.890198
v -4457.298340 -4197.114746 -714.407532
v -4447.819824 -4195.785156 -715.113708
v -4424.382324 -4311.691406 -722.930420
v -4469.378418 -4090.396240 -709.150269
v -4479.649902 -4092.493164 -707.466370
v -4614.087402 -4009.685303 -701.474548
v -4625.867188 -4012.057129 -703.862610
v -4641.509277 -3914.557129 -695.836975
v -4464.029297 -4793.449707 -740.617554
v -4443.294434 -4993.223145 -732.002869
v -4557.841309 -5399.270996 -699.069641
v -4595.311035 -5491.524414 -682.743652
v -4531.098145 -5635.804688 -670.124512
v -4554.575195 -5740.531250 -656.123718
v -4609.149414 -5485.248535 -685.385437
v -4645.622070 -5586.875488 -668.346497
v -4568.432129 -5737.052246 -652.307617
v -4571.661133 -5841.841309 -634.205383
v -4663.933105 -3811.817139 -688.354980
v -4690.162109 -3717.933105 -677.839661
v -4550.770020 -3677.447998 -677.361450
v -4588.664062 -3563.537109 -669.545776
v -4636.907227 -3460.925049 -658.025757
v -4660.062012 -5580.413086 -670.887512
v -4703.379395 -5700.337891 -653.683533
v -4686.639160 -5704.402832 -650.494934
v -4718.427246 -5839.290039 -630.972351
v -4702.706055 -5838.054688 -628.067627
v -4495.923340 -3987.139160 -700.525269
v -4510.101074 -3890.876221 -693.584106
v -4522.815918 -3783.411133 -688.150391
v -5484.085449 -2121.169922 -651.473816
v -4537.312012 -4462.763184 -735.638306
v -4484.547363 -3984.306152 -701.758850
v -4498.616211 -3889.004883 -695.166687
v -4629.717285 -3457.261230 -660.193665
v -4682.045410 -3349.889893 -654.037537
v -4688.377441 -3347.263184 -649.334900
v -5308.308105 -2431.462158 -623.292725
v -4398.779785 -4429.677246 -732.845825
v -4584.296387 -5840.141602 -630.835632
v -5533.969727 -2010.806030 -666.519653
vn -0.2249 -0.2159 -0.9502
vn -0.0507 -0.1537 -0.9868
vn -0.1392 -0.1822 -0.9734
vn -0.0904 -0.1558 -0.9836
vn -0.1837 -0.1844 -0.9655
vn -0.0696 -0.1295 -0.9891
vn -0.1814 -0.2077 -0.9612
vn -0.0660 -0.1383 -0.9882
vn -0.1353 -0.2054 -0.9693
vn -0.0383 -0.1372 -0.9898
vn -0.0974 -0.1674 -0.9811
vn -0.0306 -0.1216 -0.9921
vn -0.1602 -0.1374 -0.9775
vn -0.0738 -0.0893 -0.9933
vn -0.1617 -0.0545 -0.9853
vn -0.0859 -0.0253 -0.9960
vn -0.2253 -0.0524 -0.9729
vn -0.1154 -0.0153 -0.9932
vn -0.1369 -0.0114 -0.9905
vn -0.0129 0.0367 -0.9992
vn -0.1595 0.0001 -0.9872
vn -0.0320 0.0645 -0.9974
vn -0.0505 0.0940 -0.9943
vn -0.0309 0.0642 -0.9975
vn -0.0502 0.0933 -0.9944
vn -0.0067 0.0273 -0.9996
vn 0.0001 0.0289 -0.9996
vn 0.1015 0.0883 -0.9909
vn -0.0012 0.0051 -1.0000
vn -0.0011 0.0048 -1.0000
vn 0.0020 -0.0173 -0.9998
vn 0.0021 -0.0170 -0.9999
vn 0.0006 -0.0397 -0.9992
vn 0.0005 -0.0396 -0.9992
vn 0.0005 -0.0398 -0.9992
vn -0.0074 -0.0395 -0.9992
vn -0.0006 -0.0415 -0.9991
vn 0.0003 -0.0396 -0.9992
vn -0.1238 -0.0213 -0.9921
vn -0.2349 -0.0057 -0.9720
vn -0.1225 -0.0334 -0.9919
vn -0.2177 -0.0068 -0.9760
vn -0.1021 -0.0774 -0.9918
vn -0.1637 -0.0503 -0.9852
vn -0.0732 -0.0977 -0.9925
vn -0.1238 -0.0796 -0.9891
vn -0.1096 -0.0951 -0.9894
vn -0.1201 -0.0716 -0.9902
vn -0.1471 -0.0711 -0.9866
vn -0.1769 -0.0836 -0.9807
vn -0.0103 0.0349 -0.9993
vn -0.0040 0.0226 -0.9997
vn -0.0051 0.0217 -0.9998
vn -0.0009 0.0032 -1.0000
vn -0.0010 0.0044 -1.0000
vn 0.0246 -0.0436 -0.9987
vn 0.0245 -0.0429 -0.9988
vn 0.0556 -0.0700 -0.9960
vn 0.0521 -0.0721 -0.9960
vn 0.0529 -0.0664 -0.9964
vn -0.2648 -0.0631 -0.9622
vn -0.2921 -0.0700 -0.9538
vn -0.1634 0.0256 -0.9862
vn -0.2740 -0.0454 -0.9607
vn -0.2107 0.0311 -0.9770
vn -0.3459 -0.0555 -0.9366
vn -0.0572 0.0526 -0.9970
vn -0.0701 0.0341 -0.9970
vn -0.0105 0.0128 -0.9999
vn 0.0028 -0.0184 -0.9998
vn 0.0012 -0.0420 -0.9991
vn 0.0007 -0.0427 -0.9991
vn 0.0003 -0.0398 -0.9992
vn 0.0952 -0.0465 -0.9944
vn 0.0003 -0.0444 -0.9990
vn 0.0403 -0.0688 -0.9968
vn -0.0653 0.1195 -0.9907
vn -0.0637 0.1198 -0.9908
vn -0.0386 0.0706 -0.9968
vn -0.0315 0.0724 -0.9969
vn 0.0975 0.1010 -0.9901
vn 0.2131 0.1653 -0.9630
vn 0.0876 0.1329 -0.9873
vn 0.2160 0.1887 -0.9580
vn 0.1427 0.1451 -0.9791
vn 0.0480 0.0763 -0.9959
vn 0.2608 0.1255 -0.9572
vn 0.1324 0.0983 -0.9863
vn 0.1324 0.0985 -0.9863
vn -0.0851 0.0570 -0.9947
vn -0.0508 0.0603 -0.9969
vn -0.0063 0.0308 -0.9995
vn -0.0096 0.0313 -0.9995
vn 0.2144 -0.0569 -0.9751
vn 0.0082 -0.0434 -0.9990
vn 0.1280 -0.1116 -0.9855
vn 0.0507 -0.0919 -0.9945
vn 0.1349 -0.1940 -0.9717
vn 0.0463 -0.1532 -0.9871
vn -0.0109 -0.1474 -0.9890
vn 0.0444 -0.1171 -0.9921
vn 0.0412 -0.0936 -0.9948
vn 0.0371 -0.0743 -0.9965
vn 0.0361 -0.0745 -0.9966
vn 0.0419 -0.0669 -0.9969
vn 0.0609 0.1012 -0.9930
vn -0.0810 0.0628 -0.9947
vn 0.0538 0.0834 -0.9951
vn -0.0561 0.0704 -0.9959
vn 0.0269 0.1056 -0.9940
vn -0.1608 0.0298 -0.9865
vn 0.0544 0.1137 -0.9920
vn 0.1788 0.0980 -0.9790
vn 0.1331 0.0952 -0.9865
vn -0.0409 0.0533 -0.9977
vn 0.0053 0.0695 -0.9976
vn -0.0822 0.0419 -0.9957
vn -0.1647 0.0438 -0.9854
vn -0.1644 0.0350 -0.9858
vn -0.0843 0.0507 -0.9952
vn 0.0855 0.0858 -0.9926
vn 0.1782 0.1004 -0.9789
vn 0.1232 0.0978 -0.9876
vn 0.0029 -0.0186 -0.9998
vn 0.0007 -0.0429 -0.9991
vn 0.0396 -0.1817 -0.9825
vn 0.0088 -0.1626 -0.9867
vn -0.1278 -0.1086 -0.9858
vn -0.2851 -0.1089 -0.9523
vn 0.0932 -0.2033 -0.9747
vn -0.0073 -0.1525 -0.9883
vn -0.1656 -0.1371 -0.9766
vn -0.2761 -0.1554 -0.9485
vn 0.1414 0.1239 -0.9822
vn 0.0779 0.1217 -0.9895
vn -0.0840 0.0573 -0.9948
vn -0.2811 -0.0169 -0.9595
vn -0.1598 0.0084 -0.9871
vn 0.0850 -0.1944 -0.9772
vn 0.0943 -0.1747 -0.9801
vn 0.0504 -0.1673 -0.9846
vn 0.1404 -0.1849 -0.9727
vn 0.1883 -0.1840 -0.9647
vn 0.0847 -0.1827 -0.9795
vn -0.0641 0.0607 -0.9961
vn -0.0767 0.0536 -0.9956
vn -0.1468 0.0462 -0.9881
vn 0.0375 -0.0965 -0.9946
vn 0.2128 0.1056 -0.9714
vn -0.1215 0.0526 -0.9912
vn -0.1428 0.0403 -0.9889
vn -0.2665 -0.0467 -0.9627
vn -0.6308 -0.2298 -0.7411
vn -0.1711 -0.0293 -0.9848
vn 0.0583 -0.0629 -0.9963
vn -0.0944 0.0479 -0.9944
vn -0.1434 -0.1806 -0.9730
vn 0.0357 -0.1191 -0.9922
vn 0.1796 0.0919 -0.9794
vt 4.250000 3.000000
vt 4.000000 2.000000
vt 4.250000 2.000000
vt 4.000000 3.000000
vt 4.250000 4.000000
vt 4.000000 4.000000
vt 4.250000 5.000000
vt 4.000000 5.000000
vt 4.250000 6.000000
vt 4.000000 6.000000
vt 4.250000 7.000000
vt 4.000000 7.000000
vt 4.250000 8.000000
vt 4.000000 8.000000
vt 4.250000 9.000000
vt 4.000000 9.000000
vt 4.250000 10.000000
vt 4.000000 10.000000
vt 4.000000 11.000000
vt 3.000000 11.000000
vt 4.000000 12.000000
vt 3.000000 12.000000
vt 3.000000 13.000000
vt 2.750000 12.000000
vt 2.750000 13.000000
vt 3.000000 27.000000
vt 2.750000 27.000000
vt 3.000000 26.000000
vt 3.000000 27.250000
vt 4.000000 27.250000
vt 4.000000 29.000000
vt 4.250000 29.000000
vt 4.000000 31.000000
vt 4.250000 31.000000
vt 4.000000 31.250000
vt 4.250000 31.250000
vt 4.000000 32.000000
vt 4.250000 32.000000
vt 4.000000 33.000000
vt 4.250000 33.000000
vt 4.000000 34.000000
vt 4.250000 34.000000
vt 4.000000 35.000000
vt 4.250000 35.000000
vt 4.000000 36.000000
vt 4.250000 36.000000
vt 4.250000 37.000000
vt 2.750000 11.000000
vt 2.750000 10.000000
vt 3.000000 10.000000
vt 2.750000 9.000000
vt 3.000000 9.000000
vt 2.750000 8.000000
vt 3.000000 8.000000
vt 2.750000 7.000000
vt 3.000000 7.000000
vt 3.000000 6.000000
vt 4.250000 11.000000
vt 4.250000 12.000000
vt 4.000000 13.000000
vt 4.250000 13.000000
vt 4.000000 14.000000
vt 4.250000 14.000000
vt 4.000000 15.000000
vt 4.250000 15.000000
vt 4.000000 15.439449
vt 2.750000 27.250000
vt 3.000000 29.000000
vt 3.000000 31.000000
vt 3.000000 31.250000
vt 3.000000 32.000000
vt 3.000000 5.000000
vt 3.000000 14.000000
vt 2.750000 14.000000
vt 3.000000 15.000000
vt 2.750000 15.000000
vt 3.000000 16.000000
vt 2.750000 16.000000
vt 3.000000 17.000000
vt 2.750000 17.000000
vt 2.750000 18.000000
vt 3.000000 24.000000
vt 2.750000 25.000000
vt 2.750000 24.000000
vt 3.000000 25.000000
vt 4.000000 25.000000
vt 4.000000 26.000000
vt 4.000000 27.000000
vt 4.250000 27.000000
vt 4.250000 27.250000
vt 2.750000 32.000000
vt 2.750000 31.250000
vt 2.750000 33.000000
vt 3.000000 33.000000
vt 2.750000 34.000000
vt 3.000000 34.000000
vt 3.027344 35.000000
vt 3.000000 2.000000
vt 3.000000 3.000000
vt 3.000000 4.000000
vt 2.750000 4.000000
vt 2.750000 5.000000
vt 3.000000 20.000000
vt 4.000000 20.000000
vt 3.000000 21.000000
vt 4.000000 19.000000
vt 3.000000 19.000000
vt 4.000000 18.000000
vt 3.000000 18.000000
vt 3.000000 23.000000
vt 2.750000 23.000000
vt 4.000000 24.000000
vt 4.250000 24.000000
vt 4.250000 25.000000
vt 4.250000 23.000000
vt 4.000000 23.000000
vt 3.000000 22.000000
vt 2.750000 22.000000
vt 2.750000 21.000000
vt 2.750000 29.000000
vt 2.750000 31.000000
vt 2.750000 35.000000
vt 3.000000 36.000000
vt 4.000000 37.000000
vt 4.250000 38.000000
vt 2.750000 36.000000
vt 3.000000 37.000000
vt 4.000000 38.000000
vt 4.250000 39.000000
vt 2.750000 20.000000
vt 2.750000 19.000000
vt 4.250000 19.000000
vt 4.250000 18.000000
vt 4.000000 17.000000
vt 2.750000 37.000000
vt 2.750000 38.000000
vt 3.000000 38.000000
vt 2.750000 39.000000
vt 3.000000 39.000000
vt 4.000000 22.000000
vt 4.000000 21.000000
vt 4.250000 20.000000
vt 2.750000 3.000000
vt 2.750000 26.000000
vt 4.250000 22.000000
vt 4.250000 21.000000
vt 4.250000 17.000000
vt 4.250000 16.000000
vt 4.000000 16.000000
vt 2.750000 6.000000
vt 4.250000 26.000000
vt 4.000000 39.000000
vt 2.750000 2.000000
s 1
usemtl mt_asphalt.008
f 3/1/1 2/2/2 1/3/3
f 4/4/4 2/2/2 3/1/1
f 5/5/5 4/4/4 3/1/1
f 6/6/6 4/4/4 5/5/5
f 7/7/7 6/6/6 5/5/5
f 8/8/8 6/6/6 7/7/7
f 9/9/9 8/8/8 7/7/7
f 10/10/10 8/8/8 9/9/9
f 11/11/11 10/10/10 9/9/9
f 12/12/12 10/10/10 11/11/11
f 13/13/13 12/12/12 11/11/11
f 14/14/14 12/12/12 13/13/13
f 15/15/15 14/14/14 13/13/13
f 16/16/16 14/14/14 15/15/15
f 17/17/17 16/16/16 15/15/15
f 18/18/18 16/16/16 17/17/17
f 19/19/19 18/18/18 17/17/17
f 20/20/20 18/18/18 19/19/19
f 21/21/21 20/20/20 19/19/19
f 22/22/22 20/20/20 21/21/21
f 23/23/23 22/22/22 21/21/21
f 24/24/24 22/22/22 23/23/23
f 25/25/25 24/24/24 23/23/23
f 28/26/26 27/27/27 26/28/28
f 29/29/29 27/27/27 28/26/26
f 30/30/30 29/29/29 28/26/26
f 31/31/31 29/29/29 30/30/30
f 32/32/32 31/31/31 30/30/30
f 33/33/33 31/31/31 32/32/32
f 34/34/34 33/33/33 32/32/32
s 0
f 35/35/35 33/33/35 34/34/35
s 1
f 36/36/36 35/35/37 34/34/38
f 37/37/39 35/35/37 36/36/36
f 38/38/40 37/37/39 36/36/36
f 39/39/41 37/37/39 38/38/40
f 40/40/42 39/39/41 38/38/40
f 41/41/43 39/39/41 40/40/42
f 42/42/44 41/41/43 40/40/42
f 43/43/45 41/41/43 42/42/44
s 0
f 44/44/46 43/43/46 42/42/46
s 1
f 45/45/47 43/43/45 44/44/48
f 46/46/49 45/45/47 44/44/48
f 47/47/50 45/45/47 46/46/49
f 48/48/51 22/22/22 24/24/24
f 20/20/20 22/22/22 48/48/51
f 49/49/52 20/20/20 48/48/51
f 50/50/53 20/20/20 49/49/52
f 51/51/54 50/50/53 49/49/52
f 52/52/55 50/50/53 51/51/54
f 53/53/56 52/52/55 51/51/54
f 54/54/57 52/52/55 53/53/56
f 55/55/58 54/54/57 53/53/56
f 56/56/59 54/54/57 55/55/58
f 57/57/60 56/56/59 55/55/58
f 58/58/61 19/19/19 17/17/17
f 21/21/21 19/19/19 58/58/61
f 59/59/62 21/21/21 58/58/61
f 60/60/63 21/21/21 59/59/62
f 61/61/64 60/60/63 59/59/62
f 62/62/65 60/60/63 61/61/64
f 63/63/66 62/62/65 61/61/64
f 64/64/67 62/62/65 63/63/66
f 65/65/68 64/64/67 63/63/66
f 66/66/69 64/64/67 65/65/68
f 29/29/29 67/67/29 27/27/27
f 68/68/70 67/67/29 29/29/29
f 31/31/31 68/68/70 29/29/29
f 69/69/71 68/68/70 31/31/31
f 33/33/33 69/69/71 31/31/31
s 0
f 70/70/72 69/69/72 33/33/72
f 35/35/73 70/70/73 33/33/73
s 1
f 71/71/74 70/70/75 35/35/37
f 37/37/39 71/71/74 35/35/37
f 39/39/41 71/71/74 37/37/39
f 8/8/8 72/72/76 6/6/6
f 57/57/60 72/72/76 8/8/8
f 10/10/10 57/57/60 8/8/8
f 56/56/59 57/57/60 10/10/10
f 12/12/12 56/56/59 10/10/10
f 54/54/57 56/56/59 12/12/12
f 14/14/14 54/54/57 12/12/12
f 52/52/55 54/54/57 14/14/14
f 16/16/16 52/52/55 14/14/14
f 18/18/18 52/52/55 16/16/16
f 73/73/77 25/25/25 23/23/23
f 74/74/78 25/25/25 73/73/77
f 75/75/79 74/74/78 73/73/77
f 76/76/80 74/74/78 75/75/79
f 77/77/81 76/76/80 75/75/79
f 78/78/82 76/76/80 77/77/81
f 79/79/83 78/78/82 77/77/81
f 80/80/84 78/78/82 79/79/83
f 81/81/85 80/80/84 79/79/83
f 84/82/86 83/83/87 82/84/88
f 85/85/89 83/83/87 84/82/86
f 86/86/90 85/85/89 84/82/86
f 26/28/28 85/85/89 86/86/90
f 87/87/91 26/28/28 86/86/90
f 88/88/92 26/28/28 87/87/91
f 89/89/93 88/88/92 87/87/91
f 90/90/30 88/88/92 89/89/93
f 71/71/74 92/91/94 91/92/95
f 93/93/96 92/91/94 71/71/74
f 94/94/97 93/93/96 71/71/74
f 95/95/98 93/93/96 94/94/97
f 96/96/99 95/95/98 94/94/97
f 97/97/100 95/95/98 96/96/99
f 43/43/45 97/97/100 96/96/99
f 45/45/47 97/97/100 43/43/45
f 4/4/4 98/98/101 2/2/2
f 99/99/102 98/98/101 4/4/4
f 6/6/6 99/99/102 4/4/4
f 100/100/103 99/99/102 6/6/6
f 72/72/76 100/100/103 6/6/6
f 101/101/104 100/100/103 72/72/76
f 102/102/105 101/101/104 72/72/76
f 105/103/106 104/104/107 103/105/108
f 106/106/109 104/104/107 105/103/106
f 107/107/110 106/106/109 105/103/106
f 108/108/111 106/106/109 107/107/110
f 109/109/112 108/108/111 107/107/110
f 79/79/83 108/108/111 109/109/112
f 81/81/85 79/79/83 109/109/112
f 60/60/63 23/23/23 21/21/21
f 73/73/77 23/23/23 60/60/63
f 62/62/65 73/73/77 60/60/63
f 75/75/79 73/73/77 62/62/65
f 64/64/67 75/75/79 62/62/65
f 66/66/69 75/75/79 64/64/67
s 0
f 111/110/113 82/84/113 110/111/113
f 84/82/114 82/84/114 111/110/114
s 1
f 112/112/115 84/82/86 111/110/116
f 86/86/90 84/82/86 112/112/115
f 113/113/117 86/86/90 112/112/115
f 114/114/118 86/86/90 113/113/117
f 112/112/115 115/115/119 113/113/117
f 116/116/120 115/115/119 112/112/115
f 111/110/116 116/116/120 112/112/115
f 117/117/121 116/116/120 111/110/116
f 118/118/122 117/117/121 111/110/116
f 119/119/123 117/117/121 118/118/122
f 68/68/70 120/120/124 67/67/29
f 121/121/125 120/120/124 68/68/70
f 69/69/71 121/121/125 68/68/70
f 91/92/95 121/121/125 69/69/71
f 70/70/75 91/92/95 69/69/71
f 71/71/74 91/92/95 70/70/75
f 97/97/100 122/122/126 95/95/98
f 123/123/127 122/122/126 97/97/100
f 45/45/47 123/123/127 97/97/100
f 124/124/128 123/123/127 45/45/47
f 47/47/50 124/124/128 45/45/47
f 125/125/129 124/124/128 47/47/50
f 123/123/127 126/126/130 122/122/126
f 127/127/131 126/126/130 123/123/127
f 124/124/128 127/127/131 123/123/127
f 128/128/132 127/127/131 124/124/128
f 125/125/129 128/128/132 124/124/128
f 129/129/133 128/128/132 125/125/129
f 119/119/123 103/105/108 117/117/121
f 105/103/106 103/105/108 119/119/123
f 130/130/134 105/103/106 119/119/123
f 107/107/110 105/103/106 130/130/134
f 131/131/135 107/107/110 130/130/134
f 81/81/85 107/107/110 131/131/135
f 106/106/109 132/132/136 104/104/107
f 133/133/137 132/132/136 106/106/109
f 108/108/111 133/133/137 106/106/109
f 134/134/138 133/133/137 108/108/111
f 79/79/83 134/134/138 108/108/111
f 77/77/81 134/134/138 79/79/83
f 127/127/131 135/135/139 126/126/130
s 0
f 136/136/140 135/135/140 127/127/140
s 1
f 137/137/141 136/136/142 127/127/131
f 138/138/143 136/136/142 137/137/141
f 139/139/144 138/138/143 137/137/141
f 103/105/108 140/140/145 117/117/121
f 141/141/146 140/140/145 103/105/108
f 104/104/107 141/141/146 103/105/108
f 142/142/147 141/141/146 104/104/107
f 132/132/136 142/142/147 104/104/107
f 88/88/92 28/26/26 26/28/28
f 30/30/30 28/26/26 88/88/92
f 90/90/30 30/30/30 88/88/92
f 32/32/32 30/30/30 90/90/30
f 143/143/148 100/100/103 101/101/104
f 99/99/102 100/100/103 143/143/148
f 98/98/101 99/99/102 143/143/148
f 26/28/28 83/83/87 85/85/89
f 144/144/149 83/83/87 26/28/28
f 27/27/27 144/144/149 26/28/28
f 140/140/145 116/116/120 117/117/121
f 115/115/119 116/116/120 140/140/145
f 145/145/150 115/115/119 140/140/145
f 141/141/146 145/145/150 140/140/145
f 146/146/151 145/145/150 141/141/146
f 142/142/147 146/146/151 141/141/146
f 134/134/138 147/147/152 133/133/137
f 148/148/153 147/147/152 134/134/138
f 149/149/154 148/148/153 134/134/138
f 150/150/155 57/57/60 55/55/58
f 102/102/105 57/57/60 150/150/155
f 50/50/53 18/18/18 20/20/20
f 52/52/55 18/18/18 50/50/53
f 66/66/69 77/77/81 75/75/79
f 149/149/154 77/77/81 66/66/69
f 114/114/118 87/87/91 86/86/90
f 151/151/156 87/87/91 114/114/118
f 39/39/41 94/94/97 71/71/74
f 41/41/43 94/94/97 39/39/41
f 41/41/43 96/96/99 94/94/97
f 43/43/45 96/96/99 41/41/43
f 152/152/157 128/128/132 129/129/133
f 139/139/144 128/128/132 152/152/157
f 128/128/132 137/137/141 127/127/131
f 139/139/144 137/137/141 128/128/132
f 72/72/76 57/57/60 102/102/105
f 153/153/158 98/98/101 143/143/148
s 0
f 118/118/159 111/110/159 110/111/159
s 1
f 89/89/93 87/87/91 151/151/156
f 107/107/110 81/81/85 109/109/112
f 134/134/138 77/77/81 149/149/154
