# Blender 4.1.1
# www.blender.org
mtllib polygon135.mtl
o polygon135
v 5367.645996 7975.384277 -637.609985
v 6086.284180 7911.063965 -777.375488
v 5626.451172 8555.648438 -550.771851
v 6743.783203 8725.439453 -867.318726
v 6067.313477 9226.359375 -697.722290
v 6366.409180 9789.926758 -661.480957
v 5626.379883 9459.589844 -660.713257
v 5135.934082 10271.799805 -510.088776
v 5062.201172 9758.855469 -572.313171
v 4643.079102 10194.459961 -465.346313
v 4342.381348 9880.455078 -366.334564
v 7251.062500 9366.479492 -777.276367
v 7922.828613 8700.439453 -723.695618
v 7433.958496 8222.059570 -756.084351
v 7671.482910 7854.742188 -733.890991
v 6852.201660 7559.788574 -611.451477
v 7088.594238 6871.811035 -608.846924
v 6617.326660 7029.789062 -531.939575
v 6613.902832 6557.643555 -465.033264
v 6416.569824 7266.391113 -542.473816
v 5838.652344 7244.259277 -642.403015
v 6841.368164 6428.353516 -432.091858
v 7083.268555 6454.000000 -436.387787
v 7267.082520 6576.261230 -441.571533
v 7407.576172 6803.214355 -543.344910
v 8015.337402 7219.250000 -593.582214
v 8364.089844 7971.565918 -655.616760
v 9498.967773 5325.706055 -232.396957
v 9260.014648 5557.299805 -238.999847
v 9081.359375 5271.054688 -317.122101
v 9120.097656 5588.804199 -236.255768
v 8938.509766 5458.062500 -250.102844
v 9398.567383 4698.319336 -227.969452
v 9160.909180 4674.331543 -225.310181
v 8662.469727 5061.667480 -235.929993
v 8729.450195 4741.807129 -154.313141
v 8903.393555 4475.518066 -230.868423
v 8688.051758 4434.598145 -164.746521
v 8828.591797 4171.109863 -161.314606
v 5522.334473 7456.134277 -692.419189
v 5275.013184 9064.425781 -456.354614
v 4485.687988 9521.329102 -365.890625
v 9522.009766 4835.245117 -222.194275
v 8772.583008 5353.114258 -263.882721
v 9050.046875 4490.870117 -212.582626
v 9030.765625 4196.964355 -183.704697
v 8939.113281 4123.536133 -173.663681
vn -0.1773 0.1371 -0.9746
vn -0.0525 -0.0667 -0.9964
vn -0.2562 0.0460 -0.9655
vn -0.0451 -0.0010 -0.9990
vn -0.1496 0.0229 -0.9885
vn -0.0756 0.1375 -0.9876
vn -0.1635 -0.0217 -0.9863
vn -0.0926 0.1366 -0.9863
vn -0.1903 -0.0391 -0.9809
vn -0.2176 0.0302 -0.9756
vn -0.2864 -0.0780 -0.9549
vn 0.0414 0.1068 -0.9934
vn 0.1117 -0.0123 -0.9937
vn 0.0341 -0.0957 -0.9948
vn 0.0345 -0.0989 -0.9945
vn -0.0408 -0.1553 -0.9870
vn -0.0169 -0.2287 -0.9733
vn -0.1603 -0.1031 -0.9817
vn -0.1255 -0.2499 -0.9601
vn 0.0408 -0.2264 -0.9732
vn 0.0934 -0.2307 -0.9685
vn -0.0259 -0.3577 -0.9335
vn 0.0993 -0.3807 -0.9193
vn 0.1713 -0.4049 -0.8982
vn 0.1080 -0.2985 -0.9483
vn 0.0796 -0.1736 -0.9816
vn 0.1249 -0.0775 -0.9891
vn 0.1920 0.0520 -0.9800
vn 0.1099 0.1973 -0.9742
vn -0.0025 0.0493 -0.9988
vn -0.0181 0.2487 -0.9684
vn -0.1024 0.2653 -0.9587
vn 0.0715 -0.1146 -0.9908
vn -0.0589 -0.1030 -0.9929
vn -0.1536 -0.1594 -0.9752
vn -0.2100 -0.0935 -0.9732
vn -0.1069 -0.0201 -0.9941
vn -0.2862 -0.0405 -0.9573
vn -0.2083 -0.1689 -0.9634
vn -0.0818 -0.0840 -0.9931
vn -0.3320 -0.1750 -0.9269
vn -0.2736 -0.1600 -0.9484
vn 0.1554 -0.0577 -0.9862
vn -0.1503 0.0742 -0.9859
vn 0.1364 -0.1334 -0.9816
vn 0.0434 -0.1475 -0.9881
vn -0.0878 -0.1685 -0.9818
vt 22.529299 -32.870121
vt 24.381840 -30.351559
vt 21.517580 -30.603519
vt 26.950199 -33.533199
vt 24.307619 -35.490231
vt 25.475590 -37.691410
vt 22.584959 -36.401367
vt 20.668949 -39.573238
vt 20.380859 -37.570309
vt 18.744139 -39.271481
vt 17.522459 -38.044918
vt 31.555658 -33.435551
vt 28.931639 -36.037109
vt 29.645510 -31.566410
vt 30.573238 -30.131840
vt 27.373049 -28.979488
vt 28.296879 -26.291990
vt 26.427729 -26.909180
vt 26.414059 -25.050779
vt 25.671879 -27.805660
vt 23.414059 -27.676760
vt 27.331049 -24.532228
vt 28.275389 -24.660160
vt 28.994139 -25.137699
vt 31.916988 -27.649410
vt 29.542969 -26.024410
vt 33.279301 -30.587889
vt 36.081051 -20.039059
vt 36.787109 -21.191410
vt 37.737301 -20.252930
vt 36.240231 -21.314449
vt 35.505859 -20.787109
vt 36.391598 -17.682619
vt 37.320309 -17.776369
vt 34.411129 -19.230469
vt 34.664059 -17.971680
vt 35.385738 -16.931639
vt 34.519527 -16.772459
vt 35.059570 -15.734380
vt 22.150389 -28.546879
vt 21.180660 -34.841801
vt 18.066410 -36.625980
vt 37.827148 -18.336910
vt 34.849609 -20.376949
vt 35.984379 -16.992189
vt 35.900391 -15.818359
vt 35.541988 -15.531250
s 1
usemtl mt_kusa.007
f 3/1/3 2/2/2 1/3/1
f 4/4/4 2/2/2 3/1/3
f 5/5/5 4/4/4 3/1/3
f 6/6/6 4/4/4 5/5/5
f 7/7/7 6/6/6 5/5/5
f 8/8/8 6/6/6 7/7/7
f 9/9/9 8/8/8 7/7/7
f 10/10/10 8/8/8 9/9/9
f 11/11/11 10/10/10 9/9/9
f 13/12/13 4/4/4 12/13/12
f 14/14/14 4/4/4 13/12/13
f 15/15/15 14/14/14 13/12/13
f 16/16/16 14/14/14 15/15/15
f 17/17/17 16/16/16 15/15/15
f 18/18/18 16/16/16 17/17/17
f 19/19/19 18/18/18 17/17/17
f 16/16/16 4/4/4 14/14/14
f 2/2/2 4/4/4 16/16/16
f 20/20/20 2/2/2 16/16/16
f 21/21/21 2/2/2 20/20/20
f 17/17/17 22/22/22 19/19/19
f 23/23/23 22/22/22 17/17/17
f 24/24/24 23/23/23 17/17/17
f 15/15/15 26/25/26 25/26/25
f 27/27/27 26/25/26 15/15/15
f 13/12/13 27/27/27 15/15/15
f 30/28/30 29/29/29 28/30/28
f 31/31/31 29/29/29 30/28/30
f 32/32/32 31/31/31 30/28/30
f 34/33/34 30/28/30 33/34/33
f 35/35/35 30/28/30 34/33/34
f 36/36/36 35/35/35 34/33/34
f 37/37/37 36/36/36 34/33/34
f 38/38/38 36/36/36 37/37/37
f 39/39/39 38/38/38 37/37/37
f 17/17/17 25/26/25 24/24/24
f 15/15/15 25/26/25 17/17/17
f 40/40/40 2/2/2 21/21/21
f 1/3/1 2/2/2 40/40/40
f 3/1/3 7/7/7 5/5/5
f 41/41/41 7/7/7 3/1/3
f 41/41/41 9/9/9 7/7/7
f 42/42/42 9/9/9 41/41/41
f 43/43/43 30/28/30 28/30/28
f 33/34/33 30/28/30 43/43/43
f 44/44/44 30/28/30 35/35/35
f 32/32/32 30/28/30 44/44/44
f 45/45/45 37/37/37 34/33/34
f 46/46/46 37/37/37 45/45/45
f 37/37/37 47/47/47 39/39/39
f 46/46/46 47/47/47 37/37/37
f 20/20/20 16/16/16 18/18/18
f 12/13/12 4/4/4 6/6/6
f 11/11/11 9/9/9 42/42/42
