# Blender 4.1.1
# www.blender.org
mtllib polygon131.mtl
o polygon131
v 7753.124023 1927.069946 -59.999985
v 7676.157227 1977.641968 -59.999996
v 7681.709961 1971.087036 -157.260330
v 7612.434082 1982.373047 -157.647110
v 7678.649414 1978.549194 -248.236725
v 7601.583496 2000.031128 -224.004730
v 7626.940918 2011.197144 -324.018890
v 7571.769043 2048.544189 -255.294250
v 7581.362305 2094.713867 -332.286621
v 7535.255859 2107.958984 -255.294235
v 7535.782715 2178.229736 -318.011169
v 7505.429688 2156.493896 -224.004745
v 7517.339355 2228.815186 -245.392654
v 7509.585938 2240.871094 -166.556671
v 7380.119141 2550.989014 -185.171295
v 7523.707520 2235.791992 -60.000027
v 7407.125977 2554.678223 -60.000065
v 7184.342773 1852.607910 -305.322113
v 7219.065918 1954.986938 -405.060242
v 7088.518555 1908.005127 -306.223694
v 7050.074707 2032.256226 -261.794403
v 7051.899414 1984.669067 -215.995117
v 7042.810059 2032.703125 -207.170105
v 7004.766602 2004.952148 -194.724945
v 6977.029785 2053.388184 -180.449738
v 6911.250000 2074.072998 -103.541542
v 7031.947754 2119.629883 -263.982025
v 6941.179199 2253.005127 -132.467270
v 7051.063477 2254.612793 -290.174286
v 6985.629395 2513.489990 -114.462494
v 7095.994141 2529.202148 -223.808319
v 7024.872559 2845.503174 -277.615723
v 7156.721680 2531.993896 -368.081207
v 7102.982422 2853.116211 -400.601562
v 7203.629395 1977.446045 -157.647110
v 7106.752930 1911.703247 -224.004730
v 7096.543457 1928.317139 -157.647110
v 7077.024414 1949.079956 -212.901505
v 7050.344727 1930.921021 -203.888718
v 7023.197754 1968.846069 -204.817917
v 6940.000977 1974.723999 -59.999996
v 6894.741211 2070.604980 -60.000011
v 6891.476074 2249.152100 -60.000027
v 6945.729004 2514.526123 -60.000061
v 7478.797363 1942.067871 -597.420959
v 7435.372559 2017.494995 -547.489502
v 7382.835449 1871.113892 -527.334412
v 7281.361328 2009.116943 -488.509033
v 7163.942871 2091.770020 -586.686218
v 7072.819336 2044.143066 -437.027130
v 7100.029297 2140.758057 -571.032959
v 7040.929688 2122.556152 -452.463867
v 7091.170898 2255.699951 -523.705811
v 7161.317383 2396.851807 -430.712677
v 7592.072266 1431.619019 -827.971375
v 7495.854004 1544.329834 -833.864868
v 7563.375488 1417.219116 -233.640442
v 7483.444824 1534.393066 -331.361389
v 7393.099609 1350.391113 -109.393349
v 7317.554199 1462.611938 -211.201767
v 7282.324707 1451.841064 -98.383713
v 7245.442383 1619.103027 -245.506195
v 7202.418457 1608.115112 -59.999950
v 7202.632812 1674.331055 -159.990585
v 7193.022461 1687.097900 -59.999958
v 7206.939453 1748.674927 -61.999969
v 7403.866211 1659.563965 -694.532776
v 7367.434082 1654.995117 -372.147766
v 7296.471680 1833.623047 -399.608490
v 7194.562500 1744.601929 -304.420502
v 7172.451172 1804.797241 -255.294220
v 7136.252441 1863.700073 -255.294235
v 7238.371582 1920.913208 -255.294220
v 7212.549316 1962.932251 -224.004715
v 7316.406250 2017.316162 -224.004730
v 7308.364258 2030.401978 -157.647125
v 7762.049805 1922.471924 -285.036530
v 7733.157715 1890.939941 -681.469666
v 7894.732422 1691.146851 -545.620178
v 7858.431152 1673.972900 -728.755981
v 7863.369141 1428.995972 -753.420776
v 7863.942383 1674.411011 -817.077881
v 7840.598145 1462.344971 -873.125183
v 7845.389160 1670.986816 -885.788513
v 7742.377441 1538.400879 -1026.651245
v 7647.342773 1653.797852 -1004.403198
v 7339.729980 1979.361206 -255.294235
v 7270.038574 1869.383179 -255.294220
v 7295.939941 1827.233032 -224.004684
v 7202.078125 1756.586182 -224.004700
v 7305.636230 1811.454956 -157.647110
v 7213.270996 1738.371948 -157.647110
v 7299.982910 1820.654053 -69.999969
v 7501.748535 1939.103027 -157.647110
v 7492.846191 1953.588257 -224.004715
v 7468.617188 1993.014160 -255.294250
v 7438.962402 2041.269897 -255.294235
v 7414.752441 2080.665771 -224.004730
v 7520.654297 1869.311035 -736.949890
v 7572.237305 1771.390869 -893.550293
v 7717.023438 1397.632935 -857.353027
v 7880.942871 1380.968994 -59.999924
v 7874.779785 1387.953979 -115.580956
v 7718.229004 1317.403076 -59.999916
v 7882.235352 1385.156982 -176.605042
v 7722.013184 1363.101074 -328.900330
v 7116.794434 3099.077148 -413.717834
v 7033.507324 3167.427979 -264.014862
v 6947.329102 2842.089844 -155.071716
v 6975.558105 3185.217041 -164.805862
v 6947.554688 3190.484863 -60.000137
v 7135.946289 3474.108887 -60.000175
v 7314.279297 2020.776001 -75.000000
v 7210.208496 1966.739990 -69.999992
v 7104.094727 1916.028076 -61.999989
v 7031.748535 1936.737915 -153.498520
v 7028.299805 1920.373047 -59.999989
v 7397.857910 2901.795166 -60.000107
v 7366.929199 2901.135254 -198.856750
v 7315.329102 2545.863770 -348.355377
v 7269.547852 2888.397217 -390.034698
v 7200.924316 3306.030029 -275.759491
v 7340.688477 3447.166992 -60.000172
v 7359.672852 3266.784912 -231.939285
v 7434.435547 3268.053955 -164.750977
v 7473.087402 3272.312012 -60.000149
v 7605.523438 1993.617920 -61.999996
v 7496.241211 1948.063965 -69.999985
v 7395.147461 1889.183105 -74.999985
v 7400.354004 1880.712036 -157.647110
v 7406.419922 2094.222168 -157.647141
v 7495.186035 2173.165039 -157.647156
v 7412.532227 2084.278076 -70.000008
v 7502.679199 2160.971191 -62.000019
v 7279.540039 3114.827148 -312.287018
v 7368.317383 1932.844116 -255.294220
v 7391.687500 1894.815063 -224.004715
v 7278.000000 1451.797119 -59.999931
v 7380.576660 1336.016113 -64.999916
v 7581.935547 1356.864014 -59.999920
v 7891.369141 1684.751099 -131.061203
v 7502.679688 2160.971191 -452.117126
v 7391.946289 2092.922119 -549.129089
v 7445.132812 2240.538086 -583.671631
v 7294.279785 2159.892090 -656.193970
v 7204.112793 2232.132080 -671.957031
v 7205.104004 1699.235229 -234.755402
v 7694.484375 1800.081787 -856.946899
v 7605.523438 1993.617798 -523.608032
v 7386.103516 2363.334229 -442.078461
v 7910.123535 1688.568970 -59.999962
v 6924.197754 2841.895020 -60.000099
vn 0.7174 0.6965 -0.0163
vn 0.3731 0.9261 -0.0556
vn 0.3658 0.9307 0.0077
vn -0.0606 0.9964 0.0589
vn 0.4535 0.8882 0.0740
vn 0.1421 0.8943 0.4244
vn 0.6911 0.7213 0.0455
vn 0.4455 0.4858 0.7520
vn 0.8603 0.5030 0.0826
vn 0.6251 0.1334 0.7691
vn 0.8773 0.4794 -0.0222
vn 0.8502 -0.2825 0.4443
vn 0.9732 0.2300 0.0034
vn 0.9924 0.1224 -0.0135
vn 0.9388 0.2184 -0.2663
vn 0.9899 0.0546 -0.1312
vn 0.9596 0.1843 -0.2125
vn -0.6465 -0.4277 -0.6318
vn -0.5318 -0.5773 -0.6197
vn -0.7597 -0.4663 -0.4532
vn -0.9335 -0.2819 -0.2214
vn -0.7465 -0.2147 -0.6299
vn -0.7381 -0.1980 -0.6449
vn -0.6311 -0.1304 -0.7647
vn -0.6944 -0.2337 -0.6806
vn -0.8719 -0.1565 -0.4639
vn -0.9336 -0.1017 -0.3437
vn -0.8212 0.0957 -0.5626
vn -0.9004 0.2091 -0.3815
vn -0.7783 0.0117 -0.6278
vn -0.8243 -0.0122 -0.5660
vn -0.8396 -0.0850 -0.5365
vn -0.5251 0.1129 -0.8436
vn -0.4676 -0.0904 -0.8793
vn 0.4370 -0.8976 0.0579
vn -0.3668 -0.8268 0.4265
vn 0.0920 -0.9955 -0.0210
vn -0.5743 -0.7583 -0.3084
vn -0.2532 -0.7879 -0.5614
vn -0.6083 -0.3208 -0.7260
vn -0.7309 -0.5738 -0.3694
vn -0.9028 -0.1699 -0.3950
vn -0.8244 0.0706 -0.5617
vn -0.8284 0.0152 -0.5599
vn -0.3708 0.6325 -0.6800
vn -0.0804 0.2494 -0.9651
vn -0.7875 -0.0113 -0.6162
vn -0.2687 -0.5345 -0.8013
vn -0.2939 -0.6449 -0.7055
vn -0.6810 -0.6601 -0.3171
vn -0.7450 -0.2112 -0.6327
vn -0.9554 -0.1074 -0.2751
vn -0.8135 0.4068 -0.4156
vn -0.5001 0.5661 -0.6553
vn -0.5380 -0.7639 -0.3565
vn -0.7976 -0.3718 -0.4749
vn -0.3378 -0.8848 -0.3209
vn -0.6085 -0.6945 -0.3838
vn -0.2566 -0.8617 -0.4377
vn -0.5541 -0.6259 -0.5488
vn -0.8037 -0.5599 -0.2015
vn -0.7763 -0.3773 -0.5050
vn -0.9363 -0.3045 -0.1750
vn -0.9852 -0.1131 -0.1285
vn -0.9928 0.0608 -0.1032
vn -0.8450 0.5204 -0.1233
vn -0.9353 -0.1492 -0.3208
vn -0.7038 -0.4981 -0.5065
vn -0.6449 -0.3640 -0.6720
vn -0.8031 -0.3906 -0.4499
vn -0.8780 -0.1111 0.4656
vn -0.4721 -0.7389 0.4807
vn 0.1354 -0.2466 0.9596
vn 0.3662 -0.7186 0.5911
vn 0.4169 -0.7100 0.5675
vn 0.4997 -0.8648 0.0488
vn 0.7278 0.6853 -0.0257
vn 0.5106 0.7800 -0.3618
vn 0.9593 0.2657 -0.0958
vn 0.9256 0.3501 -0.1440
vn 0.7785 -0.6077 -0.1567
vn 0.9005 0.4235 -0.0985
vn 0.7494 -0.4853 -0.4504
vn 0.7730 0.4013 -0.4914
vn 0.1677 -0.2406 -0.9560
vn -0.2508 0.2360 -0.9388
vn 0.1535 -0.2558 0.9544
vn -0.1571 0.2327 0.9598
vn -0.4686 0.6485 0.5999
vn -0.8960 0.1879 0.4024
vn -0.6004 0.7959 0.0783
vn -0.8864 0.4607 0.0441
vn -0.6001 0.7905 -0.1224
vn -0.4356 0.8974 0.0704
vn -0.3711 0.7190 0.5877
vn -0.1423 0.2529 0.9570
vn 0.1607 -0.2418 0.9569
vn 0.4748 -0.6608 0.5814
vn -0.4387 0.7006 -0.5629
vn -0.4576 0.5524 -0.6968
vn -0.0091 -0.9209 -0.3896
vn 0.7875 -0.5913 -0.1740
vn 0.8247 -0.5655 -0.0054
vn -0.0086 -0.9833 -0.1817
vn 0.7946 -0.6071 -0.0079
vn -0.0640 -0.9933 -0.0959
vn -0.2699 0.2915 -0.9177
vn -0.7474 0.3518 -0.5636
vn -0.9149 -0.0332 -0.4023
vn -0.8590 0.3198 -0.3998
vn -0.9160 0.3076 -0.2577
vn -0.2858 0.7520 -0.5940
vn 0.4958 -0.8577 -0.1360
vn 0.4324 -0.8903 -0.1428
vn 0.1701 -0.9731 -0.1552
vn -0.4355 -0.8807 -0.1865
vn -0.2970 -0.9387 -0.1752
vn 0.9625 -0.0248 -0.2702
vn 0.9358 0.0358 -0.3506
vn 0.5891 0.2880 -0.7550
vn 0.5506 0.0439 -0.8336
vn -0.0351 0.6226 -0.7818
vn 0.3635 0.7305 -0.5781
vn 0.5745 0.3108 -0.7572
vn 0.7972 0.1903 -0.5730
vn 0.9166 0.1999 -0.3463
vn -0.0813 0.9892 -0.1222
vn -0.4302 0.8944 -0.1224
vn -0.5410 0.8324 -0.1199
vn -0.5426 0.8374 0.0656
vn 0.6027 -0.7960 0.0558
vn 0.8715 -0.4879 0.0492
vn 0.6016 -0.7873 -0.1349
vn 0.8366 -0.5314 -0.1333
vn 0.6207 0.1823 -0.7626
vn -0.1575 0.2531 0.9545
vn -0.4393 0.6904 0.5748
vn -0.8329 -0.5453 -0.0945
vn -0.3427 -0.8731 -0.3468
vn -0.0923 -0.9450 -0.3138
vn 0.9661 0.2358 -0.1056
vn 0.8221 0.3619 -0.4395
vn 0.3388 -0.3310 -0.8807
vn 0.6872 0.2891 -0.6665
vn 0.2138 -0.3567 -0.9094
vn -0.2417 0.2863 -0.9271
vn -0.9323 -0.3049 -0.1946
vn 0.3143 0.7701 -0.5551
vn 0.4159 0.7983 -0.4356
vn 0.5529 0.6636 -0.5040
vn 0.9376 0.2310 -0.2599
vn -0.9717 0.0005 -0.2364
vt -0.601074 0.358887
vt -0.619629 0.115723
vt -0.446289 0.083008
vt -0.751465 0.387207
vt -0.619141 0.588379
vt -0.780273 0.549805
vt -0.732910 0.801270
vt -0.856445 0.616699
vt -0.947266 0.828125
vt -0.974609 0.602539
vt -1.161621 0.797852
vt -1.081543 0.515625
vt -1.283691 0.613281
vt -1.315430 0.416016
vt -2.076172 0.461914
vt -1.292480 0.140625
vt -2.060059 0.129883
vt 4.489258 0.475586
vt 4.396484 0.845215
vt 4.207520 0.524414
vt 4.845215 0.408691
vt 4.724121 0.362793
vt 4.854004 0.259277
vt 4.840332 0.196777
vt 5.014160 0.149414
vt 5.162109 -0.056641
vt 5.081055 0.447754
vt 5.540527 0.137695
vt 5.372070 0.602051
vt 6.089844 0.281250
vt 5.954102 0.640625
vt 6.817383 0.884766
vt 5.865723 1.032227
vt 6.712891 1.243652
vt 4.415039 0.106934
vt 4.386230 0.261230
vt 4.922852 0.253906
vt 4.603516 0.316406
vt 4.625000 0.201172
vt 4.746094 0.247559
vt 4.880859 -0.190430
vt 5.179688 -0.174805
vt 5.608887 -0.076660
vt 6.154785 0.120117
vt 3.940430 1.224609
vt 4.206055 1.399414
vt 3.958984 1.510742
vt 4.427734 1.124512
vt 4.808105 1.300293
vt 4.837402 0.845215
vt 5.024414 1.236328
vt 5.073730 0.897949
vt 5.311523 1.183105
vt 5.537109 1.105957
vt 2.579102 0.435547
vt 2.986816 1.853516
vt 2.499023 1.841797
vt 2.982910 0.661621
vt 2.687012 -0.039062
vt 3.072266 0.197754
vt 3.101563 -0.102539
vt 3.557129 0.304688
vt 3.598145 -0.172363
vt 3.755371 0.099121
vt 3.800781 -0.135742
vt 4.039551 -0.115234
vt 3.451172 0.726074
vt 3.404785 1.513672
vt 3.986816 0.830078
vt 3.935059 0.469727
vt 4.161133 0.294922
vt 4.265137 0.306152
vt 4.428223 0.846191
vt 4.795898 0.658691
vt 5.110352 1.031250
vt 5.306641 0.337891
vt -0.428711 0.645996
vt -0.388672 1.669922
vt 0.203125 1.255859
vt 0.096191 1.723145
vt 0.724121 1.881836
vt 0.176270 1.957520
vt 0.660156 2.203613
vt 0.166992 2.142578
vt 0.354492 2.622070
vt 0.029785 2.592773
vt 4.542480 1.353027
vt 3.977539 0.840820
vt 3.609375 0.645020
vt 4.043945 0.242188
vt 3.471191 0.237305
vt 4.014160 0.108398
vt 3.551758 -0.298828
vt -0.250000 0.450684
vt -0.392578 0.905762
vt -0.765625 1.135742
vt -1.228516 1.108887
vt -1.563477 0.814453
vt -1.947266 0.957520
vt -2.058105 0.451172
vt 3.720215 1.832031
vt 3.406738 2.187012
vt 3.009766 2.444336
vt 2.387207 2.524414
vt 2.117188 2.045898
vt 2.099121 0.105957
vt 1.657715 0.175781
vt 1.631836 -0.011719
vt 1.632324 0.366699
vt 2.013672 0.657715
vt 1.629883 1.901855
vt 1.807617 2.272461
vt 7.275879 1.425293
vt 7.568848 1.042480
vt 6.930664 0.529785
vt 7.702148 0.770996
vt 7.758301 0.504883
vt 8.418457 0.885742
vt 5.162109 -0.530273
vt 4.829102 -0.284180
vt 4.404785 -0.108887
vt 4.646484 0.085938
vt 4.613281 -0.145020
vt -2.791504 0.048828
vt -2.817871 0.416992
vt -2.123047 0.912109
vt -2.877441 0.958984
vt -2.234375 1.058105
vt -2.951172 1.091797
vt -4.330566 -0.052734
vt -4.617676 0.560547
vt -4.638184 -0.010254
vt -3.984863 0.414062
vt -3.874512 0.200684
vt -3.849121 -0.086914
vt -0.784180 0.144043
vt -0.266602 0.045898
vt 0.246582 -0.015137
vt 0.255859 0.614258
vt -1.652344 0.428711
vt -1.118164 0.380859
vt -1.655762 0.100098
vt -1.113770 0.162598
vt -3.973633 0.701172
vt -4.565430 1.032227
vt 3.845703 1.344727
vt 3.276367 1.010254
vt 3.065430 0.312012
vt 3.108398 -0.196289
vt 2.602051 -0.191895
vt 2.406250 0.011230
vt 0.836426 0.428711
vt 0.181152 0.241699
vt -1.111328 1.485840
vt -1.155273 1.159668
vt -0.915527 1.475098
vt -1.372070 1.504883
vt -1.337402 1.795898
vt -1.567383 1.870605
vt 3.810547 0.290039
vt 5.078613 1.613770
vt -0.233398 2.157227
vt -0.531250 1.939453
vt -0.281738 2.328125
vt -2.047363 0.046387
vt -0.715332 1.321289
vt 7.858887 1.339355
vt -1.680176 1.152344
vt -1.948730 1.246582
vt -0.720215 1.594238
vt -1.366211 1.543945
vt -0.608398 1.573242
vt 0.029785 1.214355
vt 4.453613 1.408691
vt 4.765625 1.613281
vt 0.189941 0.050781
vt 0.804688 0.144043
vt 0.784668 0.285645
vt 6.966309 0.287109
vt 3.192383 -0.553223
s 1
usemtl mt_gake.007
f 3/1/3 2/2/2 1/3/1
f 4/4/4 2/2/2 3/1/3
f 5/5/5 4/4/4 3/1/3
f 6/6/6 4/4/4 5/5/5
f 7/7/7 6/6/6 5/5/5
f 8/8/8 6/6/6 7/7/7
f 9/9/9 8/8/8 7/7/7
f 10/10/10 8/8/8 9/9/9
f 11/11/11 10/10/10 9/9/9
f 12/12/12 10/10/10 11/11/11
f 13/13/13 12/12/12 11/11/11
f 14/14/14 12/12/12 13/13/13
f 15/15/15 14/14/14 13/13/13
f 16/16/16 14/14/14 15/15/15
f 17/17/17 16/16/16 15/15/15
f 20/18/20 19/19/19 18/20/18
f 21/21/21 19/19/19 20/18/20
f 22/22/22 21/21/21 20/18/20
f 23/23/23 21/21/21 22/22/22
f 24/24/24 23/23/23 22/22/22
f 25/25/25 23/23/23 24/24/24
f 26/26/26 25/25/25 24/24/24
f 27/27/27 25/25/25 26/26/26
f 28/28/28 27/27/27 26/26/26
f 29/29/29 27/27/27 28/28/28
f 30/30/30 29/29/29 28/28/28
f 31/31/31 29/29/29 30/30/30
f 32/32/32 31/31/31 30/30/30
f 33/33/33 31/31/31 32/32/32
f 34/34/34 33/33/33 32/32/32
f 37/35/37 36/36/36 35/37/35
f 38/38/38 36/36/36 37/35/37
f 39/39/39 38/38/38 37/35/37
f 22/22/22 38/38/38 39/39/39
f 40/40/40 22/22/22 39/39/39
f 24/24/24 22/22/22 40/40/40
f 41/41/41 24/24/24 40/40/40
f 26/26/26 24/24/24 41/41/41
f 42/42/42 26/26/26 41/41/41
f 28/28/28 26/26/26 42/42/42
f 43/43/43 28/28/28 42/42/42
f 44/44/44 28/28/28 43/43/43
f 47/45/47 46/46/46 45/47/45
f 48/48/48 46/46/46 47/45/47
f 19/19/19 48/48/48 47/45/47
f 49/49/49 48/48/48 19/19/19
f 50/50/50 49/49/49 19/19/19
f 51/51/51 49/49/49 50/50/50
f 52/52/52 51/51/51 50/50/50
f 53/53/53 51/51/51 52/52/52
f 29/29/29 53/53/53 52/52/52
f 54/54/54 53/53/53 29/29/29
f 33/33/33 54/54/54 29/29/29
f 57/55/57 56/56/56 55/57/55
f 58/58/58 56/56/56 57/55/57
f 59/59/59 58/58/58 57/55/57
f 60/60/60 58/58/58 59/59/59
f 61/61/61 60/60/60 59/59/59
f 62/62/62 60/60/60 61/61/61
f 63/63/63 62/62/62 61/61/61
f 64/64/64 62/62/62 63/63/63
f 65/65/65 64/64/64 63/63/63
f 66/66/66 64/64/64 65/65/65
f 68/67/68 47/45/47 67/68/67
f 69/69/69 47/45/47 68/67/68
f 70/70/70 69/69/69 68/67/68
f 18/20/18 69/69/69 70/70/70
f 71/71/71 18/20/18 70/70/70
f 72/72/72 18/20/18 71/71/71
f 73/73/73 72/72/72 71/71/71
f 74/74/74 72/72/72 73/73/73
f 75/75/75 74/74/74 73/73/73
f 76/76/76 74/74/74 75/75/75
f 77/77/77 7/7/7 5/5/5
f 78/78/78 7/7/7 77/77/77
f 79/79/79 78/78/78 77/77/77
f 80/80/80 78/78/78 79/79/79
f 81/81/81 80/80/80 79/79/79
f 82/82/82 80/80/80 81/81/81
f 83/83/83 82/82/82 81/81/81
f 84/84/84 82/82/82 83/83/83
f 85/85/85 84/84/84 83/83/83
f 86/86/86 84/84/84 85/85/85
f 73/73/73 87/87/87 75/75/75
f 88/88/88 87/87/87 73/73/73
f 71/71/71 88/88/88 73/73/73
f 89/89/89 88/88/88 71/71/71
f 90/90/90 89/89/89 71/71/71
f 91/91/91 89/89/89 90/90/90
f 92/92/92 91/91/91 90/90/90
f 93/93/93 91/91/91 92/92/92
f 66/66/66 93/93/93 92/92/92
f 6/6/6 94/94/94 4/4/4
f 95/95/95 94/94/94 6/6/6
f 8/8/8 95/95/95 6/6/6
f 96/96/96 95/95/95 8/8/8
f 10/10/10 96/96/96 8/8/8
f 97/97/97 96/96/96 10/10/10
f 98/98/98 97/97/97 10/10/10
f 75/99/75 97/97/97 98/98/98
f 76/100/76 75/99/75 98/98/98
f 99/101/99 47/45/47 45/47/45
f 67/68/67 47/45/47 99/101/99
f 100/102/100 67/68/67 99/101/99
f 56/56/56 67/68/67 100/102/100
f 86/103/86 56/56/56 100/102/100
f 55/57/55 56/56/56 86/103/86
f 85/104/85 55/57/55 86/103/86
f 101/105/101 55/57/55 85/104/85
f 104/106/104 103/107/103 102/108/102
f 105/109/105 103/107/103 104/106/104
f 106/110/106 105/109/105 104/106/104
f 81/111/81 105/109/105 106/110/106
f 101/105/101 81/111/81 106/110/106
f 83/112/83 81/111/81 101/105/101
f 85/104/85 83/112/83 101/105/101
f 32/32/32 107/113/107 34/34/34
f 108/114/108 107/113/107 32/32/32
f 109/115/109 108/114/108 32/32/32
f 110/116/110 108/114/108 109/115/109
f 111/117/111 110/116/110 109/115/109
f 112/118/112 110/116/110 111/117/111
f 72/72/72 20/18/20 18/20/18
f 36/36/36 20/18/20 72/72/72
f 74/74/74 36/36/36 72/72/72
f 35/37/35 36/36/36 74/74/74
f 76/76/76 35/37/35 74/74/74
f 113/119/113 35/37/35 76/76/76
f 114/120/114 35/37/35 113/119/113
f 37/35/37 35/37/35 114/120/114
f 115/121/115 37/35/37 114/120/114
f 116/122/116 37/35/37 115/121/115
f 117/123/117 116/122/116 115/121/115
f 41/41/41 116/122/116 117/123/117
f 15/15/15 118/124/118 17/17/17
f 119/125/119 118/124/118 15/15/15
f 120/126/120 119/125/119 15/15/15
f 121/127/121 119/125/119 120/126/120
f 33/128/33 121/127/121 120/126/120
f 34/129/34 121/127/121 33/128/33
f 123/130/123 122/131/122 112/132/112
f 124/133/124 122/131/122 123/130/123
f 125/134/125 124/133/124 123/130/123
f 118/124/118 124/133/124 125/134/125
f 126/135/126 118/124/118 125/134/125
f 4/4/4 127/136/127 2/2/2
f 128/137/128 127/136/127 4/4/4
f 94/94/94 128/137/128 4/4/4
f 129/138/129 128/137/128 94/94/94
f 130/139/130 129/138/129 94/94/94
f 12/12/12 98/98/98 10/10/10
f 131/140/131 98/98/98 12/12/12
f 132/141/132 131/140/131 12/12/12
f 133/142/133 131/140/131 132/141/132
f 134/143/134 133/142/133 132/141/132
f 119/125/119 124/133/124 118/124/118
f 135/144/135 124/133/124 119/125/119
f 121/127/121 135/144/135 119/125/119
f 107/145/107 135/144/135 121/127/121
f 34/129/34 107/145/107 121/127/121
f 88/88/88 136/146/136 87/87/87
f 137/147/137 136/146/136 88/88/88
f 89/89/89 137/147/137 88/88/88
f 130/148/130 137/147/137 89/89/89
f 91/91/91 130/148/130 89/89/89
f 61/61/61 138/149/138 63/63/63
f 139/150/139 138/149/138 61/61/61
f 59/59/59 139/150/139 61/61/61
f 140/151/140 139/150/139 59/59/59
f 57/55/57 140/151/140 59/59/59
f 79/79/79 105/152/105 81/81/81
f 141/153/141 105/152/105 79/79/79
f 77/77/77 141/153/141 79/79/79
f 1/3/1 141/153/141 77/77/77
f 106/110/106 55/57/55 101/105/101
f 57/55/57 55/57/55 106/110/106
f 104/106/104 57/55/57 106/110/106
f 140/151/140 57/55/57 104/106/104
f 58/58/58 67/68/67 56/56/56
f 68/67/68 67/68/67 58/58/58
f 60/60/60 68/67/68 58/58/58
f 62/62/62 68/67/68 60/60/60
f 143/154/143 142/155/142 46/156/46
f 144/157/144 142/155/142 143/154/143
f 145/158/145 144/157/144 143/154/143
f 146/159/146 144/157/144 145/158/145
f 70/70/70 90/90/90 71/71/71
f 147/160/147 90/90/90 70/70/70
f 68/67/68 147/160/147 70/70/70
f 62/62/62 147/160/147 68/67/68
f 27/27/27 23/23/23 25/25/25
f 21/21/21 23/23/23 27/27/27
f 52/52/52 21/21/21 27/27/27
f 50/50/50 21/21/21 52/52/52
f 146/161/146 53/53/53 54/54/54
f 51/51/51 53/53/53 146/161/146
f 49/49/49 51/51/51 146/161/146
f 148/162/148 78/78/78 80/80/80
f 99/163/99 78/78/78 148/162/148
f 100/164/100 99/163/99 148/162/148
f 131/140/131 76/100/76 98/98/98
f 113/165/113 76/100/76 131/140/131
f 133/142/133 113/165/113 131/140/131
f 149/166/149 78/78/78 99/163/99
f 7/7/7 78/78/78 149/166/149
f 9/9/9 7/7/7 149/166/149
f 142/155/142 149/166/149 46/156/46
f 9/9/9 149/166/149 142/155/142
f 11/11/11 9/9/9 142/155/142
f 64/64/64 147/160/147 62/62/62
f 92/92/92 147/160/147 64/64/64
f 66/66/66 92/92/92 64/64/64
f 148/162/148 84/84/84 86/86/86
f 82/82/82 84/84/84 148/162/148
f 80/80/80 82/82/82 148/162/148
f 30/30/30 109/115/109 32/32/32
f 44/44/44 109/115/109 30/30/30
f 28/28/28 44/44/44 30/30/30
f 108/114/108 122/167/122 107/113/107
f 112/118/112 122/167/122 108/114/108
f 110/116/110 112/118/112 108/114/108
f 150/168/150 146/159/146 54/169/54
f 144/157/144 146/159/146 150/168/150
f 13/13/13 144/157/144 150/168/150
f 14/14/14 132/141/132 12/12/12
f 16/16/16 132/141/132 14/14/14
f 45/170/45 149/166/149 99/163/99
f 46/156/46 149/166/149 45/170/45
f 87/171/87 97/97/97 75/99/75
f 136/172/136 97/97/97 87/171/87
f 136/172/136 96/96/96 97/97/97
f 137/173/137 96/96/96 136/172/136
f 142/155/142 13/13/13 11/11/11
f 144/157/144 13/13/13 142/155/142
f 137/173/137 95/95/95 96/96/96
f 130/139/130 95/95/95 137/173/137
f 122/131/122 135/144/135 107/145/107
f 124/133/124 135/144/135 122/131/122
f 48/48/48 143/174/143 46/46/46
f 49/49/49 143/174/143 48/48/48
f 145/175/145 49/49/49 146/161/146
f 143/174/143 49/49/49 145/175/145
f 69/69/69 19/19/19 47/45/47
f 18/20/18 19/19/19 69/69/69
f 40/40/40 116/122/116 41/41/41
f 39/39/39 116/122/116 40/40/40
f 20/18/20 38/38/38 22/22/22
f 36/36/36 38/38/38 20/18/20
f 151/176/151 141/153/141 1/3/1
f 102/177/102 141/153/141 151/176/151
f 103/178/103 141/153/141 102/177/102
f 105/152/105 141/153/141 103/178/103
f 152/179/152 109/115/109 44/44/44
f 111/117/111 109/115/109 152/179/152
f 129/180/129 91/91/91 93/93/93
f 130/148/130 91/91/91 129/180/129
f 3/1/3 77/77/77 5/5/5
f 1/3/1 77/77/77 3/1/3
f 33/128/33 150/168/150 54/169/54
f 120/126/120 150/168/150 33/128/33
f 150/168/150 15/15/15 13/13/13
f 120/126/120 15/15/15 150/168/150
f 126/135/126 125/134/125 123/130/123
f 95/95/95 130/139/130 94/94/94
f 134/143/134 132/141/132 16/16/16
f 147/160/147 92/92/92 90/90/90
f 100/164/100 148/162/148 86/86/86
f 39/39/39 37/35/37 116/122/116
f 33/33/33 29/29/29 31/31/31
f 19/19/19 21/21/21 50/50/50
f 29/29/29 52/52/52 27/27/27
