# Blender 4.1.1
# www.blender.org
mtllib polygon361.mtl
o polygon361
v 113.570892 2337.421143 -132.000092
v 128.756500 2363.992188 -132.000076
v -16.277100 2380.479004 -125.971184
v -118.527100 2445.993164 -115.524490
v -123.371490 2415.993164 -115.524490
v 113.570892 2337.421143 -129.000092
v 189.104202 2276.029053 -145.430969
v 189.104202 2276.029053 -142.430969
v 264.637482 2214.637207 -155.861862
v 271.708588 2221.708008 -158.862045
v -16.277100 2380.479004 -122.971184
v -123.371490 2415.993164 -112.524490
v 264.637482 2214.637207 -158.861862
vn -0.0341 0.1003 -0.9944
vn -0.0374 0.0362 -0.9986
vn -0.0390 0.0223 -0.9990
vn -0.0810 0.0325 -0.9962
vn -0.0922 0.0149 -0.9956
vn -0.6307 -0.7760 -0.0000
vn -0.1123 0.0743 -0.9909
vn -0.1202 0.0687 -0.9904
vn -0.3148 -0.9492 -0.0000
vn -0.3147 -0.9492 -0.0000
vn -0.0972 0.0971 -0.9905
vt 11.000000 3.345703
vt 9.875000 -0.875000
vt 11.000000 -0.625000
vt 9.875000 6.625000
vt 11.000000 6.604980
vt 11.000000 -3.944824
vt 11.125001 -1.125000
vt 11.000000 -1.125000
vt 11.125001 -3.944824
vt 11.125001 -6.750000
vt 9.875000 -6.750000
vt 11.125001 -0.625000
vt 11.125001 3.341797
vt 11.125001 6.604980
vt 11.000000 -6.750000
s 1
usemtl mt_town_enseki.006
f 3/1/1 2/2/2 1/3/3
f 4/4/4 2/2/2 3/1/1
f 5/5/5 4/4/4 3/1/1
s 0
f 7/6/6 6/7/6 1/8/6
f 8/9/6 6/7/6 7/6/6
f 9/10/6 8/9/6 7/6/6
f 7/6/7 2/2/7 10/11/7
f 1/8/8 2/2/8 7/6/8
f 6/12/9 3/1/9 1/3/9
f 11/13/10 3/1/10 6/12/10
f 11/13/9 5/5/9 3/1/9
f 12/14/9 5/5/9 11/13/9
f 13/15/11 7/6/11 10/11/11
f 13/15/6 9/10/6 7/6/6
