# Blender 4.1.1
# www.blender.org
mtllib polygon738.mtl
o polygon738
v -87.179245 -3247.829590 -1468.209595
v -87.179245 -3247.829590 -1492.768677
v -87.179245 -3235.484131 -1468.209473
v -87.179245 -3235.484131 -1492.768555
v -87.179245 -3248.928223 -1534.841675
v -87.179245 -3248.928223 -1559.400757
v -87.179245 -3236.582275 -1534.841553
v -87.179245 -3236.582275 -1559.400635
v 69.418457 -3322.731201 -1633.307739
v 69.418457 -3322.731201 -1657.871704
v 69.125000 -3335.079102 -1633.307739
v 69.125000 -3335.079102 -1657.871704
v -70.727051 -3181.961182 -1599.453613
v -71.020256 -3194.301270 -1599.453613
v -70.727051 -3181.961182 -1624.012695
v -71.020256 -3194.301270 -1624.012695
v -77.083969 -3358.006348 -1632.226685
v -77.082520 -3349.419922 -1632.226685
v -77.083969 -3358.006348 -1656.395752
v -77.082520 -3349.419922 -1656.395752
v -105.238297 -3319.369873 -1632.226685
v -113.824997 -3319.387207 -1632.226685
v -105.238297 -3319.369873 -1656.395752
v -113.824997 -3319.387207 -1656.395752
v -104.578400 -3386.754150 -1632.226685
v -104.578400 -3386.754150 -1656.395752
v -113.164795 -3386.769043 -1632.226685
v -113.164795 -3386.769043 -1656.395752
v -144.731903 -3356.621338 -1632.226685
v -144.731903 -3356.621338 -1656.395752
v -144.718292 -3348.034912 -1632.226685
v -144.718292 -3348.034912 -1656.395752
v -72.339600 -3139.996582 -1685.896484
v -72.357422 -3131.409424 -1685.896484
v -72.339600 -3139.996582 -1710.064453
v -72.357422 -3131.409424 -1710.064453
v -100.147690 -3101.304443 -1685.368530
v -108.734390 -3101.313477 -1685.368530
v -100.147690 -3101.304443 -1709.537598
v -108.734390 -3101.313477 -1709.537598
v -139.720200 -3138.616455 -1685.896484
v -139.720200 -3138.616455 -1710.064453
v -139.745590 -3130.029297 -1685.896484
v -139.745590 -3130.029297 -1710.064453
v -99.558838 -3168.761475 -1685.896484
v -99.558838 -3168.761475 -1710.064453
v -108.144997 -3168.750244 -1685.896484
v -108.144997 -3168.750244 -1710.064453
v -31.125978 -3237.808350 -1704.628540
v -31.125978 -3237.808350 -1728.796753
v -31.106449 -3229.221680 -1704.628540
v -31.106449 -3229.221680 -1728.796753
v 8.243164 -3196.950195 -1704.628540
v -0.343506 -3196.951660 -1704.628540
v 8.243164 -3196.950195 -1728.796753
v -0.343506 -3196.951660 -1728.796753
v 36.954830 -3232.299316 -1704.628540
v 36.989498 -3223.714355 -1704.628540
v 36.954830 -3232.299316 -1728.796753
v 36.989498 -3223.714355 -1728.796753
v 8.886963 -3265.020264 -1704.628662
v 8.886963 -3265.020264 -1728.796875
v 0.299805 -3265.050293 -1704.628662
v 0.299805 -3265.050293 -1728.796875
v 130.288101 -3113.000000 -1609.472534
v 121.701698 -3113.001221 -1609.472534
v 130.288101 -3113.000000 -1633.641602
v 121.701698 -3113.001221 -1633.641602
v 91.859619 -3147.386230 -1609.472534
v 91.859619 -3147.386230 -1633.641602
v 91.816406 -3138.798096 -1609.472534
v 91.816406 -3138.798096 -1633.641602
v 159.381104 -3148.989990 -1609.472534
v 159.374802 -3140.404053 -1609.472534
v 159.381104 -3148.989990 -1633.641602
v 159.374802 -3140.404053 -1633.641602
v 130.948502 -3180.376221 -1609.472534
v 130.948502 -3180.376221 -1633.641602
v 122.362099 -3180.375244 -1609.472534
v 122.362099 -3180.375244 -1633.641602
v 126.679199 -3434.904053 -1562.262817
v 126.672897 -3426.317139 -1562.262817
v 126.679199 -3434.904053 -1586.431885
v 126.672897 -3426.317139 -1586.431885
v 96.368637 -3461.979248 -1562.262817
v 96.368637 -3461.979248 -1586.431885
v 87.782227 -3461.977295 -1562.262817
v 87.782227 -3461.977295 -1586.431885
v 50.344238 -3352.676270 -1633.307739
v 50.344238 -3352.676270 -1657.871704
v 37.996086 -3352.382080 -1633.307739
v 37.996086 -3352.382080 -1657.871704
v 51.457024 -3305.833008 -1633.307739
v 39.109131 -3305.539062 -1633.307739
v 51.457024 -3305.833008 -1657.871704
v 39.109131 -3305.539062 -1657.871704
v -27.610600 -3070.721191 -1534.838623
v -39.964836 -3070.692139 -1534.838623
v -27.610600 -3070.721191 -1559.403564
v -39.964836 -3070.692139 -1559.403564
v -27.943850 -3070.713135 -1470.719482
v -40.298100 -3070.684082 -1470.719482
v -27.943850 -3070.713135 -1495.283569
v -40.298100 -3070.684082 -1495.283569
v 56.761955 -3072.059570 -1470.719482
v 44.407471 -3072.052246 -1470.719482
v 56.761955 -3072.059570 -1495.283569
v 44.407471 -3072.052246 -1495.283569
v 57.095459 -3072.068115 -1534.838623
v 44.740971 -3072.059570 -1534.838623
v 57.095459 -3072.068115 -1559.403564
v 44.740971 -3072.059570 -1559.403564
v 114.335396 -3206.406250 -1486.013550
v 104.555191 -3206.406250 -1486.013550
v 114.335396 -3206.406250 -1505.469482
v 104.555191 -3206.406250 -1505.469482
v 139.418198 -3206.406250 -1486.013550
v 129.637695 -3206.406250 -1486.013550
v 139.418198 -3206.406250 -1505.469482
v 129.637695 -3206.406250 -1505.469482
v -87.455841 -3094.762207 -1468.209473
v -87.455841 -3094.762207 -1492.768555
v -87.455841 -3082.417236 -1468.209473
v -87.455841 -3082.417236 -1492.768555
v -87.455841 -3097.429932 -1534.841553
v -87.455841 -3097.429932 -1559.400635
v -87.455841 -3085.083008 -1534.841553
v -87.455841 -3085.083008 -1559.400635
v 136.472198 -3326.594482 -1486.013672
v 136.472198 -3326.594482 -1505.469604
v 126.691895 -3326.594482 -1486.013672
v 126.691895 -3326.594482 -1505.469604
v 111.380592 -3326.594482 -1486.013672
v 111.380592 -3326.594482 -1505.469604
v 101.600288 -3326.594482 -1486.013672
v 101.600288 -3326.594482 -1505.469604
v 74.505615 -3185.185059 -1603.194458
v 74.505615 -3185.185059 -1627.753540
v 74.212395 -3197.524902 -1603.194458
v 74.212395 -3197.524902 -1627.753540
v -87.204819 -3252.992188 -1368.680786
v -87.204819 -3252.992188 -1413.395752
v -87.127930 -3224.939941 -1368.680664
v -87.127930 -3224.939941 -1413.395630
v -87.407761 -3196.753174 -1468.209473
v -87.407761 -3196.753174 -1492.768555
v -87.407761 -3184.407227 -1468.209473
v -87.407761 -3184.407227 -1492.768555
v -87.407761 -3199.423096 -1534.841553
v -87.407761 -3199.423096 -1559.400635
v -87.407761 -3187.072266 -1534.841553
v -87.407761 -3187.072266 -1559.400635
v -87.476906 -3303.571045 -1534.841675
v -87.476906 -3303.571045 -1559.400757
v -87.476906 -3291.225098 -1534.841675
v -87.476906 -3291.225098 -1559.400757
v -87.476906 -3302.473145 -1468.209595
v -87.476906 -3302.473145 -1492.768677
v -87.476906 -3290.127197 -1468.209595
v -87.476906 -3290.127197 -1492.768677
v -87.594727 -3399.685059 -1468.209595
v -87.594727 -3399.685059 -1492.768677
v -87.360596 -3387.342285 -1468.209595
v -87.360596 -3387.342285 -1492.768677
v -87.609375 -3402.572998 -1534.841675
v -87.609375 -3402.572998 -1559.400757
v -87.429199 -3390.229980 -1534.841675
v -87.429199 -3390.229980 -1559.400757
v 97.611099 -3365.435059 -1469.318726
v 97.611099 -3365.435059 -1493.877808
v 97.505630 -3377.780029 -1469.318726
v 97.505630 -3377.780029 -1493.877808
v 97.449615 -3098.239990 -1470.866577
v 97.449615 -3098.239990 -1495.426758
v 97.460114 -3110.588135 -1470.866577
v 97.460114 -3110.588135 -1495.426758
v 97.449615 -3098.239990 -1534.841553
v 97.449615 -3098.239990 -1559.400635
v 97.460114 -3110.588135 -1534.841553
v 97.460114 -3110.588135 -1559.400635
v 97.611099 -3365.435059 -1534.841675
v 97.611099 -3365.435059 -1559.400757
v 97.505630 -3377.780029 -1534.841675
v 97.505630 -3377.780029 -1559.400757
v 157.000000 -3244.787109 -1486.408569
v 157.000000 -3244.787109 -1505.861572
v 157.000000 -3254.572266 -1486.408691
v 157.000000 -3254.572266 -1505.861694
v 157.291092 -3291.503174 -1485.857666
v 157.291092 -3291.503174 -1505.310791
v 157.291092 -3301.273193 -1485.857666
v 157.291092 -3301.273193 -1505.310791
v 87.451660 -3420.539062 -1470.719604
v 87.451660 -3420.539062 -1495.283691
v 75.103760 -3420.244873 -1470.719604
v 75.103760 -3420.244873 -1495.283691
v 29.991207 -3419.658203 -1470.719604
v 29.991207 -3419.658203 -1495.283691
v 17.636230 -3419.672119 -1470.719604
v 17.636230 -3419.672119 -1495.283691
v -32.490719 -3419.307129 -1470.719604
v -32.490719 -3419.307129 -1495.283691
v -44.845695 -3419.306152 -1470.719604
v -44.845695 -3419.306152 -1495.283691
v -32.157471 -3419.315186 -1534.838745
v -32.157471 -3419.315186 -1559.403687
v -44.512444 -3419.313965 -1534.838745
v -44.512444 -3419.313965 -1559.403687
v 30.324709 -3419.666260 -1534.838745
v 30.324709 -3419.666260 -1559.403687
v 17.969479 -3419.679932 -1534.838745
v 17.969479 -3419.679932 -1559.403687
v 87.451660 -3420.539062 -1534.838745
v 87.451660 -3420.539062 -1559.403687
v 75.103760 -3420.244873 -1534.838745
v 75.103760 -3420.244873 -1559.403687
v -259.463104 -3157.103027 -1499.169556
v -266.779999 -3157.127197 -1499.169556
v -259.463104 -3157.103027 -1513.374634
v -266.780304 -3157.115234 -1513.374634
v -259.694092 -3317.181152 -1499.169678
v -259.694092 -3317.181152 -1513.374756
v -267.011017 -3317.186279 -1499.169678
v -267.011200 -3317.162109 -1513.374756
v -281.874786 -3179.711182 -1499.347534
v -281.874786 -3179.711182 -1513.551758
v -281.860779 -3172.395264 -1499.347534
v -281.850098 -3172.395264 -1513.551758
v -282.123016 -3302.151123 -1499.169678
v -282.123016 -3302.151123 -1513.374756
v -282.095886 -3294.834473 -1499.169678
v -282.113281 -3294.834473 -1513.374756
v -278.300293 -3309.367188 -1371.771729
v -278.300293 -3309.367188 -1388.796875
v -278.300507 -3289.453125 -1371.771729
v -278.300507 -3289.453125 -1388.796875
v -278.228485 -3186.432129 -1371.771606
v -278.228485 -3186.432129 -1388.796753
v -278.271027 -3166.518066 -1371.771606
v -278.271027 -3166.518066 -1388.796753
vn -1.0000 -0.0000 -0.0000
vn 0.9997 -0.0238 -0.0000
vn -0.9997 0.0238 -0.0000
vn 1.0000 -0.0002 -0.0000
vn -0.0020 1.0000 -0.0000
vn 0.0017 -1.0000 -0.0000
vn 0.0018 -1.0000 -0.0000
vn -1.0000 0.0016 -0.0000
vn 1.0000 0.0021 -0.0000
vn -0.0010 1.0000 -0.0000
vn -0.0011 1.0000 -0.0000
vn -1.0000 -0.0030 -0.0000
vn -0.0014 -1.0000 -0.0000
vn -0.0013 -1.0000 -0.0000
vn -1.0000 0.0023 -0.0000
vn -0.0002 1.0000 -0.0000
vn 1.0000 -0.0040 -0.0000
vn 0.0035 -1.0000 -0.0000
vn -0.0001 1.0000 -0.0000
vn -1.0000 -0.0050 -0.0000
vn 1.0000 0.0007 -0.0000
vn -0.0001 -1.0000 -0.0000
vn -0.0002 -1.0000 -0.0000
vn -0.0238 -0.9997 -0.0000
vn 0.0238 0.9997 -0.0000
vn 0.0023 1.0000 -0.0000
vn 0.0024 1.0000 -0.0000
vn 0.0006 1.0000 -0.0000
vn 0.0007 1.0000 -0.0000
vn -0.0000 1.0000 -0.0000
vn -0.0000 -1.0000 -0.0000
vn -1.0000 0.0027 -0.0000
vn -0.9998 0.0190 -0.0000
vn -0.9999 0.0146 -0.0000
vn 1.0000 -0.0085 -0.0000
vn 1.0000 0.0009 -0.0000
vn 1.0000 -0.0000 -0.0000
vn 0.0012 -1.0000 -0.0000
vn 0.0011 -1.0000 -0.0000
vn -0.0033 1.0000 -0.0000
vn -0.0017 1.0000 0.0008
vn 0.0008 -1.0000 -0.0000
vn -0.0026 -1.0000 -0.0017
vn -1.0000 0.0019 -0.0000
vn -1.0000 0.0034 -0.0008
vn -1.0000 0.0037 -0.0000
vn -1.0000 0.0013 0.0012
vn -1.0000 -0.0021 -0.0000
vt 0.724945 0.323273
vt 0.513306 0.399963
vt 0.513306 0.323273
vt 0.724945 0.399963
vt 0.350464 0.487244
vt 0.439606 0.409638
vt 0.350464 0.409638
vt 0.439606 0.487244
vt 0.284973 0.410095
vt 0.012085 0.493073
vt 0.012085 0.410095
vt 0.284973 0.493073
vt 0.245300 0.312042
vt 0.490234 0.370514
vt 0.490234 0.312042
vt 0.245300 0.370514
vt 0.245178 0.311676
vt 0.490234 0.311676
vt 0.245178 0.370514
s 0
usemtl mt_town_n_kanban.009
f 3/1/1 2/2/1 1/3/1
f 4/4/1 2/2/1 3/1/1
f 7/1/1 6/2/1 5/3/1
f 8/4/1 6/2/1 7/1/1
f 11/1/2 10/2/2 9/3/2
f 12/4/2 10/2/2 11/1/2
f 15/2/3 14/1/3 13/3/3
f 16/4/3 14/1/3 15/2/3
f 19/5/4 18/6/4 17/7/4
f 20/8/4 18/6/4 19/5/4
f 23/5/5 22/6/5 21/7/5
f 24/8/5 22/6/5 23/5/5
f 27/6/6 26/5/6 25/7/6
f 28/8/7 26/5/7 27/6/7
f 31/6/8 30/5/8 29/7/8
f 32/8/8 30/5/8 31/6/8
f 35/5/9 34/6/9 33/7/9
f 36/8/9 34/6/9 35/5/9
f 39/5/10 38/6/10 37/7/10
f 40/8/11 38/6/11 39/5/11
f 43/6/12 42/5/12 41/7/12
f 44/8/12 42/5/12 43/6/12
f 47/6/13 46/5/13 45/7/13
f 48/8/14 46/5/14 47/6/14
f 51/6/15 50/5/15 49/7/15
f 52/8/15 50/5/15 51/6/15
f 55/5/16 54/6/16 53/7/16
f 56/8/16 54/6/16 55/5/16
f 59/5/17 58/6/17 57/7/17
f 60/8/17 58/6/17 59/5/17
f 63/6/18 62/5/18 61/7/18
f 64/8/18 62/5/18 63/6/18
f 67/5/16 66/6/16 65/7/16
f 68/8/19 66/6/19 67/5/19
f 71/6/20 70/5/20 69/7/20
f 72/8/20 70/5/20 71/6/20
f 75/5/21 74/6/21 73/7/21
f 76/8/21 74/6/21 75/5/21
f 79/6/22 78/5/22 77/7/22
f 80/8/23 78/5/23 79/6/23
f 83/5/21 82/6/21 81/7/21
f 84/8/21 82/6/21 83/5/21
f 87/6/23 86/5/23 85/7/23
f 88/8/23 86/5/23 87/6/23
f 91/1/24 90/2/24 89/3/24
f 92/4/24 90/2/24 91/1/24
f 95/2/25 94/1/25 93/3/25
f 96/4/25 94/1/25 95/2/25
f 99/2/26 98/1/26 97/3/26
f 100/4/27 98/1/27 99/2/27
f 103/2/27 102/1/27 101/3/27
f 104/4/26 102/1/26 103/2/26
f 107/2/28 106/1/28 105/3/28
f 108/4/28 106/1/28 107/2/28
f 111/2/29 110/1/29 109/3/29
f 112/4/29 110/1/29 111/2/29
f 115/2/30 114/1/30 113/3/30
f 116/4/30 114/1/30 115/2/30
f 119/2/30 118/1/30 117/3/30
f 120/4/30 118/1/30 119/2/30
f 123/1/1 122/2/1 121/3/1
f 124/4/1 122/2/1 123/1/1
f 127/1/1 126/2/1 125/3/1
f 128/4/1 126/2/1 127/1/1
f 131/1/31 130/2/31 129/3/31
f 132/4/31 130/2/31 131/1/31
f 135/1/31 134/2/31 133/3/31
f 136/4/31 134/2/31 135/1/31
f 139/1/2 138/2/2 137/3/2
f 140/4/2 138/2/2 139/1/2
f 143/9/32 142/10/32 141/11/32
f 144/12/32 142/10/32 143/9/32
f 147/1/1 146/2/1 145/3/1
f 148/4/1 146/2/1 147/1/1
f 151/1/1 150/2/1 149/3/1
f 152/4/1 150/2/1 151/1/1
f 155/1/1 154/2/1 153/3/1
f 156/4/1 154/2/1 155/1/1
f 159/1/1 158/2/1 157/3/1
f 160/4/1 158/2/1 159/1/1
f 163/1/33 162/2/33 161/3/33
f 164/4/33 162/2/33 163/1/33
f 167/1/34 166/2/34 165/3/34
f 168/4/34 166/2/34 167/1/34
f 171/1/35 170/2/35 169/3/35
f 172/4/35 170/2/35 171/1/35
f 175/1/36 174/2/36 173/3/36
f 176/4/36 174/2/36 175/1/36
f 179/1/36 178/2/36 177/3/36
f 180/4/36 178/2/36 179/1/36
f 183/1/35 182/2/35 181/3/35
f 184/4/35 182/2/35 183/1/35
f 187/1/37 186/2/37 185/3/37
f 188/4/37 186/2/37 187/1/37
f 191/1/37 190/2/37 189/3/37
f 192/4/37 190/2/37 191/1/37
f 195/1/24 194/2/24 193/3/24
f 196/4/24 194/2/24 195/1/24
f 199/1/38 198/2/38 197/3/38
f 200/4/39 198/2/39 199/1/39
f 203/1/22 202/2/22 201/3/22
f 204/4/22 202/2/22 203/1/22
f 207/1/22 206/2/22 205/3/22
f 208/4/22 206/2/22 207/1/22
f 211/1/39 210/2/39 209/3/39
f 212/4/39 210/2/39 211/1/39
f 215/1/24 214/2/24 213/3/24
f 216/4/24 214/2/24 215/1/24
f 219/13/40 218/14/40 217/15/40
f 220/16/41 218/14/41 219/13/41
f 223/14/42 222/13/42 221/15/42
f 224/16/43 222/13/43 223/14/43
f 227/14/44 226/13/44 225/15/44
f 228/16/45 226/13/45 227/14/45
f 231/14/46 230/13/46 229/15/46
f 232/16/47 230/13/47 231/14/47
f 235/14/1 234/17/1 233/18/1
f 236/19/1 234/17/1 235/14/1
f 239/14/48 238/17/48 237/18/48
f 240/19/48 238/17/48 239/14/48
