# Blender 4.1.1
# www.blender.org
mtllib polygon19.001.mtl
o polygon19.001
v 2614.929199 -6607.866211 0.000773
v 2477.335205 -5469.167480 0.000637
v 1311.011963 -6632.935547 0.000776
v 121.251091 -6404.710938 0.000749
v 433.334686 -8465.573242 0.000994
v 123.707100 -8463.163086 0.000994
v 367.691681 -8657.232422 0.001017
v 168.886093 -8656.259766 0.001017
v 167.920502 -8838.537109 0.001039
v 123.937195 -8656.040039 0.001017
v 124.204185 -8879.853516 0.001044
v 409.179047 -8880.792969 0.001044
v 367.692505 -8839.135742 0.001039
v 3232.003906 -5782.956055 0.000674
v 3070.002197 -5784.009277 0.000675
v 3228.836182 -6076.741211 0.000709
v 3059.684082 -6076.138184 0.000709
v 2887.731201 -5687.181641 0.000663
v 2882.340820 -6288.161133 0.000735
v 409.093781 -8657.436523 0.001017
v -3051.531250 -4237.237793 -533.999512
v -2599.795166 -4185.145996 -533.999512
v -3053.392090 -4113.791992 -533.999512
v -2605.615234 -4050.223633 -533.999512
v -2981.587158 -3967.697754 -533.999451
v -2850.560791 -3827.206787 -533.999573
v -2913.312012 -3803.002686 -533.999634
v -2708.431152 -4429.506348 -533.999390
v -2605.446045 -4314.744141 -533.999512
v -2839.099121 -4447.886230 -533.999451
v -2987.992188 -4368.975098 -533.999390
v -2457.667236 -3916.499756 -533.999512
v -2653.264893 -3739.010986 -533.999573
v -2474.603027 -3846.346924 -533.999512
v -2436.661133 -3763.445801 -533.999573
v -2577.132080 -3134.921875 -533.999573
v -2608.903076 -3155.515869 -533.999634
v -2512.341064 -3174.586914 -533.999634
v -2652.845215 -3219.847900 -533.999634
v -2686.485840 -3290.413818 -533.999573
v -2767.776123 -3775.377686 -533.999573
v -2464.758057 -3611.214600 -533.999573
v -2630.819092 -3683.494629 -533.999573
v -2630.463135 -3611.357910 -533.999573
v -2681.222168 -3523.019043 -533.999573
v -2471.014160 -3458.128662 -533.999573
v -2696.598145 -3458.207764 -533.999573
v -2696.701172 -3334.125000 -533.999512
v -2482.645996 -3336.275879 -533.999512
v 1115.938110 -4452.023438 -594.396362
v 1160.336060 -4327.079102 -575.710571
v 1002.041992 -4278.657227 -575.710571
v 1187.164062 -4171.503418 -553.287476
v 1038.829956 -4138.060059 -553.287476
v 1193.248047 -4010.476807 -530.864563
v 1054.998047 -3993.259766 -530.864502
v 1081.557007 -3838.822754 -505.639893
v 846.667297 -2608.284424 -342.551880
v 711.416870 -2533.595215 -323.950348
v 648.673889 -2619.523193 -333.950378
v 590.813049 -2455.433105 -316.000092
v 534.570068 -2545.057373 -322.996490
v 462.653076 -2391.538330 -308.049774
v 411.379883 -2483.737061 -312.042572
v 305.525879 -2417.758301 -298.222748
v 1113.116089 -3197.725830 -402.487457
v 1079.882080 -3041.077148 -376.135651
v 936.932007 -3086.059570 -376.135681
v 1045.716064 -2965.206787 -366.452820
v 872.107788 -2997.195801 -366.700439
v 1069.013062 -2872.646240 -368.294342
v 1101.341064 -2794.048096 -364.749481
v 1214.171997 -3844.186768 -505.639923
v 1193.229980 -3677.473633 -480.415375
v 1066.079956 -3684.551758 -480.415375
v 1057.904053 -3529.957764 -455.190887
v 1179.472046 -3510.601807 -455.190857
v 1158.525024 -3350.171143 -428.839081
v 1030.225098 -3377.968018 -428.839081
v 978.083252 -3233.965820 -402.487427
v 953.038086 -4515.115723 -615.727173
v 1051.201050 -4544.625000 -615.727173
v 957.901611 -4420.204102 -598.133484
v 1092.599976 -4468.822266 -598.133545
v 949.344421 -4391.120117 -594.396301
v 800.266296 -2883.193115 -364.749451
v 817.546448 -2801.742188 -361.153442
v 983.388184 -2684.050049 -361.153503
v 788.731689 -2747.158936 -348.377930
v 354.983887 -2324.759277 -296.226288
v 194.191193 -2359.939209 -284.402832
v 241.828491 -2266.135986 -284.402832
v 54.770760 -2275.196045 -259.749512
v 107.887497 -2166.800049 -259.749542
v -69.948730 -2231.597168 -259.749512
v 49.651230 -2040.624023 -259.749542
vn -0.0000 -0.0000 -1.0000
vn 0.0470 0.1375 -0.9894
vn 0.0409 0.1336 -0.9902
vn 0.0481 0.1400 -0.9890
vn 0.0415 0.1355 -0.9899
vn 0.0326 0.1444 -0.9890
vn 0.0318 0.1410 -0.9895
vn 0.0336 0.1488 -0.9883
vn 0.0308 0.1367 -0.9901
vn 0.0188 0.1510 -0.9884
vn 0.0059 0.1538 -0.9881
vn 0.0136 0.1541 -0.9880
vn 0.0197 0.1579 -0.9873
vn -0.0296 0.1077 -0.9937
vn -0.0241 0.1329 -0.9908
vn -0.0682 0.0862 -0.9939
vn -0.0166 0.0962 -0.9952
vn -0.0317 0.0897 -0.9955
vn -0.0564 0.0766 -0.9955
vn -0.0644 0.0789 -0.9948
vn -0.0809 0.0696 -0.9943
vn -0.0329 0.1266 -0.9914
vn -0.0420 0.1335 -0.9902
vn -0.0463 0.1596 -0.9861
vn -0.0105 0.0388 -0.9992
vn -0.0097 0.0418 -0.9991
vn -0.0367 0.0453 -0.9983
vn -0.0198 0.0325 -0.9993
vn 0.0061 0.1498 -0.9887
vn -0.0085 0.1556 -0.9878
vn -0.0089 0.1605 -0.9870
vn -0.0219 0.1593 -0.9870
vn -0.0310 0.1611 -0.9864
vn -0.0342 0.1576 -0.9869
vn -0.0268 0.1552 -0.9875
vn -0.0347 0.1602 -0.9865
vn -0.0441 0.1644 -0.9854
vn -0.0439 0.1634 -0.9856
vn 0.0553 0.1580 -0.9859
vn 0.0632 0.1861 -0.9805
vn 0.0539 0.1793 -0.9823
vn 0.0591 0.1636 -0.9847
vn 0.0516 0.1411 -0.9887
vn -0.0086 0.0292 -0.9995
vn -0.0532 0.0879 -0.9947
vn -0.0464 0.0517 -0.9976
vn -0.0865 0.1081 -0.9904
vn -0.0790 0.0581 -0.9952
vn -0.1086 0.0604 -0.9922
vn -0.1094 0.0550 -0.9925
vn -0.0664 0.0329 -0.9973
vn -0.0511 0.0250 -0.9984
vt 0.946167 2.715332
vt 1.334839 2.327393
vt 1.380737 2.706909
vt 0.549560 2.639282
vt 0.653565 3.326172
vt 0.550293 3.325317
vt 0.631714 3.390015
vt 0.565430 3.389771
vt 0.565064 3.450439
vt 0.550415 3.389648
vt 0.550537 3.464233
vt 0.631714 3.450684
vt 0.645508 3.464600
vt 1.585449 2.529907
vt 1.532471 2.432373
vt 1.586426 2.432007
vt 1.529053 2.529663
vt 1.471680 2.400024
vt 1.469849 2.600342
vt 0.645508 3.390137
vt -0.508667 1.875610
vt -0.357422 1.899292
vt -0.508057 1.916748
vt -0.359375 1.854370
vt -0.484863 1.826904
vt -0.441040 1.780029
vt -0.462036 1.771973
vt -0.437256 1.986938
vt -0.359375 1.942627
vt -0.393677 1.980835
vt -0.486939 1.960693
vt -0.375366 1.750610
vt -0.310059 1.809814
vt -0.315796 1.786499
vt -0.303101 1.758789
vt -0.328369 1.562500
vt -0.360474 1.556152
vt -0.349976 1.549316
vt -0.375122 1.577637
vt -0.386353 1.601074
vt -0.413452 1.762817
vt -0.312500 1.708008
vt -0.367798 1.732178
vt -0.367676 1.708130
vt -0.384644 1.678711
vt -0.314575 1.656982
vt -0.389771 1.657104
vt -0.389771 1.615723
vt -0.318481 1.616455
vt 1.173828 2.007935
vt 1.225220 1.994995
vt 1.227905 2.005859
vt 1.221924 1.982056
vt 1.170532 1.994873
vt 1.218750 1.968994
vt 1.167358 1.981812
vt 1.164185 1.969238
vt 1.110718 1.754028
vt 1.162109 1.741089
vt 1.169678 1.771851
vt 1.157227 1.721680
vt 1.105835 1.734497
vt 1.152466 1.702271
vt 1.101074 1.715088
vt 1.095337 1.692017
vt 1.147339 1.901245
vt 1.198242 1.886475
vt 1.201660 1.900391
vt 1.193970 1.869385
vt 1.138184 1.864502
vt 1.188477 1.847534
vt 1.184082 1.829468
vt 1.215332 1.955444
vt 1.212036 1.941895
vt 1.161011 1.956543
vt 1.157959 1.943970
vt 1.154419 1.929688
vt 1.205078 1.914307
vt 1.208618 1.928345
vt 1.150879 1.915527
vt 1.177002 2.020874
vt 1.230835 2.017578
vt 1.179443 2.030518
vt 1.228394 2.008057
vt 1.176514 2.018799
vt 1.129883 1.831055
vt 1.125000 1.811401
vt 1.177368 1.802612
vt 1.119141 1.787720
vt 1.146729 1.679077
vt 1.089600 1.668823
vt 1.140869 1.655884
vt 1.082642 1.640991
vt 1.134521 1.622925
vt 1.068481 1.621704
vt 1.108154 1.558350
s 0
usemtl mt_za_water_off
f 3/1/1 2/2/1 1/3/1
f 4/4/1 2/2/1 3/1/1
f 5/5/1 4/4/1 3/1/1
f 6/6/1 4/4/1 5/5/1
f 7/7/1 6/6/1 5/5/1
f 8/8/1 6/6/1 7/7/1
f 9/9/1 8/8/1 7/7/1
f 10/10/1 8/8/1 9/9/1
f 11/11/1 10/10/1 9/9/1
f 13/12/1 7/7/1 12/13/1
f 9/9/1 7/7/1 13/12/1
f 11/11/1 9/9/1 13/12/1
f 16/14/1 15/15/1 14/16/1
f 17/17/1 15/15/1 16/14/1
f 17/17/1 18/18/1 15/15/1
f 19/19/1 18/18/1 17/17/1
f 19/19/1 2/2/1 18/18/1
f 1/3/1 2/2/1 19/19/1
f 20/20/1 7/7/1 5/5/1
f 12/13/1 7/7/1 20/20/1
f 6/6/1 8/8/1 10/10/1
f 12/13/1 11/11/1 13/12/1
f 23/21/1 22/22/1 21/23/1
f 24/24/1 22/22/1 23/21/1
f 25/25/1 24/24/1 23/21/1
f 26/26/1 24/24/1 25/25/1
f 27/27/1 26/26/1 25/25/1
f 30/28/1 29/29/1 28/30/1
f 22/22/1 29/29/1 30/28/1
f 31/31/1 22/22/1 30/28/1
f 21/23/1 22/22/1 31/31/1
f 33/32/1 32/33/1 24/24/1
f 34/34/1 32/33/1 33/32/1
f 35/35/1 34/34/1 33/32/1
f 38/36/1 37/37/1 36/38/1
f 39/39/1 37/37/1 38/36/1
f 40/40/1 39/39/1 38/36/1
f 41/41/1 24/24/1 26/26/1
f 33/32/1 24/24/1 41/41/1
f 33/32/1 42/42/1 35/35/1
f 43/43/1 42/42/1 33/32/1
f 44/44/1 42/42/1 43/43/1
f 45/45/1 42/42/1 44/44/1
f 45/45/1 46/46/1 42/42/1
f 47/47/1 46/46/1 45/45/1
f 38/36/1 48/48/1 40/40/1
f 49/49/1 48/48/1 38/36/1
f 49/49/1 47/47/1 48/48/1
f 46/46/1 47/47/1 49/49/1
s 1
f 52/50/2 51/51/3 50/52/4
s 0
f 53/53/5 51/51/5 52/50/5
s 1
f 54/54/6 53/53/7 52/50/8
f 55/55/9 53/53/7 54/54/6
s 0
f 56/56/10 55/55/10 54/54/10
s 1
f 57/57/11 55/55/12 56/56/13
f 60/58/14 59/59/15 58/60/16
f 61/61/17 59/59/15 60/58/14
f 62/62/18 61/61/17 60/58/14
f 63/63/19 61/61/17 62/62/18
f 64/64/20 63/63/19 62/62/18
f 65/65/21 63/63/19 64/64/20
f 68/66/22 67/67/23 66/68/24
f 69/69/25 67/67/23 68/66/22
f 70/70/26 69/69/25 68/66/22
f 71/71/27 69/69/25 70/70/26
f 72/72/28 71/71/27 70/70/26
f 57/57/11 73/73/29 55/55/12
f 74/74/30 73/73/29 57/57/11
f 75/75/31 74/74/30 57/57/11
f 76/76/32 74/74/30 75/75/31
f 79/77/33 78/78/34 77/79/35
s 0
f 66/68/36 78/78/36 79/77/36
f 80/80/37 66/68/37 79/77/37
s 1
f 68/66/22 66/68/24 80/80/38
f 83/81/39 82/82/40 81/83/41
f 84/84/42 82/82/40 83/81/39
f 50/52/4 84/84/42 83/81/39
f 85/85/43 50/52/4 83/81/39
f 52/50/2 50/52/4 85/85/43
f 76/76/32 77/79/35 74/74/30
f 79/77/33 77/79/35 76/76/32
f 86/86/44 72/72/28 70/70/26
f 87/87/45 72/72/28 86/86/44
f 87/87/45 88/88/46 72/72/28
f 89/89/47 88/88/46 87/87/45
f 89/89/47 58/60/16 88/88/46
f 60/58/14 58/60/16 89/89/47
f 65/65/21 90/90/48 63/63/19
f 91/91/49 90/90/48 65/65/21
f 91/91/49 92/92/50 90/90/48
f 93/93/51 92/92/50 91/91/49
f 93/93/51 94/94/52 92/92/50
f 95/95/1 94/94/52 93/93/51
f 96/96/1 94/94/52 95/95/1
