# Blender 4.1.1
# www.blender.org
mtllib polygon0.005.mtl
o polygon0.003
v 2874.475830 -6353.855469 0.000757
v 2506.193115 -4880.737793 0.000582
v 1308.993896 -6638.634277 0.000791
v -28.446289 -6412.047852 0.000764
v 424.743195 -8465.115234 0.001009
v 113.543495 -8465.139648 0.001009
v 111.159698 -8861.716797 0.001056
v 79.267578 -8918.091797 0.001063
v 456.956482 -8918.499023 0.001063
v 424.741699 -8861.729492 0.001056
v 3236.839844 -4840.788086 0.000577
v 3187.953125 -4844.991211 0.000578
v 3235.394043 -6375.907227 0.000760
v 3200.917969 -6372.091309 0.000760
v 455.967255 -8465.107422 0.001009
v 78.278809 -8465.146484 0.001009
v 488.072449 2005.059937 -0.000239
v 481.905884 1999.128052 -0.000238
v 1284.858032 1208.625000 -0.000144
v 1278.691040 1202.693115 -0.000143
v 360.187561 1878.649780 -0.000224
v 1156.973022 1082.215088 -0.000129
v -1010.142029 3828.436279 -0.000456
v -1024.712036 3828.436279 -0.000456
v -1010.142029 3463.594238 -0.000413
v -1024.712036 3463.594238 -0.000413
v -1057.455078 3828.436279 -0.000456
v -1057.455078 3463.594238 -0.000413
v 353.341705 1871.198120 -0.000223
v 1150.127075 1074.763062 -0.000128
v -1072.026001 3828.436279 -0.000456
v -1072.026001 3463.594238 -0.000413
vn -0.0000 -0.0000 -1.0000
vt 0.451172 0.000000
vt -0.233398 0.000000
vt 0.108887 0.000000
vt 1.023560 0.000000
vt 1.023743 0.000000
vt 1.258484 0.000000
vt 1.274963 1.000000
vt 1.258362 0.000000
vt -0.062256 1.000000
vt -0.233398 1.000000
vt -0.032654 0.000000
vt 1.023499 1.000000
vt 1.023804 1.000000
vt -0.233398 0.346680
vt 1.274963 0.346680
vt -0.233398 0.299988
vt 1.274963 0.299988
s 0
usemtl mt_seaunder
f 3/1/1 2/2/1 1/3/1
f 4/2/1 2/2/1 3/1/1
f 5/4/1 4/2/1 3/1/1
f 6/5/1 4/2/1 5/4/1
f 7/6/1 6/5/1 5/4/1
f 8/7/1 6/5/1 7/6/1
f 9/7/1 8/7/1 7/6/1
f 10/8/1 5/4/1 9/7/1
f 7/6/1 5/4/1 10/8/1
f 9/7/1 7/6/1 10/8/1
f 13/9/1 12/2/1 11/10/1
f 14/11/1 12/2/1 13/9/1
f 14/11/1 2/2/1 12/2/1
f 1/3/1 2/2/1 14/11/1
f 15/12/1 5/4/1 3/1/1
f 9/7/1 5/4/1 15/12/1
f 6/5/1 16/13/1 4/2/1
f 8/7/1 16/13/1 6/5/1
f 19/7/1 18/14/1 17/10/1
f 20/15/1 18/14/1 19/7/1
f 20/15/1 21/14/1 18/14/1
f 22/15/1 21/14/1 20/15/1
f 25/7/1 24/16/1 23/10/1
f 26/17/1 24/16/1 25/7/1
f 26/17/1 27/16/1 24/16/1
f 28/17/1 27/16/1 26/17/1
f 21/14/1 30/7/1 29/10/1
f 22/15/1 30/7/1 21/14/1
f 27/16/1 32/7/1 31/10/1
f 28/17/1 32/7/1 27/16/1
