# Blender 4.1.1
# www.blender.org
mtllib polygon646.mtl
o polygon646
v -869.406860 -1316.278931 -258.999634
v -860.779663 -1313.966919 -258.999634
v -869.030518 -1316.177979 -264.199005
v -847.256592 -1310.344116 -281.999725
v -854.560120 -1312.301147 -288.810730
v -826.972168 -1304.908936 -297.999634
v -831.695129 -1306.173950 -306.846039
v -803.790161 -1298.696899 -306.999725
v -806.246216 -1299.354980 -316.726135
v -778.675903 -1291.968018 -310.999634
v -778.675903 -1291.968018 -321.117249
v -751.105835 -1284.579834 -316.726135
v -708.601685 -1189.334106 -258.999634
v -717.536682 -1191.728027 -258.999756
v -709.285767 -1189.517090 -264.199127
v -731.059509 -1195.351929 -281.999634
v -723.756104 -1193.394897 -288.810547
v -751.344055 -1200.786987 -297.999634
v -746.620972 -1199.520996 -306.846039
v -774.526184 -1206.997925 -306.999725
v -772.070068 -1206.339966 -316.726135
v -799.640198 -1213.728027 -310.999695
v -799.640198 -1213.728027 -321.117401
v -827.210693 -1221.114990 -316.726013
v -927.641602 -1254.236938 -328.999664
v -909.783020 -1320.886108 -328.999634
v -862.864014 -1236.879883 -328.999634
v -845.005981 -1303.528931 -328.999664
v -798.086304 -1219.522949 -328.999512
v -780.228882 -1286.171997 -328.999664
v -732.464050 -1201.939819 -328.999634
v -714.606018 -1268.589111 -328.999451
v -666.841370 -1184.356079 -328.999634
v -648.982849 -1251.004883 -328.999664
v -666.841553 -1184.356079 -338.999634
v -732.464417 -1201.938965 -338.999512
v -798.087402 -1219.522949 -338.999512
v -862.864380 -1236.879883 -338.999512
v -927.641602 -1254.236938 -338.999664
v -647.430054 -1256.800903 -338.999664
v -648.206604 -1253.902954 -340.999725
v -713.053101 -1274.384033 -338.999664
v -713.829346 -1271.485962 -340.999542
v -778.675903 -1291.968018 -338.999542
v -779.452576 -1289.069824 -340.999664
v -844.229370 -1306.427002 -340.999664
v -648.983032 -1251.004883 -338.999725
v -714.606018 -1268.589111 -338.999542
v -780.228882 -1286.171997 -338.999542
v -845.005981 -1303.528931 -338.999542
v -778.675903 -1291.968018 -328.999542
v -908.230042 -1326.682007 -328.999634
v -843.453003 -1309.324951 -338.999542
v -908.230042 -1326.682007 -338.999634
v -668.394409 -1178.559814 -338.999634
v -668.394348 -1178.559814 -328.999634
v -734.017395 -1196.144043 -338.999634
v -799.640076 -1213.728027 -328.999512
v -799.640076 -1213.728027 -338.999512
v -864.417236 -1231.084106 -338.999512
v -890.371216 -1238.038940 -258.999603
v -910.823792 -1243.517090 -258.999512
v -889.995056 -1237.938110 -264.199097
v -929.194458 -1248.442017 -328.999664
v -875.524414 -1234.060913 -288.810699
v -852.659668 -1227.933960 -306.846008
v -798.863892 -1216.624878 -340.999634
v -863.640686 -1233.981934 -340.999695
v -928.418030 -1251.339111 -340.999664
v -687.637268 -1267.573975 -258.999634
v -647.430054 -1256.800049 -258.999634
v -688.321411 -1267.757080 -264.199036
v -647.430054 -1256.800903 -328.999664
v -702.791809 -1271.634888 -288.810547
v -725.656555 -1277.760986 -306.846039
v -929.194458 -1248.440918 -338.999664
v -909.006470 -1323.784058 -340.999634
v -909.783020 -1320.886108 -338.999695
v -881.743958 -1235.726929 -258.999725
v -868.221069 -1232.103882 -281.999695
v -824.754272 -1220.456909 -306.999603
v -847.936523 -1226.668945 -297.999695
v -696.572266 -1269.968018 -258.999634
v -710.095154 -1273.591919 -281.999634
v -730.379578 -1279.026978 -297.999634
v -753.562012 -1285.237915 -306.999725
v -667.618103 -1181.457886 -340.999634
v -733.240784 -1199.041992 -340.999512
v -668.394348 -1178.559814 -258.999634
v -908.230042 -1326.681885 -258.999634
vn 0.2589 -0.9659 -0.0000
vn 0.2588 -0.9659 -0.0000
vn 0.2588 -0.9659 -0.0001
vn -0.2588 0.9659 0.0001
vn -0.2588 0.9659 -0.0000
vn -0.0000 -0.0000 -1.0000
vn 0.1436 -0.5358 -0.8321
vn 0.1435 -0.5358 -0.8321
vn -0.1436 0.5358 -0.8321
vn -0.1436 0.5359 -0.8320
vn -0.1436 0.5358 -0.8320
vn -0.2587 0.9660 -0.0000
vn -0.2587 0.9659 -0.0001
vn 0.1436 -0.5358 -0.8320
vn -0.1435 0.5357 -0.8321
vn 0.2588 -0.9659 0.0001
vn -0.9659 -0.2588 -0.0000
vn 0.8251 0.2211 0.5199
vn 0.1469 0.0394 0.9884
vn 0.3392 0.0909 0.9363
vn 0.5854 0.1569 0.7954
vn -0.8251 -0.2211 0.5199
vn -0.8251 -0.2211 0.5200
vn -0.5854 -0.1569 0.7954
vn -0.1469 -0.0394 0.9884
vn 0.1436 -0.5357 -0.8321
vn 0.1436 -0.5359 -0.8320
vn 0.9659 0.2588 -0.0000
vn -0.2589 0.9659 -0.0000
vn -0.3392 -0.0909 0.9363
vn 0.9659 0.2588 -0.0001
vt 1.587646 -2.250000
vt 1.587646 -2.437500
vt 1.731689 -2.250000
vt 1.176025 -2.437500
vt 1.176025 -2.250000
vt 0.787842 -2.437500
vt 0.787842 -2.250000
vt 0.379150 -2.437500
vt 0.379150 -2.250000
vt -0.014648 -2.437500
vt -0.014648 -2.250000
vt -0.408691 -2.250000
vt -1.574219 2.437500
vt -1.574219 2.250000
vt -1.687500 2.437500
vt -1.171875 2.250000
vt -1.171875 2.437500
vt -0.779053 2.250000
vt -0.779053 2.437500
vt -0.375977 2.250000
vt -0.375977 2.437500
vt 0.023438 2.250000
vt 0.023438 2.437500
vt 0.429199 2.437500
vt 2.500000 1.561523
vt 3.500000 2.609375
vt 2.500000 2.609375
vt 3.500000 1.561523
vt 2.500000 0.513672
vt 3.500000 0.513672
vt 2.500000 -0.547852
vt 3.500000 -0.547852
vt 2.500000 -1.609375
vt 3.500000 -1.609375
vt 1.000000 0.500000
vt 2.000000 0.744629
vt 2.000000 0.500000
vt 1.000000 0.744629
vt 0.000000 0.500000
vt 0.000000 0.744629
vt -1.000000 0.500000
vt -1.000000 0.744629
vt -2.000000 0.500000
vt -2.000000 0.744629
vt -1.000000 -0.890869
vt -2.000000 -0.815185
vt -2.000000 -0.890869
vt -1.000000 -0.815185
vt 0.000000 -0.890869
vt 0.000000 -0.815185
vt 1.000000 -0.815185
vt -2.000000 -0.744873
vt -1.000000 -0.744873
vt 0.000000 -0.744873
vt 1.000000 -0.744873
vt 0.427002 -1.239014
vt 0.000000 -1.047119
vt 0.000000 -1.170410
vt 2.000000 -1.047119
vt 0.793945 -1.393311
vt 1.134521 -1.675049
vt 1.000000 -0.890869
vt 2.000000 -0.890869
vt 1.000000 0.890625
vt 2.000000 1.046875
vt 2.000000 0.890625
vt 0.000000 1.046875
vt 0.000000 0.890625
vt -1.000000 0.890625
vt -1.366211 2.059326
vt -1.711670 2.140625
vt -1.372070 2.140625
vt -2.000000 1.046875
vt -1.134521 1.674805
vt -0.793945 1.393066
vt 0.000000 0.814697
vt -1.000000 0.814697
vt -2.000000 0.814941
vt -1.391602 -2.059814
vt -2.000000 -2.140869
vt -1.402100 -2.140869
vt -2.000000 -1.047119
vt -1.107178 -1.675049
vt -0.766602 -1.393311
vt -2.000000 0.890625
vt -0.399658 -1.239014
vt 0.399658 1.238525
vt 0.000000 1.169922
vt -0.427002 1.238525
vt -3.363525 -0.259033
vt -3.196289 -0.259033
vt -3.279785 -0.189941
vt -3.196289 -0.500000
vt -3.363525 -0.500000
vt 2.000000 -0.815185
vt 1.107178 1.674805
vt 1.391602 2.059326
vt 0.766602 1.393066
vt 2.000000 -0.744873
vt 5.000000 1.702637
vt 4.000000 2.068115
vt 5.000000 2.068115
vt 4.000000 1.702637
vt 4.000000 0.500000
vt 5.000000 0.906250
vt 5.000000 0.500000
vt 4.000000 0.906250
vt 5.000000 1.326172
vt 4.000000 1.326172
vt 4.000000 -1.068115
vt 5.000000 -0.702637
vt 5.000000 -1.068115
vt 4.000000 -0.702637
vt 5.000000 -0.326172
vt 4.000000 -0.326172
vt 5.000000 0.093750
vt 4.000000 0.093750
vt 1.000000 0.814941
vt 2.000000 0.814697
vt 1.000000 -0.500244
vt 0.000000 -0.500244
vt 2.000000 2.140625
vt 1.402100 2.140625
vt -1.000000 -0.500244
vt -2.000000 -0.500244
vt 2.000000 -0.500244
vt 2.000000 -2.140869
vt 1.418701 -2.059814
vt 1.424561 -2.140869
vt 1.628418 2.250000
vt 1.628418 2.437500
vt 1.739746 2.437500
vt 1.220459 2.250000
vt 1.220459 2.437500
vt 0.829590 2.250000
vt 0.829590 2.437500
vt 0.429199 2.250000
vt -0.408691 -2.437500
vt -0.826172 -2.250000
vt -0.826172 -2.437500
vt -1.214111 -2.250000
vt -1.214111 -2.437500
vt -1.619873 -2.250000
vt -1.619873 -2.437500
vt -1.843506 -2.250000
s 0
usemtl mt_renga.003
f 3/1/1 2/2/1 1/3/1
f 4/4/2 2/2/2 3/1/2
f 5/5/2 4/4/2 3/1/2
f 6/6/2 4/4/2 5/5/2
f 7/7/2 6/6/2 5/5/2
f 8/8/3 6/6/3 7/7/3
f 9/9/2 8/8/2 7/7/2
f 10/10/2 8/8/2 9/9/2
f 11/11/2 10/10/2 9/9/2
f 12/12/2 10/10/2 11/11/2
f 15/13/4 14/14/4 13/15/4
f 16/16/5 14/14/5 15/13/5
f 17/17/5 16/16/5 15/13/5
f 18/18/5 16/16/5 17/17/5
f 19/19/5 18/18/5 17/17/5
f 20/20/4 18/18/4 19/19/4
f 21/21/5 20/20/5 19/19/5
f 22/22/5 20/20/5 21/21/5
f 23/23/5 22/22/5 21/21/5
f 24/24/5 22/22/5 23/23/5
f 27/25/6 26/26/6 25/27/6
f 28/28/6 26/26/6 27/25/6
f 29/29/6 28/28/6 27/25/6
f 30/30/6 28/28/6 29/29/6
f 31/31/6 30/30/6 29/29/6
f 32/32/6 30/30/6 31/31/6
f 33/33/6 32/32/6 31/31/6
f 34/34/6 32/32/6 33/33/6
f 31/35/2 35/36/2 33/37/2
f 36/38/3 35/36/3 31/35/3
f 29/39/3 36/38/3 31/35/3
f 37/40/2 36/38/2 29/39/2
f 27/41/2 37/40/2 29/39/2
f 38/42/2 37/40/2 27/41/2
f 25/43/2 38/42/2 27/41/2
f 39/44/2 38/42/2 25/43/2
f 42/45/7 41/46/7 40/47/7
f 43/48/8 41/46/8 42/45/8
f 44/49/7 43/48/7 42/45/7
f 45/50/7 43/48/7 44/49/7
f 46/51/7 45/50/7 44/49/7
f 43/48/9 47/52/9 41/46/9
f 48/53/10 47/52/10 43/48/10
f 45/50/10 48/53/10 43/48/10
f 49/54/11 48/53/11 45/50/11
f 50/55/11 49/54/11 45/50/11
f 9/56/2 51/57/2 11/58/2
f 52/59/2 51/57/2 9/56/2
f 7/60/2 52/59/2 9/56/2
f 5/61/2 52/59/2 7/60/2
f 51/57/2 44/49/2 42/45/2
f 53/62/2 44/49/2 51/57/2
f 52/59/2 53/62/2 51/57/2
f 54/63/2 53/62/2 52/59/2
f 57/64/5 56/65/5 55/66/5
f 58/67/5 56/65/5 57/64/5
f 59/68/5 58/67/5 57/64/5
f 60/69/5 58/67/5 59/68/5
f 63/70/12 62/71/12 61/72/12
f 64/73/13 62/71/13 63/70/13
f 65/74/5 64/73/5 63/70/5
f 66/75/5 64/73/5 65/74/5
f 38/42/7 67/76/7 37/40/7
f 68/77/14 67/76/14 38/42/14
f 39/44/14 68/77/14 38/42/14
f 69/78/7 68/77/7 39/44/7
f 72/79/2 71/80/2 70/81/2
f 73/82/2 71/80/2 72/79/2
f 74/83/2 73/82/2 72/79/2
f 75/84/2 73/82/2 74/83/2
f 68/77/10 59/68/10 67/76/10
f 60/69/11 59/68/11 68/77/11
f 69/78/11 60/69/11 68/77/11
f 76/85/15 60/69/15 69/78/15
f 73/82/2 42/45/2 40/47/2
f 51/57/2 42/45/2 73/82/2
f 12/86/16 51/57/16 73/82/16
f 11/58/2 51/57/2 12/86/2
f 58/67/5 21/87/5 56/65/5
f 23/88/5 21/87/5 58/67/5
f 24/89/5 23/88/5 58/67/5
f 39/90/17 76/91/17 69/92/17
f 64/93/17 76/91/17 39/90/17
f 25/94/17 64/93/17 39/90/17
f 54/91/17 78/90/17 77/92/17
f 26/94/17 78/90/17 54/91/17
f 52/93/17 26/94/17 54/91/17
f 53/62/7 46/51/7 44/49/7
f 77/95/14 46/51/14 53/62/14
f 54/63/7 77/95/7 53/62/7
f 64/73/4 60/69/4 76/85/4
f 58/67/4 60/69/4 64/73/4
f 24/89/5 58/67/5 64/73/5
f 56/65/5 17/96/5 15/97/5
f 19/98/5 17/96/5 56/65/5
f 21/87/5 19/98/5 56/65/5
f 46/51/9 50/55/9 45/50/9
f 78/99/9 50/55/9 46/51/9
f 77/95/9 78/99/9 46/51/9
f 4/100/18 79/101/18 2/102/18
f 80/103/18 79/101/18 4/100/18
f 22/104/19 8/105/19 10/106/19
f 81/107/19 8/105/19 22/104/19
f 81/107/20 6/108/20 8/105/20
f 82/109/20 6/108/20 81/107/20
f 82/109/21 4/100/21 6/108/21
f 80/103/21 4/100/21 82/109/21
f 14/110/22 84/111/22 83/112/22
f 16/113/23 84/111/23 14/110/23
f 16/113/24 85/114/24 84/111/24
f 18/115/24 85/114/24 16/113/24
f 86/116/25 22/104/25 10/106/25
f 20/117/25 22/104/25 86/116/25
f 35/36/26 88/118/26 87/119/26
f 36/38/27 88/118/27 35/36/27
f 49/54/5 28/120/5 30/121/5
f 50/55/5 28/120/5 49/54/5
f 89/122/4 15/97/4 13/123/4
f 56/65/5 15/97/5 89/122/5
f 88/118/9 59/68/9 57/64/9
f 67/76/10 59/68/10 88/118/10
f 48/53/5 30/121/5 32/124/5
f 49/54/5 30/121/5 48/53/5
f 36/38/27 67/76/27 88/118/27
f 37/40/7 67/76/7 36/38/7
f 47/52/5 32/124/5 34/125/5
f 48/53/5 32/124/5 47/52/5
f 50/55/5 26/126/5 28/120/5
f 78/99/5 26/126/5 50/55/5
f 87/119/9 57/64/9 55/66/9
f 88/118/9 57/64/9 87/119/9
f 90/127/2 3/128/2 1/129/2
f 52/59/2 3/128/2 90/127/2
f 73/93/28 47/90/28 34/94/28
f 40/91/28 47/90/28 73/93/28
f 79/130/29 63/131/29 61/132/29
f 80/133/5 63/131/5 79/130/5
f 80/133/5 65/134/5 63/131/5
f 82/135/5 65/134/5 80/133/5
f 82/135/5 66/136/5 65/134/5
f 81/137/4 66/136/4 82/135/4
f 81/137/5 24/24/5 66/136/5
f 22/22/5 24/24/5 81/137/5
f 18/115/30 86/116/30 85/114/30
f 20/117/30 86/116/30 18/115/30
f 33/94/28 55/91/28 56/93/28
f 35/90/28 55/91/28 33/94/28
f 12/12/2 86/138/2 10/10/2
f 75/139/2 86/138/2 12/12/2
f 75/139/3 85/140/3 86/138/3
f 74/141/2 85/140/2 75/139/2
f 74/141/2 84/142/2 85/140/2
f 72/143/2 84/142/2 74/141/2
f 72/143/2 83/144/2 84/142/2
f 70/145/2 83/144/2 72/143/2
f 55/91/31 35/90/31 87/92/31
f 47/90/31 40/91/31 41/92/31
f 5/61/2 3/128/2 52/59/2
f 75/84/2 12/86/2 73/82/2
f 64/73/5 66/75/5 24/89/5
