# Blender 4.1.1
# www.blender.org
mtllib Object_21.mtl
o Object_24
v 1120197.250000 1105989.875000 3279.341309
v 1120197.250000 1108312.750000 2810.024658
v 1120197.250000 1105989.875000 2810.023682
v 1120197.250000 1108312.750000 3279.342285
v 1116854.750000 1105989.875000 3279.341309
v 1120197.250000 1105989.875000 2810.023682
v 1116854.750000 1105989.875000 2810.023682
v 1120197.250000 1105989.875000 3279.341309
v 1116854.750000 1108312.750000 3279.342285
v 1116854.750000 1105989.875000 2810.023682
v 1116854.750000 1108312.750000 2810.024658
v 1116854.750000 1105989.875000 3279.341309
v 1120197.250000 1108312.750000 3279.342285
v 1116854.750000 1108312.750000 2810.024658
v 1120197.250000 1108312.750000 2810.024658
v 1116854.750000 1108312.750000 3279.342285
v 1188307.000000 1159426.500000 3961.534912
v 1188307.000000 1160066.000000 4045.760742
v 1188307.000000 1159426.500000 4061.597412
v 1188307.000000 1160066.000000 3961.535156
v 1188307.000000 1160705.500000 3961.535400
v 1188307.000000 1160705.500000 4061.597900
v 1188307.000000 1155829.750000 3961.533691
v 1188307.000000 1156469.250000 4045.759521
v 1188307.000000 1155829.750000 4061.596191
v 1188307.000000 1156469.250000 3961.533936
v 1188307.000000 1157108.750000 3961.534180
v 1188307.000000 1157108.750000 4061.596680
v 1188307.000000 1157625.250000 3961.534424
v 1188307.000000 1158264.750000 4045.760254
v 1188307.000000 1157625.250000 4061.596924
v 1188307.000000 1158264.750000 3961.534668
v 1188307.000000 1158904.250000 3961.534912
v 1188307.000000 1158904.250000 4061.597412
v 1188307.000000 1160964.750000 4261.535645
v 1190807.000000 1160964.750000 3961.535400
v 1190807.000000 1160964.750000 4261.535645
v 1188307.000000 1160964.750000 3961.535400
v 1185807.000000 1160964.750000 4261.535645
v 1185807.000000 1160964.750000 3961.535400
v 1188307.000000 1155564.750000 4261.533691
v 1185807.000000 1155564.750000 3961.533691
v 1185807.000000 1155564.750000 4261.533691
v 1188307.000000 1155564.750000 3961.533691
v 1190807.000000 1155564.750000 4261.533691
v 1190807.000000 1155564.750000 3961.533691
v 1190807.000000 1158264.750000 4261.534668
v 1190807.000000 1155564.750000 3961.533691
v 1190807.000000 1155564.750000 4261.533691
v 1190807.000000 1158264.750000 3961.534668
v 1190807.000000 1160964.750000 4261.535645
v 1190807.000000 1160964.750000 3961.535400
v 1185807.000000 1158264.750000 4261.534668
v 1185807.000000 1160964.750000 3961.535400
v 1185807.000000 1160964.750000 4261.535645
v 1185807.000000 1158264.750000 3961.534668
v 1185807.000000 1155564.750000 4261.533691
v 1185807.000000 1155564.750000 3961.533691
v 1190807.000000 1160964.750000 3961.535400
v 1188307.000000 1160964.750000 4261.535645
v 1190807.000000 1160964.750000 4261.535645
v 1188307.000000 1160964.750000 3961.535400
v 1185807.000000 1160964.750000 4261.535645
v 1185807.000000 1160964.750000 3961.535400
v 1185807.000000 1155564.750000 3961.533691
v 1188307.000000 1155564.750000 4261.533691
v 1185807.000000 1155564.750000 4261.533691
v 1188307.000000 1155564.750000 3961.533691
v 1190807.000000 1155564.750000 4261.533691
v 1190807.000000 1155564.750000 3961.533691
v 1190807.000000 1155564.750000 3961.533691
v 1190807.000000 1158264.750000 4261.534668
v 1190807.000000 1155564.750000 4261.533691
v 1190807.000000 1158264.750000 3961.534668
v 1190807.000000 1160964.750000 4261.535645
v 1190807.000000 1160964.750000 3961.535400
v 1185807.000000 1160964.750000 3961.535400
v 1185807.000000 1158264.750000 4261.534668
v 1185807.000000 1160964.750000 4261.535645
v 1185807.000000 1158264.750000 3961.534668
v 1185807.000000 1155564.750000 4261.533691
v 1185807.000000 1155564.750000 3961.533691
vn -1.0000 -0.0000 -0.0000
vn -0.0000 1.0000 -0.0000
vn 1.0000 -0.0000 -0.0000
vn -0.0000 -1.0000 -0.0000
vt -94.174805 -122.885742
vt -14.626465 -0.908203
vt -115.385742 -101.674805
vt 6.591797 -22.126465
vt 139.174805 152.885742
vt 160.385742 131.674805
vt -39.210205 11.074219
vt 0.000000 5.425415
vt -39.210205 5.425415
vt 0.000000 11.074219
vt 39.210205 11.074219
vt 39.210205 5.425415
vt 5.302734 2.197266
vt 90.157471 108.259277
vt 100.766602 97.653809
vt -5.302734 12.802734
vt -90.157471 -93.259277
vt -100.766602 -82.653809
s 0
usemtl Material_179_19
f 1/1/1 2/2/1 3/3/1
f 1/1/1 4/4/1 2/2/1
f 5/4/2 6/5/2 7/2/2
f 5/4/2 8/6/2 6/5/2
f 9/1/3 10/2/3 11/3/3
f 9/1/3 12/4/3 10/2/3
f 13/4/4 14/5/4 15/2/4
f 13/4/4 16/6/4 14/5/4
f 17/7/3 18/8/3 19/9/3
f 17/7/3 20/10/3 18/8/3
f 18/8/3 21/11/3 22/12/3
f 18/8/3 20/10/3 21/11/3
f 23/7/3 24/8/3 25/9/3
f 23/7/3 26/10/3 24/8/3
f 24/8/3 27/11/3 28/12/3
f 24/8/3 26/10/3 27/11/3
f 29/7/3 30/8/3 31/9/3
f 29/7/3 32/10/3 30/8/3
f 30/8/3 33/11/3 34/12/3
f 30/8/3 32/10/3 33/11/3
f 35/13/4 36/14/4 37/15/4
f 35/13/4 38/16/4 36/14/4
f 39/17/4 38/16/4 35/13/4
f 39/17/4 40/18/4 38/16/4
f 41/13/2 42/14/2 43/15/2
f 41/13/2 44/16/2 42/14/2
f 45/17/2 44/16/2 41/13/2
f 45/17/2 46/18/2 44/16/2
f 47/13/1 48/14/1 49/15/1
f 47/13/1 50/16/1 48/14/1
f 51/17/1 50/16/1 47/13/1
f 51/17/1 52/18/1 50/16/1
f 53/13/3 54/14/3 55/15/3
f 53/13/3 56/16/3 54/14/3
f 57/17/3 56/16/3 53/13/3
f 57/17/3 58/18/3 56/16/3
f 59/14/2 60/13/2 61/15/2
f 59/14/2 62/16/2 60/13/2
f 62/16/2 63/17/2 60/13/2
f 62/16/2 64/18/2 63/17/2
f 65/14/4 66/13/4 67/15/4
f 65/14/4 68/16/4 66/13/4
f 68/16/4 69/17/4 66/13/4
f 68/16/4 70/18/4 69/17/4
f 71/14/3 72/13/3 73/15/3
f 71/14/3 74/16/3 72/13/3
f 74/16/3 75/17/3 72/13/3
f 74/16/3 76/18/3 75/17/3
f 77/14/1 78/13/1 79/15/1
f 77/14/1 80/16/1 78/13/1
f 80/16/1 81/17/1 78/13/1
f 80/16/1 82/18/1 81/17/1
