# Blender 4.1.1
# www.blender.org
mtllib polygon2.mtl
o polygon2
v 9025.304688 3276.852051 -20.400139
v 9083.349609 3239.063965 -16.750385
v 9241.936523 3616.078125 -20.400200
v 9305.932617 3578.437988 -16.650196
v 9526.972656 4028.626221 -20.400249
v 9586.973633 3986.891113 -16.650242
v 9786.182617 4434.589355 -20.400297
v 9851.066406 4398.354004 -16.650293
v 9972.516602 4791.648438 -16.650339
v 10045.719727 4289.648438 -5.400276
v 10204.549805 4768.895996 -5.400333
v 10272.859375 4180.302246 -5.400263
v 10454.279297 4727.714355 -5.400329
v 10499.990234 4070.956055 -0.400243
v 10704.000000 4686.533203 -0.400316
v 5673.901367 10158.669922 -5.401205
v 6049.395996 9988.115234 -5.401185
v 6394.589355 9963.934570 -5.401182
v 6388.732422 9834.021484 -20.401163
v 7428.810059 9943.769531 -5.401179
v 7410.524414 9723.125000 -16.724958
v 8287.073242 9592.586914 -5.400877
v 8109.169922 9361.965820 -16.650845
v 9184.660156 8446.184570 -5.400772
v 8947.723633 8290.279297 -16.650757
v 9709.649414 7491.477539 -5.400658
v 9458.631836 7368.078125 -16.650648
v 10020.279297 6394.922363 -5.400527
v 9778.291992 6334.625977 -16.650524
v 7319.261230 6497.375488 -20.400543
v 7266.308105 6454.000000 -16.650537
v 7628.459961 6038.520020 -20.400488
v 7566.919434 6002.041016 -16.650484
v 7803.567383 5562.684082 -16.650433
v 7601.485840 5500.355957 -5.400421
v 7720.491211 5036.122070 -5.400365
v 7367.389160 5406.784668 -5.400409
v 7470.969238 5002.721191 -5.400361
v 7133.292480 5313.212891 -0.400391
v 7221.447754 4969.321289 -0.400350
v 7806.065918 4090.853027 -20.500488
v 7962.804688 4548.097168 -20.400311
v 7759.492188 4121.495117 -16.750492
v 7903.955566 4556.365234 -16.650312
v 7619.770020 4213.419922 -5.500502
v 7727.402832 4581.169434 -5.400311
v 7403.402344 4364.165039 -5.500520
v 7476.857910 4615.140137 -5.400315
v 7187.034180 4514.909180 -0.500538
v 7226.313477 4649.112305 -0.400312
v 9257.483398 3125.702148 -5.400122
v 9474.688477 2999.849854 -5.400107
v 9497.919922 3465.519043 -5.400178
v 9703.387695 3323.079102 -5.400161
v 9766.975586 3861.687012 -5.400225
v 9975.143555 3723.223877 -5.400209
v 10183.309570 3584.761230 -0.400185
v 9393.975586 8584.375000 -5.400788
v 8680.759766 9900.826172 -0.400907
v 8483.916016 9746.705078 -5.400896
v 7460.474121 10325.839844 -0.401232
v 7441.598145 10098.080078 -5.401198
v 6412.244629 10355.589844 -0.401236
v 6402.580078 10141.189453 -5.401203
v 5164.068359 10391.019531 -0.401240
v 9895.169922 4799.232422 -20.400341
v 9969.591797 5379.739746 -16.650410
v 9889.832031 5373.446289 -20.400410
v 9697.629883 6314.527832 -20.400522
v 9374.958008 7326.944824 -20.400642
v 10709.189453 5443.828125 -0.400406
v 10459.029297 5421.224121 -5.400411
v 10208.870117 5398.620117 -5.400408
v 10507.419922 6509.784180 -0.400533
v 10263.849609 6452.353516 -5.400534
v 9942.428711 7587.000000 -5.400670
v 9603.290039 8722.564453 -0.400797
v 7107.449219 6323.875977 -5.400518
v 7382.297852 5892.604004 -5.400467
v 9691.891602 2873.999023 -0.400100
v 9908.854492 3180.638916 -0.400137
v 6522.359863 6494.654785 -0.200771
v 6754.795410 6055.158203 -0.200482
v 6796.781250 6314.792480 -5.400747
v 7167.587402 5764.341309 -5.400452
v 6952.875488 5636.079102 -0.400429
v 10175.209961 7682.522461 -0.400673
v 7914.096680 5063.102051 -16.650372
v 7870.927246 5583.459473 -20.400434
v 7978.632812 5072.096191 -20.400373
v 8868.743164 8238.313477 -20.400751
v 8049.868164 9285.092773 -20.400835
v 7399.229980 9618.913086 -31.401396
vn 0.0444 -0.0283 -0.9986
vn 0.0424 -0.0275 -0.9987
vn 0.0416 -0.0288 -0.9987
vn 0.0422 -0.0290 -0.9987
vn 0.0432 -0.0276 -0.9987
vn 0.0445 -0.0237 -0.9987
vn 0.0431 -0.0277 -0.9987
vn 0.0461 -0.0206 -0.9987
vn 0.0480 -0.0043 -0.9988
vn 0.0492 -0.0152 -0.9987
vn 0.0469 -0.0155 -0.9988
vn 0.0070 -0.0023 -1.0000
vn 0.0130 -0.0085 -0.9999
vn 0.0145 -0.0001 -0.9999
vn 0.0072 -0.0024 -1.0000
vn 0.0190 -0.0063 -0.9998
vn 0.0008 0.0391 -0.9992
vn -0.0000 -0.0000 -1.0000
vn 0.0080 0.1143 -0.9934
vn 0.0061 0.0234 -0.9997
vn 0.0040 0.1081 -0.9941
vn 0.0262 0.0869 -0.9959
vn 0.0104 0.0129 -0.9999
vn 0.0282 0.0299 -0.9992
vn 0.0157 0.0104 -0.9998
vn 0.0336 0.0211 -0.9992
vn 0.0110 0.0061 -0.9999
vn 0.0352 0.0195 -0.9992
vn 0.0393 0.0111 -0.9992
vn 0.0431 0.0133 -0.9990
vn -0.0456 -0.0307 -0.9985
vn -0.0436 -0.0290 -0.9986
vn -0.0493 -0.0215 -0.9986
vn -0.0457 -0.0263 -0.9986
vn -0.0463 -0.0249 -0.9986
vn -0.0492 -0.0197 -0.9986
vn -0.0335 -0.0035 -0.9994
vn -0.0058 -0.0015 -1.0000
vn -0.0143 -0.0037 -0.9999
vn -0.0194 -0.0050 -0.9998
vn -0.0654 0.0223 -0.9976
vn -0.0621 0.0107 -0.9980
vn -0.0654 0.0226 -0.9976
vn -0.0622 0.0102 -0.9980
vn -0.0388 0.0128 -0.9992
vn -0.0342 0.0048 -0.9994
vn -0.0075 0.0025 -1.0000
vn -0.0055 0.0019 -1.0000
vn -0.0190 0.0061 -0.9998
vn -0.0191 0.0063 -0.9998
vn 0.0132 -0.0094 -0.9999
vn 0.0077 -0.0054 -1.0000
vn 0.0231 -0.0154 -0.9996
vn 0.0026 -0.0018 -1.0000
vn 0.0141 -0.0091 -0.9999
vn 0.0168 -0.0109 -0.9998
vn 0.0157 0.0123 -0.9998
vn 0.0037 0.0217 -0.9998
vn 0.0078 0.0224 -0.9997
vn 0.0035 0.0102 -0.9999
vn 0.0022 0.0118 -0.9999
vn 0.0009 0.0231 -0.9997
vn 0.0003 0.0078 -1.0000
vn 0.0007 0.0233 -0.9997
vn 0.0005 0.0227 -0.9997
vn 0.0477 -0.0071 -0.9988
vn 0.0470 0.0003 -0.9989
vn 0.0469 0.0004 -0.9989
vn 0.0462 0.0093 -0.9989
vn 0.0442 0.0090 -0.9990
vn 0.0430 0.0137 -0.9990
vn 0.0426 -0.0294 -0.9987
vn 0.0457 -0.0297 -0.9985
vn 0.0417 -0.0287 -0.9987
vn 0.0424 -0.0288 -0.9987
vn 0.0200 -0.0001 -0.9998
vn 0.0146 -0.0000 -0.9999
vn 0.0196 0.0037 -0.9998
vn 0.0463 0.0088 -0.9989
vn 0.0442 0.0089 -0.9990
vn -0.0200 -0.0003 -0.9998
vn 0.0175 0.0096 -0.9998
vn -0.0454 -0.0299 -0.9985
vn -0.0458 -0.0304 -0.9985
vn -0.0449 -0.0268 -0.9986
vn 0.0163 -0.0115 -0.9998
vn 0.0165 -0.0112 -0.9998
vn -0.0290 -0.0153 -0.9995
vn -0.0240 -0.0161 -0.9996
vn -0.0184 -0.0082 -0.9998
vn -0.0175 -0.0098 -0.9998
vn 0.0192 0.0054 -0.9998
vn -0.0577 -0.0030 -0.9983
vn -0.0477 -0.0254 -0.9985
vn -0.0522 -0.0110 -0.9986
vn 0.0389 0.0120 -0.9992
vn 0.0348 0.0193 -0.9992
vn 0.0313 0.0245 -0.9992
vn 0.0307 0.0251 -0.9992
vn 0.0454 0.1304 -0.9904
vn -0.0583 0.0018 -0.9983
vn -0.0563 -0.0125 -0.9983
vt -47.160160 2.011719
vt -44.992188 1.867188
vt -44.992188 2.011719
vt -47.160160 1.867188
vt -50.175777 2.011719
vt -50.175777 1.867188
vt -53.222660 2.011719
vt -53.222660 1.867188
vt -56.222660 1.867188
vt -53.222660 1.433594
vt -56.222660 1.433594
vt -53.222660 0.500000
vt -56.222660 0.500000
vt -53.222660 -0.210938
vt -56.222660 -0.210938
vt -81.898438 1.433594
vt -83.058586 1.425781
vt -84.683586 0.500000
vt -81.898438 2.011719
vt -78.101555 1.433594
vt -78.101555 1.867188
vt -74.500000 1.433594
vt -74.500000 1.867188
vt -70.683586 1.433594
vt -70.683586 1.867188
vt -67.042969 1.433594
vt -67.042969 1.867188
vt -63.058590 1.433594
vt -63.058590 1.867188
vt 64.515625 2.011719
vt 66.636719 1.785156
vt 66.515625 2.011719
vt 64.515625 1.867188
vt 62.515629 1.867188
vt 62.515629 1.433594
vt 60.515629 1.433594
vt 62.515629 0.500000
vt 60.515629 0.500000
vt 62.515629 -0.210938
vt 60.515629 -0.210938
vt 56.941410 1.867188
vt 58.515629 2.011719
vt 56.941410 2.011719
vt 58.515629 1.867188
vt 56.941410 1.433594
vt 58.515629 1.433594
vt 56.941410 0.500000
vt 58.515629 0.500000
vt 56.941410 -0.210938
vt 58.515629 -0.210938
vt -47.160160 1.433594
vt -44.992188 0.500000
vt -44.992188 1.433594
vt -47.160160 0.500000
vt -50.175777 1.433594
vt -50.175777 0.500000
vt -50.175777 -0.210938
vt -74.500000 0.500000
vt -74.500000 -0.210938
vt -70.683586 0.500000
vt -78.101555 -0.210938
vt -78.101555 0.500000
vt -81.898438 -0.210938
vt -81.898438 0.500000
vt -85.871086 -0.210938
vt -56.222660 2.011719
vt -59.449219 1.867188
vt -59.449219 2.011719
vt -63.058590 2.011719
vt -67.042969 2.011719
vt -59.449219 -0.210938
vt -59.449219 0.500000
vt -59.449219 1.433594
vt -63.058590 -0.210938
vt -63.058590 0.500000
vt -67.042969 0.500000
vt -70.683586 -0.210938
vt 67.000000 1.097656
vt 64.515625 1.433594
vt -44.992188 -0.210938
vt -47.160160 -0.210938
vt 67.824219 0.261719
vt 66.554688 -0.210938
vt 69.875000 -0.210938
vt 64.515625 0.500000
vt 64.515625 -0.210938
vt -67.042969 -0.210938
vt 60.515629 1.867188
vt 62.515629 2.011719
vt 60.515629 2.011719
vt -70.683586 2.011719
vt -74.500000 2.011719
vt -78.101555 2.011719
s 0
usemtl mt_ze_w_nami.002
f 3/1/1 2/2/1 1/3/1
f 4/4/2 2/2/2 3/1/2
f 5/5/3 4/4/3 3/1/3
f 6/6/4 4/4/4 5/5/4
f 7/7/5 6/6/5 5/5/5
s 1
f 8/8/6 6/6/7 7/7/8
f 9/9/9 8/8/6 7/7/8
s 0
f 10/10/10 8/8/10 9/9/10
f 11/11/11 10/10/11 9/9/11
s 1
f 12/12/12 10/10/13 11/11/14
f 13/13/15 12/12/12 11/11/14
f 14/14/16 12/12/12 13/13/15
f 15/15/16 14/14/16 13/13/15
f 18/16/17 17/17/18 16/18/18
s 0
f 19/19/19 17/17/19 18/16/19
s 1
f 20/20/20 19/19/21 18/16/17
f 21/21/22 19/19/21 20/20/20
f 22/22/23 21/21/22 20/20/20
f 23/23/24 21/21/22 22/22/23
f 24/24/25 23/23/24 22/22/23
f 25/25/26 23/23/24 24/24/25
f 26/26/27 25/25/26 24/24/25
f 27/27/28 25/25/26 26/26/27
s 0
f 28/28/29 27/27/29 26/26/29
f 29/29/30 27/27/30 28/28/30
f 32/30/31 31/31/31 30/32/31
f 33/33/32 31/31/32 32/30/32
s 1
f 34/34/33 33/33/34 32/30/35
f 35/35/36 33/33/34 34/34/33
f 36/36/37 35/35/36 34/34/33
s 0
f 37/37/18 35/35/18 36/36/18
s 1
f 38/38/38 37/37/39 36/36/37
f 39/39/40 37/37/39 38/38/38
f 40/40/40 39/39/40 38/38/38
f 43/41/41 42/42/42 41/43/43
f 44/44/44 42/42/42 43/41/41
f 45/45/45 44/44/44 43/41/41
f 46/46/46 44/44/44 45/45/45
f 47/47/47 46/46/46 45/45/45
f 48/48/48 46/46/46 47/47/47
f 49/49/49 48/48/48 47/47/47
f 50/50/50 48/48/48 49/49/49
f 53/51/51 52/52/52 51/53/53
f 54/54/54 52/52/52 53/51/51
f 55/55/55 54/54/54 53/51/51
f 56/56/18 54/54/54 55/55/55
f 12/12/12 56/56/18 55/55/55
s 0
f 57/57/56 56/56/56 12/12/56
f 14/14/56 57/57/56 12/12/56
f 60/58/57 59/59/57 58/60/57
s 1
f 61/61/58 59/59/59 60/58/60
f 62/62/61 61/61/58 60/58/60
f 63/63/62 61/61/58 62/62/61
f 64/64/63 63/63/62 62/62/61
s 0
f 65/65/64 63/63/64 64/64/64
f 16/18/65 65/65/65 64/64/65
s 1
f 66/66/66 9/9/9 7/7/8
f 67/67/67 9/9/9 66/66/66
f 68/68/68 67/67/67 66/66/66
s 0
f 29/29/69 67/67/69 68/68/69
f 69/69/70 29/29/70 68/68/70
f 70/70/71 29/29/71 69/69/71
s 1
f 4/4/72 51/53/53 2/2/73
f 53/51/51 51/53/53 4/4/72
s 0
f 6/6/74 53/51/74 4/4/74
f 55/55/75 53/51/75 6/6/75
s 1
f 8/8/6 55/55/55 6/6/7
f 10/10/13 55/55/55 8/8/6
s 0
f 13/13/76 71/71/76 15/15/76
f 72/72/76 71/71/76 13/13/76
s 1
f 11/11/14 72/72/18 13/13/15
f 73/73/77 72/72/18 11/11/14
f 9/9/9 73/73/77 11/11/14
f 67/67/67 73/73/77 9/9/9
s 0
f 72/72/78 74/74/78 71/71/78
f 75/75/78 74/74/78 72/72/78
s 1
f 73/73/77 75/75/18 72/72/18
f 28/28/18 75/75/18 73/73/77
s 0
f 67/67/79 28/28/79 73/73/79
f 29/29/80 28/28/80 67/67/80
s 1
f 24/24/25 58/60/18 26/26/27
f 60/58/60 58/60/18 24/24/25
f 22/22/23 60/58/60 24/24/25
f 62/62/61 60/58/60 22/22/23
f 20/20/20 62/62/61 22/22/23
f 18/16/17 62/62/61 20/20/20
s 0
f 38/38/81 50/50/81 40/40/81
f 48/48/81 50/50/81 38/38/81
s 1
f 36/36/37 48/48/48 38/38/38
f 46/46/46 48/48/48 36/36/37
f 44/44/44 46/46/46 36/36/37
f 26/26/27 75/75/18 28/28/18
f 76/76/18 75/75/18 26/26/27
f 58/60/18 76/76/18 26/26/27
s 0
f 77/77/82 76/76/82 58/60/82
f 59/59/57 77/77/57 58/60/57
s 1
f 33/33/34 78/78/83 31/31/84
f 79/79/85 78/78/83 33/33/34
f 35/35/36 79/79/85 33/33/34
s 0
f 37/37/18 79/79/18 35/35/18
s 1
f 54/54/54 80/80/86 52/52/52
s 0
f 81/81/86 80/80/86 54/54/86
f 56/56/87 81/81/87 54/54/87
f 57/57/87 81/81/87 56/56/87
s 1
f 84/82/88 83/83/88 82/84/88
s 0
f 85/85/89 83/83/89 84/82/89
f 78/78/18 85/85/18 84/82/18
f 79/79/18 85/85/18 78/78/18
f 85/85/90 86/86/90 83/83/90
f 39/39/91 86/86/91 85/85/91
f 37/37/91 39/39/91 85/85/91
f 76/76/92 74/74/92 75/75/92
f 87/87/92 74/74/92 76/76/92
f 77/77/82 87/87/82 76/76/82
s 1
f 88/88/93 36/36/37 34/34/33
f 44/44/44 36/36/37 88/88/93
f 42/42/42 44/44/44 88/88/93
f 89/89/94 34/34/33 32/30/35
s 0
f 90/90/95 34/34/95 89/89/95
f 70/70/96 27/27/96 29/29/96
s 1
f 91/91/97 27/27/28 70/70/28
f 91/91/97 25/25/26 27/27/28
s 0
f 92/92/98 25/25/98 91/91/98
s 1
f 92/92/99 23/23/24 25/25/26
f 93/93/100 23/23/24 92/92/99
f 93/93/100 21/21/22 23/23/24
f 19/19/21 21/21/22 93/93/100
f 18/16/17 64/64/63 62/62/61
f 16/18/18 64/64/63 18/16/17
f 88/88/93 90/90/101 42/42/42
s 0
f 34/34/102 90/90/102 88/88/102
s 1
f 10/10/13 12/12/12 55/55/55
s 0
f 79/79/18 37/37/18 85/85/18
