# Blender 4.1.1
# www.blender.org
mtllib polygon520.mtl
o polygon520
v -682.493103 3394.464844 -32.278160
v -682.493103 3394.464844 -96.381668
v -679.998657 3394.464844 -32.278160
v -679.998657 3394.464844 -96.381668
v -679.998657 3391.969971 -32.278160
v -679.998657 3391.969971 -96.381676
v -682.493103 3391.969971 -32.278160
v -682.493103 3391.969971 -96.381676
v -676.813416 3397.912109 -105.714790
v -677.942566 3396.782959 -94.849274
v -686.202698 3397.912109 -105.714790
v -685.073608 3396.782959 -94.849266
v -686.202698 3388.522949 -105.714798
v -685.073608 3389.652100 -94.849274
v -676.813416 3388.522949 -105.714798
v -677.942566 3389.652100 -94.849274
v -681.508057 3393.217041 -92.413414
v -681.508057 3393.217041 -109.026512
v -682.789856 3514.626221 -32.278175
v -682.789856 3514.626221 -96.381691
v -680.295288 3514.626221 -32.278175
v -680.295288 3514.626221 -96.381691
v -680.295288 3512.131104 -32.278175
v -680.295288 3512.131104 -96.381683
v -682.789856 3512.131104 -32.278175
v -682.789856 3512.131104 -96.381683
v -676.848022 3518.072998 -105.714813
v -677.977173 3516.944092 -94.849297
v -686.237305 3518.072998 -105.714813
v -685.108093 3516.944092 -94.849289
v -686.237305 3508.684082 -105.714806
v -685.108093 3509.812988 -94.849281
v -676.848022 3508.684082 -105.714806
v -677.977173 3509.812988 -94.849281
v -681.542664 3513.377930 -92.413429
v -681.542664 3513.377930 -109.026527
v -1260.948975 3511.251221 -32.278175
v -1260.948975 3511.251221 -96.381683
v -1258.455078 3511.251221 -32.278175
v -1258.455078 3511.251221 -96.381683
v -1258.455078 3508.757080 -32.278175
v -1258.455078 3508.757080 -96.381683
v -1260.948975 3508.757080 -32.278175
v -1260.948975 3508.757080 -96.381683
v -1255.008057 3514.699219 -105.714813
v -1256.137085 3513.569580 -94.849297
v -1264.397095 3514.699219 -105.714813
v -1263.268066 3513.569580 -94.849289
v -1264.397095 3505.309570 -105.714806
v -1263.268066 3506.438965 -94.849281
v -1255.008057 3505.309570 -105.714806
v -1256.137085 3506.438965 -94.849281
v -1259.702026 3510.003906 -92.413422
v -1259.702026 3510.003906 -109.026512
v -1637.959961 3511.251221 -71.501175
v -1637.959961 3511.251221 -135.604706
v -1635.466064 3511.251221 -71.501175
v -1635.466064 3511.251221 -135.604706
v -1635.466064 3508.757080 -71.501175
v -1635.466064 3508.757080 -135.604706
v -1637.959961 3508.757080 -71.501175
v -1637.959961 3508.757080 -135.604706
v -1632.018066 3514.699219 -144.937424
v -1633.148071 3513.569580 -134.071808
v -1641.408081 3514.699219 -144.937424
v -1640.278076 3513.569580 -134.071808
v -1641.408081 3505.309570 -144.937408
v -1640.278076 3506.438965 -134.071793
v -1632.018066 3505.309570 -144.937408
v -1633.148071 3506.438965 -134.071793
v -1636.713135 3510.003906 -131.635986
v -1636.713135 3510.003906 -148.249100
v -1426.741943 3389.438965 -71.501160
v -1426.741943 3389.438965 -135.604691
v -1424.246948 3389.438965 -71.501160
v -1424.246948 3389.438965 -135.604691
v -1424.246948 3386.944824 -71.501160
v -1424.246948 3386.944824 -135.604691
v -1426.741943 3386.944824 -71.501160
v -1426.741943 3386.944824 -135.604691
v -1420.799927 3392.887207 -144.937790
v -1421.929077 3391.758057 -134.072281
v -1430.189087 3392.887207 -144.937790
v -1429.059937 3391.758057 -134.072281
v -1430.189087 3383.498047 -144.937775
v -1429.059937 3384.627197 -134.072281
v -1420.799927 3383.498047 -144.937775
v -1421.929077 3384.627197 -134.072281
v -1425.495117 3388.192139 -131.636398
v -1425.495117 3388.192139 -148.249496
v -1260.948975 3397.824219 -32.278164
v -1260.948975 3397.824219 -96.381668
v -1258.455078 3397.824219 -32.278164
v -1258.455078 3397.824219 -96.381668
v -1258.455078 3395.329102 -32.278160
v -1258.455078 3395.329102 -96.381668
v -1260.948975 3395.329590 -32.278160
v -1260.948975 3395.329590 -96.381668
v -1255.008057 3401.271240 -105.714790
v -1256.137085 3400.142090 -94.849274
v -1264.397095 3401.271240 -105.714790
v -1263.268066 3400.142090 -94.849266
v -1264.397095 3391.882080 -105.714798
v -1263.268066 3393.011230 -94.849274
v -1255.008057 3391.882080 -105.714798
v -1256.137085 3393.011230 -94.849274
v -1259.702026 3396.577148 -92.413406
v -1259.702026 3396.577148 -109.026505
v -1250.233032 3193.103027 -32.278141
v -1250.233032 3193.103027 -96.381645
v -1247.738037 3193.103027 -32.278141
v -1247.738037 3193.103027 -96.381645
v -1247.738037 3190.608154 -32.278141
v -1247.738037 3190.608154 -96.381645
v -1250.233032 3190.608154 -32.278141
v -1250.233032 3190.608154 -96.381645
v -1244.291016 3196.550049 -105.714775
v -1245.419922 3195.421143 -94.849251
v -1253.679932 3196.550049 -105.714775
v -1252.551025 3195.421143 -94.849243
v -1253.679932 3187.161133 -105.714775
v -1252.551025 3188.290039 -94.849243
v -1244.291016 3187.161133 -105.714775
v -1245.419922 3188.290039 -94.849243
v -1248.985107 3191.855225 -92.413383
v -1248.985107 3191.855225 -109.026482
v -1090.863037 2929.417969 -32.278111
v -1090.863037 2929.417969 -96.381622
v -1088.369019 2929.417969 -32.278111
v -1088.369019 2929.417969 -96.381622
v -1088.369019 2926.924072 -32.278107
v -1088.369019 2926.924072 -96.381622
v -1090.863037 2926.924072 -32.278107
v -1090.863037 2926.924072 -96.381622
v -1084.921021 2932.866211 -105.714752
v -1086.051025 2931.737061 -94.849236
v -1094.311035 2932.866211 -105.714752
v -1093.182007 2931.737061 -94.849220
v -1094.311035 2923.477051 -105.714737
v -1093.182007 2924.606201 -94.849213
v -1084.921021 2923.477051 -105.714737
v -1086.051025 2924.606201 -94.849213
v -1089.616089 2928.171143 -92.413361
v -1089.616089 2928.171143 -109.026459
v -970.494324 2620.569092 -71.501068
v -970.494324 2620.569092 -135.604614
v -967.999817 2620.569092 -71.501068
v -967.999817 2620.569092 -135.604614
v -967.999817 2618.074219 -71.501068
v -967.999817 2618.074219 -135.604614
v -970.494324 2618.075195 -71.501068
v -970.494324 2618.075195 -135.604614
v -964.552551 2624.016113 -144.937698
v -965.681763 2622.887207 -134.072205
v -973.941833 2624.016113 -144.937698
v -972.812622 2622.887207 -134.072205
v -973.941833 2614.627197 -144.937698
v -972.812622 2615.756104 -134.072205
v -964.552551 2614.627197 -144.937698
v -965.681763 2615.756104 -134.072205
v -969.247253 2619.322021 -131.636322
v -969.247253 2619.322021 -148.249420
v -907.127258 2457.275146 -71.501045
v -907.127258 2457.275146 -135.604584
v -904.632690 2457.275146 -71.501045
v -904.632690 2457.275146 -135.604584
v -904.632690 2454.780029 -71.501045
v -904.632690 2454.780029 -135.604584
v -907.127258 2454.780762 -71.501045
v -907.127258 2454.780762 -135.604584
v -901.185425 2460.722168 -144.937683
v -902.314575 2459.593018 -134.072189
v -910.574768 2460.722168 -144.937683
v -909.445557 2459.593018 -134.072189
v -910.574768 2451.333008 -144.937683
v -909.445557 2452.462158 -134.072189
v -901.185425 2451.333008 -144.937683
v -902.314575 2452.462158 -134.072189
v -905.880066 2456.028076 -131.636307
v -905.880066 2456.028076 -148.249390
v -1426.741943 3511.613037 -71.501175
v -1426.741943 3511.613037 -135.604706
v -1424.246948 3511.613037 -71.501175
v -1424.246948 3511.613037 -135.604706
v -1424.246948 3509.118164 -71.501175
v -1424.246948 3509.118164 -135.604706
v -1426.741943 3509.118164 -71.501175
v -1426.741943 3509.118164 -135.604706
v -1420.809937 3514.699219 -144.937805
v -1421.939087 3513.569580 -134.072311
v -1430.198975 3514.699219 -144.937805
v -1429.069946 3513.569580 -134.072311
v -1430.198975 3505.309570 -144.937790
v -1429.069946 3506.438965 -134.072296
v -1420.809937 3505.309570 -144.937790
v -1421.939087 3506.438965 -134.072296
v -1425.504028 3510.003906 -131.636414
v -1425.504028 3510.003906 -148.249512
v -1018.398010 2790.153076 -32.105480
v -1008.177002 2790.153076 -32.059311
v -1018.398010 2790.153076 -29.749069
v -1008.057007 2790.153076 -29.675449
v -927.999817 2790.153076 -3.571843
v -927.999817 2790.153076 -5.560301
v -927.999817 2764.128174 -3.571840
v -927.999817 2764.128174 -5.560298
v -1008.329041 2764.128174 -32.105476
v -1008.329041 2764.128174 -29.749067
v -1134.729980 3094.327148 -32.105518
v -1124.509033 3094.327148 -32.059349
v -1134.729980 3094.327148 -29.749107
v -1124.389038 3094.327148 -29.675488
v -1044.332031 3094.327148 -3.571880
v -1044.332031 3094.327148 -5.560337
v -1044.332031 3068.302002 -3.571877
v -1044.332031 3068.302002 -5.560334
v -1124.661011 3068.302002 -32.105515
v -1124.661011 3068.302002 -29.749107
vn 0.7071 0.7071 -0.0000
vn -0.7071 0.7071 -0.0000
vn 0.7071 -0.7071 -0.0000
vn -0.7071 -0.7071 -0.0000
vn -0.0000 0.9946 0.1034
vn -0.0000 -0.9946 0.1034
vn -0.9946 -0.0000 0.1034
vn -0.9946 -0.0000 0.1033
vn 0.9946 -0.0000 0.1034
vn -0.0000 -0.5642 0.8257
vn 0.5641 -0.0000 0.8257
vn -0.5641 -0.0000 0.8257
vn -0.5764 -0.0000 -0.8172
vn -0.0000 -0.5765 -0.8171
vn 0.5764 -0.0000 -0.8172
vn 0.0001 0.5641 0.8257
vn -0.0000 0.5764 -0.8172
vn -0.0000 0.9946 0.1033
vn -0.0000 -0.9946 0.1033
vn -0.5642 -0.0000 0.8257
vn -0.5764 -0.0000 -0.8171
vn 0.5764 -0.0000 -0.8171
vn -0.0000 0.5640 0.8258
vn 0.9946 -0.0000 0.1033
vn 0.5642 -0.0000 0.8257
vn -0.5640 -0.0000 0.8257
vn 0.5765 -0.0000 -0.8171
vn -0.0001 0.5641 0.8257
vn -0.9946 -0.0000 0.1035
vn -0.0000 0.5641 0.8257
vn 0.5640 -0.0000 0.8258
vn 0.7070 -0.7072 -0.0000
vn -0.7072 -0.7070 -0.0000
vn -0.0000 -0.5641 0.8257
vn -0.0000 -0.5764 -0.8172
vn -0.0000 0.5642 0.8257
vn -0.0000 0.5765 -0.8171
vn -0.5640 -0.0000 0.8258
vn 0.9946 -0.0000 0.1035
vn 0.7070 -0.7073 -0.0000
vn -0.7073 -0.7070 -0.0000
vn -0.5765 -0.0000 -0.8171
vn -0.0000 1.0000 -0.0000
vn 1.0000 -0.0000 -0.0000
vn -0.9326 -0.3608 -0.0000
vn -0.3100 -0.0000 0.9507
vn -0.3098 0.0005 0.9508
vn -0.0000 -1.0000 -0.0000
vn 0.3138 -0.0001 -0.9495
vn 0.3138 -0.0000 -0.9495
vn -0.0071 -0.0028 1.0000
vn 0.0045 0.0017 -1.0000
vn 0.0001 1.0000 -0.0000
vt -0.203125 0.969482
vt 1.390625 0.999023
vt -0.203125 0.999023
vt 1.390625 0.969482
vt -0.203125 0.940674
vt 1.390625 0.940674
vt 1.000000 0.937500
vt 0.500000 0.875000
vt 1.000000 0.875000
vt 0.500000 0.937500
vt 0.673096 0.967651
vt 0.766846 0.941284
vt 0.766846 0.998901
vt 0.579346 0.998901
vt 0.579346 0.941284
vt -1.471802 0.539795
vt -0.840820 0.562256
vt -1.471802 0.562256
vt -0.836304 0.539795
vt 2.089355 0.749756
vt 2.089355 0.562256
vt -0.846558 0.749756
vt -0.836304 0.562256
vt -0.846558 0.728394
vt 2.089355 0.728394
vt 2.089355 0.539795
s 1
usemtl mt_town_n_tetu.004
f 3/1/1 2/2/2 1/3/2
f 4/4/1 2/2/2 3/1/1
f 5/5/3 4/4/1 3/1/1
f 6/6/3 4/4/1 5/5/3
f 7/1/4 6/6/3 5/5/3
f 8/4/4 6/6/3 7/1/4
f 1/3/2 8/4/4 7/1/4
f 2/2/2 8/4/4 1/3/2
s 0
f 11/7/5 10/8/5 9/9/5
f 12/10/5 10/8/5 11/7/5
f 15/7/6 14/8/6 13/9/6
f 16/10/6 14/8/6 15/7/6
f 12/10/7 13/9/7 14/8/7
f 11/7/8 13/9/8 12/10/8
f 9/9/9 16/10/9 15/7/9
f 10/8/9 16/10/9 9/9/9
f 17/11/10 14/12/10 16/13/10
f 10/14/11 17/11/11 16/13/11
f 12/15/12 14/12/12 17/11/12
f 11/14/13 18/11/13 13/13/13
f 18/11/14 15/12/14 13/13/14
f 9/15/15 15/12/15 18/11/15
f 12/15/16 17/11/16 10/14/16
f 9/15/17 18/11/17 11/14/17
s 1
f 21/1/1 20/2/2 19/3/2
f 22/4/1 20/2/2 21/1/1
f 23/5/3 22/4/1 21/1/1
f 24/6/3 22/4/1 23/5/3
f 25/1/4 24/6/3 23/5/3
f 26/4/4 24/6/3 25/1/4
f 19/3/2 26/4/4 25/1/4
f 20/2/2 26/4/4 19/3/2
s 0
f 29/7/18 28/8/18 27/9/18
f 30/10/18 28/8/18 29/7/18
f 33/7/19 32/8/19 31/9/19
f 34/10/19 32/8/19 33/7/19
f 30/10/7 31/9/7 32/8/7
f 29/7/7 31/9/7 30/10/7
f 27/9/9 34/10/9 33/7/9
f 28/8/9 34/10/9 27/9/9
f 35/11/10 32/12/10 34/13/10
f 28/14/11 35/11/11 34/13/11
f 30/15/20 32/12/20 35/11/20
f 29/14/21 36/11/21 31/13/21
f 36/11/14 33/12/14 31/13/14
f 27/15/22 33/12/22 36/11/22
f 30/15/23 35/11/23 28/14/23
f 27/15/17 36/11/17 29/14/17
s 1
f 39/1/1 38/2/2 37/3/2
f 40/4/1 38/2/2 39/1/1
f 41/5/3 40/4/1 39/1/1
f 42/6/3 40/4/1 41/5/3
f 43/1/4 42/6/3 41/5/3
f 44/4/4 42/6/3 43/1/4
f 37/3/2 44/4/4 43/1/4
f 38/2/2 44/4/4 37/3/2
s 0
f 47/7/5 46/8/5 45/9/5
f 48/10/5 46/8/5 47/7/5
f 51/7/6 50/8/6 49/9/6
f 52/10/6 50/8/6 51/7/6
f 48/10/8 49/9/8 50/8/8
f 47/7/7 49/9/7 48/10/7
f 45/9/24 52/10/24 51/7/24
f 46/8/9 52/10/9 45/9/9
f 53/11/10 50/12/10 52/13/10
f 46/14/25 53/11/25 52/13/25
f 48/15/26 50/12/26 53/11/26
f 47/14/13 54/11/13 49/13/13
f 54/11/14 51/12/14 49/13/14
f 45/15/27 51/12/27 54/11/27
f 48/15/28 53/11/28 46/14/28
f 45/15/17 54/11/17 47/14/17
s 1
f 57/1/1 56/2/2 55/3/2
f 58/4/1 56/2/2 57/1/1
f 59/5/3 58/4/1 57/1/1
f 60/6/3 58/4/1 59/5/3
f 61/1/4 60/6/3 59/5/3
f 62/4/4 60/6/3 61/1/4
f 55/3/2 62/4/4 61/1/4
f 56/2/2 62/4/4 55/3/2
s 0
f 65/7/5 64/8/5 63/9/5
f 66/10/5 64/8/5 65/7/5
f 69/7/6 68/8/6 67/9/6
f 70/10/6 68/8/6 69/7/6
f 66/10/7 67/9/7 68/8/7
f 65/7/29 67/9/29 66/10/29
f 63/9/9 70/10/9 69/7/9
f 64/8/9 70/10/9 63/9/9
f 71/11/10 68/12/10 70/13/10
f 64/14/11 71/11/11 70/13/11
f 66/15/20 68/12/20 71/11/20
f 65/14/13 72/11/13 67/13/13
f 72/11/14 69/12/14 67/13/14
f 63/15/15 69/12/15 72/11/15
f 66/15/30 71/11/30 64/14/30
f 63/15/17 72/11/17 65/14/17
s 1
f 75/1/1 74/2/2 73/3/2
f 76/4/1 74/2/2 75/1/1
f 77/5/3 76/4/1 75/1/1
f 78/6/3 76/4/1 77/5/3
f 79/1/4 78/6/3 77/5/3
f 80/4/4 78/6/3 79/1/4
f 73/3/2 80/4/4 79/1/4
f 74/2/2 80/4/4 73/3/2
s 0
f 83/7/5 82/8/5 81/9/5
f 84/10/5 82/8/5 83/7/5
f 87/7/6 86/8/6 85/9/6
f 88/10/6 86/8/6 87/7/6
f 84/10/7 85/9/7 86/8/7
f 83/7/7 85/9/7 84/10/7
f 81/9/9 88/10/9 87/7/9
f 82/8/9 88/10/9 81/9/9
f 89/11/10 86/12/10 88/13/10
f 82/14/31 89/11/31 88/13/31
f 84/15/20 86/12/20 89/11/20
f 83/14/21 90/11/21 85/13/21
f 90/11/14 87/12/14 85/13/14
f 81/15/15 87/12/15 90/11/15
f 84/15/30 89/11/30 82/14/30
f 81/15/17 90/11/17 83/14/17
s 1
f 93/1/1 92/2/2 91/3/2
f 94/4/1 92/2/2 93/1/1
f 95/5/32 94/4/1 93/1/1
f 96/6/32 94/4/1 95/5/32
f 97/1/33 96/6/32 95/5/32
f 98/4/33 96/6/32 97/1/33
f 91/3/2 98/4/33 97/1/33
f 92/2/2 98/4/33 91/3/2
s 0
f 101/7/5 100/8/5 99/9/5
f 102/10/5 100/8/5 101/7/5
f 105/7/6 104/8/6 103/9/6
f 106/10/6 104/8/6 105/7/6
f 102/10/8 103/9/8 104/8/8
f 101/7/7 103/9/7 102/10/7
f 99/9/24 106/10/24 105/7/24
f 100/8/9 106/10/9 99/9/9
f 107/11/34 104/12/34 106/13/34
f 100/14/11 107/11/11 106/13/11
f 102/15/12 104/12/12 107/11/12
f 101/14/13 108/11/13 103/13/13
f 108/11/35 105/12/35 103/13/35
f 99/15/27 105/12/27 108/11/27
f 102/15/36 107/11/36 100/14/36
f 99/15/37 108/11/37 101/14/37
s 1
f 111/1/1 110/2/2 109/3/2
f 112/4/1 110/2/2 111/1/1
f 113/5/3 112/4/1 111/1/1
f 114/6/3 112/4/1 113/5/3
f 115/1/4 114/6/3 113/5/3
f 116/4/4 114/6/3 115/1/4
f 109/3/2 116/4/4 115/1/4
f 110/2/2 116/4/4 109/3/2
s 0
f 119/7/18 118/8/18 117/9/18
f 120/10/18 118/8/18 119/7/18
f 123/7/19 122/8/19 121/9/19
f 124/10/19 122/8/19 123/7/19
f 120/10/8 121/9/8 122/8/8
f 119/7/8 121/9/8 120/10/8
f 117/9/9 124/10/9 123/7/9
f 118/8/24 124/10/24 117/9/24
f 125/11/34 122/12/34 124/13/34
f 118/14/11 125/11/11 124/13/11
f 120/15/38 122/12/38 125/11/38
f 119/14/13 126/11/13 121/13/13
f 126/11/14 123/12/14 121/13/14
f 117/15/27 123/12/27 126/11/27
f 120/15/30 125/11/30 118/14/30
f 117/15/17 126/11/17 119/14/17
s 1
f 129/1/1 128/2/2 127/3/2
f 130/4/1 128/2/2 129/1/1
f 131/5/3 130/4/1 129/1/1
f 132/6/3 130/4/1 131/5/3
f 133/1/4 132/6/3 131/5/3
f 134/4/4 132/6/3 133/1/4
f 127/3/2 134/4/4 133/1/4
f 128/2/2 134/4/4 127/3/2
s 0
f 137/7/5 136/8/5 135/9/5
f 138/10/5 136/8/5 137/7/5
f 141/7/6 140/8/6 139/9/6
f 142/10/6 140/8/6 141/7/6
f 138/10/7 139/9/7 140/8/7
f 137/7/8 139/9/8 138/10/8
f 135/9/39 142/10/39 141/7/39
f 136/8/9 142/10/9 135/9/9
f 143/11/10 140/12/10 142/13/10
f 136/14/25 143/11/25 142/13/25
f 138/15/26 140/12/26 143/11/26
f 137/14/13 144/11/13 139/13/13
f 144/11/14 141/12/14 139/13/14
f 135/15/15 141/12/15 144/11/15
f 138/15/30 143/11/30 136/14/30
f 135/15/17 144/11/17 137/14/17
s 1
f 147/1/1 146/2/2 145/3/2
f 148/4/1 146/2/2 147/1/1
f 149/5/32 148/4/1 147/1/1
f 150/6/40 148/4/1 149/5/32
f 151/1/33 150/6/40 149/5/32
f 152/4/41 150/6/40 151/1/33
f 145/3/2 152/4/41 151/1/33
f 146/2/2 152/4/41 145/3/2
s 0
f 155/7/18 154/8/18 153/9/18
f 156/10/18 154/8/18 155/7/18
f 159/7/19 158/8/19 157/9/19
f 160/10/19 158/8/19 159/7/19
f 156/10/7 157/9/7 158/8/7
f 155/7/7 157/9/7 156/10/7
f 153/9/9 160/10/9 159/7/9
f 154/8/9 160/10/9 153/9/9
f 161/11/34 158/12/34 160/13/34
f 154/14/11 161/11/11 160/13/11
f 156/15/12 158/12/12 161/11/12
f 155/14/42 162/11/42 157/13/42
f 162/11/35 159/12/35 157/13/35
f 153/15/15 159/12/15 162/11/15
f 156/15/30 161/11/30 154/14/30
f 153/15/37 162/11/37 155/14/37
s 1
f 165/1/1 164/2/2 163/3/2
f 166/4/1 164/2/2 165/1/1
f 167/5/32 166/4/1 165/1/1
f 168/6/32 166/4/1 167/5/32
f 169/1/33 168/6/32 167/5/32
f 170/4/41 168/6/32 169/1/33
f 163/3/2 170/4/41 169/1/33
f 164/2/2 170/4/41 163/3/2
s 0
f 173/7/5 172/8/5 171/9/5
f 174/10/5 172/8/5 173/7/5
f 177/7/6 176/8/6 175/9/6
f 178/10/6 176/8/6 177/7/6
f 174/10/7 175/9/7 176/8/7
f 173/7/7 175/9/7 174/10/7
f 171/9/9 178/10/9 177/7/9
f 172/8/9 178/10/9 171/9/9
f 179/11/34 176/12/34 178/13/34
f 172/14/11 179/11/11 178/13/11
f 174/15/12 176/12/12 179/11/12
f 173/14/13 180/11/13 175/13/13
f 180/11/35 177/12/35 175/13/35
f 171/15/15 177/12/15 180/11/15
f 174/15/36 179/11/36 172/14/36
f 171/15/37 180/11/37 173/14/37
s 1
f 183/1/1 182/2/2 181/3/2
f 184/4/1 182/2/2 183/1/1
f 185/5/3 184/4/1 183/1/1
f 186/6/3 184/4/1 185/5/3
f 187/1/4 186/6/3 185/5/3
f 188/4/4 186/6/3 187/1/4
f 181/3/2 188/4/4 187/1/4
f 182/2/2 188/4/4 181/3/2
s 0
f 191/7/5 190/8/5 189/9/5
f 192/10/5 190/8/5 191/7/5
f 195/7/6 194/8/6 193/9/6
f 196/10/6 194/8/6 195/7/6
f 192/10/7 193/9/7 194/8/7
f 191/7/8 193/9/8 192/10/8
f 189/9/24 196/10/24 195/7/24
f 190/8/9 196/10/9 189/9/9
f 197/11/10 194/12/10 196/13/10
f 190/14/25 197/11/25 196/13/25
f 192/15/12 194/12/12 197/11/12
f 191/14/21 198/11/21 193/13/21
f 198/11/14 195/12/14 193/13/14
f 189/15/27 195/12/27 198/11/27
f 192/15/30 197/11/30 190/14/30
f 189/15/17 198/11/17 191/14/17
f 201/16/43 200/17/43 199/18/43
f 202/19/43 200/17/43 201/16/43
f 205/20/44 204/21/44 203/21/44
f 206/20/44 204/21/44 205/20/44
f 207/22/45 201/18/45 199/18/45
f 208/22/45 201/18/45 207/22/45
f 202/23/46 205/20/46 203/21/46
f 208/22/47 205/20/47 202/23/47
f 208/24/48 206/20/48 205/25/48
f 207/22/48 206/20/48 208/24/48
f 200/17/49 206/20/49 207/22/49
f 204/21/50 206/20/50 200/17/50
f 202/19/43 204/21/43 200/17/43
f 203/26/43 204/21/43 202/19/43
f 208/22/51 202/23/51 201/18/51
f 199/18/52 200/17/52 207/22/52
f 211/16/43 210/17/43 209/18/43
f 212/19/43 210/17/43 211/16/43
f 215/20/44 214/21/44 213/21/44
f 216/20/44 214/21/44 215/20/44
f 217/22/45 211/18/45 209/18/45
f 218/22/45 211/18/45 217/22/45
f 212/23/46 215/20/46 213/21/46
f 218/22/47 215/20/47 212/23/47
f 218/24/48 216/20/48 215/25/48
f 217/22/48 216/20/48 218/24/48
f 210/17/49 216/20/49 217/22/49
f 214/21/50 216/20/50 210/17/50
f 212/19/43 214/21/43 210/17/43
f 213/26/53 214/21/53 212/19/53
f 218/22/51 212/23/51 211/18/51
f 209/18/52 210/17/52 217/22/52
