# Blender 4.1.1
# www.blender.org
mtllib polygon352.mtl
o polygon352
v 925.429810 1099.973999 -126.480125
v 721.943604 1108.257080 90.068901
v 726.485046 1092.914062 -103.792732
v 509.821594 1061.367065 92.306847
v 521.947266 1039.296997 -97.802498
v 298.683594 952.017273 70.649483
v 319.702362 932.759155 -111.053612
v 162.884201 779.184814 33.555897
v 184.835388 762.895386 -154.577103
v 86.382797 610.438782 16.862146
v 114.940498 603.929382 -155.150757
v 30.593679 474.902679 0.348919
v 56.712250 460.769257 -157.834335
v -80.004692 338.985382 -17.819267
v -61.647320 313.060272 -161.335831
v -234.208588 243.758591 -23.031807
v -224.419601 214.204193 -166.024521
v 3403.437988 1530.323975 -107.957672
v 3284.329102 1747.183105 -61.960957
v 3188.115234 1789.583130 -107.678909
v 3120.806152 1935.951050 -19.999920
v 3091.417236 1911.173096 -115.432419
v 2951.797119 2064.040771 -115.107140
v 251.567688 1639.722900 121.000000
v 242.428299 1661.928101 -102.825294
v 80.901108 1524.078125 121.000008
v 60.200134 1540.942017 -80.935280
v -58.319237 1401.131104 -65.896690
v 1100.791992 1138.066895 -157.564240
v 1100.791992 1138.067017 121.000053
v 932.032776 1111.405029 99.295158
v 2140.665771 2185.755127 120.999939
v 2133.489990 2141.578125 -43.271000
v 2427.354004 2049.324219 130.999954
v 2422.294189 2009.194946 -60.311634
v 2803.895020 2159.981201 -98.982941
v 503.286194 1735.572021 -160.862000
v 503.286194 1735.572021 120.999985
v -32.716419 1384.776123 94.449692
v -100.124390 1252.079834 70.649445
v 1228.071045 1265.345947 -157.051758
v 1392.998047 1439.869019 -114.467865
v 1228.071045 1265.346069 121.000038
v 1393.165894 1451.781006 121.000015
v 1563.837036 1690.932129 -75.616463
v 1551.989990 1704.102905 120.999992
v 1654.313110 1963.239990 -49.779419
v 1638.131104 1998.942139 120.999954
v 1872.121094 2104.483154 -46.821049
v 1866.556030 2144.038086 120.999931
v 2810.329590 2198.706055 -0.000018
v 2976.360840 2097.780029 -5.000006
vn -0.1153 0.9926 -0.0385
vn -0.1220 0.9898 -0.0733
vn -0.1351 0.9866 -0.0913
vn -0.3417 0.9322 -0.1192
vn -0.3537 0.9259 -0.1331
vn -0.6063 0.7810 -0.1495
vn -0.6280 0.7635 -0.1508
vn -0.8280 0.5413 -0.1462
vn -0.8412 0.5196 -0.1497
vn -0.9021 0.4015 -0.1584
vn -0.9050 0.3901 -0.1698
vn -0.8430 0.5073 -0.1789
vn -0.8411 0.5062 -0.1904
vn -0.6474 0.7332 -0.2081
vn -0.6389 0.7391 -0.2134
vn -0.5052 0.8368 -0.2111
vn -0.5034 0.8387 -0.2078
vn 0.5369 0.4467 -0.7157
vn 0.5405 0.4857 -0.6870
vn 0.5843 0.5705 -0.5772
vn 0.6858 0.6075 -0.4008
vn 0.7113 0.5954 -0.3736
vn 0.5920 0.7222 -0.3576
vn 0.4595 -0.8818 -0.1062
vn 0.4228 -0.9026 -0.0812
vn 0.6566 -0.7419 -0.1356
vn 0.6455 -0.7528 -0.1290
vn 0.8105 -0.5615 -0.1667
vn -0.2123 0.9772 -0.0000
vn -0.1772 0.9838 -0.0258
vn -0.0867 0.9951 -0.0478
vn 0.1485 0.9533 -0.2629
vn 0.1451 0.9575 -0.2491
vn 0.0449 0.9727 -0.2278
vn -0.0033 0.9787 -0.2052
vn 0.0526 0.9355 -0.3495
vn 0.2717 -0.9624 -0.0000
vn 0.3087 -0.9500 -0.0471
vn 0.8332 -0.5207 -0.1861
vn 0.8892 -0.4186 -0.1847
vn -0.7268 0.6868 -0.0000
vn -0.7774 0.6287 -0.0210
vn -0.7376 0.6750 -0.0163
vn -0.7930 0.6078 -0.0415
vn -0.8919 0.4468 -0.0700
vn -0.9029 0.4192 -0.0953
vn -0.8046 0.5663 -0.1787
vn -0.7714 0.6050 -0.1974
vn -0.3446 0.9106 -0.2281
vn -0.3318 0.9147 -0.2306
vn -0.0188 0.9315 -0.3632
vn 0.5823 0.7324 -0.3530
vt -24.335939 14.312500
vt -24.275389 13.582029
vt -23.740229 14.443359
vt -24.992189 13.546880
vt -25.041019 14.210939
vt -25.832029 13.562500
vt -25.845699 14.193359
vt -26.572269 13.625001
vt -26.583979 14.333980
vt -27.128910 13.691410
vt -27.099609 14.357420
vt -27.562500 13.767580
vt -27.550779 14.388670
vt -28.154299 13.806640
vt -28.187500 14.392580
vt -28.798830 13.824220
vt -28.859379 14.363279
vt -13.921880 15.615230
vt -13.496090 15.447269
vt -12.804689 15.777340
vt -14.261720 15.119140
vt -14.425779 15.576170
vt -15.117189 15.425779
vt -43.619141 9.896484
vt -44.517578 10.712890
vt -44.464840 9.679688
vt -43.623051 10.755859
vt -42.828129 10.710939
vt -23.107420 13.677730
vt -23.162109 14.552730
vt -23.646479 13.605470
vt -17.011719 14.449220
vt -18.142580 14.636720
vt -17.996090 14.031250
vt -17.140629 15.031250
vt -15.722660 15.222660
vt -45.451168 9.425781
vt -45.451168 10.597660
vt -42.837891 9.914062
vt -42.203129 9.933594
vt -22.484379 13.697269
vt -21.703129 14.326170
vt -22.539059 14.570310
vt -21.626949 13.484380
vt -20.703129 14.267580
vt -20.667969 13.550779
vt -19.900389 14.205080
vt -19.837889 13.568359
vt -19.099609 14.349609
vt -19.001949 13.726560
vt -15.593750 14.664060
vt -14.945310 14.892580
s 1
usemtl mt_gake.008
f 3/1/3 2/2/2 1/3/1
f 4/4/4 2/2/2 3/1/3
f 5/5/5 4/4/4 3/1/3
f 6/6/6 4/4/4 5/5/5
f 7/7/7 6/6/6 5/5/5
f 8/8/8 6/6/6 7/7/7
f 9/9/9 8/8/8 7/7/7
f 10/10/10 8/8/8 9/9/9
f 11/11/11 10/10/10 9/9/9
f 12/12/12 10/10/10 11/11/11
f 13/13/13 12/12/12 11/11/11
f 14/14/14 12/12/12 13/13/13
f 15/15/15 14/14/14 13/13/13
f 16/16/16 14/14/14 15/15/15
f 17/17/17 16/16/16 15/15/15
f 20/18/20 19/19/19 18/20/18
f 21/21/21 19/19/19 20/18/20
f 22/22/22 21/21/21 20/18/20
f 23/23/23 21/21/21 22/22/22
f 26/24/26 25/25/25 24/26/24
f 27/27/27 25/25/25 26/24/26
f 28/28/28 27/27/27 26/24/26
f 1/3/1 30/29/30 29/30/29
f 31/31/31 30/29/30 1/3/1
f 2/2/2 31/31/31 1/3/1
f 34/32/34 33/33/33 32/34/32
f 35/35/35 33/33/33 34/32/34
f 36/36/36 35/35/35 34/32/34
f 38/37/38 25/25/25 37/38/37
f 24/26/24 25/25/25 38/37/38
f 39/39/39 28/28/28 26/24/26
f 40/40/40 28/28/28 39/39/39
f 43/41/43 42/42/42 41/43/41
f 44/44/44 42/42/42 43/41/43
f 44/44/44 45/45/45 42/42/42
f 46/46/46 45/45/45 44/44/44
f 46/46/46 47/47/47 45/45/45
f 48/48/48 47/47/47 46/46/46
f 48/48/48 49/49/49 47/47/47
f 50/50/50 49/49/49 48/48/48
f 50/50/50 33/33/33 49/49/49
f 32/34/32 33/33/33 50/50/50
f 51/51/51 36/36/36 34/32/34
f 52/52/52 36/36/36 51/51/51
f 52/52/52 23/23/23 36/36/36
f 21/21/21 23/23/23 52/52/52
