# Blender 4.1.1
# www.blender.org
mtllib polygon0.605.mtl
o Yacht.005
v -0.000062 41.687263 -8.192597
v 4.820833 38.786709 -8.192597
v -0.000062 38.406765 -2.212331
v 8.279426 29.776760 -2.212330
v -0.000062 35.391479 1.188401
v 4.967467 29.157328 1.487249
v -0.000062 28.057468 5.684351
v 9.739214 11.357790 1.639977
v -0.000061 10.271298 5.442384
v 10.156819 -3.112042 1.155263
v -0.000061 -3.258764 4.347117
v 9.280621 -14.604620 0.514257
v -0.000061 -14.488339 3.008777
v 7.564765 -23.288279 -0.550456
v -0.000061 -23.536230 1.338398
v -0.000061 -29.122858 -0.052813
v -7.800000 -24.699312 -7.999251
v -7.800000 -24.699314 -9.927095
v -10.636340 -22.281719 -7.999250
v -10.636340 -22.281721 -9.927095
v -14.109569 -14.145110 -7.999251
v -14.109569 -14.145109 -9.927095
v -15.476390 -1.553766 -7.999253
v -15.476390 -1.553766 -9.927097
v -14.173679 12.997899 -7.999255
v -14.173679 12.997900 -9.927100
v -10.979480 23.716408 -7.999256
v -10.979480 23.716406 -8.741542
v 10.979480 23.716408 -7.999256
v 10.979480 23.716406 -8.741542
v 14.173679 12.997899 -7.999255
v 14.173679 12.997900 -9.927100
v 15.476390 -1.553766 -7.999253
v 15.476390 -1.553766 -9.927097
v 14.109569 -14.145110 -7.999251
v 14.109569 -14.145109 -9.927095
v 10.636340 -22.281719 -7.999250
v 10.636340 -22.281721 -9.927095
v 7.800000 -24.699312 -7.999251
v 7.800000 -24.699314 -9.927095
v -9.076639 -25.546261 -8.192590
v -11.747729 -22.655451 -8.192591
v -8.072698 -28.031689 -2.212323
v -10.799519 -23.010229 -2.212323
v -7.564886 -23.288279 -0.550456
v -12.781649 -14.510809 -2.212324
v -9.280741 -14.604620 0.514257
v -13.988359 -3.155153 -2.212326
v -10.156940 -3.112042 1.155263
v -12.772580 12.271608 -2.212327
v -9.739336 11.357790 1.639977
v -8.279551 29.776760 -2.212330
v -1.360165 -28.694628 -0.499710
v -0.310559 -25.952145 10.129922
v -0.310559 -28.641148 10.129924
v 0.310559 -28.641148 10.129924
v 1.360165 -28.694628 -0.499710
v 0.600697 -21.983002 0.961615
v -0.600697 -21.983002 0.961615
v 0.310559 -25.952145 10.129922
v -1.360165 0.489537 3.701614
v -0.500465 9.138419 18.611406
v -0.500465 0.418548 18.611410
v 0.500465 0.418548 18.611410
v 1.360165 0.489537 3.701614
v 0.682578 15.204970 4.072314
v -0.682578 15.204970 4.072314
v 0.500465 9.138419 18.611406
v 9.880369 30.400335 -8.192596
v 15.314819 12.957548 -8.192595
v 12.772459 12.271608 -2.212327
v 13.988239 -3.155153 -2.212326
v 12.781529 -14.510809 -2.212324
v 0.000000 12.828477 -21.252329
v 0.690369 -5.215972 -21.252329
v 0.000000 12.828474 -47.184280
v 2.661919 -2.416242 -47.274803
v 0.000000 12.828471 -73.116226
v 2.815883 1.495418 -73.297295
v 0.000000 12.828468 -99.048180
v 0.624253 6.154422 -99.319771
v 0.000000 12.828465 -125.661697
v 0.000000 10.545815 -126.386002
v -0.822654 12.745937 -8.392751
v -0.822654 12.745923 -127.640099
v -0.822654 14.391237 -8.392752
v -0.822654 14.391223 -127.640091
v 2.139149 14.391237 -8.392752
v 0.822654 14.391223 -127.640091
v 0.822654 12.745937 -8.392751
v 0.822654 12.745923 -127.640099
v -15.314939 12.957548 -8.192595
v -16.772739 -3.250387 -8.192593
v -15.325839 -14.489011 -8.192590
v 8.190619 -22.750002 -8.192590
v 9.957435 -11.248761 -8.192592
v 8.606234 -11.167049 -10.367238
v 10.557920 -3.250001 -8.192593
v 8.496523 -7.423104 -12.876808
v 8.688453 -3.250001 -12.375799
v 7.433291 -5.160225 -13.436040
v 6.853872 12.437380 -10.641312
v 7.071137 2.542415 -14.013980
v 7.030827 5.535086 -40.653839
v 7.119068 20.595285 -14.013983
v 9.355488 20.700762 -40.765240
v 4.920140 30.113327 -14.013983
v 6.394156 28.775204 -40.820953
v 0.828636 38.648159 -14.013985
v 1.540246 35.866436 -40.876640
v 1.542445 31.941601 -67.291885
v 5.863744 26.579752 -67.292336
v 0.828636 24.265226 -97.631004
v 4.720513 18.060566 -97.693329
v 0.828636 14.513105 -120.573387
v 2.721533 11.855908 -97.755661
v -0.818888 12.774075 -127.603004
v -0.818888 12.774074 -126.098999
v -0.818888 9.764120 -127.603004
v -0.818888 9.764120 -126.887100
v 0.818888 9.764120 -127.603004
v 0.818888 9.764120 -126.887100
v 0.818888 12.774075 -127.603004
v 0.818888 12.774074 -126.098999
v -4.967592 29.157328 1.487249
v 9.076518 -25.546261 -8.192590
v 8.072577 -28.031689 -2.212323
v 11.747609 -22.655451 -8.192591
v 10.799399 -23.010229 -2.212323
v 15.325709 -14.489011 -8.192590
v -7.093328 -23.260420 -21.252325
v -4.369120 -17.660965 -47.365341
v -3.246710 -9.837638 -73.478363
v 7.024901 -22.750002 -8.192590
v -0.000061 -25.546261 -8.192590
v -0.000062 -28.031689 -2.212323
v -4.820957 38.786709 -8.192597
v -9.880493 30.400335 -8.192596
v -7.433562 -5.160225 -13.436040
v -6.854290 12.437380 -10.641312
v -0.000062 24.309448 -8.192595
v 6.233953 22.803305 -8.192595
v -5.158885 -28.703329 -1.069800
v 5.158763 -28.703329 -1.069800
v 9.807909 13.604438 -8.192595
v 16.772619 -3.250387 -8.192593
v 5.328239 8.527762 -67.293701
v 8.512341 20.234682 -67.292801
v -6.234076 22.803305 -8.192595
v -9.807909 13.604438 -8.192595
v -8.143966 13.020908 -10.362330
v -8.688873 -3.250001 -12.375799
v -8.606356 -11.167049 -10.367238
v -7.557557 -11.167049 -10.367238
v -8.496646 -7.423106 -12.876808
v -7.228291 -7.423106 -12.876808
v 8.143756 13.020908 -10.362330
v -8.190741 -22.750002 -8.192590
v -9.957557 -11.248761 -8.192592
v -0.000062 40.587238 -8.133098
v -0.000062 40.587238 -10.052235
v 4.830939 37.343040 -8.133097
v 4.830939 37.343040 -10.052234
v -4.831064 37.343040 -8.133097
v -4.831064 37.343040 -10.052234
v -7.026423 -9.541060 -4.908226
v -7.228291 -6.179441 -11.656069
v 7.228168 -7.423104 -12.876808
v 7.228168 -6.179440 -11.656069
v 7.557434 -11.167049 -10.367238
v 7.026299 -9.541060 -4.908226
v -10.558040 -3.250001 -8.192593
v -7.269963 -26.581259 -4.566721
v 7.269839 -26.581259 -4.566720
v -7.025023 -22.750002 -8.192590
v -1.711826 -0.519627 -99.591377
v 8.981359 30.184057 -8.133097
v -8.981483 30.184057 -8.133097
vn -0.0000 0.7864 0.6177
vn 0.6140 0.6480 0.4506
vn -0.0000 0.8768 0.4809
vn 0.7795 0.3892 0.4908
vn -0.0000 0.6702 0.7421
vn 0.6239 0.3383 0.7045
vn -0.0000 0.2915 0.9566
vn 0.6092 0.0524 0.7913
vn -0.0086 -0.0399 0.9992
vn 0.5064 -0.0402 0.8614
vn -0.0123 -0.0855 0.9963
vn 0.4506 -0.1453 0.8808
vn -0.0067 -0.1422 0.9898
vn 0.3665 -0.2001 0.9086
vn 0.0030 -0.2055 0.9787
vn 0.0145 -0.8798 0.4751
vn -0.6487 -0.7611 -0.0000
vn -0.9675 -0.2530 -0.0000
vn -0.9197 -0.3926 -0.0000
vn -0.9942 -0.1079 -0.0000
vn -0.9960 0.0892 -0.0000
vn -0.9584 0.2856 -0.0000
vn 0.9584 0.2856 -0.0000
vn 1.0000 -0.0094 -0.0000
vn 0.9960 0.0892 -0.0000
vn 0.9942 -0.1079 -0.0000
vn 0.9197 -0.3926 -0.0000
vn 0.6487 -0.7611 -0.0000
vn -0.4930 -0.8235 0.2806
vn -0.8710 -0.4884 0.0524
vn -0.4587 -0.8452 -0.2743
vn -0.7647 -0.3203 0.5592
vn -0.3683 -0.1960 0.9088
vn -0.7803 -0.1469 0.6079
vn -0.4487 -0.1361 0.8832
vn -0.8036 -0.0125 0.5951
vn -0.4989 -0.0419 0.8657
vn -0.8411 0.1300 0.5250
vn -0.6045 0.0444 0.7954
vn -0.7795 0.3892 0.4908
vn -0.5459 -0.5811 0.6036
vn -0.5710 0.4438 0.6907
vn -0.6205 -0.4909 -0.6115
vn 0.5609 -0.5747 0.5959
vn 0.6264 -0.4893 -0.6068
vn 0.5493 0.7521 -0.3642
vn -0.5430 0.7548 -0.3679
vn 0.5907 0.4384 0.6775
vn -0.5588 -0.5820 0.5908
vn -0.5852 0.4475 0.6762
vn -0.6022 -0.5566 -0.5723
vn 0.5674 -0.5777 0.5868
vn 0.6083 -0.5540 -0.5683
vn 0.5555 0.7015 -0.4464
vn -0.5505 0.7039 -0.4488
vn 0.5966 0.4432 0.6691
vn 0.8771 0.3932 0.2758
vn 0.9065 0.1595 0.3910
vn 0.8411 0.1300 0.5250
vn 0.8072 -0.0123 0.5902
vn 0.7844 -0.1491 0.6020
vn -0.9993 -0.0382 -0.0000
vn -0.9809 -0.1707 -0.0927
vn -0.9851 -0.1720 -0.0000
vn -0.9698 -0.2403 -0.0419
vn -0.9705 -0.2411 -0.0000
vn -0.9932 -0.0956 0.0665
vn -0.9957 -0.0931 -0.0000
vn -0.9997 -0.0070 0.0219
vn -0.7071 0.7071 -0.0000
vn -0.5773 -0.5773 -0.5774
vn -0.7071 -0.7071 -0.0000
vn -0.5773 0.5774 -0.5773
vn 0.9024 0.4307 -0.0100
vn 0.5773 0.5773 -0.5774
vn 0.4356 -0.9001 -0.0048
vn 0.5774 -0.5773 -0.5774
vn -0.9065 0.1595 0.3910
vn -0.9089 -0.0113 0.4168
vn -0.9190 -0.1975 0.3412
vn 0.6947 -0.2844 -0.6607
vn 0.8439 -0.0958 -0.5279
vn 0.8401 -0.1291 -0.5268
vn 0.9120 0.0050 -0.4101
vn 0.5563 -0.2913 -0.7782
vn 0.7460 0.0925 -0.6595
vn 0.2502 -0.0002 -0.9682
vn 0.0779 0.1761 -0.9813
vn -1.0000 0.0027 0.0018
vn -0.9852 0.1504 -0.0818
vn -0.9710 -0.2243 -0.0821
vn -0.9382 -0.3443 -0.0344
vn -0.9014 -0.4321 -0.0280
vn -0.8248 -0.5643 0.0366
vn -0.8226 -0.5624 0.0835
vn -0.7768 -0.6261 0.0675
vn -0.7667 -0.6179 0.1744
vn -0.8328 -0.5241 0.1782
vn -0.8252 -0.5198 0.2210
vn -0.9460 0.3036 0.1138
vn -0.5773 -0.5774 -0.5773
vn -0.6418 -0.1942 0.7418
vn -0.7071 -0.0000 -0.7071
vn -0.5920 -0.6380 0.4924
vn 0.5920 -0.6380 0.4924
vn 0.7071 -0.0000 -0.7071
vn 0.6418 -0.1942 0.7418
vn -0.6239 0.3383 0.7045
vn 0.8710 -0.4884 0.0524
vn 0.4914 -0.8243 0.2812
vn 0.4587 -0.8452 -0.2743
vn 0.7647 -0.3203 0.5592
vn 0.9181 -0.1901 0.3477
vn -0.9179 0.3959 -0.0269
vn -0.9081 0.4188 -0.0049
vn -0.9067 0.4178 0.0574
vn -0.8778 0.4679 0.1025
vn -0.8719 0.4639 0.1565
vn -0.0000 -0.0000 -1.0000
vn -0.0000 -0.9234 -0.3838
vn 0.0034 -0.9075 -0.4200
vn -0.6140 0.6480 0.4506
vn -0.8771 0.3932 0.2758
vn -0.0779 0.1761 -0.9813
vn -0.2502 -0.0002 -0.9682
vn -0.0000 0.2212 -0.9752
vn 0.1450 0.2463 -0.9583
vn -0.2396 -0.8943 0.3780
vn 0.2070 -0.9193 0.3348
vn -0.9852 0.1516 0.0800
vn -0.9646 0.2624 0.0260
vn -0.9383 -0.3439 0.0359
vn -0.9217 -0.3847 0.0504
vn -0.4811 0.1984 -0.8539
vn -0.7668 0.1926 -0.6123
vn -0.1450 0.2463 -0.9583
vn -0.7563 0.0550 -0.6519
vn -0.6336 -0.2767 -0.7225
vn 0.8700 -0.2748 -0.4094
vn -0.6968 -0.2700 -0.6645
vn 0.3555 -0.3325 -0.8735
vn 0.4964 0.1802 -0.8492
vn 0.5575 0.8302 -0.0000
vn -0.5575 0.8302 -0.0000
vn 0.9977 -0.0206 -0.0639
vn 0.9996 0.0197 -0.0201
vn -0.8800 -0.2680 -0.3922
vn -0.9978 -0.0668 -0.0037
vn -0.3643 -0.3459 -0.8647
vn -0.9956 -0.0410 -0.0846
vn -0.0000 -0.7005 0.7137
vn -0.8439 -0.0958 -0.5279
vn -0.8401 -0.1291 -0.5268
vn -0.9069 -0.0309 -0.4202
vn -0.0000 -0.0200 -0.9998
vn -0.0000 -0.8951 -0.4459
vn -0.0000 0.6874 0.7263
vn -0.9136 -0.3814 0.1412
vn -0.9477 0.3043 0.0964
vn -0.0000 -0.1845 -0.9828
vn -0.9422 0.3267 0.0747
vn -0.9428 0.3275 0.0615
vn 0.9996 -0.0066 0.0270
vn 0.9985 -0.0132 0.0535
vn 0.7604 0.1662 -0.6279
vn -0.9989 0.0320 0.0355
vn -0.9871 0.0722 0.1430
vn 0.9063 -0.0178 0.4223
vn 0.8651 0.5016 -0.0000
vn -0.8651 0.5016 -0.0000
vn -0.9590 0.2608 0.1106
vt 1.593872 0.063721
vt 1.596191 0.262940
vt 1.614380 0.262940
vt 1.539795 0.063721
vt 1.574951 0.017822
vt 1.535889 0.013672
vt 1.528931 -0.042969
vt 1.424194 0.011719
vt 1.417480 -0.039673
vt 1.333496 0.018188
vt 1.332642 -0.024902
vt 1.261475 0.026855
vt 1.262207 -0.006836
vt 1.207031 0.041260
vt 1.205444 0.015747
vt 1.170410 0.034546
vt 0.587280 1.062744
vt 0.675903 1.018799
vt 0.675903 1.062744
vt 0.587280 1.018799
vt 0.763550 1.062744
vt 0.763550 1.018799
vt 1.001953 1.062744
vt 1.001953 1.018799
vt 0.764526 1.062744
vt 0.764526 1.018799
vt 0.590332 1.062744
vt 0.590332 1.018799
vt 1.174561 0.063721
vt 1.210938 0.262940
vt 1.192871 0.262940
vt 1.208740 0.063721
vt 1.262085 0.063721
vt 1.333252 0.063721
vt 1.429932 0.063721
vt 0.852783 0.027344
vt 0.841553 0.027344
vt 0.852905 0.197388
vt 0.824951 0.196777
vt 0.867432 0.022339
vt 0.831055 0.022339
vt 0.867065 0.199951
vt 0.805664 0.196411
vt 1.543701 0.262940
vt 1.434326 0.262940
vt 0.182373 0.246704
vt 0.098755 0.000000
vt 0.182373 0.000000
vt 0.111816 0.247559
vt 0.182373 0.493286
vt 0.129883 0.494995
vt 0.182373 0.739990
vt 0.151489 0.742554
vt 0.182373 0.993164
vt 0.171875 1.000000
vt 1.126953 0.006958
vt 1.126953 0.185791
vt 1.149658 0.006958
vt 1.149658 0.185791
vt 1.332642 0.262940
vt 1.262207 0.262940
vt 1.202148 0.340332
vt 1.202393 0.275147
vt 1.007324 0.275147
vt 1.337769 0.276245
vt 1.257080 0.399414
vt 1.363403 0.382324
vt 1.287354 0.418579
vt 1.519653 0.352783
vt 0.277100 0.113281
vt 0.201782 0.352661
vt 0.186890 0.113281
vt 0.277588 0.353638
vt 0.322266 0.113281
vt 0.315552 0.354126
vt 0.367310 0.113281
vt 0.353516 0.354736
vt 0.333862 0.592163
vt 0.304565 0.592163
vt 0.295410 0.864746
vt 0.264404 0.865356
vt 0.246704 1.071045
vt 0.233398 0.865967
vt 0.539795 0.880493
vt 0.539795 0.814209
vt 0.539795 0.848999
vt 0.667847 0.880493
vt 0.667847 0.848999
vt 0.667847 0.814209
vt 0.015137 0.000000
vt 0.041138 0.248413
vt 0.077393 0.496704
vt 1.121216 0.594116
vt 1.109253 0.594116
vt 1.128662 0.594116
vt 1.117798 0.594116
vt 1.074097 0.263428
vt 0.971069 0.062988
vt 0.958252 0.263428
vt 1.074097 0.062988
vt 1.190063 0.263428
vt 1.177246 0.062988
vt 0.482910 0.628662
vt 0.613159 0.445190
vt 0.613159 0.636108
vt 0.482910 0.452637
vt 0.375977 0.540649
vt 0.385742 0.460571
vt 1.008301 0.012085
vt 1.074097 -0.017334
vt 1.140015 0.012085
vt 0.894653 0.594116
vt 0.913940 0.594116
vt 0.908935 0.594116
vt 0.942749 0.594116
vt 1.027222 0.594116
vt 0.216797 0.592163
vt 0.275269 0.592163
vt 1.521484 0.346680
vt 1.553955 0.275147
vt 1.608521 0.276001
vt 1.172974 0.048340
vt 0.756592 0.629150
vt 0.860229 0.509766
vt 0.849121 0.605957
vt 0.725830 0.499878
vt 1.161499 0.944092
vt 1.244873 0.976440
vt 1.244873 0.944092
vt 1.161499 0.976440
vt 1.329224 0.976440
vt 1.329224 0.944092
vt 1.230835 0.710327
vt 1.253784 0.620850
vt 1.271362 0.682129
vt 1.217407 0.696533
vt 1.230957 0.403198
vt 1.559814 0.886597
vt 1.629639 0.672363
vt 1.629761 0.884644
vt 1.559814 0.670532
vt 0.950562 0.594116
vt 1.039185 0.594116
vt 1.193726 0.914429
vt 1.318604 0.737671
vt 1.308838 0.914429
vt 1.188965 0.737671
vt 0.928833 0.267456
vt 0.961548 0.191528
vt 0.882324 0.496460
vt 0.944702 0.496460
vt 0.913452 0.566284
vt 0.851685 0.294922
vt 1.202148 0.341186
vt 1.008545 0.275147
vt 1.202759 0.339478
vt 1.008423 0.277222
vt 0.120605 0.745117
vt 1.353394 0.661865
vt 1.394897 0.621216
vt 0.649414 0.493897
vt 0.636475 0.640991
vt 0.636597 0.639893
vt 0.725952 0.498535
vt 0.649536 0.492676
vt 0.756714 0.627930
vt 0.860352 0.508545
vt 0.849243 0.604736
vt 1.156982 0.944702
vt 1.047119 0.976440
vt 1.442749 0.976440
vt 1.333740 0.944702
vt 0.975342 0.294922
vt 0.385742 0.620606
s 1
usemtl mt_yacht.002
f 3/1/1 2/2/2 1/3/3
f 4/4/4 2/2/2 3/1/1
f 5/5/5 4/4/4 3/1/1
f 6/6/6 4/4/4 5/5/5
f 7/7/7 6/6/6 5/5/5
f 8/8/8 6/6/6 7/7/7
f 9/9/9 8/8/8 7/7/7
f 10/10/10 8/8/8 9/9/9
f 11/11/11 10/10/10 9/9/9
f 12/12/12 10/10/10 11/11/11
f 13/13/13 12/12/12 11/11/11
f 14/14/14 12/12/12 13/13/13
f 15/15/15 14/14/14 13/13/13
f 16/16/16 14/14/14 15/15/15
s 0
f 19/17/17 18/18/17 17/19/17
f 20/20/17 18/18/17 19/17/17
s 1
f 21/21/18 20/20/19 19/17/19
f 22/22/18 20/20/19 21/21/18
f 23/23/20 22/22/18 21/21/18
f 24/24/20 22/22/18 23/23/20
s 0
f 25/25/21 24/24/21 23/23/21
f 26/26/21 24/24/21 25/25/21
s 1
f 27/27/22 26/26/22 25/25/22
f 28/28/22 26/26/22 27/27/22
s 0
f 31/25/23 30/28/23 29/27/23
f 32/26/23 30/28/23 31/25/23
s 1
f 33/23/24 32/26/25 31/25/25
f 34/24/24 32/26/25 33/23/24
f 35/21/26 34/24/24 33/23/24
f 36/22/26 34/24/24 35/21/26
s 0
f 37/17/27 36/22/27 35/21/27
f 38/20/27 36/22/27 37/17/27
s 1
f 39/19/28 38/20/28 37/17/28
f 40/18/28 38/20/28 39/19/28
f 43/29/29 42/30/30 41/31/31
f 44/32/32 42/30/30 43/29/29
f 45/14/33 44/32/32 43/29/29
f 46/33/34 44/32/32 45/14/33
f 47/12/35 46/33/34 45/14/33
f 48/34/36 46/33/34 47/12/35
f 49/10/37 48/34/36 47/12/35
f 50/35/38 48/34/36 49/10/37
f 51/8/39 50/35/38 49/10/37
f 52/4/40 50/35/38 51/8/39
f 55/36/41 54/37/42 53/38/43
f 56/36/44 54/37/42 55/36/41
f 57/38/45 56/36/44 55/36/41
f 58/39/46 56/36/44 57/38/45
f 53/38/43 58/39/46 57/38/45
f 59/39/47 58/39/46 53/38/43
f 54/37/42 59/39/47 53/38/43
f 60/37/48 59/39/47 54/37/42
f 56/36/44 60/37/48 54/37/42
f 58/39/46 60/37/48 56/36/44
f 63/40/49 62/41/50 61/42/51
f 64/40/52 62/41/50 63/40/49
f 65/42/53 64/40/52 63/40/49
f 66/43/54 64/40/52 65/42/53
f 61/42/51 66/43/54 65/42/53
f 67/43/55 66/43/54 61/42/51
f 62/41/50 67/43/55 61/42/51
f 68/41/56 67/43/55 62/41/50
f 64/40/52 68/41/56 62/41/50
f 66/43/54 68/41/56 64/40/52
f 4/4/4 69/44/57 2/2/2
f 70/45/58 69/44/57 4/4/4
f 71/35/59 70/45/58 4/4/4
f 72/34/60 70/45/58 71/35/59
f 10/10/10 72/34/60 71/35/59
f 73/33/61 72/34/60 10/10/10
f 12/12/12 73/33/61 10/10/10
f 14/14/14 73/33/61 12/12/12
s 0
f 76/46/62 75/47/62 74/48/62
f 77/49/63 75/47/63 76/46/63
f 78/50/64 77/49/64 76/46/64
f 79/51/65 77/49/65 78/50/65
f 80/52/66 79/51/66 78/50/66
f 81/53/67 79/51/67 80/52/67
f 82/54/68 81/53/68 80/52/68
f 83/55/69 81/53/69 82/54/69
s 1
f 86/56/70 85/57/71 84/56/72
f 87/57/73 85/57/71 86/56/70
f 88/58/74 87/57/73 86/56/70
f 89/59/75 87/57/73 88/58/74
f 90/58/76 89/59/75 88/58/74
f 91/59/77 89/59/75 90/58/76
f 84/56/72 91/59/77 90/58/76
f 85/57/71 91/59/77 84/56/72
f 92/45/78 50/35/38 52/4/40
f 48/34/36 50/35/38 92/45/78
f 93/60/79 48/34/36 92/45/78
f 46/33/34 48/34/36 93/60/79
f 94/61/80 46/33/34 93/60/79
f 44/32/32 46/33/34 94/61/80
f 42/30/30 44/32/32 94/61/80
f 97/62/81 96/63/82 95/64/83
f 98/65/84 96/63/82 97/62/81
f 99/66/85 98/65/84 97/62/81
f 100/67/86 98/65/84 99/66/85
f 101/68/87 100/67/86 99/66/85
f 102/69/88 100/67/86 101/68/87
s 0
f 105/70/89 104/71/89 103/72/89
f 106/73/90 104/71/90 105/70/90
f 107/74/91 106/73/91 105/70/91
f 108/75/92 106/73/92 107/74/92
f 109/76/93 108/75/93 107/74/93
f 110/77/94 108/75/94 109/76/94
f 111/78/95 108/75/95 110/77/95
f 112/79/96 108/75/96 111/78/96
f 113/80/97 112/79/97 111/78/97
f 114/81/98 112/79/98 113/80/98
f 115/82/99 114/81/99 113/80/99
f 116/83/100 114/81/100 115/82/100
s 1
f 119/84/101 118/85/102 117/84/103
f 120/86/104 118/85/102 119/84/101
f 121/87/77 120/86/104 119/84/101
f 122/88/105 120/86/104 121/87/77
f 123/87/106 122/88/105 121/87/77
f 124/89/107 122/88/105 123/87/106
f 52/4/40 5/5/5 3/1/1
f 125/6/108 5/5/5 52/4/40
f 51/8/39 125/6/108 52/4/40
f 7/7/7 125/6/108 51/8/39
f 9/9/9 7/7/7 51/8/39
f 128/30/109 127/29/110 126/31/111
f 129/32/112 127/29/110 128/30/109
f 130/61/113 129/32/112 128/30/109
f 73/33/61 129/32/112 130/61/113
f 72/34/60 73/33/61 130/61/113
s 0
f 77/49/114 131/90/114 75/47/114
f 132/91/115 131/90/115 77/49/115
f 79/51/116 132/91/116 77/49/116
f 133/92/117 132/91/117 79/51/117
f 81/53/118 133/92/118 79/51/118
f 126/93/119 95/94/119 128/95/119
f 134/96/119 95/94/119 126/93/119
f 135/93/119 134/96/119 126/93/119
f 41/93/119 134/96/119 135/93/119
s 1
f 135/97/120 43/98/29 41/99/31
f 136/100/121 43/98/29 135/97/120
f 126/101/111 136/100/121 135/97/120
f 127/102/110 136/100/121 126/101/111
f 137/2/122 3/1/1 1/3/3
f 52/4/40 3/1/1 137/2/122
f 138/44/123 52/4/40 137/2/122
f 92/45/78 52/4/40 138/44/123
f 140/103/124 101/104/87 139/105/125
f 102/106/88 101/104/87 140/103/124
f 141/107/126 102/106/88 140/103/124
f 142/108/127 102/106/88 141/107/126
f 136/100/121 143/109/128 43/98/29
f 16/110/16 143/109/128 136/100/121
f 127/102/110 16/110/16 136/100/121
f 144/111/129 16/110/16 127/102/110
s 0
f 69/112/119 142/113/119 141/114/119
f 145/115/119 142/113/119 69/112/119
f 70/115/119 145/115/119 69/112/119
f 146/116/119 145/115/119 70/115/119
f 106/73/130 147/117/130 104/71/130
f 148/118/131 147/117/131 106/73/131
f 108/75/132 148/118/132 106/73/132
f 112/79/133 148/118/133 108/75/133
s 1
f 151/119/134 150/120/135 149/121/136
f 152/67/137 150/120/135 151/119/134
f 140/69/124 152/67/137 151/119/134
f 139/68/125 152/67/137 140/69/124
f 143/122/128 45/14/33 43/29/29
f 15/15/15 45/14/33 143/122/128
f 16/16/16 15/15/15 143/122/128
f 14/14/14 129/32/112 73/33/61
f 127/29/110 129/32/112 14/14/14
f 144/122/129 127/29/110 14/14/14
f 8/8/8 4/4/4 6/6/6
f 71/35/59 4/4/4 8/8/8
f 10/10/10 71/35/59 8/8/8
f 155/66/138 154/62/139 153/62/140
f 156/66/141 154/62/139 155/66/138
f 139/68/125 156/66/141 155/66/138
f 157/119/142 102/69/88 142/121/127
f 100/67/86 102/69/88 157/119/142
f 98/65/84 100/67/86 157/119/142
f 15/15/15 47/12/35 45/14/33
f 13/13/13 47/12/35 15/15/15
f 13/13/13 49/10/37 47/12/35
f 11/11/11 49/10/37 13/13/13
s 0
f 94/123/119 158/124/119 42/125/119
f 159/126/119 158/124/119 94/123/119
s 1
f 11/11/11 51/8/39 49/10/37
f 9/9/9 51/8/39 11/11/11
s 0
f 162/127/143 161/128/143 160/129/143
f 163/130/143 161/128/143 162/127/143
f 160/129/144 165/131/144 164/132/144
f 161/128/144 165/131/144 160/129/144
s 1
f 156/133/141 166/134/145 154/135/139
f 167/136/146 166/134/145 156/133/141
f 170/135/147 169/136/148 168/133/149
f 171/134/150 169/136/148 170/135/147
s 0
f 168/66/151 167/137/151 156/66/151
f 169/137/151 167/137/151 168/66/151
s 1
f 159/63/152 153/62/140 158/64/153
f 172/65/154 153/62/140 159/63/152
s 0
f 166/138/155 174/139/155 173/140/155
f 171/141/155 174/139/155 166/138/155
f 93/116/119 150/142/119 172/143/119
f 92/115/119 150/142/119 93/116/119
f 92/115/119 149/113/119 150/142/119
f 138/112/119 149/113/119 92/115/119
f 138/112/119 141/114/119 149/113/119
f 69/112/119 141/114/119 138/112/119
s 1
f 99/66/85 168/66/149 101/68/87
f 97/62/81 168/66/149 99/66/85
s 0
f 169/144/156 166/145/156 167/146/156
f 171/147/156 166/145/156 169/144/156
f 175/148/157 174/149/157 134/148/157
f 173/149/157 174/149/157 175/148/157
f 158/94/119 41/93/119 42/95/119
f 175/96/119 41/93/119 158/94/119
f 2/150/119 137/151/119 1/152/119
f 69/153/119 137/151/119 2/150/119
s 1
f 156/66/141 101/68/87 168/66/149
f 139/68/125 101/68/87 156/66/141
s 0
f 114/81/158 148/118/158 112/79/158
f 116/83/159 148/118/159 114/81/159
f 154/154/160 158/155/160 153/156/160
f 175/157/160 158/155/160 154/154/160
f 176/158/161 81/53/161 83/55/161
f 133/92/162 81/53/162 176/158/162
f 97/62/160 134/64/160 170/62/160
f 95/64/160 134/64/160 97/62/160
s 1
f 175/159/163 166/134/145 173/160/164
f 154/135/139 166/134/145 175/159/163
f 145/120/165 157/119/142 142/121/127
f 98/65/84 157/119/142 145/120/165
f 174/160/166 170/135/147 134/159/167
f 171/134/150 170/135/147 174/160/166
f 155/66/138 152/67/137 139/68/125
f 153/62/140 152/67/137 155/66/138
f 152/67/137 172/65/154 150/120/135
f 153/62/140 172/65/154 152/67/137
s 0
f 172/161/119 94/123/119 93/162/119
f 159/126/119 94/123/119 172/161/119
s 1
f 89/59/75 85/57/71 87/57/73
f 91/59/77 85/57/71 89/59/75
f 146/60/168 72/34/60 130/61/113
f 70/45/58 72/34/60 146/60/168
f 122/88/105 118/85/102 120/86/104
f 124/89/107 118/85/102 122/88/105
f 123/87/106 119/84/101 117/84/103
f 121/87/77 119/84/101 123/87/106
s 0
f 146/163/119 96/164/119 98/165/119
f 130/166/119 96/164/119 146/163/119
f 130/166/119 95/167/119 96/164/119
f 128/168/119 95/167/119 130/166/119
f 162/169/169 177/170/169 163/130/169
f 178/171/170 164/172/170 165/131/170
s 1
f 5/5/5 125/6/108 7/7/7
f 16/16/16 144/122/129 14/14/14
f 97/62/81 170/62/147 168/66/149
s 0
f 98/143/119 145/115/119 146/116/119
f 147/117/171 148/118/171 116/83/171
f 69/153/119 138/173/119 137/151/119
f 41/93/119 175/96/119 134/96/119
s 1
f 140/103/124 149/174/136 141/107/126
f 151/119/134 149/121/136 140/69/124
f 53/38/43 57/38/45 55/36/41
f 60/37/48 58/39/46 59/39/47
f 61/42/51 65/42/53 63/40/49
f 68/41/56 66/43/54 67/43/55
