# Blender 4.1.1
# www.blender.org
mtllib polygon0.003.mtl
o polygon0.001
v 1954.454956 -3735.424316 -2917.678467
v 2012.858032 -3821.271729 -2967.319092
v 1946.776001 -3749.508545 -3308.656738
v 2021.967041 -3879.118408 -3317.082275
v 1951.851074 -3740.542480 -3648.952637
v 2038.246094 -3876.827637 -3654.912354
v 1961.962036 -3720.081299 -3919.624756
v 1996.287109 -3879.546631 -3978.246338
v 1960.347046 -3733.470459 -4297.726562
v 2000.016968 -3869.411621 -4285.344727
v 1975.515137 -3691.138672 -4591.956543
v 2008.250000 -3861.135742 -4630.196777
v 1716.477051 -3738.856689 -3313.568604
v 1831.866089 -3755.366699 -3287.227539
v 1720.187134 -3750.561523 -3597.184570
v 1835.963135 -3729.115723 -3622.294678
v 1724.357910 -3746.458496 -3938.785645
v 1833.614014 -3714.121582 -3959.755615
v 1694.112915 -3701.812744 -4276.707520
v 1830.506104 -3731.568604 -4283.525879
v 1675.145996 -3691.138672 -4591.956543
v 1825.329956 -3729.242676 -4624.557617
v 1664.227905 -3971.723389 -3265.865723
v 1663.699951 -3869.809326 -3290.003418
v 1656.194946 -3968.708496 -3539.883789
v 1639.472046 -3850.166504 -3634.211670
v 1631.366943 -3977.369385 -3875.916504
v 1682.023071 -3870.288574 -3931.521729
v 1640.239990 -3968.863525 -4246.897461
v 1644.559082 -3859.001709 -4288.358887
v 1582.327026 -3974.644775 -4604.077148
v 1642.409790 -3861.135742 -4630.196777
v 1951.443970 -4057.197510 -2946.452637
v 1827.963135 -4090.036621 -2956.422607
v 1940.856934 -4076.425781 -3234.608398
v 1837.158081 -4095.452637 -3258.633545
v 1930.803101 -4053.110352 -3554.512451
v 1826.434937 -4097.739746 -3603.421631
v 1936.965088 -4077.126709 -3925.320557
v 1831.635132 -4100.819824 -3898.927490
v 1843.611938 -4136.090820 -4204.388184
v 2003.351074 -3956.014404 -3573.174316
v 2010.374146 -3969.453857 -3881.643799
v 2069.431152 -3958.273438 -4214.206055
v 1953.874146 -4078.472656 -4242.674316
v 2068.333984 -3974.644775 -4604.077148
v 1938.381104 -4074.544434 -4639.318848
v 1709.591064 -4051.313477 -2933.812500
v 1616.589966 -3921.264404 -3010.966553
v 1764.054932 -4085.575684 -3241.036621
v 1747.664917 -4098.942871 -3550.214355
v 1732.054932 -4077.326660 -3926.742432
v 1722.566040 -4082.417725 -4270.804688
v 1712.279053 -4074.544434 -4639.318848
v 1825.329956 -4149.861328 -4611.567383
v 1636.000000 -3816.616699 -2952.450684
v 1698.434082 -3715.372559 -2954.049561
v 2028.419067 -3960.889404 -2915.783447
v 2010.999146 -3955.799316 -3262.313477
v 1814.837036 -3690.546631 -2980.228760
v 2360.689209 -4341.918457 -2117.615723
v 2371.229980 -4382.682617 -2121.551514
v 2377.735107 -4326.661621 -2202.684326
v 2385.597168 -4369.320312 -2210.427734
v 2368.828125 -4334.341797 -2307.196533
v 2378.506104 -4376.105469 -2299.304688
v 2346.780029 -4406.905762 -2381.418701
v 2296.085205 -4451.396484 -2395.660645
v 2272.121094 -4423.332520 -2412.504639
v 2239.572998 -4503.750488 -2381.304688
v 2203.030029 -4487.409668 -2397.050537
v 2168.202148 -4519.780273 -2309.398682
v 2207.861084 -4532.772461 -2299.131348
v 2200.317139 -4539.731934 -2210.341553
v 2160.856201 -4529.590332 -2204.008545
v 2180.281982 -4517.412598 -2118.841553
v 2333.343994 -4367.034668 -2395.588379
v 2214.232178 -4526.545898 -2121.551514
v 1847.508057 -4204.395508 -2100.856689
v 1982.645996 -4192.261719 -2113.766357
v 1973.253052 -4169.488770 -2112.367676
v 2103.035156 -4077.663330 -2113.766602
v 2085.520996 -4061.995361 -2112.367676
v 2158.375000 -3905.252441 -2109.951660
v 2133.307129 -3901.152588 -2107.409424
v 2104.716064 -3751.056641 -2107.522461
v 2086.807129 -3759.159424 -2105.814453
v 2021.456055 -3667.275391 -2102.006348
v 2010.513062 -3683.065674 -2098.774414
v 1860.862915 -3616.769775 -2107.651367
v 1859.646973 -3634.277588 -2105.814453
v 1697.039795 -3663.964355 -2107.469238
v 1689.801025 -3648.699707 -2109.182373
v 1578.406006 -3740.587402 -2109.765381
v 1593.842896 -3747.903320 -2107.469238
v 1546.081055 -3896.399414 -2109.255615
v 1564.463989 -3896.713379 -2107.469482
v 1589.442017 -4069.275391 -2104.016602
v 1607.357910 -4060.005371 -2100.940674
v 1704.804932 -4186.617676 -2101.704346
v 1716.266968 -4168.554688 -2098.774658
v 2251.979980 -3801.418457 -2111.444336
v 2230.124023 -3694.310059 -2108.289307
v 2209.687988 -3703.557373 -2109.335693
v 2130.314209 -3676.327393 -2104.769287
v 2114.412109 -3684.094727 -2105.835693
v 2061.228027 -3609.891602 -2107.271484
v 2050.671143 -3625.123779 -2106.901367
v 1984.754150 -3557.853516 -2108.408691
v 1484.533081 -3825.076660 -2112.894287
v 1410.638062 -3894.089355 -2110.712646
v 1431.569946 -3894.446533 -2111.670654
v 1442.314087 -4033.953369 -2109.685791
v 1460.206055 -4026.663330 -2110.449707
v 1516.549927 -4106.991699 -2109.437500
v 1533.204956 -4098.373535 -2109.278564
v 1560.857056 -4209.463867 -2106.663574
v 1993.917114 -3540.161621 -2107.762695
v 1868.643066 -3504.718506 -2109.057617
v 1867.010010 -3528.233398 -2109.868652
v 1738.364014 -3553.366455 -2107.273682
v 1746.554077 -3570.951660 -2108.616699
v 1647.231079 -3558.941650 -2111.030518
v 1639.124023 -3541.848389 -2109.983643
v 1534.351074 -3620.260254 -2109.984619
v 1550.431030 -3632.250244 -2111.075684
v 1519.333130 -3712.589355 -2111.798340
v 1535.337036 -3720.174316 -2112.267578
v 1501.088989 -3823.674316 -2113.274414
v 1546.037109 -4223.467773 -2105.917725
v 1652.656982 -4268.799805 -2107.271729
v 1663.184937 -4252.206543 -2107.263672
v 1738.345093 -4339.237793 -2110.960693
v 2137.192139 -4364.211914 -2115.513672
v 2120.413086 -4381.002930 -2114.193604
v 2155.937012 -4446.600586 -2115.288574
v 2139.385010 -4461.900391 -2113.916504
v 2193.843994 -4504.218750 -2120.148682
v 2180.281982 -4517.411621 -2118.841553
v 1848.184082 -4227.010254 -2103.926514
v 2051.186035 -4358.432617 -2112.367676
v 2050.568115 -4341.874512 -2113.766357
v 1957.416016 -4341.161621 -2113.339355
v 1951.849976 -4323.731934 -2113.957520
v 1852.250000 -4362.954590 -2113.976562
v 2205.666992 -3912.988525 -2112.108643
v 2223.419189 -3915.893311 -2111.519531
v 2269.774170 -3797.468506 -2110.446289
v 2351.769043 -4350.594727 -2119.075684
v 2360.688232 -4341.918457 -2117.615723
v 2315.129883 -4299.436523 -2115.031494
v 2329.809082 -4285.866699 -2113.609375
v 2250.822998 -4250.500488 -2113.580566
v 1852.951050 -4386.409668 -2114.311523
v 1732.588989 -4359.220215 -2110.791504
v 2225.986084 -4187.647461 -2112.367676
v 2272.153076 -4044.474365 -2112.494629
v 2208.487061 -4182.614746 -2113.766357
v 2251.843018 -4036.861328 -2113.601562
v 2237.164062 -4264.168457 -2115.043701
v 2371.503174 -4382.012695 -2122.950684
v 2213.812012 -4526.943848 -2122.950684
vn -0.5001 -0.8654 0.0300
vn -0.9356 -0.3509 0.0399
vn -0.5921 -0.8048 0.0406
vn -0.9862 -0.1658 0.0024
vn -0.5330 -0.8438 -0.0628
vn -0.9958 -0.0889 -0.0230
vn -0.6111 -0.7914 0.0194
vn -0.9613 -0.2750 -0.0166
vn -0.6212 -0.7808 -0.0677
vn -0.8984 -0.4387 -0.0211
vn -0.5431 -0.8376 -0.0586
vn -0.9430 -0.3315 -0.0305
vn 0.5163 -0.8555 -0.0386
vn -0.0022 -0.9975 0.0703
vn 0.4937 -0.8676 0.0600
vn 0.0504 -0.9976 -0.0467
vn 0.6680 -0.7424 -0.0524
vn 0.0823 -0.9959 -0.0362
vn 0.5184 -0.8525 -0.0667
vn -0.0978 -0.9952 -0.0007
vn 0.5402 -0.8412 -0.0212
vn -0.0020 -1.0000 -0.0068
vn 0.9400 0.3365 -0.0567
vn 0.9784 -0.2006 0.0494
vn 0.9239 0.3817 0.0273
vn 0.9523 -0.3038 -0.0290
vn 0.9747 0.2189 0.0462
vn 0.9382 -0.3438 0.0396
vn 0.9593 0.2640 -0.1005
vn 0.9725 -0.2098 -0.1016
vn 0.9758 0.2149 -0.0403
vn 0.9427 -0.3335 -0.0038
vn -0.5609 0.8272 0.0344
vn 0.0344 0.9982 -0.0493
vn -0.5800 0.8139 -0.0330
vn -0.0526 0.9986 -0.0016
vn -0.6165 0.7873 -0.0086
vn -0.1670 0.9860 -0.0014
vn -0.5599 0.8248 -0.0792
vn 0.0061 0.9985 -0.0545
vn -0.0339 0.9986 -0.0406
vn -0.9546 0.2968 -0.0254
vn -0.8786 0.4768 -0.0253
vn -0.9979 0.0434 -0.0478
vn -0.5989 0.8006 -0.0194
vn -0.9813 0.1926 -0.0014
vn -0.5816 0.8129 0.0308
vn 0.4639 0.8855 -0.0266
vn 0.9776 0.1823 0.1052
vn 0.5858 0.8104 0.0135
vn 0.4410 0.8973 -0.0180
vn 0.5118 0.8589 -0.0158
vn 0.6208 0.7821 -0.0537
vn 0.5827 0.8127 0.0011
vn 0.0106 0.9999 0.0079
vn 0.5980 -0.7834 0.1691
vn 0.8953 -0.4229 0.1401
vn -0.9479 0.3179 0.0216
vn -0.9587 0.2828 0.0287
vn -0.0077 -0.9893 0.1458
vn -0.9811 -0.1832 -0.0618
vn -0.9558 -0.2005 -0.2151
vn -0.9474 -0.2228 -0.2298
vn -0.9837 -0.1775 -0.0294
vn -0.9508 -0.1741 0.2563
vn -0.9529 -0.1739 0.2483
vn -0.6925 0.0274 0.7209
vn -0.2948 0.3003 0.9072
vn -0.2846 0.3029 0.9095
vn 0.0069 0.6996 0.7145
vn 0.0262 0.7234 0.6899
vn 0.2403 0.9345 0.2625
vn 0.2453 0.9391 0.2409
vn 0.2503 0.9677 -0.0287
vn 0.2413 0.9692 -0.0484
vn 0.2354 0.9548 -0.1814
vn -0.7274 -0.0012 0.6863
vn 0.2422 0.9535 -0.1796
vn -0.0676 0.0333 -0.9972
vn -0.0724 0.0385 -0.9966
vn -0.0400 0.1282 -0.9909
vn -0.0436 0.0405 -0.9982
vn -0.0460 0.0406 -0.9981
vn -0.0947 0.0231 -0.9952
vn -0.0979 0.0150 -0.9951
vn -0.0876 -0.0187 -0.9960
vn -0.0906 -0.0216 -0.9956
vn -0.0963 -0.1277 -0.9871
vn -0.0947 -0.1332 -0.9866
vn 0.0193 -0.1089 -0.9939
vn 0.0210 -0.1058 -0.9942
vn 0.0464 -0.0899 -0.9949
vn 0.1112 -0.0709 -0.9913
vn 0.1157 -0.0670 -0.9910
vn 0.0478 -0.0908 -0.9947
vn 0.0979 -0.0131 -0.9951
vn 0.0987 -0.0120 -0.9950
vn 0.1412 0.0494 -0.9888
vn 0.1423 0.0521 -0.9885
vn 0.0685 0.1172 -0.9907
vn 0.0662 0.1187 -0.9907
vn 0.0071 0.0976 -0.9952
vn 0.0227 0.0652 -0.9976
vn 0.0458 0.0388 -0.9982
vn 0.0143 0.1063 -0.9942
vn 0.0360 0.0503 -0.9981
vn 0.0032 -0.0174 -0.9998
vn -0.0024 -0.0226 -0.9997
vn 0.0227 0.0215 -0.9995
vn -0.0453 0.0014 -0.9990
vn -0.0458 -0.0050 -0.9989
vn -0.0454 0.0171 -0.9988
vn -0.0334 -0.0243 -0.9991
vn -0.0303 -0.0241 -0.9993
vn 0.0118 -0.0135 -0.9998
vn 0.0156 -0.0118 -0.9998
vn -0.0185 -0.0291 -0.9994
vn -0.0055 0.0356 -0.9994
vn -0.0017 0.0346 -0.9994
vn 0.0240 0.0245 -0.9994
vn 0.0078 0.0778 -0.9969
vn -0.0065 0.0731 -0.9973
vn 0.0044 0.0639 -0.9979
vn -0.0396 0.0354 -0.9986
vn -0.0401 0.0371 -0.9985
vn -0.0040 0.0593 -0.9982
vn -0.0230 0.0177 -0.9996
vn -0.0213 0.0170 -0.9996
vn -0.0242 0.0173 -0.9996
vn -0.0211 -0.0309 -0.9993
vn -0.0171 0.0092 -0.9998
vn -0.0157 0.0104 -0.9998
vn -0.0280 0.0182 -0.9994
vn -0.0789 -0.0036 -0.9969
vn -0.0485 -0.0333 -0.9983
vn -0.0467 -0.0318 -0.9984
vn -0.0870 0.0033 -0.9962
vn -0.1046 0.0118 -0.9944
vn -0.1058 0.0102 -0.9943
vn -0.0440 0.1331 -0.9901
vn 0.0024 -0.0342 -0.9994
vn -0.0238 -0.0791 -0.9966
vn -0.0340 -0.0854 -0.9958
vn 0.0053 -0.0338 -0.9994
vn -0.0107 0.0112 -0.9999
vn 0.0320 -0.0073 -0.9995
vn 0.0360 0.0115 -0.9993
vn 0.0344 0.0073 -0.9994
vn 0.0591 -0.0141 -0.9982
vn 0.0473 0.0391 -0.9981
vn 0.0280 0.0781 -0.9966
vn 0.0455 0.1092 -0.9930
vn 0.0507 0.1148 -0.9921
vn 0.0255 0.0769 -0.9967
vn 0.0481 0.0584 -0.9971
vn -0.0123 0.0139 -0.9998
vn -0.0266 0.0010 -0.9996
vn 0.0793 0.0039 -0.9968
vn 0.0565 0.0019 -0.9984
vn 0.0829 0.0177 -0.9964
vn 0.0588 0.0142 -0.9982
vn -0.0244 0.0173 -0.9996
vn -0.0229 -0.0001 -0.9997
vn -0.0404 0.0032 -0.9992
vn -0.0266 -0.0008 -0.9996
vn 0.0501 0.0596 -0.9970
vn 0.0269 0.1390 -0.9899
vn -0.1158 0.0206 -0.9931
vt 0.000000 0.000000
vt 1.000000 0.000000
vt 0.000000 0.500000
vt 1.000000 0.500000
vt 0.000000 1.000000
vt 1.000000 1.000000
vt -0.395508 0.000000
vt -0.426514 1.000000
vt -0.487549 0.000000
vt -0.339600 1.000000
vt -0.290772 0.000000
vt -0.236084 1.000000
vt -0.166382 1.000000
vt 0.155884 1.000000
vt 0.190430 0.000000
vt 0.290527 0.000000
vt 0.235596 1.000000
vt 0.319580 1.000000
vt 0.369995 0.000000
vt 0.446411 0.000000
vt -0.179443 0.000000
vt 0.387207 1.000000
vt 1.459473 0.000000
vt 1.459473 1.000000
vt 1.559937 0.000000
vt 1.342285 1.000000
vt 1.342285 0.000000
vt 1.224487 1.000000
vt 1.224487 0.000000
vt 1.125977 1.000000
vt 1.125977 0.000000
vt 1.057129 1.000000
vt 1.057129 0.000000
vt 0.955566 1.000000
vt 0.955566 0.000000
vt 0.850464 0.000000
vt 0.766846 0.000000
vt 0.766846 1.000000
vt 0.850464 1.000000
vt 0.668213 1.000000
vt 0.668213 0.000000
vt 0.543945 1.000000
vt 0.543945 0.000000
vt 0.424439 1.000000
vt 0.424439 0.000000
vt -0.739380 1.000000
vt -0.739380 0.000000
vt -0.690308 1.000000
vt -0.775146 0.000000
vt -0.775146 1.000000
vt -0.824219 0.000000
vt -0.824219 1.000000
vt -0.868896 1.000000
vt -1.237305 1.000000
vt -1.237305 0.000000
vt -1.195313 0.000000
vt -1.305908 0.000000
vt -1.305908 1.000000
vt -1.355347 0.000000
vt -1.355347 1.000000
vt -1.415039 1.000000
vt -0.929565 1.000000
vt -0.929565 0.000000
vt -0.868896 0.000000
vt -0.994385 0.000000
vt -0.994385 1.000000
vt -1.036499 1.000000
vt -1.095947 1.000000
vt -1.095947 0.000000
vt -1.036499 0.000000
vt -1.134155 0.000000
vt -1.134155 1.000000
vt -1.195313 1.000000
vt -1.415039 0.000000
vt -1.473511 0.000000
vt -1.473511 1.000000
vt -1.528564 1.000000
vt -0.421631 1.000000
vt -0.464600 0.000000
vt -0.464600 1.000000
vt -0.421631 0.000000
vt -0.380493 1.000000
vt -0.380493 0.000000
vt 1.665649 1.000000
vt 1.665649 0.000000
vt 1.559937 1.000000
vt -1.638916 0.000000
vt -1.678467 1.000000
vt -1.678467 0.000000
vt -1.638916 1.000000
vt -1.586304 1.000000
vt -0.638428 0.000000
vt -0.638428 1.000000
vt -0.690308 0.000000
vt -1.739868 1.000000
vt -1.768799 0.000000
vt -1.768799 1.000000
vt -1.739868 0.000000
vt -1.709717 0.000000
vt -1.586304 0.000000
vt -1.528564 0.000000
vt -0.508545 1.000000
vt -0.576782 0.000000
vt -0.508545 0.000000
vt -0.576782 1.000000
vt -1.709717 1.000000
vt -1.791382 1.000000
vt -0.360107 1.000000
s 1
usemtl mt_mountain_in_blend
f 3/1/1 2/2/2 1/1/3
f 4/2/4 2/2/2 3/1/1
f 5/1/5 4/2/4 3/1/1
f 6/2/6 4/2/4 5/1/5
f 7/1/7 6/2/6 5/1/5
f 8/2/8 6/2/6 7/1/7
f 9/3/9 8/2/8 7/1/7
f 10/4/10 8/2/8 9/3/9
f 11/5/11 10/4/10 9/3/9
f 12/6/12 10/4/10 11/5/11
f 15/1/13 14/2/14 13/1/15
f 16/2/16 14/2/14 15/1/13
f 17/1/17 16/2/16 15/1/13
f 18/2/18 16/2/16 17/1/17
f 19/3/19 18/2/18 17/1/17
f 20/4/20 18/2/18 19/3/19
f 21/5/21 20/4/20 19/3/19
f 22/6/22 20/4/20 21/5/21
f 25/1/23 24/2/24 23/1/25
f 26/2/26 24/2/24 25/1/23
f 27/1/27 26/2/26 25/1/23
f 28/2/28 26/2/26 27/1/27
f 29/3/29 28/2/28 27/1/27
f 30/4/30 28/2/28 29/3/29
f 31/5/31 30/4/30 29/3/29
f 32/6/32 30/4/30 31/5/31
f 35/1/33 34/2/34 33/1/35
f 36/2/36 34/2/34 35/1/33
f 37/1/37 36/2/36 35/1/33
f 38/2/38 36/2/36 37/1/37
f 39/1/39 38/2/38 37/1/37
f 40/2/40 38/2/38 39/1/39
f 41/4/41 40/2/40 39/1/39
f 43/1/42 37/2/37 42/1/43
f 39/2/39 37/2/37 43/1/42
f 44/3/44 39/2/39 43/1/42
f 45/4/45 39/2/39 44/3/44
f 46/5/46 45/4/45 44/3/44
f 47/6/47 45/4/45 46/5/46
f 50/1/48 49/2/49 48/1/50
f 23/2/25 49/2/49 50/1/48
f 51/1/51 23/2/25 50/1/48
f 25/2/23 23/2/25 51/1/51
f 27/2/27 25/2/23 51/1/51
f 18/1/18 7/2/7 16/1/16
f 9/4/9 7/2/7 18/1/18
f 20/3/20 9/4/9 18/1/18
f 11/6/11 9/4/9 20/3/20
f 22/5/22 11/6/11 20/3/20
f 52/1/52 27/2/27 51/1/51
f 29/4/29 27/2/27 52/1/52
f 53/3/53 29/4/29 52/1/52
f 31/6/31 29/4/29 53/3/53
f 54/5/54 31/6/31 53/3/53
f 26/1/26 15/2/13 24/1/24
f 17/2/17 15/2/13 26/1/26
f 28/1/28 17/2/17 26/1/26
f 30/3/30 17/2/17 28/1/28
f 41/3/41 52/2/52 40/1/40
f 53/4/53 52/2/52 41/3/41
f 55/5/55 53/4/53 41/3/41
f 54/6/54 53/4/53 55/5/55
f 24/1/24 57/2/56 56/1/57
f 13/2/15 57/2/56 24/1/24
f 15/2/13 13/2/15 24/1/24
f 16/1/16 3/2/1 14/1/14
f 5/2/5 3/2/1 16/1/16
f 7/2/7 5/2/5 16/1/16
f 45/3/45 41/4/41 39/1/39
f 55/6/55 41/4/41 45/3/45
f 47/5/47 55/6/55 45/3/45
f 30/3/30 19/4/19 17/2/17
f 21/6/21 19/4/19 30/3/30
f 32/5/32 21/6/21 30/3/30
f 2/1/2 59/2/58 58/2/59
f 4/1/4 59/2/58 2/1/2
f 58/1/59 35/2/33 33/2/35
f 59/1/58 35/2/33 58/1/59
f 60/1/60 3/2/1 1/2/3
f 14/1/14 3/2/1 60/1/60
f 57/1/56 14/2/14 60/2/60
f 13/1/15 14/2/14 57/1/56
f 34/1/34 50/2/48 48/2/50
f 36/1/36 50/2/48 34/1/34
f 49/1/49 24/2/24 56/2/57
f 23/1/25 24/2/24 49/1/49
f 4/1/4 42/2/43 59/2/58
f 6/1/6 42/2/43 4/1/4
f 59/1/58 37/2/37 35/2/33
f 42/1/43 37/2/37 59/1/58
f 36/1/36 51/2/51 50/2/48
f 38/1/38 51/2/51 36/1/36
f 6/1/6 43/2/42 42/2/43
f 8/1/8 43/2/42 6/1/6
f 38/1/38 52/2/52 51/2/51
f 40/1/40 52/2/52 38/1/38
f 8/1/8 44/4/44 43/2/42
f 10/3/10 44/4/44 8/1/8
f 10/3/10 46/6/46 44/4/44
f 12/5/12 46/6/46 10/3/10
f 63/7/61 62/8/62 61/9/63
f 64/10/64 62/8/62 63/7/61
f 65/11/65 64/10/64 63/7/61
f 66/12/66 64/10/64 65/11/65
f 67/13/67 66/12/66 65/11/65
f 69/1/68 68/5/69 67/13/67
f 70/14/70 68/5/69 69/1/68
f 71/15/71 70/14/70 69/1/68
f 72/16/72 70/14/70 71/15/71
f 72/16/72 73/17/73 70/14/70
f 74/18/74 73/17/73 72/16/72
f 75/19/75 74/18/74 72/16/72
f 76/20/76 74/18/74 75/19/75
f 77/21/77 67/13/67 65/11/65
f 69/1/68 67/13/67 77/21/77
f 78/22/78 74/18/74 76/20/76
f 81/23/79 80/24/80 79/25/81
f 82/26/82 80/24/80 81/23/79
f 83/27/83 82/26/82 81/23/79
f 84/28/84 82/26/82 83/27/83
f 85/29/85 84/28/84 83/27/83
f 86/30/86 84/28/84 85/29/85
f 87/31/87 86/30/86 85/29/85
f 88/32/88 86/30/86 87/31/87
f 89/33/89 88/32/88 87/31/87
f 90/34/90 88/32/88 89/33/89
f 91/35/91 90/34/90 89/33/89
f 92/36/92 90/34/90 91/35/91
f 95/37/93 94/38/94 93/39/95
f 96/40/96 94/38/94 95/37/93
f 97/41/97 96/40/96 95/37/93
f 98/42/98 96/40/96 97/41/97
f 99/43/99 98/42/98 97/41/97
f 100/44/100 98/42/98 99/43/99
f 101/45/101 100/44/100 99/43/99
f 104/46/102 103/47/103 102/48/104
f 105/49/105 103/47/103 104/46/102
f 106/50/106 105/49/105 104/46/102
f 107/51/107 105/49/105 106/50/106
f 108/52/108 107/51/107 106/50/106
f 109/53/109 107/51/107 108/52/108
f 112/54/110 111/55/111 110/56/112
f 113/57/113 111/55/111 112/54/110
f 114/58/114 113/57/113 112/54/110
f 115/59/115 113/57/113 114/58/114
f 116/60/116 115/59/115 114/58/114
f 117/61/117 115/59/115 116/60/116
f 120/62/118 119/63/119 118/64/120
f 121/65/121 119/63/119 120/62/118
f 122/66/122 121/65/121 120/62/118
f 123/67/123 121/65/121 122/66/122
f 126/68/124 125/69/125 124/70/126
f 127/71/127 125/69/125 126/68/124
f 128/72/128 127/71/127 126/68/124
f 129/73/129 127/71/127 128/72/128
f 117/61/117 130/74/130 115/59/115
f 131/75/131 130/74/130 117/61/117
f 132/76/132 131/75/131 117/61/117
f 133/77/133 131/75/131 132/76/132
f 136/78/134 135/79/135 134/80/136
f 137/81/137 135/79/135 136/78/134
f 138/82/138 137/81/137 136/78/134
f 139/83/139 137/81/137 138/82/138
f 79/25/81 100/84/100 101/85/101
f 140/86/140 100/84/100 79/25/81
f 80/24/80 140/86/140 79/25/81
f 143/87/141 142/88/142 141/89/143
f 144/90/144 142/88/142 143/87/141
f 145/91/145 144/90/144 143/87/141
f 102/48/146 147/92/147 146/93/148
s 0
f 148/94/149 147/92/149 102/48/149
s 1
f 103/47/103 148/94/150 102/48/104
f 151/95/151 150/96/152 149/97/153
f 152/98/154 150/96/152 151/95/151
f 153/99/155 152/98/154 151/95/151
f 92/36/92 93/39/95 90/34/90
f 95/37/93 93/39/95 92/36/92
f 154/100/156 145/91/145 143/87/141
f 155/101/157 145/91/145 154/100/156
f 158/102/158 157/103/159 156/104/160
f 159/105/161 157/103/159 158/102/158
f 159/105/161 147/92/147 157/103/159
f 146/93/148 147/92/147 159/105/161
f 109/53/109 118/64/120 107/51/107
f 120/62/118 118/64/120 109/53/109
f 123/67/123 124/70/126 121/65/121
f 126/68/124 124/70/126 123/67/123
f 129/73/129 110/56/162 127/71/127
s 0
f 112/54/163 110/56/163 129/73/163
f 133/77/164 155/101/164 131/75/164
s 1
f 145/91/145 155/101/157 133/77/165
f 156/89/160 160/106/166 158/88/158
f 153/99/155 160/106/166 156/89/160
f 142/102/142 135/79/135 141/104/143
f 134/80/136 135/79/135 142/102/142
s 0
f 149/97/167 150/96/167 161/107/167
f 138/82/168 162/108/168 139/83/168
s 1
f 160/106/166 153/99/155 151/95/151
