# Blender 4.1.1
# www.blender.org
mtllib polygon0.190.mtl
o polygon0.006
v -8.228516 0.314453 -0.156250
v -8.228516 0.314453 1.413086
v -10.183590 0.314453 -0.156250
v -10.532228 0.314453 1.070313
v -10.532228 0.314453 -1.873047
v 10.518550 0.094726 -1.838867
v -10.511720 0.094726 -1.838867
v 10.518550 -0.094727 -1.838867
v -10.511720 -0.094727 -1.838867
v 10.518550 0.094727 -0.115234
v -10.511720 0.094727 -0.115234
v -10.511720 -0.094727 -0.115234
v 10.518550 -0.094727 -0.115234
v -6.549805 -12.157228 0.265626
v -6.539063 -12.158199 3.622071
v -6.557617 12.178709 0.265624
v -6.557617 12.179690 3.622068
v -9.156250 16.401369 0.955076
v -9.156250 -16.401369 0.955080
v -9.154297 16.401369 -0.000002
v -9.154297 -16.401369 0.000002
v -7.705078 -13.417970 3.619143
v -7.655272 -13.357419 0.461916
v -7.684569 13.387700 3.619140
v -7.680664 13.385739 0.265623
v 6.551758 -12.209959 0.265626
v 6.484375 12.145510 0.265624
v 6.549805 -12.212889 3.620118
v 6.479492 12.123050 3.622068
v 9.156250 -16.401369 0.955080
v 9.156250 16.401369 0.955076
v 9.156250 -16.401369 0.000002
v 9.156250 16.401369 -0.000002
v 10.532228 -0.314453 -1.873047
v 10.183590 -0.314453 -0.156250
v 10.532228 -0.314453 1.070313
v 8.228516 -0.314453 1.413086
v 8.228516 0.314453 -0.156250
v 10.183590 0.314453 -0.156250
v 8.228516 0.314453 1.413086
v 10.532228 0.314453 1.070313
v 10.532228 0.314453 -1.873047
v 10.183590 0.314453 -1.873047
v -8.228516 -0.314453 -0.156250
v -10.183590 -0.314453 -0.156250
v -8.228516 -0.314453 1.413086
v -10.532228 -0.314453 1.070313
v -10.532228 -0.314453 -1.873047
v -10.183590 -0.314453 -1.873047
v 7.276367 -12.626949 6.059571
v 6.947266 -12.626949 6.059571
v 7.655272 -12.242189 0.461916
v 6.568358 -12.242189 0.461916
v 6.568358 -13.346680 0.461916
v 6.947266 -12.961908 6.059571
v 7.276367 -12.961908 6.059571
v 7.655272 -13.346680 0.461916
v -6.981444 -12.660159 6.059571
v -7.242188 -12.660159 6.059571
v -6.568358 -12.232419 0.461916
v -7.655272 -12.232419 0.461916
v -6.981444 -12.929689 6.059571
v -6.568358 -13.357419 0.461916
v 8.228516 -0.314453 -0.156250
v -7.242188 -12.929689 6.059571
v -7.263672 12.636720 6.059568
v -6.959961 12.636720 6.059568
v -7.655272 12.230470 0.461913
v -6.568358 12.230470 0.461913
v -6.568358 13.359380 0.461912
v -6.959961 12.952149 6.059568
v -7.263672 12.952149 6.059568
v -7.655272 13.359380 0.461912
v 10.183590 -0.314453 -1.873047
v 7.702147 -13.405270 0.265627
v 7.702147 -13.405270 3.619143
v 7.689453 13.389649 0.265623
v 7.700194 13.389649 3.622068
v -7.701172 -13.415040 0.265627
v 7.250977 12.938479 6.059568
v 6.972655 12.938479 6.059568
v 7.655272 13.359380 0.461912
v 6.568358 13.359380 0.461912
v -10.183590 0.314453 -1.873047
v 6.972655 12.650390 6.059568
v 7.250977 12.650390 6.059568
v 6.568358 12.230470 0.461913
v 7.655272 12.230470 0.461913
vn -0.0000 1.0000 -0.0000
vn -0.0000 -0.0000 -1.0000
vn -0.0000 -1.0000 -0.0000
vn 1.0000 0.0003 -0.0032
vn 1.0000 0.0008 -0.0000
vn -1.0000 -0.0000 -0.0020
vn -0.9999 0.0008 -0.0158
vn -1.0000 -0.0010 -0.0012
vn -1.0000 -0.0028 -0.0006
vn -1.0000 -0.0029 -0.0015
vn 1.0000 -0.0000 -0.0000
vn 0.7036 0.7041 0.0960
vn -0.7041 0.7036 0.0960
vn 0.7041 0.7036 0.0960
vn -0.7036 0.7041 0.0960
vn -0.7036 -0.7041 0.0960
vn -0.7041 -0.7036 0.0960
vn 0.7041 -0.7036 0.0960
vn 0.7036 -0.7041 0.0960
vn -1.0000 -0.0000 -0.0000
vn 0.7026 0.7037 0.1056
vn -0.7038 0.7025 0.1056
vn 0.7038 0.7025 0.1056
vn -0.7026 0.7037 0.1056
vn 0.7038 -0.7025 0.1056
vn 0.7026 -0.7037 0.1056
vn -0.7026 -0.7037 0.1056
vn -0.7038 -0.7025 0.1056
vn -0.7030 -0.7041 0.1003
vn 0.7042 -0.7029 0.1003
vn -0.7042 -0.7029 0.1003
vn 0.7030 -0.7041 0.1003
vn 0.7029 0.7041 0.1004
vn 0.7042 0.7029 0.1004
vn -0.7042 0.7029 0.1004
vn -0.7030 0.7041 0.1004
vn 1.0000 0.0005 -0.0000
vn 1.0000 0.0001 -0.0032
vn 0.0042 1.0000 0.0003
vn 0.0040 1.0000 0.0009
vn 0.0006 -1.0000 -0.0009
vn 0.0008 -1.0000 -0.0000
vn -0.0043 -1.0000 0.0003
vn -0.0025 -1.0000 -0.0067
vn -0.0003 1.0000 -0.0006
vn -0.0001 1.0000 -0.0000
vn 0.7027 0.7039 0.1037
vn -0.7040 0.7026 0.1037
vn 0.7040 0.7026 0.1037
vn -0.7027 0.7039 0.1037
vn -0.7027 -0.7039 0.1036
vn 0.7040 -0.7026 0.1036
vn -0.7040 -0.7026 0.1036
vn 0.7027 -0.7039 0.1036
vn -0.0000 -0.0000 1.0000
vn -0.8611 -0.4774 -0.1749
vt 1.553223 0.992188
vt 1.575928 0.977539
vt 1.575928 0.992188
vt 1.543213 0.984131
vt 1.543213 1.024902
vt -0.007080 0.967285
vt 0.842285 0.968018
vt -0.007080 0.989746
vt 0.842285 0.990479
vt 2.632080 0.990234
vt 6.131348 0.751709
vt 6.131348 0.990234
vt 2.632080 0.751709
vt 0.650879 1.051270
vt 0.933838 1.005371
vt 0.933838 1.051270
vt 0.650879 1.005371
vt 0.076416 1.015869
vt -0.670166 0.988281
vt 0.076416 0.988281
vt -0.670166 1.015869
vt -0.008789 0.988281
vt -0.297607 1.015625
vt -0.297607 0.988281
vt -0.012451 1.015625
vt -0.008789 1.015625
vt 1.553223 1.024902
vt 3.998535 0.743896
vt 2.002930 0.006104
vt 3.998535 0.006104
vt 2.002930 0.743896
vt 0.944824 1.050781
vt 0.994873 0.985352
vt 0.944824 0.985352
vt 0.994873 1.050781
vt 1.094727 1.050781
vt 1.094727 0.985352
vt 1.144775 0.985352
vt 1.144775 1.050781
vt 1.244873 1.050781
vt 1.244873 0.985352
vt 1.537598 0.995117
vt 1.594971 0.995117
vt 0.596191 1.005371
vt 0.313232 1.050781
vt 0.313232 1.005371
vt 0.596191 1.050781
vt 1.560547 0.992188
vt 1.537598 0.983643
vt 1.560547 0.983643
vt 1.537598 0.992188
s 0
usemtl m_table
f 3/1/1 2/2/1 1/3/1
f 4/4/1 2/2/1 3/1/1
f 5/5/1 4/4/1 3/1/1
f 8/6/2 7/7/2 6/8/2
f 9/9/2 7/7/2 8/6/2
f 7/10/1 10/11/1 6/12/1
f 11/13/1 10/11/1 7/10/1
f 8/12/3 12/13/3 9/10/3
f 13/11/3 12/13/3 8/12/3
f 16/14/4 15/15/4 14/16/4
f 17/17/5 15/15/5 16/14/5
f 20/18/6 19/19/6 18/20/6
f 21/21/6 19/19/6 20/18/6
f 24/17/7 23/16/7 22/15/7
f 25/14/8 23/16/8 24/17/8
f 28/15/9 27/14/9 26/16/9
f 29/17/10 27/14/10 28/15/10
f 32/18/11 31/19/11 30/20/11
f 33/21/11 31/19/11 32/18/11
f 19/22/3 32/23/3 30/24/3
f 21/25/3 32/23/3 19/22/3
f 31/22/1 20/23/1 18/24/1
f 33/26/1 20/23/1 31/22/1
f 36/4/3 35/1/3 34/5/3
f 37/2/3 35/1/3 36/4/3
f 40/2/1 39/1/1 38/3/1
f 41/4/1 39/1/1 40/2/1
f 42/5/1 39/1/1 41/4/1
f 43/27/1 39/1/1 42/5/1
f 32/28/2 20/29/2 33/30/2
f 21/31/2 20/29/2 32/28/2
f 46/2/3 45/1/3 44/3/3
f 47/4/3 45/1/3 46/2/3
f 48/5/3 45/1/3 47/4/3
f 49/27/3 45/1/3 48/5/3
s 1
f 52/32/12 51/33/13 50/34/14
f 53/35/15 51/33/13 52/32/12
f 54/36/16 51/33/13 53/35/15
f 55/37/17 51/33/13 54/36/16
f 54/36/16 56/38/18 55/37/17
f 57/39/19 56/38/18 54/36/16
f 52/40/12 56/38/18 57/39/19
f 50/41/14 56/38/18 52/40/12
s 0
f 48/5/20 4/4/20 5/5/20
f 47/4/20 4/4/20 48/5/20
f 42/5/11 36/4/11 34/5/11
f 41/4/11 36/4/11 42/5/11
s 1
f 60/35/21 59/34/22 58/33/23
f 61/32/24 59/34/22 60/35/21
f 62/37/25 60/35/21 58/33/23
f 63/36/26 60/35/21 62/37/25
s 0
f 40/2/20 64/3/20 37/2/20
f 38/3/20 64/3/20 40/2/20
s 1
f 23/39/27 62/37/25 65/38/28
f 63/36/26 62/37/25 23/39/27
f 59/41/22 23/39/27 65/38/28
f 61/40/24 23/39/27 59/41/22
s 0
f 64/42/2 39/43/2 35/43/2
f 38/42/2 39/43/2 64/42/2
s 1
f 68/32/29 67/33/30 66/34/31
f 69/35/32 67/33/30 68/32/29
f 70/36/33 67/33/30 69/35/32
f 71/37/34 67/33/30 70/36/33
f 70/36/33 72/38/35 71/37/34
f 73/39/36 72/38/35 70/36/33
s 0
f 42/5/2 34/5/2 43/27/2
s 1
f 68/40/29 72/38/35 73/39/36
f 66/41/31 72/38/35 68/40/29
s 0
f 77/14/37 76/15/37 75/16/37
f 78/17/38 76/15/38 77/14/38
f 28/44/39 14/45/39 15/46/39
f 26/47/40 14/45/40 28/44/40
f 44/3/11 2/2/11 46/2/11
f 1/3/11 2/2/11 44/3/11
f 75/47/41 22/46/41 79/45/41
f 76/44/42 22/46/42 75/47/42
f 16/45/43 29/44/43 17/46/43
f 27/47/44 29/44/44 16/45/44
f 3/43/2 44/42/2 45/43/2
f 1/42/2 44/42/2 3/43/2
f 24/46/45 77/47/45 25/45/45
s 1
f 78/44/46 77/47/46 24/46/46
f 82/39/47 81/37/48 80/38/49
f 83/36/50 81/37/48 82/39/47
s 0
f 49/48/11 3/49/11 45/50/11
f 84/51/11 3/49/11 49/48/11
s 1
f 87/35/51 86/34/52 85/33/53
f 88/32/54 86/34/52 87/35/51
s 0
f 49/27/2 5/5/2 84/27/2
f 48/5/2 5/5/2 49/27/2
s 1
f 81/37/48 87/35/51 85/33/53
f 83/36/50 87/35/51 81/37/48
f 86/41/52 82/39/47 80/38/49
f 88/40/54 82/39/47 86/41/52
s 0
f 34/5/55 43/51/55 74/27/55
f 35/50/56 43/51/56 34/5/56
f 37/2/3 64/3/3 35/1/3
f 3/1/1 84/27/1 5/5/1
f 35/50/20 39/49/20 43/51/20
