# Blender 4.1.1
# www.blender.org
mtllib polygon653.mtl
o polygon653
v -8009.164062 794.505859 -1029.000122
v -8092.531250 661.250183 -1029.000000
v -7933.755859 809.851562 -1029.000122
v -8071.359375 589.871094 -1029.000122
v -7784.841309 530.207153 -1029.000122
v -7883.639160 357.461060 -1028.999878
v -7581.971191 341.832794 -1028.999878
v -7674.085449 155.677170 -1029.000000
v -7307.784668 -97.236794 -988.999756
v -7371.288574 -190.307205 -1000.221069
v -7003.357910 -257.914825 -988.999695
v -7097.009766 -456.426971 -982.114075
v -6814.112305 -361.565613 -969.077148
v -6717.752441 -649.580383 -958.572998
v -6618.259277 -472.361603 -948.354248
v -6413.111328 -572.287354 -920.524109
v -6490.092285 -208.706131 -940.179321
v -6284.455078 -302.265717 -910.747803
v -6193.547852 -145.597183 -897.479492
v -6109.839355 -360.841949 -863.745605
v -5728.768066 -1128.900146 -773.349060
v -5709.246094 -999.588684 -767.912659
v -5849.877930 -1248.771118 -811.001709
v -5817.637207 -829.551636 -790.703369
v -6104.779297 -1096.306152 -848.854919
v -6003.717773 -761.613525 -835.766235
v -6206.161133 -678.560120 -880.829102
v -5897.770020 -412.981323 -800.193298
v -5940.368164 -78.481995 -814.226013
v -5275.203125 396.412384 -533.820435
v -5155.219727 545.078979 -509.469635
v -5172.629883 556.773560 -508.999847
v -5018.758301 637.267883 -485.830444
v -5142.202148 732.902283 -478.999878
v -4964.607422 942.258240 -478.999908
v -5242.139160 994.024902 -478.999908
v -4990.926270 1199.474976 -478.999969
v -5233.815918 1280.627930 -478.999939
v -5756.717773 -107.502579 -737.749695
v -5694.101074 -453.042755 -737.086365
v -5579.139160 -189.165161 -678.422485
v -5497.282227 -237.611954 -645.814758
v -5505.354492 -46.128063 -636.437561
v -5457.884277 -107.081566 -621.844543
v -5421.855957 9.864643 -598.533813
v -7484.922852 536.197693 -1029.000122
v -7155.045898 189.354263 -988.999756
v -7044.241211 385.238281 -988.999756
v -6854.473145 -2.808290 -988.999756
v -6766.602539 183.445267 -988.999756
v -6685.583496 -106.077705 -962.503479
v -6418.959473 -7.750084 -942.359070
v -6336.959961 -943.840881 -886.708252
v -6538.716309 -796.710632 -925.034241
v -6456.125488 -1219.582153 -887.562561
v -6803.919922 -875.383789 -955.986755
v -5674.715332 -1640.856079 -739.773621
v -5709.290039 -1512.871094 -758.883972
v -6060.129883 -1470.704102 -813.266174
v -5730.460938 -1394.694092 -771.540771
v -5739.643066 -1266.995239 -775.830994
v -4854.399414 690.725891 -456.985107
v -4711.186035 704.345337 -434.230469
v -4846.029785 978.895264 -445.741669
v -4748.036133 1146.342041 -393.518555
v -7400.282227 556.011353 -1013.781128
v -7461.166016 598.272339 -1013.887024
v -7674.806641 714.132568 -1020.864136
v -7709.339355 677.741882 -1029.000000
v -5607.264648 -605.480225 -717.177856
v -5647.061035 -731.211975 -739.344299
v -4277.278320 780.547424 -304.577118
v -4187.659180 841.948242 -270.295105
v -4454.907227 1157.692017 -297.646301
v -4182.688965 1192.485962 -201.340134
v -4402.708984 1297.974976 -211.000244
v -4202.228027 1383.465088 -149.725342
v -5574.129395 10.739552 -645.099060
v -5381.333496 142.735336 -572.177124
v -5398.743164 154.429855 -568.999756
v -5337.355469 256.072540 -552.742371
v -4585.197266 707.374268 -402.074249
v -4478.679688 713.354004 -371.321655
v -4375.139160 737.646973 -339.239166
v -4105.686035 907.021606 -239.816406
v -4049.872070 977.209412 -214.017715
v -4000.147217 1060.090942 -188.980392
v -3971.108154 1161.581909 -165.019730
v -3957.510010 1264.662964 -148.843552
v -6490.492188 192.470581 -934.333252
v -6678.895996 338.059875 -961.377075
v -6874.552734 332.507172 -987.487793
v -7018.518555 426.019257 -982.186096
v -7172.014160 449.283905 -1000.478149
v -7258.052246 537.370361 -995.901306
v -3880.594238 2061.662109 -91.478218
v -3951.592041 2079.995117 -92.272850
v -3896.939941 1942.351929 -93.949860
v -3909.838135 1819.679077 -97.202980
v -5407.563477 1151.433960 -478.999878
v -5345.625488 1246.868042 -478.999939
v -3921.324219 1708.645142 -100.154099
v -4011.503906 1615.802124 -96.021286
v -3927.927979 1602.687134 -106.919083
v -3935.322998 1518.181030 -114.735977
v -3942.719238 1433.674927 -125.731766
v -3946.416992 1391.422119 -130.736542
v -3950.115234 1349.169067 -135.741272
v -3953.812988 1306.915894 -142.292343
v -5533.143555 -362.640289 -670.072876
v -5567.576660 -484.376373 -694.284607
v -8078.894043 719.798157 -1029.000122
v -8037.793457 767.978271 -1029.000122
v -5680.494141 -858.604858 -759.063293
v -5292.612305 408.106995 -531.607361
vn 0.0058 0.0099 -0.9999
vn -0.0000 -0.0000 -1.0000
vn 0.0398 -0.0201 -0.9990
vn 0.0531 -0.0190 -0.9984
vn 0.0634 0.0219 -0.9977
vn 0.0780 0.0380 -0.9962
vn 0.0428 -0.0326 -0.9986
vn 0.0442 -0.0418 -0.9981
vn 0.0837 -0.0295 -0.9961
vn 0.0966 -0.0332 -0.9948
vn 0.1126 -0.0149 -0.9935
vn 0.1445 -0.0419 -0.9886
vn 0.1178 -0.0327 -0.9925
vn 0.1817 -0.0273 -0.9830
vn 0.2326 -0.0350 -0.9719
vn 0.2747 -0.0273 -0.9612
vn 0.1973 -0.0440 -0.9794
vn 0.2490 0.0207 -0.9683
vn 0.3021 -0.0058 -0.9533
vn 0.2352 0.0344 -0.9713
vn 0.1492 -0.0392 -0.9880
vn 0.2323 0.0035 -0.9726
vn 0.1956 -0.0290 -0.9803
vn 0.2967 0.0110 -0.9549
vn 0.3423 -0.0029 -0.9396
vn 0.0601 0.1380 -0.9886
vn 0.0639 0.1348 -0.9888
vn -0.0139 0.1559 -0.9877
vn 0.0700 0.0637 -0.9955
vn 0.0058 0.0579 -0.9983
vn 0.1234 0.0198 -0.9922
vn 0.1242 0.0253 -0.9919
vn 0.3502 0.0626 -0.9346
vn 0.3158 0.0520 -0.9474
vn 0.3705 0.0629 -0.9267
vn 0.3830 0.0542 -0.9222
vn 0.3354 0.1176 -0.9347
vn 0.3670 0.0636 -0.9280
vn 0.3733 0.0696 -0.9251
vn 0.0818 0.0710 -0.9941
vn 0.0391 -0.0211 -0.9990
vn 0.0649 0.0419 -0.9970
vn 0.0594 -0.0258 -0.9979
vn 0.0979 0.0253 -0.9949
vn 0.1091 -0.0443 -0.9930
vn 0.1352 -0.0268 -0.9905
vn 0.1369 -0.0509 -0.9893
vn 0.1378 -0.0603 -0.9886
vn 0.1444 -0.0593 -0.9877
vn 0.1053 -0.0513 -0.9931
vn 0.1337 -0.0615 -0.9891
vn 0.1299 -0.0944 -0.9870
vn 0.1409 -0.0979 -0.9852
vn 0.1394 -0.1093 -0.9842
vn 0.1787 -0.0860 -0.9801
vn 0.3026 -0.0087 -0.9531
vn 0.1660 -0.0136 -0.9860
vn 0.2303 0.0734 -0.9703
vn 0.2902 0.0820 -0.9534
vn 0.3156 0.1105 -0.9424
vn 0.1321 0.1865 -0.9735
vn 0.1396 0.1548 -0.9780
vn 0.0896 0.1436 -0.9856
vn 0.0430 0.0709 -0.9966
vn 0.2955 0.0561 -0.9537
vn 0.2372 0.0935 -0.9669
vn 0.2854 0.2205 -0.9327
vn 0.2609 0.1642 -0.9513
vn 0.2698 0.1446 -0.9520
vn 0.2103 0.2383 -0.9482
vn 0.2221 0.3811 -0.8974
vn 0.1189 0.2282 -0.9663
vn 0.0228 0.2840 -0.9586
vn 0.0760 0.2529 -0.9645
vn 0.2835 0.2113 -0.9354
vn 0.1428 0.0717 -0.9872
vn 0.2649 0.1439 -0.9535
vn 0.2654 0.1271 -0.9557
vn 0.2668 0.1450 -0.9528
vn 0.2095 0.1859 -0.9600
vn 0.2037 0.1823 -0.9619
vn 0.1922 0.1748 -0.9657
vn 0.1885 0.1496 -0.9706
vn 0.1301 0.1721 -0.9765
vn 0.1903 0.0960 -0.9770
vn 0.1659 0.0815 -0.9828
vn 0.0477 0.0511 -0.9975
vn 0.0844 0.1122 -0.9901
vn 0.1026 0.0382 -0.9940
vn 0.1409 0.1857 -0.9725
vn 0.0265 0.0227 -0.9994
vn 0.0072 0.0182 -0.9998
vn 0.0160 0.0185 -0.9997
vn -0.0370 0.0163 -0.9992
vn -0.1154 0.0869 -0.9895
vn -0.0555 0.1182 -0.9914
vn -0.0898 0.0429 -0.9950
vn 0.0056 0.1553 -0.9879
vn 0.0687 0.1182 -0.9906
vn 0.0701 0.1113 -0.9913
vn 0.0724 0.1293 -0.9890
vn 0.0746 0.1464 -0.9864
vn 0.1319 -0.0653 -0.9891
vn 0.3419 0.0850 -0.9359
vn 0.3371 0.0799 -0.9381
vn 0.2348 0.0515 -0.9707
vn -0.0187 0.1590 -0.9871
vt -61.269527 -5.798828
vt -62.552727 -4.601563
vt -61.902340 -5.642578
vt -62.375004 -3.974609
vt -60.105469 -3.541016
vt -60.910160 -2.160156
vt -58.519527 -2.070313
vt -59.271477 -0.583984
vt -56.378910 1.361328
vt -56.945309 2.158203
vt -54.000000 2.615234
vt -54.800777 4.236328
vt -52.521481 3.425781
vt -51.769527 5.675781
vt -50.992188 4.291016
vt -49.388668 5.072266
vt -49.990231 2.232422
vt -48.382809 2.962891
vt -47.673828 1.664063
vt -47.019527 3.419922
vt -44.988277 10.357420
vt -43.890629 8.410156
vt -44.042969 9.419922
vt -44.736328 7.082031
vt -46.980469 9.166016
vt -46.189449 6.550781
vt -47.771481 5.902344
vt -45.363277 3.828125
vt -45.695309 1.140625
vt -39.697269 -3.748047
vt -39.560551 -3.656250
vt -40.498051 -2.496094
vt -38.496090 -4.376953
vt -39.458981 -5.125000
vt -38.072269 -6.759766
vt -40.240231 -7.164063
vt -38.277340 -8.769531
vt -40.175777 -9.404297
vt -44.259769 1.367188
vt -43.771481 4.140625
vt -42.873051 2.078125
vt -42.234379 2.457031
vt -42.296879 0.960938
vt -41.925777 1.437500
vt -41.644527 0.523438
vt -57.761719 -3.587891
vt -55.185547 -0.878906
vt -54.320309 -2.408203
vt -52.837887 0.623047
vt -52.150387 -0.832031
vt -51.517578 1.429688
vt -49.433590 0.587891
vt -48.792969 7.974609
vt -50.369141 6.826172
vt -49.794918 10.199220
vt -52.511719 7.509766
vt -46.701168 12.160160
vt -43.890629 12.419920
vt -43.619141 13.419920
vt -44.054688 11.498050
vt -44.126949 10.500000
vt -37.210938 -4.794922
vt -36.091801 -4.902344
vt -37.146481 -7.046875
vt -36.380859 -8.355469
vt -57.576168 -4.146484
vt -57.101559 -3.816406
vt -59.246090 -5.050781
vt -59.515629 -4.693359
vt -43.093750 5.332031
vt -43.404301 6.314453
vt -34.089840 -8.443359
vt -32.001949 -5.976563
vt -32.703129 -5.496094
vt -31.962889 -8.714844
vt -33.681641 -9.539062
vt -32.117188 -10.207029
vt -41.464840 -0.605469
vt -41.328129 -0.513672
vt -42.857418 0.480469
vt -40.984379 -1.398438
vt -34.275391 -4.972656
vt -35.107418 -4.925781
vt -33.466801 -5.162109
vt -31.361330 -6.484375
vt -30.925779 -7.033203
vt -30.537109 -7.681641
vt -30.310549 -8.474609
vt -30.205080 -9.279297
vt -49.994141 -0.976562
vt -51.464840 -2.113281
vt -52.994137 -2.070313
vt -54.119137 -2.800781
vt -55.318359 -2.982422
vt -55.990227 -3.669922
vt -29.730469 -14.574220
vt -30.158199 -15.648439
vt -29.603519 -15.505859
vt -29.832029 -13.615230
vt -41.048828 -9.140625
vt -41.533199 -8.394531
vt -29.972660 -11.919920
vt -30.626949 -12.021480
vt -29.921879 -12.748050
vt -30.031250 -11.259769
vt -30.087889 -10.599609
vt -30.117189 -10.269529
vt -30.146479 -9.939453
vt -30.175779 -9.609375
vt -42.513668 3.433594
vt -42.783199 4.384766
vt -62.125004 -5.435547
vt -62.447269 -5.058594
vt -43.666019 7.308594
vt -40.634769 -2.587891
s 1
usemtl mt_kusa.005
f 3/1/1 2/2/2 1/3/2
f 4/4/2 2/2/2 3/1/1
f 5/5/2 4/4/2 3/1/1
s 0
f 6/6/2 4/4/2 5/5/2
s 1
f 7/7/3 6/6/2 5/5/2
f 8/8/4 6/6/2 7/7/3
f 9/9/5 8/8/4 7/7/3
f 10/10/6 8/8/4 9/9/5
f 11/11/7 10/10/6 9/9/5
f 12/12/8 10/10/6 11/11/7
f 13/13/9 12/12/8 11/11/7
f 14/14/10 12/12/8 13/13/9
f 15/15/11 14/14/10 13/13/9
f 16/16/12 14/14/10 15/15/11
f 17/17/13 16/16/12 15/15/11
f 18/18/14 16/16/12 17/17/13
f 19/19/15 18/18/14 17/17/13
f 20/20/16 18/18/14 19/19/15
f 23/21/17 22/22/18 21/23/19
f 24/24/20 22/22/18 23/21/17
f 25/25/21 24/24/20 23/21/17
f 26/26/22 24/24/20 25/25/21
f 27/27/23 26/26/22 25/25/21
f 28/28/24 26/26/22 27/27/23
f 20/20/16 28/28/24 27/27/23
f 29/29/25 28/28/24 20/20/16
f 19/19/15 29/29/25 20/20/16
f 32/30/26 31/31/27 30/32/28
f 33/33/29 31/31/27 32/30/26
f 34/34/30 33/33/29 32/30/26
f 35/35/31 33/33/29 34/34/30
f 36/36/2 35/35/31 34/34/30
f 37/37/32 35/35/31 36/36/2
f 38/38/2 37/37/32 36/36/2
f 39/39/33 28/28/24 29/29/25
f 40/40/34 28/28/24 39/39/33
f 41/41/35 40/40/34 39/39/33
f 42/42/36 40/40/34 41/41/35
f 43/43/37 42/42/36 41/41/35
f 44/44/38 42/42/36 43/43/37
f 45/45/39 44/44/38 43/43/37
f 46/46/40 7/7/3 5/5/2
f 47/47/41 7/7/3 46/46/40
f 48/48/42 47/47/41 46/46/40
f 49/49/43 47/47/41 48/48/42
f 50/50/44 49/49/43 48/48/42
f 51/51/45 49/49/43 50/50/44
f 52/52/46 51/51/45 50/50/44
f 27/27/23 18/18/14 20/20/16
f 16/16/12 18/18/14 27/27/23
f 53/53/47 16/16/12 27/27/23
f 54/54/48 16/16/12 53/53/47
s 0
f 55/55/49 54/54/49 53/53/49
s 1
f 56/56/50 54/54/48 55/55/51
f 17/17/13 52/52/46 19/19/15
f 51/51/45 52/52/46 17/17/13
f 13/13/9 51/51/45 17/17/13
f 49/49/43 51/51/45 13/13/9
f 11/11/7 49/49/43 13/13/9
f 9/9/5 49/49/43 11/11/7
f 59/57/52 58/58/53 57/59/54
f 60/60/55 58/58/53 59/57/52
f 23/21/17 60/60/55 59/57/52
f 61/61/56 60/60/55 23/21/17
f 21/23/19 61/61/56 23/21/17
f 35/35/31 62/62/57 33/33/29
f 63/63/58 62/62/57 35/35/31
f 64/64/59 63/63/58 35/35/31
f 65/65/60 63/63/58 64/64/59
f 37/37/32 65/65/60 64/64/59
f 46/46/40 67/66/61 66/67/62
f 68/68/63 67/66/61 46/46/40
f 69/69/64 68/68/63 46/46/40
f 3/1/1 68/68/63 69/69/64
f 5/5/2 3/1/1 69/69/64
f 40/40/34 26/26/22 28/28/24
f 24/24/20 26/26/22 40/40/34
f 70/70/65 24/24/20 40/40/34
f 71/71/66 24/24/20 70/70/65
f 74/72/67 73/73/68 72/74/69
f 75/75/70 73/73/68 74/72/67
f 76/76/71 75/75/70 74/72/67
f 77/77/72 75/75/70 76/76/71
f 80/78/73 79/79/74 78/80/75
f 81/81/76 79/79/74 80/78/73
f 30/32/28 81/81/76 80/78/73
f 74/72/67 83/82/77 82/83/78
f 84/84/79 83/82/77 74/72/67
f 72/74/69 84/84/79 74/72/67
f 75/75/70 85/85/80 73/73/68
f 86/86/81 85/85/80 75/75/70
f 87/87/82 86/86/81 75/75/70
f 75/75/70 88/88/83 87/87/82
f 89/89/84 88/88/83 75/75/70
f 77/77/72 89/89/84 75/75/70
f 50/50/44 90/90/85 52/52/46
f 91/91/86 90/90/85 50/50/44
f 92/92/87 91/91/86 50/50/44
f 48/48/42 92/92/87 50/50/44
f 93/93/88 92/92/87 48/48/42
f 94/94/89 93/93/88 48/48/42
f 46/46/40 94/94/89 48/48/42
f 95/95/90 94/94/89 46/46/40
f 66/67/62 95/95/90 46/46/40
f 98/96/91 97/97/92 96/98/93
f 99/99/94 97/97/92 98/96/91
s 0
f 101/100/2 36/36/2 100/101/2
f 38/38/2 36/36/2 101/100/2
s 1
f 104/102/95 103/103/96 102/104/97
f 105/105/98 103/103/96 104/102/95
f 105/105/98 77/77/72 103/103/96
f 106/106/99 77/77/72 105/105/98
f 107/107/100 77/77/72 106/106/99
f 108/108/101 77/77/72 107/107/100
f 109/109/102 77/77/72 108/108/101
f 89/89/84 77/77/72 109/109/102
f 99/99/94 103/103/96 97/97/92
f 102/104/97 103/103/96 99/99/94
f 65/65/60 82/83/78 63/63/58
f 74/72/67 82/83/78 65/65/60
f 39/39/33 43/43/37 41/41/35
f 78/80/75 43/43/37 39/39/33
f 59/57/52 25/25/21 23/21/17
f 55/55/103 25/25/21 59/57/52
f 43/43/37 79/79/74 45/45/39
f 78/80/75 79/79/74 43/43/37
f 110/110/104 40/40/34 42/42/36
f 111/111/105 40/40/34 110/110/104
s 0
f 113/112/2 2/2/2 112/113/2
f 1/3/2 2/2/2 113/112/2
s 1
f 9/9/5 47/47/41 49/49/43
f 7/7/3 47/47/41 9/9/5
f 25/25/21 53/53/47 27/27/23
f 55/55/103 53/53/47 25/25/21
f 54/54/48 14/14/10 16/16/12
f 56/56/50 14/14/10 54/54/48
f 24/24/20 114/114/106 22/22/18
f 71/71/66 114/114/106 24/24/20
f 115/115/107 30/32/28 80/78/73
f 32/30/26 30/32/28 115/115/107
f 40/40/34 111/111/105 70/70/65
f 13/13/9 17/17/13 15/15/11
f 56/56/50 12/12/8 14/14/10
f 35/35/31 37/37/32 64/64/59
f 5/5/2 69/69/64 46/46/40
