# Blender 4.1.1
# www.blender.org
mtllib polygon647.mtl
o polygon647
v -3740.589844 -33.004417 -410.999664
v -3740.589844 -33.004150 -453.812286
v -3676.503906 -70.004593 -410.999664
v -3676.503906 -70.004333 -453.812164
v -3780.589844 -102.287048 -453.812164
v -3780.589844 -102.286842 -410.999664
v -3716.503906 -139.286438 -410.999634
v -3716.503906 -139.286163 -453.812256
v -3770.377930 -767.967346 -468.999573
v -3770.377930 -767.967102 -511.812195
v -3697.502197 -780.817322 -468.999573
v -3697.502197 -780.817139 -511.812073
v -3784.270020 -846.752441 -511.812103
v -3784.270020 -846.752319 -468.999603
v -3711.394287 -859.601868 -468.999603
v -3711.394287 -859.601624 -511.812225
v -3796.296143 -366.541840 -413.999634
v -3796.296143 -366.542114 -456.812225
v -3796.296143 -292.541718 -413.999664
v -3796.296143 -292.541748 -456.812164
v -3716.295166 -366.541840 -456.812134
v -3716.295166 -366.541962 -413.999634
v -3716.296143 -292.541840 -413.999664
v -3716.296143 -292.541962 -456.812286
v -4283.025391 -275.384949 -466.999664
v -4283.025391 -275.384644 -509.812286
v -4209.025391 -275.384949 -466.999664
v -4209.025391 -275.384644 -509.812164
v -4283.025391 -355.385437 -509.812134
v -4283.025391 -355.385437 -466.999634
v -4209.025391 -355.384918 -466.999634
v -4209.025391 -355.384735 -509.812225
v -3700.732178 -363.234619 -413.999634
v -3700.732178 -363.234619 -456.812225
v -3658.287109 -302.617462 -413.999664
v -3658.288086 -302.617340 -456.812164
v -3635.199219 -409.121155 -456.812134
v -3635.199219 -409.121155 -413.999634
v -3592.754883 -348.503540 -413.999634
v -3592.754883 -348.503540 -456.812225
v -4498.687012 -151.918579 -508.999634
v -4498.687988 -151.918457 -551.812256
v -4442.000000 -104.352158 -508.999664
v -4442.000000 -104.352074 -551.812195
v -4447.264160 -213.202438 -551.812256
v -4447.264160 -213.202438 -508.999634
v -4390.577148 -165.635864 -508.999664
v -4390.577148 -165.635757 -551.812256
v -4246.719727 149.780518 -508.999725
v -4246.719238 149.781021 -551.812256
v -4233.870117 76.904564 -508.999695
v -4233.870117 76.904930 -551.812317
v -4325.505371 135.888626 -551.812256
v -4325.505371 135.888626 -508.999725
v -4312.654297 63.012890 -508.999634
v -4312.654297 63.013245 -551.812256
v -4561.625000 109.782738 -508.999695
v -4561.625000 109.783020 -551.812256
v -4492.088379 84.473167 -508.999695
v -4492.087402 84.473450 -551.812317
v -4588.987305 34.606823 -551.812256
v -4588.987305 34.606819 -508.999664
v -4519.449219 9.297816 -508.999664
v -4519.449219 9.298062 -551.812256
v -4386.409180 200.876831 -508.999817
v -4386.408203 200.876938 -551.812256
v -4373.559082 128.001022 -508.999847
v -4373.558105 128.001129 -551.812256
v -4465.194336 186.984833 -551.812256
v -4465.194336 186.984833 -508.999817
v -4452.343262 114.109230 -508.999817
v -4452.343262 114.109222 -551.812256
v -4278.281250 -418.969055 -466.999725
v -4278.281250 -418.968964 -509.812225
v -4214.195312 -381.969086 -466.999756
v -4214.195312 -381.968842 -509.812256
v -4238.281250 -488.251434 -509.812225
v -4238.281250 -488.251526 -466.999725
v -4174.195312 -451.251129 -466.999725
v -4174.195312 -451.250946 -509.812225
v -3740.589844 -33.004154 -456.999786
v -3780.589844 -102.287048 -456.999664
v -3760.589844 -67.645447 -483.999695
v -3676.503906 -70.004311 -456.999664
v -3696.503906 -104.645859 -483.999664
v -3716.503906 -139.286255 -456.999756
v -3796.296143 -366.542114 -459.999725
v -3716.295166 -366.541840 -459.999634
v -3756.296143 -366.541962 -486.999634
v -3796.296143 -292.541748 -459.999664
v -3756.295166 -292.541931 -486.999664
v -3716.296143 -292.541962 -459.999786
v -3700.732178 -363.234863 -459.999725
v -3635.199951 -409.121155 -459.999634
v -3667.965820 -386.177948 -486.999634
v -3658.288086 -302.617340 -459.999664
v -3625.521240 -325.560913 -486.999664
v -3592.754883 -348.503540 -459.999725
v -4498.687988 -151.918564 -554.999756
v -4447.264160 -213.202438 -554.999756
v -4472.976074 -182.560379 -581.999756
v -4442.000000 -104.352066 -554.999695
v -4416.288086 -134.994476 -581.999756
v -4390.578125 -165.635757 -554.999756
v -4246.719238 149.780945 -554.999756
v -4325.505371 135.888626 -554.999756
v -4286.112305 142.834717 -581.999756
v -4233.870117 76.904938 -554.999817
v -4273.263184 69.958939 -581.999817
v -4312.654297 63.013245 -554.999756
v -4561.625000 109.783028 -554.999756
v -4588.987305 34.606823 -554.999756
v -4575.306152 72.195068 -581.999817
v -4492.087402 84.473450 -554.999817
v -4505.769043 46.885075 -581.999756
v -4519.449707 9.298053 -554.999756
v -4386.408203 200.877426 -554.999756
v -4465.194336 186.984833 -554.999756
v -4425.801270 193.931335 -581.999756
v -4373.559082 128.000534 -554.999756
v -4412.952148 121.055031 -581.999756
v -4452.342285 114.109726 -554.999756
vn 0.5000 0.8660 -0.0000
vn -0.8660 0.5000 -0.0000
vn -0.5000 -0.8660 -0.0000
vn 0.8660 -0.5000 -0.0000
vn 0.1736 0.9848 -0.0000
vn -0.9848 0.1736 -0.0000
vn -0.9848 0.1737 -0.0000
vn -0.1736 -0.9848 -0.0000
vn 0.9848 -0.1737 -0.0000
vn -1.0000 -0.0000 -0.0000
vn -0.0000 -1.0000 -0.0000
vn 1.0000 -0.0000 -0.0000
vn -0.0000 1.0000 -0.0000
vn -0.8191 0.5736 -0.0000
vn -0.8192 0.5736 -0.0000
vn -0.5736 -0.8192 -0.0000
vn 0.8192 -0.5736 -0.0000
vn 0.5736 0.8192 -0.0000
vn -0.6428 0.7660 -0.0000
vn -0.7660 -0.6428 -0.0000
vn 0.6428 -0.7660 -0.0000
vn 0.7660 0.6428 -0.0000
vn 0.9848 0.1736 -0.0000
vn -0.1737 0.9848 -0.0000
vn -0.1736 0.9848 -0.0000
vn -0.9848 -0.1737 -0.0000
vn 0.1736 -0.9848 -0.0000
vn 0.3420 0.9397 -0.0000
vn -0.9397 0.3420 -0.0000
vn -0.3420 -0.9397 -0.0000
vn 0.9397 -0.3420 -0.0000
vn -0.5000 0.8660 -0.0000
vn -0.8660 -0.5000 -0.0000
vn 0.5000 -0.8660 -0.0000
vn 0.8660 0.5000 -0.0000
vn 0.7661 0.6428 -0.0000
vt -0.078125 0.101562
vt 1.078125 0.848633
vt 1.078125 0.101562
vt -0.078125 0.848633
vt 1.125000 0.637695
vt -0.125000 -0.109375
vt -0.125000 0.637695
vt 1.125000 -0.109375
vt 0.039856 1.000000
vt 0.637512 0.000000
vt 0.637512 1.000000
vt 0.039856 0.000000
vt 0.500000 1.109375
vt 1.125000 0.687500
vt -0.125000 0.687500
s 0
usemtl mt_toudai.002
f 3/1/1 2/2/1 1/3/1
f 4/4/1 2/2/1 3/1/1
f 5/5/2 1/6/2 2/7/2
f 6/8/2 1/6/2 5/5/2
f 6/3/3 8/4/3 7/1/3
f 5/2/3 8/4/3 6/3/3
f 8/9/4 3/10/4 7/11/4
f 4/12/4 3/10/4 8/9/4
f 11/1/5 10/2/5 9/3/5
f 12/4/5 10/2/5 11/1/5
f 13/5/6 9/6/6 10/7/6
f 14/8/7 9/6/7 13/5/7
f 14/3/8 16/4/8 15/1/8
f 13/2/8 16/4/8 14/3/8
f 16/9/9 11/10/9 15/11/9
f 12/12/9 11/10/9 16/9/9
f 19/1/10 18/2/10 17/3/10
f 20/4/10 18/2/10 19/1/10
f 21/5/11 17/6/11 18/7/11
f 22/8/11 17/6/11 21/5/11
f 22/3/12 24/4/12 23/1/12
f 21/2/12 24/4/12 22/3/12
f 24/9/13 19/10/13 23/11/13
f 20/12/13 19/10/13 24/9/13
f 27/1/13 26/2/13 25/3/13
f 28/4/13 26/2/13 27/1/13
f 29/5/10 25/6/10 26/7/10
f 30/8/10 25/6/10 29/5/10
f 30/3/11 32/4/11 31/1/11
f 29/2/11 32/4/11 30/3/11
f 32/9/12 27/10/12 31/11/12
f 28/12/12 27/10/12 32/9/12
f 35/1/14 34/2/14 33/3/14
f 36/4/15 34/2/15 35/1/15
f 37/5/16 33/6/16 34/7/16
f 38/8/16 33/6/16 37/5/16
f 38/3/17 40/4/17 39/1/17
f 37/2/17 40/4/17 38/3/17
f 40/9/18 35/10/18 39/11/18
f 36/12/18 35/10/18 40/9/18
f 43/1/19 42/2/19 41/3/19
f 44/4/19 42/2/19 43/1/19
f 45/5/20 41/6/20 42/7/20
f 46/8/20 41/6/20 45/5/20
f 46/3/21 48/4/21 47/1/21
f 45/2/21 48/4/21 46/3/21
f 48/9/22 43/10/22 47/11/22
f 44/12/22 43/10/22 48/9/22
f 51/1/23 50/2/23 49/3/23
f 52/4/23 50/2/23 51/1/23
f 53/5/24 49/6/24 50/7/24
f 54/8/25 49/6/25 53/5/25
f 54/3/26 56/4/26 55/1/26
f 53/2/26 56/4/26 54/3/26
f 56/9/27 51/10/27 55/11/27
f 52/12/27 51/10/27 56/9/27
f 59/1/28 58/2/28 57/3/28
f 60/4/28 58/2/28 59/1/28
f 61/5/29 57/6/29 58/7/29
f 62/8/29 57/6/29 61/5/29
f 62/3/30 64/4/30 63/1/30
f 61/2/30 64/4/30 62/3/30
f 64/9/31 59/10/31 63/11/31
f 60/12/31 59/10/31 64/9/31
f 67/1/23 66/2/23 65/3/23
f 68/4/23 66/2/23 67/1/23
f 69/5/25 65/6/25 66/7/25
f 70/8/25 65/6/25 69/5/25
f 70/3/26 72/4/26 71/1/26
f 69/2/26 72/4/26 70/3/26
f 72/9/27 67/10/27 71/11/27
f 68/12/27 67/10/27 72/9/27
f 75/1/32 74/2/32 73/3/32
f 76/4/32 74/2/32 75/1/32
f 77/5/33 73/6/33 74/7/33
f 78/8/33 73/6/33 77/5/33
f 78/3/34 80/4/34 79/1/34
f 77/2/34 80/4/34 78/3/34
f 80/9/35 75/10/35 79/11/35
f 76/12/35 75/10/35 80/9/35
f 83/13/2 82/14/2 81/15/2
f 86/14/4 85/13/4 84/15/4
f 89/13/11 88/14/11 87/15/11
f 92/14/13 91/13/13 90/15/13
f 95/13/16 94/14/16 93/15/16
f 98/14/18 97/13/18 96/15/18
f 101/13/20 100/14/20 99/15/20
f 104/14/36 103/13/36 102/15/36
f 107/13/24 106/14/24 105/15/24
f 110/14/27 109/13/27 108/15/27
f 113/13/29 112/14/29 111/15/29
f 116/14/31 115/13/31 114/15/31
f 119/13/24 118/14/24 117/15/24
f 122/14/27 121/13/27 120/15/27
