# Blender 4.1.1
# www.blender.org
mtllib polygon0.515.mtl
o GolfFlag.004
v -0.000035 -0.035000 0.000000
v -0.000033 -0.035000 -3.000000
v -0.030348 -0.017500 0.000000
v -0.030346 -0.017500 -3.000000
v -0.030348 0.017500 -0.000000
v -0.030346 0.017500 -3.000000
v -0.000035 0.035000 -0.000000
v -0.000033 0.035000 -3.000000
v 0.030278 0.017500 -0.000000
v 0.030280 0.017500 -3.000000
v 0.030278 -0.017500 0.000000
v 0.030280 -0.017500 -3.000000
v 0.740276 -0.004233 -2.644711
v 0.611300 -0.040330 -2.749330
v 0.732479 0.005957 -2.465855
v 0.608231 -0.035967 -2.584199
v 0.725279 0.015212 -2.288730
v 0.602871 -0.025954 -2.412417
v 0.719603 0.022077 -2.116029
v 0.595858 -0.011864 -2.235834
v 0.716138 0.025474 -1.949748
v 0.588089 0.004090 -2.057058
v 0.715224 0.024869 -1.790873
v 0.580580 0.019402 -1.879037
v 0.016271 -0.000203 -2.982587
v 0.060470 0.003065 -2.796983
v 0.162267 0.023077 -2.871986
v 0.170344 0.030977 -2.691644
v 0.315506 0.042861 -2.804544
v 0.318678 0.029077 -2.657532
v 0.463767 -0.018048 -2.785128
v 0.468118 -0.037946 -2.641540
v 0.070234 0.015682 -2.613462
v 0.176087 0.031624 -2.530624
v 0.323332 0.010725 -2.514823
v 0.470777 -0.051885 -2.493040
v 0.064255 0.022373 -2.441083
v 0.177209 0.026875 -2.377661
v 0.328532 -0.009313 -2.373701
v 0.471122 -0.057675 -2.337820
v 0.041326 0.024898 -2.276589
v 0.172379 0.019342 -2.228890
v 0.333258 -0.027888 -2.231201
v 0.468894 -0.054407 -2.175132
v 0.464240 -0.042594 -2.005398
v 0.336563 -0.042082 -2.084575
v 0.161976 0.010909 -2.089466
v 0.021253 0.002554 -2.165215
v 0.155435 -0.155435 -0.047250
v 0.089740 -0.089740 -0.081839
v 0.000000 -0.219818 -0.047250
v 0.000000 -0.126912 -0.081839
v 0.253824 0.000000 0.000000
v 0.219818 -0.000000 -0.047250
v 0.179481 -0.179481 0.000000
v 0.179481 0.179481 -0.000000
v 0.155435 0.155435 -0.047250
v 0.000000 0.253824 -0.000000
v 0.000000 0.219818 -0.047250
v -0.179481 0.179481 -0.000000
v -0.155435 0.155435 -0.047250
v -0.253824 0.000000 0.000000
v -0.219818 -0.000000 -0.047250
v -0.179481 -0.179481 0.000000
v -0.155435 -0.155435 -0.047250
v 0.000000 -0.253824 0.000000
v 0.219818 0.000000 0.047250
v 0.155435 -0.155435 0.047250
v 0.155435 0.155435 0.047250
v 0.000000 0.219818 0.047250
v -0.155435 0.155435 0.047250
v -0.219818 0.000000 0.047250
v -0.155435 -0.155435 0.047250
v 0.000000 -0.219818 0.047250
v 0.126912 0.000000 0.081839
v 0.089740 -0.089740 0.081839
v 0.089740 0.089740 0.081839
v 0.000000 0.126912 0.081839
v -0.089740 0.089740 0.081839
v -0.126912 0.000000 0.081839
v -0.089740 -0.089740 0.081839
v 0.000000 -0.126912 0.081839
v 0.126912 -0.000000 -0.081839
v 0.089740 0.089740 -0.081839
v 0.000000 0.126912 -0.081839
v -0.089740 0.089740 -0.081839
v -0.126912 -0.000000 -0.081839
v -0.089740 -0.089740 -0.081839
v 0.000000 -0.000000 -0.094500
v 0.000000 0.000000 0.094500
vn -0.5000 -0.8660 -0.0000
vn -1.0000 -0.0000 -0.0000
vn -0.5000 0.8660 -0.0000
vn 0.5000 0.8660 -0.0000
vn 1.0000 -0.0000 -0.0000
vn 0.5000 -0.8660 -0.0000
vn 0.2197 -0.9734 0.0650
vn 0.2932 -0.9556 0.0307
vn 0.2664 -0.9619 0.0611
vn 0.2592 -0.9637 0.0643
vn 0.2752 -0.9602 0.0472
vn 0.1857 -0.9789 0.0855
vn 0.2420 -0.9700 0.0249
vn 0.0882 -0.9918 0.0923
vn 0.1670 -0.9860 -0.0028
vn -0.0152 -0.9963 0.0850
vn 0.1755 -0.9842 -0.0245
vn 0.2162 -0.9758 0.0331
vn 0.1113 -0.9930 0.0385
vn 0.0088 -0.9956 -0.0935
vn -0.3700 -0.9257 -0.0788
vn -0.3963 -0.9110 -0.1142
vn -0.1164 -0.9843 -0.1329
vn 0.0033 -0.9996 0.0265
vn 0.1941 -0.9793 0.0570
vn 0.1500 -0.9887 -0.0014
vn -0.0138 -0.9999 0.0045
vn -0.1266 -0.9844 -0.1225
vn -0.3977 -0.9116 -0.1043
vn -0.3796 -0.9217 -0.0797
vn 0.0526 -0.9942 -0.0943
vn 0.1555 -0.9859 0.0623
vn 0.1162 -0.9923 0.0425
vn 0.0574 -0.9979 -0.0314
vn -0.1373 -0.9901 -0.0297
vn -0.2275 -0.9652 -0.1287
vn -0.3735 -0.9202 -0.1169
vn -0.3132 -0.9491 -0.0347
vn 0.2141 -0.9761 -0.0369
vn 0.2797 -0.9561 0.0874
vn 0.0290 -0.9994 0.0194
vn -0.0236 -0.9984 -0.0513
vn -0.2308 -0.9713 -0.0567
vn -0.2813 -0.9527 -0.1149
vn -0.2933 -0.9492 -0.1140
vn -0.1986 -0.9799 0.0170
vn 0.3277 -0.9445 0.0235
vn 0.3582 -0.9285 0.0984
vn 0.3856 -0.9177 0.0952
vn 0.3788 -0.9225 0.0746
vn -0.0462 -0.9966 0.0681
vn -0.1544 -0.9837 -0.0917
vn -0.2872 -0.9540 -0.0859
vn -0.2819 -0.9562 -0.0789
vn 0.0879 -0.9947 -0.0536
vn 0.0282 -0.9810 -0.1917
vn 0.1430 -0.3453 -0.9275
vn 0.7693 -0.3187 -0.5537
vn 0.7693 0.3187 -0.5537
vn 0.3187 0.7693 -0.5537
vn -0.3187 0.7693 -0.5537
vn -0.7693 0.3187 -0.5537
vn -0.7693 -0.3187 -0.5537
vn -0.3187 -0.7693 -0.5537
vn 0.3187 -0.7693 -0.5537
vn 0.7693 -0.3187 0.5537
vn 0.7693 0.3187 0.5537
vn 0.3187 0.7693 0.5537
vn -0.3187 0.7693 0.5537
vn -0.7693 0.3187 0.5537
vn -0.7693 -0.3187 0.5537
vn -0.3187 -0.7693 0.5537
vn 0.3187 -0.7693 0.5537
vn 0.3453 -0.1430 0.9275
vn 0.3453 0.1430 0.9275
vn 0.1430 0.3453 0.9275
vn -0.1430 0.3453 0.9275
vn -0.3453 0.1430 0.9275
vn -0.3453 -0.1430 0.9275
vn -0.1430 -0.3453 0.9275
vn 0.3453 -0.1430 -0.9275
vn -0.0000 -0.0000 -1.0000
vn 0.3453 0.1430 -0.9275
vn 0.1430 0.3453 -0.9275
vn 0.1430 -0.3453 0.9275
vn -0.1430 0.3453 -0.9275
vn -0.3453 0.1430 -0.9275
vn -0.3453 -0.1430 -0.9275
vn -0.1430 -0.3453 -0.9275
vn 0.0992 -0.0411 -0.9942
vn 0.0992 0.0411 -0.9942
vn 0.0411 0.0992 -0.9942
vn -0.0411 0.0992 -0.9942
vn -0.0992 0.0411 -0.9942
vn -0.0992 -0.0411 -0.9942
vn -0.0411 -0.0992 -0.9942
vn 0.0411 -0.0992 -0.9942
vn 0.0992 -0.0411 0.9942
vn 0.0992 0.0411 0.9942
vn 0.0411 0.0992 0.9942
vn -0.0411 0.0992 0.9942
vn -0.0992 0.0411 0.9942
vn -0.0992 -0.0411 0.9942
vn -0.0411 -0.0992 0.9942
vn 0.0411 -0.0992 0.9942
vt 0.603271 0.765198
vt 0.532471 0.977661
vt 0.532471 0.765198
vt 0.603271 0.977661
vt 0.674103 0.765198
vt 0.674103 0.977661
vt 0.744934 0.765198
vt 0.744934 0.977661
vt 0.815735 0.765198
vt 0.815735 0.977661
vt 0.886566 0.765198
vt 0.886566 0.977661
vt 0.957398 0.765198
vt 0.957398 0.977661
vt 0.455597 0.348083
vt 0.377533 0.426178
vt 0.455597 0.426178
vt 0.377533 0.348083
vt 0.455597 0.269989
vt 0.377533 0.269989
vt 0.455597 0.191925
vt 0.377533 0.191925
vt 0.455597 0.113831
vt 0.377533 0.113831
vt 0.455597 0.035736
vt 0.377533 0.035736
vt 0.143249 0.426178
vt 0.065155 0.348083
vt 0.065155 0.426178
vt 0.142700 0.348083
vt 0.221344 0.426178
vt 0.221344 0.348083
vt 0.299439 0.426178
vt 0.299439 0.348083
vt 0.065155 0.269989
vt 0.142700 0.269989
vt 0.221344 0.269989
vt 0.299439 0.269989
vt 0.065155 0.191925
vt 0.142700 0.191925
vt 0.221344 0.191925
vt 0.299439 0.191925
vt 0.065155 0.113831
vt 0.142700 0.113831
vt 0.221344 0.113831
vt 0.299439 0.113831
vt 0.299439 0.035736
vt 0.221344 0.035736
vt 0.143249 0.035736
vt 0.065155 0.035736
vt 0.635071 0.663696
vt 0.610016 0.697083
vt 0.610016 0.663696
vt 0.635071 0.697083
vt 0.810364 0.630310
vt 0.785309 0.663696
vt 0.785309 0.630310
vt 0.810364 0.663696
vt 0.760284 0.663696
vt 0.760284 0.630310
vt 0.735229 0.663696
vt 0.735229 0.630310
vt 0.710175 0.663696
vt 0.710175 0.630310
vt 0.685150 0.663696
vt 0.685150 0.630310
vt 0.660095 0.663696
vt 0.660095 0.630310
vt 0.635071 0.630310
vt 0.610016 0.630310
vt 0.810364 0.596924
vt 0.785309 0.596924
vt 0.760284 0.596924
vt 0.735229 0.596924
vt 0.710175 0.596924
vt 0.685150 0.596924
vt 0.660095 0.596924
vt 0.635071 0.596924
vt 0.610016 0.596924
vt 0.810364 0.563538
vt 0.785309 0.563538
vt 0.760284 0.563538
vt 0.735229 0.563538
vt 0.710175 0.563538
vt 0.685150 0.563538
vt 0.660095 0.563538
vt 0.635071 0.563538
vt 0.785309 0.697083
vt 0.810364 0.697083
vt 0.769043 0.983276
vt 0.783234 0.823029
vt 0.823456 0.913818
vt 0.674408 0.961945
vt 0.634186 0.871155
vt 0.688599 0.801697
vt 0.760284 0.697083
vt 0.735229 0.697083
vt 0.610016 0.563538
vt 0.710175 0.697083
vt 0.685150 0.697083
vt 0.660095 0.697083
vt 0.797852 0.730499
vt 0.772797 0.730499
vt 0.747742 0.730499
vt 0.722717 0.730499
vt 0.697662 0.730499
vt 0.672638 0.730499
vt 0.647583 0.730499
vt 0.622528 0.730499
vt 0.797852 0.530151
vt 0.772797 0.530151
vt 0.747742 0.530151
vt 0.722717 0.530151
vt 0.697662 0.530151
vt 0.672638 0.530151
vt 0.647583 0.530151
vt 0.622528 0.530151
s 0
usemtl M_flag
f 3/1/1 2/2/1 1/3/1
f 4/4/1 2/2/1 3/1/1
f 5/5/2 4/4/2 3/1/2
f 6/6/2 4/4/2 5/5/2
f 7/7/3 6/6/3 5/5/3
f 8/8/3 6/6/3 7/7/3
f 9/9/4 8/8/4 7/7/4
f 10/10/4 8/8/4 9/9/4
f 11/11/5 10/10/5 9/9/5
f 12/12/5 10/10/5 11/11/5
f 1/13/6 12/12/6 11/11/6
f 2/14/6 12/12/6 1/13/6
f 15/15/7 14/16/7 13/17/7
f 16/18/8 14/16/8 15/15/8
f 17/19/9 16/18/9 15/15/9
f 18/20/10 16/18/10 17/19/10
f 19/21/11 18/20/11 17/19/11
f 20/22/12 18/20/12 19/21/12
f 21/23/13 20/22/13 19/21/13
f 22/24/14 20/22/14 21/23/14
f 23/25/15 22/24/15 21/23/15
f 24/26/16 22/24/16 23/25/16
f 27/27/17 26/28/17 25/29/17
f 28/30/18 26/28/18 27/27/18
f 29/31/19 28/30/19 27/27/19
f 30/32/20 28/30/20 29/31/20
f 31/33/21 30/32/21 29/31/21
f 32/34/22 30/32/22 31/33/22
f 14/16/23 32/34/23 31/33/23
f 16/18/24 32/34/24 14/16/24
f 28/30/25 33/35/25 26/28/25
f 34/36/26 33/35/26 28/30/26
f 30/32/27 34/36/27 28/30/27
f 35/37/28 34/36/28 30/32/28
f 32/34/29 35/37/29 30/32/29
f 36/38/30 35/37/30 32/34/30
f 16/18/31 36/38/31 32/34/31
f 18/20/32 36/38/32 16/18/32
f 34/36/33 37/39/33 33/35/33
f 38/40/34 37/39/34 34/36/34
f 35/37/35 38/40/35 34/36/35
f 39/41/36 38/40/36 35/37/36
f 36/38/37 39/41/37 35/37/37
f 40/42/38 39/41/38 36/38/38
f 18/20/39 40/42/39 36/38/39
f 20/22/40 40/42/40 18/20/40
f 38/40/41 41/43/41 37/39/41
f 42/44/42 41/43/42 38/40/42
f 39/41/43 42/44/43 38/40/43
f 43/45/44 42/44/44 39/41/44
f 40/42/45 43/45/45 39/41/45
f 44/46/46 43/45/46 40/42/46
f 20/22/47 44/46/47 40/42/47
f 22/24/48 44/46/48 20/22/48
f 45/47/49 22/24/49 24/26/49
f 44/46/50 22/24/50 45/47/50
f 46/48/51 44/46/51 45/47/51
f 43/45/52 44/46/52 46/48/52
f 47/49/53 43/45/53 46/48/53
f 42/44/54 43/45/54 47/49/54
f 48/50/55 42/44/55 47/49/55
f 41/43/56 42/44/56 48/50/56
f 51/51/57 50/52/57 49/53/57
f 52/54/57 50/52/57 51/51/57
f 55/55/58 54/56/58 53/57/58
f 49/58/58 54/56/58 55/55/58
f 53/57/59 57/59/59 56/60/59
f 54/56/59 57/59/59 53/57/59
f 56/60/60 59/61/60 58/62/60
f 57/59/60 59/61/60 56/60/60
f 58/62/61 61/63/61 60/64/61
f 59/61/61 61/63/61 58/62/61
f 60/64/62 63/65/62 62/66/62
f 61/63/62 63/65/62 60/64/62
f 62/66/63 65/67/63 64/68/63
f 63/65/63 65/67/63 62/66/63
f 64/68/64 51/51/64 66/69/64
f 65/67/64 51/51/64 64/68/64
f 66/69/65 49/53/65 55/70/65
f 51/51/65 49/53/65 66/69/65
f 68/71/66 53/57/66 67/72/66
f 55/55/66 53/57/66 68/71/66
f 67/72/67 56/60/67 69/73/67
f 53/57/67 56/60/67 67/72/67
f 69/73/68 58/62/68 70/74/68
f 56/60/68 58/62/68 69/73/68
f 70/74/69 60/64/69 71/75/69
f 58/62/69 60/64/69 70/74/69
f 71/75/70 62/66/70 72/76/70
f 60/64/70 62/66/70 71/75/70
f 72/76/71 64/68/71 73/77/71
f 62/66/71 64/68/71 72/76/71
f 73/77/72 66/69/72 74/78/72
f 64/68/72 66/69/72 73/77/72
f 74/78/73 55/70/73 68/79/73
f 66/69/73 55/70/73 74/78/73
f 76/80/74 67/72/74 75/81/74
f 68/71/74 67/72/74 76/80/74
f 75/81/75 69/73/75 77/82/75
f 67/72/75 69/73/75 75/81/75
f 77/82/76 70/74/76 78/83/76
f 69/73/76 70/74/76 77/82/76
f 78/83/77 71/75/77 79/84/77
f 70/74/77 71/75/77 78/83/77
f 79/84/78 72/76/78 80/85/78
f 71/75/78 72/76/78 79/84/78
f 80/85/79 73/77/79 81/86/79
f 72/76/79 73/77/79 80/85/79
f 81/86/80 74/78/80 82/87/80
f 73/77/80 74/78/80 81/86/80
f 49/58/81 83/88/81 54/56/81
f 50/89/81 83/88/81 49/58/81
f 12/90/82 8/91/82 10/92/82
f 2/93/82 8/91/82 12/90/82
f 4/94/82 8/91/82 2/93/82
f 6/95/82 8/91/82 4/94/82
f 54/56/83 84/96/83 57/59/83
f 83/88/83 84/96/83 54/56/83
f 57/59/84 85/97/84 59/61/84
f 84/96/84 85/97/84 57/59/84
f 82/87/85 68/79/85 76/98/85
f 74/78/85 68/79/85 82/87/85
f 59/61/86 86/99/86 61/63/86
f 85/97/86 86/99/86 59/61/86
f 61/63/87 87/100/87 63/65/87
f 86/99/87 87/100/87 61/63/87
f 63/65/88 88/101/88 65/67/88
f 87/100/88 88/101/88 63/65/88
f 65/67/89 52/54/89 51/51/89
f 88/101/89 52/54/89 65/67/89
f 83/88/90 50/89/90 89/102/90
f 84/96/91 83/88/91 89/103/91
f 85/97/92 84/96/92 89/104/92
f 86/99/93 85/97/93 89/105/93
f 87/100/94 86/99/94 89/106/94
f 88/101/95 87/100/95 89/107/95
f 52/54/96 88/101/96 89/108/96
f 50/52/97 52/54/97 89/109/97
f 76/80/98 75/81/98 90/110/98
f 75/81/99 77/82/99 90/111/99
f 77/82/100 78/83/100 90/112/100
f 78/83/101 79/84/101 90/113/101
f 79/84/102 80/85/102 90/114/102
f 80/85/103 81/86/103 90/115/103
f 81/86/104 82/87/104 90/116/104
f 82/87/105 76/98/105 90/117/105
