# Blender 4.1.1
# www.blender.org
mtllib polygon0.195.mtl
o polygon0.010
v 66.306000 -5.396008 -71.989777
v 77.113960 -5.396369 -71.989777
v 66.306000 -5.396008 -61.190926
v 77.114067 -5.396286 -18.064890
v 66.306259 -5.395840 -18.064890
v -66.306000 5.396992 -71.989777
v -77.113945 5.396353 -71.989777
v -66.306000 5.396993 -61.190926
v -77.114784 5.396679 -18.064890
v -66.306580 5.396226 -18.064890
v 66.306000 5.396992 -71.989777
v 19.762890 5.396353 -71.989777
v 19.762890 -5.396369 -71.989777
v -19.762899 5.396353 -71.989777
v -66.306000 -5.396008 -71.989777
v -19.762899 -5.396369 -71.989777
v -77.113945 -5.396369 -71.989777
v 77.113960 5.396353 -71.989777
v 19.762890 -5.396368 -61.195095
v -19.762899 5.396354 -61.195095
v -66.306000 -5.396008 -61.190926
v -77.114059 -5.396286 -18.064890
v 54.204388 -5.462504 -61.189228
v 54.204388 5.462488 -61.189228
v 66.302170 -5.462502 -49.066830
v 66.302170 5.462492 -49.066830
v 19.762890 5.396354 -61.195095
v 66.306000 5.396993 -61.190918
v 66.306587 5.396226 -18.064890
v 77.114784 5.396679 -18.064890
v -54.204399 5.462489 -61.189228
v -54.204399 -5.462502 -61.189228
v -66.302170 5.462491 -49.066830
v -66.302170 -5.462503 -49.066830
v -19.762899 -5.396368 -61.195095
v -66.306000 -5.396002 -18.064890
v 66.306366 -5.396107 -61.190926
v 66.306000 5.396993 -61.190926
v -66.306366 -5.396106 -61.190926
v -66.306396 5.396563 -61.190926
v 83.990135 7.290752 -11.528162
v 71.362198 14.581498 -11.528162
v 71.362190 14.573368 -16.497431
v 58.734245 7.290750 -11.528162
v 58.741287 7.286682 -16.497429
v 58.741287 -7.286687 -16.497429
v 71.362198 -0.000002 -20.000000
v 71.362198 -14.573372 -16.497427
v 83.983101 -7.286686 -16.497429
v -58.644817 7.290752 -11.528162
v -71.272758 14.581498 -11.528162
v -71.272758 14.573368 -16.497431
v -83.900711 7.290750 -11.528162
v -83.893669 7.286682 -16.497429
v -83.893669 -7.286687 -16.497429
v -71.272758 -0.000002 -20.000000
v -71.272758 -14.573372 -16.497427
v -58.651859 -7.286686 -16.497429
v 20.373669 6.936395 -59.632694
v 16.937439 6.936398 -57.308224
v 17.480759 8.827964 -59.097847
v -16.702650 6.936398 -57.308224
v -17.245989 8.827964 -59.097847
v -20.138880 6.936396 -59.632679
v -18.383640 8.827963 -60.321697
v -18.383650 8.827962 -72.964821
v 83.990135 7.290751 -3.777197
v 71.362198 14.581500 -3.777196
v 58.734245 7.290750 -3.777196
v -16.212830 5.894110 -60.568310
v 16.447609 5.894110 -60.568310
v 18.618429 8.827963 -60.321697
v 18.618429 8.827958 -72.964806
v 16.447599 5.894104 -72.718185
v 17.480759 8.827960 -74.188644
v -16.212830 5.894108 -72.718208
v -17.245989 8.827962 -74.188644
v -58.644817 7.290751 -3.777197
v -71.272758 14.581500 -3.777196
v -83.900711 7.290750 -3.777196
v 20.373669 -6.528253 -59.632683
v 18.589739 -7.965706 -59.464211
v 16.937439 -6.528250 -57.308228
v -18.354950 -7.965706 -59.464211
v -16.702650 -6.528250 -57.308228
v -20.138880 -6.528252 -59.632683
v 20.373669 6.936392 -73.674736
v 16.937439 6.936389 -75.978279
v -16.702660 6.936389 -75.978279
v -20.138889 6.936393 -73.674736
v 83.990135 -7.290746 29.379929
v 83.990135 7.290757 29.379919
v -58.644817 -7.290746 29.379929
v -58.644817 7.290757 29.379919
v -20.138880 -6.528252 -73.674736
v -18.354950 -7.965710 -73.822296
v -16.702660 -6.528258 -75.978279
v 18.589739 -7.965705 -73.822296
v 16.937439 -6.528253 -75.978279
v 83.983101 7.286683 -16.497429
v 20.373669 -6.528254 -73.674736
v -58.651859 7.286683 -16.497429
v -83.900711 -7.290747 29.379929
v -83.900711 7.290754 29.379929
v 71.362198 14.581504 29.379915
v 58.734245 7.290754 29.379929
v 58.734245 -7.290747 29.379929
v -71.272758 14.581504 29.379915
v 71.362198 -14.581496 29.379932
v -71.272758 -14.581496 29.379932
vn -0.0000 -1.0000 -0.0000
vn -0.0000 -0.4470 0.8945
vn -0.0000 -0.7071 0.7071
vn -0.0000 -0.0000 1.0000
vn -0.0000 -0.7073 0.7069
vn -0.0000 1.0000 -0.0000
vn -0.0001 -0.0000 1.0000
vn 1.0000 -0.0000 -0.0000
vn -1.0000 0.0001 -0.0000
vn 0.7078 -0.0000 0.7064
vn 0.0001 -0.0000 1.0000
vn -1.0000 -0.0000 -0.0000
vn -0.0055 1.0000 0.0055
vn -0.0054 -1.0000 0.0054
vn 0.0055 1.0000 0.0055
vn -0.0001 -1.0000 -0.0000
vn -0.0000 0.8427 -0.5383
vn -0.0000 1.0000 -0.0008
vn 0.8661 0.4999 -0.0007
vn -0.8661 0.4999 -0.0007
vn -0.7298 0.4214 -0.5383
vn -0.7301 -0.4216 -0.5378
vn -0.0000 -0.0000 -1.0000
vn -0.0000 -0.8431 -0.5377
vn 0.7301 -0.4217 -0.5377
vn 0.0608 0.9906 0.1228
vn 0.2533 0.3270 0.9104
vn 0.8411 0.3329 0.4263
vn -0.2533 0.3270 0.9104
vn -0.0608 0.9906 0.1228
vn -0.8411 0.3329 0.4263
vn -0.0891 0.9947 0.0519
vn -0.0886 0.9948 -0.0502
vn 0.8661 0.4998 -0.0001
vn -0.8661 0.4998 -0.0001
vn 0.4944 0.6305 -0.5984
vn -0.4944 0.6305 -0.5983
vn 0.0891 0.9947 0.0519
vn 0.0590 0.9907 -0.1225
vn -0.4944 0.6305 0.5984
vn 0.0886 0.9948 -0.0502
vn 0.4944 0.6305 0.5984
vn -0.0590 0.9907 -0.1224
vn 0.2287 -0.4101 0.8829
vn 0.3466 -0.8702 0.3503
vn 0.8368 -0.3670 0.4063
vn -0.3466 -0.8702 0.3503
vn -0.2287 -0.4101 0.8829
vn -0.8368 -0.3670 0.4063
vn 0.8399 0.3335 -0.4283
vn 0.2516 0.3273 -0.9108
vn -0.2516 0.3273 -0.9108
vn -0.8399 0.3335 -0.4283
vn 0.8660 -0.5000 -0.0001
vn 0.8660 0.5000 -0.0000
vn -0.2271 -0.4105 -0.8831
vn -0.3451 -0.8713 -0.3488
vn -0.8355 -0.3675 -0.4085
vn 0.3451 -0.8713 -0.3488
vn 0.2271 -0.4105 -0.8831
vn 0.7298 0.4214 -0.5383
vn 0.8355 -0.3675 -0.4085
vn -0.7078 -0.0000 -0.7064
vn -0.0001 -0.0000 -1.0000
vn -0.0001 1.0000 -0.0000
vn 1.0000 0.0001 -0.0000
vn -1.0000 -0.0001 -0.0000
vn -0.8660 -0.5001 -0.0001
vn -0.8660 0.5000 -0.0000
vn -0.0000 -1.0000 -0.0002
vn 0.7078 -0.0000 -0.7064
vn 0.0001 -0.0000 -1.0000
vn 0.0001 1.0000 -0.0000
vn 0.0054 1.0000 -0.0054
vn -0.0054 1.0000 -0.0054
vt 0.500000 1.216309
vt 0.000000 1.572021
vt 0.000000 1.216309
vt 0.550049 1.216309
vt 2.500000 1.572021
vt 0.550049 1.572021
vt 0.500000 1.572021
vt 0.487549 1.572021
vt 0.551270 1.216309
vt 0.551270 1.572021
vt 2.500000 1.216309
vt 0.550049 1.571777
vt 2.500000 1.571777
vt 3.006836 1.575195
vt 3.500000 1.215088
vt 3.500000 1.575195
vt 1.537598 1.251709
vt 1.537598 1.577148
vt 1.874756 1.251709
vt 1.001221 -0.142578
vt 1.001221 -0.159180
vt 0.924072 -0.079102
vt 1.078125 -0.079102
vt 1.070313 -0.070801
vt 1.070313 0.072754
vt 1.001221 0.000977
vt 1.001221 0.144531
vt 0.932129 0.072754
vt 0.809815 0.842529
vt 0.784424 0.842529
vt 0.784424 0.842285
vt 0.809815 0.842285
vt 0.809815 0.842041
vt -1.640625 0.356934
vt -1.286621 0.020752
vt -1.286621 0.356934
vt -1.640625 0.020752
vt -1.971680 0.356934
vt -1.971191 0.020752
vt 0.793213 0.900635
vt 0.792725 0.832275
vt 0.792969 0.900635
vt 0.791992 0.900635
vt 0.791992 0.832275
vt 0.792236 0.900635
vt 0.758789 0.981934
vt 0.771729 0.981690
vt 0.758789 0.980713
vt 0.784424 0.842041
vt 0.784424 0.841553
vt -1.226074 -0.020752
vt -1.286621 0.030518
vt -1.561035 -0.020752
vt -1.466797 -0.020752
vt 0.758789 0.978516
vt 0.771729 0.979736
vt 0.758789 0.979981
vt 0.932129 -0.070801
vt 3.006836 1.215088
vt -1.893311 -0.020752
vt -1.720947 0.011963
vt -1.841064 -0.020752
vt -1.560791 -0.020752
vt 0.766357 0.942139
vt 0.749023 0.966797
vt 0.749023 0.942139
vt 0.766357 0.966797
vt 0.783935 0.944092
vt 0.768310 0.971680
vt 0.750244 0.978271
vt 0.744629 0.979004
vt 0.739258 1.171875
vt 0.551270 0.831299
vt 0.551270 1.171875
vt 0.739258 0.831299
vt 0.782959 0.832031
vt 0.787354 0.890869
vt 0.787354 0.832031
vt 0.782959 0.890869
vt -1.550049 -0.020752
vt -1.601074 0.020996
vt -1.597656 -0.020752
vt -1.550049 0.027100
vt -1.526855 0.018555
vt -1.595947 -0.020752
vt 0.500000 1.216553
vt 0.792969 0.833008
vt 0.761719 0.917236
vt 0.761475 0.911621
vt -1.808350 0.017334
vt -1.882324 -0.020752
vt 0.946289 -0.098633
vt 0.930908 -0.176758
vt 0.947266 -0.173340
s 1
usemtl mt_body
f 8/1/1 7/2/2 6/3/3
f 15/4/4 14/5/5 6/6/3
f 6/7/3 17/3/4 15/2/4
f 7/1/2 17/3/4 6/7/3
f 1/2/4 2/3/4 11/8/4
f 13/5/6 3/9/6 1/10/6
f 19/11/6 3/9/6 13/5/6
f 14/5/5 8/9/1 6/10/3
s 0
f 22/5/6 21/1/6 17/2/6
f 3/12/7 27/11/7 19/13/7
s 1
f 27/11/1 12/5/1 28/9/1
s 0
f 3/1/8 29/13/8 5/11/8
f 28/7/8 29/13/8 3/1/8
f 18/2/9 4/11/9 30/5/9
f 33/14/10 32/15/10 31/16/10
f 8/4/11 21/12/11 20/11/11
f 16/5/6 21/9/6 35/11/6
s 1
f 15/10/6 21/9/6 16/5/6
s 0
f 21/1/12 36/11/12 8/7/12
f 7/2/8 9/5/8 17/3/8
f 37/17/13 23/18/13 25/19/13
f 26/19/14 24/18/14 38/17/14
f 34/19/15 32/18/15 39/17/15
f 22/5/6 36/11/6 21/1/6
s 1
f 18/2/16 30/5/16 28/1/16
f 43/20/17 42/21/18 41/22/19
f 44/23/20 42/21/18 43/20/17
f 45/24/21 44/23/20 43/20/17
f 46/25/22 44/23/20 45/24/21
f 47/26/23 46/25/22 45/24/21
f 48/27/24 46/25/22 47/26/23
f 49/28/25 48/27/24 47/26/23
f 52/20/17 51/21/18 50/22/19
f 53/23/20 51/21/18 52/20/17
f 54/24/21 53/23/20 52/20/17
f 55/25/22 53/23/20 54/24/21
f 56/26/23 55/25/22 54/24/21
f 57/27/24 55/25/22 56/26/23
f 58/28/25 57/27/24 56/26/23
f 61/29/26 60/30/27 59/31/28
f 62/30/29 60/30/27 61/29/26
f 63/29/30 62/30/29 61/29/26
f 64/31/31 62/30/29 63/29/30
f 65/32/32 64/31/31 63/29/30
f 66/33/33 64/31/31 65/32/32
f 30/5/6 28/1/6 29/11/6
s 0
f 2/3/8 18/2/8 4/11/8
s 1
f 42/34/18 67/35/34 41/36/19
f 68/37/6 67/35/34 42/34/18
f 44/38/20 68/37/6 42/34/18
f 69/39/35 68/37/6 44/38/20
f 63/40/30 70/41/36 65/42/32
f 71/41/37 70/41/36 63/40/30
f 61/40/26 71/41/37 63/40/30
f 72/42/38 71/41/37 61/40/26
f 75/43/39 74/44/40 73/45/41
f 76/44/42 74/44/40 75/43/39
f 77/43/43 76/44/42 75/43/39
f 66/45/33 76/44/42 77/43/43
f 51/34/18 78/35/34 50/36/19
f 79/37/6 78/35/34 51/34/18
f 53/38/20 79/37/6 51/34/18
f 80/39/35 79/37/6 53/38/20
f 83/46/44 82/47/45 81/48/46
f 84/47/47 82/47/45 83/46/44
f 85/46/48 84/47/47 83/46/44
f 86/48/49 84/47/47 85/46/48
f 73/33/41 87/49/50 75/33/39
f 59/31/28 87/49/50 73/33/41
f 72/32/38 59/31/28 73/33/41
f 61/29/26 59/31/28 72/32/38
f 88/50/51 75/33/39 87/49/50
f 77/33/43 75/33/39 88/50/51
f 89/50/52 77/33/43 88/50/51
f 90/49/53 77/33/43 89/50/52
f 67/35/34 49/51/25 41/52/19
f 91/53/54 49/51/25 67/35/34
f 92/54/55 91/53/54 67/35/34
s 0
f 21/1/1 17/2/1 15/3/1
s 1
f 78/35/34 58/51/25 50/52/19
f 93/53/54 58/51/25 78/35/34
f 94/54/55 93/53/54 78/35/34
f 97/55/56 96/56/57 95/57/58
f 98/56/59 96/56/57 97/55/56
f 99/55/60 98/56/59 97/55/56
f 100/58/61 43/20/17 41/22/19
f 47/26/23 43/20/17 100/58/61
f 49/28/25 47/26/23 100/58/61
f 98/56/59 81/48/46 82/47/45
f 101/57/62 81/48/46 98/56/59
f 99/55/60 101/57/62 98/56/59
f 102/58/61 52/20/17 50/22/19
f 56/26/23 52/20/17 102/58/61
f 58/28/25 56/26/23 102/58/61
f 12/5/6 28/9/6 11/10/6
s 0
f 34/59/63 33/14/63 32/15/63
f 21/12/64 20/11/64 35/13/64
f 9/5/65 8/1/65 7/2/65
f 36/11/66 8/7/66 10/13/66
f 9/5/67 17/3/67 22/11/67
s 1
f 103/60/68 80/39/35 55/61/22
f 104/62/69 80/39/35 103/60/68
f 67/35/34 105/63/6 92/54/55
f 68/37/6 105/63/6 67/35/34
f 68/37/6 106/62/69 105/63/6
f 69/39/35 106/62/69 68/37/6
f 69/39/35 107/60/68 106/62/69
f 46/61/22 107/60/68 69/39/35
f 59/64/28 101/65/62 87/66/50
f 81/67/46 101/65/62 59/64/28
f 59/68/28 83/69/44 81/68/46
f 60/69/27 83/69/44 59/68/28
f 101/70/62 88/71/51 87/70/50
f 99/71/60 88/71/51 101/70/62
f 95/65/58 64/64/31 90/66/53
f 86/67/49 64/64/31 95/65/58
f 86/68/49 62/69/29 64/68/31
f 85/69/48 62/69/29 86/68/49
f 90/70/53 97/71/56 95/70/58
f 89/71/52 97/71/56 90/70/53
f 60/69/27 85/69/48 83/69/44
f 62/69/29 85/69/48 60/69/27
f 99/71/60 89/71/52 88/71/51
f 97/71/56 89/71/52 99/71/60
f 82/72/45 96/73/57 98/74/59
f 84/75/47 96/73/57 82/72/45
f 71/76/37 73/77/41 74/78/40
f 72/79/38 73/77/41 71/76/37
s 0
f 1/4/23 12/5/23 11/6/23
f 13/11/23 12/5/23 1/4/23
s 1
f 78/35/34 108/63/6 94/54/55
f 79/37/6 108/63/6 78/35/34
f 79/37/6 104/62/69 108/63/6
f 80/39/35 104/62/69 79/37/6
f 46/80/22 109/81/70 107/82/68
f 48/83/24 109/81/70 46/80/22
f 48/84/24 91/53/54 109/81/70
f 49/85/25 91/53/54 48/84/24
s 0
f 16/11/23 15/4/23 14/5/23
s 1
f 57/84/24 93/53/54 110/81/70
f 58/85/25 93/53/54 57/84/24
s 0
f 2/3/23 11/8/23 18/86/23
f 20/11/6 14/5/6 8/9/6
s 1
f 86/48/49 96/56/57 84/47/47
f 95/57/58 96/56/57 86/48/49
f 55/80/22 110/81/70 103/82/68
f 57/83/24 110/81/70 55/80/22
f 2/2/1 3/1/1 1/3/1
f 4/5/1 3/1/1 2/2/1
f 70/87/36 66/45/33 65/42/32
f 76/44/42 66/45/33 70/87/36
s 0
f 76/88/6 71/89/6 74/88/6
f 70/89/6 71/89/6 76/88/6
s 1
f 90/49/53 66/33/33 77/33/43
f 64/31/31 66/33/33 90/49/53
s 0
f 24/16/71 25/59/71 23/15/71
f 26/14/71 25/59/71 24/16/71
f 28/4/72 3/12/72 27/11/72
s 1
f 46/90/22 69/39/35 44/91/20
f 41/92/19 49/93/25 100/94/61
f 11/3/6 28/1/6 18/2/73
s 0
f 26/19/74 28/17/74 24/18/74
s 1
f 3/1/1 4/5/1 5/11/1
s 0
f 40/17/75 33/19/75 31/18/75
f 8/1/6 9/5/6 10/11/6
s 1
f 55/90/22 80/39/35 53/91/20
f 50/92/19 58/93/25 102/94/61
f 47/26/23 45/24/21 43/20/17
f 56/26/23 54/24/21 52/20/17
