# Blender 4.1.1
# www.blender.org
mtllib polygon0.473.mtl
o TreeC.099
v 2.234375 0.000000 0.916016
v 1.478516 -1.408204 -9.843749
v 1.117188 -1.935547 0.916016
v 0.525391 -3.050782 -9.716797
v -1.117188 -1.935547 0.916016
v -1.376953 -3.050782 -9.716797
v -2.234375 0.000000 0.916016
v -2.330078 -1.408204 -9.843749
v 1.017578 -1.511721 -18.800777
v 0.154297 -3.007815 -18.851557
v -1.572266 -3.007815 -18.851557
v -2.435547 -1.511721 -18.800777
v 0.689453 -0.320316 -27.511719
v 0.025391 -1.541019 -27.832027
v -1.302734 -1.541019 -27.832027
v -1.966797 -0.320316 -27.511719
v 0.410156 2.015621 -35.552731
v 0.042969 1.316402 -35.814449
v -0.689453 1.316402 -35.814449
v -1.056641 2.015621 -35.552731
v -1.117188 1.935547 0.916015
v -1.376953 0.355468 -9.970703
v 1.117188 1.935547 0.916015
v 0.525391 0.355468 -9.970703
v -1.572266 -0.017580 -18.748049
v 0.154297 -0.017580 -18.748049
v -1.302734 0.900387 -27.193359
v 0.025391 0.900387 -27.193359
v -0.689453 2.769526 -35.285160
v 0.042969 2.769526 -35.285160
v 0.072266 3.357417 -38.386719
v 0.000000 12.664058 -19.648441
v 0.000000 17.013666 -22.115231
v 0.000000 -7.074225 -54.439449
v 0.000000 -2.724616 -56.906250
v -13.742189 0.232416 -51.347660
v -11.105470 3.179682 -54.408195
v 13.742189 5.357419 -22.740229
v 16.376949 8.304686 -25.800781
v -13.742189 14.845694 -45.166019
v -11.105470 14.990224 -49.412109
v 13.742189 -9.255862 -28.923828
v 16.376949 -9.111331 -33.169918
v -0.343750 -16.562502 -32.013660
v 0.000000 -17.820314 -36.853516
v 0.000000 22.152332 -42.074219
v 0.000000 20.894524 -46.914059
v -13.742189 -9.255862 -28.923828
v -16.376949 -9.111331 -33.169918
v 13.742189 14.845694 -45.166019
v 11.105470 14.990224 -49.412109
v -13.742189 5.357419 -22.740229
v -16.376949 8.304686 -25.800781
v 13.742189 0.232416 -51.347660
v 11.105470 3.179682 -54.408195
v -10.000000 -13.156254 -43.792965
v -10.000000 -11.207034 -48.398434
v 10.000000 18.746084 -30.294920
v 10.000000 20.695303 -34.900391
v -20.000000 2.794917 -37.044918
v -20.000000 4.744136 -41.648438
v 20.000000 2.794917 -37.044918
v 20.000000 4.744136 -41.648438
v -10.000000 18.746084 -30.294920
v -10.000000 20.695303 -34.900391
v 10.000000 -13.156254 -43.792965
v 10.000000 -11.207034 -48.398434
vn 0.9967 0.0379 -0.0714
vn 0.9975 -0.0370 -0.0598
vn 0.5271 -0.8477 0.0598
vn 0.4898 -0.8716 0.0206
vn -0.5064 -0.8562 0.1022
vn -0.4926 -0.8686 0.0544
vn -0.9991 0.0417 0.0037
vn -0.9994 -0.0315 0.0140
vn 0.9987 -0.0224 -0.0450
vn 0.4867 -0.8693 -0.0865
vn -0.4954 -0.8656 -0.0734
vn -0.9995 -0.0218 -0.0220
vn 0.9993 -0.0159 -0.0347
vn 0.5025 -0.8362 -0.2198
vn -0.5075 -0.8271 -0.2414
vn -0.9969 -0.0008 -0.0787
vn 0.9970 -0.0095 -0.0767
vn 0.5033 -0.7579 -0.4150
vn -0.5105 -0.7171 -0.4744
vn -0.9758 0.0453 -0.2140
vn -0.4738 0.8726 -0.1181
vn -0.5195 0.8519 -0.0661
vn 0.4879 0.8597 -0.1513
vn 0.5168 0.8494 -0.1072
vn -0.5178 0.8552 0.0242
vn 0.5083 0.8611 0.0151
vn -0.5284 0.8417 0.1113
vn 0.5216 0.8423 0.1360
vn -0.5431 0.8346 0.0917
vn 0.5333 0.8277 0.1747
vn 0.1201 0.4134 -0.9026
vn 1.0000 -0.0000 -0.0000
vn -0.4999 0.7976 0.3374
vn -0.5000 0.7975 0.3375
vn -0.5001 0.7975 0.3375
vn 0.4999 0.7976 0.3376
vn 0.5000 0.7976 0.3374
vn -0.9976 -0.0090 -0.0685
vn -0.9980 -0.0082 -0.0631
vn -1.0000 -0.0007 -0.0054
vn -1.0000 -0.0000 -0.0000
vn -0.5000 0.7976 0.3374
vn -0.4999 0.7976 0.3376
vn 0.5000 0.7975 0.3375
vn 0.4999 0.7976 0.3374
vn -0.8660 0.4605 0.1949
vn -0.0000 0.9209 0.3899
vn 0.8660 0.4605 0.1949
vt 0.052734 -6.738770
vt 0.112793 -4.144531
vt 0.113770 -6.738770
vt 0.052734 -4.144531
vt -0.037598 -6.738770
vt -0.037598 -4.144531
vt -0.097656 -6.738770
vt -0.097656 -4.144531
vt 0.111816 -1.805176
vt 0.052734 -1.805176
vt -0.038086 -1.805176
vt -0.097168 -1.805176
vt 0.111328 0.326660
vt 0.052734 0.326660
vt -0.038086 0.326660
vt -0.097168 0.326660
vt 0.110352 2.856445
vt 0.052246 2.856445
vt -0.038086 2.856445
vt -0.096680 2.856445
vt 0.008301 4.132813
vt 0.006348 4.062500
vt 1.857910 0.000000
vt 0.142090 1.000000
vt 0.142090 0.000000
vt 1.857910 1.000000
s 1
usemtl mt_WS2_common_tree3
f 3/1/3 2/2/2 1/3/1
f 4/4/4 2/2/2 3/1/3
f 5/5/5 4/4/4 3/1/3
f 6/6/6 4/4/4 5/5/5
f 7/7/7 6/6/6 5/5/5
f 8/8/8 6/6/6 7/7/7
f 4/4/4 9/9/9 2/2/2
f 10/10/10 9/9/9 4/4/4
f 6/6/6 10/10/10 4/4/4
f 11/11/11 10/10/10 6/6/6
f 8/8/8 11/11/11 6/6/6
f 12/12/12 11/11/11 8/8/8
f 10/10/10 13/13/13 9/9/9
f 14/14/14 13/13/13 10/10/10
f 11/11/11 14/14/14 10/10/10
f 15/15/15 14/14/14 11/11/11
f 12/12/12 15/15/15 11/11/11
f 16/16/16 15/15/15 12/12/12
f 14/14/14 17/17/17 13/13/13
f 18/18/18 17/17/17 14/14/14
f 15/15/15 18/18/18 14/14/14
f 19/19/19 18/18/18 15/15/15
f 16/16/16 19/19/19 15/15/15
f 20/20/20 19/19/19 16/16/16
f 21/5/21 8/8/8 7/7/7
f 22/6/22 8/8/8 21/5/21
f 23/1/23 22/6/22 21/5/21
f 24/4/24 22/6/22 23/1/23
f 1/3/1 24/4/24 23/1/23
f 2/2/2 24/4/24 1/3/1
f 22/6/22 12/12/12 8/8/8
f 25/11/25 12/12/12 22/6/22
f 24/4/24 25/11/25 22/6/22
f 26/10/26 25/11/25 24/4/24
f 2/2/2 26/10/26 24/4/24
f 9/9/9 26/10/26 2/2/2
f 25/11/25 16/16/16 12/12/12
f 27/15/27 16/16/16 25/11/25
f 26/10/26 27/15/27 25/11/25
f 28/14/28 27/15/27 26/10/26
f 9/9/9 28/14/28 26/10/26
f 13/13/13 28/14/28 9/9/9
f 27/15/27 20/20/20 16/16/16
f 29/19/29 20/20/20 27/15/27
f 28/14/28 29/19/29 27/15/27
f 30/18/30 29/19/29 28/14/28
f 13/13/13 30/18/30 28/14/28
f 17/17/17 30/18/30 13/13/13
f 31/21/31 30/18/30 17/17/17
f 29/19/29 30/18/30 31/21/31
f 20/20/20 29/19/29 31/21/31
f 18/18/18 31/22/31 17/17/17
f 19/19/19 31/22/31 18/18/18
f 19/19/19 20/20/20 31/22/31
f 34/23/32 33/24/32 32/25/32
f 35/26/32 33/24/32 34/23/32
f 38/23/34 37/24/33 36/25/33
f 39/26/35 37/24/33 38/23/34
f 42/23/37 41/24/36 40/25/36
f 43/26/37 41/24/36 42/23/37
f 46/23/40 45/24/39 44/25/38
f 47/26/41 45/24/39 46/23/40
f 50/23/43 49/24/42 48/25/42
f 51/26/43 49/24/42 50/23/43
f 54/23/37 53/24/44 52/25/44
f 55/26/45 53/24/44 54/23/37
f 58/23/46 57/24/46 56/25/46
f 59/26/46 57/24/46 58/23/46
f 62/23/47 61/24/47 60/25/47
f 63/26/47 61/24/47 62/23/47
f 66/23/48 65/24/48 64/25/48
f 67/26/48 65/24/48 66/23/48
