# Blender 4.1.1
# www.blender.org
mtllib Object_8.mtl
o Object_11
v 1135180.875000 1161008.875000 4779.996582
v 1135758.000000 1160792.625000 4779.996582
v 1135262.500000 1161147.750000 4779.996582
v 1135467.000000 1160508.875000 4779.996094
v 1134728.000000 1160437.625000 4779.996094
v 1135753.125000 1160008.875000 4779.996094
v 1134728.000000 1159881.875000 4779.996094
v 1134728.000000 1158874.250000 4779.995605
v 1133703.000000 1160008.875000 4779.996094
v 1133227.875000 1159060.000000 4779.995605
v 1132324.750000 1159999.875000 4779.996094
v 1130986.750000 1159227.375000 4779.995605
v 1133703.000000 1162286.500000 4779.997070
v 1134728.125000 1162581.500000 4779.997070
v 1133623.875000 1162444.750000 4779.997070
v 1134728.125000 1162413.500000 4779.997070
v 1134728.125000 1161857.750000 4779.996582
v 1135753.125000 1162286.500000 4779.997070
v 1135467.000000 1161786.500000 4779.996582
v 1135758.000000 1161502.750000 4779.996582
v 1135180.875000 1161286.500000 4779.996582
v 1135262.500000 1161147.750000 4779.996582
v 1138562.000000 1159547.500000 4779.996094
v 1138469.375000 1159227.375000 4779.995605
v 1139361.375000 1158712.375000 4779.995605
v 1137131.375000 1159999.875000 4779.996094
v 1137463.375000 1161147.750000 4779.996582
v 1136422.375000 1161147.750000 4779.996582
v 1136239.375000 1161780.625000 4779.996582
v 1136228.250000 1159060.000000 4779.995605
v 1136940.875000 1157636.875000 4779.995117
v 1134728.000000 1157362.875000 4779.995117
v 1134728.000000 1155683.375000 4779.994629
v 1132515.250000 1157636.875000 4779.995117
v 1131723.375000 1156055.500000 4779.994629
v 1129500.000000 1158369.125000 4779.995605
v 1136239.375000 1160514.750000 4779.996094
v 1135758.000000 1160792.625000 4779.996582
v 1135842.500000 1161147.750000 4779.996582
v 1133989.125000 1160508.875000 4779.996094
v 1134275.250000 1161008.875000 4779.996582
v 1133698.125000 1160792.625000 4779.996582
v 1134193.625000 1161147.750000 4779.996582
v 1137131.375000 1159999.875000 4779.996094
v 1138469.375000 1159227.375000 4779.995605
v 1139361.375000 1158712.375000 4779.995605
v 1137732.750000 1156055.500000 4779.994629
v 1136635.750000 1162009.500000 4779.996582
v 1135832.250000 1162444.750000 4779.997070
v 1132324.750000 1159999.875000 4779.996094
v 1131992.750000 1161147.750000 4779.996582
v 1130894.125000 1159547.500000 4779.996094
v 1133033.750000 1161147.750000 4779.996582
v 1133216.750000 1160514.750000 4779.996094
v 1133698.125000 1160792.625000 4779.996582
v 1132820.375000 1162009.500000 4779.996582
v 1133703.000000 1162286.500000 4779.997070
v 1133623.875000 1162444.750000 4779.997070
v 1133216.750000 1161780.625000 4779.996582
v 1133698.125000 1161502.750000 4779.996582
v 1133613.625000 1161147.750000 4779.996582
v 1134193.625000 1161147.750000 4779.996582
v 1134275.250000 1161286.500000 4779.996582
v 1133989.125000 1161786.500000 4779.996582
v 1136239.375000 1160514.750000 4779.996094
v 1133989.125000 1161786.500000 4779.996582
v 1134275.250000 1161286.500000 4779.996582
v 1130986.750000 1159227.375000 4779.995605
v 1129500.000000 1158369.125000 4779.995605
v 1133216.750000 1160514.750000 4779.996094
v 1119339.375000 1118741.125000 3129.982178
v 1119252.875000 1118777.000000 3171.697754
v 1119252.875000 1118777.000000 3129.982178
v 1119339.375000 1118741.125000 3171.697998
v 1119252.875000 1118777.000000 3171.697754
v 1119375.125000 1118654.750000 3129.982178
v 1119375.125000 1118654.750000 3171.697754
v 1119339.375000 1118568.250000 3129.982178
v 1119339.375000 1118568.250000 3171.697998
v 1119252.875000 1118532.375000 3129.982178
v 1119252.875000 1118532.375000 3171.697754
v 1119166.500000 1118568.250000 3129.982178
v 1119166.500000 1118568.250000 3171.697998
v 1119130.625000 1118654.750000 3129.982178
v 1119130.625000 1118654.750000 3171.697754
v 1119166.500000 1118741.125000 3129.982178
v 1119166.500000 1118741.125000 3171.697998
v 1119252.875000 1118777.000000 3129.982178
v 1119252.875000 1118777.000000 3129.982178
v 1119252.875000 1118777.000000 3171.697754
v 1119033.750000 1118873.875000 2863.876709
v 1119252.875000 1118844.125000 3169.982178
v 1119252.875000 1118964.625000 2863.876709
v 1119033.750000 1118873.875000 2863.876709
v 1119118.875000 1118788.625000 3169.982178
v 1119252.875000 1118844.125000 3169.982178
v 1118942.875000 1118654.750000 2863.876709
v 1119118.875000 1118788.625000 3169.982178
v 1118942.875000 1118654.750000 2863.876709
v 1119063.375000 1118654.750000 3169.982178
v 1119118.875000 1118788.625000 3169.982178
v 1119033.750000 1118435.500000 2863.876709
v 1119063.375000 1118654.750000 3169.982178
v 1119033.750000 1118435.500000 2863.876709
v 1119118.875000 1118520.750000 3169.982178
v 1119252.875000 1118344.750000 2863.876709
v 1119118.875000 1118520.750000 3169.982178
v 1119252.875000 1118465.250000 3169.982178
v 1119472.125000 1118435.500000 2863.876709
v 1119472.125000 1118435.500000 2863.876709
v 1119386.875000 1118520.750000 3169.982178
v 1119562.875000 1118654.750000 2863.876709
v 1119386.875000 1118520.750000 3169.982178
v 1119442.375000 1118654.750000 3169.982178
v 1119472.125000 1118873.875000 2863.876709
v 1119442.375000 1118654.750000 3169.982178
v 1119472.125000 1118873.875000 2863.876709
v 1119386.875000 1118788.625000 3169.982178
v 1119252.875000 1118964.625000 2863.876709
v 1119252.875000 1118964.625000 2863.876709
v 1119252.875000 1118844.125000 3169.982178
v 1119252.875000 1119072.875000 2863.876953
v 1119033.750000 1118873.875000 2863.876709
v 1119252.875000 1118964.625000 2863.876709
v 1118957.125000 1118950.375000 2863.876709
v 1119252.875000 1119235.250000 2863.876953
v 1118842.375000 1119065.250000 2863.876953
v 1119252.875000 1119451.750000 2863.876953
v 1118689.250000 1119218.250000 2863.876953
v 1118942.875000 1118654.750000 2863.876709
v 1118834.625000 1118654.750000 2863.876709
v 1118672.375000 1118654.750000 2863.876709
v 1118455.875000 1118654.750000 2863.876709
v 1119033.750000 1118435.500000 2863.876709
v 1118957.125000 1118359.000000 2863.876709
v 1118842.375000 1118244.125000 2863.876465
v 1118689.250000 1118091.125000 2863.876465
v 1119252.875000 1118344.750000 2863.876709
v 1119252.875000 1118236.500000 2863.876465
v 1119252.875000 1118074.125000 2863.876465
v 1119252.875000 1117857.625000 2863.876465
v 1119472.125000 1118435.500000 2863.876709
v 1119548.625000 1118359.000000 2863.876709
v 1119663.500000 1118244.125000 2863.876465
v 1119816.500000 1118091.125000 2863.876465
v 1119562.875000 1118654.750000 2863.876709
v 1119671.125000 1118654.750000 2863.876709
v 1119833.500000 1118654.750000 2863.876709
v 1120050.000000 1118654.750000 2863.876709
v 1119472.125000 1118873.875000 2863.876709
v 1119548.625000 1118950.375000 2863.876709
v 1119663.500000 1119065.250000 2863.876953
v 1119816.500000 1119218.250000 2863.876953
v 1119386.875000 1118788.625000 3169.982178
v 1119375.125000 1118654.750000 3171.697754
v 1119442.375000 1118654.750000 3169.982178
v 1119339.375000 1118741.125000 3171.697998
v 1119442.375000 1118654.750000 3169.982178
v 1119339.375000 1118568.250000 3171.697998
v 1119386.875000 1118520.750000 3169.982178
v 1119375.125000 1118654.750000 3171.697754
v 1119386.875000 1118520.750000 3169.982178
v 1119252.875000 1118532.375000 3171.697754
v 1119252.875000 1118465.250000 3169.982178
v 1119339.375000 1118568.250000 3171.697998
v 1119252.875000 1118465.250000 3169.982178
v 1119166.500000 1118568.250000 3171.697998
v 1119118.875000 1118520.750000 3169.982178
v 1119252.875000 1118532.375000 3171.697754
v 1119118.875000 1118520.750000 3169.982178
v 1119130.625000 1118654.750000 3171.697754
v 1119063.375000 1118654.750000 3169.982178
v 1119166.500000 1118568.250000 3171.697998
v 1119063.375000 1118654.750000 3169.982178
v 1119166.500000 1118741.125000 3171.697998
v 1119118.875000 1118788.625000 3169.982178
v 1119130.625000 1118654.750000 3171.697754
v 1119118.875000 1118788.625000 3169.982178
v 1119252.875000 1118777.000000 3171.697754
v 1119252.875000 1118844.125000 3169.982178
v 1119166.500000 1118741.125000 3171.697998
v 1119252.875000 1118844.125000 3169.982178
v 1119339.375000 1118741.125000 3171.697998
v 1119386.875000 1118788.625000 3169.982178
v 1119252.875000 1118777.000000 3171.697754
v 1119252.875000 1119072.875000 2863.876953
v 1119252.875000 1118964.625000 2863.876709
v 1119252.875000 1119235.250000 2863.876953
v 1119252.875000 1119451.750000 2863.876953
vn -0.0000 -0.0000 1.0000
vn -0.7071 -0.7071 -0.0000
vn -0.3826 -0.9239 -0.0000
vn -0.7068 -0.7074 -0.0000
vn -0.3827 -0.9239 -0.0000
vn -1.0000 0.0002 -0.0000
vn -1.0000 -0.0001 -0.0000
vn -0.7071 0.7071 -0.0000
vn -0.0001 1.0000 -0.0000
vn -0.0000 1.0000 -0.0000
vn 0.7074 0.7068 -0.0000
vn 0.7072 0.7070 -0.0000
vn 1.0000 -0.0001 -0.0000
vn 1.0000 0.0001 -0.0000
vn 0.7071 -0.7071 -0.0000
vn 0.3828 -0.9238 -0.0000
vn 0.3826 -0.9239 -0.0000
vn -0.6579 0.6580 0.3663
vn -0.3596 0.8683 0.3417
vn -0.6580 0.6579 0.3663
vn -0.3598 0.8682 0.3418
vn -0.9305 0.0001 0.3663
vn -0.9305 -0.0000 0.3663
vn -0.6580 0.6580 0.3663
vn -0.6580 -0.6580 0.3662
vn -0.9305 -0.0000 0.3662
vn -0.6580 -0.6580 0.3663
vn -0.0000 -0.9304 0.3665
vn -0.0000 -0.9305 0.3663
vn 0.6580 -0.6580 0.3662
vn 0.6580 -0.6580 0.3663
vn 0.9305 -0.0000 0.3663
vn 0.6580 0.6580 0.3662
vn 0.9305 -0.0000 0.3662
vn 0.6579 0.6580 0.3663
vn 0.6580 0.6580 0.3663
vn 0.3594 0.8683 0.3418
vn 0.3598 0.8682 0.3419
vn 0.0256 0.0106 0.9996
vn 0.0254 0.0105 0.9996
vn 0.0256 -0.0106 0.9996
vn 0.0254 -0.0105 0.9996
vn 0.0106 -0.0256 0.9996
vn 0.0106 -0.0255 0.9996
vn -0.0106 -0.0255 0.9996
vn -0.0107 -0.0257 0.9996
vn -0.0255 -0.0105 0.9996
vn -0.0255 -0.0106 0.9996
vn -0.0254 0.0105 0.9996
vn -0.0257 0.0106 0.9996
vn -0.0106 0.0256 0.9996
vn -0.0105 0.0255 0.9996
vn 0.0106 0.0256 0.9996
vn 0.0105 0.0255 0.9996
vt 2.000000 -8.000000
vt 3.000000 -7.000000
vt 3.000000 -8.000000
vt 2.000000 -7.000000
vt 1.000000 -7.000000
vt 2.000000 -6.000000
vt 1.000000 -6.000000
vt 1.000000 -4.000000
vt 0.000000 -6.000000
vt 0.000000 -4.000000
vt -1.000000 -4.000000
vt -1.000000 -2.000000
vt 9.000000 -6.000000
vt 8.000000 -4.375000
vt 9.000000 -4.375000
vt 8.000000 -6.000000
vt 8.000000 -7.000000
vt 7.000000 -6.000000
vt 7.000000 -7.000000
vt 6.000000 -7.000000
vt 6.000000 -8.000000
vt 4.000000 -8.000000
vt 4.375000 -2.000000
vt 4.000000 -2.000000
vt 4.000000 0.000000
vt 4.000000 -4.000000
vt 5.000000 -3.875000
vt 5.000000 -6.000000
vt 6.000000 -6.000000
vt 2.000000 -4.000000
vt 2.000000 -2.000000
vt 1.000000 -2.000000
vt 1.000000 0.000000
vt 0.000000 -2.000000
vt 0.000000 0.000000
vt -1.000000 0.000000
vt 4.000000 -6.000000
vt 4.000000 -7.000000
vt 5.000000 -7.000000
vt 0.000000 -7.000000
vt 0.000000 -8.000000
vt -1.000000 -7.000000
vt -1.000000 -8.000000
vt 3.000000 -4.000000
vt 3.000000 -2.000000
vt 3.000000 0.000000
vt 2.000000 0.000000
vt 6.000000 -4.375000
vt 7.000000 -4.375000
vt -2.000000 -4.001953
vt -3.000000 -4.001953
vt -2.375000 -2.000000
vt -3.000000 -6.000000
vt -2.000000 -6.000000
vt -2.000000 -7.000000
vt -4.000000 -4.501953
vt -5.000000 -6.000000
vt -5.000000 -4.501953
vt -4.000000 -6.000000
vt -4.000000 -7.000000
vt -3.000000 -7.000000
vt -2.000000 -8.001953
vt 9.000000 -8.000000
vt 9.000000 -7.000000
vt 3.000000 -6.000000
vt -5.000000 -7.000000
vt -5.000000 -8.000000
vt -2.000000 -2.001953
vt -2.000000 0.060547
vt -1.000000 -6.000000
vt 8.000000 -3.500000
vt 9.000000 -3.000000
vt 9.000000 -3.500000
vt 8.000000 -3.000000
vt 7.000000 -3.500000
vt 7.000000 -3.000000
vt 6.000000 -3.500000
vt 6.000000 -3.000000
vt 5.000000 -3.500000
vt 5.000000 -3.000000
vt 4.000000 -3.500000
vt 4.000000 -3.000000
vt 3.000000 -3.500000
vt 3.000000 -3.000000
vt 2.000000 -3.500000
vt 2.000000 -3.000000
vt 1.000000 -3.500000
vt 1.000000 -3.000000
vt 2.000000 -0.500000
vt 1.000000 -0.500000
vt 3.000000 -0.500000
vt 4.000000 -0.500000
vt 5.000000 -0.500000
vt 5.000000 -2.000000
vt 6.000000 -0.500000
vt 6.000000 -2.000000
vt 7.000000 -0.500000
vt 7.000000 -2.000000
vt 8.000000 -0.500000
vt 8.000000 -2.000000
vt 9.000000 -0.500000
vt 9.000000 -2.000000
vt 1.000000 0.500000
vt 2.000000 0.500000
vt 1.000000 2.000000
vt 2.000000 2.000000
vt 3.000000 0.500000
vt 3.000000 2.000000
vt 4.000000 0.500000
vt 4.000000 2.000000
vt 5.000000 0.000000
vt 5.000000 0.500000
vt 5.000000 2.000000
vt 6.000000 0.000000
vt 6.000000 0.500000
vt 6.000000 2.000000
vt 7.000000 0.000000
vt 7.000000 0.500000
vt 7.000000 2.000000
vt 8.000000 0.000000
vt 8.000000 0.500000
vt 8.000000 2.000000
vt 9.000000 0.000000
vt 9.000000 0.500000
vt 9.000000 2.000000
s 0
usemtl Material_179_7
f 1/1/1 2/2/1 3/3/1
f 1/1/1 4/4/1 2/2/1
f 5/5/1 4/4/1 1/1/1
f 5/5/1 6/6/1 4/4/1
f 7/7/1 6/6/1 5/5/1
f 7/7/1 8/8/1 6/6/1
f 9/9/1 8/8/1 7/7/1
f 9/9/1 10/10/1 8/8/1
f 11/11/1 10/10/1 9/9/1
f 11/11/1 12/12/1 10/10/1
f 13/13/1 14/14/1 15/15/1
f 13/13/1 16/16/1 14/14/1
f 17/17/1 16/16/1 13/13/1
f 17/17/1 18/18/1 16/16/1
f 19/19/1 18/18/1 17/17/1
f 19/19/1 20/20/1 18/18/1
f 21/21/1 20/20/1 19/19/1
f 21/21/1 22/22/1 20/20/1
f 23/23/1 24/24/1 25/25/1
f 23/23/1 26/26/1 24/24/1
f 27/27/1 26/26/1 23/23/1
f 27/27/1 28/28/1 26/26/1
f 29/29/1 28/28/1 27/27/1
f 29/29/1 20/20/1 28/28/1
f 18/18/1 20/20/1 29/29/1
f 8/8/1 30/30/1 6/6/1
f 8/8/1 31/31/1 30/30/1
f 32/32/1 31/31/1 8/8/1
f 32/32/1 33/33/1 31/31/1
f 34/34/1 33/33/1 32/32/1
f 34/34/1 35/35/1 33/33/1
f 36/36/1 35/35/1 34/34/1
f 28/28/1 37/37/1 26/26/1
f 28/28/1 38/38/1 37/37/1
f 39/39/1 38/38/1 28/28/1
f 39/39/1 22/22/1 38/38/1
f 20/20/1 22/22/1 39/39/1
f 5/5/1 9/9/1 7/7/1
f 5/5/1 40/40/1 9/9/1
f 41/41/1 40/40/1 5/5/1
f 41/41/1 42/42/1 40/40/1
f 43/43/1 42/42/1 41/41/1
f 30/30/1 44/44/1 6/6/1
f 30/30/1 45/45/1 44/44/1
f 31/31/1 45/45/1 30/30/1
f 31/31/1 46/46/1 45/45/1
f 47/47/1 46/46/1 31/31/1
f 48/48/1 29/29/1 27/27/1
f 48/48/1 18/18/1 29/29/1
f 49/49/1 18/18/1 48/48/1
f 49/49/1 14/14/1 18/18/1
f 50/50/1 51/51/1 52/52/1
f 50/50/1 53/53/1 51/51/1
f 54/54/1 53/53/1 50/50/1
f 54/54/1 55/55/1 53/53/1
f 56/56/1 57/57/1 58/58/1
f 56/56/1 59/59/1 57/57/1
f 51/51/1 59/59/1 56/56/1
f 51/51/1 53/53/1 59/59/1
f 53/53/1 60/60/1 59/59/1
f 53/53/1 61/61/1 60/60/1
f 55/55/1 61/61/1 53/53/1
f 55/55/1 62/62/1 61/61/1
f 17/17/1 21/21/1 19/19/1
f 17/17/1 63/63/1 21/21/1
f 64/64/1 63/63/1 17/17/1
f 6/6/1 2/2/1 4/4/1
f 6/6/1 65/65/1 2/2/1
f 44/44/1 65/65/1 6/6/1
f 60/60/1 57/57/1 59/59/1
f 60/60/1 66/66/1 57/57/1
f 67/67/1 66/66/1 60/60/1
f 68/68/1 52/52/1 69/69/1
f 68/68/1 50/50/1 52/52/1
f 42/42/1 9/9/1 40/40/1
f 42/42/1 70/70/1 9/9/1
f 62/62/1 60/60/1 61/61/1
f 62/62/1 67/67/1 60/60/1
f 8/8/1 34/34/1 32/32/1
f 8/8/1 10/10/1 34/34/1
f 12/12/1 34/34/1 10/10/1
f 12/12/1 36/36/1 34/34/1
f 18/18/1 14/14/1 16/16/1
f 39/39/1 28/28/1 20/20/1
f 41/41/1 5/5/1 1/1/1
f 17/17/1 13/13/1 64/64/1
f 70/70/1 11/11/1 9/9/1
f 33/33/1 47/47/1 31/31/1
s 1
f 71/71/2 72/72/3 73/73/3
f 71/71/2 74/74/4 75/72/5
f 76/75/6 74/74/4 71/71/2
f 76/75/6 77/76/7 74/74/4
f 78/77/8 77/76/7 76/75/6
f 78/77/8 79/78/8 77/76/7
f 80/79/9 79/78/8 78/77/8
f 80/79/9 81/80/10 79/78/8
f 82/81/11 81/80/10 80/79/9
f 82/81/11 83/82/12 81/80/10
f 84/83/13 83/82/12 82/81/11
f 84/83/13 85/84/14 83/82/12
f 86/85/15 85/84/14 84/83/13
f 86/85/15 87/86/15 85/84/14
f 88/87/16 87/86/15 86/85/15
f 89/87/17 90/88/17 87/86/15
f 91/89/18 92/32/19 93/90/19
f 94/89/20 95/31/20 96/32/21
f 97/91/22 98/31/18 91/89/18
f 99/91/23 100/45/23 101/31/24
f 102/92/25 103/45/26 99/91/23
f 104/92/27 105/24/27 100/45/23
f 106/93/28 107/24/25 104/92/27
f 106/93/28 108/94/29 107/24/25
f 109/95/30 108/94/29 106/93/28
f 110/95/31 111/96/31 108/94/29
f 112/97/32 113/96/30 110/95/31
f 112/97/32 114/98/32 111/96/31
f 115/99/33 116/98/34 112/97/32
f 117/99/35 118/100/36 114/98/32
f 119/101/37 118/100/36 117/99/35
f 120/101/38 121/102/38 118/100/36
s 0
f 122/33/1 123/89/1 124/90/1
f 122/33/1 125/47/1 123/89/1
f 126/103/1 125/47/1 122/33/1
f 126/103/1 127/104/1 125/47/1
f 128/105/1 127/104/1 126/103/1
f 128/105/1 129/106/1 127/104/1
f 125/47/1 130/91/1 123/89/1
f 125/47/1 131/46/1 130/91/1
f 127/104/1 131/46/1 125/47/1
f 127/104/1 132/107/1 131/46/1
f 129/106/1 132/107/1 127/104/1
f 129/106/1 133/108/1 132/107/1
f 131/46/1 134/92/1 130/91/1
f 131/46/1 135/25/1 134/92/1
f 132/107/1 135/25/1 131/46/1
f 132/107/1 136/109/1 135/25/1
f 133/108/1 136/109/1 132/107/1
f 133/108/1 137/110/1 136/109/1
f 135/25/1 138/93/1 134/92/1
f 135/25/1 139/111/1 138/93/1
f 136/109/1 139/111/1 135/25/1
f 136/109/1 140/112/1 139/111/1
f 137/110/1 140/112/1 136/109/1
f 137/110/1 141/113/1 140/112/1
f 139/111/1 142/95/1 138/93/1
f 139/111/1 143/114/1 142/95/1
f 140/112/1 143/114/1 139/111/1
f 140/112/1 144/115/1 143/114/1
f 141/113/1 144/115/1 140/112/1
f 141/113/1 145/116/1 144/115/1
f 143/114/1 146/97/1 142/95/1
f 143/114/1 147/117/1 146/97/1
f 144/115/1 147/117/1 143/114/1
f 144/115/1 148/118/1 147/117/1
f 145/116/1 148/118/1 144/115/1
f 145/116/1 149/119/1 148/118/1
f 147/117/1 150/99/1 146/97/1
f 147/117/1 151/120/1 150/99/1
f 148/118/1 151/120/1 147/117/1
f 148/118/1 152/121/1 151/120/1
f 149/119/1 152/121/1 148/118/1
f 149/119/1 153/122/1 152/121/1
f 154/100/39 155/76/39 156/98/39
f 154/100/40 157/74/40 155/76/40
f 158/98/41 159/78/41 160/96/41
f 158/98/42 161/76/42 159/78/42
f 162/96/43 163/80/43 164/94/43
f 162/96/44 165/78/44 163/80/44
f 166/94/45 167/82/45 168/24/45
f 166/94/46 169/80/46 167/82/46
f 170/24/47 171/84/47 172/45/47
f 170/24/48 173/82/48 171/84/48
f 174/45/49 175/86/49 176/31/49
f 174/45/50 177/84/50 175/86/50
f 178/31/51 179/88/51 180/32/51
f 178/31/52 181/86/52 179/88/52
f 182/102/53 183/74/53 184/100/53
f 182/102/54 185/72/54 183/74/54
f 150/99/1 186/123/1 187/101/1
f 150/99/1 151/120/1 186/123/1
f 151/120/1 188/124/1 186/123/1
f 151/120/1 152/121/1 188/124/1
f 189/125/1 152/121/1 153/122/1
f 189/125/1 188/124/1 152/121/1
