# Blender 4.1.1
# www.blender.org
mtllib polygon145.mtl
o polygon145
v -5929.009766 -10383.910156 -356.969635
v -5705.830078 -10693.179688 -424.098724
v -5548.255371 -10576.089844 131.001450
v -5371.556152 -10879.139648 -345.182373
v -5133.547363 -10796.259766 131.001465
v -5446.006348 -11241.419922 -390.597687
v -5329.167480 -11479.139648 131.001572
v -6018.645508 -11419.750000 131.001556
v -7327.587891 -10324.609375 131.001419
v -7111.314453 -10450.799805 -313.295776
v -6806.869141 -10084.109375 131.001404
v -6752.364746 -10285.629883 -352.179169
v -6290.554199 -10048.819336 131.001389
v -6315.779297 -10267.629883 -380.323364
v -5962.919434 -11164.209961 -457.812927
v -6395.181152 -10970.990234 -449.330231
v -6459.114258 -11197.429688 131.001511
v -6837.328125 -11030.790039 -389.613434
v -6948.359375 -11239.830078 131.001541
v -7128.795410 -10712.120117 -346.353424
v -7321.426270 -10809.969727 131.001465
v -5827.268066 -10182.819336 131.001419
vn 0.5425 0.7439 -0.3903
vn 0.6362 0.6984 -0.3279
vn 0.6122 0.7050 -0.3581
vn 0.7956 0.4158 -0.4406
vn 0.8235 0.3583 -0.4399
vn 0.4986 -0.7202 -0.4824
vn 0.4908 -0.7461 -0.4500
vn -0.2485 -0.8803 -0.4041
vn -0.7391 0.4613 -0.4908
vn -0.7410 0.4984 -0.4500
vn -0.2344 0.8840 -0.4045
vn -0.2359 0.8872 -0.3966
vn 0.1039 0.9096 -0.4023
vn 0.1144 0.9113 -0.3956
vn -0.2516 -0.8825 -0.3973
vn -0.1778 -0.9100 -0.3746
vn -0.1620 -0.9097 -0.3824
vn -0.3071 -0.8591 -0.4095
vn -0.3528 -0.8381 -0.4161
vn -0.8726 -0.2753 -0.4036
vn -0.8465 -0.3136 -0.4302
vn 0.5180 0.7474 -0.4160
vt -0.629883 1.939453
vt -0.629883 2.677002
vt -1.282959 2.677002
vt -0.053711 2.677002
vt -0.053711 1.939453
vt 0.565918 2.677002
vt 0.565918 1.939453
vt 1.212891 1.939453
vt -2.630371 1.939453
vt -3.267090 2.677002
vt -3.267090 1.939453
vt -2.630371 2.677002
vt -1.958252 1.939453
vt -1.958252 2.677002
vt 1.843018 1.939453
vt 1.843018 2.677002
vt 1.212891 2.677002
vt 2.479248 2.677002
vt 2.479248 1.939453
vt 3.226807 2.677002
vt 3.226807 1.939453
vt -3.715088 1.939453
vt -3.715088 2.677002
vt -1.282959 1.939453
s 1
usemtl mt_gake.012
f 3/1/3 2/2/2 1/3/1
f 4/4/4 2/2/2 3/1/3
f 5/5/5 4/4/4 3/1/3
f 6/6/6 4/4/4 5/5/5
f 7/7/7 6/6/6 5/5/5
f 8/8/8 6/6/6 7/7/7
f 11/9/11 10/10/10 9/11/9
f 12/12/12 10/10/10 11/9/11
f 13/13/13 12/12/12 11/9/11
f 14/14/14 12/12/12 13/13/13
f 1/3/1 14/14/14 13/13/13
f 17/15/17 16/16/16 15/17/15
f 18/18/18 16/16/16 17/15/17
f 19/19/19 18/18/18 17/15/17
f 20/20/20 18/18/18 19/19/19
f 21/21/21 20/20/20 19/19/19
f 21/22/21 10/10/10 20/23/20
f 9/11/9 10/10/10 21/22/21
f 22/24/22 1/3/1 13/13/13
f 3/1/3 1/3/1 22/24/22
f 8/8/8 15/17/15 6/6/6
f 17/15/17 15/17/15 8/8/8
