# Blender 4.1.1
# www.blender.org
mtllib polygon359.mtl
o polygon359
v 825.609680 1413.249023 -385.861969
v 814.895447 1423.962769 -608.589233
v 802.039062 1436.819946 -385.861969
v 802.038879 1436.819824 -608.589233
v 789.182312 1449.675903 -608.589233
v 945.817627 1533.456909 -385.861969
v 935.103577 1544.171997 -608.589294
v 922.247253 1557.028076 -385.861969
v 922.247009 1557.027954 -608.589294
v 909.390381 1569.885010 -608.589294
v 832.680969 1420.319946 -375.861969
v 832.680969 1420.319946 -348.771057
v 809.110168 1443.890991 -375.861969
v 809.110168 1443.890991 -348.589233
v 785.539490 1467.461060 -348.771088
v 778.468567 1460.389893 -375.861969
v 778.468506 1460.389893 -348.771088
v 802.039307 1436.818970 -375.861969
v 802.039307 1436.818970 -348.589233
v 825.609985 1413.249023 -348.771057
v 898.676697 1580.597900 -375.861938
v 898.676697 1580.597900 -348.771057
v 922.247314 1557.028076 -375.861969
v 922.247314 1557.028076 -348.589233
v 945.818054 1533.456909 -348.771088
v 813.824097 1425.034790 -630.861877
v 802.039062 1436.819824 -875.861816
v 802.038879 1436.819824 -630.861877
v 790.253723 1448.604980 -630.862000
v 820.895691 1432.105957 -630.861877
v 809.110474 1443.890869 -630.861877
v 809.110291 1443.890869 -875.861816
v 797.325195 1455.675903 -630.862061
v 832.680969 1420.319946 -385.861969
v 809.110291 1443.890991 -385.861969
v 821.967102 1431.033813 -608.589233
v 809.110474 1443.890869 -608.589233
v 785.539856 1467.461060 -385.861969
v 796.253906 1456.746826 -608.589294
v 934.032166 1545.242798 -630.861938
v 922.247253 1557.027954 -875.861938
v 922.247009 1557.027954 -630.861938
v 910.461609 1568.812988 -630.861938
v 1051.884033 1427.390991 -362.528564
v 1051.884033 1427.390991 -335.528564
v 1103.738037 1375.537109 -349.195251
v 1103.738037 1375.537109 -322.195251
v 1196.252075 1283.024048 -318.361938
v 1196.251099 1283.024048 -291.361938
v 1245.749023 1233.526001 -300.361938
v 1245.749023 1233.526001 -273.361938
v 1512.092041 967.182617 -208.778397
v 1512.092041 967.182617 -181.778610
v 1566.304077 912.971069 -190.445099
v 1566.304077 912.971069 -163.445190
v 1058.955078 1434.461914 -362.528564
v 1110.809082 1382.607910 -349.195251
v 1058.955078 1434.461914 -335.528564
v 1110.809082 1382.607910 -322.195251
v 1203.322021 1290.095093 -318.361938
v 1252.819946 1240.598022 -300.361938
v 1203.322021 1290.095093 -291.361938
v 1252.819946 1240.598022 -273.361938
v 1359.475098 1133.942993 -262.695221
v 1411.328979 1082.088013 -245.028625
v 1359.475098 1133.942017 -235.695221
v 1411.329956 1082.088013 -218.028625
v 1519.164062 974.253662 -208.778519
v 1573.375122 920.041992 -190.445099
v 1519.164062 974.253662 -181.778610
v 1573.375122 920.041992 -163.445206
v 1352.404053 1126.872070 -262.695221
v 1352.404053 1126.871094 -235.695221
v 1404.258057 1075.017090 -245.028625
v 1404.259033 1075.017090 -218.028625
v 938.746765 1314.254028 -362.528534
v 990.601257 1262.400024 -349.195251
v 938.746765 1314.254028 -335.528534
v 990.601257 1262.400024 -322.195221
v 1083.114014 1169.887085 -318.361908
v 1132.612061 1120.389038 -300.361908
v 1083.114014 1169.887085 -291.361908
v 1132.612061 1120.389038 -273.361908
v 1398.954956 854.045410 -208.778366
v 1453.167114 799.833801 -190.445099
v 1398.954956 854.045410 -181.778595
v 1453.167114 799.833801 -163.445175
v 983.530273 1255.329102 -322.195221
v 983.530273 1255.329102 -349.195251
v 931.675598 1307.183105 -335.528534
v 931.675598 1307.183105 -362.528534
v 1125.541016 1113.317993 -273.361908
v 1125.541016 1113.317993 -300.361908
v 1076.043091 1162.816040 -291.361908
v 1076.043091 1162.816040 -318.361908
v 1284.049927 954.808411 -218.028595
v 1284.049927 954.808838 -245.028595
v 1232.196045 1006.663025 -235.695221
v 1232.195068 1006.662964 -262.695221
v 1446.096069 792.762878 -163.445175
v 1446.096069 792.762878 -190.445068
v 1391.884033 846.974365 -181.778595
v 1391.884033 846.974426 -208.778488
v 1239.267090 1013.734985 -262.695221
v 1291.121094 961.879822 -245.028610
v 1239.267090 1013.734009 -235.695221
v 1291.121094 961.879395 -218.028610
v 792.610596 1686.664917 -362.528595
v 740.755859 1738.519043 -349.195343
v 792.610596 1686.664917 -335.528595
v 740.755859 1738.519043 -322.195312
v 648.243042 1831.031982 -318.361969
v 598.745605 1880.529785 -300.362000
v 648.243042 1831.031982 -291.361969
v 598.745605 1880.529907 -273.362000
v 332.401794 2146.873047 -208.778534
v 278.190308 2201.085205 -190.445251
v 332.401855 2146.873047 -181.778748
v 278.190308 2201.085205 -163.445358
v 747.827026 1745.589966 -322.195312
v 747.827026 1745.589966 -349.195343
v 799.681519 1693.735962 -335.528595
v 799.681519 1693.735962 -362.528595
v 605.816772 1887.601196 -273.362000
v 605.816772 1887.601074 -300.362000
v 655.314087 1838.102905 -291.362000
v 655.314087 1838.102905 -318.362000
v 447.306854 2046.110107 -218.028748
v 447.306702 2046.110107 -245.028748
v 499.161285 1994.256226 -235.695343
v 499.161285 1994.256226 -262.695343
v 285.261292 2208.156006 -163.445358
v 285.261292 2208.156006 -190.445251
v 339.472870 2153.944092 -181.778748
v 339.472870 2153.944092 -208.778641
v 492.090179 1987.185059 -262.695343
v 440.235565 2039.039185 -245.028717
v 492.090302 1987.185059 -235.695343
v 440.235779 2039.039185 -218.028717
v 679.473328 1573.528076 -362.528534
v 679.473328 1573.528076 -335.528534
v 627.618896 1625.381958 -349.195312
v 627.618896 1625.381958 -322.195251
v 535.105774 1717.895142 -318.361969
v 535.105774 1717.895142 -291.362000
v 485.608398 1767.391968 -300.362000
v 485.608398 1767.392090 -273.362000
v 219.264801 2033.736084 -208.778503
v 219.264801 2033.736084 -181.778717
v 165.053009 2087.947021 -190.445236
v 165.053177 2087.947021 -163.445328
v 672.402466 1566.456055 -362.528564
v 620.547913 1618.311035 -349.195312
v 672.402466 1566.456055 -335.528564
v 620.547913 1618.311035 -322.195251
v 528.034790 1710.823975 -318.361969
v 478.537445 1760.321045 -300.362000
v 528.034790 1710.823975 -291.362000
v 478.537445 1760.321167 -273.362000
v 371.882019 1866.977051 -262.695312
v 320.027557 1918.831177 -245.028732
v 371.882172 1866.977051 -235.695312
v 320.027679 1918.831177 -218.028732
v 212.193802 2026.664917 -208.778641
v 157.982101 2080.877197 -190.445251
v 212.193802 2026.664917 -181.778732
v 157.982101 2080.877197 -163.445343
v 378.953003 1874.048218 -262.695312
v 378.953186 1874.048218 -235.695312
v 327.098480 1925.902100 -245.028717
v 327.098694 1925.902100 -218.028717
v 941.103394 1552.313843 -630.861938
v 929.318359 1564.098877 -630.861938
v 929.318481 1564.098877 -875.861938
v 917.532898 1575.883911 -630.861938
v 952.888794 1540.528076 -385.861969
v 929.318481 1564.098999 -385.861969
v 942.174805 1551.241821 -608.589294
v 929.318359 1564.098877 -608.589294
v 905.747864 1587.668945 -385.861938
v 916.461609 1576.954834 -608.589294
v 952.889099 1540.528076 -348.861969
v 929.318481 1564.098999 -348.861969
v 952.889099 1540.528076 -375.861969
v 929.318481 1564.098999 -375.861969
v 905.747803 1587.669922 -348.861938
v 905.747620 1587.668945 -375.861938
v 778.468567 1460.389893 -385.861969
v 898.676514 1580.598999 -385.861938
v 785.539673 1467.461060 -375.861969
v 945.818054 1533.456909 -375.861969
v 825.610046 1413.249023 -375.861969
vn -0.7071 -0.7071 -0.0000
vn 0.7071 0.7071 -0.0000
vt 0.500000 -3.680664
vt 1.068359 3.279297
vt 1.541992 -3.680664
vt 0.500000 3.279297
vt -0.068359 3.279297
vt 0.500000 -3.993164
vt 1.541992 -4.839844
vt 1.541992 -3.993164
vt 0.500000 -4.845703
vt -0.541992 -4.839844
vt -0.541992 -3.993164
vt 0.500000 3.975586
vt 0.500000 11.631840
vt 1.020508 3.975586
vt -0.020508 3.975586
vt -0.541992 -3.680664
vt 8.520508 -4.827148
vt 6.229492 -5.253906
vt 6.229492 -4.410156
vt 8.520508 -5.670898
vt 14.796880 -6.352539
vt 12.609380 -6.633789
vt 12.609380 -5.790039
vt 14.796880 -7.196289
vt 28.963869 -9.788086
vt 26.567379 -10.058590
vt 26.567379 -9.214844
vt 28.963869 -10.631840
vt 19.510740 -8.374023
vt 21.801760 -8.082031
vt 19.510740 -7.530273
vt 21.801760 -8.925781
vt -5.229492 -5.253906
vt -7.520508 -4.827148
vt -5.229492 -4.410156
vt -7.520508 -5.670898
vt -11.609380 -6.633789
vt -13.796880 -6.352539
vt -11.609380 -5.790039
vt -13.796880 -7.196289
vt -25.567379 -10.058590
vt -27.963869 -9.788086
vt -25.567379 -9.214844
vt -27.963869 -10.631840
vt -18.510740 -8.374023
vt -20.801760 -8.082031
vt -20.801760 -8.925781
vt -18.510740 -7.530273
vt 0.500000 -4.836914
vt 1.541992 -4.836914
vt -0.541992 -4.836914
s 0
usemtl mt_big_brid_ami
f 3/1/1 2/2/1 1/3/1
f 4/4/1 2/2/1 3/1/1
f 5/5/1 4/4/1 3/1/1
f 8/1/1 7/2/1 6/3/1
f 9/4/1 7/2/1 8/1/1
f 10/5/1 9/4/1 8/1/1
f 13/6/2 12/7/2 11/8/2
f 14/9/2 12/7/2 13/6/2
f 15/10/2 14/9/2 13/6/2
f 18/6/1 17/10/1 16/11/1
f 19/9/1 17/10/1 18/6/1
f 20/7/1 19/9/1 18/6/1
f 23/6/1 22/10/1 21/11/1
f 24/9/1 22/10/1 23/6/1
f 25/7/1 24/9/1 23/6/1
f 28/12/1 27/13/1 26/14/1
f 29/15/1 27/13/1 28/12/1
f 32/13/2 31/12/2 30/14/2
f 33/15/2 31/12/2 32/13/2
f 36/2/2 35/1/2 34/3/2
f 37/4/2 35/1/2 36/2/2
f 35/1/2 39/5/2 38/16/2
f 37/4/2 39/5/2 35/1/2
f 42/12/1 41/13/1 40/14/1
f 43/15/1 41/13/1 42/12/1
f 46/17/1 45/18/1 44/19/1
f 47/20/1 45/18/1 46/17/1
f 50/21/1 49/22/1 48/23/1
f 51/24/1 49/22/1 50/21/1
f 54/25/1 53/26/1 52/27/1
f 55/28/1 53/26/1 54/25/1
f 58/18/2 57/17/2 56/19/2
f 59/20/2 57/17/2 58/18/2
f 62/22/2 61/21/2 60/23/2
f 63/24/2 61/21/2 62/22/2
f 66/29/2 65/30/2 64/31/2
f 67/32/2 65/30/2 66/29/2
f 70/26/2 69/25/2 68/27/2
f 71/28/2 69/25/2 70/26/2
f 74/30/1 73/29/1 72/31/1
f 75/32/1 73/29/1 74/30/1
f 78/18/2 77/17/2 76/19/2
f 79/20/2 77/17/2 78/18/2
f 82/22/2 81/21/2 80/23/2
f 83/24/2 81/21/2 82/22/2
f 86/26/2 85/25/2 84/27/2
f 87/28/2 85/25/2 86/26/2
f 90/18/1 89/17/1 88/20/1
f 91/19/1 89/17/1 90/18/1
f 94/22/1 93/21/1 92/24/1
f 95/23/1 93/21/1 94/22/1
f 98/29/1 97/30/1 96/32/1
f 99/31/1 97/30/1 98/29/1
f 102/26/1 101/25/1 100/28/1
f 103/27/1 101/25/1 102/26/1
f 106/29/2 105/30/2 104/31/2
f 107/32/2 105/30/2 106/29/2
f 110/33/1 109/34/1 108/35/1
f 111/36/1 109/34/1 110/33/1
f 114/37/1 113/38/1 112/39/1
f 115/40/1 113/38/1 114/37/1
f 118/41/1 117/42/1 116/43/1
f 119/44/1 117/42/1 118/41/1
f 122/33/2 121/34/2 120/36/2
f 123/35/2 121/34/2 122/33/2
f 126/37/2 125/38/2 124/40/2
f 127/39/2 125/38/2 126/37/2
f 130/45/2 129/46/2 128/47/2
f 131/48/2 129/46/2 130/45/2
f 134/41/2 133/42/2 132/44/2
f 135/43/2 133/42/2 134/41/2
f 138/45/1 137/46/1 136/48/1
f 139/47/1 137/46/1 138/45/1
f 142/34/2 141/33/2 140/35/2
f 143/36/2 141/33/2 142/34/2
f 146/38/2 145/37/2 144/39/2
f 147/40/2 145/37/2 146/38/2
f 150/42/2 149/41/2 148/43/2
f 151/44/2 149/41/2 150/42/2
f 154/33/1 153/34/1 152/35/1
f 155/36/1 153/34/1 154/33/1
f 158/37/1 157/38/1 156/39/1
f 159/40/1 157/38/1 158/37/1
f 162/45/1 161/46/1 160/48/1
f 163/47/1 161/46/1 162/45/1
f 166/41/1 165/42/1 164/43/1
f 167/44/1 165/42/1 166/41/1
f 170/46/2 169/45/2 168/48/2
f 171/47/2 169/45/2 170/46/2
f 174/13/2 173/12/2 172/14/2
f 175/15/2 173/12/2 174/13/2
f 178/2/2 177/1/2 176/3/2
f 179/4/2 177/1/2 178/2/2
f 177/1/2 181/5/2 180/16/2
f 179/4/2 181/5/2 177/1/2
f 184/8/2 183/49/2 182/50/2
f 185/6/2 183/49/2 184/8/2
f 185/6/2 186/51/2 183/49/2
f 187/11/2 186/51/2 185/6/2
f 188/16/1 5/5/1 3/1/1
f 189/16/1 10/5/1 8/1/1
f 190/11/2 15/10/2 13/6/2
f 191/8/1 25/7/1 23/6/1
f 192/8/1 20/7/1 18/6/1
