# Blender 4.1.1
# www.blender.org
mtllib polygon426.mtl
o polygon426
v -2169.958008 1834.764038 -69.199966
v -2150.799072 1881.016968 -69.199966
v -2173.785156 1838.591064 -69.199966
v -2156.211182 1881.016968 -69.199966
v -2169.958008 1927.270996 -69.199974
v -2173.785156 1923.443970 -69.199974
v -2216.211182 1946.429077 -69.199974
v -2216.211182 1941.016968 -69.199974
v -2262.465088 1927.270996 -69.199974
v -2258.638184 1923.443970 -69.199974
v -2281.623047 1881.016968 -69.199966
v -2276.211182 1881.016968 -69.199966
v -2262.465088 1834.764038 -69.199966
v -2258.638184 1838.591064 -69.199966
v -2216.211182 1815.605103 -69.199959
v -2216.211182 1821.016968 -69.199959
v -1792.229980 1834.764038 -69.199966
v -1773.071045 1881.016968 -69.199966
v -1796.057129 1838.591064 -69.199966
v -1778.482910 1881.016968 -69.199966
v -1792.229980 1927.270996 -69.199974
v -1796.057129 1923.443970 -69.199974
v -1838.482910 1946.429077 -69.199974
v -1838.482910 1941.016968 -69.199974
v -1884.736938 1927.270996 -69.199974
v -1880.909790 1923.443970 -69.199974
v -1903.895142 1881.016968 -69.199966
v -1898.482910 1881.016968 -69.199966
v -1884.736938 1834.764038 -69.199966
v -1880.909790 1838.591064 -69.199966
v -1838.482910 1815.605103 -69.199959
v -1838.482910 1821.016968 -69.199959
v -2130.884033 2179.954102 -69.200233
v -2123.868896 2206.134033 -69.200233
v -2135.177002 2183.249023 -69.200233
v -2129.234131 2205.427002 -69.200233
v -2137.419922 2229.606201 -69.200249
v -2140.715088 2225.312012 -69.200249
v -2163.600098 2236.621094 -69.200241
v -2162.894043 2231.255127 -69.200241
v -2187.072021 2223.069092 -69.200249
v -2182.779053 2219.774170 -69.200249
v -2194.087158 2196.889160 -69.200241
v -2188.721191 2197.596191 -69.200241
v -2180.535156 2173.418213 -69.200241
v -2177.241211 2177.711182 -69.200233
v -2154.356201 2166.403076 -69.200241
v -2155.062012 2171.769043 -69.200241
v -1874.159790 2173.418213 -69.200241
v -1860.607910 2196.889893 -69.200241
v -1877.453979 2177.711182 -69.200233
v -1865.973999 2197.596191 -69.200241
v -1867.623047 2223.069092 -69.200249
v -1871.917114 2219.775146 -69.200249
v -1891.095093 2236.621094 -69.200241
v -1891.801025 2231.255127 -69.200241
v -1917.275146 2229.606201 -69.200249
v -1913.979980 2225.312988 -69.200249
v -1930.826050 2206.134033 -69.200233
v -1925.461060 2205.427002 -69.200233
v -1923.812134 2179.954102 -69.200233
v -1919.518066 2183.249023 -69.200233
v -1900.338989 2166.403076 -69.200241
v -1899.633057 2171.769043 -69.200241
v -2139.079834 544.583679 -169.199463
v -2125.529053 568.055603 -169.199448
v -2142.375000 548.877380 -169.199463
v -2130.894043 568.761902 -169.199448
v -2132.543213 594.235291 -169.199478
v -2136.837158 590.940613 -169.199478
v -2156.015137 607.786560 -169.199478
v -2156.722168 602.421082 -169.199478
v -2182.195068 600.771912 -169.199478
v -2178.901123 596.478455 -169.199478
v -2195.747070 577.299988 -169.199463
v -2190.381104 576.593384 -169.199463
v -2188.732178 551.120300 -169.199463
v -2184.437988 554.415039 -169.199463
v -2165.260010 537.568787 -169.199463
v -2164.553223 542.934509 -169.199463
v -2393.532959 865.757385 -169.199799
v -2379.981201 889.229187 -169.199799
v -2396.828125 870.051086 -169.199799
v -2385.347168 889.935608 -169.199799
v -2386.996094 915.408997 -169.199783
v -2391.290039 912.114197 -169.199783
v -2410.468018 928.960205 -169.199783
v -2411.175049 923.594727 -169.199783
v -2436.647949 921.945496 -169.199783
v -2433.354004 917.652161 -169.199783
v -2450.199219 898.473633 -169.199783
v -2444.834229 897.767151 -169.199783
v -2443.185059 872.294006 -169.199799
v -2438.891113 875.588623 -169.199799
v -2419.713135 858.742493 -169.199783
v -2419.006104 864.108093 -169.199783
v -1939.006958 545.691711 -169.199463
v -1925.456055 569.163574 -169.199448
v -1942.302124 549.985413 -169.199463
v -1930.821045 569.869873 -169.199448
v -1932.469971 595.343262 -169.199478
v -1936.764038 592.048584 -169.199478
v -1955.942139 608.894592 -169.199478
v -1956.649048 603.529114 -169.199478
v -1982.121948 601.879883 -169.199478
v -1978.828125 597.586487 -169.199478
v -1995.674072 578.408020 -169.199463
v -1990.308105 577.701477 -169.199463
v -1988.659058 552.228271 -169.199463
v -1984.365112 555.523010 -169.199463
v -1965.187134 538.676758 -169.199463
v -1964.479980 544.042480 -169.199463
v -1755.102905 579.324585 -169.199463
v -1741.552124 602.796570 -169.199478
v -1758.398071 583.618286 -169.199463
v -1746.917114 603.502869 -169.199478
v -1748.566040 628.976257 -169.199463
v -1752.859985 625.681580 -169.199463
v -1772.038086 642.527466 -169.199463
v -1772.745117 637.162048 -169.199463
v -1798.218140 635.512878 -169.199463
v -1794.924072 631.219360 -169.199463
v -1811.770020 612.041016 -169.199478
v -1806.404053 611.334412 -169.199478
v -1804.755127 585.861267 -169.199463
v -1800.461060 589.155884 -169.199478
v -1781.283081 572.309814 -169.199448
v -1780.576050 577.675476 -169.199463
vn -0.0000 -0.0000 -1.0000
vt 0.000000 0.128418
vt 0.133545 3.000000
vt 0.133545 0.000000
vt 0.000000 2.871582
vt 4.000000 0.069336
vt 4.137695 1.000000
vt 4.137695 0.000000
vt 4.000000 0.930664
s 0
usemtl mt_town_enseki.003
f 3/1/1 2/2/1 1/3/1
f 4/4/1 2/2/1 3/1/1
f 4/1/1 5/2/1 2/3/1
f 6/4/1 5/2/1 4/1/1
f 6/1/1 7/2/1 5/3/1
f 8/4/1 7/2/1 6/1/1
f 8/1/1 9/2/1 7/3/1
f 10/4/1 9/2/1 8/1/1
f 10/1/1 11/2/1 9/3/1
f 12/4/1 11/2/1 10/1/1
f 12/1/1 13/2/1 11/3/1
f 14/4/1 13/2/1 12/1/1
f 14/1/1 15/2/1 13/3/1
f 16/4/1 15/2/1 14/1/1
f 3/4/1 15/3/1 16/1/1
f 1/2/1 15/3/1 3/4/1
f 19/1/1 18/2/1 17/3/1
f 20/4/1 18/2/1 19/1/1
f 20/1/1 21/2/1 18/3/1
f 22/4/1 21/2/1 20/1/1
f 22/1/1 23/2/1 21/3/1
f 24/4/1 23/2/1 22/1/1
f 24/1/1 25/2/1 23/3/1
f 26/4/1 25/2/1 24/1/1
f 26/1/1 27/2/1 25/3/1
f 28/4/1 27/2/1 26/1/1
f 28/1/1 29/2/1 27/3/1
f 30/4/1 29/2/1 28/1/1
f 30/1/1 31/2/1 29/3/1
f 32/4/1 31/2/1 30/1/1
f 19/4/1 31/3/1 32/1/1
f 17/2/1 31/3/1 19/4/1
f 35/5/1 34/6/1 33/7/1
f 36/8/1 34/6/1 35/5/1
f 36/5/1 37/6/1 34/7/1
f 38/8/1 37/6/1 36/5/1
f 38/5/1 39/6/1 37/7/1
f 40/8/1 39/6/1 38/5/1
f 40/5/1 41/6/1 39/7/1
f 42/8/1 41/6/1 40/5/1
f 42/5/1 43/6/1 41/7/1
f 44/8/1 43/6/1 42/5/1
f 44/5/1 45/6/1 43/7/1
f 46/8/1 45/6/1 44/5/1
f 46/5/1 47/6/1 45/7/1
f 48/8/1 47/6/1 46/5/1
f 35/8/1 47/7/1 48/5/1
f 33/6/1 47/7/1 35/8/1
f 51/5/1 50/6/1 49/7/1
f 52/8/1 50/6/1 51/5/1
f 52/5/1 53/6/1 50/7/1
f 54/8/1 53/6/1 52/5/1
f 54/5/1 55/6/1 53/7/1
f 56/8/1 55/6/1 54/5/1
f 56/5/1 57/6/1 55/7/1
f 58/8/1 57/6/1 56/5/1
f 58/5/1 59/6/1 57/7/1
f 60/8/1 59/6/1 58/5/1
f 60/5/1 61/6/1 59/7/1
f 62/8/1 61/6/1 60/5/1
f 62/5/1 63/6/1 61/7/1
f 64/8/1 63/6/1 62/5/1
f 51/8/1 63/7/1 64/5/1
f 49/6/1 63/7/1 51/8/1
f 67/5/1 66/6/1 65/7/1
f 68/8/1 66/6/1 67/5/1
f 68/5/1 69/6/1 66/7/1
f 70/8/1 69/6/1 68/5/1
f 70/5/1 71/6/1 69/7/1
f 72/8/1 71/6/1 70/5/1
f 72/5/1 73/6/1 71/7/1
f 74/8/1 73/6/1 72/5/1
f 74/5/1 75/6/1 73/7/1
f 76/8/1 75/6/1 74/5/1
f 76/5/1 77/6/1 75/7/1
f 78/8/1 77/6/1 76/5/1
f 78/5/1 79/6/1 77/7/1
f 80/8/1 79/6/1 78/5/1
f 67/8/1 79/7/1 80/5/1
f 65/6/1 79/7/1 67/8/1
f 83/5/1 82/6/1 81/7/1
f 84/8/1 82/6/1 83/5/1
f 84/5/1 85/6/1 82/7/1
f 86/8/1 85/6/1 84/5/1
f 86/5/1 87/6/1 85/7/1
f 88/8/1 87/6/1 86/5/1
f 88/5/1 89/6/1 87/7/1
f 90/8/1 89/6/1 88/5/1
f 90/5/1 91/6/1 89/7/1
f 92/8/1 91/6/1 90/5/1
f 92/5/1 93/6/1 91/7/1
f 94/8/1 93/6/1 92/5/1
f 94/5/1 95/6/1 93/7/1
f 96/8/1 95/6/1 94/5/1
f 83/8/1 95/7/1 96/5/1
f 81/6/1 95/7/1 83/8/1
f 99/5/1 98/6/1 97/7/1
f 100/8/1 98/6/1 99/5/1
f 100/5/1 101/6/1 98/7/1
f 102/8/1 101/6/1 100/5/1
f 102/5/1 103/6/1 101/7/1
f 104/8/1 103/6/1 102/5/1
f 104/5/1 105/6/1 103/7/1
f 106/8/1 105/6/1 104/5/1
f 106/5/1 107/6/1 105/7/1
f 108/8/1 107/6/1 106/5/1
f 108/5/1 109/6/1 107/7/1
f 110/8/1 109/6/1 108/5/1
f 110/5/1 111/6/1 109/7/1
f 112/8/1 111/6/1 110/5/1
f 99/8/1 111/7/1 112/5/1
f 97/6/1 111/7/1 99/8/1
f 115/5/1 114/6/1 113/7/1
f 116/8/1 114/6/1 115/5/1
f 116/5/1 117/6/1 114/7/1
f 118/8/1 117/6/1 116/5/1
f 118/5/1 119/6/1 117/7/1
f 120/8/1 119/6/1 118/5/1
f 120/5/1 121/6/1 119/7/1
f 122/8/1 121/6/1 120/5/1
f 122/5/1 123/6/1 121/7/1
f 124/8/1 123/6/1 122/5/1
f 124/5/1 125/6/1 123/7/1
f 126/8/1 125/6/1 124/5/1
f 126/5/1 127/6/1 125/7/1
f 128/8/1 127/6/1 126/5/1
f 115/8/1 127/7/1 128/5/1
f 113/6/1 127/7/1 115/8/1
