# Blender 4.1.1
# www.blender.org
mtllib polygon16.mtl
o polygon16
v 436.474091 -3970.725098 -1423.099487
v 316.895447 -3959.229980 -1423.099487
v 390.698792 -4290.172363 -1487.573486
v 271.368195 -4276.096191 -1487.573486
v 353.917053 -4548.873047 -1554.884766
v 234.549484 -4535.643555 -1554.884644
v 335.526276 -4678.223633 -1588.539307
v 216.140091 -4665.417969 -1588.539307
v 215.376083 -4675.942383 -1590.875488
v 719.466614 -5435.796387 -1794.573486
v 652.693665 -5419.522461 -1777.686523
v 720.012878 -5571.887695 -1802.869385
v 585.916809 -5398.625488 -1760.520386
v 536.287537 -5506.432129 -1764.665527
v 533.568909 -5371.219238 -1744.450317
v 485.890259 -5337.790039 -1728.586304
v 962.906555 -5602.018066 -1857.878418
v 972.762573 -5470.700195 -1855.696533
v 846.090698 -5457.393066 -1825.377441
v 419.859161 -5414.673340 -1737.738403
v 456.465302 -5308.567383 -1720.255371
v 428.943146 -5275.102051 -1711.263306
v 301.687286 -5304.922363 -1714.252319
v 405.223480 -5241.628418 -1702.609375
v 297.407013 -5294.781250 -1712.438354
v 400.434052 -5232.866211 -1700.648438
v 378.155762 -5182.808105 -1689.521484
v 244.945190 -5170.489258 -1690.207520
v 359.490173 -5133.278320 -1678.564453
v 213.584015 -5035.832031 -1664.988525
v 343.309906 -5075.345215 -1669.324463
v 332.513580 -5017.446777 -1660.000488
v 334.828003 -4687.842773 -1590.818481
v 321.312683 -4874.008301 -1634.908325
v 200.973099 -4874.337402 -1634.908325
v 960.935364 -5628.281250 -1857.799316
v 720.122009 -5599.105469 -1803.999390
v 526.361755 -5527.993164 -1764.999390
v 406.652985 -5430.049316 -1739.099365
v 286.713593 -5317.167480 -1701.799194
v 296.569305 -3959.229980 -1422.599487
v 251.567398 -4273.279297 -1487.099487
v 227.949173 -4534.705566 -1554.884644
v 199.988495 -4653.945801 -1572.799438
vn 0.0188 0.1952 -0.9806
vn -0.0009 0.1989 -0.9800
vn 0.0257 0.2216 -0.9748
vn 0.0172 0.2239 -0.9745
vn 0.0277 0.2477 -0.9684
vn 0.0311 0.2469 -0.9685
vn 0.0251 0.2379 -0.9710
vn -0.1264 0.2458 -0.9610
vn 0.0190 0.2201 -0.9753
vn -0.2293 0.0583 -0.9716
vn -0.2314 0.0583 -0.9711
vn -0.2049 0.0523 -0.9774
vn -0.2051 0.1164 -0.9718
vn -0.1584 0.1111 -0.9811
vn -0.2230 0.1398 -0.9647
vn -0.1120 0.1796 -0.9773
vn -0.2167 0.0235 -0.9760
vn -0.2198 0.0402 -0.9747
vn -0.2266 0.0584 -0.9722
vn -0.0726 0.1722 -0.9824
vn -0.0870 0.1911 -0.9777
vn -0.1960 0.0273 -0.9802
vn -0.0245 0.2024 -0.9790
vn 0.0068 0.1885 -0.9820
vn -0.0148 0.2107 -0.9774
vn -0.0147 0.2107 -0.9774
vn 0.0374 0.1918 -0.9807
vn 0.0212 0.1895 -0.9817
vn 0.0198 0.1806 -0.9834
vn 0.0163 0.1619 -0.9867
vn 0.0118 0.1708 -0.9852
vn 0.0233 0.2289 -0.9732
vn 0.0035 0.1966 -0.9805
vn 0.0024 0.1971 -0.9804
vn -0.2165 0.0133 -0.9762
vn -0.2023 0.0389 -0.9785
vn -0.1596 0.0860 -0.9834
vn -0.1015 0.1351 -0.9856
vn -0.4921 -0.2471 -0.8347
vn -0.0230 0.2026 -0.9790
vn -0.0016 0.2260 -0.9741
vn -0.2901 0.2638 -0.9199
vn -0.5779 0.2521 -0.7762
vt -5.639648 3.350586
vt -6.077148 1.338379
vt -5.368652 1.408203
vt -6.346680 3.265137
vt -5.857910 4.923828
vt -6.564941 4.843262
vt -5.966797 5.709961
vt -6.673828 5.632324
vt -6.678711 5.696289
vt -3.688965 11.144040
vt -4.087891 10.217770
vt -3.691895 10.316890
vt -4.483398 10.090819
vt -4.777344 10.746090
vt -4.793457 9.923828
vt -5.075684 9.720703
vt -2.191406 10.528810
vt -2.250000 11.327640
vt -2.941895 10.448239
vt -5.467285 10.188479
vt -5.250000 9.542969
vt -5.413086 9.339355
vt -6.192383 9.459473
vt -5.553711 9.136230
vt -6.166992 9.520996
vt -5.582031 9.083008
vt -5.714355 8.778319
vt -6.688965 7.884766
vt -5.824707 8.477051
vt -6.503418 8.703613
vt -5.920410 8.125000
vt -5.984375 7.772949
vt -5.970703 5.768555
vt -6.050781 6.900879
vt -6.763672 6.902832
vt -3.688477 11.309569
vt -2.261719 11.487300
vt -4.835938 10.877439
vt -5.545410 10.281740
vt -6.255859 9.595215
vt -6.197266 1.338379
vt -6.463867 3.247559
vt -6.604004 4.837402
vt -6.769531 5.562500
s 1
usemtl mt_tuti
f 3/1/3 2/2/2 1/3/1
f 4/4/4 2/2/2 3/1/3
f 5/5/5 4/4/4 3/1/3
f 6/6/6 4/4/4 5/5/5
f 7/7/7 6/6/6 5/5/5
f 8/8/8 6/6/6 7/7/7
f 9/9/9 8/8/8 7/7/7
f 12/10/12 11/11/11 10/12/10
f 13/13/13 11/11/11 12/10/12
f 14/14/14 13/13/13 12/10/12
f 15/15/15 13/13/13 14/14/14
f 16/16/16 15/15/15 14/14/14
f 12/10/12 18/17/18 17/18/17
f 19/19/19 18/17/18 12/10/12
f 10/12/10 19/19/19 12/10/12
f 20/20/20 16/16/16 14/14/14
f 21/21/21 16/16/16 20/20/20
f 22/22/21 21/21/21 20/20/20
f 25/23/24 24/24/23 23/25/22
f 26/26/25 24/24/23 25/23/24
f 27/27/26 26/26/25 25/23/24
f 30/28/29 29/29/28 28/30/27
f 31/31/30 29/29/28 30/28/29
f 32/32/31 31/31/30 30/28/29
f 33/33/32 9/9/9 7/7/7
f 34/34/33 9/9/9 33/33/32
f 34/34/33 35/35/34 9/9/9
f 32/32/31 35/35/34 34/34/33
f 20/20/20 24/24/23 22/22/21
f 23/25/22 24/24/23 20/20/20
f 25/23/24 29/29/28 27/27/26
f 28/30/27 29/29/28 25/23/24
f 30/28/29 35/35/34 32/32/31
f 37/36/36 17/18/17 36/37/35
f 12/10/12 17/18/17 37/36/36
f 38/38/37 12/10/12 37/36/36
f 14/14/14 12/10/12 38/38/37
f 39/39/38 14/14/14 38/38/37
f 20/20/20 14/14/14 39/39/38
f 23/25/22 39/39/38 40/40/39
f 20/20/20 39/39/38 23/25/22
f 4/4/4 41/41/40 2/2/2
f 42/42/41 41/41/40 4/4/4
f 43/43/42 42/42/41 4/4/4
f 44/44/43 42/42/41 43/43/42
f 8/8/8 44/44/43 43/43/42
f 43/43/42 6/6/6 8/8/8
f 4/4/4 6/6/6 43/43/42
