# Blender 4.1.1
# www.blender.org
mtllib polygon346.mtl
o polygon346
v 1569.571045 889.133179 -155.861710
v 1579.857056 899.418091 -155.861694
v 1561.439941 897.264893 -158.611694
v 1571.725098 907.549988 -158.611694
v 1488.255127 970.449890 -183.361816
v 1498.539795 980.735107 -183.361816
v 1406.937012 1051.767944 -210.861923
v 1417.222900 1062.052979 -210.861908
v 1329.155029 1129.549072 -236.861923
v 1339.441040 1139.834106 -236.861923
v 1247.838013 1210.867065 -265.861908
v 1258.124023 1221.152100 -265.861938
v 1173.592041 1285.113037 -292.861938
v 1183.878052 1295.398071 -292.861938
v 1106.416992 1352.288086 -315.861908
v 1116.702026 1362.573120 -315.861908
v 1028.635010 1430.069946 -335.861969
v 1038.919922 1440.355103 -335.861969
v 947.317566 1511.386963 -345.861969
v 957.603027 1521.672119 -345.861969
v 911.961853 1546.742920 -345.861969
v 922.247253 1557.028076 -345.861969
v 876.606201 1582.097900 -345.861938
v 886.891479 1592.384033 -345.861969
v 795.288879 1663.416016 -335.861969
v 805.574097 1673.701050 -335.862000
v 727.792480 1751.482910 -315.861969
v 844.465820 1408.534912 -345.861969
v 925.783203 1327.217896 -335.861969
v 936.068054 1337.503052 -335.861969
v 1003.565063 1249.436035 -315.861908
v 1013.849976 1259.721069 -315.861908
v 1070.739990 1182.261108 -292.861908
v 1081.025024 1192.546021 -292.861908
v 1144.986084 1108.015015 -265.861908
v 1155.270996 1118.300049 -265.861908
v 1236.588013 1036.983032 -236.861923
v 586.371155 1892.904175 -265.862000
v 505.053894 1974.221191 -236.862015
v 494.768585 1963.936157 -236.862015
v 427.272186 2052.003174 -210.862045
v 416.986877 2041.718140 -210.862030
v 345.954865 2133.320068 -183.361969
v 335.669678 2123.035156 -183.361969
v 272.769196 2206.505127 -158.611862
v 262.484100 2196.219971 -158.611847
v 717.507141 1741.197144 -315.861969
v 660.617310 1818.658081 -292.861969
v 650.332153 1808.373047 -292.861969
v 576.085876 1882.619141 -265.862000
v 483.519043 1790.052246 -265.861969
v 547.480164 1705.520996 -292.862000
v 557.765503 1715.806030 -292.862000
v 614.655396 1638.346069 -315.861969
v 624.940491 1648.630981 -315.861969
v 692.437073 1560.563965 -335.861969
v 702.722168 1570.848999 -335.861938
v 784.039490 1489.531982 -345.861969
v 1226.304077 1026.697021 -236.861923
v 1304.085083 948.915405 -210.861893
v 1314.369995 959.200806 -210.861893
v 1385.403076 867.598022 -183.361816
v 1395.688110 877.883179 -183.361816
v 773.754333 1479.245972 -345.861969
v 809.110046 1443.890991 -345.861969
v 819.395081 1454.176025 -345.862000
v 854.750732 1418.819946 -345.861969
v 402.202026 1871.369141 -236.862015
v 391.916901 1861.084106 -236.862030
v 473.234100 1779.767090 -265.862000
v 254.352371 2204.352051 -155.861862
v 264.637482 2214.637207 -155.861862
v 151.500397 2101.500000 -155.861847
v 159.632202 2093.368164 -158.611832
v 161.785599 2111.785156 -155.861847
v 169.917374 2103.654053 -158.611847
v 1477.005127 796.566467 -155.861679
v 1468.873047 804.698181 -158.611679
v 1466.719971 786.281067 -155.861679
v 1458.587891 794.412781 -158.611679
v 232.817795 2020.183105 -183.361938
v 243.102997 2030.468140 -183.361923
v 314.135101 1938.866089 -210.862015
v 324.420197 1949.151001 -210.862015
v 2161.449219 647.507385 -117.629181
v 2136.331055 663.463074 -117.442268
v 2127.959961 650.310059 -119.199867
v 2108.273193 678.267761 -117.530884
v 2046.797119 695.727844 -119.199875
v 2062.017090 705.233093 -117.424484
v 2053.558105 711.064636 -119.739677
v 2210.257080 616.328186 -118.010277
v 2209.122070 604.892578 -119.199860
v 2223.359863 608.659302 -120.706177
v 2222.458008 594.545715 -119.399765
v 1576.661011 679.700439 -140.894272
v 1641.188965 640.890381 -140.694275
v 1574.896973 693.031128 -140.034958
v 1656.962036 648.699097 -140.034973
v 1622.239990 694.689026 -139.980270
v 1658.881104 670.582886 -140.034973
v 1648.136963 631.342163 -141.916565
v 1668.395020 646.095581 -143.383377
v 1668.736084 646.657471 -140.034973
v 2199.599121 589.366577 -119.199860
v 2128.711182 616.303711 -119.199867
v 2098.926025 632.798767 -119.199867
v 2039.822144 681.895447 -119.199883
v 2035.073120 699.599731 -120.151276
v 2044.711060 709.128235 -121.200676
v 1563.097900 679.387695 -141.270874
v 1567.763062 700.576111 -141.202866
v 1588.229980 708.386536 -140.034973
v 1663.386108 664.371460 -140.034973
vn 0.1645 -0.1645 -0.9726
vn 0.1644 -0.1645 -0.9726
vn 0.1645 -0.1644 -0.9726
vn 0.1626 -0.1627 -0.9732
vn 0.1745 -0.1745 -0.9691
vn 0.1729 -0.1729 -0.9696
vn 0.1712 -0.1713 -0.9702
vn 0.1465 -0.1465 -0.9783
vn 0.0940 -0.0940 -0.9911
vn 0.0307 -0.0307 -0.9991
vn -0.0000 -0.0000 -1.0000
vn -0.0307 0.0307 -0.9991
vn -0.0940 0.0940 -0.9911
vn -0.1465 0.1465 -0.9783
vn 0.1712 -0.1712 -0.9702
vn -0.1729 0.1729 -0.9696
vn -0.1745 0.1745 -0.9691
vn -0.1626 0.1627 -0.9732
vn -0.1627 0.1627 -0.9732
vn -0.1645 0.1645 -0.9726
vn -0.1644 0.1645 -0.9726
vn -0.1712 0.1712 -0.9702
vn -0.1712 0.1713 -0.9702
vn 0.1627 -0.1626 -0.9732
vn -0.1645 0.1644 -0.9726
vn 0.0274 0.0490 -0.9984
vn 0.0548 0.0979 -0.9937
vn 0.0663 -0.0382 -0.9971
vn 0.1029 0.0210 -0.9945
vn 0.1866 -0.1166 -0.9755
vn -0.0128 0.1047 -0.9944
vn -0.0306 0.0295 -0.9991
vn -0.1030 -0.0084 -0.9946
vn -0.0481 -0.0427 -0.9979
vn 0.0656 -0.0054 -0.9978
vn 0.0077 0.0713 -0.9974
vn 0.0377 0.0693 -0.9969
vn -0.0561 0.1252 -0.9905
vn 0.0008 0.0014 -1.0000
vn -0.0010 0.0001 -1.0000
vn -0.0824 0.1487 -0.9854
vn 0.0166 0.8160 -0.5779
vn 0.1250 0.7208 -0.6818
vn -0.0032 0.0019 -1.0000
vn 0.0201 -0.0101 -0.9997
vn 0.0503 -0.0920 -0.9945
vn 0.1303 -0.1265 -0.9834
vn 0.0668 0.0326 -0.9972
vn 0.1073 -0.0522 -0.9929
vn 0.0184 -0.0160 -0.9997
vt -0.005005 1.000000
vt -0.021362 0.599976
vt -0.021362 1.000000
vt -0.005005 0.599976
vt 0.141968 1.000000
vt 0.141968 0.599976
vt 0.305420 1.000000
vt 0.305420 0.599976
vt 0.461670 1.000000
vt 0.461670 0.599976
vt 0.625000 1.000000
vt 0.625000 0.599976
vt 0.774170 1.000000
vt 0.774170 0.599976
vt 0.909058 1.000000
vt 0.909058 0.599976
vt 1.065308 1.000000
vt 1.065308 0.599976
vt 1.228638 1.000000
vt 1.228638 0.599976
vt 1.299683 1.000000
vt 1.299683 0.599976
vt 1.370728 1.000000
vt 1.370728 0.599976
vt 1.534058 1.000000
vt 1.534058 0.599976
vt 1.690308 0.599976
vt 2.137817 1.000000
vt 2.137817 0.599976
vt 1.974365 0.599976
vt 2.294067 0.599976
vt 2.294067 1.000000
vt 2.457397 0.599976
vt 2.457397 1.000000
vt 2.604370 0.599976
vt 2.604370 1.000000
vt 1.690308 1.000000
vt 1.825317 0.599976
vt 1.825317 1.000000
vt 1.974365 1.000000
vt 2.620728 0.599976
vt 2.620728 1.000000
vt 0.071045 0.000000
vt 0.136352 1.000000
vt 0.332642 1.000000
vt -0.082764 1.000000
vt -0.557617 0.000000
vt -0.444214 1.000000
vt -0.510254 1.000000
vt 0.713989 1.000000
vt 0.792481 0.000000
vt 0.792481 1.000000
vt -0.168213 0.000000
vt 0.566895 1.000000
vt 0.062866 1.000000
vt 0.781738 0.000000
vt 0.418945 1.000000
vt 0.705200 1.000000
vt 0.621216 1.000000
vt 0.781738 1.000000
vt 0.630737 1.000000
vt 0.076904 1.000000
vt -0.155762 1.000000
vt -0.557617 1.000000
vt -0.168213 1.000000
vt -0.006714 1.000000
vt 0.153198 1.000000
vt 0.740356 1.000000
s 1
usemtl mt_tuti_blend
f 3/1/1 2/2/1 1/3/1
f 4/4/2 2/2/1 3/1/1
s 0
f 5/5/1 4/4/1 3/1/1
f 6/6/1 4/4/1 5/5/1
f 7/7/3 6/6/3 5/5/3
f 8/8/2 6/6/2 7/7/2
f 9/9/4 8/8/4 7/7/4
f 10/10/4 8/8/4 9/9/4
s 1
f 11/11/5 10/10/6 9/9/6
f 12/12/5 10/10/6 11/11/5
f 13/13/7 12/12/5 11/11/5
f 14/14/7 12/12/5 13/13/7
f 15/15/8 14/14/7 13/13/7
f 16/16/8 14/14/7 15/15/8
f 17/17/9 16/16/8 15/15/8
f 18/18/9 16/16/8 17/17/9
f 19/19/10 18/18/9 17/17/9
f 20/20/10 18/18/9 19/19/10
f 21/21/11 20/20/10 19/19/10
f 22/22/11 20/20/10 21/21/11
f 23/23/12 22/22/11 21/21/11
f 24/24/12 22/22/11 23/23/12
f 25/25/13 24/24/12 23/23/12
f 26/26/13 24/24/12 25/25/13
f 27/27/14 26/26/13 25/25/13
f 30/17/9 29/18/9 28/20/10
f 31/16/8 29/18/9 30/17/9
f 32/15/8 31/16/8 30/17/9
f 33/14/15 31/16/8 32/15/8
f 34/13/15 33/14/15 32/15/8
f 35/12/5 33/14/15 34/13/15
f 36/11/5 35/12/5 34/13/15
f 37/9/6 35/12/5 36/11/5
f 40/28/16 39/29/16 38/30/17
s 0
f 41/31/18 39/29/18 40/28/18
f 42/32/19 41/31/19 40/28/19
f 43/33/20 41/31/20 42/32/20
f 44/34/21 43/33/21 42/32/21
f 45/35/20 43/33/20 44/34/20
f 46/36/20 45/35/20 44/34/20
s 1
f 47/37/14 27/27/14 25/25/13
f 48/38/22 27/27/14 47/37/14
f 49/39/22 48/38/22 47/37/14
f 38/30/17 48/38/22 49/39/22
f 50/40/17 38/30/17 49/39/22
f 40/28/16 38/30/17 50/40/17
f 53/39/23 52/38/23 51/40/17
f 54/27/14 52/38/23 53/39/23
f 55/37/14 54/27/14 53/39/23
f 56/26/13 54/27/14 55/37/14
f 57/25/13 56/26/13 55/37/14
f 58/23/12 56/26/13 57/25/13
f 37/9/6 59/10/6 35/12/5
s 0
f 60/8/24 59/10/24 37/9/24
f 61/7/24 60/8/24 37/9/24
f 62/6/1 60/8/1 61/7/1
f 63/5/1 62/6/1 61/7/1
s 1
f 66/21/11 65/22/11 64/24/12
f 28/20/10 65/22/11 66/21/11
f 67/19/10 28/20/10 66/21/11
f 30/17/9 28/20/10 67/19/10
f 51/40/17 69/29/16 68/28/16
f 70/30/17 69/29/16 51/40/17
f 52/38/23 70/30/17 51/40/17
f 72/41/20 46/36/20 71/42/25
f 45/35/20 46/36/20 72/41/20
f 75/42/20 74/35/20 73/41/20
f 76/36/20 74/35/20 75/42/20
f 79/2/3 78/1/3 77/3/3
f 80/4/3 78/1/3 79/2/3
s 0
f 80/4/1 63/5/1 78/1/1
f 62/6/1 63/5/1 80/4/1
f 76/36/25 81/33/25 74/35/25
f 82/34/20 81/33/20 76/36/20
f 82/34/20 83/31/20 81/33/20
f 84/32/20 83/31/20 82/34/20
f 84/32/19 69/29/19 83/31/19
f 68/28/18 69/29/18 84/32/18
s 1
f 58/23/12 64/24/12 56/26/13
f 66/21/11 64/24/12 58/23/12
f 87/43/26 86/44/27 85/45/27
f 88/46/27 86/44/27 87/43/26
f 89/47/28 88/46/27 87/43/26
f 90/48/29 88/46/27 89/47/28
f 91/49/30 90/48/29 89/47/28
f 92/50/31 87/43/26 85/45/27
f 93/51/32 87/43/26 92/50/31
f 94/52/33 93/51/32 92/50/31
f 95/52/34 93/51/32 94/52/33
f 98/53/35 97/54/36 96/55/37
f 99/56/38 97/54/36 98/53/35
f 100/57/39 99/56/38 98/53/35
f 101/58/40 99/56/38 100/57/39
f 99/56/38 102/59/41 97/54/36
f 103/60/42 102/59/41 99/56/38
f 104/60/43 103/60/42 99/56/38
f 105/61/44 93/51/32 95/52/34
f 106/62/11 93/51/32 105/61/44
f 106/62/11 87/43/26 93/51/32
f 107/63/11 87/43/26 106/62/11
f 107/63/11 89/47/28 87/43/26
f 108/64/45 89/47/28 107/63/11
f 109/64/46 89/47/28 108/64/45
f 110/64/47 89/47/28 109/64/46
f 111/65/48 98/53/35 96/55/37
f 112/66/49 98/53/35 111/65/48
f 98/53/35 113/67/50 100/57/39
f 112/66/49 113/67/50 98/53/35
f 99/56/38 114/68/11 104/60/43
f 101/58/40 114/68/11 99/56/38
f 91/49/30 89/47/28 110/64/47
