# Blender 4.1.1
# www.blender.org
mtllib polygon561.mtl
o polygon561
v -2355.657959 3280.043945 -69.000145
v -2355.657959 3154.978027 -69.000122
v -2335.657959 3286.298096 -69.000137
v -2335.657959 3148.724854 -69.000130
v -2290.426025 3102.529053 -69.000320
v -2335.657959 3072.141113 -69.000122
v -2267.662109 3079.428955 -69.000328
v -2240.347168 3072.141113 -69.000122
v -2106.454834 3072.141113 -69.000122
v -2106.454834 3032.954834 -69.000114
v -2086.454834 3060.000000 -69.000122
v -2086.454834 3012.954834 -69.000114
v -1934.702148 3351.957031 -69.000397
v -1931.551025 3359.751221 -69.000359
v -2265.372070 3351.957031 -69.000397
v -2269.165771 3359.927002 -69.000359
v -2290.199951 3336.665039 -69.000366
v -2335.657959 3372.954834 -69.000160
v -2355.657959 3286.298096 -69.000137
v -2282.372070 3105.521240 -69.000366
v -2265.372070 3088.521240 -69.000366
v -1933.824951 3079.322021 -69.000282
v -1887.347046 3072.141113 -69.000122
v -1887.347046 3060.000000 -69.000122
v -2355.657959 3148.724854 -69.000130
v -2355.657959 3059.667236 -69.000122
v -2260.347168 3059.667969 -69.000122
v -2240.347168 3032.954834 -69.000114
v -1910.054077 3104.300781 -69.000343
v -1857.347046 3072.141113 -69.000122
v -1857.347046 3310.528076 -69.000153
v -1837.347046 3310.528076 -69.000153
v -1841.093994 3314.274902 -69.000145
v -1934.702148 3088.521240 -69.000366
v -1917.589966 3105.521240 -69.000366
v -1917.589966 3334.957031 -69.000397
v -1910.156006 3338.687988 -69.000366
v -1919.774048 3372.954834 -69.000160
v -1916.026978 3389.208008 -69.000160
v -2282.372070 3334.957031 -69.000397
v -2355.657959 3392.954834 -69.000160
v -1919.774048 3392.954834 -69.000160
v -1837.347046 3060.000000 -69.000122
v -2260.347168 3012.954834 -69.000114
vn -0.0000 -0.0000 -1.0000
vt -3.281738 2.644775
vt -1.940674 4.468018
vt -3.447510 2.960938
vt -1.624268 4.302246
vt -0.522705 4.313965
vt -0.701416 5.225098
vt 0.029785 4.317871
vt 0.446777 4.076660
vt 2.060059 2.463379
vt 2.532227 2.935547
vt 2.447266 2.368896
vt 3.014160 2.935547
vt -3.226074 1.006836
vt 0.702148 -3.109131
vt 0.758057 -2.977295
vt -3.367676 0.956543
vt -3.340820 1.490234
vt -4.325928 1.600586
vt -3.522705 2.885742
vt -0.052002 4.180908
vt -0.461670 4.180908
vt 4.053467 0.297119
vt 4.699951 -0.176514
vt 4.846191 -0.030029
vt -0.792236 5.616211
vt -1.865234 4.543213
vt 0.356201 4.468018
vt 0.918945 4.548828
vt 4.038818 -0.290283
vt 5.061279 -0.537842
vt 2.189209 -3.410156
vt 2.430176 -3.651123
vt 2.339844 -3.651123
vt 3.931885 0.196777
vt 3.933350 -0.214111
vt 1.168945 -2.978516
vt 1.213623 -3.113037
vt 0.684815 -3.410156
vt 0.534180 -3.651123
vt -3.226074 1.416504
vt -4.807861 1.600586
vt 0.443848 -3.651123
vt 5.448486 -0.632568
vt 0.918945 5.030762
s 0
usemtl mt_kusa.015
f 3/1/1 2/2/1 1/3/1
f 4/4/1 2/2/1 3/1/1
f 5/5/1 4/4/1 3/1/1
f 6/6/1 4/4/1 5/5/1
f 7/7/1 6/6/1 5/5/1
f 8/8/1 6/6/1 7/7/1
f 9/9/1 8/8/1 7/7/1
f 10/10/1 8/8/1 9/9/1
f 11/11/1 10/10/1 9/9/1
f 12/12/1 10/10/1 11/11/1
f 15/13/1 14/14/1 13/15/1
f 16/16/1 14/14/1 15/13/1
f 17/17/1 16/16/1 15/13/1
f 18/18/1 16/16/1 17/17/1
f 3/1/1 18/18/1 17/17/1
f 19/19/1 18/18/1 3/1/1
f 1/3/1 19/19/1 3/1/1
f 21/20/1 5/5/1 20/21/1
f 7/7/1 5/5/1 21/20/1
f 22/22/1 7/7/1 21/20/1
f 9/9/1 7/7/1 22/22/1
f 23/23/1 9/9/1 22/22/1
f 11/11/1 9/9/1 23/23/1
f 24/24/1 11/11/1 23/23/1
f 6/6/1 26/25/1 25/26/1
f 27/27/1 26/25/1 6/6/1
f 8/8/1 27/27/1 6/6/1
f 28/28/1 27/27/1 8/8/1
f 10/10/1 28/28/1 8/8/1
f 12/12/1 28/28/1 10/10/1
f 29/29/1 23/23/1 22/22/1
f 30/30/1 23/23/1 29/29/1
f 31/31/1 30/30/1 29/29/1
f 32/32/1 30/30/1 31/31/1
f 33/33/1 32/32/1 31/31/1
f 34/34/1 22/22/1 21/20/1
f 29/29/1 22/22/1 34/34/1
f 35/35/1 29/29/1 34/34/1
f 36/36/1 29/29/1 35/35/1
f 14/14/1 37/37/1 13/15/1
f 38/38/1 37/37/1 14/14/1
f 16/16/1 38/38/1 14/14/1
f 18/18/1 38/38/1 16/16/1
f 37/37/1 36/36/1 13/15/1
f 29/29/1 36/36/1 37/37/1
f 31/31/1 29/29/1 37/37/1
f 38/38/1 31/31/1 37/37/1
f 33/33/1 31/31/1 38/38/1
f 39/39/1 33/33/1 38/38/1
f 40/40/1 17/17/1 15/13/1
f 20/21/1 17/17/1 40/40/1
f 41/41/1 18/18/1 19/19/1
f 42/42/1 18/18/1 41/41/1
f 4/4/1 25/26/1 2/2/1
f 6/6/1 25/26/1 4/4/1
f 17/17/1 5/5/1 3/1/1
f 20/21/1 5/5/1 17/17/1
f 43/43/1 30/30/1 32/32/1
f 24/24/1 30/30/1 43/43/1
f 44/44/1 28/28/1 12/12/1
f 27/27/1 28/28/1 44/44/1
f 38/38/1 42/42/1 39/39/1
f 18/18/1 42/42/1 38/38/1
f 23/23/1 30/30/1 24/24/1
