# Blender 4.1.1
# www.blender.org
mtllib polygon141.mtl
o polygon141
v -4856.523438 12902.988281 -424.292816
v -4857.098145 12946.059570 -295.991730
v -5204.283203 12712.028320 -376.242920
v -5214.642090 12746.549805 -246.922607
v -5649.802246 12635.129883 -255.201599
v -5671.875977 12668.809570 -124.862206
v -5910.924316 12034.318359 -141.195221
v -5956.033203 12021.738281 -45.312954
v -5668.080078 11667.089844 -141.195175
v -5678.288574 11621.250000 -51.437454
v -4864.982422 11855.429688 -23.784491
v -4087.623291 11907.939453 -146.321014
v -4114.182129 11940.929688 -269.001221
v -4873.342285 11909.459961 -172.757919
v -3914.202148 12913.299805 -218.127029
v -4370.231445 13062.929688 -302.181061
v -3947.753906 12877.750000 -356.169922
v -4385.846191 13028.859375 -426.727051
v -3867.234863 12466.299805 -324.514282
v -3804.146240 12459.229492 -150.476379
vn -0.3769 0.8776 -0.2963
vn -0.3682 0.8837 -0.2890
vn -0.3845 0.8831 -0.2687
vn -0.3561 0.8950 -0.2686
vn -0.5953 0.7482 -0.2930
vn -0.6758 0.6748 -0.2966
vn -0.9042 -0.0515 -0.4239
vn -0.8924 -0.1338 -0.4309
vn -0.3111 -0.8314 -0.4604
vn -0.2747 -0.8433 -0.4619
vn 0.1373 -0.9291 -0.3433
vn 0.4828 -0.8138 -0.3234
vn 0.5188 -0.7875 -0.3325
vn 0.1229 -0.9307 -0.3445
vn 0.7600 0.5555 -0.3372
vn 0.0991 0.9559 -0.2766
vn 0.7186 0.6122 -0.3299
vn 0.0287 0.9611 -0.2747
vn 0.9338 -0.1201 -0.3369
vn 0.9281 -0.1501 -0.3407
vt -0.896545 0.000000
vt -0.897217 1.000000
vt -0.897095 0.000000
vt -0.896729 1.000000
vt -0.895996 0.000000
vt -0.896240 1.000000
vt -0.893738 0.000000
vt -0.894165 1.000000
vt -0.677795 0.000000
vt -0.709595 1.000000
vt 0.034790 1.000000
vt 0.676086 0.000000
vt 0.765320 1.000000
vt 0.010986 0.000000
vt -0.898254 0.000000
vt -0.897766 1.000000
vt -0.898254 1.000000
vt -0.897705 0.000000
vt 0.954163 1.000000
vt 0.954163 0.000000
vt 0.817993 0.000000
s 1
usemtl mt_kusa_blend.019
f 3/1/3 2/2/2 1/3/1
f 4/4/4 2/2/2 3/1/3
f 5/5/5 4/4/4 3/1/3
f 6/6/6 4/4/4 5/5/5
f 7/7/7 6/6/6 5/5/5
f 8/8/8 6/6/6 7/7/7
f 9/9/9 8/8/8 7/7/7
f 10/10/10 8/8/8 9/9/9
f 11/11/11 10/10/10 9/9/9
f 11/11/11 13/12/13 12/13/12
f 14/14/14 13/12/13 11/11/11
f 9/9/9 14/14/14 11/11/11
f 17/15/17 16/16/16 15/17/15
f 18/18/18 16/16/16 17/15/17
f 18/18/18 2/2/2 16/16/16
f 1/3/1 2/2/2 18/18/18
f 15/19/15 19/20/19 17/21/17
f 20/19/20 19/20/19 15/19/15
f 20/19/20 13/12/13 19/20/19
f 12/13/12 13/12/13 20/19/20
