# Blender 4.1.1
# www.blender.org
mtllib polygon508.mtl
o polygon508
v -1166.429932 29.174982 -212.168884
v -1156.938110 15.901070 -168.243103
v -1003.524963 179.220978 -208.724808
v -995.447571 166.481079 -164.273300
v -825.165283 289.136353 -198.869522
v -820.870422 276.804871 -157.220932
v -683.739502 356.214355 -181.396927
v -679.978394 346.048157 -139.963837
v -552.156860 390.642365 -170.103134
v -551.075562 381.018188 -124.946632
v -444.852386 400.209015 -160.692459
v -444.514374 391.851746 -123.530540
v -344.025574 415.816071 -164.365448
v -342.052185 406.008453 -124.195244
v -241.309387 458.551788 -177.679855
v -233.053787 447.745453 -126.900543
v -149.693390 536.281189 -135.038742
v -3739.227051 2708.478027 -18.526670
v -3945.743896 2374.877197 -39.002159
v -3739.227051 2708.478027 -79.000076
v -3943.099854 2373.518066 -79.000031
v -3953.318115 2079.119873 -42.272854
v -3951.592041 2079.995117 -92.272850
v -1235.531006 -117.671623 -170.807281
v -1251.465088 -111.554123 -213.893753
v -58.319237 1401.131104 -65.896690
v -131.616302 1257.739990 -78.027481
v -116.433090 1253.265015 -32.237419
v -144.013199 1108.118042 -53.585659
v -158.183075 542.130371 -191.307144
v -116.308189 660.281860 -179.273682
v -102.662300 659.101074 -120.409775
v -121.698494 794.226746 -157.822189
v -110.869499 795.458252 -95.905960
v -152.233398 959.574829 -134.622604
v -138.381592 960.680359 -67.297920
v -159.842010 1109.998047 -106.419617
vn 0.7277 -0.5970 -0.3377
vn 0.7367 -0.5856 -0.3383
vn 0.5820 -0.7467 -0.3220
vn 0.5835 -0.7472 -0.3180
vn 0.4797 -0.8259 -0.2964
vn 0.4803 -0.8276 -0.2905
vn 0.3648 -0.8949 -0.2570
vn 0.3554 -0.9012 -0.2482
vn 0.1952 -0.9573 -0.2135
vn 0.1895 -0.9591 -0.2101
vn 0.1219 -0.9684 -0.2176
vn 0.1201 -0.9677 -0.2216
vn 0.2476 -0.9390 -0.2388
vn 0.2377 -0.9405 -0.2428
vn 0.5382 -0.8063 -0.2455
vn 0.5249 -0.8111 -0.2580
vn 0.8308 -0.5205 -0.1971
vn -0.8503 0.5264 -0.0000
vn -0.9547 0.2896 -0.0692
vn -0.8505 0.5259 -0.0048
vn -0.9584 0.2764 -0.0709
vn -0.9989 0.0301 -0.0368
vn -0.9990 0.0304 -0.0340
vn 0.8057 -0.4671 -0.3643
vn 0.8070 -0.4709 -0.3564
vn 0.8535 -0.4090 -0.3230
vn 0.9101 -0.2598 -0.3227
vn 0.9059 -0.2694 -0.3267
vn 0.9558 -0.0379 -0.2915
vn 0.8330 -0.5231 -0.1801
vn 0.9649 -0.1442 -0.2197
vn 0.9700 -0.1055 -0.2192
vn 0.9737 0.1392 -0.1803
vn 0.9725 0.1516 -0.1768
vn 0.9690 0.1473 -0.1983
vn 0.9681 0.1340 -0.2115
vn 0.9610 -0.0179 -0.2758
vt -0.540833 0.000000
vt -0.778687 1.000000
vt -0.774780 0.000000
vt -0.545288 1.000000
vt -0.328003 0.000000
vt -0.334839 1.000000
vt -0.175293 0.000000
vt -0.180786 1.000000
vt -0.055542 0.000000
vt -0.062439 1.000000
vt 0.027344 0.000000
vt 0.020935 1.000000
vt 0.110535 0.000000
vt 0.104126 1.000000
vt 0.216675 0.000000
vt 0.213867 1.000000
vt 0.342957 1.000000
vt -0.829102 0.000000
vt 0.163757 1.000000
vt -0.858154 1.000000
vt 0.131165 0.000000
vt 0.864929 1.000000
vt 0.827881 0.000000
vt -0.886231 0.000000
vt -0.886231 1.000000
vt 0.894836 1.000000
vt 0.894836 0.000000
vt 0.803040 1.000000
vt 0.341675 0.000000
vt 0.465271 0.000000
vt 0.473877 1.000000
vt 0.568298 0.000000
vt 0.576904 1.000000
vt 0.678772 0.000000
vt 0.689392 1.000000
vt 0.793396 0.000000
s 1
usemtl mt_kusa_blend.014
f 3/1/3 2/2/2 1/3/1
f 4/4/4 2/2/2 3/1/3
f 5/5/5 4/4/4 3/1/3
f 6/6/6 4/4/4 5/5/5
f 7/7/7 6/6/6 5/5/5
f 8/8/8 6/6/6 7/7/7
f 9/9/9 8/8/8 7/7/7
f 10/10/10 8/8/8 9/9/9
f 11/11/11 10/10/10 9/9/9
f 12/12/12 10/10/10 11/11/11
f 13/13/13 12/12/12 11/11/11
f 14/14/14 12/12/12 13/13/13
f 15/15/15 14/14/14 13/13/13
f 16/16/16 14/14/14 15/15/15
f 17/17/17 16/16/16 15/15/15
f 20/18/20 19/19/19 18/20/18
f 21/21/21 19/19/19 20/18/20
f 21/21/21 22/22/22 19/19/19
f 23/23/23 22/22/22 21/21/21
f 25/24/25 2/2/2 24/25/24
f 1/3/1 2/2/2 25/24/25
f 28/26/28 27/27/27 26/27/26
f 29/28/29 27/27/27 28/26/28
f 30/29/30 17/17/17 15/15/15
f 31/30/31 17/17/17 30/29/30
f 31/30/31 32/31/32 17/17/17
f 33/32/33 32/31/32 31/30/31
f 33/32/33 34/33/34 32/31/32
f 35/34/35 34/33/34 33/32/33
f 35/34/35 36/35/36 34/33/34
f 37/36/37 36/35/36 35/34/35
f 29/28/29 37/36/37 27/27/27
f 36/35/36 37/36/37 29/28/29
