# Blender 4.1.1
# www.blender.org
mtllib polygon787.mtl
o polygon787
v 4877.368164 -1648.341064 -178.727097
v 4877.368164 -1648.341064 -190.069977
v 4877.364258 -1646.917114 -178.727097
v 4877.364258 -1646.917114 -190.069977
v 4878.789062 -1646.913086 -190.069977
v 4878.789062 -1646.913086 -178.727097
v 4878.791992 -1648.338135 -190.069977
v 4878.791992 -1648.338135 -178.727097
v 4877.338379 -1776.232910 -178.727081
v 4877.338379 -1776.232910 -190.069977
v 4877.334961 -1774.808105 -178.727081
v 4877.334961 -1774.808105 -190.069977
v 4878.759277 -1774.804932 -190.069977
v 4878.759277 -1774.804932 -178.727081
v 4878.763184 -1776.229004 -190.069977
v 4878.763184 -1776.229004 -178.727081
v 4877.347168 -2135.911133 -178.727036
v 4877.347168 -2135.911133 -190.069916
v 4877.342773 -2134.486084 -178.727036
v 4877.342773 -2134.486084 -190.069916
v 4878.768066 -2134.482178 -190.069916
v 4878.768066 -2134.482178 -178.727036
v 4878.770996 -2135.906982 -190.069916
v 4878.770996 -2135.906982 -178.727036
v 4877.354004 -2008.016968 -178.727051
v 4877.354004 -2008.016968 -190.069946
v 4877.350098 -2006.592041 -178.727051
v 4877.350098 -2006.592041 -190.069946
v 4878.774414 -2006.588135 -190.069946
v 4878.774414 -2006.588135 -178.727051
v 4878.778320 -2008.013062 -190.069946
v 4878.778320 -2008.013062 -178.727051
v 4877.354004 -1955.791016 -178.727081
v 4877.354004 -1955.791016 -190.069962
v 4877.350586 -1954.366089 -178.727081
v 4877.350586 -1954.366089 -190.069962
v 4878.775391 -1954.361938 -190.069962
v 4878.775391 -1954.361938 -178.727081
v 4878.779297 -1955.787109 -190.069962
v 4878.779297 -1955.787109 -178.727081
v 4877.365234 -1827.890015 -178.727097
v 4877.365234 -1827.890015 -190.069992
v 4877.361328 -1826.466064 -178.727097
v 4877.361328 -1826.466064 -190.069992
v 4878.786133 -1826.462036 -190.069992
v 4878.786133 -1826.462036 -178.727097
v 4878.790039 -1827.886963 -190.069992
v 4878.790039 -1827.886963 -178.727097
vn -1.0000 -0.0027 -0.0000
vn -0.0027 1.0000 -0.0000
vn -0.0029 1.0000 -0.0000
vn 0.0022 -1.0000 -0.0000
vn 0.0019 -1.0000 -0.0000
vn 1.0000 0.0021 -0.0000
vn -0.0000 -0.0000 -1.0000
vn -1.0000 -0.0024 -0.0000
vn -0.0022 1.0000 -0.0000
vn 0.0029 -1.0000 -0.0000
vn 0.0027 -1.0000 -0.0000
vn 1.0000 0.0027 -0.0000
vn -1.0000 -0.0031 -0.0000
vn 0.0024 -1.0000 -0.0000
vt 1.000000 0.000000
vt 0.750000 0.968750
vt 0.750000 0.000000
vt 1.000000 0.968750
vt 0.000000 0.968750
vt 0.250000 0.000000
vt 0.250000 0.968750
vt 0.000000 0.000000
vt 0.500000 0.968750
vt 0.500000 0.000000
s 0
usemtl mt_toudai.009
f 3/1/1 2/2/1 1/3/1
f 4/4/1 2/2/1 3/1/1
f 4/5/2 6/6/2 5/7/2
f 3/8/3 6/6/3 4/5/3
f 7/9/4 1/3/4 2/2/4
f 8/10/5 1/3/5 7/9/5
f 5/7/6 8/10/6 7/9/6
f 6/6/6 8/10/6 5/7/6
f 4/7/7 7/10/7 2/9/7
f 5/6/7 7/10/7 4/7/7
f 11/1/8 10/2/8 9/3/8
f 12/4/8 10/2/8 11/1/8
f 12/5/9 14/6/9 13/7/9
f 11/8/9 14/6/9 12/5/9
f 15/9/10 9/3/10 10/2/10
f 16/10/11 9/3/11 15/9/11
f 13/7/12 16/10/12 15/9/12
f 14/6/12 16/10/12 13/7/12
f 12/7/7 15/10/7 10/9/7
f 13/6/7 15/10/7 12/7/7
f 19/1/13 18/2/13 17/3/13
f 20/4/13 18/2/13 19/1/13
f 20/5/2 22/6/2 21/7/2
f 19/8/3 22/6/3 20/5/3
f 23/9/10 17/3/10 18/2/10
f 24/10/10 17/3/10 23/9/10
f 21/7/6 24/10/6 23/9/6
f 22/6/6 24/10/6 21/7/6
f 20/7/7 23/10/7 18/9/7
f 21/6/7 23/10/7 20/7/7
f 27/1/1 26/2/1 25/3/1
f 28/4/1 26/2/1 27/1/1
f 28/5/2 30/6/2 29/7/2
f 27/8/3 30/6/3 28/5/3
f 31/9/11 25/3/11 26/2/11
f 32/10/10 25/3/10 31/9/10
f 29/7/12 32/10/12 31/9/12
f 30/6/12 32/10/12 29/7/12
f 28/7/7 31/10/7 26/9/7
f 29/6/7 31/10/7 28/7/7
f 35/1/8 34/2/8 33/3/8
f 36/4/8 34/2/8 35/1/8
f 36/5/3 38/6/3 37/7/3
f 35/8/3 38/6/3 36/5/3
f 39/9/11 33/3/11 34/2/11
f 40/10/11 33/3/11 39/9/11
f 37/7/12 40/10/12 39/9/12
f 38/6/12 40/10/12 37/7/12
f 36/7/7 39/10/7 34/9/7
f 37/6/7 39/10/7 36/7/7
f 43/1/1 42/2/1 41/3/1
f 44/4/1 42/2/1 43/1/1
f 44/5/3 46/6/3 45/7/3
f 43/8/3 46/6/3 44/5/3
f 47/9/14 41/3/14 42/2/14
f 48/10/5 41/3/5 47/9/5
f 45/7/12 48/10/12 47/9/12
f 46/6/12 48/10/12 45/7/12
f 44/7/7 47/10/7 42/9/7
f 45/6/7 47/10/7 44/7/7
