# Blender 4.1.1
# www.blender.org
mtllib polygon634.mtl
o polygon634
v -2922.997070 -1107.755005 -426.582550
v -2955.162109 -1097.005005 -431.081726
v -2955.547119 -1107.869995 -429.853027
v -3004.483154 -1097.864014 -435.356903
v -3004.483154 -1107.984009 -433.123535
v -3117.596191 -1090.659058 -443.130524
v -3119.339844 -1099.987061 -441.032959
v -3167.364258 -1088.232056 -446.326355
v -3239.878174 -1115.196045 -455.589233
v -3241.056152 -1118.071045 -456.417236
v -3217.003174 -1114.041016 -450.986023
v -3182.548096 -1139.432007 -450.413361
v -3178.510010 -1128.887085 -447.243896
v -3127.185791 -1141.964111 -442.254395
v -3129.358154 -1153.354004 -444.955261
v -3004.529053 -1165.895020 -436.269226
v -3004.483154 -1153.525024 -433.734222
v -2953.795166 -1156.057007 -430.213928
v -2905.263916 -1103.153076 -425.989624
v -2905.840820 -1096.147095 -426.806732
v -2930.501221 -1095.729980 -428.944275
v -3219.778076 -1064.446045 -453.237244
v -3203.382080 -1075.618042 -450.296448
v -3218.791260 -1061.853027 -453.416656
v -3165.783936 -1079.113037 -448.028778
v -2899.442139 -1173.839111 -427.498077
v -2919.492188 -1158.588013 -426.693573
v -2925.714111 -1172.658081 -429.690887
v -2951.985840 -1169.867065 -431.883636
v -920.461487 -1252.313110 -329.199646
v -927.641296 -1254.236938 -329.199646
v -913.517578 -1270.736938 -329.199646
v -909.783020 -1320.886108 -329.199615
v -902.755371 -1301.372925 -329.199646
v -905.385742 -1319.708008 -329.199615
v -656.163025 -1252.928955 -329.199646
v -648.983093 -1251.004883 -329.199646
v -663.106873 -1234.505981 -329.199615
v -666.841492 -1184.356079 -329.199615
v -673.869019 -1203.869873 -329.199615
v -671.238647 -1185.534912 -329.199615
v -920.163757 -1312.595215 -328.463928
v -929.911682 -1265.740967 -328.716949
v -656.460693 -1192.647095 -328.463898
v -646.712769 -1239.500977 -328.716919
vn 0.0847 -0.1338 -0.9874
vn 0.0931 -0.1176 -0.9887
vn 0.0922 -0.1218 -0.9883
vn 0.0608 -0.2084 -0.9762
vn 0.0596 -0.2155 -0.9747
vn 0.0514 -0.2258 -0.9728
vn 0.0512 -0.2282 -0.9723
vn 0.0479 -0.1937 -0.9799
vn 0.1834 0.2020 -0.9621
vn 0.1820 0.2088 -0.9609
vn 0.1793 0.2207 -0.9587
vn 0.1660 0.2231 -0.9606
vn 0.1645 0.2256 -0.9602
vn 0.1198 0.2088 -0.9706
vn 0.1212 0.2071 -0.9708
vn 0.0834 0.1944 -0.9774
vn 0.0824 0.1998 -0.9764
vn 0.0994 0.1378 -0.9855
vn 0.0619 -0.1106 -0.9919
vn 0.0697 -0.1221 -0.9901
vn 0.0895 -0.1379 -0.9864
vn 0.1038 -0.1079 -0.9887
vn 0.0457 -0.1731 -0.9838
vn 0.0883 -0.1252 -0.9882
vn 0.0472 -0.1901 -0.9806
vn 0.0895 0.1695 -0.9815
vn 0.0961 0.1624 -0.9820
vn 0.0956 0.1668 -0.9813
vn 0.1013 0.1371 -0.9854
vn -0.0000 -0.0000 -1.0000
vn -0.0203 -0.0054 -0.9998
vn -0.0259 -0.0069 -0.9996
vn 0.0203 0.0054 -0.9998
vn 0.0259 0.0069 -0.9996
vn -0.0898 -0.0241 -0.9957
vn 0.0898 0.0241 -0.9957
vt 0.956482 1.217773
vt 0.959473 0.500000
vt 1.210754 1.217773
vt 0.574158 0.500000
vt 0.574158 1.217773
vt -0.309570 0.500000
vt -0.323181 1.217773
vt -0.698364 1.217773
vt -1.086182 1.415344
vt -1.274048 0.500000
vt -1.238342 1.000000
vt -0.816956 0.500000
vt -0.785400 1.217773
vt -0.384460 1.217773
vt -0.401428 0.500000
vt 0.573792 0.500000
vt 0.970154 1.217773
vt 1.344788 0.500000
vt 1.303345 1.000000
vt 1.152161 0.500000
vt -1.100098 0.500000
vt -0.979736 1.252563
vt -1.062683 1.000000
vt -0.686035 0.500000
vt 1.189514 0.500000
vt 1.238159 1.217773
vt 1.394775 1.000000
vt 0.984314 0.500000
vt 0.601257 1.000000
vt 0.757812 0.000000
vt 0.754883 1.000000
vt 0.154541 0.000000
vt 0.347656 1.000000
vt 0.154541 1.000000
vt -0.176148 1.000000
vt 0.001648 0.000000
vt 0.001648 1.000000
vt -0.598389 0.000000
vt -0.429810 1.000000
vt -0.598389 1.000000
vt 0.677734 1.000000
vt 0.305969 1.000000
vt -0.103638 1.000000
vt -0.473389 1.000000
s 1
usemtl mt_tuti_blend.002
f 3/1/3 2/2/2 1/3/1
f 4/4/4 2/2/2 3/1/3
f 5/5/5 4/4/4 3/1/3
f 6/6/6 4/4/4 5/5/5
f 7/7/7 6/6/6 5/5/5
f 8/8/8 6/6/6 7/7/7
f 11/9/11 10/10/10 9/11/9
f 12/12/12 10/10/10 11/9/11
f 13/13/13 12/12/12 11/9/11
f 14/14/14 12/12/12 13/13/13
f 14/14/14 15/15/15 12/12/12
f 16/16/16 15/15/15 14/14/14
f 17/5/17 16/16/16 14/14/14
f 18/17/18 16/16/16 17/5/17
f 1/3/1 20/18/20 19/19/19
f 21/20/21 20/18/20 1/3/1
f 2/2/2 21/20/21 1/3/1
f 24/21/24 23/22/23 22/23/22
f 25/24/25 23/22/23 24/21/24
f 25/24/25 8/8/8 23/22/23
f 6/6/6 8/8/8 25/24/25
f 28/25/28 27/26/27 26/27/26
f 29/28/29 27/26/27 28/25/28
f 29/28/29 18/17/18 27/26/27
f 16/16/16 18/17/18 29/28/29
f 32/29/30 31/30/31 30/31/30
f 33/32/32 31/30/31 32/29/30
f 34/33/30 33/32/32 32/29/30
f 35/34/30 33/32/32 34/33/30
f 38/35/30 37/36/33 36/37/30
f 39/38/34 37/36/33 38/35/30
f 40/39/30 39/38/34 38/35/30
f 41/40/30 39/38/34 40/39/30
f 43/41/35 33/32/32 42/42/35
f 31/30/31 33/32/32 43/41/35
f 45/43/36 39/38/34 44/44/36
f 37/36/33 39/38/34 45/43/36
