# Blender 4.1.1
# www.blender.org
mtllib polygon191.mtl
o polygon191
v -2110.905029 3511.251221 -179.012909
v -2110.905029 3511.251221 -71.501175
v -2113.399170 3511.251221 -179.012909
v -2113.399170 3511.251221 -71.501175
v -2113.399170 3508.757080 -179.012909
v -2113.399170 3508.757080 -71.501175
v -2110.905029 3508.757080 -179.012909
v -2110.905029 3508.757080 -71.501175
v -2239.225098 3511.251221 -179.012909
v -2239.225098 3511.251221 -71.501175
v -2241.718994 3511.251221 -179.012909
v -2241.718994 3511.251221 -71.501175
v -2241.718994 3508.757080 -179.012909
v -2241.718994 3508.757080 -71.501175
v -2239.225098 3508.757080 -179.012909
v -2239.225098 3508.757080 -71.501175
v -1053.755005 3656.188965 -132.469345
v -1053.755005 3656.188965 -61.448345
v -1055.626099 3656.188965 -132.469345
v -1055.626099 3656.188965 -61.448345
v -1055.626099 3654.318115 -132.469345
v -1055.626099 3654.318115 -61.448345
v -1053.755005 3654.318115 -132.469345
v -1053.755005 3654.318115 -61.448345
v -1053.755005 3585.319092 -118.638023
v -1053.755005 3585.319092 -47.617004
v -1055.626099 3585.319092 -118.638023
v -1055.626099 3585.319092 -47.617004
v -1055.626099 3583.447998 -118.638023
v -1055.626099 3583.447998 -47.617004
v -1053.755005 3583.447998 -118.638023
v -1053.755005 3583.447998 -47.617004
v -1053.755005 3731.241211 -147.656342
v -1053.755005 3731.241211 -76.635300
v -1055.626099 3731.241211 -147.656342
v -1055.626099 3731.241211 -76.635300
v -1055.626099 3729.369873 -147.656342
v -1055.626099 3729.369873 -76.635300
v -1053.755005 3729.369873 -147.656342
v -1053.755005 3729.369873 -76.635300
v -1874.278076 3511.251221 -179.012909
v -1874.278076 3511.251221 -71.501175
v -1876.771973 3511.251221 -179.012909
v -1876.771973 3511.251221 -71.501175
v -1876.771973 3508.757080 -179.012909
v -1876.771973 3508.757080 -71.501175
v -1874.278076 3508.757080 -179.012909
v -1874.278076 3508.757080 -71.501175
v -1994.241089 3511.251221 -179.012909
v -1994.241089 3511.251221 -71.501175
v -1996.735107 3511.251221 -179.012909
v -1996.735107 3511.251221 -71.501175
v -1996.735107 3508.757080 -179.012909
v -1996.735107 3508.757080 -71.501175
v -1994.241089 3508.757080 -179.012909
v -1994.241089 3508.757080 -71.501175
v -1267.448975 3383.208008 -32.550404
v -1211.531006 3383.208008 -32.550404
v -1267.448975 3383.208008 -44.976868
v -1211.529053 3383.208008 -44.976852
v -1605.797119 3522.954834 -72.000694
v -1661.482910 3522.954834 -72.000717
v -1605.797119 3522.954834 -84.432587
v -1661.482910 3522.954834 -84.432602
v -708.998108 3383.209961 -32.550404
v -708.997803 3383.209961 -44.976700
v -764.490784 3383.209229 -32.550404
v -764.489990 3383.209229 -44.976719
v -850.548035 3383.209229 -32.550404
v -790.702393 3383.209229 -32.550404
v -850.546387 3383.209229 -44.976738
v -790.701294 3383.209229 -44.976730
v -979.952087 3383.209229 -32.550404
v -923.492615 3383.209229 -32.550404
v -979.949341 3383.209229 -44.976780
v -923.490479 3383.209229 -44.976765
v -1034.709106 3383.209229 -32.550404
v -1034.706055 3383.209229 -44.976788
v -1091.373047 3383.208008 -32.550404
v -1091.369995 3383.208008 -44.976814
v -671.999756 3460.923096 -32.550411
v -672.000000 3513.378906 -32.550419
v -671.999756 3460.923096 -45.014240
v -672.000000 3513.378906 -45.039589
v -671.999573 3393.944824 -32.550404
v -671.999756 3446.252930 -32.550411
v -671.999573 3393.944824 -44.981884
v -671.999756 3446.252930 -45.007149
v -1477.072021 3522.954834 -72.000656
v -1532.866943 3522.954834 -72.000679
v -1477.072021 3522.954834 -84.432541
v -1532.866943 3522.954834 -84.432564
v -1588.663086 3522.954834 -72.000694
v -1588.663086 3522.954834 -84.432579
v -1402.222046 3522.954834 -72.000626
v -1458.068970 3522.954834 -72.000648
v -1402.222046 3522.954834 -84.432518
v -1458.068970 3522.954834 -84.432533
v -676.340515 3522.958008 -32.550415
v -731.544800 3522.958008 -32.550415
v -676.340515 3522.958008 -45.044228
v -731.544800 3522.958008 -45.044239
v -1155.608032 3383.208008 -44.976833
v -1155.612061 3383.208008 -32.550404
v -1211.964111 3522.955811 -45.044407
v -1211.964111 3522.955811 -32.550415
v -1267.449951 3522.955811 -45.044426
v -1267.449951 3522.955811 -32.550415
v -1484.014038 3856.840820 -210.575073
v -1482.434082 3875.887207 -171.693054
v -1491.047119 3871.809082 -210.575058
v -1504.906006 3884.185303 -171.693054
v -1508.586060 3878.284912 -210.575058
v -1527.674072 3876.739990 -171.693054
v -1526.356079 3872.474854 -210.575058
v -1537.401978 3857.914062 -171.693069
v -1533.948120 3857.781982 -210.575073
v -1526.914917 3842.812988 -210.575073
v -1491.607056 3842.147217 -210.575073
v -1508.981079 3857.311279 -210.575073
v -1483.150024 3837.882080 -171.693039
v -1473.422119 3856.708008 -171.693069
v -1509.376953 3836.337158 -210.575058
v -1528.391113 3838.734863 -171.693039
v -1505.919067 3830.437012 -171.693039
v -1324.665894 3856.840820 -242.923767
v -1323.085083 3875.887207 -204.041733
v -1331.698975 3871.809082 -242.923752
v -1345.557007 3884.185303 -204.041733
v -1349.237061 3878.284912 -242.923752
v -1368.326050 3876.739990 -204.041733
v -1367.006958 3872.474854 -242.923752
v -1378.054077 3857.914062 -204.041748
v -1374.599976 3857.781982 -242.923767
v -1367.567017 3842.812988 -242.923767
v -1332.258057 3842.147217 -242.923767
v -1349.633057 3857.311279 -242.923767
v -1323.802002 3837.882080 -204.041733
v -1314.073975 3856.708008 -204.041748
v -1350.028076 3836.337158 -242.923737
v -1369.042114 3838.734863 -204.041733
v -1346.569946 3830.437012 -204.041733
v -1057.262085 3777.408936 -85.776932
v -1057.262085 3777.982178 -82.933929
v -1057.262085 3519.917969 -35.420658
v -1057.262085 3520.491211 -32.577679
v -1024.905029 3519.917969 -35.420658
v -1024.905029 3520.491211 -32.577679
v -1024.905029 3777.408936 -85.776932
v -1024.905029 3777.982178 -82.933929
v -1024.905029 3569.087158 -57.057594
v -1024.905029 3571.416992 -45.491905
v -1024.905029 3620.585205 -67.128853
v -1024.905029 3622.915283 -55.563156
v -1024.905029 3672.083008 -77.200096
v -1024.905029 3674.413086 -65.634399
v -1024.905029 3723.582031 -87.271324
v -1024.905029 3725.911133 -75.705650
vn -0.7071 0.7071 -0.0000
vn 0.7071 0.7071 -0.0000
vn -0.7071 -0.7071 -0.0000
vn 0.7071 -0.7071 -0.0000
vn -0.0000 -1.0000 -0.0000
vn 1.0000 -0.0000 -0.0000
vn -0.0000 1.0000 -0.0000
vn -1.0000 -0.0000 -0.0000
vn 0.6427 0.7340 -0.2194
vn 0.6735 0.7048 -0.2231
vn 0.9647 -0.0187 -0.2628
vn 0.0365 0.9875 -0.1533
vn -0.0010 0.9887 -0.1499
vn -0.6364 0.7641 -0.1054
vn -0.6529 0.7502 -0.1044
vn -0.9959 0.0192 -0.0885
vn -0.9959 0.0183 -0.0885
vn -0.6805 -0.7256 -0.1019
vn -0.0000 -0.0000 -1.0000
vn 0.6472 -0.7297 -0.2208
vn 0.6145 -0.7585 -0.2169
vn 0.9647 -0.0178 -0.2628
vn -0.6653 -0.7394 -0.1028
vn -0.0383 -0.9885 -0.1466
vn -0.0008 -0.9887 -0.1500
vn 0.6427 0.7341 -0.2194
vn 0.6735 0.7047 -0.2231
vn -0.0007 -0.9887 -0.1500
vn 1.0000 -0.0000 -0.0001
vn -0.0000 0.1919 0.9814
vn -0.0000 -0.9803 0.1977
vn -0.0000 -0.1919 -0.9814
vn -0.0000 0.9803 -0.1977
vt 1.390625 0.999023
vt -0.203125 0.969482
vt 1.390625 0.969482
vt -0.203125 0.999023
vt 1.390625 0.940674
vt -0.203125 0.940674
vt -5.000000 0.437500
vt -5.000000 0.375000
vt -4.000000 0.437500
vt 0.000000 0.500000
vt 1.000000 0.500000
vt 0.000000 0.437500
vt -4.000000 0.375000
vt -2.000000 0.312500
vt -3.000000 0.250000
vt -2.000000 0.250000
vt 0.000000 0.375000
vt 1.000000 0.312500
vt 0.000000 0.312500
vt 1.000000 0.375000
vt 0.000023 0.500382
vt 0.999977 0.437687
vt 0.000023 0.437619
vt 1.000000 0.437500
vt -4.000000 0.312500
vt -5.000000 0.250000
vt -4.000000 0.250000
vt 1.000000 0.250000
vt 0.000000 0.250000
vt -6.000000 0.375000
vt -7.000000 0.312500
vt -6.000000 0.312500
vt -3.000000 0.375000
vt -2.000000 0.375000
vt -3.000000 0.312500
vt -5.000000 0.312500
vt -3.000000 0.437500
vt -2.000000 0.500000
vt -2.000000 0.437500
vt -3.000000 0.500000
vt -7.000000 0.375000
vt 0.320068 0.118652
vt 0.320068 0.014648
vt 0.280029 0.118652
vt 0.359863 0.014648
vt 0.359863 0.118652
vt 0.399902 0.014648
vt 0.399902 0.118652
vt 0.439697 0.014648
vt 0.439697 0.118652
vt 0.479736 0.118652
vt 0.399902 0.151123
vt 0.240234 0.118652
vt 0.240234 0.014648
vt 0.280029 0.014648
vt 0.519531 0.118652
vt 0.559326 0.118652
vt 0.479736 0.014648
vt 0.519531 0.014648
vt 0.559326 0.014648
vt 3.778809 0.833252
vt -2.756348 0.812500
vt -2.735596 0.833252
vt 3.758057 0.812500
vt -2.735596 0.583252
vt 3.758057 0.562500
vt 3.778809 0.583252
vt -2.756348 0.562500
vt -2.756348 0.833252
vt 3.758057 0.583252
vt -2.756348 0.583252
vt 3.758057 0.833252
vt 3.892090 0.833252
vt 3.892090 0.583252
vt -1.000000 0.437500
vt -1.000000 0.500000
vt 2.000000 0.375000
vt 2.000000 0.437500
s 1
usemtl mt_town_n_tetu
f 3/1/1 2/2/2 1/3/2
f 4/4/1 2/2/2 3/1/1
f 5/3/3 4/4/1 3/1/1
f 6/2/3 4/4/1 5/3/3
f 7/5/4 6/2/3 5/3/3
f 8/6/4 6/2/3 7/5/4
f 1/3/2 8/6/4 7/5/4
f 2/2/2 8/6/4 1/3/2
f 11/1/1 10/2/2 9/3/2
f 12/4/1 10/2/2 11/1/1
f 13/3/3 12/4/1 11/1/1
f 14/2/3 12/4/1 13/3/3
f 15/5/4 14/2/3 13/3/3
f 16/6/4 14/2/3 15/5/4
f 9/3/2 16/6/4 15/5/4
f 10/2/2 16/6/4 9/3/2
f 19/1/1 18/2/2 17/3/2
f 20/4/1 18/2/2 19/1/1
f 21/3/3 20/4/1 19/1/1
f 22/2/3 20/4/1 21/3/3
f 23/5/4 22/2/3 21/3/3
f 24/6/4 22/2/3 23/5/4
f 17/3/2 24/6/4 23/5/4
f 18/2/2 24/6/4 17/3/2
f 27/1/1 26/2/2 25/3/2
f 28/4/1 26/2/2 27/1/1
f 29/3/3 28/4/1 27/1/1
f 30/2/3 28/4/1 29/3/3
f 31/5/4 30/2/3 29/3/3
f 32/6/4 30/2/3 31/5/4
f 25/3/2 32/6/4 31/5/4
f 26/2/2 32/6/4 25/3/2
f 35/1/1 34/2/2 33/3/2
f 36/4/1 34/2/2 35/1/1
f 37/3/3 36/4/1 35/1/1
f 38/2/3 36/4/1 37/3/3
f 39/5/4 38/2/3 37/3/3
f 40/6/4 38/2/3 39/5/4
f 33/3/2 40/6/4 39/5/4
f 34/2/2 40/6/4 33/3/2
f 43/1/1 42/2/2 41/3/2
f 44/4/1 42/2/2 43/1/1
f 45/3/3 44/4/1 43/1/1
f 46/2/3 44/4/1 45/3/3
f 47/5/4 46/2/3 45/3/3
f 48/6/4 46/2/3 47/5/4
f 41/3/2 48/6/4 47/5/4
f 42/2/2 48/6/4 41/3/2
f 51/1/1 50/2/2 49/3/2
f 52/4/1 50/2/2 51/1/1
f 53/3/3 52/4/1 51/1/1
f 54/2/3 52/4/1 53/3/3
f 55/5/4 54/2/3 53/3/3
f 56/6/4 54/2/3 55/5/4
f 49/3/2 56/6/4 55/5/4
f 50/2/2 56/6/4 49/3/2
s 0
f 60/7/5 58/8/5 59/9/5
f 68/10/5 66/11/5 67/12/5
f 71/9/5 70/8/5 69/13/5
f 72/7/5 70/8/5 71/9/5
f 75/14/5 74/15/5 73/16/5
f 78/17/5 73/18/5 77/19/5
f 75/20/5 73/18/5 78/17/5
f 80/21/5 77/22/5 79/23/5
f 78/11/5 77/24/5 80/10/5
f 83/25/6 82/26/6 81/27/6
f 91/17/7 90/18/7 89/19/7
f 92/20/7 90/18/7 91/17/7
f 92/19/7 93/28/7 90/29/7
f 101/30/7 100/31/7 99/32/7
f 103/33/5 58/14/5 60/34/5
f 107/18/7 106/29/7 105/19/7
f 108/28/7 106/29/7 107/18/7
f 58/8/7 59/9/7 57/13/7
f 62/8/5 63/9/5 61/13/5
f 64/7/5 63/9/5 62/8/5
f 66/11/7 67/12/7 65/24/7
f 76/35/7 75/14/7 74/15/7
f 84/36/8 83/25/8 82/26/8
f 86/35/8 87/34/8 85/14/8
f 88/33/8 87/34/8 86/35/8
f 94/18/5 92/19/5 93/28/5
f 96/37/5 97/38/5 95/39/5
f 98/40/5 97/38/5 96/37/5
f 102/41/5 101/30/5 100/31/5
f 104/35/7 103/33/7 58/14/7
s 1
f 111/42/9 110/43/10 109/44/11
f 112/45/12 110/43/10 111/42/9
f 113/46/13 112/45/12 111/42/9
f 114/47/14 112/45/12 113/46/13
f 115/48/15 114/47/14 113/46/13
f 116/49/16 114/47/14 115/48/15
f 117/50/17 116/49/16 115/48/15
f 118/51/18 116/49/16 117/50/17
s 0
f 120/52/19 109/44/19 119/53/19
f 111/42/19 109/44/19 120/52/19
f 113/46/19 111/42/19 120/52/19
f 120/52/19 115/48/19 113/46/19
f 117/50/19 115/48/19 120/52/19
f 118/51/19 117/50/19 120/52/19
s 1
f 109/44/11 121/54/20 119/53/21
f 122/55/22 121/54/20 109/44/11
f 110/43/10 122/55/22 109/44/11
s 0
f 120/52/19 123/56/19 118/51/19
f 119/57/19 123/56/19 120/52/19
s 1
f 118/51/18 124/58/23 116/49/16
f 123/56/24 124/58/23 118/51/18
f 123/56/24 125/59/25 124/58/23
f 119/57/21 125/59/25 123/56/24
f 121/60/20 125/59/25 119/57/21
f 128/42/26 127/43/27 126/44/11
f 129/45/12 127/43/27 128/42/26
f 130/46/13 129/45/12 128/42/26
f 131/47/14 129/45/12 130/46/13
f 132/48/15 131/47/14 130/46/13
f 133/49/16 131/47/14 132/48/15
f 134/50/17 133/49/16 132/48/15
f 135/51/18 133/49/16 134/50/17
s 0
f 137/52/19 126/44/19 136/53/19
f 128/42/19 126/44/19 137/52/19
f 130/46/19 128/42/19 137/52/19
f 137/52/19 132/48/19 130/46/19
f 134/50/19 132/48/19 137/52/19
f 135/51/19 134/50/19 137/52/19
s 1
f 126/44/11 138/54/20 136/53/21
f 139/55/22 138/54/20 126/44/11
f 127/43/27 139/55/22 126/44/11
s 0
f 137/52/19 140/56/19 135/51/19
f 136/57/19 140/56/19 137/52/19
s 1
f 135/51/18 141/58/23 133/49/16
f 140/56/24 141/58/23 135/51/18
f 140/56/24 142/59/28 141/58/23
f 136/57/21 142/59/28 140/56/24
f 138/60/20 142/59/28 136/57/21
s 0
f 145/61/8 144/62/8 143/63/8
f 146/64/8 144/62/8 145/61/8
f 149/65/6 148/66/6 147/67/6
f 150/68/29 148/66/29 149/65/29
f 144/69/30 148/70/30 150/71/30
f 146/72/30 148/70/30 144/69/30
f 146/73/31 147/67/31 148/74/31
f 145/61/31 147/67/31 146/73/31
f 145/61/32 149/65/32 147/67/32
f 143/63/32 149/65/32 145/61/32
f 143/63/33 150/71/33 149/65/33
f 144/69/33 150/71/33 143/63/33
f 158/75/6 156/12/6 157/76/6
f 153/24/8 152/77/8 154/20/8
f 151/78/8 152/77/8 153/24/8
f 155/10/8 156/12/8 157/76/8
