# Blender 4.1.1
# www.blender.org
mtllib polygon322.mtl
o polygon322
v 2524.381104 -4892.108887 -2191.743652
v 2662.134033 -4769.191895 -2191.743652
v 2412.569824 -4712.173828 -2163.085449
v 2511.487061 -4611.649902 -2163.085693
v 2301.868164 -4610.023926 -2135.415283
v 2440.537109 -4478.223633 -2135.415283
v 2213.812988 -4526.943848 -2121.551514
v 2371.503174 -4382.012695 -2121.551514
v 2193.843994 -4504.218750 -2118.749512
v 2351.769043 -4350.594727 -2117.676514
v 2155.937012 -4446.600586 -2113.889160
v 2315.129883 -4299.436523 -2113.633545
v 2137.193115 -4364.211914 -2114.114502
v 2237.165039 -4264.168457 -2113.644531
v 2208.487061 -4182.614746 -2112.367676
v 2225.986084 -4187.647461 -2112.367676
v 2272.153076 -4044.474365 -2112.494629
v 1847.508057 -4204.395508 -2100.856689
v 1982.646973 -4192.261719 -2112.367676
v 1973.254150 -4169.488770 -2112.367676
v 2103.036133 -4077.663330 -2112.367676
v 2085.520996 -4061.995361 -2112.367676
v 2158.375000 -3905.252441 -2108.552490
v 2133.308105 -3901.151611 -2107.409424
v 2104.716064 -3751.056641 -2106.123291
v 2086.808105 -3759.159424 -2105.814453
v 2021.456055 -3667.275391 -2100.607422
v 2010.513062 -3683.065674 -2098.774414
v 1860.862915 -3616.769775 -2106.252441
v 1859.648071 -3634.276611 -2105.814453
v 1697.039795 -3663.964355 -2107.469238
v 1410.638062 -3894.089355 -2110.712646
v 1431.569946 -3894.446533 -2110.271729
v 1484.533081 -3825.076660 -2112.894287
v 1501.088989 -3823.674316 -2111.875488
v 1519.333130 -3712.589355 -2111.798340
v 1535.337891 -3720.174316 -2110.868408
v 1550.431030 -3632.250244 -2109.676270
v 1578.406006 -3740.587402 -2108.366455
v 1689.801025 -3648.699707 -2107.783447
v 1593.842896 -3747.903320 -2107.469238
v 2050.568115 -4341.874512 -2112.367676
v 1951.849976 -4323.731934 -2112.558594
v 1848.184937 -4227.010254 -2102.528564
v 1852.250000 -4362.954590 -2112.577637
v 1738.346069 -4339.237793 -2109.562500
v 1732.588989 -4359.220215 -2110.791504
v 1652.656982 -4268.799805 -2107.271729
v 2251.843018 -4036.861328 -2112.202637
v 2205.666992 -3912.988525 -2110.709473
v 2251.979980 -3801.418457 -2110.045410
v 2223.419922 -3915.893311 -2111.519531
v 2269.775146 -3797.468506 -2110.446289
v 1984.754150 -3557.853516 -2107.009521
v 1867.010010 -3528.233398 -2108.469482
v 1746.554932 -3570.951660 -2107.217529
v 1738.364014 -3553.366455 -2107.273682
v 1647.231079 -3558.941650 -2109.631592
v 1639.124023 -3541.848389 -2109.983643
v 1704.804932 -4186.617676 -2100.305420
v 1663.186035 -4252.206543 -2105.864502
v 1560.857056 -4209.463867 -2105.264648
v 1546.037109 -4223.467773 -2105.917725
v 1516.551025 -4106.991699 -2109.437500
v 1589.442017 -4069.275391 -2102.617676
v 1533.206055 -4098.373535 -2107.879395
v 1460.206055 -4026.663330 -2109.051514
v 1442.314087 -4033.953369 -2109.685791
v 2209.689209 -3703.557373 -2107.936279
v 2114.412109 -3684.094727 -2104.437256
v 2130.314209 -3676.327393 -2104.769287
v 2061.228027 -3609.891602 -2107.271484
v 2050.672119 -3625.123779 -2105.502441
v 1993.917114 -3540.161621 -2107.762695
v 2360.689209 -4341.918457 -2117.615723
v 2329.809082 -4285.866699 -2113.609375
v 2250.822998 -4250.500488 -2113.580566
v 2120.413086 -4381.002930 -2114.193604
v 2051.187012 -4358.432617 -2112.367676
v 1957.416016 -4341.161621 -2113.339355
v 1852.952148 -4386.409668 -2114.311523
v 1546.082031 -3896.399414 -2107.856689
v 1716.266968 -4168.554688 -2098.774658
v 1868.643066 -3504.718506 -2109.057617
v 2711.514893 -4792.205566 -2194.999512
v 2541.824219 -4937.437500 -2194.999512
v 2180.281982 -4517.411621 -2118.841553
v 2139.385986 -4461.900391 -2113.916504
v 1534.351074 -3620.259766 -2109.984619
v 1564.463989 -3896.713379 -2107.469482
v 1607.357910 -4060.005371 -2100.940674
v 2230.125000 -3694.309326 -2108.289307
vn -0.1093 0.1104 -0.9879
vn -0.0915 0.0977 -0.9910
vn -0.0906 0.1015 -0.9907
vn -0.1126 0.1135 -0.9871
vn -0.1027 0.1060 -0.9890
vn -0.1006 0.1069 -0.9892
vn -0.0689 0.0748 -0.9948
vn -0.0735 0.0814 -0.9940
vn -0.0541 0.0617 -0.9966
vn -0.0562 0.0640 -0.9964
vn -0.0211 0.0254 -0.9995
vn -0.0208 0.0248 -0.9995
vn -0.0051 0.0075 -1.0000
vn 0.0016 0.0031 -1.0000
vn -0.0081 0.0128 -0.9999
vn 0.0050 0.0174 -0.9998
vn -0.0002 -0.0008 -1.0000
vn -0.0381 -0.0157 -0.9992
vn -0.0322 -0.0015 -0.9995
vn -0.0416 0.0675 -0.9969
vn 0.0021 0.0071 -1.0000
vn 0.0063 0.0105 -0.9999
vn -0.0329 0.0169 -0.9993
vn -0.0415 0.0192 -0.9990
vn -0.0278 0.0192 -0.9994
vn -0.0306 0.0172 -0.9994
vn -0.0439 -0.0587 -0.9973
vn -0.0587 -0.0716 -0.9957
vn 0.0141 -0.0281 -0.9995
vn 0.0263 -0.0268 -0.9993
vn 0.0120 -0.0152 -0.9998
vn 0.0645 -0.0623 -0.9960
vn 0.0219 -0.0277 -0.9994
vn 0.0207 -0.0211 -0.9996
vn 0.0535 -0.0275 -0.9982
vn 0.0557 -0.0010 -0.9984
vn 0.0568 -0.0024 -0.9984
vn 0.0215 -0.0027 -0.9998
vn 0.0448 -0.0145 -0.9989
vn 0.0140 -0.0118 -0.9998
vn 0.0430 -0.0269 -0.9987
vn -0.0043 0.0049 -1.0000
vn -0.0023 0.0025 -1.0000
vn -0.0195 0.0344 -0.9992
vn -0.0357 0.0622 -0.9974
vn -0.0182 0.0720 -0.9972
vn 0.0042 0.0630 -0.9980
vn -0.0000 0.0620 -0.9981
vn 0.0245 0.0664 -0.9975
vn -0.0114 0.0065 -0.9999
vn -0.0447 0.0051 -0.9990
vn -0.0260 0.0140 -0.9996
vn -0.0418 0.0233 -0.9989
vn -0.0258 0.0147 -0.9996
vn -0.0269 0.0196 -0.9994
vn -0.0068 -0.0434 -0.9990
vn -0.0006 -0.0250 -0.9997
vn 0.0083 -0.0047 -1.0000
vn 0.0111 0.0010 -0.9999
vn 0.0150 -0.0128 -0.9998
vn 0.0264 -0.0081 -0.9996
vn 0.0116 -0.0148 -0.9998
vn 0.0268 0.0558 -0.9981
vn 0.0257 0.0682 -0.9973
vn 0.0374 0.0177 -0.9991
vn 0.0306 0.0143 -0.9994
vn 0.0761 0.0242 -0.9968
vn 0.0677 0.0119 -0.9976
vn 0.0800 0.0257 -0.9965
vn 0.0359 0.0068 -0.9993
vn 0.0306 0.0096 -0.9995
vn -0.0265 0.0201 -0.9994
vn -0.0271 -0.0032 -0.9996
vn -0.0220 0.0027 -0.9998
vn -0.0503 -0.0720 -0.9961
vn -0.0554 -0.0772 -0.9955
vn -0.0115 -0.0366 -0.9993
vn -0.0226 0.0262 -0.9994
vn -0.0519 0.0600 -0.9968
vn 0.0014 0.0029 -1.0000
vn -0.0105 0.0152 -0.9998
vn -0.0050 0.0079 -1.0000
vn -0.0114 -0.0004 -0.9999
vn -0.0014 0.0440 -0.9990
vn -0.0172 0.0732 -0.9972
vn 0.0293 -0.0184 -0.9994
vn 0.0343 0.0627 -0.9974
vn -0.0129 0.0040 -0.9999
vn -0.0444 -0.0048 -0.9990
vn 0.0032 -0.0252 -0.9997
vn -0.0045 -0.0247 -0.9997
vn -0.0426 0.0498 -0.9979
vn -0.0476 0.0533 -0.9974
vn -0.0524 0.0608 -0.9968
vn -0.0275 0.0318 -0.9991
vn 0.0191 -0.0002 -0.9998
vn 0.0233 -0.0145 -0.9996
vn 0.0838 0.0178 -0.9963
vn -0.0249 0.0165 -0.9996
vt 2.570557 3.126709
vt 4.112305 3.500244
vt 3.300781 4.157715
vt 3.153320 2.589111
vt 1.918457 2.580322
vt 2.735352 1.875488
vt 1.399658 2.135986
vt 2.328613 1.360840
vt 1.282227 2.014404
vt 2.212402 1.192871
vt 1.058838 1.706299
vt 1.996582 0.919190
vt 0.948486 1.265625
vt 1.537354 0.730469
vt 1.368408 0.294190
vt 1.471436 0.321289
vt 1.743408 -0.444580
vt -0.017334 0.224121
vt 0.038086 0.345947
vt -0.758057 0.410645
vt 0.747070 -0.267090
vt 0.644043 -0.350830
vt 1.073242 -1.189209
vt 0.925537 -1.211182
vt 0.757080 -2.014160
vt 0.651611 -1.970703
vt 0.266602 -2.462158
vt 0.202148 -2.377686
vt -0.679443 -2.732422
vt -0.686523 -2.638672
vt -1.644531 -2.479980
vt -2.896484 -1.618164
vt -3.208496 -1.247070
vt -3.331787 -1.249023
vt -2.798828 -1.625732
vt -2.691406 -2.219727
vt -2.597168 -2.179199
vt -2.508301 -2.649658
vt -2.343506 -2.070068
vt -1.687256 -2.561523
vt -2.252441 -2.031006
vt 0.437988 1.146240
vt -0.143555 1.049072
vt -0.754150 0.531738
vt -0.730225 1.258789
vt -1.401123 1.132080
vt -1.435059 1.239014
vt -1.906006 0.755371
vt 1.623779 -0.485352
vt 1.351807 -1.147949
vt 1.624512 -1.744629
vt 1.456299 -1.132324
vt 1.729492 -1.765869
vt 0.050293 -3.047607
vt -0.643310 -3.205811
vt -1.352783 -2.977539
vt -1.401123 -3.071533
vt -1.937988 -3.041748
vt -1.985596 -3.133057
vt -1.598877 0.315674
vt -1.843994 0.666504
vt -2.446777 0.437988
vt -2.534180 0.512695
vt -2.707764 -0.110352
vt -2.278320 -0.312012
vt -2.609619 -0.156250
vt -3.039795 -0.539795
vt -3.145020 -0.500977
vt 1.375488 -2.268066
vt 0.814209 -2.372314
vt 0.907959 -2.413818
vt 0.500977 -2.769043
vt 0.438721 -2.687744
vt 0.104248 -3.142090
vt 2.083008 0.846435
vt 2.264893 1.146240
vt 1.617676 0.657471
vt 0.849609 1.355469
vt 0.441650 1.234619
vt -0.110596 1.142334
vt -0.726074 1.384277
vt -2.533936 -1.236572
vt -1.531250 0.218994
vt -0.633545 -3.331787
vt 3.332031 4.331787
vt 4.331787 3.554932
vt 1.202148 2.084961
vt 0.961426 1.788086
vt -2.603027 -2.713623
vt -2.425537 -1.234863
vt -2.172852 -0.361572
vt 1.495850 -2.317627
s 1
usemtl mt_tuti_off.002
f 3/1/1 2/2/2 1/3/3
f 4/4/4 2/2/2 3/1/1
f 5/5/5 4/4/4 3/1/1
f 6/6/6 4/4/4 5/5/5
f 7/7/7 6/6/6 5/5/5
f 8/8/8 6/6/6 7/7/7
f 9/9/9 8/8/8 7/7/7
f 10/10/10 8/8/8 9/9/9
f 11/11/11 10/10/10 9/9/9
f 12/12/12 10/10/10 11/11/11
f 13/13/13 12/12/12 11/11/11
f 14/14/14 12/12/12 13/13/13
s 0
f 15/15/15 14/14/15 13/13/15
f 16/16/16 14/14/16 15/15/16
f 17/17/17 16/16/17 15/15/17
s 1
f 20/18/18 19/19/19 18/20/20
f 21/21/21 19/19/19 20/18/18
f 22/22/22 21/21/21 20/18/18
f 23/23/23 21/21/21 22/22/22
f 24/24/24 23/23/23 22/22/22
f 25/25/25 23/23/23 24/24/24
f 26/26/26 25/25/25 24/24/24
f 27/27/27 25/25/25 26/26/26
f 28/28/28 27/27/27 26/26/26
f 29/29/29 27/27/27 28/28/28
f 30/30/30 29/29/29 28/28/28
f 31/31/31 29/29/29 30/30/30
f 34/32/32 33/33/33 32/34/34
f 35/35/35 33/33/33 34/32/32
f 36/36/36 35/35/35 34/32/32
f 37/37/37 35/35/35 36/36/36
f 38/38/38 37/37/37 36/36/36
f 39/39/39 37/37/37 38/38/38
f 40/40/40 39/39/39 38/38/38
f 41/41/41 39/39/39 40/40/40
f 31/31/31 41/41/41 40/40/40
f 42/42/42 15/15/43 13/13/13
f 19/19/19 15/15/43 42/42/42
f 43/43/44 19/19/19 42/42/42
f 44/44/45 19/19/19 43/43/44
f 45/45/46 44/44/45 43/43/44
f 46/46/47 44/44/45 45/45/46
f 47/47/48 46/46/47 45/45/46
f 48/48/49 46/46/47 47/47/48
f 21/21/21 15/15/43 19/19/19
f 49/49/50 15/15/43 21/21/21
f 23/23/23 49/49/50 21/21/21
f 50/50/51 49/49/50 23/23/23
f 51/51/52 50/50/51 23/23/23
s 0
f 52/52/53 50/50/53 51/51/53
s 1
f 53/53/54 52/52/55 51/51/52
f 29/29/29 54/54/56 27/27/27
f 55/55/57 54/54/56 29/29/29
f 56/56/58 55/55/57 29/29/29
f 57/57/59 55/55/57 56/56/58
f 58/58/60 57/57/59 56/56/58
s 0
f 59/59/61 57/57/61 58/58/61
s 1
f 38/38/38 59/59/62 58/58/60
f 46/46/47 60/60/63 44/44/45
f 61/61/64 60/60/63 46/46/47
f 48/48/49 61/61/64 46/46/47
f 62/62/65 61/61/64 48/48/49
f 63/63/66 62/62/65 48/48/49
f 64/64/67 62/62/65 63/63/66
f 62/62/65 60/60/63 61/61/64
f 65/65/68 60/60/63 62/62/65
f 66/66/69 65/65/68 62/62/65
f 67/67/70 65/65/68 66/66/69
f 64/64/67 67/67/70 66/66/69
f 68/68/71 67/67/70 64/64/67
f 25/25/25 51/51/52 23/23/23
f 69/69/72 51/51/52 25/25/25
f 70/70/73 69/69/72 25/25/25
f 71/71/74 69/69/72 70/70/73
f 72/72/75 71/71/74 70/70/73
f 27/27/27 70/70/73 25/25/25
f 73/73/76 70/70/73 27/27/27
f 54/54/56 73/73/76 27/27/27
f 72/72/75 73/73/76 54/54/56
f 74/74/77 72/72/75 54/54/56
f 12/12/12 76/75/78 75/76/79
f 77/77/80 76/75/78 12/12/12
f 14/14/14 77/77/80 12/12/12
s 0
f 16/16/81 77/77/81 14/14/81
s 1
f 78/78/82 13/13/13 11/11/11
f 42/42/42 13/13/13 78/78/82
f 79/79/83 42/42/42 78/78/82
f 80/80/84 42/42/42 79/79/83
f 45/45/46 81/81/85 47/47/48
f 80/80/84 81/81/85 45/45/46
f 43/43/44 80/80/84 45/45/46
f 42/42/42 80/80/84 43/43/44
f 67/67/70 82/82/86 65/65/68
f 33/33/33 82/82/86 67/67/70
f 68/68/71 33/33/33 67/67/70
f 32/34/34 33/33/33 68/68/71
f 35/35/35 82/82/86 33/33/33
f 39/39/39 82/82/86 35/35/35
f 37/37/37 39/39/39 35/35/35
f 18/20/20 60/60/63 83/83/87
f 44/44/45 60/60/63 18/20/20
f 19/19/19 44/44/45 18/20/20
f 49/49/50 17/17/88 15/15/43
f 52/52/89 17/17/88 49/49/50
f 50/50/51 52/52/89 49/49/50
f 55/55/57 74/74/77 54/54/56
s 0
f 84/84/90 74/74/90 55/55/90
s 1
f 57/57/59 84/84/91 55/55/57
s 0
f 86/85/92 2/2/92 85/86/92
f 1/3/93 2/2/93 86/85/93
s 1
f 10/10/10 75/76/79 8/8/8
f 12/12/12 75/76/79 10/10/10
f 87/87/94 9/9/9 7/7/7
f 88/88/95 9/9/9 87/87/94
f 88/88/95 11/11/11 9/9/9
f 78/78/82 11/11/11 88/88/95
f 89/89/96 38/38/38 36/36/36
f 59/59/62 38/38/38 89/89/96
f 41/41/41 82/82/86 39/39/39
f 90/90/97 82/82/86 41/41/41
f 90/90/97 65/65/68 82/82/86
f 91/91/98 65/65/68 90/90/97
f 91/91/98 60/60/63 65/65/68
f 83/83/87 60/60/63 91/91/98
f 51/51/52 92/92/99 53/53/54
f 69/69/72 92/92/99 51/51/52
f 58/58/60 40/40/40 38/38/38
f 56/56/58 40/40/40 58/58/60
f 29/29/29 40/40/40 56/56/58
f 31/31/31 40/40/40 29/29/29
f 62/62/65 64/64/67 66/66/69
f 92/92/99 69/69/72 71/71/74
f 72/72/75 70/70/73 73/73/76
