# Blender 4.1.1
# www.blender.org
mtllib polygon5.mtl
o polygon5
v -27497.298828 16941.449219 -22.002020
v -27477.509766 17094.708984 -6.002039
v -27604.529297 17064.259766 -22.002035
v -27579.386719 17251.789062 -6.002058
v -27688.830078 17209.839844 -22.002052
v -27657.556641 17411.888672 -6.002077
v -27769.599609 17371.529297 -22.002069
v -27826.320312 17519.990234 -22.002089
v -27474.958984 17290.160156 -0.002061
v -27557.410156 17453.240234 -0.002081
v -27720.199219 17566.060547 -6.002096
v -27865.859375 17690.201172 -22.002108
v -27439.718750 16892.769531 -22.002012
v -27253.208984 16868.259766 -7.002012
v -27372.548828 16962.888672 -6.002024
v -27370.556641 17125.701172 -0.002042
v -26905.009766 15546.299805 -26.181673
v -26801.726562 15557.129883 -8.001856
v -26965.250000 15616.169922 -26.181681
v -26864.218750 15642.839844 -8.001865
v -26917.320312 15740.019531 -8.001879
v -26818.519531 15773.759766 -0.001880
v -26868.398438 15909.669922 -0.001897
v -26900.289062 16043.349609 -0.001913
v -27004.708984 16005.580078 -8.001909
v -27034.119141 16145.620117 -8.001925
v -27131.849609 16106.790039 -26.181740
v -27052.556641 16295.649414 -8.001944
v -27140.398438 16194.290039 -29.001148
v -27877.269531 17778.189453 -22.002117
v -27810.636719 17928.869141 -7.002138
v -27770.289062 17737.119141 -6.002115
v -27679.226562 17784.628906 -0.002120
v -27623.759766 17608.628906 -0.002099
v -27018.830078 15705.959961 -26.181692
v -26969.759766 15872.349609 -8.001893
v -27070.599609 15838.139648 -26.181705
v -27106.070312 15968.459961 -26.181721
v -26757.990234 15670.120117 -0.001868
v -26685.226562 15585.679688 -0.001858
v -27069.226562 16872.269531 -0.002011
v -27245.939453 16985.519531 -0.002025
v -26922.359375 16184.649414 -0.001929
v -26928.289062 16325.599609 -0.001946
v -26912.476562 16530.669922 -0.001971
v -27734.029297 18030.570312 -0.002149
vn 0.1054 0.1002 -0.9894
vn 0.0778 0.0581 -0.9953
vn 0.1086 0.0772 -0.9911
vn 0.0842 0.0466 -0.9954
vn 0.1200 0.0638 -0.9907
vn 0.0876 0.0390 -0.9954
vn 0.1223 0.0534 -0.9911
vn 0.1304 0.0414 -0.9906
vn 0.0474 0.0275 -0.9985
vn 0.0504 0.0229 -0.9985
vn 0.0946 0.0315 -0.9950
vn 0.1482 0.0332 -0.9884
vn 0.0942 0.1114 -0.9893
vn 0.0484 0.0708 -0.9963
vn 0.0755 0.0859 -0.9934
vn 0.0452 0.0338 -0.9984
vn 0.1579 0.1361 -0.9780
vn 0.0925 0.0730 -0.9930
vn 0.1517 0.0994 -0.9834
vn 0.1100 0.0711 -0.9914
vn 0.1130 0.0541 -0.9921
vn 0.0691 0.0324 -0.9971
vn 0.0706 0.0222 -0.9973
vn 0.0699 0.0147 -0.9974
vn 0.1185 0.0270 -0.9926
vn 0.1221 0.0194 -0.9923
vn 0.1817 0.0236 -0.9831
vn 0.1000 0.0041 -0.9950
vn 0.2409 -0.0077 -0.9705
vn 0.1715 0.0222 -0.9849
vn 0.0878 0.0164 -0.9960
vn 0.1049 0.0237 -0.9942
vn 0.0608 0.0134 -0.9981
vn 0.0539 0.0194 -0.9984
vn 0.1521 0.0735 -0.9856
vn 0.1166 0.0384 -0.9924
vn 0.1598 0.0529 -0.9857
vn 0.1636 0.0375 -0.9858
vn 0.0619 0.0439 -0.9971
vn 0.0565 0.0487 -0.9972
vn 0.0367 0.0573 -0.9977
vn 0.0381 0.0510 -0.9980
vn 0.0669 0.0079 -0.9977
vn 0.0647 -0.0018 -0.9979
vn 0.0655 -0.0050 -0.9978
vn 0.0703 0.0157 -0.9974
vt -10.761720 2.049805
vt -10.098630 0.900391
vt -8.706055 2.049805
vt -12.673830 0.900391
vt -12.885739 2.049805
vt -15.114260 0.900391
vt -15.223630 2.049805
vt -17.278320 2.049805
vt -12.419920 -0.200195
vt -15.058590 -0.200195
vt -17.429689 0.900391
vt -19.655270 2.049805
vt -5.488281 0.900391
vt -7.703125 2.049805
vt -7.694336 0.900391
vt -9.526367 -0.200195
vt 9.512695 2.049805
vt 11.591800 0.900391
vt 10.868159 2.049805
vt 9.983398 0.900391
vt 8.332031 0.900391
vt 8.509766 -0.200195
vt 6.197266 -0.200195
vt 4.295898 0.900391
vt 4.072266 -0.200195
vt 2.271484 0.900391
vt 2.584961 2.049805
vt 0.239258 0.900391
vt 1.363281 2.049805
vt -23.196289 0.900391
vt -20.986330 2.049805
vt -20.045900 0.900391
vt -20.421879 -0.200195
vt -17.545900 -0.200195
vt 8.148438 2.049805
vt 6.264648 0.900391
vt 6.271484 2.049805
vt 4.479492 2.049805
vt 10.526370 -0.200195
vt 12.235350 -0.200195
vt -6.510742 -0.200195
vt -3.191406 -0.200195
vt 1.920898 -0.200195
vt -0.102539 -0.200195
vt -2.644531 -0.200195
vt -24.530270 -0.200195
s 1
usemtl mt_ze_w_nami.003
f 3/1/3 2/2/2 1/3/1
f 4/4/4 2/2/2 3/1/3
f 5/5/5 4/4/4 3/1/3
f 6/6/6 4/4/4 5/5/5
f 7/7/7 6/6/6 5/5/5
f 8/8/8 6/6/6 7/7/7
f 4/4/4 9/9/9 2/2/2
f 10/10/10 9/9/9 4/4/4
f 6/6/6 10/10/10 4/4/4
f 11/11/11 10/10/10 6/6/6
f 8/8/8 11/11/11 6/6/6
f 12/12/12 11/11/11 8/8/8
f 1/3/1 14/13/14 13/14/13
f 15/15/15 14/13/14 1/3/1
f 2/2/2 15/15/15 1/3/1
f 16/16/16 15/15/15 2/2/2
f 9/9/9 16/16/16 2/2/2
f 19/17/19 18/18/18 17/19/17
f 20/20/20 18/18/18 19/17/19
f 21/21/21 20/20/20 19/17/19
f 22/22/22 20/20/20 21/21/21
f 23/23/23 22/22/22 21/21/21
f 25/24/25 24/25/24 23/23/23
f 26/26/26 24/25/24 25/24/25
f 27/27/27 26/26/26 25/24/25
f 28/28/28 26/26/26 27/27/27
f 29/29/29 28/28/28 27/27/27
f 31/30/31 12/12/12 30/31/30
f 32/32/32 12/12/12 31/30/31
f 33/33/33 32/32/32 31/30/31
f 34/34/34 32/32/32 33/33/33
f 35/35/35 21/21/21 19/17/19
f 36/36/36 21/21/21 35/35/35
f 37/37/37 36/36/36 35/35/35
f 38/38/38 36/36/36 37/37/37
f 36/36/36 23/23/23 21/21/21
f 25/24/25 23/23/23 36/36/36
f 38/38/38 25/24/25 36/36/36
f 27/27/27 25/24/25 38/38/38
f 39/39/39 20/20/20 22/22/22
f 18/18/18 20/20/20 39/39/39
f 40/40/40 18/18/18 39/39/39
f 11/11/11 34/34/34 10/10/10
f 32/32/32 34/34/34 11/11/11
f 12/12/12 32/32/32 11/11/11
f 14/13/14 42/41/42 41/42/41
f 15/15/15 42/41/42 14/13/14
f 26/26/26 43/43/43 24/25/24
f 28/28/28 43/43/43 26/26/26
f 28/28/28 44/44/44 43/43/43
f 45/45/45 44/44/44 28/28/28
f 46/46/46 33/33/33 31/30/31
f 15/15/15 16/16/16 42/41/42
