# Blender 4.1.1
# www.blender.org
mtllib Object_6.mtl
o Object_9
v 1151515.625000 1210808.000000 9302.194336
v 1151050.000000 1210808.000000 9250.156250
v 1151084.375000 1210808.000000 9302.194336
v 1151550.000000 1210808.000000 9250.156250
v 1151521.375000 1210808.000000 9713.107422
v 1151550.000000 1210808.000000 9250.156250
v 1151515.625000 1210808.000000 9302.194336
v 1151521.375000 1210808.000000 9713.107422
v 1151555.750000 1210808.000000 9765.145508
v 1151078.500000 1210808.000000 9713.107422
v 1151044.250000 1210808.000000 9765.145508
v 1151078.500000 1210808.000000 9713.107422
v 1151084.375000 1210808.000000 9302.194336
v 1151050.000000 1210808.000000 9250.156250
v 1151078.500000 1210808.000000 9713.107422
v 1151555.750000 1210808.000000 9765.145508
v 1151521.375000 1210808.000000 9713.107422
v 1151044.250000 1210808.000000 9765.145508
v 1145693.250000 1215531.500000 12404.791992
v 1147359.875000 1215531.500000 11978.775391
v 1145693.250000 1215531.500000 11978.775391
v 1147656.125000 1215531.500000 12404.791992
v 1145693.250000 1213337.375000 11978.774414
v 1145693.250000 1215531.500000 12404.791992
v 1145693.250000 1215531.500000 11978.775391
v 1145693.250000 1213337.375000 12404.791016
v 1148008.125000 1213337.375000 11978.774414
v 1145693.250000 1213337.375000 12404.791016
v 1145693.250000 1213337.375000 11978.774414
v 1148008.125000 1213337.375000 12404.791016
v 1148008.125000 1215145.000000 11978.775391
v 1148008.125000 1213337.375000 12404.791016
v 1148008.125000 1213337.375000 11978.774414
v 1148008.125000 1215531.500000 12259.054688
v 1148008.125000 1215531.500000 12404.791992
v 1148008.125000 1215531.500000 12404.791992
v 1148008.125000 1215531.500000 12259.054688
v 1147520.625000 1214124.000000 11701.373047
v 1147520.625000 1214624.000000 11616.404297
v 1147520.625000 1214724.000000 11701.373047
v 1147520.625000 1214224.000000 11616.404297
v 1147520.625000 1214724.000000 11060.017578
v 1147520.625000 1214624.000000 11616.404297
v 1147520.625000 1214624.000000 11060.017578
v 1147520.625000 1214724.000000 11701.373047
v 1147520.625000 1214124.000000 11701.373047
v 1147520.625000 1213603.625000 11978.777344
v 1147520.625000 1213603.625000 11701.373047
v 1147520.625000 1214724.000000 11701.373047
v 1147520.625000 1215260.375000 11978.778320
v 1147520.625000 1215260.375000 11701.374023
v 1147520.625000 1214224.000000 11616.404297
v 1147520.625000 1214124.000000 11060.017578
v 1147520.625000 1214224.000000 11060.017578
v 1147520.625000 1214124.000000 11701.373047
v 1146072.750000 1215260.375000 11978.778320
v 1146072.750000 1213603.625000 11701.373047
v 1146072.750000 1213603.625000 11978.777344
v 1146072.750000 1215260.375000 11701.374023
v 1146072.750000 1213603.625000 11978.777344
v 1147520.625000 1213603.625000 11701.373047
v 1147520.625000 1213603.625000 11978.777344
v 1146072.750000 1213603.625000 11701.373047
v 1146072.750000 1215260.375000 11701.374023
v 1147520.625000 1215260.375000 11978.778320
v 1147520.625000 1215260.375000 11701.374023
v 1146072.750000 1215260.375000 11978.778320
v 1147520.625000 1214586.500000 11112.057617
v 1147520.625000 1214624.000000 11616.404297
v 1147520.625000 1214586.500000 11564.365234
v 1147520.625000 1214624.000000 11060.018555
v 1147520.625000 1214261.375000 11112.057617
v 1147520.625000 1214224.000000 11060.018555
v 1147520.625000 1214261.375000 11564.365234
v 1147520.625000 1214224.000000 11616.404297
v 1147520.625000 1214586.500000 11564.365234
v 1147520.625000 1214224.000000 11616.404297
v 1147520.625000 1214261.375000 11564.365234
v 1147520.625000 1214624.000000 11616.404297
v 1136959.000000 1221081.875000 11386.510742
v 1136697.875000 1221285.625000 11663.420898
v 1136697.875000 1221285.625000 11386.510742
v 1136959.000000 1221081.875000 11663.420898
v 1138005.250000 1222423.625000 11663.420898
v 1136959.000000 1221081.875000 11386.510742
v 1138110.875000 1222559.125000 11386.510742
v 1136959.000000 1221081.875000 11663.420898
v 1136697.875000 1221285.625000 11386.510742
v 1137630.875000 1222482.125000 11663.420898
v 1137703.375000 1222575.125000 11386.510742
v 1136697.875000 1221285.625000 11663.420898
v 1138005.250000 1222423.625000 10471.546875
v 1136959.000000 1221081.875000 10194.636719
v 1138019.625000 1222442.000000 10194.636719
v 1136959.000000 1221081.875000 10471.546875
v 1136959.000000 1221081.875000 10194.636719
v 1136697.875000 1221285.625000 10471.546875
v 1136697.875000 1221285.625000 10194.636719
v 1136959.000000 1221081.875000 10471.546875
v 1136697.875000 1221285.625000 10194.636719
v 1137630.875000 1222482.125000 10471.546875
v 1137703.375000 1222575.125000 10194.636719
v 1136697.875000 1221285.625000 10471.546875
v 1146589.625000 1210144.000000 11632.865234
v 1146589.625000 1210475.250000 11909.775391
v 1146589.625000 1210475.250000 11632.865234
v 1146589.625000 1210144.000000 11909.775391
v 1148845.875000 1210144.000000 11632.865234
v 1146589.625000 1210144.000000 11909.775391
v 1146589.625000 1210144.000000 11632.865234
v 1148845.875000 1210144.000000 11909.775391
v 1148845.875000 1210475.250000 11632.865234
v 1148845.875000 1210144.000000 11909.775391
v 1148845.875000 1210144.000000 11632.865234
v 1148845.875000 1210475.250000 11909.775391
v 1146589.625000 1210475.250000 11632.865234
v 1148845.875000 1210475.250000 11909.775391
v 1148845.875000 1210475.250000 11632.865234
v 1146589.625000 1210475.250000 11909.775391
v 1148428.875000 1210144.000000 12828.741211
v 1146589.625000 1210144.000000 13105.651367
v 1146589.625000 1210144.000000 12828.741211
v 1148536.375000 1210144.000000 13105.651367
v 1146589.625000 1210475.250000 13105.651367
v 1148363.625000 1210475.250000 12828.741211
v 1146589.625000 1210475.250000 12828.741211
v 1148395.250000 1210475.250000 13105.651367
v 1146589.625000 1210144.000000 12828.741211
v 1146589.625000 1210475.250000 13105.651367
v 1146589.625000 1210475.250000 12828.741211
v 1146589.625000 1210144.000000 13105.651367
v 1140888.500000 1225289.375000 3672.970703
v 1140888.625000 1227289.375000 3161.753174
v 1140888.500000 1225289.375000 3161.752441
v 1140888.625000 1227644.750000 3672.971436
v 1143521.500000 1225289.375000 3161.752441
v 1140888.500000 1225289.375000 3672.970703
v 1140888.500000 1225289.375000 3161.752441
v 1143521.500000 1225289.375000 3672.970703
v 1143521.500000 1228067.250000 3161.753418
v 1143521.500000 1225289.375000 3672.970703
v 1143521.500000 1225289.375000 3161.752441
v 1143521.500000 1228067.250000 3672.971680
v 1141352.250000 1228067.250000 3161.752930
v 1143521.500000 1228067.250000 3672.971680
v 1143521.500000 1228067.250000 3161.753418
v 1140888.625000 1228067.250000 3498.088135
v 1140888.625000 1228067.250000 3672.971680
v 1140888.625000 1228067.250000 3672.971680
v 1140888.625000 1228067.250000 3498.088135
vn -0.0000 1.0000 -0.0000
vn 0.0001 1.0000 -0.0000
vn -0.0001 1.0000 -0.0000
vn -1.0000 -0.0000 -0.0000
vn -0.0000 -1.0000 -0.0000
vn 1.0000 -0.0000 -0.0000
vn -0.6154 -0.7882 -0.0000
vn -0.6149 -0.7886 -0.0000
vn 0.7886 -0.6149 -0.0000
vn -0.7886 0.6149 0.0001
vn -0.7886 0.6149 -0.0000
vn 0.7886 -0.6149 -0.0001
vn -1.0000 0.0001 -0.0000
vn -1.0000 0.0001 0.0001
vt 0.078369 -0.752197
vt 1.000000 -1.027100
vt 0.921631 -0.752197
vt 0.000000 -1.027100
vt 1.000000 -3.988770
vt -1.879883 -3.006592
vt 1.000000 -3.006592
vt -2.391602 -3.988770
vt -3.000000 -3.006592
vt -3.000000 -3.988770
vt -2.295410 -3.006592
vt -3.000000 -3.652588
vt -0.308350 0.811768
vt 1.553711 0.216064
vt 1.922119 0.811768
vt -0.026123 0.216064
vt -2.199951 0.216064
vt -2.199951 0.811768
vt 0.736816 -2.011963
vt 2.000000 -2.989990
vt 2.000000 -2.011963
vt -0.709717 -2.011963
vt -2.000000 -2.989990
vt -2.000000 -2.011963
vt 2.000000 -3.006592
vt 3.000000 -3.988770
vt 3.000000 -3.006592
vt 2.000000 -3.988770
vt 0.016113 -3.988770
vt 0.320801 -3.006592
vt -1.689941 -3.988770
vt -1.898926 -3.006592
vt 0.057617 -3.006592
vt 0.260742 -3.006592
vt 0.451172 -3.988770
vt -2.145020 -3.006592
vt -2.200928 -3.988770
s 0
usemtl Material_179_5
f 1/1/1 2/2/1 3/3/1
f 1/1/1 4/4/1 2/2/1
f 5/3/2 6/4/2 7/1/2
f 8/3/1 9/2/1 4/4/1
f 10/1/1 2/2/1 11/4/1
f 12/1/3 13/3/3 14/2/3
f 15/3/1 16/4/1 17/1/1
f 15/3/1 18/2/1 16/4/1
f 19/5/1 20/6/1 21/7/1
f 19/5/1 22/8/1 20/6/1
f 23/9/4 24/5/4 25/7/4
f 23/9/4 26/10/4 24/5/4
f 27/7/5 28/10/5 29/9/5
f 27/7/5 30/5/5 28/10/5
f 31/11/6 32/5/6 33/7/6
f 31/11/6 34/12/6 32/5/6
f 35/10/6 32/5/6 34/12/6
f 22/8/1 36/10/1 37/12/1
f 38/13/6 39/14/6 40/15/6
f 38/13/6 41/16/6 39/14/6
f 42/17/6 43/13/6 44/18/6
f 42/17/6 45/16/6 43/13/6
f 46/19/6 47/20/6 48/21/6
f 46/19/6 49/22/6 47/20/6
f 49/22/6 50/23/6 47/20/6
f 49/22/6 51/24/6 50/23/6
f 52/13/6 53/17/6 54/18/6
f 52/13/6 55/16/6 53/17/6
f 56/20/4 57/24/4 58/23/4
f 56/20/4 59/21/4 57/24/4
f 60/20/5 61/24/5 62/23/5
f 60/20/5 63/21/5 61/24/5
f 64/24/1 65/20/1 66/21/1
f 64/24/1 67/23/1 65/20/1
f 68/3/6 69/4/6 70/1/6
f 68/3/6 71/2/6 69/4/6
f 72/1/6 71/2/6 68/3/6
f 72/1/6 73/4/6 71/2/6
f 74/3/6 73/4/6 72/1/6
f 74/3/6 75/2/6 73/4/6
f 76/3/6 77/4/6 78/1/6
f 76/3/6 79/2/6 77/4/6
f 80/25/7 81/26/7 82/27/7
f 80/25/8 83/28/8 81/26/8
f 84/29/9 85/9/9 86/30/9
f 84/29/9 87/10/9 85/9/9
f 88/7/10 89/31/10 90/32/10
f 88/7/11 91/5/11 89/31/11
f 92/29/12 93/9/12 94/33/12
f 92/29/9 95/10/9 93/9/9
f 96/25/7 97/26/7 98/27/7
f 96/25/8 99/28/8 97/26/8
f 100/7/10 101/31/10 102/32/10
f 100/7/11 103/5/11 101/31/11
f 104/25/4 105/26/4 106/27/4
f 104/25/4 107/28/4 105/26/4
f 108/7/5 109/10/5 110/9/5
f 108/7/5 111/5/5 109/10/5
f 112/25/6 113/26/6 114/27/6
f 112/25/6 115/28/6 113/26/6
f 116/7/1 117/10/1 118/9/1
f 116/7/1 119/5/1 117/10/1
f 120/34/5 121/10/5 122/9/5
f 120/34/5 123/35/5 121/10/5
f 124/5/1 125/36/1 126/7/1
f 124/5/1 127/37/1 125/36/1
f 128/25/4 129/26/4 130/27/4
f 128/25/4 131/28/4 129/26/4
f 132/5/13 133/6/13 134/7/13
f 132/5/14 135/8/14 133/6/14
f 136/9/5 137/5/5 138/7/5
f 136/9/5 139/10/5 137/5/5
f 140/7/6 141/10/6 142/9/6
f 140/7/6 143/5/6 141/10/6
f 144/11/1 145/5/1 146/7/1
f 144/11/1 147/12/1 145/5/1
f 148/10/1 145/5/1 147/12/1
f 135/8/4 149/10/4 150/12/4
