# Blender 4.1.1
# www.blender.org
mtllib polygon27.mtl
o polygon27
v -2419.151855 -6672.958496 -416.235107
v -2564.118896 -6598.572754 -404.128204
v -2566.621094 -6602.605957 -362.012665
v -2723.565186 -6581.954102 -392.016968
v -2723.565186 -6585.987793 -280.782288
v -2907.070801 -6567.286621 -379.247101
v -2907.070801 -6571.837891 -329.247101
v -3071.333008 -6567.286621 -371.745117
v -3071.333008 -6571.837891 -321.745087
v -3241.093018 -6581.829102 -378.169769
v -3241.093018 -6586.228516 -328.169769
v -3399.857178 -6586.228516 -339.662781
v -1480.458984 -6449.516113 -426.468719
v -1757.494019 -6551.944336 -448.717499
v -1757.494019 -6555.078125 -398.717499
v -2067.721191 -6562.871582 -447.970001
v -2067.721191 -6566.005859 -397.970001
v -2421.576172 -6677.612305 -366.235107
v -3399.856201 -6581.829102 -389.662781
v -3570.299805 -6610.427246 -399.772064
v -3566.696289 -6614.681152 -349.772064
v -3726.043945 -6725.029297 -390.250458
v -3722.534912 -6727.775391 -340.250458
v -4028.371094 -6731.446289 -387.541565
v -4026.953125 -6727.862793 -437.541565
v -4220.101074 -6692.438477 -470.502106
v -4221.519043 -6696.020020 -420.502106
v -4418.859375 -6576.769043 -437.748566
v -4488.306152 -5834.879395 -584.003540
v -4492.754395 -5837.708496 -634.003540
v -4468.913086 -5980.554199 -548.316956
v -4473.361328 -5983.382812 -598.316956
v -4337.184082 -6147.145996 -527.445435
v -4333.846191 -6144.669434 -477.445496
v -4066.780029 -6214.659180 -471.938019
v -4066.780029 -6212.183105 -457.406738
v -849.024719 -7146.286621 -414.470917
v -843.961182 -7146.286621 -464.470917
v -840.978760 -6871.979004 -357.162048
v -838.451294 -6871.979004 -407.162048
v -941.234192 -6714.232422 -384.964996
v -943.761475 -6714.232422 -334.964996
v -1072.758057 -6578.576172 -334.659882
v -1070.072998 -6576.891113 -384.659851
v -1211.151001 -6478.154297 -348.256256
v -1208.466064 -6476.469238 -398.256256
v -1324.299927 -6429.637207 -364.068420
v -1322.939941 -6426.317871 -414.068420
v -1480.458984 -6452.835449 -376.468719
v -4416.627441 -6575.309082 -487.748596
v -4605.379883 -6389.382324 -485.667694
v -4603.148438 -6387.922363 -535.667725
v -4790.300293 -6087.051270 -553.063293
v -4785.839844 -6084.716309 -603.063293
v -4852.145996 -5842.132812 -570.413208
v -4847.686523 -5839.797363 -620.413208
vn -0.0610 -0.9935 -0.0960
vn -0.3027 -0.9469 -0.1087
vn -0.2656 -0.9594 -0.0947
vn -0.1027 -0.9938 -0.0415
vn -0.0982 -0.9943 -0.0413
vn -0.0345 -0.9961 -0.0810
vn -0.0300 -0.9954 -0.0906
vn 0.0419 -0.9950 -0.0906
vn 0.0423 -0.9950 -0.0903
vn 0.0457 -0.9951 -0.0878
vn 0.0483 -0.9950 -0.0875
vn 0.0867 -0.9924 -0.0873
vn 0.2554 -0.9647 -0.0639
vn 0.1927 -0.9793 -0.0614
vn 0.1976 -0.9783 -0.0615
vn 0.1618 -0.9849 -0.0624
vn 0.1710 -0.9833 -0.0616
vn -0.1151 -0.9886 -0.0969
vn 0.0926 -0.9918 -0.0881
vn 0.3926 -0.9136 -0.1060
vn 0.3825 -0.9182 -0.1028
vn 0.2983 -0.9514 -0.0759
vn 0.3354 -0.9391 -0.0751
vn -0.0654 -0.9952 -0.0724
vn -0.0821 -0.9939 -0.0736
vn -0.3583 -0.9306 -0.0748
vn -0.3320 -0.9402 -0.0768
vn -0.6023 -0.7966 -0.0522
vn 0.9896 0.1087 -0.0942
vn 0.9045 0.4140 -0.1023
vn 0.9396 0.3267 -0.1021
vn 0.5983 0.7972 -0.0810
vn 0.5056 0.8592 -0.0782
vn 0.2535 0.9552 -0.1525
vn 0.2533 0.9537 -0.1625
vn -0.9937 0.0502 -0.1006
vn -0.9944 0.0478 -0.0945
vn -0.9526 -0.3001 -0.0510
vn -0.9709 -0.2345 -0.0491
vn -0.7890 -0.6130 -0.0419
vn -0.7820 -0.6220 -0.0395
vn -0.6590 -0.7499 -0.0585
vn -0.6574 -0.7511 -0.0606
vn -0.4927 -0.8684 -0.0557
vn -0.4841 -0.8731 -0.0579
vn -0.1393 -0.9880 -0.0669
vn -0.1096 -0.9916 -0.0692
vn 0.2478 -0.9667 -0.0638
vn -0.6158 -0.7863 -0.0504
vn -0.7706 -0.6351 -0.0529
vn -0.7872 -0.6143 -0.0551
vn -0.9084 -0.4064 -0.0980
vn -0.9188 -0.3819 -0.0998
vn -0.9633 -0.2502 -0.0976
vt 0.151123 1.000000
vt 0.153748 0.000000
vt 0.219849 0.000000
vt 0.081116 0.000000
vt 0.079529 1.000000
vt -0.002563 0.000000
vt -0.004089 1.000000
vt -0.077454 0.000000
vt -0.078979 1.000000
vt -0.154846 0.000000
vt -0.156372 1.000000
vt -0.228760 1.000000
vt 0.523987 1.000000
vt 0.521484 0.000000
vt 0.647766 0.000000
vt 0.380066 0.000000
vt 0.378540 1.000000
vt 0.217224 1.000000
vt -0.299377 1.000000
vt -0.304871 0.000000
vt -0.227173 0.000000
vt -0.375915 0.000000
vt -0.365051 1.000000
vt -0.515259 1.000000
vt -0.513062 0.000000
vt -0.601135 0.000000
vt -0.614075 1.000000
vt -0.710754 1.000000
vt 0.358398 1.000000
vt 0.000000 0.000000
vt 0.000000 1.000000
vt 0.275818 0.000000
vt 0.603699 0.000000
vt 0.666931 1.000000
vt 0.905335 0.000000
vt 0.905335 1.000000
vt 0.905396 1.000000
vt 0.905396 0.000000
vt 0.893555 0.000000
vt 0.869263 1.000000
vt 0.815857 1.000000
vt 0.834839 0.000000
vt 0.756836 1.000000
vt 0.771790 0.000000
vt 0.714722 1.000000
vt 0.719604 0.000000
vt 0.651611 1.000000
vt -0.690674 0.000000
vt -0.802551 1.000000
vt -0.775696 0.000000
vt -0.881409 1.000000
vt -0.858948 0.000000
vt -0.905273 1.000000
vt -0.905273 0.000000
s 1
usemtl mt_kusa_blend.018
f 3/1/3 2/2/2 1/3/1
f 4/4/4 2/2/2 3/1/3
f 5/5/5 4/4/4 3/1/3
f 6/6/6 4/4/4 5/5/5
f 7/7/7 6/6/6 5/5/5
f 8/8/8 6/6/6 7/7/7
f 9/9/9 8/8/8 7/7/7
f 10/10/10 8/8/8 9/9/9
f 11/11/11 10/10/10 9/9/9
f 12/12/12 10/10/10 11/11/11
f 15/13/15 14/14/14 13/15/13
f 16/16/16 14/14/14 15/13/15
f 17/17/17 16/16/16 15/13/15
f 18/18/18 16/16/16 17/17/17
f 21/19/21 20/20/20 19/21/19
f 22/22/22 20/20/20 21/19/21
f 23/23/23 22/22/22 21/19/21
f 24/24/24 22/22/22 23/23/23
f 24/24/24 25/25/25 22/22/22
f 26/26/26 25/25/25 24/24/24
f 27/27/27 26/26/26 24/24/24
f 28/28/28 26/26/26 27/27/27
f 31/29/30 30/30/29 29/31/29
f 32/32/31 30/30/29 31/29/30
f 33/33/32 32/32/31 31/29/30
f 34/34/33 33/33/32 31/29/30
f 35/35/34 33/33/32 34/34/33
f 36/36/35 35/35/34 34/34/33
f 39/37/38 38/38/37 37/37/36
f 40/38/39 38/38/37 39/37/38
f 41/39/40 40/38/39 39/37/38
f 42/40/41 41/39/40 39/37/38
f 43/41/42 41/39/40 42/40/41
f 43/41/42 44/42/43 41/39/40
f 45/43/44 44/42/43 43/41/42
f 45/43/44 46/44/45 44/42/43
f 47/45/46 46/44/45 45/43/44
f 47/45/46 48/46/47 46/44/45
f 49/47/48 48/46/47 47/45/46
f 49/47/48 13/15/13 48/46/47
f 15/13/15 13/15/13 49/47/48
f 18/18/18 1/3/1 16/16/16
f 3/1/3 1/3/1 18/18/18
f 12/12/12 19/21/19 10/10/10
f 21/19/21 19/21/19 12/12/12
f 28/28/28 50/48/49 26/26/26
f 51/49/50 50/48/49 28/28/28
f 51/49/50 52/50/51 50/48/49
f 53/51/52 52/50/51 51/49/50
f 53/51/52 54/52/53 52/50/51
f 55/53/54 54/52/53 53/51/52
f 56/54/54 54/52/53 55/53/54
