# Blender 4.1.1
# www.blender.org
mtllib polygon417.mtl
o polygon417
v -521.689514 735.155518 -133.333679
v -521.362366 744.172363 -132.332779
v -527.020691 743.171448 -132.314178
v -523.660583 753.940125 -130.829987
v -541.895813 794.639099 -124.023689
v -536.793091 796.682068 -123.938988
v -541.053162 804.555420 -122.383385
v -736.019775 1059.552002 -70.798851
v -748.935974 1061.171021 -68.999870
v -697.163574 1016.819031 -78.689041
v -697.823669 1002.478027 -79.971542
v -691.506470 1007.688049 -80.171539
v -650.159180 959.643311 -89.936340
v -762.827698 1059.656982 -162.669708
v -758.271179 1052.442871 -168.999802
v -762.168884 1060.074951 -156.599213
v -756.711792 1070.811035 -69.199860
v -569.416565 843.988342 -113.364487
v -562.292786 847.991821 -113.142586
v -595.236023 891.076538 -104.034508
v -609.383911 897.865601 -102.026009
v -603.297180 902.130432 -102.226006
v -607.530762 907.719727 -101.085594
v -763.276062 1058.919800 -168.999786
v -762.900513 1059.310913 -164.834702
v -743.427002 1065.839111 -69.199883
v -521.233582 686.427612 -139.946762
v -527.779297 687.023315 -139.999878
v -651.448120 948.088806 -90.983421
v -644.664856 953.197632 -91.183441
v -962.733704 2241.762207 -69.000023
v -957.337402 2247.622070 -69.000023
v -1019.462036 2415.993164 -69.000046
v -1010.957031 2415.993164 -69.000046
v -3509.352051 2239.665771 -69.000015
v -3499.301270 2239.665771 -69.000015
v -3509.352051 2387.223145 -69.000038
v -3499.301270 2387.223145 -69.000038
v -1008.613037 3828.436279 -0.000456
v -1024.712036 3828.436279 -0.000456
v -1008.613037 3463.594238 -0.000413
v -1024.712036 3463.594238 -0.000413
v -1057.455078 3828.436279 -0.000456
v -1057.455078 3463.594238 -0.000413
v -1073.554077 3828.436279 -0.000456
v -1073.554077 3463.594238 -0.000413
v -1044.298096 3068.185791 -0.000366
v -1044.298096 3074.795166 -0.000367
v -1135.812012 3068.185791 -0.000366
v -1135.812012 3074.795166 -0.000367
v -1044.298096 3088.239258 -0.000368
v -1135.812012 3088.239258 -0.000368
v -1044.298096 3094.848145 -0.000369
v -1135.812012 3094.848145 -0.000369
v -927.814026 2764.167236 -0.000330
v -927.814026 2770.693115 -0.000330
v -1019.154053 2764.167236 -0.000330
v -1019.154053 2770.693115 -0.000330
v -927.814026 2783.968018 -0.000332
v -1019.154053 2783.968018 -0.000332
v -927.814026 2790.493896 -0.000333
v -1019.154053 2790.493896 -0.000333
vn -0.0210 0.1326 -0.9910
vn -0.0261 0.1292 -0.9913
vn 0.0072 0.1307 -0.9914
vn -0.0368 0.1476 -0.9884
vn -0.0509 0.1573 -0.9862
vn -0.0464 0.1567 -0.9866
vn -0.0720 0.1691 -0.9830
vn -0.1069 0.0922 -0.9900
vn 0.2789 0.2962 -0.9135
vn -0.1287 0.0723 -0.9890
vn -0.1110 0.0975 -0.9890
vn -0.1117 0.0975 -0.9889
vn -0.1123 0.1021 -0.9884
vn 0.7847 0.6069 -0.1263
vn 0.7851 0.6063 -0.1265
vn 0.7851 0.6064 -0.1259
vn 0.7056 0.5602 -0.4340
vn -0.0645 0.1683 -0.9836
vn -0.0643 0.1690 -0.9835
vn -0.0679 0.1502 -0.9863
vn -0.1020 0.1147 -0.9881
vn -0.1049 0.1033 -0.9891
vn -0.1179 0.1164 -0.9862
vn 0.7861 0.6055 -0.1247
vn 0.7848 0.6064 -0.1277
vn -0.0817 0.0538 -0.9952
vn 0.0199 0.1347 -0.9907
vn 0.0203 0.1346 -0.9907
vn -0.1140 0.1097 -0.9874
vn -0.1121 0.1101 -0.9876
vn -0.0000 -0.0000 -1.0000
vt 0.461182 0.000000
vt 0.470703 1.000000
vt 0.493897 1.000000
vt 0.441406 1.000000
vt 0.277100 0.000000
vt 0.277344 1.000000
vt 0.250000 1.000000
vt -0.474854 1.000000
vt -0.620606 0.000000
vt -0.603271 1.000000
vt -0.441650 0.000000
vt -0.442139 1.000000
vt -0.346680 1.000000
vt -0.654785 1.000000
vt 0.050781 0.000000
vt 0.052734 1.000000
vt -0.136230 1.000000
vt -0.177002 0.000000
vt -0.177979 1.000000
vt -0.199219 1.000000
vt -0.654785 0.000000
vt -0.631348 1.000000
vt 0.692871 0.000000
vt 0.708008 1.000000
vt -0.320068 0.000000
vt -0.321045 1.000000
vt 3.057373 1.000000
vt 0.296875 0.600098
vt 0.296875 1.000000
vt 3.057373 0.600098
vt -3.537842 0.600098
vt -0.412842 1.000000
vt -0.412842 0.600098
vt -3.537842 1.000000
vt 1.274902 1.000000
vt -0.233398 0.800049
vt -0.233398 1.000000
vt 1.274902 0.800049
s 1
usemtl mt_gake_blend.012
f 3/1/1 2/2/2 1/3/3
f 4/4/4 2/2/2 3/1/1
f 5/5/5 4/4/4 3/1/1
f 6/6/6 4/4/4 5/5/5
f 7/7/7 6/6/6 5/5/5
f 10/8/8 9/9/9 8/10/10
f 11/11/11 9/9/9 10/8/8
f 12/12/12 11/11/11 10/8/8
f 13/13/13 11/11/11 12/12/12
f 16/14/14 15/9/15 14/14/16
f 9/9/9 15/9/15 16/14/14
f 17/14/17 9/9/9 16/14/14
f 18/15/18 7/7/7 5/5/5
f 19/16/19 7/7/7 18/15/18
f 20/17/20 19/16/19 18/15/18
f 21/18/21 20/17/20 18/15/18
f 22/19/22 20/17/20 21/18/21
f 23/20/23 22/19/22 21/18/21
f 25/14/24 15/9/15 24/21/25
f 14/14/16 15/9/15 25/14/24
f 26/22/26 9/9/9 17/14/17
f 8/10/10 9/9/9 26/22/26
f 28/23/27 1/3/3 27/24/28
f 3/1/1 1/3/3 28/23/27
f 13/13/13 29/25/29 11/11/11
f 30/26/30 29/25/29 13/13/13
f 29/25/29 23/20/23 21/18/21
f 30/26/30 23/20/23 29/25/29
s 0
f 33/27/31 32/28/31 31/29/31
f 34/30/31 32/28/31 33/27/31
s 1
f 37/31/31 36/32/31 35/33/31
f 38/34/31 36/32/31 37/31/31
s 0
f 41/35/31 40/36/31 39/37/31
f 42/38/31 40/36/31 41/35/31
f 42/38/31 43/36/31 40/36/31
f 44/38/31 43/36/31 42/38/31
f 43/36/31 46/35/31 45/37/31
f 44/38/31 46/35/31 43/36/31
f 49/35/31 48/36/31 47/37/31
f 50/38/31 48/36/31 49/35/31
f 50/38/31 51/36/31 48/36/31
f 52/38/31 51/36/31 50/38/31
f 51/36/31 54/35/31 53/37/31
f 52/38/31 54/35/31 51/36/31
f 57/35/31 56/36/31 55/37/31
f 58/38/31 56/36/31 57/35/31
f 58/38/31 59/36/31 56/36/31
f 60/38/31 59/36/31 58/38/31
f 59/36/31 62/35/31 61/37/31
f 60/38/31 62/35/31 59/36/31
