# Blender 4.1.1
# www.blender.org
mtllib polygon363.mtl
o polygon363
v 128.756500 2363.992188 -43.205284
v 271.706604 2221.709961 -43.205261
v 128.756500 2363.992188 130.999924
v 271.704010 2221.713135 130.999939
v -118.527100 2445.993164 -43.205288
v -118.527100 2445.993164 130.999893
v 128.756500 2363.992188 -120.481468
v 128.756500 2363.992188 -132.000076
v 271.708282 2221.708984 -146.198959
v 271.708588 2221.708008 -158.862045
v -118.527100 2445.993164 -104.748184
v -118.527100 2445.993164 -115.524490
vn 0.7054 0.7088 -0.0000
vn 0.3148 0.9492 -0.0000
vt 111.804695 -2.951172
vt 115.804695 -0.449219
vt 111.804695 -0.449219
vt 115.804695 -2.951172
vt 106.541008 -2.951172
vt 106.541008 -0.449219
vt 115.804695 -0.136719
vt 111.804695 0.000000
vt 111.804695 -0.136719
vt 115.804695 0.000000
vt 106.541008 0.000000
vt 106.541008 -0.136719
s 0
usemtl mt_town_isigakiB
f 3/1/1 2/2/1 1/3/1
f 4/4/1 2/2/1 3/1/1
f 6/5/2 1/3/2 5/6/2
f 3/1/2 1/3/2 6/5/2
f 9/7/1 8/8/1 7/9/1
f 10/10/1 8/8/1 9/7/1
f 7/9/2 12/11/2 11/12/2
f 8/8/2 12/11/2 7/9/2
