# Blender 4.1.1
# www.blender.org
mtllib polygon802.mtl
o polygon802
v 4444.356445 -767.510376 -186.979401
v 4456.208008 -767.467407 -184.940002
v 4456.714355 -767.484070 -186.617401
v 4468.759277 -767.421875 -182.780411
v 4469.295410 -767.447754 -185.334900
v 4505.965332 -767.287048 -176.378204
v 4507.040039 -767.338928 -182.557281
v 4542.083984 -767.156067 -170.163208
v 4544.784180 -767.229858 -178.099899
v 4562.604980 -907.654358 -178.099899
v 4569.187988 -1185.235107 -178.099869
v 4576.218262 -1185.748047 -178.099869
v 4564.475098 -1586.378052 -178.099808
v 4572.439941 -1587.525024 -178.099808
v 4564.478027 -1987.556030 -178.099747
v 4573.683105 -1988.649780 -178.099747
v 4574.103027 -2219.072998 -178.099731
v 4550.974121 -767.061035 -178.099899
v 4544.784180 -767.229858 -178.099899
v 4561.256348 -880.098022 -178.099884
v 4554.089355 -881.317871 -178.099884
v 4555.437012 -908.449585 -178.099899
v 5320.931641 -1178.901123 -178.099869
v 5321.277344 -1259.973145 -178.099838
v 5328.444336 -1178.285034 -178.099869
v 5322.826660 -1623.338989 -178.099808
v 5329.583496 -1624.182129 -178.099808
v 5321.915039 -2066.817139 -178.099747
v 5330.861328 -2067.418213 -178.099747
v 5331.407227 -2227.736084 -178.099731
v 5323.341309 -2220.383057 -178.099731
v 5143.146484 -2227.600098 -178.099731
v 4909.662109 -2220.338135 -178.099731
v 4909.529785 -2228.349854 -178.099731
v 4800.270996 -2228.070068 -178.099731
v 4443.465332 -761.747314 -187.895508
v 4444.133301 -767.520386 -187.899811
v 4456.067383 -761.664062 -186.608688
v 4456.714355 -767.484070 -186.617401
v 4468.669434 -761.580872 -185.321793
v 4469.296387 -767.447754 -185.334900
v 4540.609863 -716.064087 -178.087311
v 4536.718262 -716.123352 -165.778915
v 4541.041016 -721.338196 -178.087311
v 4542.083984 -767.155884 -170.163208
v 4544.282227 -761.081177 -178.087311
v 4529.946289 -585.310303 -178.099930
v 4534.437988 -588.108582 -178.099930
v 4734.601074 -490.881378 -178.099930
v 4737.051270 -495.567566 -178.099930
v 4943.362793 -401.337097 -178.099945
v 4944.931152 -392.478058 -178.099945
v 5325.458496 -748.573364 -178.099899
v 5318.750000 -752.401428 -178.099899
v 4565.443359 -2227.100098 -178.099731
v 4544.784180 -767.229858 -178.087311
v 4554.088379 -881.317871 -178.099884
v 4536.461426 -665.179688 -178.087311
v 4531.323242 -664.809082 -161.370422
v 4529.946289 -585.310303 -178.087326
v 4734.601074 -490.881378 -178.087341
v 4522.362305 -579.601868 -154.050125
v 4730.421387 -479.811157 -97.014366
v 4944.931152 -392.477905 -178.087341
v 4946.141113 -382.618225 -152.713150
v 4529.946289 -585.310303 -178.087326
v 4522.362793 -579.601868 -154.050125
v 4431.552246 -767.556702 -189.182281
v 4430.984375 -762.025452 -188.714401
v 4544.282227 -761.081177 -178.099899
v 4550.314453 -760.960754 -178.099899
v 4550.974121 -767.061096 -178.099899
v 4540.611328 -716.064087 -178.099915
v 4541.041016 -721.338257 -178.099915
v 4546.141113 -716.169067 -178.099915
v 4546.531250 -721.378174 -178.099915
v 4553.898438 -715.992371 -178.099915
v 4553.406250 -721.235291 -178.099915
v 4553.726074 -760.892395 -178.099899
v 4554.807129 -767.051392 -178.099899
v 4465.152344 -722.026184 -184.966003
v 4464.617188 -716.824036 -184.966309
v 4452.503418 -722.140869 -185.070618
v 4451.951172 -716.950562 -185.070801
v 4426.387207 -717.228149 -184.921799
v 4439.286133 -717.077271 -185.386002
v 4438.946289 -717.102356 -182.742599
v 4450.969727 -716.982056 -180.656509
v 4451.951172 -716.950562 -185.070709
v 4463.591309 -716.855652 -178.466705
v 4439.854980 -722.255554 -185.385910
v 4439.286133 -717.077271 -185.386002
v 4464.617188 -716.824036 -184.966309
v 4499.954102 -716.491455 -172.157608
v 4503.096191 -721.682190 -182.557297
v 4502.614258 -716.444092 -182.557297
v 4536.718262 -716.123352 -165.778915
v 4540.611328 -716.064087 -178.099915
v 4536.461426 -665.179688 -178.099915
v 4541.483398 -664.809753 -178.099915
v 4444.133301 -767.520386 -187.899811
v 4540.609863 -716.064087 -178.099915
v 4546.141113 -716.169067 -178.099915
v 4426.928223 -722.502502 -185.368301
v 4506.476074 -761.331116 -182.557281
v 4507.040039 -767.338806 -182.557281
v 5325.458496 -748.573364 -178.087311
vn 0.0018 -0.9999 0.0105
vn 0.0022 -1.0000 0.0088
vn 0.0021 -1.0000 0.0088
vn 0.0017 -0.9999 0.0099
vn -0.0000 -0.0000 -1.0000
vn 0.1015 0.0125 -0.9948
vn 0.1014 0.0128 -0.9948
vn 0.1015 0.0128 -0.9948
vn 0.1014 0.0131 -0.9948
vn -0.9505 -0.0777 -0.3008
vn -0.9503 -0.0739 -0.3024
vn -0.9440 -0.0770 -0.3209
vn -0.9440 -0.0771 -0.3210
vn -0.9439 -0.0769 -0.3210
vn -0.9505 -0.0775 -0.3009
vn -0.9536 -0.0752 -0.2915
vn -0.3969 0.8709 -0.2900
vn -0.4076 0.9006 -0.1507
vn -0.3957 0.8576 -0.3285
vn -0.4094 0.8998 -0.1509
vn -0.4496 0.8504 -0.2735
vn -0.4554 0.8369 -0.3035
vn -0.9534 -0.0778 -0.2914
vn -0.9559 -0.0762 -0.2835
vn 0.1014 0.0125 -0.9948
vn 0.0632 0.0906 -0.9939
vn 0.0083 0.0008 -1.0000
vn 0.0082 0.0008 -1.0000
vn -0.0114 0.9999 0.0080
vn -0.0101 0.9999 0.0049
vn -0.0108 0.9999 0.0047
vn 0.0249 0.0026 -0.9997
vn 0.0249 0.0027 -0.9997
vn -0.0100 0.9999 0.0033
vn -0.0106 0.9999 0.0032
vn 0.0633 0.0058 -0.9980
vn 0.0632 0.0064 -0.9980
vn -0.0101 0.9999 0.0020
vn -0.0103 0.9999 0.0019
vn 0.1166 0.0095 -0.9931
vn 0.1164 0.0107 -0.9931
vn 0.0018 -0.9999 0.0104
vn -0.0368 0.0805 -0.9961
vn -0.0014 -0.0002 -1.0000
vn 0.0729 0.0100 -0.9973
vn 0.0734 0.0069 -0.9973
vn 0.1170 0.0110 -0.9931
vn 0.1172 0.0096 -0.9931
vn 0.6515 0.6962 -0.3016
vn -0.0102 0.9999 0.0016
vt 2.841813 1.000000
vt 2.857348 0.948427
vt 3.221752 0.974213
vt 2.492944 0.922641
vt 2.469642 1.000000
vt 1.399732 0.845281
vt 1.353127 1.000000
vt 0.306519 0.767922
vt 0.236614 1.000000
vt 20.744310 4.012761
vt 20.732630 3.888630
vt 33.016460 3.998159
vt 4.322276 3.871809
vt 4.317773 4.002040
vt -9.700829 3.874883
vt -9.742731 4.001008
vt -17.401690 4.005500
vt 34.135250 4.002371
vt 37.745110 3.864346
vt 37.749428 4.002371
vt 34.135250 3.864346
vt 33.017002 3.863516
vt -130.424896 3.861069
vt -126.857193 4.005500
vt -130.409195 4.005500
vt -110.936600 4.005500
vt -110.936600 3.861069
vt -89.622368 4.005500
vt -89.585747 3.861069
vt -75.373436 3.861068
vt -82.936584 4.005500
vt -83.293976 3.861068
vt -65.648361 4.005500
vt -65.650826 3.861069
vt -61.334557 3.863589
vt 6.843808 3.000000
vt 7.216057 2.873137
vt 7.216058 3.000000
vt 6.843808 2.873137
vt 6.471559 3.000000
vt 6.471560 2.873137
vt 38.870598 3.992070
vt 39.025650 3.651774
vt 39.026939 3.992070
vt 37.514919 3.756553
vt 37.691349 3.992070
vt 53.229519 3.870690
vt 44.488949 4.002283
vt 44.361988 3.870690
vt 53.229519 4.004421
vt 62.934750 4.003356
vt 84.584198 3.864346
vt 63.240349 4.004770
vt 63.036499 3.870690
vt 84.498627 4.005500
vt -52.383080 4.005500
vt -52.078850 3.863589
vt -80.624176 4.005500
vt -80.251045 3.861068
vt -149.981598 4.005500
vt -130.436401 3.861068
vt -130.397690 4.005500
vt -150.180603 3.861068
vt 37.509380 3.992070
vt 34.135250 3.992070
vt 40.538017 3.992070
vt 40.586800 3.545861
vt 44.300598 3.376490
vt 53.229519 3.998414
vt 44.503429 3.998414
vt 53.196671 2.217853
vt 63.150589 3.998414
vt 63.305607 3.426390
vt 42.894379 3.992070
vt 43.104420 3.370256
vt 7.588306 2.873173
vt 7.588306 2.999596
vt 4.033152 3.000179
vt 4.238065 2.873137
vt 4.238065 3.000000
vt 4.033155 2.873368
vt 4.033152 2.873137
vt 4.238064 3.000179
vt 4.238064 2.873316
vt 4.033155 2.999948
vt 3.734146 2.999835
vt 4.033170 2.873137
vt 3.710161 2.873316
vt 4.033174 2.999948
vt 3.802328 3.000000
vt 4.033174 2.873368
vt 4.033169 3.000179
vt 3.751465 2.873481
vt 0.265699 0.899107
vt 0.278086 1.000000
vt -0.093136 1.000000
vt 0.624533 0.868889
vt 0.649307 1.000000
vt 0.983367 0.830356
vt 1.020528 1.000000
vt 2.059870 0.727230
vt 5.354812 2.873137
vt 5.354812 3.000000
vt 2.134191 1.000000
vt 3.136373 0.653205
vt 42.826618 4.000567
vt 40.538017 3.864346
vt 42.894379 3.864346
vt 40.538017 4.001336
vt 3.213984 1.000000
vt 3.586156 1.000000
vt 38.733219 3.864346
vt 38.733219 4.001963
vt 7.588306 2.873137
vt -17.650040 3.861071
vt 63.150589 3.870690
vt 63.009338 3.426390
vt 84.584198 3.992070
vt 3.247855 1.000000
s 0
usemtl mt_town_isigakiB.004
f 3/1/1 2/2/1 1/3/1
f 4/4/1 2/2/1 3/1/1
f 5/5/1 4/4/1 3/1/1
f 6/6/1 4/4/1 5/5/1
f 7/7/2 6/6/2 5/5/2
f 8/8/3 6/6/3 7/7/3
f 9/9/4 8/8/4 7/7/4
f 12/10/5 11/11/5 10/12/5
f 13/13/5 11/11/5 12/10/5
f 14/14/5 13/13/5 12/10/5
f 15/15/5 13/13/5 14/14/5
f 16/16/5 15/15/5 14/14/5
f 17/17/5 15/15/5 16/16/5
f 20/18/5 19/19/5 18/20/5
f 21/21/5 19/19/5 20/18/5
f 10/12/5 21/21/5 20/18/5
f 22/22/5 21/21/5 10/12/5
f 11/11/5 22/22/5 10/12/5
f 25/23/5 24/24/5 23/25/5
f 26/26/5 24/24/5 25/23/5
f 27/27/5 26/26/5 25/23/5
f 28/28/5 26/26/5 27/27/5
f 29/29/5 28/28/5 27/27/5
f 32/30/5 31/31/5 30/32/5
f 33/33/5 31/31/5 32/30/5
f 34/34/5 33/33/5 32/30/5
f 35/35/5 33/33/5 34/34/5
f 38/36/6 37/37/6 36/38/6
f 39/39/7 37/37/7 38/36/7
f 40/40/8 39/39/8 38/36/8
f 41/41/9 39/39/9 40/40/9
f 44/42/10 43/43/10 42/44/10
f 45/45/11 43/43/11 44/42/11
f 46/46/12 45/45/12 44/42/12
f 49/47/5 48/48/5 47/49/5
f 50/50/5 48/48/5 49/47/5
f 51/51/5 50/50/5 49/47/5
f 53/52/5 51/53/5 52/54/5
f 54/55/5 51/53/5 53/52/5
f 17/56/5 35/35/5 55/57/5
f 33/33/5 35/35/5 17/56/5
f 31/58/5 29/29/5 30/59/5
f 28/28/5 29/29/5 31/58/5
f 54/60/5 25/61/5 23/62/5
f 53/63/5 25/61/5 54/60/5
f 56/64/13 45/45/13 46/46/13
f 57/65/14 45/45/14 56/64/14
f 43/43/15 58/66/15 42/44/15
f 59/67/16 58/66/16 43/43/16
s 1
f 62/68/17 61/69/18 60/70/19
f 63/71/20 61/69/18 62/68/17
f 63/71/20 64/72/21 61/69/18
f 65/73/22 64/72/21 63/71/20
s 0
f 59/67/23 66/74/23 58/66/23
f 67/75/24 66/74/24 59/67/24
f 68/76/25 36/38/25 37/37/25
f 69/77/26 36/38/26 68/76/26
f 71/78/5 9/79/5 70/80/5
f 72/81/5 9/79/5 71/78/5
f 75/82/5 74/83/5 73/84/5
f 76/85/5 74/83/5 75/82/5
f 78/86/5 75/87/5 77/88/5
f 76/89/5 75/87/5 78/86/5
f 79/90/5 72/91/5 71/92/5
f 80/93/5 72/91/5 79/90/5
f 83/36/27 82/41/27 81/40/27
f 84/39/28 82/41/28 83/36/28
f 87/94/29 86/95/29 85/96/29
f 88/97/29 86/95/29 87/94/29
f 88/97/30 89/98/30 86/95/30
f 90/99/31 89/98/31 88/97/31
f 91/38/32 84/39/32 83/36/32
f 92/37/33 84/39/33 91/38/33
f 90/99/34 93/100/34 89/98/34
f 94/101/35 93/100/35 90/99/35
f 81/40/36 96/102/36 95/103/36
f 82/41/37 96/102/37 81/40/37
f 94/101/38 96/104/38 93/100/38
f 97/105/39 96/104/39 94/101/39
f 95/103/40 98/79/40 74/80/40
f 96/102/41 98/79/41 95/103/41
f 48/106/5 99/107/5 47/108/5
f 100/109/5 99/107/5 48/106/5
f 101/110/42 1/3/42 68/111/42
f 3/1/42 1/3/42 101/110/42
f 100/109/5 102/112/5 99/107/5
f 103/113/5 102/112/5 100/109/5
f 92/37/43 104/77/43 85/114/43
f 91/38/44 104/77/44 92/37/44
f 105/103/45 41/41/45 40/40/45
f 106/102/46 41/41/46 105/103/46
f 70/80/47 106/102/47 105/103/47
f 9/79/48 106/102/48 70/80/48
f 55/115/5 15/15/5 17/17/5
f 52/116/5 51/51/5 49/47/5
f 65/117/49 107/118/49 64/72/49
f 98/119/50 96/104/50 97/105/50
