# Blender 4.1.1
# www.blender.org
mtllib polygon0.193.mtl
o polygon0.008
v -20.108929 -0.462190 -24.230988
v -20.108929 -2.545618 -24.230988
v -19.717499 -0.462190 -23.976919
v -19.717499 -2.545618 -23.976919
v -20.139248 -0.462190 -23.764477
v -20.139248 -2.545618 -23.764477
v -21.569208 -0.396761 -22.435839
v -21.569208 -0.396761 -25.564159
v -18.430790 -0.396761 -22.435839
v -18.430790 -0.396762 -25.564159
v -21.569208 -0.890880 -22.435839
v -18.430790 -0.890880 -22.435839
v -21.569208 -0.890880 -25.564150
v -18.430790 -0.890880 -25.564159
v -20.542089 -0.842283 -24.000000
v -20.542089 -0.468865 -24.000000
v -20.000000 -0.842283 -23.459660
v -20.000000 -0.468865 -23.459660
v -20.000000 -0.468865 -24.540339
v -20.000000 -0.842283 -24.540339
v -19.457909 -0.468865 -24.000000
v -19.457909 -0.842283 -24.000000
v 21.559259 -0.396762 -25.564159
v 18.420830 -0.396761 -25.564159
v 21.559250 -0.396761 -22.435839
v 18.420839 -0.396761 -22.435839
v 21.559259 -0.890880 -25.564159
v 21.559250 -0.890880 -22.435839
v 18.420839 -0.890880 -25.564150
v 18.420839 -0.890880 -22.435839
v 19.990047 -0.468865 -23.459660
v 19.447960 -0.468865 -24.000000
v 19.990047 -0.842283 -23.459660
v 19.447960 -0.842283 -24.000000
v 20.532129 -0.842283 -24.000000
v 19.990047 -0.842283 -24.540339
v 20.532129 -0.468865 -24.000000
v 19.990047 -0.468865 -24.540339
v 19.881117 -0.462190 -24.230988
v 19.881117 -2.545618 -24.230988
v 20.272539 -0.462190 -23.976919
v 20.272539 -2.545618 -23.976919
v 19.850800 -0.462190 -23.764477
v 19.850800 -2.545618 -23.764477
v -4.204071 0.325086 -16.322050
v -4.205240 -1.232422 -16.323660
v 0.026817 0.324958 -17.696739
v 0.026813 -1.232422 -17.698730
v 4.257694 0.324958 -16.322050
v 4.258869 -1.232422 -16.323660
v 6.872530 0.325086 -12.723040
v 5.566644 -1.232422 -14.523660
v 6.874422 -1.232422 -12.723660
v 6.874422 -1.232421 -10.498740
v 6.874421 -1.232421 -8.273811
v 6.872538 0.325087 -8.274424
v 5.566644 -1.232421 -6.473813
v 4.258868 -1.232421 -4.673812
v -4.205240 -1.232421 -4.673811
v -5.513017 -1.232421 -6.473813
v -6.818902 0.325087 -8.274426
v -6.820794 -1.232421 -8.273811
v -6.820794 -1.232421 -10.498740
v -6.818911 0.325086 -12.723050
v -6.820794 -1.232422 -12.723660
v -5.513017 -1.232422 -14.523660
v 4.257699 0.325087 -4.675423
v 0.026809 0.324960 -3.300725
v 0.026814 -1.232420 -3.298735
v -4.204067 0.324959 -4.675418
v 0.026814 0.285851 -10.498740
v 5.494576 -1.222643 -12.704630
v 2.942244 -1.212865 -10.498740
v 5.408413 -1.222643 -8.183970
v -5.043886 -1.222643 -8.183969
v -2.888615 -1.212865 -10.498740
v -4.957724 -1.222643 -12.704630
v -3.887280 -1.222643 -5.787104
v 0.026814 -1.212865 -7.569513
v 3.853258 -1.222437 -5.910543
v 3.853258 -1.222438 -15.542669
v 0.026814 -1.212866 -13.427958
v -3.887280 -1.222644 -15.419230
v 0.026814 -1.193309 -10.498740
v -20.000849 -1.775603 2.152982
v -19.306002 -2.484710 -12.716689
v -19.306002 -2.484709 2.152982
v -20.000839 -3.193913 -12.716689
v -20.000839 -3.193910 2.152982
v -20.725010 -2.484805 -12.716689
v -20.725010 -2.484804 2.152982
v -20.000849 -1.775606 -12.716690
v 19.999149 -1.775603 2.152982
v 20.693998 -2.484710 -12.716689
v 20.693998 -2.484709 2.152982
v 19.999159 -3.193913 -12.716689
v 19.999159 -3.193910 2.152982
v 19.274990 -2.484805 -12.716689
v 19.274990 -2.484804 2.152982
v 19.999149 -1.775606 -12.716690
v -21.265200 -2.484758 -12.000769
v -21.263578 -2.484760 -25.000000
v -20.834528 -1.389060 -12.000769
v -20.833460 -1.390473 -25.000000
v -19.165470 -1.389059 -12.000769
v -19.166550 -1.390474 -25.000000
v -18.734800 -2.484758 -12.000769
v -18.736429 -2.484760 -25.000000
v -19.368210 -3.579046 -25.000002
v -20.000000 -2.484760 -25.500000
v -20.631788 -3.579046 -25.000002
v -20.632597 -3.580457 -12.000769
v -19.367397 -3.580457 -12.000769
v -20.000000 -2.484758 -11.588559
v 18.734800 -2.484758 -12.000769
v 18.736420 -2.484760 -25.000000
v 19.165470 -1.389060 -12.000769
v 19.166540 -1.390473 -25.000000
v 20.834528 -1.389059 -12.000769
v 20.833448 -1.390474 -25.000000
v 21.265200 -2.484758 -12.000769
v 21.263569 -2.484760 -25.000000
v 20.631788 -3.579046 -25.000002
v 20.000000 -2.484760 -25.500000
v 19.368210 -3.579046 -25.000002
v 19.367397 -3.580457 -12.000769
v 20.632597 -3.580457 -12.000769
v 20.000000 -2.484758 -11.588559
v -4.412358 -0.271592 -21.876499
v -5.170923 -0.271592 -21.876499
v -3.733169 -0.271592 -23.342749
v -5.850111 -0.271592 -23.342749
v -3.688262 -0.271592 -24.682089
v -5.895018 -0.271592 -24.682089
v -3.688262 -0.820139 -24.682089
v -5.895018 -0.820139 -24.682089
v -3.733169 -0.820139 -23.342749
v -5.850111 -0.820139 -23.342749
v 0.064426 -0.682873 -23.741999
v 0.064426 -0.682873 -24.594599
v -3.729214 -0.682873 -23.741999
v -3.729214 -0.682873 -24.594599
v -3.729214 -0.423906 -23.741999
v -3.729214 -0.423906 -24.594599
v 0.064426 -0.423906 -23.741999
v 0.064426 -0.423906 -24.594599
v 4.593075 -0.699141 -14.549719
v 4.593076 -0.699142 -22.322409
v 4.791332 -0.325406 -14.549719
v 4.791331 -0.325407 -22.489330
v 4.985438 -0.651334 -14.549719
v 4.985438 -0.651335 -22.322409
v 3.704615 -0.820139 -23.342749
v 5.866465 -0.820139 -24.682089
v 3.659708 -0.820139 -24.682089
v 5.866465 -0.271592 -24.682089
v 3.659708 -0.271592 -24.682089
v 5.821558 -0.271592 -23.342749
v -4.412358 -0.820139 -21.876499
v -5.170923 -0.820139 -21.876499
v 4.383804 -0.820139 -21.995369
v 5.142369 -0.820139 -21.995369
v 5.821557 -0.820139 -23.342749
v 5.142369 -0.271592 -21.995369
v 4.383804 -0.271592 -21.995369
v 3.704615 -0.271592 -23.342749
v 3.777200 -0.682873 -23.741999
v 3.777200 -0.423906 -23.741999
v 3.777200 -0.682873 -24.594599
v 3.777200 -0.423906 -24.594599
v -4.631274 -0.666572 -14.549719
v -4.819884 -0.325406 -14.549719
v -4.631275 -0.666573 -21.983908
v -4.819884 -0.325407 -21.983908
v -5.008769 -0.712829 -14.549719
v -5.008769 -0.712830 -21.983908
v -20.114840 -0.555123 -25.089060
v -20.114840 -0.555123 -24.453129
v -20.835369 -0.555123 -24.695778
v -20.372320 -0.555123 -24.259899
v -20.695539 -0.555123 -23.204018
v -20.337090 -0.555123 -23.632559
v -19.326918 -0.555123 -23.286249
v -19.634949 -0.555123 -23.660587
v -19.212559 -0.562370 -24.470329
v -19.731039 -0.562370 -24.481947
v -20.337090 -0.555123 -23.632559
v -19.634949 -0.555123 -23.660587
v 19.645990 -0.555123 -23.692518
v 19.386740 -0.555123 -23.422270
v 20.342007 -0.555123 -23.653507
v 20.588230 -0.555123 -23.388439
v 20.716660 -0.555123 -24.564629
v 20.356329 -0.555123 -24.358469
v 20.008549 -0.555123 -24.448219
v 20.001240 -0.555123 -25.003727
v 10.314250 -0.555123 -24.607609
v 10.314250 -0.555123 -23.971680
v -10.483370 -0.555123 -24.003107
v -10.483370 -0.555123 -24.639040
v 19.659710 -0.564182 -24.501110
v 19.386770 -0.564182 -24.515270
v 0.064426 -0.555123 -23.758898
v 0.064426 -0.555123 -24.394829
vn 0.9985 -0.0000 0.0546
vn -0.4485 -0.0000 -0.8938
vn 0.9985 -0.0000 0.0545
vn -0.5518 -0.0000 0.8340
vn -0.0000 1.0000 -0.0000
vn -0.0000 -1.0000 -0.0000
vn -0.7060 -0.0000 0.7082
vn -0.7060 -0.0000 -0.7082
vn 0.7060 -0.0000 0.7083
vn -0.7060 -0.0000 0.7083
vn -0.7060 -0.0000 -0.7083
vn 0.7060 -0.0000 -0.7082
vn 0.7060 -0.0000 0.7082
vn -0.0000 0.6459 -0.7634
vn -0.4486 -0.6466 -0.6170
vn -0.4487 0.6459 -0.6176
vn -0.0000 -0.6450 -0.7642
vn 0.4487 0.6459 -0.6176
vn 0.4484 -0.6469 -0.6169
vn 0.7260 0.6459 -0.2359
vn 0.5707 -0.7087 -0.4148
vn 0.7263 -0.6456 -0.2362
vn 0.7261 0.6459 0.2359
vn 0.7263 -0.6455 0.2363
vn 0.7055 -0.7087 -0.0001
vn 0.5708 -0.7087 0.4147
vn 0.4490 -0.6458 0.6176
vn -0.7260 0.6459 0.2359
vn -0.5706 -0.7087 0.4149
vn -0.4489 -0.6460 0.6173
vn -0.7267 -0.6451 0.2363
vn -0.7057 -0.7085 -0.0000
vn -0.7261 0.6459 -0.2359
vn -0.7268 -0.6450 -0.2363
vn -0.5706 -0.7086 -0.4150
vn 0.4487 0.6459 0.6176
vn -0.0000 0.6459 0.7634
vn -0.0000 -0.6449 0.7643
vn -0.4487 0.6459 0.6176
vn -0.0037 -1.0000 0.0029
vn -0.0057 -1.0000 -0.0000
vn -0.0032 -1.0000 -0.0033
vn 0.0021 -1.0000 -0.0035
vn 0.0058 -1.0000 -0.0000
vn 0.0023 -1.0000 0.0032
vn 0.0045 -1.0000 -0.0026
vn -0.0000 -1.0000 -0.0051
vn -0.0042 -1.0000 -0.0019
vn -0.0049 -1.0000 0.0044
vn -0.0000 -1.0000 0.0050
vn 0.0049 -1.0000 0.0037
vn 1.0000 -0.0000 -0.0000
vn 0.0103 0.9999 -0.0000
vn 0.0104 -0.9999 -0.0000
vn -1.0000 -0.0000 -0.0000
vn -0.4853 0.7090 0.5117
vn -0.8641 -0.0618 -0.4995
vn -0.8517 -0.0612 0.5205
vn -0.4916 0.7176 -0.4933
vn 0.4853 0.7090 0.5117
vn 0.4916 0.7176 -0.4933
vn 0.8517 -0.0612 0.5205
vn 0.8641 -0.0618 -0.4995
vn 0.4354 -0.7541 -0.4917
vn -0.0000 -0.0104 -0.9999
vn -0.4354 -0.7541 -0.4917
vn -0.4295 -0.7439 0.5120
vn 0.4295 -0.7439 0.5120
vn -0.0000 -0.0089 1.0000
vn 0.8517 -0.0612 0.5204
vn 0.7266 0.6650 0.1729
vn -0.4292 0.6037 0.6719
vn 0.4292 0.6037 0.6718
vn -0.7266 0.6650 0.1729
vn 0.5878 0.5756 -0.5684
vn -0.5878 0.5756 -0.5684
vn 0.5878 -0.5756 -0.5684
vn -0.5878 -0.5756 -0.5684
vn 0.7266 -0.6650 0.1729
vn -0.7266 -0.6650 0.1729
vn -0.5774 -0.5773 0.5774
vn -0.0000 -0.7071 -0.7071
vn -0.0000 -0.7071 0.7071
vn -0.5773 -0.5774 -0.5774
vn -0.5773 0.5774 0.5774
vn -0.5774 0.5773 -0.5774
vn -0.0000 0.7071 0.7071
vn -0.0000 0.7071 -0.7071
vn -0.0247 0.9997 -0.0000
vn -0.9210 -0.3896 -0.0000
vn -0.8241 -0.5664 -0.0000
vn -0.0539 0.9985 -0.0000
vn 0.8977 -0.4405 -0.0000
vn 0.9613 -0.2755 -0.0000
vn -0.7264 -0.6618 0.1856
vn 0.7264 0.6618 0.1856
vn 0.4292 -0.6037 0.6718
vn -0.4292 -0.6037 0.6718
vn 0.4171 -0.6060 0.6774
vn -0.4171 -0.6060 0.6774
vn 0.7264 -0.6618 0.1856
vn -0.4171 0.6060 0.6774
vn 0.4171 0.6060 0.6774
vn -0.7264 0.6618 0.1856
vn 0.5773 0.5773 0.5774
vn 0.5773 -0.5773 0.5774
vn 0.5774 -0.5774 -0.5774
vn 0.5773 0.5773 -0.5774
vn 0.8907 -0.4546 -0.0000
vn -0.0257 0.9997 -0.0000
vn -0.8141 -0.5807 -0.0000
vn 0.0067 1.0000 -0.0055
vn 0.0002 1.0000 -0.0088
vn -0.0067 -1.0000 0.0055
vn -0.0002 -1.0000 0.0088
vn 0.0086 -0.9999 0.0083
vn -0.0006 -0.9999 0.0112
vt 0.873229 0.689736
vt 0.880644 0.685732
vt 0.873229 0.685732
vt 0.880644 0.689736
vt 0.873229 0.687074
vt 0.880644 0.687074
vt 0.461885 0.990981
vt 0.011177 0.506088
vt 0.463627 0.516911
vt 0.009435 0.980159
vt 0.639496 0.579889
vt 0.547156 0.575777
vt 0.639496 0.575777
vt 0.547156 0.579889
vt 0.547156 0.575088
vt 0.639496 0.579200
vt 0.547156 0.579200
vt 0.208592 0.743193
vt 0.245276 0.797930
vt 0.248076 0.701402
vt 0.553373 0.575088
vt 0.635006 0.575777
vt 0.635006 0.575088
vt 0.553373 0.579200
vt 0.635006 0.579200
vt 0.635006 0.579889
vt 0.553373 0.579889
vt 0.564197 0.575777
vt 0.498453 0.575777
vt 0.564197 0.579889
vt 0.498453 0.579200
vt 0.564197 0.575088
vt 0.564197 0.579200
vt 0.498453 0.575088
vt 0.498453 0.579889
vt 0.639496 0.575088
vt 0.965312 -0.416588
vt 0.983020 -0.434296
vt 0.983020 -0.416588
vt 0.965312 -0.434296
vt 0.947604 -0.416588
vt 0.947604 -0.434296
vt 0.929896 -0.416588
vt 0.938750 -0.434296
vt 0.929896 -0.434296
vt 1.089266 -0.416588
vt 1.089266 -0.434296
vt 1.098120 -0.434296
vt 1.080412 -0.434296
vt 1.071558 -0.434296
vt 1.018435 -0.416588
vt 1.027289 -0.434296
vt 1.036143 -0.434296
vt 1.018435 -0.434296
vt 1.009581 -0.434296
vt 1.000727 -0.416588
vt 1.000727 -0.434296
vt 0.991874 -0.434296
vt 1.106974 -0.416588
vt 1.106974 -0.434296
vt 1.071558 -0.416588
vt 1.053851 -0.416588
vt 1.053851 -0.434296
vt 1.036143 -0.416588
vt 3.000118 -0.000074
vt 2.644831 0.253616
vt 2.563570 -0.003666
vt 2.861800 0.413997
vt 3.131601 0.416217
vt 3.351179 0.259428
vt 3.436664 0.003517
vt 0.575757 0.337495
vt 0.664456 0.260221
vt 0.712824 0.337495
vt 0.576212 0.182947
vt 0.494386 0.260221
vt 0.463618 0.260221
vt 0.452435 0.337495
vt 0.695223 0.260221
vt 0.501099 0.183466
vt 0.498003 0.210037
vt 0.487985 0.196249
vt 0.508021 0.223826
vt 0.520178 0.213987
vt 0.097703 -0.129472
vt 0.003602 -0.375973
vt 0.064434 -0.299933
vt 0.003602 0.000047
vt 0.361217 -0.116150
vt 0.139786 0.098990
vt 0.348530 -0.015020
vt -0.132582 -0.098896
vt -0.354014 0.116243
vt -0.323734 0.021945
vt -0.090499 0.129565
vt 0.003602 0.376066
vt -0.074882 0.314152
vt 0.104174 0.332839
vt 0.262484 -0.150193
vt -0.079379 -0.325914
vt -0.272932 0.164412
vt 0.712343 0.506806
vt 1.249412 0.506806
vt 0.712343 0.602360
vt 1.249412 0.602374
vt 0.712343 0.602374
vt 1.249412 0.697928
vt 0.712343 0.697929
vt 1.249412 0.602361
vt 0.584107 0.742202
vt 0.576369 0.778101
vt 0.576340 0.742202
vt 0.584127 0.778101
vt 0.614209 0.742202
vt 0.614190 0.778101
vt 0.621977 0.742202
vt 0.621947 0.778101
vt 0.610553 0.778101
vt 0.599158 0.782332
vt 0.587764 0.778101
vt 0.587749 0.742202
vt 0.610567 0.742202
vt 0.611216 0.735850
vt 0.779451 0.727722
vt 0.734140 0.727722
vt 0.612103 0.735850
vt 0.842390 0.725486
vt 0.820207 0.725486
vt 0.444505 0.350965
vt 0.306721 0.241045
vt 0.364158 0.241045
vt 0.219179 0.350965
vt 0.447570 0.471785
vt 0.216114 0.471785
vt 0.447570 0.482373
vt 0.216114 0.482373
vt 0.444505 0.356454
vt 0.219179 0.356454
vt 0.494571 -0.124190
vt 0.433928 0.081719
vt 0.494571 0.081719
vt 0.433928 -0.124190
vt 0.735889 0.483320
vt 0.697717 0.466416
vt 0.697717 0.483320
vt 0.735889 0.466416
vt -0.214985 0.480522
vt -0.446442 0.480522
vt -0.218051 0.354603
vt -0.446442 0.472807
vt -0.214985 0.472807
vt -0.443376 0.350965
vt 0.511136 0.357795
vt 0.447052 0.352297
vt 0.511288 0.352415
vt 0.447142 0.357795
vt 0.511136 0.462661
vt 0.447142 0.462661
vt 0.218896 0.350965
vt 0.164678 0.340653
vt 0.218896 0.340653
vt 0.164678 0.350965
vt 0.218896 0.473824
vt 0.164678 0.473824
vt -0.356227 0.240794
vt -0.298006 0.240794
vt -0.443376 0.354603
vt -0.298397 0.241045
vt -0.355835 0.241045
vt -0.218051 0.350965
vt 0.496429 0.119493
vt 0.525909 -0.052357
vt 0.525909 0.119493
vt 0.496429 -0.052356
vt 0.433924 -0.052357
vt 0.494571 0.119493
vt 0.494571 -0.052356
vt 0.433928 0.119493
vt 0.396717 -0.052357
vt 0.396717 0.119493
vt 0.496429 -0.124190
vt 0.525909 0.081719
vt 0.496429 0.081719
vt 0.525909 -0.124190
vt 0.396717 -0.124190
vt 0.396717 0.081719
vt 1.478681 0.479164
vt 1.427929 0.374601
vt 1.470364 0.374601
vt 1.419613 0.479164
vt -0.511730 0.352297
vt -0.450020 0.357795
vt -0.449868 0.352415
vt -0.511640 0.357795
vt -0.221192 0.340653
vt -0.166974 0.350965
vt -0.166974 0.340653
vt -0.221192 0.350965
vt -0.450020 0.462661
vt -0.511640 0.462661
vt -0.166974 0.473824
vt -0.221192 0.473824
vt 0.306329 0.242644
vt 0.364550 0.242644
vt 0.582732 0.479164
vt 0.531981 0.374601
vt 0.574416 0.374601
vt 0.523664 0.479164
vt 0.550590 0.839701
vt 0.568689 0.839701
vt 0.552008 0.893334
vt 0.528872 0.839701
vt 0.530357 0.893334
vt 0.523140 0.893334
vt 0.521633 0.839701
vt 0.515924 0.893334
vt 0.514393 0.839701
vt 0.530288 0.893334
vt 0.551865 0.893334
vt 0.551865 0.839701
vt 0.530288 0.839701
vt 0.523095 0.893334
vt 0.523095 0.839701
vt 0.515903 0.893334
vt 0.515903 0.839701
vt 0.957950 0.893334
vt 0.975907 0.839701
vt 0.975992 0.893334
vt 0.948759 0.839701
vt 0.957808 0.839701
vt 0.948790 0.839701
vt 0.948790 0.893334
vt 0.957834 0.893334
vt 0.514670 0.893334
vt 0.514670 0.839701
vt 0.569846 0.839701
vt 1.001393 0.893334
vt 1.001393 0.839701
vt 0.569846 0.893334
vt 1.003055 0.893334
vt 0.994011 0.839701
vt 0.994011 0.893334
vt 1.003055 0.839701
vt 0.994034 0.893334
vt 0.957834 0.839701
vt 0.975922 0.839701
vt 0.515924 0.839701
vt 1.001414 0.893335
vt 1.001414 0.839701
vt 0.514393 0.893335
vt 1.002779 0.839701
s 1
usemtl mt_target2
f 3/1/1 2/2/2 1/3/2
f 4/4/3 2/2/2 3/1/1
f 5/5/4 4/4/3 3/1/1
f 6/6/4 4/4/3 5/5/4
s 0
f 9/7/5 8/8/5 7/9/5
f 14/10/6 12/7/6 13/8/6
f 17/11/7 16/12/7 15/13/7
f 18/14/7 16/12/7 17/11/7
f 19/15/8 15/13/8 16/12/8
f 18/14/9 22/16/9 21/17/9
f 17/11/9 22/16/9 18/14/9
s 1
f 5/5/4 2/2/2 6/6/4
f 1/3/2 2/2/2 5/5/4
s 0
f 5/18/5 3/19/5 1/20/5
f 9/7/6 8/8/6 10/10/6
f 11/9/5 12/7/5 13/8/5
f 19/21/9 15/22/9 20/23/9
f 21/24/10 20/23/10 22/25/10
f 19/21/10 20/23/10 21/24/10
f 17/26/11 21/24/11 22/25/11
f 18/27/11 21/24/11 17/26/11
f 25/7/6 24/8/6 23/10/6
f 29/8/5 28/7/5 27/10/5
f 34/28/12 32/29/12 33/30/12
f 37/31/7 36/32/7 35/33/7
f 36/32/13 32/29/13 34/28/13
f 38/34/13 32/29/13 36/32/13
f 33/30/8 37/31/8 35/33/8
f 31/35/8 37/31/8 33/30/8
s 1
f 41/1/1 40/2/2 39/3/2
f 42/4/3 40/2/2 41/1/1
f 43/5/4 42/4/3 41/1/1
f 44/6/4 42/4/3 43/5/4
s 0
f 25/7/5 24/8/5 26/9/5
f 29/8/6 28/7/6 30/9/6
f 32/12/7 33/11/7 31/14/7
f 38/15/8 34/13/8 32/12/8
f 36/36/8 34/13/8 38/15/8
f 37/17/12 36/36/12 38/15/12
f 31/14/13 35/16/13 37/17/13
f 33/11/13 35/16/13 31/14/13
s 1
f 43/5/4 40/2/2 44/6/4
f 39/3/2 40/2/2 43/5/4
s 0
f 43/18/5 41/19/5 39/20/5
s 1
f 47/37/14 46/38/15 45/39/16
f 48/40/17 46/38/15 47/37/14
f 49/41/18 48/40/17 47/37/14
f 50/42/19 48/40/17 49/41/18
f 51/43/20 50/42/19 49/41/18
f 52/44/21 50/42/19 51/43/20
f 53/45/22 52/44/21 51/43/20
f 56/46/23 55/47/24 54/48/25
f 57/49/26 55/47/24 56/46/23
f 58/50/27 57/49/26 56/46/23
f 61/51/28 60/52/29 59/53/30
f 62/54/31 60/52/29 61/51/28
f 63/55/32 62/54/31 61/51/28
f 64/56/33 63/55/32 61/51/28
f 65/57/34 63/55/32 64/56/33
f 66/58/35 65/57/34 64/56/33
f 51/59/20 54/48/25 53/60/22
f 56/46/23 54/48/25 51/59/20
f 67/61/36 58/50/27 56/46/23
f 68/62/37 58/50/27 67/61/36
f 68/62/37 69/63/38 58/50/27
f 70/64/39 69/63/38 68/62/37
f 70/64/39 59/53/30 69/63/38
f 61/51/28 59/53/30 70/64/39
f 64/56/33 46/38/15 66/58/35
f 45/39/16 46/38/15 64/56/33
f 71/65/5 64/66/33 61/67/28
f 45/68/16 64/66/33 71/65/5
f 47/69/14 45/68/16 71/65/5
f 71/65/5 56/66/23 51/67/20
f 67/68/36 56/66/23 71/65/5
f 68/69/37 67/68/36 71/65/5
f 71/65/5 49/70/18 47/69/14
f 51/71/20 49/70/18 71/65/5
f 71/65/5 70/70/39 68/69/37
f 61/71/28 70/70/39 71/65/5
f 54/72/25 72/73/40 53/74/22
f 73/75/41 72/73/40 54/72/25
f 74/76/42 73/75/41 54/72/25
f 63/72/32 75/73/43 62/74/31
f 76/75/44 75/73/43 63/72/32
f 77/76/45 76/75/44 63/72/32
f 78/77/46 69/72/38 59/78/30
f 79/75/47 69/72/38 78/77/46
f 80/79/48 69/72/38 79/75/47
f 58/74/27 69/72/38 80/79/48
f 81/77/49 48/72/17 50/78/19
f 82/75/50 48/72/17 81/77/49
f 83/79/51 48/72/17 82/75/50
f 46/74/15 48/72/17 83/79/51
f 83/80/51 66/81/35 46/82/15
f 75/80/43 60/81/29 62/82/31
f 80/80/48 57/81/26 58/82/27
f 72/80/40 52/81/21 53/82/22
f 65/78/34 77/76/45 63/72/32
f 55/78/24 74/76/42 54/72/25
f 50/83/19 52/81/21 81/84/49
f 55/83/24 57/81/26 74/84/42
f 59/83/30 60/81/29 78/84/46
f 65/83/34 66/81/35 77/84/45
f 76/85/44 60/86/29 75/87/43
f 84/88/6 60/86/29 76/85/44
f 66/89/35 84/88/6 76/85/44
f 82/90/50 84/88/6 66/89/35
f 83/91/51 82/90/50 66/89/35
f 79/92/47 57/93/26 80/94/48
f 84/88/6 57/93/26 79/92/47
f 60/86/29 84/88/6 79/92/47
f 73/95/41 52/96/21 72/97/40
f 84/88/6 52/96/21 73/95/41
f 57/93/26 84/88/6 73/95/41
f 82/90/50 52/96/21 84/88/6
f 81/98/49 52/96/21 82/90/50
f 77/99/45 66/89/35 76/85/44
f 78/100/46 60/86/29 79/92/47
f 74/101/42 57/93/26 73/95/41
f 87/102/52 86/103/52 85/104/53
f 88/105/54 86/103/52 87/102/52
f 89/106/54 88/105/54 87/102/52
f 90/107/55 88/105/54 89/106/54
f 91/108/55 90/107/55 89/106/54
f 92/109/53 90/107/55 91/108/55
f 85/104/53 92/109/53 91/108/55
f 86/103/52 92/109/53 85/104/53
f 95/102/52 94/103/52 93/104/53
f 96/105/54 94/103/52 95/102/52
f 97/106/54 96/105/54 95/102/52
f 98/107/55 96/105/54 97/106/54
f 99/108/55 98/107/55 97/106/54
f 100/109/53 98/107/55 99/108/55
f 93/104/53 100/109/53 99/108/55
f 94/103/52 100/109/53 93/104/53
f 103/110/56 102/111/57 101/112/58
f 104/113/59 102/111/57 103/110/56
f 105/114/60 104/113/59 103/110/56
f 106/115/61 104/113/59 105/114/60
f 107/116/62 106/115/61 105/114/60
f 108/117/63 106/115/61 107/116/62
f 109/118/64 108/117/63 107/116/62
f 110/119/65 108/117/63 109/118/64
f 111/120/66 110/119/65 109/118/64
f 102/111/57 110/119/65 111/120/66
f 112/121/67 102/111/57 111/120/66
f 101/112/58 102/111/57 112/121/67
f 113/122/68 109/118/64 107/116/62
f 111/120/66 109/118/64 113/122/68
f 112/121/67 111/120/66 113/122/68
f 114/123/69 113/122/68 107/116/62
f 112/121/67 113/122/68 114/123/69
f 101/112/58 112/121/67 114/123/69
f 105/114/60 114/123/69 107/116/62
f 103/110/56 114/123/69 105/114/60
f 106/124/61 110/119/65 104/125/59
f 108/117/63 110/119/65 106/115/61
f 104/113/59 110/119/65 102/111/57
f 114/123/69 103/110/56 101/112/58
f 117/110/56 116/111/57 115/112/58
f 118/113/59 116/111/57 117/110/56
f 119/114/60 118/113/59 117/110/56
f 120/115/61 118/113/59 119/114/60
f 121/116/70 120/115/61 119/114/60
f 122/117/63 120/115/61 121/116/70
f 123/118/64 122/117/63 121/116/70
f 124/119/65 122/117/63 123/118/64
f 125/120/66 124/119/65 123/118/64
f 116/111/57 124/119/65 125/120/66
f 126/121/67 116/111/57 125/120/66
f 115/112/58 116/111/57 126/121/67
f 127/122/68 123/118/64 121/116/70
f 125/120/66 123/118/64 127/122/68
f 126/121/67 125/120/66 127/122/68
f 128/126/69 127/122/68 121/116/70
f 126/121/67 127/122/68 128/126/69
f 115/112/58 126/121/67 128/126/69
f 119/114/60 128/126/69 121/116/70
f 117/110/56 128/126/69 119/114/60
f 120/127/61 124/119/65 118/128/59
f 122/117/63 124/119/65 120/115/61
f 118/113/59 124/119/65 116/111/57
f 128/126/69 117/110/56 115/112/58
f 131/129/71 130/130/72 129/131/73
f 132/132/74 130/130/72 131/129/71
f 133/133/75 132/132/74 131/129/71
f 134/134/76 132/132/74 133/133/75
f 135/135/77 134/134/76 133/133/75
f 136/136/78 134/134/76 135/135/77
f 137/137/79 136/136/78 135/135/77
f 138/138/80 136/136/78 137/137/79
f 141/139/81 140/140/82 139/141/83
f 142/142/84 140/140/82 141/139/81
f 143/139/85 142/142/84 141/139/81
f 144/142/86 142/142/84 143/139/85
f 145/141/87 144/142/86 143/139/85
f 146/140/88 144/142/86 145/141/87
f 149/143/89 148/144/90 147/145/91
f 150/146/92 148/144/90 149/143/89
f 151/145/93 150/146/92 149/143/89
f 152/144/94 150/146/92 151/145/93
f 147/145/91 152/144/94 151/145/93
f 148/144/90 152/144/94 147/145/91
f 155/147/78 154/148/77 153/149/95
f 156/150/75 154/148/77 155/147/78
f 157/151/76 156/150/75 155/147/78
f 158/152/96 156/150/75 157/151/76
f 137/153/79 129/154/73 159/155/97
f 131/156/71 129/154/73 137/153/79
f 135/157/77 131/156/71 137/153/79
f 133/158/75 131/156/71 135/157/77
f 132/159/74 160/160/98 130/161/72
f 138/162/80 160/160/98 132/159/74
f 134/163/76 138/162/80 132/159/74
f 136/164/78 138/162/80 134/163/76
f 153/149/95 162/165/99 161/166/100
f 163/167/101 162/165/99 153/149/95
f 154/148/77 163/167/101 153/149/95
f 158/152/96 165/168/102 164/169/103
f 166/170/104 165/168/102 158/152/96
f 157/151/76 166/170/104 158/152/96
f 168/171/105 139/172/83 167/173/106
f 145/174/87 139/172/83 168/171/105
f 140/175/82 167/176/106 139/177/83
f 169/178/107 167/176/106 140/175/82
f 140/179/82 170/178/108 169/180/107
f 146/175/88 170/178/108 140/179/82
f 145/177/87 170/178/108 146/175/88
f 168/176/105 170/178/108 145/177/87
f 170/178/108 167/176/106 169/178/107
f 168/176/105 167/176/106 170/178/108
f 143/181/85 139/182/83 145/183/87
f 141/184/81 139/182/83 143/181/85
f 142/185/84 146/140/88 140/186/82
f 144/142/86 146/140/88 142/185/84
f 165/187/102 162/188/99 164/189/103
f 161/190/100 162/188/99 165/187/102
f 165/191/102 153/192/95 161/193/100
f 166/194/104 153/192/95 165/191/102
f 162/195/99 158/196/96 164/197/103
f 163/198/101 158/196/96 162/195/99
f 155/199/78 166/194/104 157/200/76
f 153/192/95 166/194/104 155/199/78
f 156/201/75 163/198/101 154/202/77
f 158/196/96 163/198/101 156/201/75
f 160/203/98 137/137/79 159/204/97
f 138/138/80 137/137/79 160/203/98
f 130/205/72 159/206/97 129/207/73
f 160/208/98 159/206/97 130/205/72
f 173/144/109 172/143/110 171/145/109
f 174/146/110 172/143/110 173/144/109
f 174/146/110 175/145/111 172/143/110
f 176/144/111 175/145/111 174/146/110
f 175/145/111 173/144/109 171/145/109
f 176/144/111 173/144/109 175/145/111
s 0
f 180/209/5 178/210/5 179/211/5
f 182/212/5 180/209/5 181/213/5
f 183/214/5 182/212/5 181/213/5
f 184/215/5 182/212/5 183/214/5
f 185/216/112 184/215/112 183/214/112
f 186/217/113 184/215/113 185/216/113
f 181/218/6 179/219/6 180/220/6
f 187/221/6 181/218/6 180/220/6
f 183/222/6 181/218/6 187/221/6
f 188/223/6 183/222/6 187/221/6
f 185/224/114 183/222/114 188/223/114
f 186/225/115 185/224/115 188/223/115
f 193/226/5 191/227/5 192/228/5
f 195/229/5 194/230/5 193/226/5
f 195/231/6 196/232/6 193/233/6
f 197/234/6 196/232/6 195/231/6
f 198/235/6 197/234/6 195/231/6
f 178/236/6 200/237/6 199/238/6
f 177/239/6 200/237/6 178/236/6
f 179/219/6 177/239/6 178/236/6
s 1
f 202/240/116 189/241/116 190/242/116
s 0
f 201/243/117 189/241/117 202/240/117
f 190/244/5 191/227/5 189/241/5
f 192/228/5 191/227/5 190/244/5
f 194/245/6 193/233/6 191/246/6
f 199/247/6 204/248/6 203/249/6
f 200/216/5 199/217/5 204/240/5
f 204/216/5 198/243/5 197/240/5
f 203/217/6 204/250/6 198/251/6
