# Blender 4.1.1
# www.blender.org
mtllib polygon774.mtl
o polygon774
v 5628.393066 -1114.878052 -95.657043
v 5586.689941 -1124.588013 -106.618568
v 5638.572266 -1164.477051 -96.785591
v 5604.482910 -1187.072021 -106.818550
v 5639.821289 -1197.311035 -95.582787
v 5601.415039 -1233.577881 -106.618553
v 5635.826660 -1250.802002 -95.725166
v 5596.811035 -1303.337036 -106.618538
v 5629.183105 -1428.092896 -91.287079
v 5592.591309 -1367.283081 -106.618538
v 5626.301270 -1470.182129 -91.326340
v 5589.139160 -1419.602905 -106.818520
v 5624.634766 -1506.406006 -91.184204
v 5573.795410 -1652.134033 -106.618500
v 5615.839844 -1659.443115 -90.560860
v 5596.197266 -1786.674072 -93.281166
v 5201.534180 -444.724609 -129.684433
v 5414.242188 -708.710144 -131.674698
v 5462.141602 -687.203796 -106.618607
v 5463.248535 -873.576416 -130.719391
v 5533.312500 -937.137878 -106.618591
v 5488.567871 -958.646729 -130.211487
v 5568.897461 -1062.105103 -106.618561
v 5525.591309 -1083.029053 -119.495674
v 5541.232910 -1134.039917 -119.203865
v 5554.167480 -1185.469971 -119.814651
v 5555.442383 -1224.266113 -118.660049
v 5553.523438 -1283.166016 -118.151337
v 5550.092773 -1359.429077 -119.118332
v 5546.670898 -1412.136963 -119.101830
v 5541.687500 -1457.005127 -120.353622
v 5531.062500 -1647.242920 -119.129593
v 5521.523438 -1741.489990 -122.002884
v 5078.627441 -3950.771240 -36.782528
v 5147.871094 -3824.280029 -42.475544
v 5044.556152 -3917.095215 -61.214153
v 5184.845215 -3661.354248 -61.214180
v 5077.475586 -3770.815186 -91.998329
v 5325.132812 -3405.612061 -61.214214
v 5292.381348 -3386.087158 -89.486282
v 5423.679199 -2987.157227 -126.559639
v 4973.500000 -4037.181152 -17.534519
v 4846.822266 -4102.288086 -13.784513
v 4857.452148 -4113.661133 -11.839989
v 4593.465332 -4232.503418 -6.184112
v 4811.016113 -4170.166016 -6.295344
v 4604.039062 -4365.483398 -6.184096
v 5221.464355 -3688.258057 -42.842564
v 5275.409180 -3589.201172 -46.407574
v 5362.252441 -3427.809570 -46.831249
v 5394.609863 -3320.355225 -53.533607
v 5013.383301 -3889.381104 -93.216530
v 4670.423340 -4139.496094 -43.942177
v 4819.011230 -4074.799072 -33.699131
v 5478.509766 -3050.177002 -75.241638
v 5528.938477 -2886.458008 -91.860634
v 5504.119141 -2878.076172 -106.618256
v 5569.652344 -2739.384033 -87.739868
v 5571.929199 -2530.851074 -107.118401
v 5611.960938 -2536.939941 -86.378342
v 5592.440918 -2420.394043 -94.697388
v 5185.732422 -269.964783 -103.154976
v 5142.516113 -300.019287 -106.618660
v 5450.556152 -590.748291 -103.154327
v 5515.937500 -685.545288 -100.719009
v 5577.625977 -903.183105 -100.749886
v 5445.687500 -3156.981201 -69.215637
v 5414.625977 -3141.844238 -83.916229
v 5458.246582 -2873.075195 -130.296555
v 5528.969727 -2576.011230 -123.872894
v 5534.511230 -2527.265137 -123.176399
v 5532.549805 -2486.759033 -121.580391
v 5529.866211 -2448.145020 -119.093910
v 5503.323242 -2084.456055 -106.618446
v 5469.301270 -2147.029053 -125.166534
v 5455.585449 -2079.739990 -126.409355
v 5544.424316 -2091.653076 -93.900337
v 5099.883301 -317.951691 -116.632256
v 5592.141113 -975.441833 -94.805931
v 5615.578125 -1067.559082 -95.494499
v 4908.112305 -4090.854248 -12.925372
v 4867.449707 -4124.068359 -10.148878
v 4065.552002 -4409.954102 -1.184090
v 3966.159912 -4284.469727 -1.184105
v 4552.284180 -4182.852051 -19.172052
v 2382.435059 -5263.256348 -1218.999390
v 2368.433105 -5222.032715 -1219.499390
v 2204.728027 -5260.027344 -1218.999390
v 2218.285156 -5222.032715 -1219.499390
v 2198.315186 -5251.649902 -1218.999390
v 2389.326172 -5255.416504 -1218.999390
v 5037.794434 -4105.184082 -6.184126
v 4894.972168 -4214.112793 -6.184113
v 5185.904297 -4062.743896 -6.184132
v 5275.387207 -4164.496094 -6.184120
v 5369.166016 -3797.434082 -6.184164
v 5485.808105 -3892.057129 -6.184152
v 5696.229004 -3619.618896 -6.184185
v 5915.947266 -3740.942139 0.000446
v 5864.002441 -3342.483887 -6.184217
v 6266.672363 -3152.288086 0.000376
v 6031.774414 -3065.349854 -6.184251
v 6164.638184 -2625.282227 -6.184303
v 5796.875977 -2978.412109 -6.184260
v 5917.398438 -2579.221191 -6.184309
v 3966.159912 -4284.469727 0.000511
v 4065.552002 -4409.954102 0.000526
v 4939.713379 -4264.989258 -6.184108
v 4592.387207 -4591.719238 0.000547
v 5395.542480 -4298.859375 0.000512
v 6900.960938 -825.978760 0.000098
v 6676.527344 -715.846863 -6.184531
v 6774.569336 -1083.821045 0.000129
v 6545.025391 -984.111450 -6.184498
v 6428.014648 -1291.424072 -6.184462
v 6315.480957 -884.402222 -6.184510
v 6190.417480 -1212.864990 -6.184472
v 6411.877441 -2671.343018 0.000318
v 6446.215332 -2215.355225 0.000264
v 6198.319824 -2178.004150 -6.184356
v 6283.583496 -1803.638062 -6.184401
v 5950.424805 -2140.653076 -6.184361
v 6665.612305 -1369.982910 0.000163
v 6525.928223 -1865.359985 0.000222
v 6041.239258 -1741.916016 -6.184409
v 5674.652344 -3255.268066 -6.184227
v 4230.378418 -4529.616211 0.000540
v 4889.685059 -4147.624023 -6.184122
v 5552.428223 -3532.124268 -6.184195
v 6452.092285 -605.715027 -6.184544
vn 0.2590 0.0378 -0.9651
vn 0.2462 0.0719 -0.9665
vn 0.2381 0.0709 -0.9686
vn 0.2645 0.0162 -0.9643
vn 0.2957 -0.0226 -0.9550
vn 0.2719 -0.0194 -0.9621
vn 0.2969 -0.0225 -0.9547
vn 0.2865 -0.0205 -0.9579
vn 0.3492 -0.0245 -0.9367
vn 0.3164 -0.0202 -0.9484
vn 0.3601 -0.0207 -0.9327
vn 0.3200 -0.0171 -0.9473
vn 0.3542 -0.0235 -0.9349
vn 0.3203 -0.0245 -0.9470
vn 0.3522 -0.0294 -0.9355
vn 0.2947 -0.0455 -0.9545
vn 0.2261 0.1112 -0.9677
vn 0.3802 0.2041 -0.9021
vn 0.3235 0.2762 -0.9050
vn 0.4178 0.1190 -0.9007
vn 0.2928 0.0647 -0.9540
vn 0.4022 0.1049 -0.9095
vn 0.2637 0.0585 -0.9628
vn 0.2670 0.0400 -0.9629
vn 0.2519 0.0732 -0.9650
vn 0.2509 0.0319 -0.9675
vn 0.2498 -0.0188 -0.9681
vn 0.2531 -0.0100 -0.9674
vn 0.2745 -0.0144 -0.9615
vn 0.2771 -0.0104 -0.9608
vn 0.2849 -0.0158 -0.9584
vn 0.2798 -0.0107 -0.9600
vn 0.3642 -0.0530 -0.9298
vn 0.3871 -0.2518 -0.8870
vn 0.4652 -0.2552 -0.8476
vn 0.3311 -0.1816 -0.9259
vn 0.4277 -0.2346 -0.8729
vn 0.5224 -0.2866 -0.8031
vn 0.5415 -0.2527 -0.8018
vn 0.1980 -0.4364 -0.8777
vn 0.1984 -0.4366 -0.8775
vn 0.0390 -0.1329 -0.9904
vn 0.0387 -0.1331 -0.9903
vn 0.0358 -0.1267 -0.9913
vn -0.0005 -0.0000 -1.0000
vn 0.3146 -0.2047 -0.9269
vn 0.2757 -0.1512 -0.9493
vn 0.2770 -0.1516 -0.9488
vn 0.2815 -0.1439 -0.9487
vn 0.5488 -0.2886 -0.7845
vn 0.2969 -0.5596 -0.7738
vn 0.2971 -0.5598 -0.7735
vn 0.1977 -0.4360 -0.8780
vn 0.4522 -0.1597 -0.8775
vn 0.4411 -0.2241 -0.8691
vn 0.4396 -0.2240 -0.8698
vn 0.4807 -0.1087 -0.8701
vn 0.4452 -0.0875 -0.8911
vn 0.4432 -0.0877 -0.8921
vn 0.4477 -0.0876 -0.8899
vn 0.4616 0.0140 -0.8870
vn 0.0598 0.0430 -0.9973
vn 0.1210 0.1442 -0.9821
vn 0.0508 0.0419 -0.9978
vn 0.1078 0.0371 -0.9935
vn 0.1298 0.0020 -0.9915
vn 0.3567 -0.1615 -0.9201
vn 0.4915 -0.2389 -0.8375
vn 0.5283 -0.2407 -0.8142
vn 0.4438 -0.1281 -0.8869
vn 0.4408 -0.0873 -0.8933
vn 0.3916 -0.0314 -0.9196
vn 0.3982 0.0554 -0.9156
vn 0.4284 0.0877 -0.8993
vn 0.3438 -0.0008 -0.9390
vn 0.3452 0.0541 -0.9370
vn 0.3801 0.0594 -0.9230
vn 0.3898 0.0605 -0.9189
vn 0.3826 -0.0040 -0.9239
vn 0.3110 0.0488 -0.9492
vn 0.2962 0.0040 -0.9551
vn 0.1386 0.2108 -0.9677
vn 0.2212 0.0392 -0.9744
vn 0.2388 0.0680 -0.9687
vn 0.0378 -0.1311 -0.9906
vn -0.0077 -0.0053 -1.0000
vn -0.0008 -0.0951 -0.9955
vn -0.0092 -0.0007 -1.0000
vn -0.0058 -0.0262 -0.9996
vn 0.0124 -0.2434 -0.9699
vn -0.0824 -0.3156 -0.9453
vn 0.3405 -0.1947 -0.9199
vn 0.3407 -0.1947 -0.9198
vn -0.0052 -0.0112 -0.9999
vn 0.0009 -0.0119 -0.9999
vn 0.0045 -0.0106 -0.9999
vn -0.0014 -0.0127 -0.9999
vn -0.0117 -0.0090 -0.9999
vn 0.0100 -0.0087 -0.9999
vn -0.0000 -0.0000 -1.0000
vn 0.0116 -0.0168 -0.9998
vn 0.0110 -0.0096 -0.9999
vn 0.0106 -0.0073 -0.9999
vn 0.0206 -0.0152 -0.9997
vn 0.0061 -0.0037 -1.0000
vn 0.0214 -0.0127 -0.9997
vn 0.0122 -0.0055 -0.9999
vn 0.0227 -0.0097 -0.9997
vn 0.0034 -0.0010 -1.0000
vn -0.0111 -0.0019 -0.9999
vn -0.0097 -0.0085 -0.9999
vn -0.0093 -0.0073 -0.9999
vn -0.0017 -0.0142 -0.9999
vn 0.0042 -0.0139 -0.9999
vn 0.0015 -0.0279 -0.9996
vn 0.0197 -0.0270 -0.9994
vn 0.0222 -0.0109 -0.9997
vn 0.0110 -0.0048 -0.9999
vn 0.0070 -0.0034 -1.0000
vn 0.0228 -0.0095 -0.9997
vn 0.0114 -0.0038 -0.9999
vn 0.0237 -0.0071 -0.9997
vn 0.0247 -0.0019 -0.9997
vn 0.0241 -0.0055 -0.9997
vn 0.0029 -0.0008 -1.0000
vn 0.0234 -0.0079 -0.9997
vn 0.0238 -0.0067 -0.9997
vn -0.0091 -0.0170 -0.9998
vt 0.539673 1.000000
vt 0.559692 0.000000
vt 0.562134 1.000000
vt 0.531250 0.000000
vt 0.524658 1.000000
vt 0.510132 0.000000
vt 0.500244 1.000000
vt 0.478394 0.000000
vt 0.419556 1.000000
vt 0.449219 0.000000
vt 0.400635 1.000000
vt 0.425415 0.000000
vt 0.384155 1.000000
vt 0.319702 0.000000
vt 0.314331 1.000000
vt 0.256348 1.000000
vt 0.758789 0.000000
vt 0.747559 1.000000
vt 0.867432 1.000000
vt 0.671997 1.000000
vt 0.645020 0.000000
vt 0.633545 1.000000
vt 0.588135 0.000000
vt 0.576050 1.000000
vt 0.553223 1.000000
vt 0.530151 1.000000
vt 0.512573 1.000000
vt 0.486084 1.000000
vt 0.451172 1.000000
vt 0.426880 1.000000
vt 0.406494 1.000000
vt 0.319946 1.000000
vt 0.283814 1.000000
vt -0.711060 0.000000
vt -0.670410 1.000000
vt -0.728516 1.000000
vt -0.594604 0.000000
vt -0.646484 1.000000
vt -0.478272 0.000000
vt -0.471314 1.000000
vt -0.289795 1.000000
vt -0.767456 1.000000
vt -0.796631 0.665771
vt -0.802124 0.838989
vt -0.854858 0.000000
vt -0.828125 1.000000
vt -0.916992 1.000000
vt -0.609375 1.000000
vt -0.563599 1.000000
vt -0.490356 1.000000
vt -0.441772 1.000000
vt -0.700317 1.000000
vt -0.813965 1.000000
vt -0.782959 0.000000
vt -0.238281 0.000000
vt -0.244019 1.000000
vt -0.320068 1.000000
vt -0.177124 1.000000
vt -0.080200 0.000000
vt -0.084961 1.000000
vt -0.031860 1.000000
vt 0.800659 1.000000
vt 0.934937 0.000000
vt 0.946777 1.000000
vt 0.757324 1.000000
vt 0.658569 1.000000
vt -0.358276 0.000000
vt -0.367188 1.000000
vt -0.238037 1.000000
vt -0.102783 1.000000
vt -0.080566 1.000000
vt -0.066284 1.000000
vt -0.053101 1.000000
vt 0.122925 0.000000
vt 0.092163 1.000000
vt 0.122803 1.000000
vt 0.117676 1.000000
vt 0.923828 1.000000
vt 0.625610 1.000000
vt 0.583740 1.000000
vt -0.791992 1.000000
vt -0.807129 1.000000
vt -0.937256 1.000000
vt -0.878662 1.000000
vt -0.833862 1.000000
vt 0.326050 0.000000
vt 1.604980 1.000000
vt 1.714355 0.000000
vt 0.431885 1.000000
vt 0.275879 0.000000
vt 1.768188 0.000000
vt -0.117065 0.000000
vt -0.339233 0.150024
vt -0.228149 0.000000
vt -0.055298 0.300049
vt 0.009277 0.000000
vt 0.089722 0.300049
vt 0.234741 0.300049
vt 0.475464 1.000000
vt 0.350464 0.300049
vt 0.717285 1.000000
vt 0.466065 0.300049
vt 0.557617 0.300049
vt 0.304199 0.000000
vt 0.387207 0.000000
vt -0.561523 0.000000
vt -0.561523 1.000000
vt -0.561523 0.300049
vt -0.308350 0.300049
vt 0.116821 1.000000
vt 0.948364 1.000000
vt 0.859131 0.300049
vt 0.819824 0.300049
vt 0.739258 0.300049
vt 0.661621 0.000000
vt 0.575440 0.000000
vt 0.817383 1.000000
vt 0.841065 1.000000
vt 0.580933 0.300049
vt 0.639648 0.300049
vt 0.410034 0.000000
vt 0.895996 1.000000
vt 0.472534 0.000000
vt 0.219849 0.000000
vt -0.339233 0.000000
vt 0.135620 0.000000
vt 0.755859 0.000000
s 1
usemtl mt_suna_blend.003
f 3/1/1 2/2/2 1/3/3
f 4/4/4 2/2/2 3/1/1
f 5/5/5 4/4/4 3/1/1
f 6/6/6 4/4/4 5/5/5
f 7/7/7 6/6/6 5/5/5
f 8/8/8 6/6/6 7/7/7
f 9/9/9 8/8/8 7/7/7
f 10/10/10 8/8/8 9/9/9
f 11/11/11 10/10/10 9/9/9
f 12/12/12 10/10/10 11/11/11
f 13/13/13 12/12/12 11/11/11
f 14/14/14 12/12/12 13/13/13
f 15/15/15 14/14/14 13/13/13
f 16/16/16 14/14/14 15/15/15
f 19/17/17 18/18/18 17/19/19
f 20/20/20 18/18/18 19/17/17
f 21/21/21 20/20/20 19/17/17
f 22/22/22 20/20/20 21/21/21
f 23/23/23 22/22/22 21/21/21
f 24/24/24 22/22/22 23/23/23
f 2/2/2 24/24/24 23/23/23
f 25/25/25 24/24/24 2/2/2
f 4/4/4 25/25/25 2/2/2
f 26/26/26 25/25/25 4/4/4
f 27/27/27 26/26/26 4/4/4
f 6/6/6 27/27/27 4/4/4
f 28/28/28 27/27/27 6/6/6
f 8/8/8 28/28/28 6/6/6
f 29/29/29 28/28/28 8/8/8
f 10/10/10 29/29/29 8/8/8
f 30/30/30 29/29/29 10/10/10
f 12/12/12 30/30/30 10/10/10
f 31/31/31 30/30/30 12/12/12
f 14/14/14 31/31/31 12/12/12
f 32/32/32 31/31/31 14/14/14
f 33/33/33 32/32/32 14/14/14
s 0
f 36/34/34 35/35/34 34/36/34
s 1
f 37/37/35 35/35/36 36/34/37
f 38/38/38 37/37/35 36/34/37
f 39/39/38 37/37/35 38/38/38
f 40/40/38 39/39/38 38/38/38
s 0
f 41/41/39 39/39/39 40/40/39
f 42/42/40 36/34/40 34/36/40
f 43/43/41 36/34/41 42/42/41
f 44/44/42 43/43/42 42/42/42
f 45/45/43 43/43/43 44/44/43
f 46/46/44 45/45/44 44/44/44
f 47/47/45 45/45/45 46/46/45
s 1
f 37/37/35 48/48/36 35/35/36
s 0
f 49/49/46 48/48/46 37/37/46
f 39/39/47 49/49/47 37/37/47
f 50/50/48 49/49/48 39/39/48
f 51/51/49 50/50/49 39/39/49
f 36/34/50 52/52/50 38/38/50
f 53/53/51 52/52/51 36/34/51
f 54/54/52 53/53/52 36/34/52
f 45/45/52 53/53/52 54/54/52
f 43/43/53 45/45/53 54/54/53
s 1
f 57/55/54 56/56/55 55/57/56
s 0
f 58/58/57 56/56/57 57/55/57
s 1
f 59/59/58 58/58/59 57/55/54
f 60/60/60 58/58/59 59/59/58
s 0
f 61/61/61 60/60/61 59/59/61
s 1
f 64/62/62 63/63/63 62/64/64
f 19/17/17 63/63/63 64/62/62
f 65/65/65 19/17/17 64/62/62
f 66/66/66 19/17/17 65/65/65
s 0
f 68/67/67 55/57/67 67/68/67
s 1
f 57/55/54 55/57/56 68/67/68
f 41/41/69 57/55/54 68/67/68
f 69/69/70 57/55/54 41/41/69
f 70/70/71 57/55/54 69/69/70
f 59/59/58 57/55/54 70/70/71
s 0
f 71/71/72 59/59/72 70/70/72
f 72/72/73 59/59/73 71/71/73
f 73/73/74 59/59/74 72/72/74
s 1
f 74/74/75 59/59/76 73/73/77
f 75/75/78 74/74/75 73/73/77
f 76/76/79 74/74/75 75/75/78
f 74/74/75 61/61/80 59/59/76
f 77/77/81 61/61/80 74/74/75
f 16/16/16 77/77/81 74/74/75
f 74/74/75 14/14/14 16/16/16
f 33/33/33 14/14/14 74/74/75
f 76/76/79 33/33/33 74/74/75
f 63/63/63 17/19/19 78/78/82
f 19/17/17 17/19/19 63/63/63
f 66/66/66 21/21/21 19/17/17
f 79/79/83 21/21/21 66/66/66
f 79/79/83 23/23/23 21/21/21
f 80/80/84 23/23/23 79/79/83
f 80/80/84 2/2/2 23/23/23
s 0
f 1/3/84 2/2/84 80/80/84
f 81/81/85 44/44/85 42/42/85
f 82/82/44 44/44/44 81/81/44
s 1
f 83/83/86 45/45/87 47/47/88
f 84/84/89 45/45/87 83/83/86
f 85/85/90 45/45/87 84/84/89
s 0
f 53/53/91 45/45/91 85/85/91
f 51/51/92 68/67/92 67/68/92
f 39/39/93 68/67/93 51/51/93
f 82/82/44 46/46/44 44/44/44
f 36/34/53 43/43/53 54/54/53
f 41/41/39 68/67/39 39/39/39
s 1
f 88/86/94 87/87/95 86/88/96
f 89/89/97 87/87/95 88/86/94
f 88/86/94 90/90/98 89/89/97
f 91/91/99 86/88/96 87/87/95
s 0
f 94/92/100 93/93/100 92/94/100
s 1
f 95/95/101 93/93/100 94/92/100
f 96/96/100 95/95/101 94/92/100
f 97/97/102 95/95/101 96/96/100
f 98/98/103 97/97/102 96/96/100
f 99/99/104 97/97/102 98/98/103
f 100/100/105 99/99/104 98/98/103
s 0
f 101/101/106 99/99/106 100/100/106
s 1
f 102/102/107 101/101/108 100/100/105
f 103/103/109 101/101/108 102/102/107
f 104/104/100 103/103/109 102/102/107
f 105/105/100 103/103/109 104/104/100
f 45/106/110 107/107/111 106/107/112
f 47/108/113 107/107/111 45/106/110
f 93/93/100 47/108/113 45/106/100
f 108/109/114 47/108/113 93/93/100
f 95/95/101 108/109/114 93/93/100
f 109/107/115 108/109/114 95/95/101
f 110/110/116 109/107/115 95/95/101
s 0
f 113/111/117 112/112/117 111/111/117
s 1
f 114/113/118 112/112/119 113/111/120
f 115/114/121 114/113/118 113/111/120
f 116/115/100 114/113/118 115/114/121
f 117/116/100 116/115/100 115/114/121
s 0
f 103/103/122 118/117/122 101/101/122
f 119/118/123 118/117/123 103/103/123
f 120/119/123 119/118/123 103/103/123
f 121/120/124 119/118/124 120/119/124
s 1
f 122/121/100 121/120/125 120/119/100
f 123/111/126 115/114/121 113/111/120
f 121/120/125 115/114/121 123/111/126
s 0
f 124/122/127 121/120/127 123/111/127
f 119/118/124 121/120/124 124/122/124
s 1
f 121/120/125 117/116/100 115/114/121
f 125/123/100 117/116/100 121/120/125
f 122/121/100 125/123/100 121/120/125
f 126/124/100 100/100/105 98/98/103
f 102/102/107 100/100/105 126/124/100
f 104/104/100 102/102/107 126/124/100
f 109/107/115 47/108/113 108/109/114
f 127/107/128 47/108/113 109/107/115
s 0
f 128/125/100 93/93/100 45/106/100
f 92/94/100 93/93/100 128/125/100
s 1
f 110/110/116 97/97/102 99/99/104
f 95/95/101 97/97/102 110/110/116
f 129/126/100 98/98/103 96/96/100
f 126/124/100 98/98/103 129/126/100
f 105/105/100 120/119/100 103/103/109
f 122/121/100 120/119/100 105/105/100
f 130/127/100 114/113/118 116/115/100
f 112/112/119 114/113/118 130/127/100
f 127/107/128 107/107/111 47/108/113
