# Blender 4.1.1
# www.blender.org
mtllib polygon0.188.mtl
o Fountain
v -10.831600 -10.702391 -8.904372
v 0.009277 -22.718752 -15.910097
v -15.673429 -15.474611 -15.910098
v 0.009277 -34.417294 -24.061924
v -23.754957 -23.439331 -24.061924
v -33.467659 -33.012424 -28.245806
v -6.623169 -6.553955 0.000001
v 0.009308 -9.618408 0.000001
v 0.009308 -15.710449 -8.904371
v 23.773769 -23.439331 -24.061924
v 34.911598 -0.017581 -24.061928
v 33.486488 -33.012424 -28.245806
v 49.176487 -0.016724 -28.245810
v 61.119648 -0.016680 -22.444157
v 23.773689 23.404625 -24.061932
v 33.486378 32.976765 -28.245813
v 41.618370 40.991909 -22.444164
v 0.009334 34.382126 -24.061932
v 0.009335 48.441730 -28.245817
v 0.009333 60.212898 -22.444164
v 0.009335 -48.477398 -28.245804
v 41.618481 -41.027557 -22.444151
v -23.754869 23.404625 -24.061932
v -33.467579 32.976765 -28.245813
v -41.599380 40.991909 -22.444164
v -34.893078 -0.017581 -24.061928
v -49.157845 -0.016724 -28.245810
v -61.101154 -0.016680 -22.444157
v -41.599609 -41.027557 -22.444151
v 0.009333 -60.248543 -22.444149
v 59.360668 58.479485 6.029166
v 51.100727 50.338074 -10.943935
v 0.009531 85.895561 6.029163
v 0.009498 73.938919 -10.943937
v -59.341469 58.479485 6.029166
v -51.081669 50.338074 -10.943935
v -87.158920 -0.016483 6.029173
v -75.027847 -0.016568 -10.943930
v -59.341747 -58.515137 6.029180
v -51.081947 -50.373730 -10.943923
v 51.100887 -50.373730 -10.943923
v 75.046341 -0.016568 -10.943930
v 0.009350 -95.110397 26.772541
v 0.009347 -85.931198 6.029183
v 65.702011 -64.765457 26.772533
v 59.360813 -58.515137 6.029180
v 0.009341 -73.974586 -10.943921
v 9.750458 -0.017822 0.000000
v 15.931059 -0.017579 -8.904373
v 6.641968 -6.553955 0.000001
v 10.850220 -10.702391 -8.904372
v 23.042328 -0.017580 -15.910100
v 15.692169 -15.474611 -15.910098
v 6.641936 6.518311 -0.000001
v 10.850220 10.666750 -8.904374
v 15.692140 15.439208 -15.910102
v 96.490509 -0.016450 26.772530
v 87.177422 -0.016483 6.029173
v 0.009308 9.582764 -0.000001
v 0.009308 15.674799 -8.904374
v 0.009277 22.684076 -15.910102
v 65.701866 64.729828 26.772524
v -6.623169 6.518311 -0.000001
v -10.831449 10.666750 -8.904374
v -9.731720 -0.017822 0.000000
v -15.912509 -0.017579 -8.904373
v -65.682831 -64.765457 26.772533
v 0.009555 95.074768 26.772516
v -15.673399 15.439208 -15.910102
v -65.682556 64.729828 26.772524
v -23.023710 -0.017580 -15.910100
v -96.472008 -0.016450 26.772530
v -4.672699 -4.632324 2.352586
v 0.009308 -6.795409 2.352586
v -15.356350 -15.162603 -29.563335
v 0.009308 -22.261230 -29.563335
v 0.009308 -31.630863 -35.604893
v -21.829800 -21.543463 -35.604897
v 0.009247 -45.864754 -39.121727
v -31.662600 -31.233892 -39.121723
v 6.885498 -0.017334 2.352585
v 22.576630 -0.017582 -29.563339
v 4.690857 -4.632324 2.352586
v 15.375089 -15.162603 -29.563335
v 32.083797 -0.017582 -35.604900
v 21.848539 -21.543463 -35.604897
v 4.691193 4.596680 2.352585
v 15.375119 15.125975 -29.563343
v 21.848209 21.506836 -35.604900
v 0.009308 6.759767 2.352584
v 0.009308 22.225336 -29.563343
v 0.009247 31.595205 -35.604904
v -4.672791 4.596680 2.352585
v -15.356350 15.125975 -29.563343
v -6.867126 -0.017334 2.352585
v -22.558109 -0.017582 -29.563339
v -21.829800 21.506836 -35.604900
v -32.065731 -0.017582 -35.604900
v 46.525448 -0.017583 -39.121731
v 31.681370 -31.233892 -39.121723
v 31.681059 31.197744 -39.121723
v 0.009247 45.828606 -39.121735
v -31.662449 31.197744 -39.121735
v -46.506809 -0.017583 -39.121731
v 6.885498 -0.018066 2.352982
v 4.691193 -4.632324 2.352983
v 22.576660 -0.017582 -29.563320
v 15.375119 -15.161874 -29.563316
v 32.084080 -0.017582 -35.604885
v 21.848568 -21.542482 -35.604885
v 46.525360 -0.016851 -39.121635
v 31.681370 -31.234133 -39.121632
v 4.691162 4.596680 2.352982
v 15.375059 15.126706 -29.563322
v 21.848507 21.506836 -35.604889
v 31.681087 31.197744 -39.121693
v 0.009277 6.759767 2.352981
v 0.009277 22.224606 -29.563324
v 0.009338 31.594963 -35.604893
v 0.009338 45.828854 -39.121643
v -4.672699 4.596680 2.352982
v -15.356319 15.126706 -29.563322
v -21.829739 21.506836 -35.604889
v -31.662449 31.197998 -39.121643
v -6.866852 -0.018066 2.352982
v -22.558140 -0.017582 -29.563320
v -32.065609 -0.017582 -35.604885
v -46.506767 -0.016851 -39.121635
v -4.672729 -4.632324 2.352983
v -15.356508 -15.161874 -29.563316
v -21.829800 -21.542482 -35.604885
v -31.662539 -31.234133 -39.121632
v 0.009277 -6.795409 2.352983
v 0.009277 -22.260252 -29.563316
v 0.009277 -31.631102 -35.604881
v 0.009338 -45.864498 -39.121632
vn -0.2553 -0.5528 0.7933
vn -0.2554 -0.5528 0.7932
vn -0.3563 -0.7711 0.5277
vn 0.2790 -0.1327 0.9511
vn -0.4278 0.2034 0.8807
vn 0.2789 0.1326 0.9511
vn 0.2790 0.1327 0.9511
vn -0.4278 -0.2034 0.8807
vn 0.1306 0.2828 0.9502
vn 0.1306 -0.2828 0.9503
vn -0.2001 0.4331 0.8788
vn -0.1306 0.2828 0.9502
vn 0.2001 -0.4331 0.8788
vn -0.2790 -0.1327 0.9511
vn 0.4278 0.2034 0.8807
vn 0.2001 0.4331 0.8788
vn -0.3533 -0.7648 0.5388
vn -0.2844 -0.6157 0.7349
vn 0.2844 -0.6157 0.7349
vn 0.6094 -0.2898 0.7380
vn -0.3891 0.8424 0.3728
vn -0.3533 0.7648 0.5388
vn -0.2844 0.6157 0.7349
vn 0.7652 -0.3639 0.5311
vn 0.6657 -0.3166 0.6757
vn 0.7652 0.3639 0.5312
vn 0.7652 0.3639 0.5311
vn 0.6657 0.3166 0.6757
vn 0.5467 0.2600 0.7960
vn -0.8369 0.3980 0.3758
vn -0.8369 0.3980 0.3757
vn 0.3562 0.7712 0.5276
vn 0.3104 0.6720 0.6723
vn 0.2554 0.5528 0.7932
vn 0.3891 0.8424 0.3728
vn 0.2844 0.6157 0.7349
vn 0.3104 -0.6720 0.6723
vn 0.3104 -0.6721 0.6723
vn 0.2553 -0.5528 0.7932
vn 0.2553 -0.5528 0.7933
vn -0.3104 0.6720 0.6723
vn -0.2553 0.5528 0.7932
vn 0.3891 -0.8424 0.3728
vn -0.5467 0.2600 0.7960
vn 0.8369 -0.3980 0.3758
vn 0.8369 -0.3980 0.3757
vn -0.6657 -0.3166 0.6757
vn -0.5467 -0.2600 0.7960
vn 0.8369 0.3980 0.3757
vn -0.7588 0.3608 0.5423
vn -0.7588 -0.3608 0.5423
vn -0.2001 -0.4331 0.8788
vn -0.3839 -0.8310 0.4027
vn -0.2429 -0.5257 0.8153
vn -0.2428 -0.5256 0.8153
vn -0.1101 -0.2384 0.9649
vn 0.8254 -0.3925 0.4058
vn 0.5197 -0.2471 0.8178
vn 0.8254 0.3925 0.4058
vn 0.5197 0.2471 0.8178
vn 0.3839 0.8310 0.4027
vn 0.3839 0.8309 0.4027
vn 0.2429 0.5257 0.8153
vn 0.2428 0.5256 0.8153
vn -0.3839 0.8310 0.4026
vn -0.3839 0.8309 0.4027
vn -0.8254 0.3925 0.4058
vn -0.8254 -0.3925 0.4058
vn 0.3839 -0.8309 0.4027
vn 0.3839 -0.8310 0.4027
vn 0.2428 -0.5256 0.8153
vn 0.2428 -0.5257 0.8153
vn -0.2428 0.5256 0.8153
vn -0.2428 0.5257 0.8153
vn -0.5197 0.2471 0.8178
vn -0.5197 -0.2471 0.8178
vn 0.2351 -0.1118 0.9655
vn 0.2351 0.1118 0.9655
vn 0.1101 0.2384 0.9649
vn -0.1101 0.2384 0.9649
vn -0.2351 0.1118 0.9655
vn -0.2351 -0.1118 0.9655
vn 0.1101 -0.2384 0.9649
vn -0.8254 0.3925 -0.4058
vn -0.5197 0.2471 -0.8178
vn -0.2351 0.1118 -0.9655
vn -0.8254 -0.3925 -0.4058
vn -0.5197 -0.2471 -0.8178
vn -0.2351 -0.1118 -0.9655
vn -0.3839 -0.8310 -0.4026
vn -0.3839 -0.8310 -0.4027
vn -0.2428 -0.5257 -0.8153
vn -0.1101 -0.2384 -0.9649
vn 0.3839 -0.8310 -0.4027
vn 0.3839 -0.8310 -0.4026
vn 0.2428 -0.5257 -0.8153
vn 0.1101 -0.2384 -0.9649
vn 0.8254 -0.3925 -0.4058
vn 0.5197 -0.2471 -0.8178
vn 0.2351 -0.1118 -0.9655
vn 0.8254 0.3925 -0.4058
vn 0.5197 0.2471 -0.8178
vn 0.2351 0.1118 -0.9655
vn -0.3839 0.8310 -0.4027
vn -0.3839 0.8310 -0.4026
vn -0.2428 0.5256 -0.8153
vn -0.1101 0.2384 -0.9649
vn 0.2428 0.5256 -0.8153
vn 0.1101 0.2384 -0.9649
vn 0.3839 0.8310 -0.4027
vn 0.3839 0.8310 -0.4026
vn -0.8369 -0.3980 -0.3758
vn -0.7588 -0.3608 -0.5423
vn -0.6094 -0.2898 -0.7380
vn 0.2790 0.1326 -0.9511
vn 0.6094 -0.2898 -0.7380
vn 0.8369 0.3980 -0.3757
vn 0.8369 0.3980 -0.3758
vn 0.6094 0.2898 -0.7380
vn 0.3891 0.8424 -0.3728
vn 0.3533 0.7648 -0.5388
vn 0.2001 0.4331 -0.8788
vn -0.1306 -0.2828 -0.9502
vn -0.3891 0.8424 -0.3728
vn -0.3533 0.7648 -0.5388
vn -0.2844 0.6157 -0.7349
vn -0.2001 0.4331 -0.8788
vn -0.7588 0.3608 -0.5423
vn -0.4278 0.2034 -0.8807
vn 0.2790 -0.1327 -0.9511
vn 0.3891 -0.8424 -0.3728
vn 0.3533 -0.7648 -0.5388
vn 0.2844 -0.6157 -0.7349
vn 0.2001 -0.4332 -0.8788
vn -0.3891 -0.8424 -0.3728
vn -0.3533 -0.7648 -0.5388
vn -0.2001 -0.4331 -0.8788
vn 0.1306 0.2828 -0.9503
vn 0.3563 -0.7711 -0.5276
vn 0.3563 -0.7712 -0.5276
vn 0.7652 -0.3639 -0.5311
vn 0.6657 -0.3166 -0.6757
vn 0.7651 0.3639 -0.5312
vn 0.7652 0.3639 -0.5311
vn 0.5467 -0.2600 -0.7960
vn 0.5467 0.2600 -0.7960
vn -0.5467 0.2600 -0.7960
vn 0.2554 -0.5528 -0.7933
vn 0.3104 -0.6720 -0.6723
vn -0.7652 0.3639 -0.5311
vn 0.3563 0.7712 -0.5276
vn -0.3563 0.7712 -0.5276
vn -0.5467 -0.2600 -0.7960
vn -0.2553 -0.5528 -0.7933
vn 0.1306 -0.2828 -0.9502
vn 0.3104 0.6720 -0.6723
vn -0.3563 -0.7712 -0.5276
vn -0.3563 0.7711 -0.5276
vn 0.3105 0.6720 -0.6723
vt 0.000244 0.384827
vt 0.000244 0.583313
vt 0.996399 0.583313
vt 0.996399 0.384827
vt 0.996399 0.763123
vt 0.000244 0.999695
vt 0.996399 0.999695
vt 0.996399 0.177490
vt 0.000244 0.177490
vt 0.000244 -0.027649
vt 0.000244 -0.326416
vt 0.996399 -0.326416
vt 0.000244 -0.625794
vt 0.996399 -0.027649
vt 0.000244 -0.998596
vt 0.996399 -0.625794
vt 0.996399 -0.998596
vt 0.000244 0.763123
vt 0.996460 -0.278381
vt 0.006226 0.997192
vt 0.996460 0.997192
vt 0.006226 -0.278381
vt 0.006226 -0.649719
vt 0.996460 -0.649719
vt 0.006226 -1.003662
vt 0.996460 -1.003662
s 0
usemtl fountain_m
f 4/1/1 2/2/1 3/3/1
f 5/4/2 4/1/2 3/3/2
f 1/5/3 8/6/3 7/7/3
f 12/8/4 11/1/4 10/4/4
f 13/9/4 11/1/4 12/8/4
f 14/10/5 13/9/5 12/8/5
f 13/8/6 15/1/6 11/4/6
f 16/9/7 15/1/7 13/8/7
f 17/10/8 16/9/8 13/8/8
f 16/8/9 18/1/9 15/4/9
f 21/8/10 10/1/10 4/4/10
f 12/9/10 10/1/10 21/8/10
f 22/10/11 12/9/11 21/8/11
f 24/9/12 23/1/12 19/8/12
f 25/10/13 24/9/13 19/8/13
f 27/8/14 5/1/14 26/4/14
f 29/10/15 6/9/15 27/8/15
f 30/10/16 21/9/16 6/8/16
f 34/11/17 32/12/17 33/13/17
f 34/11/18 17/14/18 32/12/18
f 20/10/18 17/14/18 34/11/18
f 36/11/19 20/14/19 34/12/19
f 38/11/20 25/14/20 36/12/20
f 28/10/20 25/14/20 38/11/20
f 45/15/21 44/16/21 43/17/21
f 46/13/22 47/12/22 44/16/22
f 41/11/23 30/14/23 47/12/23
f 50/7/24 49/18/24 48/6/24
f 51/5/25 52/2/25 49/18/25
f 53/3/25 52/2/25 51/5/25
f 48/7/26 55/18/26 54/6/26
f 49/5/27 55/18/27 48/7/27
f 49/5/28 56/2/28 55/18/28
f 52/3/28 56/2/28 49/5/28
f 52/3/29 15/1/29 56/2/29
f 57/15/30 46/16/30 45/17/30
f 58/13/31 46/16/31 57/15/31
f 55/5/32 60/18/32 54/7/32
f 55/5/33 61/2/33 60/18/33
f 56/3/33 61/2/33 55/5/33
f 56/3/34 18/1/34 61/2/34
f 44/13/35 39/16/35 43/15/35
f 47/11/36 29/14/36 40/12/36
f 30/10/36 29/14/36 47/11/36
f 9/5/37 53/2/37 51/18/37
f 2/3/38 53/2/38 9/5/38
f 2/3/39 10/1/39 53/2/39
f 4/4/40 10/1/40 2/3/40
f 60/5/41 69/2/41 64/18/41
f 18/4/42 23/1/42 61/3/42
f 70/15/43 33/16/43 68/17/43
f 69/3/44 26/1/44 71/2/44
f 72/15/45 35/16/45 70/17/45
f 37/13/46 35/16/46 72/15/46
f 66/5/47 3/2/47 1/18/47
f 71/3/47 3/2/47 66/5/47
f 71/3/48 5/1/48 3/2/48
f 67/15/49 37/16/49 72/17/49
f 58/13/50 41/12/50 46/16/50
f 42/11/50 41/12/50 58/13/50
f 31/13/51 42/12/51 58/16/51
f 32/11/51 42/12/51 31/13/51
f 12/8/5 22/14/5 14/10/5
f 13/8/8 14/14/8 17/10/8
f 16/8/52 17/14/52 20/10/52
f 27/8/15 28/14/15 29/10/15
f 75/19/53 74/20/53 73/21/53
f 76/22/53 74/20/53 75/19/53
f 77/23/54 76/22/54 75/19/54
f 78/24/55 77/23/55 75/19/55
f 79/25/56 77/23/56 78/24/56
f 80/26/56 79/25/56 78/24/56
f 83/21/57 82/22/57 81/20/57
f 84/19/57 82/22/57 83/21/57
f 84/19/58 85/23/58 82/22/58
f 86/24/58 85/23/58 84/19/58
f 81/21/59 88/22/59 87/20/59
f 82/19/59 88/22/59 81/21/59
f 82/19/60 89/23/60 88/22/60
f 85/24/60 89/23/60 82/19/60
f 87/21/61 91/22/61 90/20/61
f 88/19/62 91/22/62 87/21/62
f 88/19/63 92/23/63 91/22/63
f 89/24/64 92/23/64 88/19/64
f 90/21/65 94/22/65 93/20/65
f 91/19/66 94/22/66 90/21/66
f 93/21/67 96/22/67 95/20/67
f 94/19/67 96/22/67 93/21/67
f 95/21/68 75/22/68 73/20/68
f 96/19/68 75/22/68 95/21/68
f 74/21/69 84/22/69 83/20/69
f 76/19/70 84/22/70 74/21/70
f 76/19/71 86/23/71 84/22/71
f 77/24/72 86/23/72 76/19/72
f 91/19/73 97/23/73 94/22/73
f 92/24/74 97/23/74 91/19/74
f 94/19/75 98/23/75 96/22/75
f 97/24/75 98/23/75 94/19/75
f 96/19/76 78/23/76 75/22/76
f 98/24/76 78/23/76 96/19/76
f 86/24/77 99/25/77 85/23/77
f 100/26/77 99/25/77 86/24/77
f 85/24/78 101/25/78 89/23/78
f 99/26/78 101/25/78 85/24/78
f 89/24/79 102/25/79 92/23/79
f 101/26/79 102/25/79 89/24/79
f 92/24/80 103/25/80 97/23/80
f 102/26/80 103/25/80 92/24/80
f 97/24/81 104/25/81 98/23/81
f 103/26/81 104/25/81 97/24/81
f 98/24/82 80/25/82 78/23/82
f 104/26/82 80/25/82 98/24/82
f 77/24/83 100/25/83 86/23/83
f 79/26/83 100/25/83 77/24/83
f 107/22/84 106/21/84 105/20/84
f 108/19/84 106/21/84 107/22/84
f 109/23/85 108/19/85 107/22/85
f 110/24/85 108/19/85 109/23/85
f 111/25/86 110/24/86 109/23/86
f 112/26/86 110/24/86 111/25/86
f 114/22/87 105/21/87 113/20/87
f 107/19/87 105/21/87 114/22/87
f 115/23/88 107/19/88 114/22/88
f 109/24/88 107/19/88 115/23/88
f 116/25/89 109/24/89 115/23/89
f 111/26/89 109/24/89 116/25/89
f 118/22/90 113/21/90 117/20/90
f 114/19/91 113/21/91 118/22/91
f 119/23/92 114/19/92 118/22/92
f 115/24/92 114/19/92 119/23/92
f 120/25/93 115/24/93 119/23/93
f 116/26/93 115/24/93 120/25/93
f 122/22/94 117/21/94 121/20/94
f 118/19/95 117/21/95 122/22/95
f 123/23/96 118/19/96 122/22/96
f 119/24/96 118/19/96 123/23/96
f 124/25/97 119/24/97 123/23/97
f 120/26/97 119/24/97 124/25/97
f 126/22/98 121/21/98 125/20/98
f 122/19/98 121/21/98 126/22/98
f 127/23/99 122/19/99 126/22/99
f 123/24/99 122/19/99 127/23/99
f 128/25/100 123/24/100 127/23/100
f 124/26/100 123/24/100 128/25/100
f 130/22/101 125/21/101 129/20/101
f 126/19/101 125/21/101 130/22/101
f 131/23/102 126/19/102 130/22/102
f 127/24/102 126/19/102 131/23/102
f 132/25/103 127/24/103 131/23/103
f 128/26/103 127/24/103 132/25/103
f 108/22/104 133/21/104 106/20/104
f 134/19/105 133/21/105 108/22/105
f 110/23/106 134/19/106 108/22/106
f 135/24/106 134/19/106 110/23/106
f 112/25/107 135/24/107 110/23/107
f 136/26/107 135/24/107 112/25/107
f 135/23/108 130/19/108 134/22/108
f 131/24/108 130/19/108 135/23/108
f 136/25/109 131/24/109 135/23/109
f 132/26/109 131/24/109 136/25/109
f 133/20/110 130/19/110 129/21/110
f 134/22/111 130/19/111 133/20/111
f 39/13/112 67/15/112 37/16/112
f 38/12/113 39/13/113 37/16/113
f 40/11/113 39/13/113 38/12/113
f 28/14/114 40/11/114 38/12/114
f 29/10/114 40/11/114 28/14/114
f 5/1/115 6/9/115 27/8/115
f 22/14/116 42/11/116 41/12/116
f 14/10/116 42/11/116 22/14/116
f 58/16/117 62/15/117 57/17/117
f 31/13/118 62/15/118 58/16/118
f 14/14/119 32/11/119 42/12/119
f 17/10/119 32/11/119 14/14/119
f 31/16/120 68/15/120 62/17/120
f 33/13/120 68/15/120 31/16/120
f 32/12/121 33/13/121 31/16/121
f 19/9/122 20/10/122 16/8/122
f 18/1/123 19/9/123 16/8/123
f 35/13/124 70/15/124 33/16/124
f 34/12/125 35/13/125 33/16/125
f 36/11/125 35/13/125 34/12/125
f 25/10/126 36/11/126 20/14/126
f 19/8/127 25/10/127 20/14/127
f 36/12/128 37/13/128 35/16/128
f 38/11/128 37/13/128 36/12/128
f 24/8/129 28/10/129 25/14/129
f 27/9/129 28/10/129 24/8/129
f 26/1/130 27/9/130 24/8/130
f 46/13/131 45/15/131 44/16/131
f 41/11/132 46/13/132 47/12/132
f 22/10/133 41/11/133 30/14/133
f 21/8/134 22/10/134 30/14/134
f 39/16/135 43/15/135 67/17/135
f 40/12/136 44/13/136 39/16/136
f 47/11/136 44/13/136 40/12/136
f 6/8/137 30/10/137 29/14/137
f 4/1/138 21/9/138 6/8/138
f 64/18/139 59/7/139 63/6/139
f 60/5/140 59/7/140 64/18/140
f 66/18/141 63/7/141 65/6/141
f 64/5/141 63/7/141 66/18/141
f 71/2/142 64/5/142 66/18/142
f 1/18/143 65/7/143 7/6/143
f 66/5/144 65/7/144 1/18/144
f 23/4/130 26/1/130 24/8/130
f 69/3/145 26/1/145 23/4/145
f 71/3/146 5/1/146 26/4/146
f 53/3/147 52/2/147 11/1/147
f 61/3/148 69/2/148 23/1/148
f 60/5/149 69/2/149 61/3/149
f 64/5/142 71/2/142 69/3/142
f 50/7/150 49/18/150 51/5/150
f 9/18/151 1/5/151 8/6/151
f 8/7/152 51/18/152 9/5/152
f 53/3/147 11/1/147 10/4/147
f 52/3/153 15/1/153 11/4/153
f 56/3/154 18/1/154 15/4/154
f 18/4/155 23/1/155 19/8/155
f 5/4/138 4/1/138 6/8/138
f 1/5/156 2/2/156 3/3/156
f 59/6/157 60/18/157 54/7/157
f 50/6/158 51/18/158 8/7/158
f 9/18/159 2/2/159 1/5/159
