# Blender 4.1.1
# www.blender.org
mtllib polygon428.mtl
o polygon428
v -2144.035156 551.040771 -169.999863
v -2133.598145 569.117859 -169.999847
v -2160.637207 572.677673 -169.999847
v -2139.001221 589.280212 -169.999878
v -2157.078125 599.717041 -169.999878
v -2177.239990 594.314514 -169.999878
v -2187.677002 576.237488 -169.999863
v -2182.274170 556.075073 -169.999863
v -2398.488037 872.214417 -169.999924
v -2388.051025 890.291504 -169.999924
v -2415.089844 893.851379 -169.999908
v -2393.453125 910.453796 -169.999908
v -2411.530762 920.890686 -169.999908
v -2431.693115 915.488098 -169.999908
v -2442.129883 897.411133 -169.999908
v -2436.727051 877.248718 -169.999924
v -1943.962036 552.148804 -169.999863
v -1933.525146 570.225891 -169.999847
v -1960.564941 573.785706 -169.999847
v -1938.928101 590.388184 -169.999878
v -1957.005127 600.825073 -169.999878
v -1977.167114 595.422485 -169.999878
v -1987.604004 577.345459 -169.999863
v -1982.201050 557.183167 -169.999863
v -1760.058105 585.781677 -170.000061
v -1749.621094 603.858765 -169.999878
v -1776.661011 607.418579 -169.999878
v -1755.024048 624.021179 -169.999863
v -1773.101074 634.458008 -169.999863
v -1793.263062 629.055359 -169.999863
v -1803.699951 610.978455 -169.999878
v -1798.297119 590.816101 -169.999878
v -2164.197021 545.638306 -169.999863
v -2418.649902 866.812012 -169.999924
v -1964.124146 546.746399 -169.999863
v -1780.219971 580.379272 -169.999863
v -1799.914062 1842.448120 -69.999977
v -1783.938110 1881.016968 -69.999977
v -1838.482910 1881.016968 -69.999977
v -1799.914062 1919.587036 -69.999985
v -1838.482910 1935.563110 -69.999977
v -1877.053101 1919.587036 -69.999985
v -1893.029053 1881.016968 -69.999977
v -1877.053101 1842.448120 -69.999977
v -2177.642090 1842.448120 -69.999977
v -2161.665771 1881.016968 -69.999977
v -2216.211182 1881.016968 -69.999977
v -2177.642090 1919.587036 -69.999985
v -2216.211182 1935.563110 -69.999977
v -2254.781006 1919.587036 -69.999985
v -2270.757080 1881.016968 -69.999977
v -2254.781006 1842.448120 -69.999977
v -2137.341064 2184.909180 -70.000008
v -2131.937988 2205.072021 -70.000008
v -2158.978027 2201.512207 -70.000015
v -2142.375000 2223.148193 -70.000023
v -2162.537109 2228.551025 -70.000023
v -2180.614990 2218.114014 -70.000023
v -2186.017090 2197.952148 -70.000015
v -2175.579834 2179.875000 -70.000008
v -1879.115112 2179.875000 -70.000008
v -1868.678101 2197.952148 -70.000015
v -1895.717041 2201.512207 -70.000015
v -1874.079956 2218.114014 -70.000023
v -1892.156982 2228.551025 -70.000023
v -1912.319946 2223.148193 -70.000023
v -1922.756958 2205.072021 -70.000008
v -1917.354004 2184.909180 -70.000008
v -1838.482910 1826.472046 -69.999977
v -2216.211182 1826.472046 -69.999977
v -2155.418213 2174.472168 -70.000015
v -1899.276978 2174.472168 -70.000015
vn -0.0000 -0.0000 -1.0000
vt -13.921880 -16.250000
vt -13.708980 -16.250000
vt -13.771480 -16.099609
vt -13.771480 -16.401369
vt -13.921880 -16.463869
vt -14.072269 -16.401369
vt -14.134769 -16.250000
vt -14.072269 -16.099609
vt -13.921880 -16.037109
s 0
usemtl mt_kusa.016
f 3/1/1 2/2/1 1/3/1
f 4/4/1 2/2/1 3/1/1
f 5/5/1 4/4/1 3/1/1
f 3/1/1 6/6/1 5/5/1
f 7/7/1 6/6/1 3/1/1
f 8/8/1 7/7/1 3/1/1
f 11/1/1 10/2/1 9/3/1
f 12/4/1 10/2/1 11/1/1
f 13/5/1 12/4/1 11/1/1
f 11/1/1 14/6/1 13/5/1
f 15/7/1 14/6/1 11/1/1
f 16/8/1 15/7/1 11/1/1
f 19/1/1 18/2/1 17/3/1
f 20/4/1 18/2/1 19/1/1
f 21/5/1 20/4/1 19/1/1
f 19/1/1 22/6/1 21/5/1
f 23/7/1 22/6/1 19/1/1
f 24/8/1 23/7/1 19/1/1
s 1
f 27/1/1 26/2/1 25/3/1
f 28/4/1 26/2/1 27/1/1
s 0
f 29/5/1 28/4/1 27/1/1
f 27/1/1 30/6/1 29/5/1
f 31/7/1 30/6/1 27/1/1
f 32/8/1 31/7/1 27/1/1
f 3/1/1 33/9/1 8/8/1
f 1/3/1 33/9/1 3/1/1
f 11/1/1 34/9/1 16/8/1
f 9/3/1 34/9/1 11/1/1
f 19/1/1 35/9/1 24/8/1
f 17/3/1 35/9/1 19/1/1
s 1
f 27/1/1 36/9/1 32/8/1
f 25/3/1 36/9/1 27/1/1
s 0
f 39/1/1 38/2/1 37/3/1
f 40/4/1 38/2/1 39/1/1
f 41/5/1 40/4/1 39/1/1
f 39/1/1 42/6/1 41/5/1
f 43/7/1 42/6/1 39/1/1
f 44/8/1 43/7/1 39/1/1
f 47/1/1 46/2/1 45/3/1
f 48/4/1 46/2/1 47/1/1
f 49/5/1 48/4/1 47/1/1
f 47/1/1 50/6/1 49/5/1
f 51/7/1 50/6/1 47/1/1
f 52/8/1 51/7/1 47/1/1
f 55/1/1 54/2/1 53/3/1
f 56/4/1 54/2/1 55/1/1
f 57/5/1 56/4/1 55/1/1
f 55/1/1 58/6/1 57/5/1
f 59/7/1 58/6/1 55/1/1
f 60/8/1 59/7/1 55/1/1
f 63/1/1 62/2/1 61/3/1
f 64/4/1 62/2/1 63/1/1
f 65/5/1 64/4/1 63/1/1
f 63/1/1 66/6/1 65/5/1
f 67/7/1 66/6/1 63/1/1
f 68/8/1 67/7/1 63/1/1
f 39/1/1 69/9/1 44/8/1
f 37/3/1 69/9/1 39/1/1
f 47/1/1 70/9/1 52/8/1
f 45/3/1 70/9/1 47/1/1
f 55/1/1 71/9/1 60/8/1
f 53/3/1 71/9/1 55/1/1
f 63/1/1 72/9/1 68/8/1
f 61/3/1 72/9/1 63/1/1
