# Blender 4.1.1
# www.blender.org
mtllib polygon554.mtl
o polygon554
v -1991.491943 3207.354248 -110.315681
v -1991.491943 3207.354248 -118.743385
v -1991.491943 3220.000000 -110.315681
v -1991.491943 3207.354248 -127.171082
v -1991.491943 3232.646240 -110.315681
v -1991.491943 3220.000000 -127.171082
v -1991.491943 3232.646240 -118.743385
v -1991.491943 3232.646240 -127.171082
v -2208.524170 3232.646240 -110.315681
v -2208.524170 3232.646240 -118.743385
v -2208.524170 3220.000000 -110.315681
v -2208.524170 3232.646240 -127.171082
v -2208.524170 3207.354248 -110.315681
v -2208.524170 3220.000000 -127.171082
v -2208.524170 3207.354248 -118.743385
v -2208.524170 3207.354248 -127.171082
vn -1.0000 -0.0000 -0.0000
vn 1.0000 -0.0000 -0.0000
vt 0.657654 0.492523
vt 0.657654 0.477600
vt 0.664551 0.482178
vt 0.650757 0.472992
vt 0.650757 0.502899
vt 0.643860 0.483337
vt 0.643860 0.498291
vt 0.636963 0.493683
s 0
usemtl mt_suna_blend.008
f 3/1/1 2/2/1 1/3/1
f 4/4/1 2/2/1 3/1/1
f 5/5/1 4/4/1 3/1/1
f 6/6/1 4/4/1 5/5/1
f 7/7/1 6/6/1 5/5/1
f 8/8/2 7/7/2 6/6/2
f 11/1/2 10/2/2 9/3/2
f 12/4/2 10/2/2 11/1/2
f 13/5/2 12/4/2 11/1/2
f 14/6/2 12/4/2 13/5/2
f 15/7/2 14/6/2 13/5/2
f 16/8/1 15/7/1 14/6/1
