# Blender 4.1.1
# www.blender.org
mtllib polygon7.mtl
o polygon7
v -30063.359375 15648.939453 -114.508659
v -30428.708984 15563.939453 -114.508652
v -29623.099609 14687.429688 -114.508537
v -30498.490234 14525.879883 -114.508530
v -33061.238281 16226.669922 -43.001934
v -32967.410156 15968.849609 -43.001904
v -32803.429688 16320.500000 -43.001945
v -32709.589844 16062.689453 -43.001915
v -29162.398438 14131.830078 -150.001678
v -28982.419922 13637.339844 -150.001633
v -28667.910156 14311.809570 -150.001694
v -28487.929688 13817.318359 -150.001648
vn -0.0000 -0.0000 -1.0000
vt 0.874817 0.594910
vt 0.612610 0.309570
vt 0.731506 0.281921
vt 0.589905 0.647461
vt -0.160461 0.063293
vt -0.213806 0.177734
vt -0.244324 0.093811
vt -0.129883 0.147217
vt 1.185791 0.717163
vt 1.083374 0.936706
vt 1.024780 0.775757
vt 1.244385 0.878113
s 0
usemtl mt_za_water.003
f 3/1/1 2/2/1 1/3/1
f 4/4/1 2/2/1 3/1/1
f 7/5/1 6/6/1 5/7/1
f 8/8/1 6/6/1 7/5/1
f 11/9/1 10/10/1 9/11/1
f 12/12/1 10/10/1 11/9/1
