# Blender 4.1.1
# www.blender.org
mtllib polygon786.mtl
o polygon786
v 4878.062988 -2007.301025 -189.159653
v 4878.062988 -2071.250977 -187.575958
v 4878.062988 -2007.301025 -179.153458
v 4878.062988 -2071.250977 -179.153458
v 4878.062988 -2135.201172 -189.159622
v 4878.062988 -2135.201172 -179.153442
v 4878.062988 -1647.621094 -189.159683
v 4878.062988 -1711.571045 -187.576004
v 4878.062988 -1647.621094 -179.153503
v 4878.062988 -1711.571045 -179.153503
v 4878.062988 -1775.520996 -189.159683
v 4878.062988 -1775.520996 -179.153488
v 4878.062988 -1827.173096 -189.159698
v 4878.062988 -1891.123047 -187.575989
v 4878.062988 -1827.173096 -179.153503
v 4878.062988 -1891.123047 -179.153488
v 4878.062988 -1955.073120 -189.159668
v 4878.062988 -1955.073120 -179.153473
vn 1.0000 -0.0000 -0.0000
vt -2.614014 0.261719
vt 0.000000 0.638306
vt -2.614014 0.638306
vt 0.000000 0.261719
vt 2.614014 0.261719
vt 2.614014 0.638306
s 0
usemtl png_net_b.003
f 3/1/1 2/2/1 1/3/1
f 4/4/1 2/2/1 3/1/1
f 2/2/1 6/5/1 5/6/1
f 4/4/1 6/5/1 2/2/1
f 9/1/1 8/2/1 7/3/1
f 10/4/1 8/2/1 9/1/1
f 8/2/1 12/5/1 11/6/1
f 10/4/1 12/5/1 8/2/1
f 15/1/1 14/2/1 13/3/1
f 16/4/1 14/2/1 15/1/1
f 14/2/1 18/5/1 17/6/1
f 16/4/1 18/5/1 14/2/1
