# Blender 4.1.1
# www.blender.org
mtllib polygon472.mtl
o polygon472
v -1601.653076 968.372925 -288.999908
v -1601.653076 952.872925 -310.499908
v -1521.653076 968.372925 -288.999908
v -1521.653076 952.872925 -310.499908
v -1521.653076 937.372925 -288.999908
v -1601.653076 937.372925 -288.999908
v -1601.653076 868.373047 -288.999878
v -1601.653076 852.873047 -310.499847
v -1521.653076 868.373047 -288.999878
v -1521.653076 852.873047 -310.499847
v -1521.653076 837.373047 -288.999847
v -1601.653076 837.373047 -288.999847
v -1601.653076 918.372925 -288.999908
v -1601.653076 902.872925 -310.499908
v -1521.653076 918.372925 -288.999908
v -1521.653076 902.872925 -310.499908
v -1521.653076 887.373047 -288.999878
v -1601.653076 887.373047 -288.999878
v -1477.653076 713.373047 -288.999939
v -1462.153076 713.373047 -310.499939
v -1477.653076 793.372498 -288.999969
v -1462.153076 793.372498 -310.499969
v -1446.653076 793.372498 -288.999969
v -1446.653076 713.373047 -288.999939
v -1377.653076 713.373047 -288.999939
v -1362.153076 713.373047 -310.499939
v -1377.653076 793.372559 -288.999969
v -1362.153076 793.372559 -310.499969
v -1346.653076 793.372559 -288.999969
v -1346.653076 713.373047 -288.999939
v -1427.653076 713.373047 -288.999939
v -1412.153076 713.373047 -310.499939
v -1427.653076 793.372498 -288.999969
v -1412.153076 793.372498 -310.499969
v -1396.653076 793.372498 -288.999969
v -1396.653076 713.373047 -288.999939
v -1561.653076 803.373047 -318.999878
v -1611.653076 803.373047 -281.500000
v -1511.653076 753.373047 -318.999878
v -1511.653076 703.373047 -281.499847
v -1311.653076 803.373047 -281.499878
v -1511.653076 803.373047 -281.500000
v -1336.653076 753.373047 -318.999878
v -1311.653076 703.373047 -281.499939
v -1611.653076 1003.372925 -281.499908
v -1561.653076 978.372925 -318.999908
v -1511.653076 1003.372925 -281.500000
v -2769.809082 2987.974854 -150.240540
v -2777.347168 2973.428955 -142.000153
v -2702.648926 2922.253906 -150.240524
v -2695.110840 2892.954834 -142.000168
v -2702.648926 3094.362061 -150.240555
v -2695.109863 3103.697998 -142.000183
v -2769.809082 3183.290039 -150.240555
v -2777.347168 3212.589844 -142.000198
v -3433.853027 2772.886230 -151.500137
v -3449.353027 2772.886230 -173.000137
v -3433.853027 2692.887207 -151.500122
v -3449.353027 2692.887207 -173.000122
v -3464.853027 2692.887207 -151.500122
v -3464.853027 2772.886230 -151.500137
v -3553.853027 2772.886230 -151.500137
v -3569.353027 2772.886230 -173.000137
v -3553.852051 2692.887207 -151.500122
v -3569.352051 2692.887207 -173.000122
v -3584.852051 2692.887207 -151.500122
v -3584.853027 2772.886230 -151.500137
v -3493.853027 2772.886230 -151.500137
v -3509.353027 2772.886230 -173.000137
v -3493.853027 2692.887207 -151.500122
v -3509.353027 2692.887207 -173.000122
v -3524.853027 2692.887207 -151.500122
v -3524.853027 2772.886230 -151.500137
v -3409.353027 2682.887207 -144.000122
v -3434.353027 2732.887207 -181.500107
v -3609.352051 2682.887207 -144.000015
v -3584.353027 2732.887207 -181.500107
v -3609.353027 2782.887207 -144.000137
v -3409.353027 2782.887207 -144.000137
v -2322.981201 2437.513184 -229.000092
v -2374.724121 2527.134033 -229.000107
v -2557.347168 2437.513184 -229.000092
v -2557.347168 2527.134033 -229.000107
v -2288.339844 2417.513184 -214.832764
v -2577.347168 2417.513184 -214.832886
v -2577.347168 2547.134033 -214.832901
v -2363.177002 2547.134033 -214.832779
v -2462.982178 2480.976807 -305.040283
v -2425.482178 2443.476807 -279.000061
v -2425.482178 2518.476807 -279.000092
v -2500.482178 2518.476807 -279.000092
v -2500.482178 2443.476807 -279.000061
v -1313.769043 2488.538086 -191.768784
v -1313.769043 2504.038086 -213.268799
v -1393.769043 2488.538086 -191.768784
v -1393.769043 2504.038086 -213.268799
v -1393.769043 2519.538086 -191.768784
v -1313.769043 2519.538086 -191.768784
v -1554.923096 2509.038086 -212.750107
v -1536.067017 2527.894043 -212.750305
v -1565.883057 2519.998047 -191.250092
v -1547.026978 2538.854004 -191.250214
v -1525.106079 2516.934082 -191.250290
v -1543.962891 2498.078125 -191.250198
v -1508.923096 2454.038086 -184.500092
v -1508.923096 2504.038086 -222.000107
v -1608.923096 2554.038086 -184.500107
v -1558.923096 2554.038086 -222.000107
v -1308.923096 2554.038086 -184.500000
v -1508.923096 2554.038086 -184.500107
v -1333.923096 2504.038086 -222.000107
v -1308.923096 2454.038086 -184.500092
v -1608.923096 2754.038086 -184.500015
v -1558.923096 2729.038086 -222.000122
v -1508.923096 2754.038086 -184.500137
v -1377.054932 2477.801025 -261.239807
v -1364.554932 2465.301025 -231.239777
v -1364.554932 2490.301025 -231.239777
v -1389.554932 2490.301025 -231.239777
v -1389.554932 2465.301025 -231.239777
v -1442.054932 2477.801025 -261.239807
v -1429.554932 2465.301025 -231.239777
v -1429.554932 2490.301025 -231.239777
v -1454.554932 2490.301025 -231.239777
v -1454.554932 2465.301025 -231.239777
v -2916.386230 1151.579956 -239.050827
v -2902.963135 1143.829956 -260.550781
v -2876.387207 1220.862061 -239.050827
v -2862.963135 1213.112061 -260.550842
v -2849.540039 1205.362061 -239.050812
v -2889.540039 1136.079956 -239.050812
v -2968.348145 1181.579956 -239.050812
v -2954.925049 1173.829956 -260.550812
v -2928.348145 1250.862061 -239.050827
v -2914.925049 1243.112061 -260.550842
v -2901.501221 1235.362061 -239.050827
v -2941.501221 1166.079956 -239.050812
v -2871.408936 1083.509033 -239.000122
v -2871.408936 1068.009033 -260.500214
v -2791.408936 1083.509033 -239.000122
v -2791.408936 1068.009033 -260.500214
v -2791.408936 1052.509033 -239.000122
v -2871.408936 1052.509033 -239.000122
v -2871.408936 963.509033 -239.000122
v -2871.408936 948.008972 -260.500214
v -2791.408936 963.509033 -239.000122
v -2791.408936 948.008972 -260.500214
v -2791.408936 932.509033 -239.000092
v -2871.408936 932.509033 -239.000092
v -2871.408936 1023.509033 -239.000122
v -2871.408936 1008.008972 -260.500244
v -2791.408936 1023.509033 -239.000122
v -2791.408936 1008.008972 -260.500244
v -2791.408936 992.509033 -239.000122
v -2871.408936 992.509033 -239.000122
v -2831.408936 1148.566040 -269.000122
v -2957.963135 1221.708008 -269.000153
v -2881.408936 1119.774048 -231.500122
v -3004.614258 1190.906006 -231.500122
v -2954.614258 1277.509033 -231.500137
v -2781.408936 1177.509033 -231.500122
v -2881.408936 877.509033 -231.500107
v -2831.408936 902.508972 -269.000214
v -2781.408936 877.509033 -231.500107
v -1057.029053 1804.578125 -160.052216
v -1052.679932 1811.692139 -154.000015
v -1118.229004 1824.028076 -160.052216
v -1119.442993 1832.909790 -154.000015
v -1169.222046 1683.489014 -160.052200
v -1175.072021 1679.593994 -154.000000
v -1040.524048 1628.639038 -160.052200
v -1034.674072 1619.756958 -154.000000
v -1332.525024 876.928040 -409.780060
v -1332.526123 905.817871 -409.780151
v -1359.612061 876.928040 -409.780060
v -1359.612061 905.817871 -409.780151
v -1301.569092 877.722168 -389.000061
v -1286.069092 877.722168 -410.500061
v -1301.569092 957.722168 -389.000122
v -1286.069092 957.722168 -410.500122
v -1270.569092 957.722168 -389.000122
v -1270.569092 877.722168 -389.000061
v -1446.068970 967.722168 -381.500122
v -1446.068970 961.839905 -381.500122
v -1421.068970 917.722046 -419.000153
v -1424.010010 917.722168 -414.588348
v -1446.068970 873.604492 -381.500061
v -1446.068970 867.722168 -381.500061
v -1442.068970 867.722168 -381.500061
v -1417.125122 917.722046 -419.000153
v -1442.068970 967.722168 -381.500122
v -1250.068115 967.722168 -381.500122
v -1275.012085 917.722046 -419.000153
v -1246.069092 867.722168 -381.500061
v -1246.069092 873.604492 -381.500061
v -1271.069092 917.722046 -419.000153
v -1268.127075 917.722168 -414.588348
v -1246.069092 961.839905 -381.500000
v -1246.069092 967.722168 -381.500000
v -1250.068115 867.722168 -381.500061
v -1398.419922 892.499207 -459.000061
v -1385.919922 879.999207 -429.000061
v -1385.919922 904.999207 -429.000153
v -1410.919922 904.999207 -429.000153
v -1410.919922 879.999207 -429.000061
v -2580.136230 2199.665039 -176.500061
v -2595.636230 2199.665039 -198.000061
v -2580.136230 2119.665771 -176.500076
v -2595.636230 2119.665771 -198.000076
v -2611.136230 2119.665771 -176.500076
v -2611.136230 2199.665039 -176.500061
v -2700.136230 2199.665039 -176.500061
v -2715.636230 2199.665039 -198.000061
v -2700.136230 2119.665771 -176.500076
v -2715.636230 2119.665771 -198.000076
v -2731.136230 2119.665771 -176.500076
v -2731.136230 2199.665039 -176.500061
v -2640.136230 2199.665039 -176.500061
v -2655.636230 2199.665039 -198.000061
v -2640.136230 2119.665771 -176.500076
v -2655.636230 2119.665771 -198.000076
v -2671.136230 2119.665771 -176.500076
v -2671.136230 2199.665039 -176.500061
v -2847.347168 2085.665771 -176.500031
v -2847.347168 2070.165771 -198.000046
v -2767.348145 2085.665771 -176.500031
v -2767.348145 2070.165771 -198.000046
v -2767.348145 2054.665771 -176.500046
v -2847.347168 2054.665771 -176.500046
v -2847.347168 1965.666016 -176.500031
v -2847.347168 1950.166016 -198.000031
v -2767.347168 1965.666016 -176.500031
v -2767.347168 1950.166016 -198.000031
v -2767.347168 1934.666016 -176.500031
v -2847.347168 1934.666016 -176.500031
v -2847.347168 2025.666016 -176.500046
v -2847.347168 2010.166016 -198.000046
v -2767.348145 2025.666016 -176.500046
v -2767.348145 2010.166016 -198.000046
v -2767.348145 1994.666016 -176.500046
v -2847.347168 1994.666016 -176.500046
v -2543.925049 2085.665039 -176.500031
v -2543.925049 2070.165039 -198.000046
v -2463.926025 2085.665039 -176.500031
v -2463.926025 2070.165039 -198.000046
v -2463.926025 2054.665039 -176.500046
v -2543.925049 2054.665039 -176.500046
v -2543.925049 1965.664917 -176.500031
v -2543.925049 1950.164917 -198.000031
v -2463.926025 1965.664917 -176.500031
v -2463.926025 1950.164917 -198.000031
v -2463.926025 1934.664917 -176.500031
v -2543.925049 1934.664917 -176.500031
v -2543.925049 2025.664917 -176.500046
v -2543.925049 2010.164917 -198.000046
v -2463.926025 2025.664917 -176.500046
v -2463.926025 2010.164917 -198.000046
v -2463.926025 1994.664917 -176.500046
v -2543.925049 1994.664917 -176.500046
v -2553.925049 1909.664917 -169.000046
v -2503.925049 1934.664917 -206.500031
v -2553.925049 2109.665771 -169.000031
v -2503.925049 2109.665039 -206.500031
v -2807.347168 2109.665771 -206.500031
v -2757.347168 2159.665771 -206.500061
v -2857.347168 2109.665771 -169.000031
v -2757.347168 2209.665771 -169.000061
v -2757.347168 1909.666016 -168.999924
v -2757.347168 2109.665771 -169.000031
v -2807.347168 1934.666016 -206.500031
v -2857.347168 1909.666016 -169.000046
v -2553.925049 2209.665039 -169.000061
v -2553.925049 2159.665039 -206.500061
v -2453.925049 2109.665039 -169.000031
v -2453.925049 1909.664917 -168.999924
v -2569.292236 3035.557129 -180.616669
v -2579.797119 3048.521240 -172.785858
v -2569.292236 2905.917969 -180.616653
v -2579.797119 2892.954834 -172.785843
v -2464.251221 2905.917969 -180.616653
v -2453.747070 2892.954834 -172.785843
v -2464.251221 3035.557129 -180.616669
v -2453.747070 3048.521240 -172.785858
vn -0.0000 0.8112 -0.5848
vn -0.0000 -0.8112 -0.5848
vn -0.8112 -0.0000 -0.5848
vn 0.8112 -0.0000 -0.5848
vn -0.5145 -0.5145 -0.6860
vn -0.0000 0.6000 -0.8000
vn -0.0000 -0.6000 -0.8000
vn -0.6000 -0.0000 -0.8000
vn 0.6000 -0.0000 -0.8000
vn 0.5145 0.5145 -0.6860
vn 0.8320 -0.0000 -0.5547
vn -0.0000 0.8320 -0.5547
vn -0.3256 -0.3327 -0.8851
vn 0.7378 -0.0000 -0.6750
vn 0.4610 0.3482 -0.8162
vn -0.7378 -0.0000 -0.6750
vn -0.7379 -0.0000 -0.6750
vn -0.0000 -0.0000 -1.0000
vn 0.8321 -0.0000 -0.5547
vn -0.8321 -0.0000 -0.5547
vn -0.0000 -0.5780 -0.8160
vn -0.5780 -0.0000 -0.8160
vn -0.0000 0.5780 -0.8160
vn 0.5006 0.2890 -0.8160
vn 0.5704 -0.0000 -0.8214
vn -0.0000 0.5704 -0.8214
vn -0.0000 -0.5704 -0.8214
vn -0.5704 -0.0000 -0.8214
vn -0.5736 0.5736 -0.5848
vn 0.5736 -0.5736 -0.5848
vn 0.9231 -0.0000 -0.3846
vn -0.0000 0.9231 -0.3846
vn -0.0000 -0.9231 -0.3846
vn -0.9231 -0.0000 -0.3846
vn -0.0000 0.8321 -0.5547
vn -0.7025 0.4056 -0.5848
vn 0.7025 -0.4056 -0.5848
vn -0.3004 -0.5198 -0.7997
vn -0.3000 -0.5196 -0.8000
vn 0.3003 0.5196 -0.7999
vn 0.2997 0.5192 -0.8004
vn -0.7206 0.4160 -0.5547
vn -0.0000 -0.8321 -0.5547
vn 0.1813 0.5706 -0.8010
vn -0.7740 0.2809 -0.5674
vn -0.7741 0.2809 -0.5674
vn -0.2813 -0.6600 -0.6966
vn -0.2813 -0.6600 -0.6967
vn 0.7679 0.0720 -0.6365
vn -0.8320 -0.0000 -0.5547
vn 0.8320 -0.0001 -0.5548
vn 0.8320 0.0001 -0.5548
vn -0.5145 0.5145 -0.6860
vn 0.5145 -0.5145 -0.6860
vn -0.5976 -0.0000 -0.8018
vn -0.0000 -0.5171 -0.8559
vn 0.5977 -0.0000 -0.8017
vn -0.0000 0.5170 -0.8560
vt 2.000000 0.500000
vt 0.000000 1.000000
vt 0.000000 0.500000
vt 2.000000 1.000000
vt 0.000000 1.500000
vt 2.000000 1.500000
vt 3.006836 1.000000
vt 4.627930 0.000000
vt 4.002930 1.000000
vt 2.381836 0.000000
vt 1.619141 1.000000
vt -1.500000 0.000000
vt 1.749023 0.000000
vt -1.500000 1.000000
vt -1.500000 2.000000
vt 1.749023 2.000000
vt 3.504883 2.009766
vt 5.184570 0.000000
vt 7.303711 0.000000
vt 6.237305 0.833984
vt -4.919922 1.000000
vt -3.000000 0.500000
vt -3.000000 1.000000
vt -5.321289 0.500000
vt 1.994141 0.500000
vt 5.390625 1.000000
vt 2.142578 1.000000
vt 5.951172 0.500000
vt -11.977540 1.000000
vt -9.500000 0.500000
vt -9.500000 1.000000
vt -12.615230 0.500000
vt 7.101563 0.500000
vt 11.244140 1.000000
vt 7.379883 1.000000
vt 11.814449 0.500000
vt -0.720703 5.231445
vt 0.738281 2.921875
vt 0.738281 6.658203
vt -0.720703 0.990234
vt 2.463867 0.000000
vt -0.954102 1.000000
vt -1.463867 0.000000
vt 1.954102 1.000000
vt 6.665039 0.000000
vt 5.500000 0.875000
vt 4.334961 0.000000
vt 0.000977 5.901367
vt 3.748047 4.062500
vt 4.809570 5.901367
vt 0.000977 4.062500
vt 5.285156 0.000000
vt -0.384766 1.000000
vt -1.088867 0.000000
vt 4.782227 1.000000
vt -14.696290 0.000000
vt -12.013670 1.000000
vt -14.227540 1.000000
vt -11.675779 0.000000
vt -2.186523 0.000000
vt -8.003906 1.000000
vt -8.574219 0.000000
vt -2.520508 1.000000
vt 13.577149 1.000000
vt 10.012700 0.000000
vt 14.648439 0.000000
vt 10.406250 1.000000
vt 1.509766 -1.000000
vt -0.509766 -1.000000
vt 0.500000 1.000000
vt 1.333008 1.000000
vt 1.333008 1.500000
vt 1.333008 0.500000
vt 2.937500 1.000000
vt 4.072266 1.000000
vt 2.051758 0.000000
vt 2.051758 2.000000
vt 1.000000 0.000000
vt 0.000000 0.000000
vt 3.433594 0.000000
vt 5.149414 1.000000
vt 2.989258 1.000000
vt 5.531250 0.000000
vt -9.687500 0.000000
vt -7.124023 1.000000
vt -9.284180 1.000000
vt -6.688477 0.000000
vt 2.106445 0.000000
vt -1.166992 1.000000
vt -1.553711 0.000000
vt 2.553711 1.000000
vt -1.875977 0.000000
vt -5.986328 1.000000
vt -6.437500 0.000000
vt -2.266602 1.000000
vt 6.038086 0.000000
vt 7.416016 0.000000
vt 6.730469 0.750000
vt 6.919922 0.968750
vt 8.844727 0.531250
vt 8.875000 0.968750
vt 6.718750 0.531250
vt 20.960939 0.531250
vt 24.795898 0.968750
vt 21.086910 0.968750
vt 24.994139 0.531250
vt 15.668950 0.968750
vt 19.461910 0.531250
vt 19.377930 0.968750
vt 15.407229 0.531250
vt 10.373050 0.531250
vt 14.217770 0.968750
vt 10.508790 0.968750
vt 14.436520 0.531250
vt 5.986328 -0.440430
vt 3.546875 2.192383
vt 4.655273 -0.863281
vt 6.344727 3.384766
vt 1.000000 1.000000
vt 0.000000 1.562500
vt 1.000000 1.562500
vt 4.062500 1.062500
vt 4.000000 0.000000
vt 4.062500 0.000000
vt 4.000000 0.937500
vt 2.937500 1.062500
vt 3.000000 0.000000
vt 3.000000 0.937500
vt 2.937500 0.000000
vt 2.875000 0.000000
vt 2.875000 1.062500
vt 4.125000 0.000000
vt 4.125000 1.062500
vt -1.463867 2.000000
vt 1.954102 1.062500
vt 2.463867 2.000000
vt -0.954102 1.062500
vt 5.500000 0.937500
vt 0.608398 1.000000
vt 4.000000 1.000000
vt 11.000000 0.000000
vt 12.875001 1.000000
vt 11.625001 1.000000
vt 13.500000 0.000000
vt 9.000000 1.000000
vt 6.000000 0.000000
vt 9.000000 0.000000
vt 6.000000 1.000000
vt 18.000000 1.000000
vt 19.000000 0.000000
vt 20.000000 1.000000
vt 15.000000 0.000000
vt 17.000000 0.000000
vt 16.000000 1.000000
vt 19.861330 1.000000
vt 23.220699 0.500000
vt 22.910160 1.000000
vt 19.564449 0.500000
vt 15.823239 1.000000
vt 19.062500 0.500000
vt 18.750980 1.000000
vt 15.513670 0.500000
vt 11.181640 1.000000
vt 14.609380 0.500000
vt 14.270510 1.000000
vt 10.898439 0.500000
vt 7.303711 1.000000
vt 10.124020 0.500000
vt 9.866211 1.000000
vt 7.020508 0.500000
vt 12.343750 4.329102
vt 14.204100 2.032227
vt 14.204100 4.329102
vt 12.343750 2.032227
s 0
usemtl mt_town_yane_B
f 3/1/1 2/2/1 1/3/1
f 4/4/1 2/2/1 3/1/1
f 6/5/2 4/4/2 5/6/2
f 2/2/2 4/4/2 6/5/2
f 9/1/1 8/2/1 7/3/1
f 10/4/1 8/2/1 9/1/1
f 12/5/2 10/4/2 11/6/2
f 8/2/2 10/4/2 12/5/2
f 15/1/1 14/2/1 13/3/1
f 16/4/1 14/2/1 15/1/1
f 18/5/2 16/4/2 17/6/2
f 14/2/2 16/4/2 18/5/2
f 21/1/3 20/2/3 19/3/3
f 22/4/3 20/2/3 21/1/3
f 24/5/4 22/4/4 23/6/4
f 20/2/4 22/4/4 24/5/4
f 27/1/3 26/2/3 25/3/3
f 28/4/3 26/2/3 27/1/3
f 30/5/4 28/4/4 29/6/4
f 26/2/4 28/4/4 30/5/4
f 33/1/3 32/2/3 31/3/3
f 34/4/3 32/2/3 33/1/3
f 36/5/4 34/4/4 35/6/4
f 32/2/4 34/4/4 36/5/4
f 39/7/5 38/8/5 37/9/5
f 40/10/5 38/8/5 39/7/5
f 43/11/6 42/12/6 41/13/6
f 39/14/6 42/12/6 43/11/6
f 43/11/7 40/15/7 39/14/7
f 44/16/7 40/15/7 43/11/7
f 46/11/8 38/12/8 45/13/8
f 37/14/8 38/12/8 46/11/8
f 46/11/9 42/15/9 37/14/9
f 47/16/9 42/15/9 46/11/9
f 37/9/10 42/17/10 39/7/10
f 41/18/11 44/19/11 43/20/11
f 45/18/12 47/19/12 46/20/12
f 50/21/13 49/22/13 48/23/13
f 51/24/13 49/22/13 50/21/13
f 53/25/14 50/26/14 52/27/14
f 51/28/14 50/26/14 53/25/14
f 54/29/15 53/30/15 52/31/15
f 55/32/15 53/30/15 54/29/15
f 49/33/16 54/34/16 48/35/16
f 55/36/17 54/34/17 49/33/17
f 48/37/18 52/38/18 50/39/18
f 54/40/18 52/38/18 48/37/18
f 58/1/4 57/2/4 56/3/4
f 59/4/4 57/2/4 58/1/4
f 61/5/3 59/4/3 60/6/3
f 57/2/3 59/4/3 61/5/3
f 64/1/4 63/2/4 62/3/4
f 65/4/4 63/2/4 64/1/4
f 67/5/3 65/4/3 66/6/3
f 63/2/3 65/4/3 67/5/3
f 70/1/4 69/2/4 68/3/4
f 71/4/4 69/2/4 70/1/4
f 73/5/3 71/4/3 72/6/3
f 69/2/3 71/4/3 73/5/3
f 76/41/7 75/42/7 74/43/7
f 77/44/7 75/42/7 76/41/7
f 78/43/6 75/44/6 77/42/6
f 79/41/6 75/44/6 78/43/6
f 74/45/19 75/46/19 79/47/19
f 78/47/20 77/46/20 76/45/20
f 82/48/18 81/49/18 80/50/18
f 83/51/18 81/49/18 82/48/18
f 85/52/21 80/53/21 84/54/21
f 82/55/21 80/53/21 85/52/21
f 85/56/22 83/57/22 82/58/22
f 86/59/22 83/57/22 85/56/22
f 87/60/23 83/61/23 86/62/23
f 81/63/23 83/61/23 87/60/23
f 80/64/24 87/65/24 84/66/24
f 81/67/24 87/65/24 80/64/24
f 90/68/25 89/69/25 88/70/25
f 88/70/26 91/69/26 90/68/26
f 89/68/27 92/69/27 88/70/27
f 88/70/28 92/69/28 91/68/28
f 95/1/2 94/2/2 93/3/2
f 96/4/2 94/2/2 95/1/2
f 98/5/1 96/4/1 97/6/1
f 94/2/1 96/4/1 98/5/1
f 101/6/29 100/71/29 99/4/29
f 102/72/29 100/71/29 101/6/29
f 104/1/30 100/71/30 103/73/30
f 99/4/30 100/71/30 104/1/30
f 107/8/5 106/74/5 105/10/5
f 108/75/5 106/74/5 107/8/5
f 111/11/6 110/12/6 109/76/6
f 106/14/6 110/12/6 111/11/6
f 111/11/7 105/15/7 106/14/7
f 112/77/7 105/15/7 111/11/7
f 114/11/8 107/12/8 113/76/8
f 108/14/8 107/12/8 114/11/8
f 114/11/9 110/15/9 108/14/9
f 115/77/9 110/15/9 114/11/9
f 118/78/31 117/79/31 116/70/31
f 116/70/32 119/79/32 118/78/32
f 117/78/33 120/79/33 116/70/33
f 116/70/34 120/79/34 119/78/34
f 123/78/31 122/79/31 121/70/31
f 121/70/32 124/79/32 123/78/32
f 122/78/33 125/79/33 121/70/33
f 121/70/34 125/79/34 124/78/34
f 108/75/10 110/17/10 106/74/10
f 109/18/19 112/19/19 111/20/19
f 113/18/35 115/19/35 114/20/35
f 128/1/36 127/2/36 126/3/36
f 129/4/36 127/2/36 128/1/36
f 131/5/37 129/4/37 130/6/37
f 127/2/37 129/4/37 131/5/37
f 134/1/36 133/2/36 132/3/36
f 135/4/36 133/2/36 134/1/36
f 137/5/37 135/4/37 136/6/37
f 133/2/37 135/4/37 137/5/37
f 140/1/1 139/2/1 138/3/1
f 141/4/1 139/2/1 140/1/1
f 143/5/2 141/4/2 142/6/2
f 139/2/2 141/4/2 143/5/2
f 146/1/1 145/2/1 144/3/1
f 147/4/1 145/2/1 146/1/1
f 149/5/2 147/4/2 148/6/2
f 145/2/2 147/4/2 149/5/2
f 152/1/1 151/2/1 150/3/1
f 153/4/1 151/2/1 152/1/1
f 155/5/2 153/4/2 154/6/2
f 151/2/2 153/4/2 155/5/2
f 158/80/38 157/81/38 156/82/38
f 159/83/39 157/81/39 158/80/39
f 160/84/40 156/85/40 157/86/40
f 161/87/41 156/85/41 160/84/41
f 158/88/8 163/89/8 162/90/8
f 156/91/8 163/89/8 158/88/8
f 164/92/9 156/93/9 161/94/9
f 163/95/9 156/93/9 164/92/9
f 159/96/42 160/97/42 157/98/42
f 162/97/43 163/98/43 164/96/43
f 167/99/44 166/100/44 165/101/44
f 168/102/44 166/100/44 167/99/44
f 170/103/45 167/104/45 169/105/45
f 168/106/46 167/104/46 170/103/46
f 171/107/47 170/108/47 169/109/47
f 172/110/48 170/108/48 171/107/48
f 166/111/49 171/112/49 165/113/49
f 172/114/49 171/112/49 166/111/49
f 165/115/18 169/116/18 167/117/18
f 171/118/18 169/116/18 165/115/18
f 175/119/18 174/120/18 173/2/18
f 176/121/18 174/120/18 175/119/18
f 179/1/3 178/2/3 177/3/3
f 180/4/3 178/2/3 179/1/3
f 182/5/4 180/4/4 181/6/4
f 178/2/4 180/4/4 182/5/4
f 185/122/20 184/123/20 183/124/20
f 186/125/20 184/123/20 185/122/20
f 185/126/50 187/127/50 186/128/50
f 188/129/20 187/127/20 185/126/20
f 185/126/7 189/130/7 188/129/7
f 190/131/7 189/130/7 185/126/7
f 191/132/6 185/122/6 183/124/6
f 190/133/6 185/122/6 191/132/6
f 192/134/6 190/135/6 191/136/6
f 193/137/6 190/135/6 192/134/6
f 196/122/11 195/123/11 194/124/11
f 197/125/51 195/123/51 196/122/51
f 196/126/52 198/127/52 197/128/52
f 199/129/19 198/127/19 196/126/19
f 196/126/6 192/130/6 199/129/6
f 193/131/6 192/130/6 196/126/6
f 200/43/7 190/135/7 193/137/7
f 189/41/7 190/135/7 200/43/7
f 200/132/7 196/122/7 194/124/7
f 193/133/7 196/122/7 200/132/7
f 203/78/31 202/79/31 201/70/31
f 201/70/32 204/79/32 203/78/32
f 202/78/33 205/79/33 201/70/33
f 201/70/34 205/79/34 204/78/34
f 184/45/20 186/138/20 187/47/20
f 195/47/19 197/138/19 198/45/19
f 208/1/4 207/2/4 206/3/4
f 209/4/4 207/2/4 208/1/4
f 211/5/3 209/4/3 210/6/3
f 207/2/3 209/4/3 211/5/3
f 214/1/4 213/2/4 212/3/4
f 215/4/4 213/2/4 214/1/4
f 217/5/3 215/4/3 216/6/3
f 213/2/3 215/4/3 217/5/3
f 220/1/4 219/2/4 218/3/4
f 221/4/4 219/2/4 220/1/4
f 223/5/3 221/4/3 222/6/3
f 219/2/3 221/4/3 223/5/3
f 226/1/1 225/2/1 224/3/1
f 227/4/1 225/2/1 226/1/1
f 229/5/2 227/4/2 228/6/2
f 225/2/2 227/4/2 229/5/2
f 232/1/1 231/2/1 230/3/1
f 233/4/1 231/2/1 232/1/1
f 235/5/2 233/4/2 234/6/2
f 231/2/2 233/4/2 235/5/2
f 238/1/1 237/2/1 236/3/1
f 239/4/1 237/2/1 238/1/1
f 241/5/2 239/4/2 240/6/2
f 237/2/2 239/4/2 241/5/2
f 244/1/1 243/2/1 242/3/1
f 245/4/1 243/2/1 244/1/1
f 247/5/2 245/4/2 246/6/2
f 243/2/2 245/4/2 247/5/2
f 250/1/1 249/2/1 248/3/1
f 251/4/1 249/2/1 250/1/1
f 253/5/2 251/4/2 252/6/2
f 249/2/2 251/4/2 253/5/2
f 256/1/1 255/2/1 254/3/1
f 257/4/1 255/2/1 256/1/1
f 259/5/2 257/4/2 258/6/2
f 255/2/2 257/4/2 259/5/2
f 262/123/8 261/139/8 260/79/8
f 263/140/8 261/139/8 262/123/8
f 266/141/53 265/142/53 264/143/53
f 267/144/53 265/142/53 266/141/53
f 270/139/9 269/123/9 268/79/9
f 264/140/9 269/123/9 270/139/9
f 270/139/8 266/123/8 264/140/8
f 271/79/8 266/123/8 270/139/8
f 273/145/6 267/146/6 272/147/6
f 265/148/6 267/146/6 273/145/6
f 262/146/7 265/145/7 273/148/7
f 269/147/7 265/145/7 262/146/7
f 272/141/10 263/142/10 273/143/10
f 274/144/10 263/142/10 272/141/10
f 261/139/9 274/123/9 275/79/9
f 263/140/9 274/123/9 261/139/9
f 265/149/54 269/150/54 264/151/54
f 268/152/43 271/153/43 270/154/43
f 263/149/5 262/150/5 273/151/5
f 260/153/43 261/154/43 275/152/43
f 278/155/55 277/156/55 276/157/55
f 279/158/55 277/156/55 278/155/55
f 280/159/56 279/160/56 278/161/56
f 281/162/56 279/160/56 280/159/56
f 282/163/57 281/164/57 280/165/57
f 283/166/57 281/164/57 282/163/57
f 276/167/58 283/168/58 282/169/58
f 277/170/58 283/168/58 276/167/58
f 278/171/18 282/172/18 280/173/18
f 276/174/18 282/172/18 278/171/18
