# Blender 4.1.1
# www.blender.org
mtllib polygon52.mtl
o polygon52
v 815.867004 -7401.945801 -983.974060
v 815.867004 -7401.945801 -888.999084
v 815.867004 -7419.746094 -983.974060
v 815.867004 -7419.746094 -888.999084
v 832.209106 -7419.746094 -983.974060
v 832.209106 -7419.746094 -888.999084
v 832.209106 -7401.945801 -983.974060
v 832.209106 -7401.945801 -888.999084
v 815.867004 -7533.032227 -983.974060
v 815.867004 -7533.032227 -888.999146
v 815.867004 -7550.833008 -983.974060
v 815.867004 -7550.833008 -888.999146
v 832.209290 -7550.833008 -983.974060
v 832.209290 -7550.833008 -888.999146
v 832.209290 -7533.032227 -983.974060
v 832.209290 -7533.032227 -888.999146
v 624.473267 -7533.032227 -983.974060
v 624.473267 -7533.032227 -888.999146
v 624.473267 -7550.833008 -983.974060
v 624.473267 -7550.833008 -888.999146
v 640.815613 -7550.833008 -983.974060
v 640.815613 -7550.833008 -888.999146
v 640.815613 -7533.032227 -983.974060
v 640.815613 -7533.032227 -888.999146
v 624.473267 -7401.945801 -983.974060
v 624.473267 -7401.945801 -888.999084
v 624.473267 -7419.746094 -983.974060
v 624.473267 -7419.746094 -888.999084
v 640.815491 -7419.746094 -983.974060
v 640.815491 -7419.746094 -888.999084
v 640.815491 -7401.945801 -983.974060
v 640.815491 -7401.945801 -888.999084
v 687.095276 -7401.945801 -983.974060
v 687.095276 -7401.945801 -888.999084
v 687.095276 -7419.746094 -983.974060
v 687.095276 -7419.746094 -888.999084
v 703.437561 -7419.746094 -983.974060
v 703.437561 -7419.746094 -888.999084
v 703.437561 -7401.945801 -983.974060
v 703.437561 -7401.945801 -888.999084
v 687.095276 -7596.479492 -983.974060
v 687.095276 -7596.479492 -888.999084
v 687.095276 -7614.279297 -983.974060
v 687.095276 -7614.279297 -888.999084
v 703.437561 -7614.279297 -983.974060
v 703.437561 -7614.279297 -888.999084
v 703.437561 -7596.479492 -983.974060
v 703.437561 -7596.479492 -888.999084
v 832.209290 -7480.855469 -888.999146
v 832.209290 -7480.855469 -955.099731
v 815.867310 -7480.855469 -888.999146
v 815.867310 -7480.855469 -971.104248
v 815.867310 -7463.056152 -965.219482
v 815.867310 -7463.056152 -888.999084
v 832.209290 -7463.055664 -955.954895
v 832.209290 -7463.055664 -888.999084
v 640.815613 -7480.855469 -888.999146
v 640.815613 -7480.855469 -955.099731
v 624.473511 -7480.855469 -888.999146
v 624.473511 -7480.855469 -971.104248
v 624.473511 -7463.056152 -965.219482
v 624.473511 -7463.056152 -888.999084
v 640.815613 -7463.055664 -955.954895
v 640.815613 -7463.055664 -888.999084
v 822.748291 -7593.073730 -1040.889160
v 822.748291 -7593.073730 -1052.595337
v 806.406250 -7593.073730 -1040.889160
v 806.406250 -7593.072266 -1057.624268
v 806.406250 -7575.273926 -1054.561279
v 806.406250 -7575.273926 -1040.889160
v 822.748291 -7575.272949 -1053.450195
v 822.748291 -7575.272949 -1040.889160
v 822.748291 -7440.908691 -1040.889038
v 822.748291 -7440.908691 -1052.595215
v 806.406250 -7440.908691 -1040.889038
v 806.406250 -7440.908691 -1057.624146
v 806.406250 -7423.109375 -1054.561157
v 806.406250 -7423.109375 -1040.889038
v 822.748291 -7423.109375 -1053.450073
v 822.748291 -7423.109375 -1040.889038
v 664.307617 -7440.908691 -1040.889038
v 664.307617 -7440.908691 -1052.595215
v 647.965393 -7440.908691 -1040.889038
v 647.965393 -7440.908691 -1057.624146
v 647.965393 -7423.109375 -1054.561157
v 647.965393 -7423.109375 -1040.889038
v 664.307617 -7423.109375 -1053.450073
v 664.307617 -7423.109375 -1040.889038
v 767.823364 -7614.279297 -888.999146
v 767.823364 -7614.279297 -926.172241
v 751.481384 -7614.279297 -888.999146
v 751.481384 -7614.278809 -929.883545
v 751.481384 -7596.479492 -936.292236
v 751.481384 -7596.479492 -888.999146
v 767.823364 -7596.478516 -927.027466
v 767.823364 -7596.478516 -888.999146
v -256.053284 -8186.493652 -924.398743
v -256.053284 -8186.494141 -829.423828
v -270.090302 -8197.439453 -924.398743
v -270.090302 -8197.439453 -829.423828
v -260.041290 -8210.327148 -924.398743
v -260.041290 -8210.327148 -829.423828
v -246.004288 -8199.381836 -924.398743
v -246.004288 -8199.381836 -829.423828
v -216.970184 -8236.617188 -924.398743
v -216.970184 -8236.617188 -829.423828
v -231.007187 -8247.562500 -924.398743
v -231.007187 -8247.562500 -829.423828
v -220.958298 -8260.449219 -924.398743
v -220.958298 -8260.449219 -829.423828
v -206.921188 -8249.503906 -924.398743
v -206.921188 -8249.503906 -829.423828
v -183.749191 -8308.168945 -829.423828
v -183.749191 -8308.168945 -895.524231
v -193.798203 -8295.281250 -829.423828
v -193.798294 -8295.281250 -910.920410
v -179.761292 -8284.335938 -905.644226
v -179.761185 -8284.335938 -829.423828
v -169.712189 -8297.224609 -896.379517
v -169.712189 -8297.224609 -829.423828
v 717.505981 -7086.913086 -1068.622070
v 717.505981 -7086.913086 -973.647400
v 717.505981 -7104.711914 -1068.622070
v 717.505981 -7104.711914 -973.647400
v 733.848022 -7104.711914 -1068.622070
v 733.848022 -7104.711914 -973.647400
v 733.848022 -7086.913086 -1068.622070
v 733.848022 -7086.913086 -973.647400
v 921.595703 -7104.711914 -1029.618042
v 921.595459 -7104.711914 -973.647400
v 921.595459 -7086.913086 -1029.114014
v 921.595459 -7086.913086 -973.647400
v 905.253235 -7086.913086 -1030.037109
v 905.253235 -7086.913086 -973.647400
v 905.253235 -7104.711914 -1030.268066
v 905.253235 -7104.711914 -973.647400
v 781.065125 -7086.913086 -1068.622070
v 781.065125 -7086.913086 -973.647400
v 781.065125 -7104.711914 -1068.622070
v 781.065125 -7104.711914 -973.647400
v 797.407227 -7104.711914 -1068.622070
v 797.407227 -7104.711914 -973.647400
v 797.407227 -7086.913086 -1068.622070
v 797.407227 -7086.913086 -973.647400
v 841.576599 -7104.711914 -1068.622070
v 841.576599 -7086.913086 -1068.622070
v 841.576599 -7104.711914 -1021.135132
v 841.576599 -7086.911133 -1011.754211
v 857.918701 -7086.913086 -1068.622070
v 857.918701 -7104.711914 -1068.622070
v 857.918701 -7086.913086 -1017.364197
v 857.918701 -7104.711914 -1016.986145
v 161.800888 -8727.971680 -100.647461
v 161.800888 -8727.971680 13.322350
v 140.441101 -8727.971680 -100.647461
v 140.441101 -8727.971680 13.322350
v 140.441101 -8747.581055 -100.647446
v 140.441101 -8747.581055 13.322352
v 161.800888 -8747.581055 -100.647446
v 161.800888 -8747.581055 13.322352
v 373.802032 -8747.762695 13.322422
v 373.802032 -8747.762695 -65.998123
v 373.800781 -8728.152344 13.322419
v 373.802582 -8728.152344 -85.203629
v 395.161194 -8728.152344 -78.141991
v 395.161194 -8728.152344 13.322419
v 395.161194 -8747.762695 -67.024475
v 395.161194 -8747.762695 13.322422
v 165.888000 -8840.861328 -171.188721
v 165.888000 -8840.861328 -185.236618
v 165.888000 -8821.251953 -171.188736
v 165.888596 -8821.251953 -191.271347
v 187.248398 -8821.251953 -187.595459
v 187.248398 -8821.251953 -171.188736
v 187.248398 -8840.861328 -186.262939
v 187.248398 -8840.861328 -171.188721
v 348.484985 -8840.861328 -171.188721
v 348.484985 -8840.861328 -185.236618
v 348.484985 -8821.251953 -171.188736
v 348.484406 -8821.251953 -191.271347
v 369.845276 -8821.251953 -187.595459
v 369.845276 -8821.251953 -171.188736
v 369.844177 -8840.861328 -186.262939
v 369.844177 -8840.861328 -171.188721
v 140.440903 -8852.264648 10.325364
v 140.440903 -8852.264648 -34.282352
v 140.440903 -8832.653320 10.325361
v 140.441498 -8832.653320 -38.735992
v 161.801300 -8832.653320 -46.426346
v 161.801300 -8832.653320 10.325361
v 161.801300 -8852.264648 -35.308693
v 161.801300 -8852.264648 10.325364
v 395.327759 -8832.604492 -100.647446
v 395.327759 -8832.604492 13.322383
v 373.967987 -8832.604492 -100.647446
v 373.967987 -8832.604492 13.322383
v 373.967987 -8852.215820 -100.647438
v 373.967987 -8852.215820 13.322386
v 395.327759 -8852.215820 -100.647438
v 395.327759 -8852.215820 13.322386
vn -1.0000 -0.0000 -0.0000
vn 1.0000 -0.0000 -0.0000
vn -0.0000 -1.0000 -0.0000
vn -0.0000 1.0000 -0.0000
vn -0.0001 1.0000 -0.0000
vn -0.0000 -1.0000 -0.0001
vn -0.6149 0.7886 -0.0000
vn 0.6149 -0.7886 -0.0000
vn -0.7886 -0.6149 -0.0000
vn 0.7886 0.6149 -0.0000
vn -0.7886 -0.6148 -0.0000
vn -0.7886 -0.6150 -0.0000
vn 0.6148 -0.7886 -0.0000
vn 0.0001 1.0000 -0.0000
vn -1.0000 -0.0001 -0.0000
vn 1.0000 -0.0001 -0.0000
vn 0.0001 -1.0000 -0.0000
vt -3.868896 3.000000
vt -3.000000 1.033936
vt -3.000000 3.000000
vt -3.868896 1.033936
vt -3.868896 2.402344
vt -3.000000 2.720947
vt -3.000000 2.611816
vt -3.868896 2.720947
vt -3.000000 2.402344
vt -3.868896 2.419922
vt -3.000000 2.419922
vt -3.868896 2.611816
vt -3.868896 1.404297
vt -3.000000 1.541748
vt -3.000000 1.448486
vt -3.868896 1.541748
vt -3.000000 1.404297
vt -3.868896 1.422119
vt -3.000000 1.422119
vt -3.868896 1.448486
vt -3.868896 1.889160
vt -3.000000 1.968994
vt -3.868896 1.968994
vt -3.000000 2.098633
vt -3.000000 1.889160
vt -3.868896 1.906738
vt -3.000000 1.906738
vt -3.868896 2.098633
vt -3.868896 2.182129
vt -3.000000 2.192627
vt -3.000000 2.182129
vt -3.868896 2.201172
vt -3.000000 2.201172
vt -3.868896 2.206055
vt -3.868896 2.192627
vt -3.000000 2.206055
vt -3.868896 2.017090
vt -3.000000 1.822754
vt -3.868896 1.938965
vt -3.000000 1.931152
vt -3.000000 2.017090
vt -3.868896 1.931152
vt -3.000000 1.938965
vt -3.868896 1.822754
s 0
usemtl mt_town_enseki.005
f 3/1/1 2/2/1 1/3/1
f 4/4/1 2/2/1 3/1/1
f 7/1/2 6/2/2 5/3/2
f 8/4/2 6/2/2 7/1/2
f 4/2/3 5/1/3 6/4/3
f 3/3/3 5/1/3 4/2/3
f 1/1/4 8/2/4 7/3/4
f 2/4/4 8/2/4 1/1/4
f 11/1/1 10/2/1 9/3/1
f 12/4/1 10/2/1 11/1/1
f 15/1/2 14/2/2 13/3/2
f 16/4/2 14/2/2 15/1/2
f 12/2/3 13/1/3 14/4/3
f 11/3/3 13/1/3 12/2/3
f 9/1/4 16/2/4 15/3/4
f 10/4/4 16/2/4 9/1/4
f 19/1/1 18/2/1 17/3/1
f 20/4/1 18/2/1 19/1/1
f 23/1/2 22/2/2 21/3/2
f 24/4/2 22/2/2 23/1/2
f 20/2/3 21/1/3 22/4/3
f 19/3/3 21/1/3 20/2/3
f 17/1/4 24/2/4 23/3/4
f 18/4/4 24/2/4 17/1/4
f 27/1/1 26/2/1 25/3/1
f 28/4/1 26/2/1 27/1/1
f 31/1/2 30/2/2 29/3/2
f 32/4/2 30/2/2 31/1/2
f 28/2/3 29/1/3 30/4/3
f 27/3/3 29/1/3 28/2/3
f 25/1/4 32/2/4 31/3/4
f 26/4/4 32/2/4 25/1/4
f 35/1/1 34/2/1 33/3/1
f 36/4/1 34/2/1 35/1/1
f 39/1/2 38/2/2 37/3/2
f 40/4/2 38/2/2 39/1/2
f 36/2/3 37/1/3 38/4/3
f 35/3/3 37/1/3 36/2/3
f 33/1/4 40/2/4 39/3/4
f 34/4/4 40/2/4 33/1/4
f 43/1/1 42/2/1 41/3/1
f 44/4/1 42/2/1 43/1/1
f 47/1/2 46/2/2 45/3/2
f 48/4/2 46/2/2 47/1/2
f 44/2/3 45/1/3 46/4/3
f 43/3/3 45/1/3 44/2/3
f 41/1/4 48/2/4 47/3/4
f 42/4/4 48/2/4 41/1/4
f 51/2/3 50/5/3 49/4/3
f 52/6/3 50/5/3 51/2/3
f 51/4/1 53/7/1 52/8/1
f 54/2/1 53/7/1 51/4/1
f 56/4/2 50/9/2 55/10/2
f 49/2/2 50/9/2 56/4/2
f 54/4/5 55/11/5 53/12/5
f 56/2/4 55/11/4 54/4/4
f 59/2/3 58/5/3 57/4/3
f 60/6/3 58/5/3 59/2/3
f 59/4/1 61/7/1 60/8/1
f 62/2/1 61/7/1 59/4/1
f 64/4/2 58/9/2 63/10/2
f 57/2/2 58/9/2 64/4/2
f 62/4/5 63/11/5 61/12/5
f 64/2/4 63/11/4 62/4/4
f 67/2/3 66/13/3 65/4/3
f 68/14/6 66/13/6 67/2/6
f 67/4/1 69/15/1 68/16/1
f 70/2/1 69/15/1 67/4/1
f 72/4/2 66/17/2 71/18/2
f 65/2/2 66/17/2 72/4/2
f 70/4/5 71/19/5 69/20/5
f 72/2/4 71/19/4 70/4/4
f 75/2/3 74/13/3 73/4/3
f 76/14/3 74/13/3 75/2/3
f 75/4/1 77/15/1 76/16/1
f 78/2/1 77/15/1 75/4/1
f 80/4/2 74/17/2 79/18/2
f 73/2/2 74/17/2 80/4/2
f 78/4/4 79/19/4 77/20/4
f 80/2/4 79/19/4 78/4/4
f 83/2/3 82/13/3 81/4/3
f 84/14/3 82/13/3 83/2/3
f 83/4/1 85/15/1 84/16/1
f 86/2/1 85/15/1 83/4/1
f 88/4/2 82/17/2 87/18/2
f 81/2/2 82/17/2 88/4/2
f 86/4/4 87/19/4 85/20/4
f 88/2/4 87/19/4 86/4/4
f 91/2/3 90/21/3 89/4/3
f 92/22/3 90/21/3 91/2/3
f 92/23/1 94/2/1 93/24/1
f 91/4/1 94/2/1 92/23/1
f 96/4/2 90/25/2 95/26/2
f 89/2/2 90/25/2 96/4/2
f 94/4/5 95/27/5 93/28/5
f 96/2/5 95/27/5 94/4/5
f 99/1/7 98/2/7 97/3/7
f 100/4/7 98/2/7 99/1/7
f 103/1/8 102/2/8 101/3/8
f 104/4/8 102/2/8 103/1/8
f 100/2/9 101/1/9 102/4/9
f 99/3/9 101/1/9 100/2/9
f 97/1/10 104/2/10 103/3/10
f 98/4/10 104/2/10 97/1/10
f 107/1/7 106/2/7 105/3/7
f 108/4/7 106/2/7 107/1/7
f 111/1/8 110/2/8 109/3/8
f 112/4/8 110/2/8 111/1/8
f 108/2/9 109/1/9 110/4/9
f 107/3/9 109/1/9 108/2/9
f 105/1/10 112/2/10 111/3/10
f 106/4/10 112/2/10 105/1/10
f 115/2/11 114/5/11 113/4/11
f 116/6/12 114/5/12 115/2/12
f 115/4/7 117/7/7 116/8/7
f 118/2/7 117/7/7 115/4/7
f 120/4/8 114/9/8 119/10/8
f 113/2/13 114/9/13 120/4/13
f 118/4/10 119/11/10 117/12/10
f 120/2/10 119/11/10 118/4/10
f 123/1/1 122/2/1 121/3/1
f 124/4/1 122/2/1 123/1/1
f 127/1/2 126/2/2 125/3/2
f 128/4/2 126/2/2 127/1/2
f 124/2/3 125/1/3 126/4/3
f 123/3/3 125/1/3 124/2/3
f 121/1/4 128/2/4 127/3/4
f 122/4/4 128/2/4 121/1/4
f 131/29/2 130/2/2 129/30/2
f 132/4/2 130/2/2 131/29/2
f 134/4/4 131/31/4 133/32/4
f 132/2/4 131/31/4 134/4/4
f 136/4/1 133/33/1 135/34/1
f 134/2/1 133/33/1 136/4/1
f 136/2/3 129/35/3 130/4/3
f 135/36/3 129/35/3 136/2/3
f 139/1/1 138/2/1 137/3/1
f 140/4/1 138/2/1 139/1/1
f 143/1/2 142/2/2 141/3/2
f 144/4/2 142/2/2 143/1/2
f 140/2/3 141/1/3 142/4/3
f 139/3/3 141/1/3 140/2/3
f 137/1/4 144/2/4 143/3/4
f 138/4/4 144/2/4 137/1/4
f 147/37/1 146/3/1 145/1/1
f 148/38/1 146/3/1 147/37/1
f 151/39/2 150/3/2 149/1/2
f 152/40/2 150/3/2 151/39/2
f 147/41/3 150/1/3 152/42/3
f 145/3/3 150/1/3 147/41/3
f 146/1/4 151/43/4 149/3/4
f 148/44/14 151/43/14 146/1/14
f 155/1/4 154/2/4 153/3/4
f 156/4/4 154/2/4 155/1/4
f 159/1/3 158/2/3 157/3/3
f 160/4/3 158/2/3 159/1/3
f 156/2/1 157/1/1 158/4/1
f 155/3/1 157/1/1 156/2/1
f 153/1/2 160/2/2 159/3/2
f 154/4/2 160/2/2 153/1/2
f 163/2/15 162/5/15 161/4/15
f 164/6/1 162/5/1 163/2/1
f 163/4/4 165/7/4 164/8/4
f 166/2/4 165/7/4 163/4/4
f 168/4/3 162/9/3 167/10/3
f 161/2/3 162/9/3 168/4/3
f 166/4/2 167/11/2 165/12/2
f 168/2/2 167/11/2 166/4/2
f 171/2/1 170/13/1 169/4/1
f 172/14/1 170/13/1 171/2/1
f 171/4/14 173/15/14 172/16/14
f 174/2/4 173/15/4 171/4/4
f 176/4/3 170/17/3 175/18/3
f 169/2/3 170/17/3 176/4/3
f 174/4/2 175/19/2 173/20/2
f 176/2/2 175/19/2 174/4/2
f 179/2/1 178/13/1 177/4/1
f 180/14/1 178/13/1 179/2/1
f 179/4/14 181/15/14 180/16/14
f 182/2/4 181/15/4 179/4/4
f 184/4/3 178/17/3 183/18/3
f 177/2/3 178/17/3 184/4/3
f 182/4/16 183/19/16 181/20/16
f 184/2/16 183/19/16 182/4/16
f 187/2/1 186/21/1 185/4/1
f 188/22/1 186/21/1 187/2/1
f 188/23/4 190/2/4 189/24/4
f 187/4/4 190/2/4 188/23/4
f 192/4/17 186/25/17 191/26/17
f 185/2/3 186/25/3 192/4/3
f 190/4/2 191/27/2 189/28/2
f 192/2/2 191/27/2 190/4/2
f 195/1/4 194/2/4 193/3/4
f 196/4/4 194/2/4 195/1/4
f 199/1/3 198/2/3 197/3/3
f 200/4/3 198/2/3 199/1/3
f 196/2/1 197/1/1 198/4/1
f 195/3/1 197/1/1 196/2/1
f 193/1/2 200/2/2 199/3/2
f 194/4/2 200/2/2 193/1/2
