# Blender 4.1.1
# www.blender.org
mtllib polygon0.006.mtl
o polygon0.004
v -27.343407 -34987.027344 -21955.525391
v -27.339508 -60608.789062 -14268.993164
v -17527.339844 -30297.919922 -21955.525391
v -30338.218750 -52487.023438 -14268.993164
v -30338.226562 -17487.041016 -21955.529297
v -52527.328125 -30297.931641 -14268.996094
v -35027.339844 12.950103 -21955.529297
v -60649.109375 12.949067 -14269.000000
v -30338.226562 17512.945312 -21955.531250
v -52527.339844 30323.826172 -14269.003906
v -17527.349609 30323.837891 -21955.533203
v -30338.226562 52512.937500 -14269.005859
v -27.348330 35012.949219 -21955.533203
v -27.349270 60634.718750 -14269.006836
v 17472.650391 30323.837891 -21955.533203
v 30283.539062 52512.949219 -14269.005859
v 30283.539062 17512.955078 -21955.531250
v 52472.648438 30323.835938 -14269.003906
v 34972.648438 12.952062 -21955.529297
v 60594.429688 12.952977 -14269.000000
v 30283.529297 -17487.031250 -21955.529297
v 52472.628906 -30297.912109 -14268.996094
v 17472.650391 -30297.910156 -21955.525391
v 30283.529297 -52487.011719 -14268.993164
v -18144.660156 -67601.828125 -1768.991943
v -35027.328125 -60608.796875 -1768.992798
v -49524.800781 -49484.507812 -1768.994141
v -60649.109375 -34987.039062 -1768.995850
v -67642.125000 -18104.378906 -1768.997681
v -27.338968 -69987.007812 -1768.991699
v 18089.980469 -67601.804688 -1768.991943
v 34972.640625 -60608.789062 -1768.992798
v 49470.109375 -49484.488281 -1768.994141
v -70027.320312 12.950288 -1769.000000
v -67642.125000 18130.279297 -1769.002197
v -60649.109375 35012.937500 -1769.004028
v -49524.808594 49510.410156 -1769.005859
v -35027.339844 60634.718750 -1769.007080
v -18144.679688 67627.750000 -1769.008057
v -27.349409 70012.937500 -1769.008179
v 18089.980469 67627.750000 -1769.008057
v 34972.640625 60634.730469 -1769.007080
v 49470.113281 49510.429688 -1769.005859
v 60594.429688 35012.949219 -1769.004028
v 67587.460938 18130.289062 -1769.002197
v 69972.656250 12.954468 -1769.000000
v 67587.429688 -18104.359375 -1768.997681
v 60594.398438 -34987.019531 -1768.995850
vn -0.0000 0.2873 0.9578
vn -0.0000 0.5819 0.8133
vn 0.1437 0.2489 0.9578
vn 0.2909 0.5039 0.8133
vn 0.2489 0.1437 0.9578
vn 0.5039 0.2909 0.8133
vn 0.2873 -0.0000 0.9578
vn 0.5819 -0.0000 0.8133
vn 0.2489 -0.1437 0.9578
vn 0.5039 -0.2909 0.8133
vn 0.1437 -0.2489 0.9578
vn 0.2909 -0.5039 0.8133
vn -0.0000 -0.2873 0.9578
vn -0.0000 -0.5819 0.8133
vn -0.1437 -0.2489 0.9578
vn -0.2909 -0.5039 0.8133
vn -0.2489 -0.1437 0.9578
vn -0.5039 -0.2909 0.8133
vn -0.2873 -0.0000 0.9578
vn -0.5819 -0.0000 0.8133
vn -0.2489 0.1437 0.9578
vn -0.5039 0.2909 0.8133
vn -0.1437 0.2489 0.9578
vn -0.2909 0.5039 0.8133
vn 0.1991 0.7432 0.6387
vn 0.4000 0.6927 0.6001
vn 0.5441 0.5441 0.6387
vn 0.6927 0.4000 0.6001
vn 0.7432 0.1991 0.6387
vn -0.0000 0.7999 0.6001
vn -0.1991 0.7432 0.6387
vn -0.4000 0.6927 0.6001
vn -0.5441 0.5441 0.6387
vn 0.7999 -0.0000 0.6001
vn 0.7432 -0.1991 0.6387
vn 0.6927 -0.4000 0.6001
vn 0.5441 -0.5441 0.6387
vn 0.4000 -0.6927 0.6001
vn 0.1991 -0.7432 0.6387
vn -0.0000 -0.7999 0.6001
vn -0.1991 -0.7432 0.6387
vn -0.4000 -0.6927 0.6001
vn -0.5441 -0.5441 0.6387
vn -0.6927 -0.4000 0.6001
vn -0.7432 -0.1991 0.6387
vn -0.7999 -0.0000 0.6001
vn -0.7432 0.1991 0.6387
vn -0.6927 0.4000 0.6001
vt -2.500000 1.022949
vt -3.000000 0.397949
vt -3.000000 1.022949
vt -2.500000 0.397949
vt -2.000000 1.022949
vt -2.000000 0.397949
vt -1.500000 1.022949
vt -1.500000 0.397949
vt -1.000000 1.022949
vt -1.000000 0.397949
vt -0.500000 1.022949
vt -0.500000 0.397949
vt 0.000000 1.022949
vt 0.000000 0.397949
vt 0.500000 1.022949
vt 0.500000 0.397949
vt 1.000000 1.022949
vt 1.000000 0.397949
vt 1.500000 1.022949
vt 1.500000 0.397949
vt 2.000000 1.022949
vt 2.000000 0.397949
vt 2.500000 1.022949
vt 2.500000 0.397949
vt 3.000000 1.022949
vt 3.000000 0.397949
vt -2.500000 -0.147827
vt -2.750000 -0.147827
vt -2.250000 -0.147827
vt -2.000000 -0.147827
vt -1.750000 -0.147827
vt 2.750000 -0.147827
vt 3.000000 -0.147827
vt 2.500000 -0.147827
vt 2.250000 -0.147827
vt -1.500000 -0.147827
vt -1.250000 -0.147827
vt -1.000000 -0.147827
vt -0.750000 -0.147827
vt -0.500000 -0.147827
vt -0.250000 -0.147827
vt 0.000000 -0.147827
vt 0.250000 -0.147827
vt 0.500000 -0.147827
vt 0.750000 -0.147827
vt 1.000000 -0.147827
vt 1.250000 -0.147827
vt 1.500000 -0.147827
vt 1.750000 -0.147827
vt 2.000000 -0.147827
vt -3.000000 -0.147827
s 1
usemtl mt_za_cloud.001
f 3/1/3 2/2/2 1/3/1
f 4/4/4 2/2/2 3/1/3
f 5/5/5 4/4/4 3/1/3
f 6/6/6 4/4/4 5/5/5
f 7/7/7 6/6/6 5/5/5
f 8/8/8 6/6/6 7/7/7
f 9/9/9 8/8/8 7/7/7
f 10/10/10 8/8/8 9/9/9
f 11/11/11 10/10/10 9/9/9
f 12/12/12 10/10/10 11/11/11
f 13/13/13 12/12/12 11/11/11
f 14/14/14 12/12/12 13/13/13
f 15/15/15 14/14/14 13/13/13
f 16/16/16 14/14/14 15/15/15
f 17/17/17 16/16/16 15/15/15
f 18/18/18 16/16/16 17/17/17
f 19/19/19 18/18/18 17/17/17
f 20/20/20 18/18/18 19/19/19
f 21/21/21 20/20/20 19/19/19
f 22/22/22 20/20/20 21/21/21
f 23/23/23 22/22/22 21/21/21
f 24/24/24 22/22/22 23/23/23
f 1/25/1 24/24/24 23/23/23
f 2/26/2 24/24/24 1/25/1
f 4/4/4 26/27/26 25/28/25
f 27/29/27 26/27/26 4/4/4
f 6/6/6 27/29/27 4/4/4
f 28/30/28 27/29/27 6/6/6
f 29/31/29 28/30/28 6/6/6
f 31/32/31 2/26/2 30/33/30
f 24/24/24 2/26/2 31/32/31
f 32/34/32 24/24/24 31/32/31
f 33/35/33 24/24/24 32/34/32
f 8/8/8 29/31/29 6/6/6
f 34/36/34 29/31/29 8/8/8
f 35/37/35 34/36/34 8/8/8
f 10/10/10 35/37/35 8/8/8
f 36/38/36 35/37/35 10/10/10
f 37/39/37 36/38/36 10/10/10
f 12/12/12 37/39/37 10/10/10
f 38/40/38 37/39/37 12/12/12
f 39/41/39 38/40/38 12/12/12
f 14/14/14 39/41/39 12/12/12
f 40/42/40 39/41/39 14/14/14
f 41/43/41 40/42/40 14/14/14
f 16/16/16 41/43/41 14/14/14
f 42/44/42 41/43/41 16/16/16
f 43/45/43 42/44/42 16/16/16
f 18/18/18 43/45/43 16/16/16
f 44/46/44 43/45/43 18/18/18
f 45/47/45 44/46/44 18/18/18
f 20/20/20 45/47/45 18/18/18
f 46/48/46 45/47/45 20/20/20
f 47/49/47 46/48/46 20/20/20
f 22/22/22 47/49/47 20/20/20
f 48/50/48 47/49/47 22/22/22
f 33/35/33 48/50/48 22/22/22
f 2/2/2 25/28/25 30/51/30
f 4/4/4 25/28/25 2/2/2
f 33/35/33 22/22/22 24/24/24
