# Blender 4.1.1
# www.blender.org
mtllib polygon407.mtl
o polygon407
v -4300.000000 2657.388184 -0.000317
v -4300.000000 2645.773926 -0.000315
v -4158.659180 2635.002197 -0.000314
v -4176.301270 2626.168945 -0.000313
v -4204.873047 2492.772217 -0.000297
v -4214.399902 2505.361084 -0.000299
v -4300.000000 2519.133057 -0.000300
v -4300.000000 1742.611938 -0.000208
v -4158.659180 1764.998047 -0.000210
v -4300.000000 1756.020996 -0.000209
v -4173.583984 1775.348145 -0.000212
v -4211.005371 1892.972046 -0.000226
v -4204.873047 1907.226929 -0.000227
v -4300.000000 1892.161011 -0.000226
v -4300.000000 1879.731079 -0.000224
v -4549.047363 2019.057129 -0.000241
v -4592.772461 2104.872070 -0.000251
v -4558.190918 2012.413086 -0.000240
v -4603.289062 2101.456055 -0.000251
v -4721.174316 2063.152100 -0.000246
v -4592.772461 2295.128174 -0.000274
v -4549.047363 2380.943115 -0.000284
v -4603.382324 2298.575195 -0.000274
v -4558.093262 2387.516113 -0.000285
v -4659.449707 2461.155762 -0.000293
v -4441.341309 2635.002197 -0.000314
v -4437.909180 2624.441162 -0.000313
v -4568.846191 2570.035156 -0.000306
v -4561.658203 2560.141113 -0.000305
v -4670.034668 2468.846191 -0.000294
v -4735.002441 2341.341064 -0.000279
v -4722.789062 2337.372070 -0.000279
v -4757.388184 2200.000000 -0.000262
v -4744.422363 2200.000000 -0.000262
v -4735.002441 2058.659180 -0.000245
v -4670.034668 1931.154053 -0.000230
v -4659.353027 1938.914917 -0.000231
v -4568.846191 1829.965088 -0.000218
v -4561.595215 1839.946045 -0.000219
v -4441.341309 1764.998047 -0.000210
v -4437.224121 1777.667114 -0.000212
v -4395.127441 1907.226929 -0.000227
v -4398.648438 1896.391968 -0.000226
v -4480.943359 1950.953125 -0.000233
v -4487.146973 1942.414062 -0.000232
v -4607.839355 2200.000000 -0.000262
v -4620.005371 2200.000000 -0.000262
v -4480.943359 2449.047119 -0.000292
v -4486.714355 2456.989990 -0.000293
v -4395.127441 2492.772217 -0.000297
v -4398.600098 2503.458008 -0.000298
v -4300.000000 2507.839111 -0.000299
v -4268.852051 2104.135010 -0.000247
v -4218.452148 2140.752197 -0.000251
v -4272.713379 2116.018066 -0.000248
v -4227.750000 2147.507080 -0.000252
v -4300.000000 2200.000000 -0.000258
v -4210.726074 2200.000000 -0.000260
v -4228.659668 2251.832031 -0.000264
v -4199.201172 2200.000000 -0.000258
v -4218.452148 2259.248047 -0.000265
v -4327.274414 2116.058105 -0.000248
v -4371.658203 2147.937988 -0.000252
v -4381.548340 2140.752197 -0.000251
v -4400.799316 2200.000000 -0.000258
v -4387.763184 2200.000000 -0.000258
v -4371.344238 2251.834229 -0.000264
v -4381.548340 2259.248047 -0.000265
v -4327.589844 2284.913086 -0.000268
v -4272.351074 2285.097168 -0.000268
v -4331.148438 2295.864990 -0.000270
v -4268.852051 2295.864990 -0.000270
v -4331.148438 2104.135010 -0.000247
vn -0.0000 -0.0000 -1.0000
vt 1.000000 1.000000
vt 2.300049 0.800049
vt 2.300049 1.000000
vt 1.133057 0.800049
vt 1.170776 0.800049
vt 1.699951 0.800049
vt 3.000000 1.000000
vt 1.699951 1.000000
vt 2.895752 0.800049
vt 2.865479 0.800049
vt 3.000000 0.800049
vt 1.000000 0.800049
vt 1.400024 1.000000
vt 2.640015 0.800049
vt 2.640015 1.000000
vt 1.400024 0.800049
vt 1.359985 1.000000
vt 2.599976 0.800049
vt 2.599976 1.000000
vt 1.359985 0.800049
vt 2.699951 0.800049
vt 2.699951 1.000000
vt 1.300049 1.000000
vt 1.300049 0.800049
vt 1.550781 0.800049
vt 2.017700 1.000000
vt 1.628784 1.000000
vt 1.901611 0.800049
vt 0.999390 0.800049
vt 1.901367 0.800049
vt 1.550049 0.800049
vt 0.446411 0.800049
vt 0.369995 1.000000
vt -0.018921 1.000000
vt 0.112793 0.800049
vt 0.108521 0.800049
vt 0.441895 0.800049
vt 0.999390 1.000000
s 0
usemtl mt_gake_blend.011
f 3/1/1 2/2/1 1/3/1
f 4/4/1 2/2/1 3/1/1
f 5/1/1 4/4/1 3/1/1
f 6/5/1 4/4/1 5/1/1
f 7/2/1 6/5/1 5/1/1
f 4/4/1 6/5/1 7/2/1
f 2/2/1 4/4/1 7/2/1
f 10/6/1 9/7/1 8/8/1
f 11/9/1 9/7/1 10/6/1
f 12/10/1 11/9/1 10/6/1
f 9/7/1 11/9/1 12/10/1
f 13/7/1 9/7/1 12/10/1
f 12/10/1 14/8/1 13/7/1
f 15/6/1 14/8/1 12/10/1
f 10/6/1 15/6/1 12/10/1
f 18/11/1 17/8/1 16/7/1
f 19/6/1 17/8/1 18/11/1
f 20/6/1 19/6/1 18/11/1
f 23/2/1 22/1/1 21/3/1
f 24/12/1 22/1/1 23/2/1
f 25/12/1 24/12/1 23/2/1
f 1/13/1 27/14/1 26/15/1
f 2/16/1 27/14/1 1/13/1
f 26/17/1 29/18/1 28/19/1
f 27/20/1 29/18/1 26/17/1
f 28/13/1 25/21/1 30/22/1
f 29/16/1 25/21/1 28/13/1
f 30/1/1 32/2/1 31/3/1
f 25/12/1 32/2/1 30/1/1
f 31/13/1 34/14/1 33/15/1
f 32/16/1 34/14/1 31/13/1
f 33/17/1 20/18/1 35/19/1
f 34/20/1 20/18/1 33/17/1
f 35/8/1 37/11/1 36/7/1
f 20/6/1 37/11/1 35/8/1
f 36/23/1 39/18/1 38/19/1
f 37/24/1 39/18/1 36/23/1
f 38/13/1 41/14/1 40/15/1
f 39/16/1 41/14/1 38/13/1
f 40/17/1 10/18/1 8/19/1
f 41/20/1 10/18/1 40/17/1
f 14/19/1 43/20/1 42/17/1
f 15/18/1 43/20/1 14/19/1
f 42/15/1 45/16/1 44/13/1
f 43/14/1 45/16/1 42/15/1
f 44/19/1 18/24/1 16/23/1
f 45/18/1 18/24/1 44/19/1
f 17/19/1 47/20/1 46/17/1
f 19/18/1 47/20/1 17/19/1
f 46/15/1 23/16/1 21/13/1
f 47/14/1 23/16/1 46/15/1
f 22/22/1 49/16/1 48/13/1
f 24/21/1 49/16/1 22/22/1
f 48/19/1 51/20/1 50/17/1
f 49/18/1 51/20/1 48/19/1
f 50/15/1 7/16/1 52/13/1
f 51/14/1 7/16/1 50/15/1
f 51/14/1 2/16/1 7/16/1
f 27/14/1 2/16/1 51/14/1
f 49/18/1 27/20/1 51/20/1
f 29/18/1 27/20/1 49/18/1
f 24/21/1 29/16/1 49/16/1
f 25/21/1 29/16/1 24/21/1
f 47/14/1 32/16/1 23/16/1
f 34/14/1 32/16/1 47/14/1
f 19/18/1 34/20/1 47/20/1
f 20/18/1 34/20/1 19/18/1
f 45/18/1 37/24/1 18/24/1
f 39/18/1 37/24/1 45/18/1
f 43/14/1 39/16/1 45/16/1
f 41/14/1 39/16/1 43/14/1
f 15/18/1 41/20/1 43/20/1
f 10/18/1 41/20/1 15/18/1
f 52/3/1 7/2/1 5/1/1
f 23/2/1 32/2/1 25/12/1
f 18/11/1 37/11/1 20/6/1
f 55/25/1 54/26/1 53/27/1
f 56/28/1 54/26/1 55/25/1
f 57/29/1 56/28/1 55/25/1
f 58/30/1 56/28/1 57/29/1
f 59/31/1 58/30/1 57/29/1
f 60/26/1 58/30/1 59/31/1
f 61/27/1 60/26/1 59/31/1
f 62/29/1 57/29/1 55/25/1
f 63/32/1 57/29/1 62/29/1
f 64/33/1 63/32/1 62/29/1
f 65/34/1 63/32/1 64/33/1
f 66/35/1 57/29/1 63/32/1
f 67/36/1 57/29/1 66/35/1
f 65/34/1 67/36/1 66/35/1
f 68/34/1 67/36/1 65/34/1
f 69/37/1 57/29/1 67/36/1
f 70/29/1 57/29/1 69/37/1
f 71/33/1 70/29/1 69/37/1
f 72/38/1 70/29/1 71/33/1
f 62/29/1 73/38/1 64/33/1
f 53/27/1 73/38/1 62/29/1
f 55/25/1 53/27/1 62/29/1
f 70/29/1 59/31/1 57/29/1
f 61/27/1 59/31/1 70/29/1
f 72/38/1 61/27/1 70/29/1
f 56/28/1 60/26/1 54/26/1
f 58/30/1 60/26/1 56/28/1
f 69/37/1 68/34/1 71/33/1
f 67/36/1 68/34/1 69/37/1
f 66/35/1 63/32/1 65/34/1
