# Blender 4.1.1
# www.blender.org
mtllib polygon35.mtl
o polygon35
v 2456.758057 -5989.350098 0.000712
v 2457.935059 -6029.494141 0.000717
v 2547.669922 -6032.502930 0.000717
v 2534.530762 -6065.299805 0.000721
v 2666.921143 -6084.076172 0.000723
v 2660.753174 -6118.569336 0.000727
v 1856.154907 -6060.692383 0.000720
v 1849.628052 -6036.092285 0.000718
v 1744.318970 -6024.375977 0.000716
v 1749.649048 -6000.955078 0.000713
v 1530.063110 -5990.491211 0.000712
v 1531.985107 -5963.096680 0.000709
v 1180.432007 -6313.342773 0.000751
v 1201.555054 -6335.279297 0.000753
v 1242.209106 -6262.958496 0.000745
v 1263.663086 -6282.942383 0.000747
v 1300.215088 -6237.782227 0.000742
v 652.201477 -6831.107910 0.000812
v 668.391602 -6844.257812 0.000814
v 697.476074 -6825.342285 0.000812
v 700.699341 -6842.386230 0.000814
v 724.184509 -6835.996094 0.000813
v 350.092499 -7322.630859 0.000871
v 328.083588 -7306.721680 0.000869
v 298.263184 -7367.527344 0.000876
v 274.859100 -7354.725586 0.000875
v 267.421204 -7467.547852 0.000888
v 1244.987061 -6006.395508 0.000714
v 1251.829834 -6030.556641 0.000717
v 1370.928101 -5982.719238 0.000711
v 1374.848999 -6007.958496 0.000714
v 638.455078 -7471.464355 0.000889
v 683.848877 -7435.571289 0.000884
v 659.515381 -7408.849121 0.000881
v 731.861450 -7376.759277 0.000877
v 713.932617 -7346.649414 0.000874
v 390.718658 -8160.242188 0.000971
v 418.236603 -8161.495605 0.000971
v 397.625183 -8082.282227 0.000961
v 428.283203 -8083.523438 0.000962
v 421.035065 -7966.387207 0.000948
v 2707.167236 -6101.158203 0.000725
v 2704.638184 -6132.987305 0.000729
v 2873.682129 -6105.572754 0.000726
v 619.572388 -7483.287109 0.000890
v 648.217468 -7497.201660 0.000892
v 666.514038 -7486.551270 0.000890
v 1289.895020 -6209.288574 0.000738
v 1382.697021 -6190.994629 0.000736
v 1386.900024 -6222.129395 0.000740
v 1509.826050 -6190.692871 0.000736
v 176.855194 -8356.176758 0.000994
v 150.956497 -8358.373047 0.000994
v 172.730774 -8501.227539 0.001011
v 151.374695 -8501.194336 0.001011
v 154.383698 -8662.057617 0.001031
v 1219.635010 -6051.034180 0.000719
v 1209.871094 -6027.949219 0.000717
v 709.533325 -6917.136230 0.000823
v 734.461304 -6909.931641 0.000822
v 706.403687 -6903.284668 0.000821
v 730.983704 -6892.832520 0.000820
v 637.675598 -6909.246094 0.000822
v 658.731873 -6896.583496 0.000820
v 746.249817 -6895.914062 0.000820
v 750.839111 -6914.482422 0.000822
v 776.848206 -6881.354004 0.000818
v 759.604309 -6880.324219 0.000818
v 747.172546 -6844.813477 0.000814
v 759.497314 -6830.754395 0.000812
v 725.563599 -6817.252441 0.000811
v 444.819000 -7649.051270 0.000910
v 425.355591 -7577.744629 0.000901
v 425.833282 -7634.364746 0.000908
v 412.006683 -7589.672852 0.000903
v 378.952026 -7584.775879 0.000902
v 366.946594 -7568.284180 0.000900
v 355.685028 -7614.741211 0.000906
v 373.202484 -7610.617188 0.000905
v 387.640564 -7648.375488 0.000910
v 394.317993 -7631.054688 0.000908
v 157.014191 -8042.782715 0.000957
v 168.181396 -8213.229492 0.000977
v 184.080597 -8042.976074 0.000957
v 194.664017 -8212.227539 0.000977
v 2004.403076 -5914.881348 0.000703
v 1880.349976 -6004.404297 0.000714
v 2009.989990 -5940.431641 0.000706
v 1893.307129 -6025.232910 0.000716
v 2302.459961 -5867.764160 0.000697
v 2272.637207 -5922.212891 0.000704
v 2323.898193 -5876.386230 0.000699
v 2286.927002 -5939.319824 0.000706
v 2249.978027 -6345.375488 0.000754
v 2247.979980 -6291.087402 0.000748
v 2213.708008 -6329.124023 0.000752
v 2216.978027 -6282.045898 0.000747
v 1101.457886 -6481.039062 0.000771
v 1151.988037 -6419.529785 0.000763
v 1079.085083 -6456.831055 0.000768
v 1126.328003 -6395.934082 0.000760
v 832.721375 -7356.730957 0.000875
v 889.471069 -7300.279297 0.000868
v 811.994812 -7325.462891 0.000871
v 867.811768 -7278.489258 0.000866
v 609.691284 -7579.484375 0.000902
v 616.955688 -7544.219238 0.000897
v 577.021179 -7572.567871 0.000901
v 594.668579 -7528.572266 0.000895
v 422.002686 -7913.397461 0.000941
v 391.421661 -7966.207520 0.000948
v 393.569946 -7906.439941 0.000941
v 344.183899 -8358.819336 0.000994
v 375.913391 -8364.639648 0.000995
v 451.660187 -7790.949707 0.000927
v 426.499786 -7765.708496 0.000924
v 564.037170 -7671.270020 0.000912
v 597.661072 -7692.268555 0.000915
v 958.674500 -7171.674805 0.000853
v 932.738403 -7161.750977 0.000852
v 954.239990 -7063.473145 0.000840
v 994.585815 -7037.992188 0.000837
v 882.910156 -7030.247559 0.000836
v 858.238708 -7055.545410 0.000839
v 850.957703 -6963.629395 0.000828
v 818.104675 -6958.264648 0.000827
v 892.075378 -6863.270020 -1.409462
v 923.846558 -6873.326172 -1.409461
v 929.893494 -6787.657227 0.000807
v 900.158569 -6777.094727 0.000806
v 981.558167 -6704.382812 0.000797
v 949.968262 -6679.505371 0.000794
v 1037.983032 -6593.087891 0.000784
v 1013.235046 -6571.607422 0.000781
v 1742.197144 -6261.047363 0.000744
v 1513.833984 -6159.306152 0.000732
v 1759.663086 -6234.413086 0.000741
v 1881.078125 -6369.397461 0.000757
v 1867.898071 -6400.076172 0.000761
v 2064.125977 -6410.069824 0.000762
v 2067.211182 -6445.842773 0.000766
v 2285.072998 -6150.351562 0.000731
v 2255.149902 -6133.875488 0.000729
v 3057.322998 -6026.569824 0.000716
v 2869.432129 -6069.083496 0.000721
v 3055.199951 -5995.424805 0.000713
v 3094.143066 -5793.603516 0.000689
v 2894.057129 -5778.065918 0.000687
v 3093.931152 -5816.788574 0.000691
v 2887.981201 -5802.724121 0.000690
v 2678.709229 -5609.717285 0.000667
v 2682.748047 -5579.513184 0.000663
v 2470.982178 -5617.223145 0.000668
v 2478.929932 -5646.034668 0.000671
v 2318.718994 -5774.333496 0.000686
v 2340.171143 -5783.947266 0.000688
v 2231.173096 -5942.467773 0.000706
v 2238.316162 -5968.060059 0.000709
v 2157.018066 -5954.585938 0.000708
v 2154.797119 -5978.339355 0.000711
v 1012.464966 -6170.574707 0.000734
v 1028.531006 -6190.266113 0.000736
v 860.725037 -6323.739258 0.000752
v 879.235901 -6340.946289 0.000754
v 762.653625 -6522.696289 0.000776
v 779.907227 -6541.132324 0.000778
v 658.118042 -6589.002930 0.000783
v 637.619568 -6565.248535 0.000781
v 583.215088 -6709.333496 0.000798
v 612.569031 -6710.139160 0.000798
v 599.947388 -6751.672363 0.000803
v 625.231812 -6754.399414 0.000803
v 584.892212 -6816.286621 0.000811
v 570.333557 -6793.971680 0.000808
v 512.599060 -6823.474121 0.000811
v 508.453278 -6800.729004 0.000809
v 400.166473 -6906.129395 0.000821
v 419.679291 -6924.867188 0.000824
v 366.064880 -7014.161621 0.000834
v 391.692780 -7020.874023 0.000835
v 362.258148 -7136.637207 0.000849
v 336.695770 -7145.705566 0.000850
v 373.080566 -7203.854004 0.000857
v 400.147797 -7201.163574 0.000856
v 387.002777 -7260.290039 0.000863
v 364.897247 -7248.714355 0.000862
v 292.220490 -7477.242188 0.000889
v 252.397995 -7585.594238 0.000902
v 223.902298 -7577.232910 0.000901
v 246.483780 -7760.821289 0.000923
v 274.682281 -7762.750000 0.000923
v 199.266388 -7946.259766 0.000945
v 178.509201 -7929.985352 0.000943
v 378.510193 -8513.932617 0.001013
v 349.918579 -8513.369141 0.001013
v 382.140778 -8663.621094 0.001031
v 3235.184814 -6051.036133 0.000849
v 3233.832031 -5793.802246 0.000689
vn -0.0000 -0.0000 -1.0000
vn -0.0022 -0.0132 -0.9999
vn -0.0039 -0.0124 -0.9999
vn 0.0052 0.0160 -0.9999
vn 0.0028 0.0081 -1.0000
vn 0.0051 0.0161 -0.9999
vn 0.0031 0.0088 -1.0000
vt -0.217224 1.000000
vt -0.211121 0.500000
vt -0.211121 1.000000
vt -0.216492 0.500000
vt -0.225098 1.000000
vt -0.225098 0.500000
vt -0.215698 1.000000
vt -0.215271 0.500000
vt -0.218079 1.000000
vt -0.218079 0.500000
vt -0.215881 1.000000
vt -0.216248 0.500000
vt -0.221619 1.000000
vt -0.221619 0.500000
vt -0.214600 1.000000
vt -0.214600 0.500000
vt -0.218201 1.000000
vt -0.239075 0.500000
vt -0.239075 1.000000
vt -0.225098 0.500854
vt -0.227844 1.000000
s 0
usemtl mt_zd_w_kiwa_off
f 3/1/1 2/2/1 1/3/1
f 4/4/1 2/2/1 3/1/1
f 5/5/1 4/4/1 3/1/1
f 6/6/1 4/4/1 5/5/1
f 9/7/1 8/2/1 7/3/1
f 10/8/1 8/2/1 9/7/1
f 11/5/1 10/8/1 9/7/1
f 12/6/1 10/8/1 11/5/1
f 15/9/1 14/2/1 13/3/1
f 16/10/1 14/2/1 15/9/1
f 17/6/1 16/10/1 15/9/1
f 20/11/1 19/6/1 18/5/1
f 21/12/1 19/6/1 20/11/1
f 22/2/1 21/12/1 20/11/1
f 25/9/1 24/2/1 23/3/1
f 26/10/1 24/2/1 25/9/1
f 27/6/1 26/10/1 25/9/1
f 30/10/1 29/13/1 28/14/1
f 31/9/1 29/13/1 30/10/1
f 11/3/1 31/9/1 30/10/1
f 34/9/1 33/10/1 32/15/1
f 35/6/1 33/10/1 34/9/1
f 36/5/1 35/6/1 34/9/1
f 39/9/1 38/2/1 37/3/1
f 40/10/1 38/2/1 39/9/1
f 41/6/1 40/10/1 39/9/1
f 42/9/1 6/2/1 5/3/1
f 43/10/1 6/2/1 42/9/1
f 44/6/1 43/10/1 42/9/1
f 32/15/1 46/2/1 45/3/1
f 47/16/1 46/2/1 32/15/1
f 33/10/1 47/16/1 32/15/1
f 49/9/1 17/2/1 48/3/1
f 50/10/1 17/2/1 49/9/1
f 51/6/1 50/10/1 49/9/1
f 54/5/1 53/2/1 52/3/1
f 55/6/1 53/2/1 54/5/1
f 56/17/1 55/6/1 54/5/1
f 58/6/1 29/13/1 57/5/1
f 28/14/1 29/13/1 58/6/1
f 61/2/1 60/9/1 59/3/1
f 62/10/1 60/9/1 61/2/1
f 64/2/1 59/5/1 63/3/1
f 61/6/1 59/5/1 64/2/1
f 65/6/1 60/9/1 62/10/1
f 66/5/1 60/9/1 65/6/1
f 65/2/1 67/5/1 66/3/1
f 68/6/1 67/5/1 65/2/1
f 69/6/1 67/3/1 68/2/1
f 70/5/1 67/3/1 69/6/1
f 69/2/1 71/5/1 70/3/1
f 22/6/1 71/5/1 69/2/1
f 64/18/1 18/5/1 19/6/1
f 63/19/1 18/5/1 64/18/1
f 74/2/1 73/5/1 72/3/1
f 75/6/1 73/5/1 74/2/1
f 76/6/1 73/3/1 75/2/1
f 77/5/1 73/3/1 76/6/1
f 76/2/1 78/5/1 77/3/1
f 79/6/1 78/5/1 76/2/1
f 79/2/1 80/5/1 78/3/1
f 81/6/1 80/5/1 79/2/1
f 74/18/1 80/5/1 81/6/1
f 72/19/1 80/5/1 74/18/1
f 84/3/1 83/10/1 82/2/1
f 85/9/1 83/10/1 84/3/1
f 88/3/1 87/10/1 86/2/1
f 89/9/1 87/10/1 88/3/1
f 92/3/1 91/10/1 90/2/1
f 93/9/1 91/10/1 92/3/1
f 96/3/1 95/10/1 94/2/1
f 97/9/1 95/10/1 96/3/1
f 100/3/1 99/10/1 98/2/1
f 101/9/1 99/10/1 100/3/1
f 104/3/1 103/10/1 102/2/1
f 105/9/1 103/10/1 104/3/1
f 108/3/1 107/10/1 106/2/1
f 109/9/1 107/10/1 108/3/1
f 111/3/1 110/10/1 41/2/1
f 112/9/1 110/10/1 111/3/1
f 37/5/1 114/2/1 113/3/1
f 38/6/1 114/2/1 37/5/1
f 112/9/1 115/6/1 110/10/1
f 116/5/1 115/6/1 112/9/1
f 117/5/1 115/2/1 116/3/1
f 118/6/1 115/2/1 117/5/1
f 117/3/1 106/6/1 118/2/1
f 108/5/1 106/6/1 117/3/1
f 45/5/1 107/10/1 109/9/1
f 46/6/1 107/10/1 45/5/1
f 104/5/1 35/2/1 36/3/1
f 102/6/1 35/2/1 104/5/1
f 105/9/1 119/6/1 103/10/1
f 120/5/1 119/6/1 105/9/1
f 121/5/1 119/2/1 120/3/1
f 122/6/1 119/2/1 121/5/1
f 121/3/1 123/6/1 122/2/1
f 124/5/1 123/6/1 121/3/1
f 124/3/1 125/6/1 123/2/1
f 126/5/1 125/6/1 124/3/1
f 127/5/2 125/2/2 126/3/2
f 128/6/3 125/2/3 127/5/3
s 1
f 127/3/4 129/6/5 128/2/6
f 130/5/7 129/6/5 127/3/4
f 130/3/7 131/6/1 129/2/5
s 0
f 132/5/1 131/6/1 130/3/1
f 132/3/1 133/6/1 131/2/1
f 134/5/1 133/6/1 132/3/1
f 134/3/1 98/6/1 133/2/1
f 100/5/1 98/6/1 134/3/1
f 101/9/1 14/6/1 99/10/1
f 13/5/1 14/6/1 101/9/1
f 136/3/1 135/6/1 51/2/1
f 137/5/1 135/6/1 136/3/1
f 138/5/1 135/2/1 137/3/1
f 139/6/1 135/2/1 138/5/1
f 140/5/1 139/2/1 138/3/1
f 141/6/1 139/2/1 140/5/1
f 96/5/1 141/2/1 140/3/1
f 94/6/1 141/2/1 96/5/1
f 97/9/1 142/6/1 95/10/1
f 143/5/1 142/6/1 97/9/1
f 143/3/1 2/6/1 142/2/1
f 1/5/1 2/6/1 143/3/1
f 145/3/1 144/20/1 44/2/1
f 146/5/1 144/20/1 145/3/1
f 149/3/1 148/6/1 147/2/1
f 150/5/1 148/6/1 149/3/1
f 151/5/1 148/2/1 150/3/1
f 152/6/1 148/2/1 151/5/1
f 151/3/1 153/6/1 152/2/1
f 154/5/1 153/6/1 151/3/1
f 154/3/1 155/6/1 153/2/1
f 156/5/1 155/6/1 154/3/1
f 156/3/1 90/6/1 155/2/1
f 92/5/1 90/6/1 156/3/1
f 93/9/1 157/6/1 91/10/1
f 158/5/1 157/6/1 93/9/1
f 158/3/1 159/6/1 157/2/1
f 160/5/1 159/6/1 158/3/1
f 88/5/1 159/2/1 160/3/1
f 86/6/1 159/2/1 88/5/1
f 89/9/1 8/6/1 87/10/1
f 7/5/1 8/6/1 89/9/1
f 57/3/1 161/6/1 58/2/1
f 162/5/1 161/6/1 57/3/1
f 162/3/1 163/6/1 161/2/1
f 164/5/1 163/6/1 162/3/1
f 164/3/1 165/6/1 163/2/1
f 166/5/1 165/6/1 164/3/1
f 167/5/1 165/2/1 166/3/1
f 168/6/1 165/2/1 167/5/1
f 167/3/1 169/6/1 168/2/1
f 170/5/1 169/6/1 167/3/1
f 170/3/1 171/6/1 169/2/1
f 172/5/1 171/6/1 170/3/1
f 173/5/1 171/2/1 172/3/1
f 174/6/1 171/2/1 173/5/1
f 175/5/1 174/2/1 173/3/1
f 176/6/1 174/2/1 175/5/1
f 175/3/1 177/6/1 176/2/1
f 178/5/1 177/6/1 175/3/1
f 178/3/1 179/6/1 177/2/1
f 180/5/1 179/6/1 178/3/1
f 181/5/1 179/2/1 180/3/1
f 182/6/1 179/2/1 181/5/1
f 181/3/1 183/6/1 182/2/1
f 184/5/1 183/6/1 181/3/1
f 185/5/1 183/2/1 184/3/1
f 186/6/1 183/2/1 185/5/1
f 185/3/1 24/6/1 186/2/1
f 23/5/1 24/6/1 185/3/1
f 188/5/1 27/2/1 187/3/1
f 189/6/1 27/2/1 188/5/1
f 188/3/1 190/6/1 189/2/1
f 191/5/1 190/6/1 188/3/1
f 192/5/1 190/2/1 191/3/1
f 193/6/1 190/2/1 192/5/1
f 192/3/1 82/6/1 193/2/1
f 84/5/1 82/6/1 192/3/1
f 52/5/1 83/10/1 85/9/1
f 53/6/1 83/10/1 52/5/1
f 194/2/1 113/5/1 114/6/1
f 195/3/1 113/5/1 194/2/1
f 22/2/1 20/11/1 71/3/1
f 194/6/1 196/3/1 195/5/1
f 111/5/1 41/6/1 39/9/1
f 48/5/1 17/6/1 15/9/1
f 136/5/1 51/6/1 49/9/1
f 145/5/1 44/6/1 42/9/1
f 144/20/1 146/5/1 197/21/1
f 147/6/1 198/21/1 149/5/1
f 11/3/1 30/10/1 12/2/1
f 187/5/1 27/6/1 25/9/1
