# Blender 4.1.1
# www.blender.org
mtllib polygon800.mtl
o polygon800
v 4553.726074 -760.892395 -178.099899
v 4551.089355 -746.403198 -178.099899
v 4550.314453 -760.960754 -178.099899
v 4546.531250 -721.378174 -178.099915
v 4544.282227 -761.081177 -178.099899
v 4541.041016 -721.338257 -178.099915
v 4426.928223 -722.502502 -185.368301
v 4430.984375 -762.025452 -188.714401
v 4439.854980 -722.255554 -185.385910
v 4443.465332 -761.747314 -187.895508
v 4468.669434 -761.580872 -185.321793
v 4465.152344 -722.026184 -184.966003
v 4456.067383 -761.664062 -186.608688
v 4452.503418 -722.140869 -185.070618
v 4506.476074 -761.331116 -182.557281
v 4503.096191 -721.682190 -182.557297
v 4553.406250 -721.235291 -178.099915
vn -0.0000 -0.0000 -1.0000
vn -0.0030 0.0840 -0.9965
vn 0.0638 0.0691 -0.9956
vn 0.1014 0.0180 -0.9947
vn 0.0079 0.0396 -0.9992
vn 0.1012 0.0478 -0.9937
vn 0.0243 0.0656 -0.9975
vn 0.0729 0.0062 -0.9973
vn 0.0632 0.0146 -0.9979
vn 0.1170 0.0095 -0.9931
vn 0.1166 0.0099 -0.9931
vt 2.350098 -2.222412
vt 0.977295 -2.338379
vt 2.346924 -2.349609
vt -1.350098 -2.255371
vt 2.350098 -2.000000
vt -1.350098 -2.050049
vt -1.345215 2.609619
vt 2.345215 3.290527
vt -1.345215 3.240723
vt 2.345215 2.667969
vt 2.345215 2.083740
vt -1.345215 1.449219
vt 2.345215 1.459229
vt -1.345215 2.029297
vt -1.345215 -0.291504
vt 2.345215 -0.253418
vt -1.345215 -2.032227
vt 2.345215 -2.006104
vt -1.354004 -2.573486
s 0
usemtl mt_town_isidatamiB.003
f 3/1/1 2/2/1 1/3/1
f 4/4/1 2/2/1 3/1/1
f 5/5/1 4/4/1 3/1/1
f 6/6/1 4/4/1 5/5/1
f 9/7/2 8/8/2 7/9/2
f 10/10/3 8/8/3 9/7/3
f 13/11/4 12/12/4 11/13/4
f 14/14/5 12/12/5 13/11/5
f 10/10/6 14/14/6 13/11/6
f 9/7/7 14/14/7 10/10/7
f 11/13/8 16/15/8 15/16/8
f 12/12/9 16/15/9 11/13/9
f 15/16/10 6/17/10 5/18/10
f 16/15/11 6/17/11 15/16/11
f 2/2/1 4/4/1 17/19/1
