# Blender 4.1.1
# www.blender.org
mtllib polygon59.mtl
o polygon59
v 832.209290 -7480.855469 -955.099731
v 832.209290 -7463.055664 -955.954895
v 815.867310 -7480.855469 -971.104248
v 815.867310 -7463.056152 -965.219482
v 640.815613 -7480.855469 -955.099731
v 640.815613 -7463.055664 -955.954895
v 624.473511 -7480.855469 -971.104248
v 624.473511 -7463.056152 -965.219482
v 822.748291 -7593.073730 -1052.595337
v 822.748291 -7575.272949 -1053.450195
v 806.406250 -7593.072266 -1057.624268
v 806.406250 -7575.273926 -1054.561279
v 822.748291 -7440.908691 -1052.595215
v 822.748291 -7423.109375 -1053.450073
v 806.406250 -7440.908691 -1057.624146
v 806.406250 -7423.109375 -1054.561157
v 664.307617 -7440.908691 -1052.595215
v 664.307617 -7423.109375 -1053.450073
v 647.965393 -7440.908691 -1057.624146
v 647.965393 -7423.109375 -1054.561157
v 767.823364 -7614.279297 -926.172241
v 767.823364 -7596.478516 -927.027466
v 751.481384 -7614.278809 -929.883545
v 751.481384 -7596.479492 -936.292236
v 848.173584 -7617.797363 -1008.903076
v 812.969727 -7617.797363 -1023.476013
v 835.391785 -7610.583008 -993.037537
v 783.353027 -7617.797363 -980.874817
v 848.173584 -7579.152344 -980.874878
v 956.759460 -6906.160645 -1051.182251
v 982.131042 -6906.160645 -1024.328125
v 956.759460 -6880.789551 -1043.340210
v 982.131042 -6880.789551 -1035.659180
v -182.300186 -8322.167969 -921.648071
v -141.547195 -8320.562500 -921.648071
v -164.297699 -8329.679688 -940.837097
v -152.113800 -8307.011719 -949.339050
v -189.555801 -8312.862305 -949.339050
v -183.749191 -8308.168945 -895.524231
v -169.712189 -8297.224609 -896.379517
v -193.798294 -8295.281250 -910.920410
v -179.761292 -8284.335938 -905.644226
v -152.113800 -8307.011719 -830.151733
v -189.555801 -8312.862305 -830.151733
v -150.679794 -8308.849609 -802.460632
v -182.300186 -8322.167969 -802.460632
v 921.595459 -7086.913086 -1029.114014
v 905.253235 -7086.913086 -1030.037109
v 921.595703 -7104.711914 -1029.618042
v 905.253235 -7104.711914 -1030.268066
v 841.576599 -7086.911133 -1011.754211
v 857.918701 -7086.913086 -1017.364197
v 841.576599 -7104.711914 -1021.135132
v 857.918701 -7104.711914 -1016.986145
v 890.248291 -7079.052246 -1065.872070
v 886.884460 -7112.177246 -1093.563110
v 883.725037 -7112.177246 -1065.872070
v 900.998047 -7079.052246 -1093.563110
v 685.120300 -8017.288086 -1079.574097
v 710.491882 -8017.288086 -1052.720093
v 685.120300 -7991.916992 -1071.731934
v 710.491882 -7991.916992 -1064.050903
v 373.802032 -8747.762695 -65.998123
v 395.161194 -8747.762695 -67.024475
v 373.802582 -8728.152344 -85.203629
v 395.161194 -8728.152344 -78.141991
v 165.888000 -8840.861328 -185.236618
v 187.248398 -8840.861328 -186.262939
v 165.888596 -8821.251953 -191.271347
v 187.248398 -8821.251953 -187.595459
v 348.484985 -8840.861328 -185.236618
v 369.844177 -8840.861328 -186.262939
v 348.484406 -8821.251953 -191.271347
v 369.845276 -8821.251953 -187.595459
v 140.440903 -8852.264648 -34.282352
v 161.801300 -8852.264648 -35.308693
v 140.441498 -8832.653320 -38.735992
v 161.801300 -8832.653320 -46.426346
v 136.219299 -8871.372070 -132.805649
v 136.219299 -8829.126953 -150.293945
v 144.877701 -8856.034180 -113.767342
v 136.219299 -8793.588867 -99.172142
v 182.593292 -8871.372070 -99.172066
vn 0.6993 -0.0343 -0.7140
vn 0.4739 0.2764 -0.8361
vn 0.2938 -0.0459 -0.9548
vn 0.0669 0.1692 -0.9833
vn 0.0668 0.1692 -0.9833
vn 0.2938 -0.0458 -0.9548
vn 0.2212 -0.0468 -0.9741
vn 0.4707 -0.2989 -0.8301
vn 0.2838 -0.7295 0.6223
vn 0.0707 -0.9810 0.1805
vn 0.1436 -0.8522 0.5032
vn 0.2241 -0.8672 0.4447
vn 0.3802 -0.4642 0.8000
vn 0.7110 0.2076 -0.6718
vn 0.2664 -0.3930 -0.8801
vn 0.0969 -0.9183 -0.3839
vn 0.4589 -0.8795 -0.1262
vn -0.3004 -0.9496 0.0899
vn 0.4047 -0.5037 -0.7632
vn -0.2952 -0.7455 -0.5976
vn 0.3938 -0.5619 -0.7274
vn 0.4905 -0.2230 -0.8424
vn 0.2459 -0.9467 -0.2080
vn 0.2744 -0.9283 -0.2507
vn 0.1539 -0.9854 -0.0734
vn 0.3590 -0.8523 -0.3805
vn 0.0564 0.0283 -0.9980
vn 0.0397 0.0130 -0.9991
vn 0.2905 -0.4461 0.8465
vn -0.2460 0.0206 0.9690
vn 0.9751 -0.1920 0.1113
vn 0.8664 -0.3691 0.3363
vn 0.2665 -0.3930 -0.8801
vn -0.0343 -0.6993 -0.7140
vn 0.2764 -0.4740 -0.8360
vn -0.0459 -0.2938 -0.9548
vn 0.1692 -0.0668 -0.9833
vn -0.0468 -0.2212 -0.9741
vn -0.2989 -0.4706 -0.8302
vn -0.7295 -0.2838 0.6223
vn -0.9810 -0.0707 0.1805
vn -0.8522 -0.1436 0.5032
vn -0.8672 -0.2242 0.4446
vn -0.4642 -0.3802 0.8000
vt -3.220215 2.848633
vt -3.648682 2.562500
vt -3.220215 2.553711
vt -3.648682 2.848633
vt -3.000000 4.006592
vt -2.391602 4.988770
vt -3.000000 4.652588
vt -1.879883 4.006592
vt -2.295410 4.006592
vt 1.617432 -1.224854
vt 2.224854 -0.259033
vt 2.224854 -1.224854
vt -2.166016 1.742432
vt -2.624512 1.216553
vt -2.166016 1.216553
vt -2.624512 1.742432
vt -1.524902 -0.877197
vt -1.666748 -1.093750
vt -1.349609 -1.093750
vt -1.666748 -0.693115
vt -1.312988 -0.769287
vt 0.408203 0.591553
vt 0.591309 0.408447
vt 0.591309 0.591553
vt 0.408203 0.408447
vt 0.279053 0.279053
vt 0.720947 0.279053
vt 0.519287 0.532715
vt 0.709473 0.279053
vt 0.281250 0.720947
vt 0.235596 0.235596
vt 0.764404 0.235596
vt 0.242676 0.654785
vt 0.675537 0.235596
vt 0.615967 0.764404
s 0
usemtl mt_town_isidatamiB
f 3/1/1 2/2/1 1/3/1
f 4/4/2 2/2/2 3/1/2
f 7/1/1 6/2/1 5/3/1
f 8/4/2 6/2/2 7/1/2
f 11/1/3 10/2/3 9/3/3
f 12/4/4 10/2/4 11/1/4
f 15/1/3 14/2/3 13/3/3
f 16/4/5 14/2/5 15/1/5
f 19/1/6 18/2/6 17/3/6
f 20/4/5 18/2/5 19/1/5
f 23/1/7 22/2/7 21/3/7
f 24/4/8 22/2/8 23/1/8
s 1
f 27/5/9 26/6/10 25/7/11
f 28/8/12 26/6/10 27/5/9
f 25/7/11 29/9/13 27/5/9
f 29/10/13 28/11/12 27/12/9
s 0
f 32/13/14 31/14/14 30/15/14
f 33/16/15 31/14/15 32/13/15
s 1
f 36/17/16 35/18/17 34/19/18
f 37/20/19 35/18/17 36/17/16
f 38/21/20 37/20/19 36/17/16
s 0
f 41/1/21 40/2/21 39/3/21
f 42/4/22 40/2/22 41/1/22
s 1
f 45/18/23 44/21/24 43/20/25
f 46/19/26 44/21/24 45/18/23
f 38/21/20 36/17/16 34/19/18
s 0
f 49/22/27 48/23/27 47/24/27
f 50/25/28 48/23/28 49/22/28
f 53/26/29 52/27/29 51/28/29
f 54/26/30 52/29/30 53/30/30
f 57/31/31 56/32/31 55/33/31
f 56/31/32 58/34/32 55/35/32
f 61/13/14 60/14/14 59/15/14
f 62/16/33 60/14/33 61/13/33
f 65/1/34 64/2/34 63/3/34
f 66/4/35 64/2/35 65/1/35
f 69/1/36 68/2/36 67/3/36
f 70/4/37 68/2/37 69/1/37
f 73/1/36 72/2/36 71/3/36
f 74/4/37 72/2/37 73/1/37
f 77/1/38 76/2/38 75/3/38
f 78/4/39 76/2/39 77/1/39
s 1
f 81/5/40 80/6/41 79/7/42
f 82/8/43 80/6/41 81/5/40
f 79/7/42 83/9/44 81/5/40
f 83/10/44 82/11/43 81/12/40
