# Blender 4.1.1
# www.blender.org
mtllib polygon801.mtl
o polygon801
v 4529.081055 -2268.562988 -308.275116
v 4565.443359 -2227.100098 -178.099731
v 4522.676270 -1988.567017 -271.143829
v 4564.478027 -1987.556030 -178.099747
v 4516.761230 -1586.645996 -239.970093
v 4564.475098 -1586.378052 -178.099808
v 4535.684082 -1186.647217 -208.730255
v 4569.187988 -1185.235107 -178.099869
v 4551.477051 -908.452271 -183.801697
v 4555.437012 -908.449585 -178.099899
v 4813.979004 -738.148621 -180.733810
v 4739.020020 -868.238098 -180.733780
v 4828.268066 -766.329895 -180.702591
v 4768.520996 -870.583252 -180.732178
v 4833.359375 -769.234741 -180.695099
v 4773.395996 -872.857788 -180.731781
v 4858.759277 -776.652527 -180.835709
v 4792.045410 -891.771790 -180.809174
v 4770.094238 -878.563171 -180.733780
v 4765.308105 -876.188660 -180.733780
v 4760.736328 -882.834167 -180.733780
v 4511.310059 -1586.323853 -240.113403
v 4516.694336 -1988.985962 -271.300018
v 4615.365234 -2267.285156 -289.767609
v 4799.944336 -2266.525146 -254.644424
v 4800.270996 -2228.070068 -178.099731
v 4912.644043 -2263.223145 -222.154907
v 4909.529785 -2228.349854 -178.099731
v 5143.146484 -2227.600098 -178.099731
v 5142.295410 -2257.629883 -227.867310
v 5329.259277 -2254.818115 -198.553604
v 5331.407227 -2227.736084 -178.099731
v 5421.466309 -2235.005127 -151.214417
v 4549.706543 -908.812317 -183.936295
v 4529.352051 -1186.817139 -208.926880
v 4642.289062 -693.708618 -178.099930
v 4617.317383 -651.729248 -178.099930
v 4641.074219 -694.265381 -178.099930
v 4615.045410 -652.769592 -178.099930
v 4613.119141 -654.362061 -178.099930
v 4684.835449 -687.542786 -178.099930
v 4696.861328 -640.200989 -178.099930
v 4683.581543 -687.076660 -178.099930
v 4694.519043 -639.329590 -178.099930
v 4692.029785 -639.094360 -178.099930
v 4739.020020 -868.238464 -190.432571
v 4724.103027 -859.481506 -190.432587
v 4724.104004 -859.481567 -178.099899
v 4739.020020 -868.238098 -178.099884
v 4836.737793 -763.393799 -180.693085
v 4831.689941 -760.358032 -180.700897
v 4840.669434 -756.245789 -180.693787
v 4834.206543 -751.736023 -180.733810
v 4622.731445 -770.698608 -178.099899
v 4580.752441 -795.670471 -178.099915
v 4623.288086 -771.914062 -178.099899
v 4581.791992 -797.942871 -178.099899
v 4583.385254 -799.868652 -178.099899
v 4616.565430 -728.153259 -178.099884
v 4569.224121 -716.127014 -178.099915
v 4616.099121 -729.406189 -178.099884
v 4568.353027 -718.469482 -178.099915
v 4568.117188 -720.957581 -178.099915
v 4699.721191 -790.256409 -178.099915
v 4724.693359 -832.235962 -178.099884
v 4700.937012 -789.699951 -178.099915
v 4726.965332 -831.195496 -178.099899
v 4728.892090 -829.602478 -178.099899
v 4657.176270 -796.422485 -178.099899
v 4645.149902 -843.764282 -178.099899
v 4658.429199 -796.888489 -178.099899
v 4647.492188 -844.635437 -178.099899
v 4649.979980 -844.870789 -178.099899
v 4719.279297 -713.266663 -178.099915
v 4761.259277 -688.294861 -178.099930
v 4718.723145 -712.051086 -178.099915
v 4760.218262 -686.022278 -178.099930
v 4758.625000 -684.096558 -178.099930
v 4725.445312 -755.812134 -178.099899
v 4772.787109 -767.838257 -178.099899
v 4725.911133 -754.559082 -178.099899
v 4773.658203 -765.495789 -178.099899
v 4773.894043 -763.007568 -178.099899
v 5329.893066 -2259.845215 -198.550522
v 5142.071289 -2263.429199 -227.899399
v 4523.831055 -2271.973145 -308.756714
v 4615.117188 -2273.402100 -290.184418
v 4799.778320 -2272.164062 -254.698196
v 4756.079102 -890.703796 -178.099884
v 4734.516113 -876.216187 -178.099884
v 4813.979980 -738.148804 -190.432602
v 4798.962402 -729.537048 -190.432587
v 4798.962402 -729.537048 -178.099884
v 4765.705078 -886.149109 -180.993378
v 4765.676270 -886.200684 -177.683884
v 4760.609375 -882.682007 -178.099884
v 4834.206543 -751.736023 -178.099899
v 4840.747070 -756.103699 -177.683914
v 4912.211426 -2267.887207 -222.320618
v 4838.643066 -744.367371 -178.099899
v 4818.622070 -730.216614 -178.099899
v 4554.089355 -881.318054 -178.099884
v 4615.974121 -730.737061 -178.099899
v 4624.140137 -772.944092 -178.099899
v 4659.759766 -797.014465 -178.099899
v 4701.967285 -788.847839 -178.099915
v 4726.037109 -753.228271 -178.099899
v 4717.871094 -711.021179 -178.099915
v 4682.251465 -686.950867 -178.099930
v 4640.043457 -695.117188 -178.099930
v 4813.979004 -738.148682 -178.099899
vn 0.5628 0.0809 -0.8226
vn 0.6408 0.6423 -0.4205
vn 0.4534 0.1952 -0.8697
vn 0.9059 0.0219 -0.4229
vn 0.5891 0.0357 -0.8073
vn 0.7881 0.0045 -0.6156
vn 0.4844 0.0389 -0.8740
vn 0.6758 0.0103 -0.7370
vn 0.5295 0.0661 -0.8457
vn 0.8207 0.0408 -0.5699
vn 0.0010 -0.0006 -1.0000
vn 0.0001 0.0002 -1.0000
vn 0.0012 -0.0004 -1.0000
vn 0.0002 0.0002 -1.0000
vn -0.0046 0.0030 -1.0000
vn -0.0028 0.0014 -1.0000
vn -0.0024 0.0017 -1.0000
vn -0.0000 -0.0000 -1.0000
vn 0.0307 0.0764 -0.9966
vn 0.0186 0.1055 -0.9942
vn 0.0308 0.0776 -0.9965
vn 0.0637 0.8881 -0.4552
vn 0.1913 0.5128 -0.8369
vn 0.1390 0.5996 -0.7881
vn 0.0728 0.4894 -0.8690
vn -0.0002 0.7841 -0.6207
vn 0.0165 0.8395 -0.5431
vn 0.0483 0.4822 -0.8747
vn 0.2283 0.3247 -0.9179
vn 0.1505 0.5882 -0.7946
vn 0.3045 0.5081 -0.8057
vn 0.0578 0.0858 -0.9946
vn 0.0286 0.0874 -0.9958
vn 0.0289 0.0765 -0.9967
vn -0.5063 -0.8624 -0.0000
vn 0.0013 -0.0004 -1.0000
vn 0.0011 -0.0007 -1.0000
vn 0.0029 -0.0047 -1.0000
vn 0.3030 0.0376 -0.9523
vn 0.0619 0.0035 -0.9981
vn 0.1985 0.0558 -0.9785
vn 0.1943 -0.1625 -0.9674
vn 0.2306 0.0031 -0.9731
vn -0.1546 -0.2301 -0.9608
vn -0.1546 -0.2300 -0.9608
vn 0.4975 0.8675 -0.0000
vn -0.5555 -0.8313 -0.0179
vn -0.5714 -0.8204 0.0199
vn 0.8665 -0.4993 -0.0000
vn 0.8665 -0.4993 0.0001
vn 0.5722 0.8201 -0.0000
vn 0.5569 0.8289 -0.0534
vn -0.8665 0.4992 -0.0000
vn 0.1392 0.0221 -0.9900
vn -0.0358 0.0246 -0.9991
vn 0.0132 0.0266 -0.9996
vn 0.1635 0.2433 -0.9561
vn 0.1595 0.2257 -0.9610
vn 0.0013 -0.0005 -1.0000
vn -0.0021 -0.0032 -1.0000
vn 0.0332 0.2025 -0.9787
vn 0.0056 0.1314 -0.9913
vn -0.8708 0.4916 -0.0000
vn -0.8630 0.5052 0.0003
vn -0.8686 0.4905 -0.0700
vn -0.8567 0.5158 -0.0000
vt -65.457031 3.226563
vt -60.730469 1.750000
vt -60.386719 3.718750
vt -65.410156 1.750000
vt -70.808586 2.894531
vt -70.820305 1.750000
vt -76.125000 2.378906
vt -76.109375 1.750000
vt -80.859375 2.011719
vt -80.859375 1.753906
vt 3.984375 2.832031
vt -0.824219 3.750000
vt 4.539063 3.750000
vt -0.304688 2.820313
vt 3.996094 2.628906
vt -0.277344 2.632813
vt 4.296875 1.757813
vt -0.468750 1.757813
vt -0.511719 2.632813
vt -0.535156 2.816406
vt -0.824219 2.839844
vt -70.800781 3.058594
vt -65.437500 3.406250
vt -56.312500 1.750000
vt -56.265629 2.933594
vt -59.250000 3.441406
vt -54.464840 2.492188
vt -54.484379 1.750000
vt -49.667969 1.750000
vt -49.667969 2.617188
vt -46.750000 2.210938
vt -46.750000 1.750000
vt -44.839840 1.746094
vt -80.859375 2.144531
vt -76.093750 2.550781
vt -82.574219 -40.144527
vt -82.457031 -43.714840
vt -82.476555 -40.132809
vt -82.640625 -43.738277
vt -82.820305 -43.710938
vt -0.246094 3.582031
vt 0.738281 4.000000
vt -0.246094 4.000000
vt 0.738281 3.480469
vt -0.246094 3.480469
vt 4.230469 2.835938
vt 4.238281 2.628906
vt 4.539063 2.628906
vt 4.539063 2.902344
vt -46.750000 2.296875
vt -49.667969 2.761719
vt -59.277340 3.636719
vt -60.480469 3.902344
vt -56.265629 3.109375
vt 3.164063 3.230469
vt 1.648438 4.000000
vt 1.640625 3.230469
vt 3.164063 4.000000
vt 0.738281 3.589844
vt 0.339844 0.285156
vt 0.660156 0.550781
vt 0.339844 0.550781
vt 0.660156 0.285156
vt 4.507813 2.000000
vt -0.851562 1.828125
vt 4.507813 1.824219
vt -0.851562 2.000000
vt 4.507813 1.492188
vt -0.851562 1.492188
vt 0.945312 0.210938
vt 0.605469 0.433594
vt 0.945312 0.433594
vt 0.605469 0.210938
vt -54.464840 2.648438
vt -0.824219 2.632813
vt -0.250000 4.000000
vt 1.156250 3.230469
vt 1.164063 4.000000
vt -0.250000 3.230469
vt -81.187500 1.753906
vt -60.332027 3.902344
vt -82.671875 -40.128910
vt 4.738281 2.214844
vt 4.742188 1.542969
vt 4.988281 1.539063
vt -0.871094 1.468750
vt -0.144531 1.445313
vt -0.871094 1.140625
vt 0.113281 0.457031
vt 1.101563 0.453125
vt 1.101563 0.910156
vt 0.839844 0.230469
vt 0.050781 0.234375
vt 0.839844 0.687500
s 1
usemtl mt_town_isigakiA.006
f 3/1/1 2/2/2 1/3/3
f 4/4/4 2/2/2 3/1/1
f 5/5/5 4/4/4 3/1/1
f 6/6/6 4/4/4 5/5/5
f 7/7/7 6/6/6 5/5/5
f 8/8/8 6/6/6 7/7/7
f 9/9/9 8/8/8 7/7/7
f 10/10/10 8/8/8 9/9/9
s 0
f 13/11/11 12/12/11 11/13/11
f 14/14/12 12/12/12 13/11/12
f 15/15/13 14/14/13 13/11/13
f 16/16/14 14/14/14 15/15/14
f 17/17/15 16/16/15 15/15/15
f 18/18/16 16/16/16 17/17/16
f 19/19/17 16/16/17 18/18/17
f 14/14/14 16/16/14 19/19/14
f 20/20/12 14/14/12 19/19/12
f 12/12/12 14/14/12 20/20/12
f 21/21/18 12/12/18 20/20/18
f 5/5/19 22/22/19 7/7/19
s 1
f 23/23/20 22/22/21 5/5/5
f 3/1/1 23/23/20 5/5/5
f 1/3/3 23/23/20 3/1/1
f 26/24/22 25/25/23 24/26/24
f 27/27/25 25/25/23 26/24/22
f 28/28/26 27/27/25 26/24/22
f 29/29/27 27/27/25 28/28/26
f 29/29/27 30/30/28 27/27/25
f 31/31/29 30/30/28 29/29/27
f 32/32/30 31/31/29 29/29/27
f 33/33/31 31/31/29 32/32/30
f 7/7/7 34/34/32 9/9/9
f 35/35/33 34/34/32 7/7/7
s 0
f 22/22/34 35/35/34 7/7/34
f 38/36/18 37/37/18 36/38/18
f 39/39/18 37/37/18 38/36/18
f 40/40/18 39/39/18 38/36/18
f 43/36/18 42/37/18 41/38/18
f 44/39/18 42/37/18 43/36/18
f 45/40/18 44/39/18 43/36/18
f 12/41/35 47/42/35 46/43/35
f 48/44/35 47/42/35 12/41/35
f 49/45/35 48/44/35 12/41/35
f 51/46/36 50/47/36 13/11/36
f 52/48/37 50/47/37 51/46/37
f 53/49/38 52/48/38 51/46/38
f 56/36/18 55/37/18 54/38/18
f 57/39/18 55/37/18 56/36/18
f 58/40/18 57/39/18 56/36/18
f 61/36/18 60/37/18 59/38/18
f 62/39/18 60/37/18 61/36/18
f 63/40/18 62/39/18 61/36/18
f 66/36/18 65/37/18 64/38/18
f 67/39/18 65/37/18 66/36/18
f 68/40/18 67/39/18 66/36/18
f 71/36/18 70/37/18 69/38/18
f 72/39/18 70/37/18 71/36/18
f 73/40/18 72/39/18 71/36/18
f 76/36/18 75/37/18 74/38/18
f 77/39/18 75/37/18 76/36/18
f 78/40/18 77/39/18 76/36/18
f 81/36/18 80/37/18 79/38/18
f 82/39/18 80/37/18 81/36/18
f 83/40/18 82/39/18 81/36/18
s 1
f 2/2/2 24/26/24 1/3/3
f 26/24/22 24/26/24 2/2/2
f 84/50/39 31/31/29 33/33/31
f 85/51/40 31/31/29 84/50/39
f 1/3/3 87/52/41 86/53/42
f 24/26/24 87/52/41 1/3/3
f 24/26/24 88/54/43 87/52/41
f 25/25/23 88/54/43 24/26/24
s 0
f 90/55/44 21/56/44 89/57/44
f 12/58/45 21/56/45 90/55/45
f 92/43/46 11/59/46 91/42/46
f 93/45/46 11/59/46 92/43/46
f 95/60/47 21/61/47 94/62/47
f 96/63/48 21/61/48 95/60/48
f 46/64/49 11/65/49 12/66/49
f 91/67/50 11/65/50 46/64/50
f 47/67/18 91/68/18 46/69/18
f 92/64/18 91/68/18 47/67/18
f 97/70/51 52/71/51 53/72/51
f 98/73/52 52/71/52 97/70/52
s 1
f 47/68/53 93/67/53 92/69/53
s 0
f 48/64/53 93/67/53 47/68/53
s 1
f 27/27/25 85/51/40 99/74/54
f 30/30/28 85/51/40 27/27/25
s 0
f 15/15/15 50/47/15 17/17/15
f 13/11/36 50/47/36 15/15/36
s 1
f 25/25/23 99/74/54 88/54/43
f 27/27/25 99/74/54 25/25/23
s 0
f 20/20/55 94/75/55 21/21/55
f 19/19/56 94/75/56 20/20/56
f 11/76/57 100/77/57 53/78/57
f 101/79/58 100/77/58 11/76/58
f 11/13/59 51/46/59 13/11/59
f 53/49/60 51/46/60 11/13/60
f 10/10/10 9/9/10 102/80/10
f 34/34/61 102/80/61 9/9/61
f 86/81/62 23/23/62 1/3/62
s 1
f 31/31/29 85/51/40 30/30/28
s 0
f 103/82/18 63/40/18 61/36/18
f 104/82/18 58/40/18 56/36/18
f 105/82/18 73/40/18 71/36/18
f 106/82/18 68/40/18 66/36/18
f 107/82/18 83/40/18 81/36/18
f 108/82/18 78/40/18 76/36/18
f 109/82/18 45/40/18 43/36/18
f 110/82/18 40/40/18 38/36/18
f 90/83/63 49/84/63 12/85/63
f 111/86/64 101/87/64 11/88/64
f 93/45/46 111/44/46 11/59/46
f 89/89/65 96/90/65 21/91/65
f 97/92/66 100/93/66 53/94/66
