# Blender 4.1.1
# www.blender.org
mtllib polygon257.mtl
o polygon257
v -1484.014038 3856.840820 -210.575073
v -1482.434082 3875.887207 -171.693054
v -1491.047119 3871.809082 -210.575058
v -1504.906006 3884.185303 -171.693054
v -1508.586060 3878.284912 -210.575058
v -1527.674072 3876.739990 -171.693054
v -1526.356079 3872.474854 -210.575058
v -1537.401978 3857.914062 -171.693069
v -1533.948120 3857.781982 -210.575073
v -1526.914917 3842.812988 -210.575073
v -1491.607056 3842.147217 -210.575073
v -1508.981079 3857.311279 -210.575073
v -1483.150024 3837.882080 -171.693039
v -1473.422119 3856.708008 -171.693069
v -1509.376953 3836.337158 -210.575058
v -1528.391113 3838.734863 -171.693039
v -1505.919067 3830.437012 -171.693039
v -1324.665894 3856.840820 -242.923767
v -1323.085083 3875.887207 -204.041733
v -1331.698975 3871.809082 -242.923752
v -1345.557007 3884.185303 -204.041733
v -1349.237061 3878.284912 -242.923752
v -1368.326050 3876.739990 -204.041733
v -1367.006958 3872.474854 -242.923752
v -1378.054077 3857.914062 -204.041748
v -1374.599976 3857.781982 -242.923767
v -1367.567017 3842.812988 -242.923767
v -1332.258057 3842.147217 -242.923767
v -1349.633057 3857.311279 -242.923767
v -1323.802002 3837.882080 -204.041733
v -1314.073975 3856.708008 -204.041748
v -1350.028076 3836.337158 -242.923737
v -1369.042114 3838.734863 -204.041733
v -1346.569946 3830.437012 -204.041733
v -1057.262085 3777.408936 -85.776932
v -1057.262085 3777.982178 -82.933929
v -1057.262085 3519.917969 -35.420658
v -1057.262085 3520.491211 -32.577679
v -1024.905029 3519.917969 -35.420658
v -1024.905029 3520.491211 -32.577679
v -1024.905029 3777.408936 -85.776932
v -1024.905029 3777.982178 -82.933929
vn 0.6427 0.7340 -0.2194
vn 0.6735 0.7048 -0.2231
vn 0.9647 -0.0187 -0.2628
vn 0.0365 0.9875 -0.1533
vn -0.0010 0.9887 -0.1499
vn -0.6364 0.7641 -0.1054
vn -0.6529 0.7502 -0.1044
vn -0.9959 0.0192 -0.0885
vn -0.9959 0.0183 -0.0885
vn -0.6805 -0.7256 -0.1019
vn -0.0000 -0.0000 -1.0000
vn 0.6472 -0.7297 -0.2208
vn 0.6145 -0.7585 -0.2169
vn 0.9647 -0.0178 -0.2628
vn -0.6653 -0.7394 -0.1028
vn -0.0383 -0.9885 -0.1466
vn -0.0008 -0.9887 -0.1500
vn 0.6427 0.7341 -0.2194
vn 0.6735 0.7047 -0.2231
vn -0.0007 -0.9887 -0.1500
vn -1.0000 -0.0000 -0.0000
vn 1.0000 -0.0000 -0.0000
vn 1.0000 -0.0000 -0.0001
vn -0.0000 0.1919 0.9814
vn -0.0000 -0.9803 0.1977
vn -0.0000 -0.1919 -0.9814
vn -0.0000 0.9803 -0.1977
vt 0.320068 0.118652
vt 0.320068 0.014648
vt 0.280029 0.118652
vt 0.359863 0.014648
vt 0.359863 0.118652
vt 0.399902 0.014648
vt 0.399902 0.118652
vt 0.439697 0.014648
vt 0.439697 0.118652
vt 0.479736 0.118652
vt 0.399902 0.151123
vt 0.240234 0.118652
vt 0.240234 0.014648
vt 0.280029 0.014648
vt 0.519531 0.118652
vt 0.559326 0.118652
vt 0.479736 0.014648
vt 0.519531 0.014648
vt 0.559326 0.014648
vt 3.778809 0.833252
vt -2.756348 0.812500
vt -2.735596 0.833252
vt 3.758057 0.812500
vt -2.735596 0.583252
vt 3.758057 0.562500
vt 3.778809 0.583252
vt -2.756348 0.562500
vt -2.756348 0.833252
vt 3.758057 0.583252
vt -2.756348 0.583252
vt 3.758057 0.833252
vt 3.892090 0.833252
vt 3.892090 0.583252
s 1
usemtl mt_town_n_tetu.002
f 3/1/1 2/2/2 1/3/3
f 4/4/4 2/2/2 3/1/1
f 5/5/5 4/4/4 3/1/1
f 6/6/6 4/4/4 5/5/5
f 7/7/7 6/6/6 5/5/5
f 8/8/8 6/6/6 7/7/7
f 9/9/9 8/8/8 7/7/7
f 10/10/10 8/8/8 9/9/9
s 0
f 12/11/11 1/3/11 11/12/11
f 3/1/11 1/3/11 12/11/11
f 5/5/11 3/1/11 12/11/11
f 12/11/11 7/7/11 5/5/11
f 9/9/11 7/7/11 12/11/11
f 10/10/11 9/9/11 12/11/11
s 1
f 1/3/3 13/13/12 11/12/13
f 14/14/14 13/13/12 1/3/3
f 2/2/2 14/14/14 1/3/3
s 0
f 12/11/11 15/15/11 10/10/11
f 11/16/11 15/15/11 12/11/11
s 1
f 10/10/10 16/17/15 8/8/8
f 15/15/16 16/17/15 10/10/10
f 15/15/16 17/18/17 16/17/15
f 11/16/13 17/18/17 15/15/16
f 13/19/12 17/18/17 11/16/13
f 20/1/18 19/2/19 18/3/3
f 21/4/4 19/2/19 20/1/18
f 22/5/5 21/4/4 20/1/18
f 23/6/6 21/4/4 22/5/5
f 24/7/7 23/6/6 22/5/5
f 25/8/8 23/6/6 24/7/7
f 26/9/9 25/8/8 24/7/7
f 27/10/10 25/8/8 26/9/9
s 0
f 29/11/11 18/3/11 28/12/11
f 20/1/11 18/3/11 29/11/11
f 22/5/11 20/1/11 29/11/11
f 29/11/11 24/7/11 22/5/11
f 26/9/11 24/7/11 29/11/11
f 27/10/11 26/9/11 29/11/11
s 1
f 18/3/3 30/13/12 28/12/13
f 31/14/14 30/13/12 18/3/3
f 19/2/19 31/14/14 18/3/3
s 0
f 29/11/11 32/15/11 27/10/11
f 28/16/11 32/15/11 29/11/11
s 1
f 27/10/10 33/17/15 25/8/8
f 32/15/16 33/17/15 27/10/10
f 32/15/16 34/18/20 33/17/15
f 28/16/13 34/18/20 32/15/16
f 30/19/12 34/18/20 28/16/13
s 0
f 37/20/21 36/21/21 35/22/21
f 38/23/21 36/21/21 37/20/21
f 41/24/22 40/25/22 39/26/22
f 42/27/23 40/25/23 41/24/23
f 36/28/24 40/29/24 42/30/24
f 38/31/24 40/29/24 36/28/24
f 38/32/25 39/26/25 40/33/25
f 37/20/25 39/26/25 38/32/25
f 37/20/26 41/24/26 39/26/26
f 35/22/26 41/24/26 37/20/26
f 35/22/27 42/30/27 41/24/27
f 36/28/27 42/30/27 35/22/27
