# Blender 4.1.1
# www.blender.org
mtllib polygon803.mtl
o polygon803
v 4769.737305 -878.611267 -335.085785
v 4769.911133 -878.711243 -314.420197
v 4700.491211 -1001.265991 -335.085724
v 4769.961426 -878.625244 -256.384888
v 4700.395020 -1001.578064 -177.683899
v 4765.705078 -886.149109 -180.993378
v 4765.676270 -886.200806 -177.683884
v 4770.094238 -878.563171 -180.733780
v 4835.706055 -1210.769043 -267.821930
v 4877.648438 -1136.636108 -214.738464
v 4876.704102 -1138.767944 -267.821991
v 4916.229980 -1068.131104 -214.108887
v 4956.721191 -995.915222 -267.821960
v 4989.012207 -940.194153 -215.071060
v 5075.428711 -788.642212 -214.428711
v 5115.284668 -717.523743 -267.822021
v 5035.267090 -860.375549 -267.821991
v 5076.529297 -786.712708 -359.758575
v 5035.267090 -860.375549 -451.694916
v 5076.529297 -786.712830 -451.695007
v 4836.739746 -763.390564 -177.683914
v 4858.761230 -776.649170 -177.683914
v 4836.737793 -763.393799 -180.693085
v 4858.759277 -776.652527 -180.835709
v 4836.689941 -763.476135 -256.384888
v 4858.711426 -776.734436 -256.384888
v 4904.987793 -639.034912 -335.085785
v 4905.060059 -639.141418 -177.683929
v 4840.669434 -756.245789 -180.693787
v 4937.355469 -656.840454 -335.079315
v 4873.958008 -770.019287 -338.275574
v 4915.221191 -696.356567 -359.758484
v 4873.959473 -770.019348 -451.694885
v 4915.221191 -696.356628 -451.694885
v 4992.688477 -557.454407 -175.885513
v 4937.355469 -656.840454 -175.885513
v 4953.977051 -627.167725 -267.822021
v 4937.375000 -656.806335 -307.204803
v 4754.151367 -979.223694 -451.694855
v 4795.412109 -905.560486 -451.694824
v 4754.151367 -979.223572 -359.758453
v 4795.412109 -905.560364 -338.295624
v 4732.166016 -1018.473022 -335.200134
v 4732.166016 -1018.473022 -175.885376
v 4674.395996 -1120.414062 -175.885376
v 4715.395020 -1048.413086 -267.821960
v 4674.395996 -1120.413940 -267.821960
v 4873.959473 -770.019287 -543.631470
v 4795.412109 -905.560425 -543.631409
v 4956.721191 -995.915161 -543.631470
v 4956.721191 -995.915222 -451.694855
v 5035.267090 -860.375488 -543.631470
v 4915.459961 -1069.578003 -451.694855
v 4915.459961 -1069.577881 -359.758453
v 4877.648438 -1136.635010 -175.885452
v 4835.706055 -1210.769165 -175.885376
v 4916.229980 -1068.131104 -175.885468
v 4989.012207 -940.194580 -175.885468
v 5002.529297 -916.868408 -214.905792
v 5002.529297 -916.868652 -175.885483
v 5075.428711 -788.642273 -175.885498
v 4715.395020 -1048.413086 -359.758453
v 4876.704102 -1138.767944 -359.758484
v 5115.284668 -717.523682 -359.758514
v 4953.977051 -627.167725 -359.758514
v 5153.995117 -647.810547 -267.821991
v 5153.995117 -647.810425 -175.885513
v 4992.688477 -557.454468 -267.822021
v 4770.028320 -878.508301 -177.683884
v 4792.049316 -891.767029 -177.683884
v 4792.045410 -891.771790 -180.809174
v 4791.981445 -891.883728 -256.384888
v 4835.158203 -762.726868 -335.085754
v 4836.655273 -763.538391 -313.699921
v 4840.747070 -756.103699 -177.683914
v 4732.119141 -1018.556091 -307.494354
v 4797.458008 -741.311340 -256.384888
v 4731.003418 -856.879211 -256.384918
v 4797.409180 -741.297668 -314.428986
v 4730.942383 -856.909424 -314.428986
v 4931.060059 -925.572876 -564.082092
v 4930.479980 -925.157288 -598.062195
v 4870.526367 -891.766785 -564.082092
v 4870.499023 -891.837769 -598.062256
v 4806.047363 -792.872498 -329.718292
v 4806.053711 -793.038879 -341.363678
v 4782.815430 -832.441467 -329.718323
v 4782.712402 -832.621460 -341.363708
v 4763.288086 -821.181580 -341.363708
v 4763.322266 -821.058350 -329.718323
v 5114.646484 -721.869507 -214.876602
v 5114.696289 -721.528381 -175.885498
v 4960.451172 -874.708191 -564.082092
v 4960.869141 -874.539062 -598.062256
v 4899.916992 -840.901428 -564.082092
v 4899.975586 -841.115479 -598.062256
v 4786.520020 -781.548767 -329.718292
v 4786.779785 -781.620300 -341.363678
vn -0.8708 0.4916 0.0097
vn -0.8701 0.4929 -0.0000
vn -0.8702 0.4927 0.0004
vn -0.8703 0.4924 -0.0000
vn -0.8703 0.4924 0.0003
vn -0.8656 0.5008 0.0003
vn 0.8690 -0.4948 0.0044
vn 0.8713 -0.4907 0.0042
vn 0.8725 -0.4887 0.0007
vn 0.8691 -0.4945 -0.0097
vn 0.8725 -0.4887 0.0003
vn 0.8725 -0.4887 -0.0000
vn 0.8724 -0.4887 -0.0000
vn -0.5158 -0.8567 0.0013
vn -0.5158 -0.8567 0.0012
vn -0.8765 0.4815 0.0007
vn -0.8763 0.4818 -0.0000
vn -0.8762 0.4819 -0.0000
vn -0.8724 0.4887 -0.0000
vn -0.8725 0.4887 -0.0000
vn -0.8737 0.4864 -0.0010
vn -0.8700 0.4930 -0.0019
vn -0.8690 0.4948 -0.0000
vn -0.8652 0.5014 -0.0000
vn 0.8652 -0.5014 -0.0000
vn 0.8704 -0.4924 -0.0000
vn 0.8692 -0.4945 -0.0000
vn 0.8693 -0.4942 -0.0000
vn -0.4887 -0.8725 -0.0000
vn 0.4887 0.8725 -0.0000
vn 0.8652 -0.5014 -0.0001
vn 0.4887 0.8724 -0.0000
vn 0.5158 0.8567 -0.0043
vn 0.5156 0.8568 -0.0020
vn 0.5158 0.8567 -0.0017
vn 0.5156 0.8568 -0.0016
vn -0.8681 0.4901 0.0793
vn -0.8766 0.4811 -0.0000
vn -0.8763 0.4818 -0.0003
vn -0.8762 0.4819 -0.0002
vn -0.8627 0.4995 0.0793
vn -0.0000 -0.0000 1.0000
vn -0.8669 0.4985 0.0008
vn -0.8669 0.4984 0.0006
vn -0.4874 -0.8732 0.0010
vn -0.4883 -0.8727 0.0017
vn -0.4876 -0.8731 -0.0023
vn -0.4856 -0.8742 0.0022
vn 0.8623 -0.5063 0.0077
vn 0.8614 -0.5079 0.0002
vn -0.5074 -0.8615 0.0178
vn -0.5042 -0.8635 0.0106
vn 0.8824 -0.4704 0.0030
vn 0.8618 -0.5064 -0.0312
vn 0.8693 -0.4942 0.0101
vn 0.8743 -0.4855 -0.0000
vn -0.8743 0.4855 -0.0000
vn 0.8886 -0.4580 -0.0269
vn -0.4774 -0.8787 -0.0020
vn -0.4695 -0.8829 -0.0000
vn -0.8700 0.4922 -0.0272
vn -0.8656 0.5008 0.0011
vn 0.4820 0.8762 0.0004
vn 0.4806 0.8769 -0.0000
vn 0.4930 0.8700 -0.0002
vn 0.4919 0.8707 -0.0012
vn 0.8657 -0.5002 -0.0209
vn 0.8573 -0.5147 0.0080
vn -0.8658 0.5003 -0.0046
vn -0.8646 0.5025 -0.0003
vn 0.4876 0.8731 -0.0047
vn 0.4811 0.8766 0.0103
vn -0.8621 0.5062 -0.0224
vn -0.8598 0.5106 -0.0029
vn 0.5016 0.8651 0.0059
vn 0.5097 0.8603 -0.0120
vt -3.017090 3.996338
vt -0.600098 3.730469
vt -0.600098 3.994873
vt -0.600098 2.988037
vt -3.017090 1.981201
vt -0.750000 2.023438
vt -0.750977 1.981201
vt -0.600098 2.026123
vt 4.016602 -1.006592
vt 3.986084 -1.615967
vt 5.026855 -1.006592
vt 3.023926 -1.623291
vt 2.009277 -1.006592
vt 1.180664 -1.617676
vt -0.019287 -1.006592
vt -2.030273 -1.006592
vt -1.029541 -1.625000
vt -1.019287 0.002441
vt -0.019287 0.989014
vt -1.018555 0.989014
vt 1.187744 0.038330
vt 0.817627 0.000000
vt 1.187744 0.000000
vt 0.817627 0.040039
vt 1.187744 1.000000
vt 0.817627 1.000000
vt 1.600586 2.987549
vt 4.019775 1.981201
vt 4.019775 3.992432
vt 1.739746 2.019531
vt 1.600586 2.019531
vt 1.600586 1.981201
vt 3.015381 0.000488
vt 2.009277 -0.225586
vt 3.589355 -0.270508
vt 2.009277 0.989014
vt 3.018066 0.989014
vt 4.020264 -1.006592
vt 3.609131 -2.071289
vt 5.019531 -2.071289
vt 3.589844 -0.575195
vt -1.019775 0.989014
vt -0.019287 -0.225342
vt -1.593262 -0.266846
vt -3.021484 -2.071289
vt -1.596924 -2.071289
vt -3.020752 -1.006592
vt -0.004883 1.985352
vt 2.016602 0.989014
vt 2.016602 1.985352
vt -0.004883 0.989014
vt -0.004883 1.983154
vt 2.016602 1.981934
vt 3.013672 -0.000488
vt 3.014404 0.989014
vt 5.026855 -2.071289
vt 3.979492 -2.071289
vt 3.016602 -2.071289
vt 1.179443 -2.071289
vt 0.822021 -2.071289
vt 0.814209 -1.619629
vt -1.026367 -2.071289
vt -2.029541 0.003662
vt 4.017334 -0.000977
vt 4.982910 0.001709
vt 7.010742 -1.006592
vt 7.010742 0.001709
vt 4.982910 -1.006592
vt 4.982910 0.989014
vt 7.010742 0.989014
vt 4.982910 1.992188
vt 7.010742 1.992188
vt 4.982910 -2.071289
vt 7.010742 -2.071289
vt 0.817627 0.044678
vt 1.187744 0.039795
vt 1.600586 3.720459
vt 1.600586 3.993896
vt 4.023193 -0.000244
vt 1.742432 1.981201
vt -1.595215 -0.571289
vt -0.388428 0.428467
vt 0.395020 0.007568
vt 0.392822 0.429443
vt -0.385254 0.010742
vt 0.392334 0.547852
vt -0.387695 0.547852
vt 2.015137 0.498779
vt -1.022461 -0.615479
vt 2.015381 -0.616699
vt -1.023926 0.502685
vt 5.025635 0.500732
vt 4.046631 -0.616211
vt 5.025635 -0.616211
vt 4.066162 0.500732
vt -1.000000 0.000000
vt -2.000000 1.000000
vt -2.000000 0.000000
vt -1.000000 1.000000
vt -2.000000 -0.002197
vt -1.000000 0.434570
vt -1.000000 -0.002197
vt -2.000000 0.434570
vt -1.976074 -2.073730
vt -1.976318 -1.619629
vt -2.029297 0.002930
vt 5.019531 -1.006592
vt 3.974854 1.003662
vt 3.380371 -1.025391
vt 3.380371 1.003662
vt 3.954834 -1.025391
vt -0.600098 1.981201
vt 3.986572 1.003662
vt 3.981934 -1.025391
vt 3.975830 -0.616211
vt 4.941162 0.500732
vt 3.975830 0.500732
vt 4.959717 -0.616211
s 0
usemtl mt_town_kabeAD.002
f 3/1/1 2/2/1 1/3/1
f 4/4/2 2/2/2 3/1/2
f 5/5/3 4/4/3 3/1/3
f 6/6/4 4/4/4 5/5/4
f 7/7/5 6/6/5 5/5/5
f 8/8/6 6/6/6 7/7/6
f 11/9/7 10/10/7 9/11/7
f 12/12/8 10/10/8 11/9/8
f 13/13/9 12/12/9 11/9/9
f 14/14/10 12/12/10 13/13/10
f 17/15/11 16/16/11 15/17/11
f 18/18/12 16/16/12 17/15/12
f 19/19/12 18/18/12 17/15/12
f 20/20/13 18/18/13 19/19/13
f 23/21/14 22/22/14 21/23/14
f 24/24/15 22/22/15 23/21/15
f 25/25/14 24/24/14 23/21/14
f 26/26/14 24/24/14 25/25/14
f 25/27/16 28/28/16 27/29/16
f 29/30/17 28/28/17 25/27/17
f 23/31/18 29/30/18 25/27/18
f 21/32/18 29/30/18 23/31/18
f 32/33/19 31/34/19 30/35/19
f 33/36/19 31/34/19 32/33/19
f 34/37/20 33/36/20 32/33/20
f 37/38/21 36/39/21 35/40/21
f 38/41/19 36/39/19 37/38/19
f 30/35/20 38/41/20 37/38/20
f 41/18/20 40/19/20 39/42/20
f 42/43/20 40/19/20 41/18/20
f 43/44/20 42/43/20 41/18/20
f 46/16/22 45/45/22 44/46/22
f 47/47/23 45/45/23 46/16/23
f 49/48/24 33/49/24 48/50/24
f 40/51/24 33/49/24 49/48/24
f 52/52/25 51/49/25 50/53/25
f 19/51/25 51/49/25 52/52/25
f 19/19/25 13/13/25 51/36/25
f 17/15/25 13/13/25 19/19/25
f 51/36/12 54/54/12 53/55/12
f 13/13/12 54/54/12 51/36/12
f 56/56/26 10/10/26 55/57/26
f 9/11/26 10/10/26 56/56/26
f 14/14/27 57/58/27 12/12/27
f 58/59/27 57/58/27 14/14/27
f 15/17/28 60/60/28 59/61/28
f 61/62/28 60/60/28 15/17/28
f 62/63/20 43/44/20 41/18/20
f 46/16/20 43/44/20 62/63/20
f 54/54/12 11/9/12 63/64/12
f 13/13/12 11/9/12 54/54/12
f 63/65/29 46/66/29 62/67/29
f 11/68/29 46/66/29 63/65/29
f 65/65/30 16/66/30 64/67/30
f 37/68/30 16/66/30 65/65/30
f 53/69/29 41/67/29 39/70/29
f 54/65/29 41/67/29 53/69/29
f 34/69/30 18/67/30 20/70/30
f 32/65/30 18/67/30 34/69/30
f 50/71/29 40/70/29 49/72/29
f 51/69/29 40/70/29 50/71/29
f 48/71/30 19/70/30 52/72/30
f 33/69/30 19/70/30 48/71/30
f 56/73/29 47/66/29 9/68/29
f 45/74/29 47/66/29 56/73/29
f 13/13/31 59/61/31 14/14/31
f 17/15/25 59/61/25 13/13/25
f 68/68/30 67/74/30 66/66/30
f 35/73/32 67/74/32 68/68/32
f 70/23/33 8/75/33 69/22/33
f 71/76/34 8/75/34 70/23/34
f 4/26/35 71/76/35 72/25/35
f 8/75/36 71/76/36 4/26/36
f 31/34/24 40/19/24 42/43/24
f 33/36/24 40/19/24 31/34/24
f 74/77/37 27/29/37 73/78/37
f 25/27/38 27/29/38 74/77/38
f 65/79/19 30/35/19 37/38/19
f 32/54/20 30/35/20 65/79/20
f 29/30/39 75/80/39 28/28/39
f 21/32/40 75/80/40 29/30/40
f 2/2/1 73/78/1 1/3/1
f 74/77/41 73/78/41 2/2/41
f 76/81/20 46/16/20 44/46/20
f 43/44/20 46/16/20 76/81/20
f 78/82/42 25/83/42 77/84/42
f 4/85/42 25/83/42 78/82/42
f 26/86/42 4/85/42 72/87/42
f 25/83/42 4/85/42 26/86/42
f 79/88/43 78/89/43 77/90/43
f 80/91/44 78/89/44 79/88/44
f 80/92/45 4/93/45 78/94/45
f 2/95/46 4/93/46 80/92/46
f 83/96/47 82/97/47 81/98/47
f 84/99/48 82/97/48 83/96/48
f 87/100/49 86/101/49 85/102/49
f 88/103/50 86/101/50 87/100/50
f 87/100/51 89/101/51 88/103/51
f 90/102/52 89/101/52 87/100/52
f 67/45/53 92/104/53 91/105/53
f 15/17/54 16/16/54 91/105/54
f 59/61/55 17/15/55 15/17/55
f 16/16/12 18/18/12 64/106/12
f 67/45/56 16/16/56 66/47/56
f 37/9/57 35/40/57 68/107/57
f 67/45/58 91/105/58 16/16/58
f 43/108/59 5/109/59 3/110/59
f 44/111/60 5/109/60 43/108/60
f 8/8/61 7/7/61 69/112/61
f 4/4/62 6/6/62 8/8/62
f 28/109/63 30/113/63 27/110/63
f 36/114/64 30/113/64 28/109/64
f 77/115/65 74/116/65 79/117/65
f 25/118/66 74/116/66 77/115/66
f 82/97/67 93/96/67 81/98/67
f 94/99/68 93/96/68 82/97/68
f 96/97/69 83/96/69 95/98/69
f 84/99/70 83/96/70 96/97/70
f 93/96/71 96/97/71 95/98/71
f 94/99/72 96/97/72 93/96/72
f 98/103/73 90/102/73 97/100/73
f 89/101/74 90/102/74 98/103/74
f 85/102/75 98/103/75 97/100/75
f 86/101/76 98/103/76 85/102/76
