# Blender 4.1.1
# www.blender.org
mtllib polygon807.mtl
o polygon807
v 5097.925293 -803.015686 -179.257492
v 5137.915039 -731.007080 -179.257507
v 5097.925293 -803.015686 -181.349411
v 5137.915039 -731.007080 -181.349411
v 5113.022461 -718.012512 -181.349426
v 5113.022461 -718.012512 -179.257507
v 5073.745117 -789.117371 -179.257523
v 5073.745117 -789.117371 -181.349426
v 4901.918457 -1148.873047 -179.257446
v 4939.584961 -1079.998047 -179.257462
v 4901.918457 -1148.873047 -181.349365
v 4939.584961 -1079.998047 -181.349380
v 4915.350586 -1066.337036 -181.349396
v 4915.350586 -1066.337036 -179.257477
v 4876.367188 -1135.427124 -179.257462
v 4876.367188 -1135.427124 -181.349380
vn 0.8742 -0.4855 -0.0000
vn 0.4628 0.8865 -0.0000
vn -0.4983 -0.8670 -0.0000
vn -0.0000 -0.0000 -1.0000
vn 0.8774 -0.4798 -0.0000
vn 0.4911 0.8711 -0.0000
vn -0.4657 -0.8849 -0.0000
vt 0.941162 -1.745850
vt 0.894898 4.230469
vt 0.894898 -1.745483
vt 0.941162 4.230469
vt 1.042847 -1.754272
vt 0.567383 -1.588379
vt 0.567383 -1.754272
vt 1.042847 -1.588379
vt 1.017212 -1.588379
vt 1.017212 -1.754272
vt 1.000000 4.223267
vt 0.566040 -1.752686
vt 1.000000 -1.752686
vt 0.566040 4.223267
vt 0.895874 -1.753540
vt 0.942627 4.222778
vt 0.942627 -1.753296
vt 0.895874 4.222778
vt 0.537598 -1.588745
vt 1.000000 -1.753296
vt 1.000000 -1.588745
vt 0.537598 -1.753296
vt 0.542358 -1.753296
vt 0.542358 -1.588745
vt 0.537598 4.222778
vt 1.000000 4.222778
s 0
usemtl mt_turibasi1.009
f 3/1/1 2/2/1 1/3/1
f 4/4/1 2/2/1 3/1/1
f 5/5/2 2/6/2 4/7/2
f 6/8/2 2/6/2 5/5/2
f 7/9/3 3/7/3 1/6/3
f 8/10/3 3/7/3 7/9/3
f 5/11/4 3/12/4 8/13/4
f 4/14/4 3/12/4 5/11/4
f 11/15/5 10/16/5 9/17/5
f 12/18/5 10/16/5 11/15/5
f 13/19/6 10/20/6 12/21/6
f 14/22/6 10/20/6 13/19/6
f 15/23/7 11/21/7 9/20/7
f 16/24/7 11/21/7 15/23/7
f 13/25/4 11/20/4 16/23/4
f 12/26/4 11/20/4 13/25/4
