# Blender 4.1.1
# www.blender.org
mtllib polygon503.mtl
o polygon503
v -3213.424072 2426.510010 -117.787376
v -3221.799072 2417.227051 -117.693390
v -3213.424072 2426.510010 -67.415459
v -3222.072998 2417.403076 -67.415466
v -3249.250000 2444.993164 -117.751389
v -3239.605225 2454.556152 -117.715385
v -3249.204102 2445.015137 -67.415466
v -3239.318115 2454.843018 -67.415466
v -2969.790039 2832.959229 -117.248032
v -2969.602051 2832.807129 -67.415512
v -2980.796143 2821.099121 -117.161636
v -2980.796143 2821.099121 -67.415512
v -2937.319580 2800.509033 -117.248024
v -2949.777100 2788.032959 -117.283348
v -2937.362061 2800.566162 -67.415504
v -2949.827148 2787.646240 -67.415512
v -2937.342041 2449.675049 -117.247978
v -2937.405029 2449.596191 -67.387199
v -2949.791260 2461.861084 -117.253586
v -2949.791260 2461.861084 -67.387169
v -2969.752197 2417.239990 -117.247986
v -2979.317139 2426.768066 -117.204681
v -2969.589844 2417.078125 -67.415329
v -2979.472168 2426.895996 -67.395409
v -3249.250000 2444.993164 -127.432304
v -3249.211182 2776.772217 -117.748215
v -3249.211182 2776.772217 -127.432335
v -3221.799072 2417.227051 -127.432304
v -2969.748047 2417.237061 -127.432304
v -2937.349854 2449.683105 -127.432297
v -3239.637207 2776.965820 -117.698517
v -3189.415039 2832.951172 -117.760323
v -3188.848877 2822.682129 -117.754829
v -2969.790039 2832.959229 -127.432343
v -3189.415039 2832.951172 -127.432343
v -2937.319580 2800.509033 -127.432343
v -2944.080811 2633.560791 -119.572311
v -2944.080811 2633.560791 -67.415489
v -2957.232178 2633.385010 -119.572311
v -2957.232178 2633.385010 -67.415489
v -2956.473877 2616.176025 -119.572311
v -2956.473877 2616.176025 -67.415482
v -2944.080811 2616.154053 -119.572311
v -2944.080811 2616.154053 -67.415482
v -3086.864258 2421.280762 -119.572289
v -3086.864258 2421.280762 -67.415459
v -3087.039062 2434.432129 -119.572289
v -3087.039062 2434.432129 -67.415466
v -3104.249268 2433.674072 -119.572289
v -3104.249268 2433.674072 -67.415466
v -3104.271240 2421.280762 -119.572289
v -3104.271240 2421.280762 -67.415459
v -3086.108154 2827.459229 -121.962723
v -3086.108154 2827.459229 -67.415504
v -3085.933105 2814.308105 -121.962723
v -3085.933105 2814.308105 -67.415512
v -3068.723145 2815.066162 -121.962723
v -3068.723145 2815.066162 -67.415512
v -3068.701172 2827.459229 -121.962723
v -3068.701172 2827.459229 -67.415504
v -3243.985840 2598.719971 -119.572311
v -3243.985840 2598.719971 -67.415489
v -3230.835205 2598.895020 -119.572311
v -3230.835205 2598.895020 -67.415489
v -3231.593018 2616.104980 -119.572311
v -3231.593018 2616.104980 -67.415482
v -3243.985840 2616.127197 -119.572311
v -3243.985840 2616.127197 -67.415482
v -3206.378174 2837.350830 -199.861359
v -3206.378174 2837.350830 -68.033852
v -3172.229248 2802.709961 -199.861328
v -3172.229248 2802.709961 -68.033844
v -3159.118896 2807.746094 -199.861359
v -3159.118896 2807.746094 -68.033844
v -3197.159912 2846.366211 -199.861343
v -3197.159912 2846.366211 -68.033852
v -3258.972168 2783.076172 -199.066132
v -3258.972168 2783.076172 -67.238594
v -3228.128906 2752.708008 -199.066132
v -3228.128906 2752.708008 -67.238594
v -3220.635254 2763.484863 -199.066132
v -3220.635254 2763.484863 -67.238594
v -3249.753906 2792.092041 -199.066116
v -3249.753906 2792.092041 -67.238602
v -2282.347168 1468.572021 -97.333237
v -2402.347168 1384.405884 -118.999863
v -2282.347168 1384.405884 -118.999863
v -2402.347168 1300.238892 -140.666550
v -2282.347168 1300.238892 -140.666550
v -2402.347168 1216.071899 -157.333252
v -2282.347168 1216.071899 -157.333252
v -2282.348145 1131.905884 -168.999924
v -2402.347168 1131.905884 -168.999924
v -2389.570068 1034.848877 -168.999802
v -2273.659180 1065.906982 -168.999786
v -2248.185059 1004.406067 -168.999924
v -2352.107178 944.405518 -168.999924
v -2292.513184 866.740601 -168.999802
v -2207.659912 951.593323 -168.999786
v -2154.848145 911.069092 -168.999908
v -2214.848145 807.145813 -168.999893
v -2124.405029 769.683411 -168.999771
v -2093.346191 885.594666 -168.999802
v -2027.348022 876.905640 -168.999924
v -2027.348022 756.905640 -168.999893
v -1930.289795 769.683533 -168.999771
v -1961.348999 885.594666 -168.999802
v -1899.848022 911.069275 -168.999908
v -1839.847046 807.146118 -168.999893
v -1762.182129 866.740723 -168.999802
v -1847.034912 951.593567 -168.999786
v -1806.511108 1004.406067 -168.999924
v -1702.588135 944.405762 -168.999924
v -1665.125122 1034.848877 -168.999802
v -1781.036011 1065.906982 -168.999786
v -1772.348145 1131.905884 -168.999924
v -2282.347168 1552.739014 -80.666580
v -2402.347168 1552.739014 -80.666580
v -2402.347168 1468.572021 -97.333221
v -1652.347900 1481.906006 -94.833221
v -1772.348145 1481.906006 -94.833221
v -1652.347900 1394.405884 -118.999855
v -1772.348145 1394.405884 -118.999855
v -1772.348145 1306.905884 -143.166550
v -2402.347168 1628.890015 -70.111008
v -2282.347168 1628.890015 -70.111031
v -1652.347900 1131.905884 -168.999924
v -1772.348145 1219.405884 -159.833237
v -1772.348145 1648.572021 -69.872917
v -1772.348145 1569.406006 -78.166588
v -1652.347900 1648.572021 -69.872917
v -1652.347900 1569.406006 -78.166573
v -1652.347900 1306.905884 -143.166550
v -1652.347900 1219.405884 -159.833237
v -1987.347046 1336.905884 -168.999939
v -1987.348022 1649.101074 -71.438972
v -2067.348145 1336.905884 -168.999939
v -2067.347168 1649.101074 -71.438972
v -1402.221069 3391.981201 -72.000610
v -1402.222046 3514.413086 -72.000626
v -1419.255127 3391.991211 -72.000610
v -1656.333130 3514.234863 -72.000702
v -1468.614014 3319.115234 -72.000626
v -1091.555054 2723.106201 -32.498692
v -1013.265991 2751.979248 -32.498672
v -1213.471069 3056.003174 -32.460575
v -1145.645020 3098.579102 -32.460529
v -1314.888062 3279.949219 -32.513706
v -1043.992065 2595.376221 -72.000404
v -992.221985 2454.815186 -72.000397
v -966.317261 2624.022217 -72.000404
v -903.719727 2454.801025 -72.000343
v -680.070068 3514.801270 -32.550419
v -1267.449951 3514.500000 -32.550419
v -680.007629 3392.031250 -32.550404
v -1267.448975 3391.988037 -32.550404
v -1375.165894 3221.759033 -32.513794
v -1408.609985 3377.040039 -72.000603
vn 0.7425 -0.6699 -0.0000
vn 0.7251 -0.6886 0.0064
vn -0.7041 0.7101 0.0003
vn -0.7050 0.7092 -0.0000
vn -0.7111 -0.7031 -0.0014
vn -0.7133 -0.7009 0.0010
vn -0.7330 0.6802 0.0048
vn -0.7228 0.6911 -0.0000
vn 0.7076 -0.7066 0.0014
vn 0.7196 -0.6943 -0.0047
vn 0.7069 0.7073 -0.0005
vn 0.7071 0.7071 -0.0002
vn 0.6995 0.7146 0.0020
vn 0.7036 0.7106 -0.0000
vn -0.7057 -0.7085 -0.0000
vn -0.7048 -0.7094 -0.0004
vn 0.7074 -0.7068 -0.0002
vn 0.7107 -0.7034 -0.0046
vn -1.0000 0.0001 -0.0000
vn -0.7111 -0.7031 -0.0000
vn -0.0000 -1.0000 -0.0000
vn 0.0001 -1.0000 0.0003
vn 0.7076 -0.7066 0.0005
vn 0.7074 -0.7068 -0.0011
vn -0.0052 -0.0001 1.0000
vn -0.0037 -0.0000 1.0000
vn -0.0025 0.0124 0.9999
vn -0.0018 -0.0063 1.0000
vn -0.0028 -0.0000 1.0000
vn -0.0004 0.0001 1.0000
vn -0.0023 0.0094 1.0000
vn -0.0028 0.0004 1.0000
vn -0.0000 1.0000 -0.0000
vn 0.7069 0.7073 -0.0000
vn 1.0000 -0.0001 -0.0008
vn 1.0000 -0.0001 -0.0000
vn -0.0133 0.9999 -0.0000
vn -0.0018 -1.0000 -0.0000
vn 1.0000 -0.0000 -0.0000
vn 0.9999 0.0133 -0.0000
vn -1.0000 0.0018 -0.0000
vn -0.9999 -0.0133 -0.0000
vn 1.0000 -0.0018 -0.0000
vn 0.0133 -0.9999 -0.0000
vn 0.0018 1.0000 -0.0000
vn -1.0000 -0.0000 -0.0000
vn -0.7121 -0.7020 -0.0000
vn -0.7122 -0.7020 -0.0000
vn 0.7124 0.7017 -0.0000
vn 0.7124 0.7018 -0.0000
vn -0.6992 0.7150 -0.0000
vn -0.6992 0.7149 -0.0000
vn -0.7016 -0.7126 -0.0000
vn 0.7008 0.7133 -0.0000
vn -0.0000 0.2493 -0.9684
vn -0.0000 0.2219 -0.9751
vn -0.0000 0.2100 -0.9777
vn -0.0000 0.1658 -0.9862
vn -0.0000 0.0937 -0.9956
vn -0.0000 0.0718 -0.9974
vn -0.0000 -0.0000 -1.0000
vn -0.0000 0.0501 -0.9987
vn -0.0000 0.1791 -0.9838
vn -0.0000 0.2662 -0.9639
vn -0.0000 0.2269 -0.9739
vn -0.0000 0.1373 -0.9905
vn -0.0000 0.0544 -0.9985
vn -0.0000 0.1458 -0.9893
vn -0.0000 0.1042 -0.9946
vn -0.0000 0.1647 -0.9863
vn -0.0000 0.2104 -0.9776
vn -0.0000 0.2983 -0.9545
vn -0.0000 0.0001 -1.0000
vn -0.0001 0.0001 -1.0000
vn 0.0001 -0.0002 -1.0000
vn 0.0002 -0.0002 -1.0000
vt 0.148438 0.177734
vt 0.308594 1.759766
vt 0.150391 1.759766
vt 0.308594 0.177734
vt 0.849609 0.175781
vt 1.054688 1.759766
vt 0.855469 1.759766
vt 1.054688 0.177734
vt -1.189453 -0.994141
vt 1.394531 -0.859375
vt 1.394531 -0.994141
vt -1.189453 -0.859375
vt 1.986328 -0.996094
vt 1.607422 -0.861328
vt 1.607422 -0.996094
vt 1.986328 -0.861328
vt -0.396484 -0.859375
vt -0.396484 -0.994141
vt 1.988281 -0.861328
vt 1.988281 -0.996094
vt 14.123050 1.054688
vt 11.068359 0.972656
vt 14.125001 0.972656
vt 10.966800 1.054688
vt 10.003910 1.056641
vt 7.394531 0.972656
vt 9.910156 0.972656
vt 7.271484 1.056641
vt 10.525390 0.972656
vt 14.029300 1.056641
vt 10.384769 1.056641
vt 13.888670 0.972656
vt 7.273438 1.056641
vt 9.882812 0.972656
vt 7.273438 0.972656
vt -0.396484 -0.861328
vt 1.392578 -0.996094
vt 1.392578 -0.861328
vt -0.396484 -0.996094
vt 1.605469 -0.861328
vt 1.605469 -0.996094
vt 1.390625 -0.994141
vt 1.390625 -0.859375
vt 0.857422 1.000000
vt 0.708984 0.000000
vt 0.708984 1.000000
vt 0.857422 0.000000
vt 0.851562 1.000000
vt 1.000000 0.000000
vt 1.000000 1.000000
vt 0.851562 0.000000
vt -0.148438 1.000000
vt 0.000000 0.000000
vt 0.000000 1.000000
vt -0.148438 0.000000
vt 0.142578 1.000000
vt -0.003906 0.000000
vt -0.003906 1.000000
vt 0.142578 0.000000
vt -38.085938 21.619139
vt -39.085938 23.351559
vt -39.300777 20.917969
vt -37.871090 24.052729
vt -36.871090 22.320309
vt -36.656250 24.753910
vt -35.656250 23.021479
vt -34.441410 23.722660
vt -35.441410 25.455080
vt -33.935551 26.080080
vt -33.417969 24.148439
vt -32.316410 24.292969
vt -32.316410 26.292969
vt -30.699219 26.080080
vt -31.216799 24.148439
vt -30.191410 23.722660
vt -29.191410 25.455080
vt -27.898439 24.462889
vt -29.312500 23.048830
vt -28.636719 22.167969
vt -26.904299 23.167969
vt -26.281250 21.660160
vt -28.212889 21.142580
vt -28.066410 20.042969
vt -26.066410 20.042969
vt -26.281250 18.425779
vt -28.212889 18.943359
vt -28.636719 17.917969
vt -26.904299 16.917969
vt -27.898439 15.623050
vt -29.312500 17.037109
vt -30.191410 16.363279
vt -41.515629 21.949219
vt -40.515629 20.216799
vt -40.300777 22.650389
vt -32.980469 12.443359
vt -35.244141 13.445310
vt -34.244141 11.712890
vt -33.980469 14.175779
vt -32.718750 14.904300
vt -41.615231 19.582029
vt -42.615231 21.314449
vt -29.191410 14.630859
vt -31.455080 15.632810
vt -36.650391 10.324220
vt -36.507809 12.716800
vt -37.650391 12.056640
vt -35.507809 10.984380
vt -31.718750 13.171880
vt -30.455080 13.900390
vt -31.375002 -20.187500
vt -30.125002 -25.064449
vt -30.125002 -20.187500
vt -31.375002 -25.064449
vt -3.849609 2.871094
vt -5.962891 2.550781
vt -3.849609 2.550781
vt -5.960938 7.312500
vt -2.591797 3.794922
vt 5.414063 1.160156
vt 3.648438 -5.044922
vt 5.199219 -5.019531
vt 3.970703 1.423828
vt 5.902344 5.439453
vt 3.564453 -7.419922
vt 5.005859 -10.005859
vt 5.101563 -7.394531
vt 3.443359 -10.564449
vt -3.851563 -10.982420
vt -5.964844 0.025391
vt -5.970703 -10.980470
vt -3.849609 0.025391
vt 7.302734 4.875000
vt -3.591797 2.671875
s 0
usemtl mt_town_isidatamiB.002
f 3/1/1 2/2/1 1/3/1
f 4/4/2 2/2/2 3/1/2
f 7/5/3 6/6/3 5/7/3
f 8/8/4 6/6/4 7/5/4
f 4/4/5 5/7/5 2/2/5
f 7/5/6 5/7/6 4/4/6
f 11/3/7 10/4/7 9/2/7
f 12/1/8 10/4/8 11/3/8
f 15/5/9 14/6/9 13/7/9
f 16/8/10 14/6/10 15/5/10
f 10/4/11 13/7/11 9/2/11
f 15/5/12 13/7/12 10/4/12
f 19/3/13 18/4/13 17/2/13
f 20/1/14 18/4/14 19/3/14
f 23/5/15 22/6/15 21/7/15
f 24/8/16 22/6/16 23/5/16
f 18/4/17 21/7/17 17/2/17
f 23/5/18 21/7/18 18/4/18
f 26/9/19 25/10/19 5/11/19
f 27/12/19 25/10/19 26/9/19
f 5/13/20 28/14/20 2/15/20
f 25/16/20 28/14/20 5/13/20
f 29/17/21 2/11/21 28/10/21
f 21/18/22 2/11/22 29/17/22
f 30/19/23 21/15/23 29/14/23
f 17/20/24 21/15/24 30/19/24
f 26/21/25 6/22/25 31/23/25
f 5/24/26 6/22/26 26/21/26
f 2/25/27 22/26/27 1/27/27
f 21/28/28 22/26/28 2/25/28
f 14/29/29 17/30/29 13/31/29
f 19/32/30 17/30/30 14/29/30
f 32/33/31 11/34/31 9/25/31
f 33/35/32 11/34/32 32/33/32
f 35/36/33 9/37/33 34/38/33
f 32/39/33 9/37/33 35/36/33
f 34/40/34 13/13/34 36/16/34
f 9/41/34 13/13/34 34/40/34
f 36/12/35 17/42/35 30/43/35
f 13/9/36 17/42/36 36/12/36
f 39/3/37 38/4/37 37/2/37
f 40/1/37 38/4/37 39/3/37
f 43/7/38 42/8/38 41/6/38
f 44/5/38 42/8/38 43/7/38
f 37/2/39 44/5/39 43/7/39
f 38/4/39 44/5/39 37/2/39
f 47/3/40 46/4/40 45/2/40
f 48/1/40 46/4/40 47/3/40
f 51/7/41 50/8/41 49/6/41
f 52/5/41 50/8/41 51/7/41
f 45/2/21 52/5/21 51/7/21
f 46/4/21 52/5/21 45/2/21
f 55/3/42 54/4/42 53/2/42
f 56/1/42 54/4/42 55/3/42
f 59/7/43 58/8/43 57/6/43
f 60/5/43 58/8/43 59/7/43
f 53/2/33 60/5/33 59/7/33
f 54/4/33 60/5/33 53/2/33
f 63/3/44 62/4/44 61/2/44
f 64/1/44 62/4/44 63/3/44
f 67/7/45 66/8/45 65/6/45
f 68/5/45 66/8/45 67/7/45
f 61/2/46 68/5/46 67/7/46
f 62/4/46 68/5/46 61/2/46
f 71/44/47 70/45/47 69/46/47
f 72/47/48 70/45/48 71/44/48
f 75/48/49 74/49/49 73/50/49
f 76/51/50 74/49/50 75/48/50
f 69/46/51 76/51/51 75/48/51
f 70/45/52 76/51/52 69/46/52
f 79/52/53 78/53/53 77/54/53
f 80/55/53 78/53/53 79/52/53
f 83/56/54 82/57/54 81/58/54
f 84/59/54 82/57/54 83/56/54
f 77/54/52 84/59/52 83/56/52
f 78/53/52 84/59/52 77/54/52
f 87/60/55 86/61/55 85/62/55
f 88/63/55 86/61/55 87/60/55
s 1
f 89/64/56 88/63/57 87/60/55
f 90/65/58 88/63/57 89/64/56
f 91/66/58 90/65/58 89/64/56
f 92/67/59 90/65/58 91/66/58
f 92/67/59 93/68/60 90/65/58
f 94/69/61 93/68/60 92/67/59
s 0
f 95/70/61 94/69/61 92/67/61
f 96/71/61 94/69/61 95/70/61
f 96/71/61 97/72/61 94/69/61
f 98/73/61 97/72/61 96/71/61
f 99/74/61 98/73/61 96/71/61
f 100/75/61 98/73/61 99/74/61
f 100/75/61 101/76/61 98/73/61
f 102/77/61 101/76/61 100/75/61
f 103/78/61 102/77/61 100/75/61
f 104/79/61 102/77/61 103/78/61
f 104/79/61 105/80/61 102/77/61
f 106/81/61 105/80/61 104/79/61
f 107/82/61 106/81/61 104/79/61
f 108/83/61 106/81/61 107/82/61
f 108/83/61 109/84/61 106/81/61
f 110/85/61 109/84/61 108/83/61
f 111/86/61 110/85/61 108/83/61
f 112/87/61 110/85/61 111/86/61
f 112/87/61 113/88/61 110/85/61
f 114/89/61 113/88/61 112/87/61
f 115/90/61 114/89/61 112/87/61
s 1
f 116/91/62 114/89/61 115/90/61
f 85/62/57 118/92/63 117/93/58
f 119/94/56 118/92/63 85/62/57
f 86/61/55 119/94/56 85/62/57
f 122/95/64 121/96/65 120/97/65
f 123/98/64 121/96/65 122/95/64
s 0
f 124/99/64 123/98/64 122/95/64
f 126/100/66 118/92/66 125/101/66
s 1
f 117/93/58 118/92/63 126/100/66
f 116/91/62 127/102/67 114/89/61
f 128/103/68 127/102/67 116/91/62
s 0
f 131/104/69 130/105/69 129/106/69
s 1
f 132/107/68 130/105/70 131/104/69
f 132/107/68 121/96/65 130/105/70
f 120/97/65 121/96/65 132/107/68
f 133/108/65 124/99/71 122/95/64
f 134/109/68 124/99/71 133/108/65
f 134/109/68 128/103/68 124/99/71
f 127/102/67 128/103/68 134/109/68
s 0
f 137/110/72 136/111/72 135/112/72
f 138/113/72 136/111/72 137/110/72
f 141/114/61 140/115/61 139/116/61
f 142/117/61 140/115/61 141/114/61
f 143/118/61 142/117/61 141/114/61
f 146/119/73 145/120/73 144/121/73
f 147/122/74 145/120/74 146/119/74
f 148/123/75 147/122/75 146/119/75
f 151/124/61 150/125/61 149/126/61
f 152/127/61 150/125/61 151/124/61
f 155/128/61 154/129/61 153/130/61
f 156/131/61 154/129/61 155/128/61
f 157/132/76 148/123/76 146/119/76
f 158/133/61 143/118/61 141/114/61
