# Blender 4.1.1
# www.blender.org
mtllib polygon650.mtl
o polygon650
v -2999.167236 -1355.029175 -850.771667
v -3009.954834 -1336.142212 -849.603149
v -3178.684082 -1330.200195 -854.900574
v -3154.297119 -1301.403076 -853.727600
v -3205.614258 -1302.433228 -851.064514
v -3316.027100 -1311.326294 -847.789246
v -3353.161133 -1354.106079 -810.351501
v -3383.739990 -1404.638306 -847.799927
v -3389.183105 -1396.625122 -798.904175
v -3548.647217 -1517.391113 -799.321167
v -3547.002930 -1531.024170 -848.083130
v -3726.539062 -1538.368164 -847.087036
v -3967.563965 -1811.927368 -845.730164
v -3854.239990 -1595.546265 -847.541809
v -3983.951172 -1804.199951 -796.025513
v -3864.998291 -1584.187134 -793.899353
v -3727.624268 -1527.312012 -797.559265
vn 0.0321 0.0206 -0.9993
vn 0.0339 0.0753 -0.9966
vn 0.0341 0.0811 -0.9961
vn 0.0319 0.0137 -0.9994
vn -0.0534 0.0857 -0.9949
vn -0.6596 0.6618 -0.3563
vn -0.7947 0.5892 -0.1461
vn -0.2351 0.1772 -0.9557
vn -0.6843 0.7036 -0.1915
vn -0.3691 0.8928 -0.2583
vn -0.0416 0.0728 -0.9965
vn -0.0376 0.1009 -0.9942
vn -0.3213 0.9091 -0.2650
vn -0.0408 0.9619 -0.2703
vn -0.8357 0.4377 -0.3316
vn -0.6508 0.7037 -0.2851
vn -0.8335 0.4337 -0.3422
vn -0.6531 0.7061 -0.2736
vn -0.3821 0.8970 -0.2220
vn -0.3788 0.9014 -0.2095
vn -0.0562 0.9742 -0.2187
vt 0.678284 0.000000
vt 0.937744 1.000000
vt 0.937744 0.000000
vt 0.741272 1.000000
vt 0.654602 1.000000
vt 0.277710 0.000000
vt 0.367859 1.000000
vt 0.462952 1.000000
vt 0.274780 1.000000
vt -0.085144 1.000000
vt -0.092896 0.000000
vt -0.399048 0.000000
vt -0.901794 1.000000
vt -0.656860 0.000000
vt -0.901794 0.000000
vt -0.666138 1.000000
vt -0.392334 1.000000
s 1
usemtl mt_kusa_blend.013
f 3/1/1 2/2/2 1/3/3
f 4/4/4 2/2/2 3/1/1
s 0
f 5/5/5 4/4/5 3/1/5
s 1
f 8/6/6 7/7/7 6/8/8
f 9/9/9 7/7/7 8/6/6
f 10/10/10 9/9/9 8/6/6
f 3/1/11 6/8/8 5/5/12
f 8/6/6 6/8/8 3/1/11
f 11/11/13 10/10/10 8/6/6
f 12/12/14 10/10/10 11/11/13
f 15/13/15 14/14/16 13/15/17
f 16/16/18 14/14/16 15/13/15
f 16/16/18 12/12/19 14/14/16
f 17/17/20 12/12/19 16/16/18
s 0
f 10/10/21 12/12/21 17/17/21
