# Blender 4.1.1
# www.blender.org
mtllib polygon648.mtl
o polygon648
v -2004.151978 -1431.559082 -768.999573
v -2004.151978 -1476.559082 -768.999573
v -1946.237915 -1431.559082 -760.082886
v -1946.237915 -1476.559082 -760.082886
v -1888.323120 -1431.559082 -751.166260
v -1888.323120 -1476.559082 -751.166260
v -1830.408081 -1431.559082 -742.249573
v -1830.408081 -1476.559082 -742.249573
v -1772.492920 -1431.559082 -735.332886
v -1772.492920 -1476.559082 -735.332886
v -1714.578125 -1431.559082 -728.416260
v -1714.578125 -1476.559082 -728.416260
v -1656.664062 -1431.559082 -721.499573
v -1656.664062 -1476.559082 -721.499573
v -1598.749023 -1431.559082 -716.749573
v -1598.749023 -1476.559082 -716.749573
v -1540.833984 -1431.559082 -711.999573
v -1540.833984 -1476.559082 -711.999573
v -1482.919067 -1431.559082 -707.249634
v -1482.919067 -1476.559082 -707.249634
v -1425.004028 -1431.559082 -704.499634
v -1425.004028 -1476.559082 -704.499634
v -1367.089966 -1431.559082 -701.749634
v -1367.089966 -1476.559082 -701.749634
v -1309.175049 -1431.559082 -698.999634
v -1309.175049 -1476.559082 -698.999634
v -1251.260010 -1431.559082 -699.249634
v -1251.260010 -1476.559082 -699.249634
v -1193.345093 -1431.559082 -699.499634
v -1193.345093 -1476.559082 -699.499634
v -1135.429932 -1431.559082 -699.749634
v -1135.429932 -1476.559082 -699.749634
v -1077.515991 -1431.559082 -701.999634
v -1077.515991 -1476.559082 -701.999634
v -1019.601074 -1431.559082 -704.249634
v -1019.601074 -1476.559082 -704.249634
v -961.685974 -1431.559082 -706.499634
v -961.685974 -1476.559082 -706.499634
v -903.771179 -1431.559082 -710.916260
v -903.771179 -1476.559082 -710.916260
v -845.856384 -1431.559082 -715.332886
v -845.856384 -1476.559082 -715.332886
v -787.941650 -1431.559082 -719.749573
v -787.941650 -1476.559082 -719.749573
v -730.026855 -1476.559082 -726.166260
v -1309.175049 -1431.559082 -695.999634
v -1482.919067 -1431.559082 -704.249634
v -1656.664062 -1431.559082 -718.499573
v -1830.408081 -1431.559082 -739.249573
v -2004.151978 -1431.559082 -765.999573
v -2004.151978 -1476.559082 -765.999573
v -1830.408081 -1476.559082 -739.249573
v -1656.664062 -1476.559082 -718.499573
v -1482.919067 -1476.559082 -704.249634
v -1309.175049 -1476.559082 -695.999634
v -1135.429932 -1476.559082 -696.749634
v -614.197266 -1431.559082 -738.999573
v -614.197266 -1431.559082 -735.999573
v -787.941650 -1431.559082 -716.749573
v -961.685974 -1431.559082 -703.499634
v -1135.429932 -1431.559082 -696.749634
v -961.685974 -1476.559082 -703.499634
v -787.941650 -1476.559082 -716.749573
v -730.026855 -1431.559082 -726.166260
v -672.112000 -1476.559082 -732.582886
v -672.112000 -1431.559082 -732.582886
v -614.197266 -1476.559082 -738.999573
v -614.197266 -1476.559082 -735.999573
vn 0.1522 -0.0000 -0.9884
vn 0.1354 -0.0000 -0.9908
vn 0.1186 -0.0000 -0.9929
vn 0.1002 -0.0000 -0.9950
vn 0.0817 -0.0000 -0.9967
vn 0.0646 -0.0000 -0.9979
vn 0.0474 -0.0000 -0.9989
vn 0.0216 -0.0000 -0.9998
vn -0.0043 -0.0000 -1.0000
vn -0.0216 -0.0000 -0.9998
vn -0.0388 -0.0000 -0.9992
vn -0.0574 -0.0000 -0.9983
vn -0.0760 -0.0000 -0.9971
vn -0.0931 -0.0000 -0.9957
vn -0.1101 -0.0000 -0.9939
vn -0.0000 1.0000 -0.0000
vn -0.0000 -1.0000 -0.0000
vn 0.1101 -0.0000 0.9939
vn 0.0931 -0.0000 0.9957
vn -0.1522 -0.0000 0.9884
vn -0.1354 -0.0000 0.9908
vn -0.1002 -0.0000 0.9950
vn -0.0646 -0.0000 0.9979
vn -0.0216 -0.0000 0.9998
vn 0.0216 -0.0000 0.9998
vn 0.0574 -0.0000 0.9983
vt 0.562500 15.333500
vt 1.000000 16.000000
vt 0.562500 16.000000
vt 1.000000 15.333500
vt 0.562500 14.666500
vt 1.000000 14.666500
vt 0.562500 14.000000
vt 1.000000 14.000000
vt 0.562500 13.333500
vt 1.000000 13.333500
vt 0.562500 12.666500
vt 1.000000 12.666500
vt 0.562500 12.000000
vt 1.000000 12.000000
vt 0.562500 11.333500
vt 1.000000 11.333500
vt 0.562500 10.666500
vt 1.000000 10.666500
vt 0.562500 10.000000
vt 1.000000 10.000000
vt 0.562500 9.333496
vt 1.000000 9.333496
vt 0.562500 8.666504
vt 1.000000 8.666504
vt 0.562500 8.000000
vt 1.000000 8.000000
vt 0.562500 7.333496
vt 1.000000 7.333496
vt 0.562500 6.666504
vt 1.000000 6.666504
vt 0.562500 6.000000
vt 1.000000 6.000000
vt 0.562500 5.333496
vt 1.000000 5.333496
vt 0.562500 4.666504
vt 1.000000 4.666504
vt 0.562500 4.000000
vt 1.000000 4.000000
vt 0.562500 3.333496
vt 1.000000 3.333496
vt 0.562500 2.666504
vt 1.000000 2.666504
vt 0.562500 2.000000
vt 1.000000 2.000000
vt 1.000000 1.333496
vt 0.578125 8.000000
vt 0.578125 10.000000
vt 0.578125 12.000000
vt 0.578125 14.000000
vt 0.578125 16.000000
vt 0.984375 16.000000
vt 0.984375 14.000000
vt 0.984375 12.000000
vt 0.984375 10.000000
vt 0.984375 8.000000
vt 0.984375 6.000000
vt 0.578125 0.000000
vt 0.562500 0.000000
vt 0.578125 2.000000
vt 0.578125 4.000000
vt 0.578125 6.000000
vt 0.984375 4.000000
vt 0.984375 2.000000
vt 0.562500 1.333496
vt 1.000000 0.666504
vt 0.562500 0.666504
vt 1.000000 0.000000
vt 0.999512 2.000000
vt 0.999512 0.000000
vt 0.984375 0.000000
vt 0.999512 16.000000
vt 0.999512 14.000000
vt 0.999512 12.000000
vt 0.999512 10.000000
vt 0.999512 8.000000
vt 0.999512 6.000000
vt 0.999512 4.000000
s 0
usemtl mt_turibasi1.001
f 3/1/1 2/2/1 1/3/1
f 4/4/1 2/2/1 3/1/1
f 5/5/1 4/4/1 3/1/1
f 6/6/1 4/4/1 5/5/1
s 1
f 7/7/2 6/6/1 5/5/1
f 8/8/2 6/6/1 7/7/2
f 9/9/3 8/8/2 7/7/2
f 10/10/3 8/8/2 9/9/3
s 0
f 11/11/3 10/10/3 9/9/3
f 12/12/3 10/10/3 11/11/3
s 1
f 13/13/4 12/12/3 11/11/3
f 14/14/4 12/12/3 13/13/4
f 15/15/5 14/14/4 13/13/4
f 16/16/5 14/14/4 15/15/5
s 0
f 17/17/5 16/16/5 15/15/5
f 18/18/5 16/16/5 17/17/5
s 1
f 19/19/6 18/18/5 17/17/5
f 20/20/6 18/18/5 19/19/6
f 21/21/7 20/20/6 19/19/6
f 22/22/7 20/20/6 21/21/7
s 0
f 23/23/7 22/22/7 21/21/7
f 24/24/7 22/22/7 23/23/7
s 1
f 25/25/8 24/24/7 23/23/7
f 26/26/8 24/24/7 25/25/8
f 27/27/9 26/26/8 25/25/8
f 28/28/9 26/26/8 27/27/9
s 0
f 29/29/9 28/28/9 27/27/9
f 30/30/9 28/28/9 29/29/9
s 1
f 31/31/10 30/30/9 29/29/9
f 32/32/10 30/30/9 31/31/10
f 33/33/11 32/32/10 31/31/10
f 34/34/11 32/32/10 33/33/11
s 0
f 35/35/11 34/34/11 33/33/11
f 36/36/11 34/34/11 35/35/11
s 1
f 37/37/12 36/36/11 35/35/11
f 38/38/12 36/36/11 37/37/12
f 39/39/13 38/38/12 37/37/12
f 40/40/13 38/38/12 39/39/13
s 0
f 41/41/13 40/40/13 39/39/13
f 42/42/13 40/40/13 41/41/13
s 1
f 43/43/14 42/42/13 41/41/13
f 44/44/14 42/42/13 43/43/14
f 45/45/15 44/44/14 43/43/14
s 0
f 25/25/16 46/46/16 31/31/16
f 47/47/16 46/46/16 25/25/16
f 19/19/16 47/47/16 25/25/16
f 48/48/16 47/47/16 19/19/16
f 13/13/16 48/48/16 19/19/16
f 49/49/16 48/48/16 13/13/16
f 7/7/16 49/49/16 13/13/16
f 50/50/16 49/49/16 7/7/16
f 1/3/16 50/50/16 7/7/16
f 8/8/17 51/51/17 2/2/17
f 52/52/17 51/51/17 8/8/17
f 14/14/17 52/52/17 8/8/17
f 53/53/17 52/52/17 14/14/17
f 20/20/17 53/53/17 14/14/17
f 54/54/17 53/53/17 20/20/17
f 26/26/17 54/54/17 20/20/17
f 55/55/17 54/54/17 26/26/17
f 56/56/17 55/55/17 26/26/17
f 43/43/16 58/57/16 57/58/16
f 59/59/16 58/57/16 43/43/16
f 37/37/16 59/59/16 43/43/16
f 60/60/16 59/59/16 37/37/16
f 31/31/16 60/60/16 37/37/16
f 61/61/16 60/60/16 31/31/16
f 46/46/16 61/61/16 31/31/16
f 32/32/17 56/56/17 26/26/17
f 62/62/17 56/56/17 32/32/17
f 38/38/17 62/62/17 32/32/17
f 63/63/17 62/62/17 38/38/17
f 44/44/17 63/63/17 38/38/17
s 1
f 64/64/15 45/45/15 43/43/14
s 0
f 65/65/15 45/45/15 64/64/15
f 66/66/15 65/65/15 64/64/15
f 67/67/15 65/65/15 66/66/15
f 57/58/15 67/67/15 66/66/15
s 1
f 58/58/18 63/68/19 68/69/18
f 59/43/19 63/68/19 58/58/18
s 0
f 68/70/17 44/44/17 67/67/17
f 63/63/17 44/44/17 68/70/17
s 1
f 51/71/20 49/7/21 50/3/20
f 52/72/21 49/7/21 51/71/20
f 52/72/21 48/13/22 49/7/21
f 53/73/22 48/13/22 52/72/21
f 53/73/22 47/19/23 48/13/22
f 54/74/23 47/19/23 53/73/22
f 54/74/23 46/25/24 47/19/23
f 55/75/24 46/25/24 54/74/23
f 55/75/24 61/31/25 46/25/24
f 56/76/25 61/31/25 55/75/24
f 56/76/25 60/37/26 61/31/25
f 62/77/26 60/37/26 56/76/25
f 62/77/26 59/43/19 60/37/26
f 63/68/19 59/43/19 62/77/26
