# Blender 4.1.1
# www.blender.org
mtllib polygon565.mtl
o polygon565
v -1348.096069 3034.665039 -129.000168
v -1618.225098 3317.588135 -129.000198
v -1348.096069 3034.665039 -189.000168
v -1618.225098 3317.588867 -189.000198
v -1647.347046 3300.773926 -129.000198
v -1647.347046 3300.773926 -189.000198
v -1647.347046 3034.665039 -189.000168
v -1647.347046 3034.665039 -129.000168
v -1553.595093 3123.534912 -199.000168
v -1553.595093 3123.534912 -234.000153
v -1553.595093 3071.034912 -199.000153
v -1553.595093 3071.034912 -234.000153
v -1606.095093 3071.034912 -199.000153
v -1606.095093 3071.034912 -234.000153
v -1606.095093 3123.534912 -199.000168
v -1606.095093 3123.534912 -234.000153
v -1473.595093 3123.534912 -199.000168
v -1473.595093 3123.534912 -234.000153
v -1473.595093 3071.034912 -199.000153
v -1473.595093 3071.034912 -234.000153
v -1526.095093 3071.034912 -199.000153
v -1526.095093 3071.034912 -234.000153
v -1526.095093 3123.534912 -199.000168
v -1526.095093 3123.534912 -234.000153
v -1647.347046 3300.773926 -69.000153
v -1618.225098 3317.588867 -69.000153
v -1647.347046 3034.665039 -69.000114
v -1348.096069 3034.665039 -69.000114
v -2086.456055 2942.954834 -188.938065
v -2086.454834 3060.000000 -188.938049
v -2086.456055 2942.954834 -121.984451
v -2086.454834 3060.000000 -121.984055
v -2086.454834 3060.000000 -69.000122
v -1940.484009 2942.954834 -188.938065
v -1940.484009 2942.954834 -121.984451
v -1887.347046 2996.092041 -188.938049
v -1887.347046 2996.092041 -121.984459
v -1887.347046 3060.000000 -188.938049
v -1887.347046 3060.000000 -121.984459
v -1887.347046 3060.000000 -69.000122
v -2086.456055 2892.954834 -121.984444
v -2086.456055 2892.954834 -69.000099
v -2086.456055 2942.954834 -69.000107
v -1919.774048 2892.954834 -121.984444
v -1919.774048 2892.954834 -69.000099
v -1837.347046 2975.381104 -121.984451
v -1837.347046 2975.381104 -69.000107
v -1837.347046 3060.000000 -121.984459
v -1837.347046 3060.000000 -69.000122
v -2355.657959 3059.667236 -225.203659
v -2260.347168 3059.667969 -225.203659
v -2355.657959 3059.667236 -214.000153
v -2260.347168 3059.667969 -214.000153
v -2260.347168 3059.667969 -190.018646
v -2260.347168 2932.299072 -190.018646
v -2260.347168 2892.954834 -190.018661
v -2355.657959 2935.290039 -190.018646
v -2355.657959 2892.954834 -190.018661
v -2355.657959 3059.667236 -190.018539
v -2355.657959 3059.667236 -69.000122
v -2355.657959 2892.954834 -69.000099
v -2260.347168 2892.954834 -69.000099
v -2260.347168 3059.667969 -69.000122
v -2453.748047 3238.225830 -145.229385
v -2453.748047 3238.225830 -69.000137
v -2563.458008 3177.077148 -145.229385
v -2563.458008 3177.077148 -69.000145
v -2549.331055 3048.521240 -145.229370
v -2549.331055 3048.521240 -69.000114
v -2453.747070 3048.521240 -145.229370
v -2453.747070 3048.521240 -69.000114
vn 0.7233 0.6906 -0.0000
vn -0.5000 0.8660 -0.0000
vn -0.0000 -1.0000 -0.0000
vn -1.0000 -0.0000 -0.0000
vn 1.0000 -0.0000 -0.0000
vn -0.0000 1.0000 -0.0000
vn 0.7071 -0.7071 -0.0000
vn -0.4869 0.8735 -0.0000
vn -0.9940 -0.1092 -0.0000
vt 12.000000 2.000000
vt 8.000000 1.000000
vt 12.000000 1.000000
vt 8.000000 2.000000
vt 7.000000 2.000000
vt 7.000000 1.000000
vt -1.000000 2.000000
vt 3.000000 1.000000
vt 3.000000 2.000000
vt -1.000000 1.000000
vt -2.000000 0.000000
vt -1.000000 0.000000
vt -2.000000 1.000000
vt 7.843750 -1.125000
vt 7.156250 0.000000
vt 7.156250 -1.125000
vt 7.843750 0.000000
vt 3.000000 0.000000
vt 3.000000 -1.125000
vt -1.000000 -1.125000
vt 12.000000 0.000000
vt 12.000000 -1.125000
vt 7.000000 0.000000
vt 10.000000 1.031250
vt 7.000000 1.031250
vt 10.000000 0.000000
vt 10.000000 -1.125000
vt 0.000000 1.000000
vt 1.000000 0.000000
vt 1.000000 1.000000
vt 0.000000 0.000000
vt 13.000000 0.000000
vt 13.000000 1.031250
vt 13.000000 -1.125000
vt 2.000000 0.000000
vt 2.000000 1.000000
vt 6.000000 -1.125000
vt 6.000000 0.000000
vt 7.000000 -1.125000
vt 3.000000 -0.468750
vt 5.000000 -1.125000
vt 5.000000 -0.468750
vt 1.000000 -0.468750
vt 1.000000 -1.125000
vt -1.000000 -0.468750
vt 14.000000 -1.125000
vt 14.000000 0.000000
vt 3.000000 0.398438
vt 5.000000 0.532227
vt 3.000000 0.532227
vt 5.000000 0.398438
vt 5.000000 -0.087891
vt -1.270020 1.533691
vt 1.003418 1.386719
vt 0.996094 1.533691
vt -1.980957 1.386719
vt 4.992676 1.533691
vt 3.189941 1.386719
vt 5.000000 1.386719
vt 2.560059 1.533691
vt 1.000000 1.406250
vt 3.000000 -0.125000
vt 3.000000 1.406250
vt 1.000000 -0.125000
vt 0.000000 1.406250
vt 0.000000 -0.125000
vt -1.000000 1.406250
vt -1.000000 -0.125000
vt -2.000000 1.406250
vt -2.000000 -0.125000
vt 2.200684 1.082031
vt 2.375977 1.082031
vt 2.200684 1.351074
vt 3.000000 -0.087891
vt 6.189941 1.082031
vt 6.372559 1.082031
vt 6.372559 1.351074
vt -1.000000 1.031250
vt 0.000000 1.031250
vt -3.000000 1.031250
vt -3.000000 -0.125000
vt 2.000000 1.031250
vt 3.000000 1.031250
vt 2.000000 -0.125000
s 0
usemtl mt_town_kabeAD.001
f 3/1/1 2/2/1 1/3/1
f 4/4/1 2/2/1 3/1/1
f 2/2/2 6/5/2 5/6/2
f 4/4/2 6/5/2 2/2/2
f 3/7/3 8/8/3 7/9/3
f 1/10/3 8/8/3 3/7/3
f 7/9/4 5/6/4 6/5/4
f 8/8/4 5/6/4 7/9/4
f 11/11/5 10/10/5 9/12/5
f 12/13/5 10/10/5 11/11/5
f 15/11/4 14/10/4 13/12/4
f 16/13/4 14/10/4 15/11/4
f 11/11/3 14/10/3 12/13/3
f 13/12/3 14/10/3 11/11/3
f 15/11/6 10/10/6 16/13/6
f 9/12/6 10/10/6 15/11/6
f 19/11/5 18/10/5 17/12/5
f 20/13/5 18/10/5 19/11/5
f 23/11/4 22/10/4 21/12/4
f 24/13/4 22/10/4 23/11/4
f 19/11/3 22/10/3 20/13/3
f 21/12/3 22/10/3 19/11/3
f 23/11/6 18/10/6 24/13/6
f 17/12/6 18/10/6 23/11/6
f 26/14/2 5/15/2 25/16/2
f 2/17/2 5/15/2 26/14/2
f 8/18/4 25/16/4 5/15/4
f 27/19/4 25/16/4 8/18/4
f 1/12/3 27/19/3 8/18/3
f 28/20/3 27/19/3 1/12/3
f 1/21/1 26/14/1 28/22/1
f 2/17/1 26/14/1 1/21/1
f 31/23/4 30/24/4 29/25/4
f 32/26/4 30/24/4 31/23/4
f 33/27/4 32/26/4 31/23/4
f 36/28/7 35/29/7 34/30/7
f 37/31/7 35/29/7 36/28/7
f 38/10/5 37/31/5 36/28/5
f 39/12/5 37/31/5 38/10/5
f 30/24/6 39/32/6 38/33/6
f 32/26/6 39/32/6 30/24/6
f 33/27/6 39/32/6 32/26/6
f 40/34/6 39/32/6 33/27/6
f 34/30/3 31/35/3 29/36/3
f 35/29/3 31/35/3 34/30/3
f 42/37/4 31/23/4 41/38/4
f 43/39/4 31/23/4 42/37/4
f 44/40/3 42/41/3 41/42/3
f 45/19/3 42/41/3 44/40/3
f 46/43/7 45/19/7 44/40/7
f 47/44/7 45/19/7 46/43/7
f 48/45/5 47/44/5 46/43/5
f 49/20/5 47/44/5 48/45/5
f 39/32/6 49/46/6 48/47/6
f 40/34/6 49/46/6 39/32/6
f 33/27/4 31/23/4 43/39/4
f 52/48/6 51/49/6 50/50/6
f 53/51/6 51/49/6 52/48/6
f 54/52/6 53/51/6 52/48/6
f 55/53/5 51/54/5 53/55/5
f 56/56/5 51/54/5 55/53/5
f 50/57/4 57/58/4 52/59/4
f 58/60/4 57/58/4 50/57/4
f 58/61/4 60/62/4 59/63/4
f 61/64/4 60/62/4 58/61/4
f 56/65/3 61/64/3 58/61/3
f 62/66/3 61/64/3 56/65/3
f 54/67/5 62/66/5 56/65/5
f 63/68/5 62/66/5 54/67/5
f 59/69/6 63/68/6 54/67/6
f 60/70/6 63/68/6 59/69/6
f 54/71/5 55/72/5 53/73/5
f 59/74/6 54/52/6 52/48/6
f 57/75/4 59/76/4 52/77/4
f 66/78/8 65/66/8 64/79/8
f 67/68/8 65/66/8 66/78/8
f 68/80/9 67/68/9 66/78/9
f 69/81/9 67/68/9 68/80/9
f 70/82/3 69/62/3 68/83/3
f 71/84/3 69/62/3 70/82/3
f 64/79/5 71/84/5 70/82/5
f 65/66/5 71/84/5 64/79/5
