# Blender 4.1.1
# www.blender.org
mtllib polygon742.mtl
o polygon742
v -28.314138 -3325.603027 -1521.680786
v 151.354202 -3325.592285 -1521.680786
v 7.190340 -3265.185059 -1566.680786
v 125.662689 -3265.268066 -1566.680786
v -27.951159 -3206.873047 -1521.680664
v 151.790894 -3206.872070 -1521.680664
v 74.496269 -3163.733154 -1598.731567
v -69.463097 -3160.313232 -1598.731567
v 73.833595 -3191.625244 -1637.431763
v -70.125778 -3188.205078 -1637.431763
v -70.788445 -3216.097168 -1598.731567
v 73.170921 -3219.517090 -1598.731567
v 96.610107 -3412.472168 -1585.231689
v 96.754570 -3079.869141 -1585.231567
v 5.159376 -3374.793213 -1652.731689
v 5.096695 -3115.553955 -1652.731567
v -86.665504 -3413.159912 -1585.231689
v -86.533348 -3078.595215 -1585.231567
v 156.581497 -3325.597168 -1521.680786
v 156.576599 -3318.676270 -1521.680786
v 130.387695 -3265.531250 -1566.680786
v 133.911591 -3265.727295 -1561.385742
v 156.500198 -3213.928223 -1521.680664
v 156.581589 -3206.883057 -1521.680664
v -33.055298 -3206.883057 -1521.680664
v -33.053181 -3213.985840 -1521.680664
v 2.465387 -3264.921143 -1566.680786
v -1.058372 -3264.725098 -1561.385742
v -33.024151 -3318.352295 -1521.680786
v -33.055401 -3325.597168 -1521.680786
v 135.134201 -3252.006348 -1578.497803
v 135.134201 -3222.115234 -1578.497681
v 120.384392 -3236.824463 -1660.624634
v 105.243896 -3252.006348 -1578.497803
v 105.243896 -3222.115234 -1578.497681
v 45.550823 -3329.440186 -1795.542725
v 68.325455 -3306.535400 -1670.793701
v 22.997210 -3306.535400 -1670.793701
v 68.325447 -3351.864746 -1670.793701
v 22.997187 -3351.864746 -1670.793701
v 2.255828 -3231.052490 -1934.396484
v 36.278988 -3197.375732 -1750.460571
v -30.672390 -3197.375732 -1750.460571
v 36.279003 -3264.326660 -1750.460693
v -30.672367 -3264.326660 -1750.459595
v -106.624298 -3135.491455 -1912.637573
v -72.509766 -3101.625732 -1728.701538
v -139.461197 -3101.625732 -1728.701538
v -139.461197 -3168.576660 -1728.701538
v -72.509758 -3168.576660 -1728.701538
v -111.374596 -3353.374756 -1860.883667
v -77.455055 -3319.594727 -1676.947754
v -144.406403 -3319.594727 -1676.947754
v -144.406403 -3386.545654 -1676.947754
v -77.455040 -3386.545654 -1676.947754
v 124.983002 -3146.760254 -1838.934570
v 92.134727 -3113.185059 -1654.998535
v 92.134735 -3180.136230 -1654.998535
v 159.086197 -3113.185059 -1654.998535
v 159.086197 -3180.136230 -1654.998535
v 96.660202 -3072.553955 -1585.231567
v 84.782967 -3072.474121 -1585.231567
v 5.238686 -3109.578125 -1652.731567
v 5.364429 -3104.284912 -1644.790649
v -69.619926 -3072.479492 -1585.231567
v -86.504097 -3072.553955 -1585.231567
v -86.504005 -3418.943115 -1585.231689
v -75.324196 -3418.959961 -1585.231689
v 5.043992 -3379.649170 -1652.731689
v 4.918248 -3384.942139 -1644.790771
v 83.545601 -3418.903076 -1585.231689
v 96.660309 -3418.943115 -1585.231689
v 126.147690 -3461.427246 -1608.562744
v 126.147690 -3394.475098 -1608.562744
v 92.134605 -3428.040283 -1792.499634
v 59.196308 -3461.427246 -1608.562744
v 59.196404 -3394.475098 -1608.562744
v -263.057190 -3175.842285 -1619.160645
v -281.643585 -3157.217285 -1518.170654
v -281.643585 -3193.995117 -1518.170654
v -244.866180 -3157.217285 -1518.170654
v -244.866180 -3193.995117 -1518.170654
v -263.314484 -3298.750000 -1619.161865
v -281.764099 -3316.982178 -1518.170776
v -244.986694 -3316.982178 -1518.170776
v -281.764099 -3280.204102 -1518.171875
v -244.986694 -3280.204102 -1518.171875
v -254.108490 -3188.163086 -1518.170654
v -262.140198 -3188.237305 -1540.619507
v -254.108582 -3289.839111 -1518.170776
v -262.909607 -3289.772217 -1540.619629
v -271.069550 -3289.839111 -1518.170776
v -271.069702 -3188.163086 -1518.170654
v -204.599991 -2931.651367 -1467.089722
v -137.725800 -2941.215088 -1467.089722
v -203.835892 -2925.635254 -1482.839722
v -136.577194 -2935.663086 -1482.839722
v -203.061401 -2919.877197 -1467.089722
v -135.568497 -2929.530029 -1467.089722
v -211.847687 -2924.104492 -1537.818726
v -222.652893 -2909.513184 -1467.125732
v -226.297592 -2934.998047 -1467.125732
v -197.167374 -2913.158203 -1467.125732
v -200.812180 -2938.643066 -1467.125732
v -126.704292 -2936.463135 -1537.818726
v -111.956100 -2925.429932 -1467.125732
v -137.441498 -2921.784912 -1467.124878
v -115.600800 -2950.915039 -1467.125732
v -141.086304 -2947.270020 -1467.124878
v -504.744019 -3272.936035 -1467.089600
v -504.744019 -3205.381348 -1467.089478
v -510.806549 -3273.031250 -1482.839600
v -510.402893 -3205.030029 -1482.839478
v -516.616760 -3273.079102 -1467.089600
v -516.616760 -3204.899902 -1467.089478
v -511.187988 -3281.178955 -1537.818726
v -524.102661 -3293.941162 -1467.125732
v -498.358459 -3293.941162 -1467.125732
v -524.102661 -3268.196045 -1467.125732
v -498.358459 -3268.196045 -1467.125732
v -511.007874 -3195.143066 -1537.818604
v -524.018372 -3182.105225 -1467.125610
v -524.018372 -3207.850098 -1467.124634
v -498.274200 -3182.105225 -1467.125610
v -498.274200 -3207.850098 -1467.124634
vn -0.0000 -0.5973 -0.8020
vn -0.0004 -0.5980 -0.8015
vn 0.0004 0.6111 -0.7915
vn -0.0000 0.6104 -0.7921
vn 0.0193 0.8109 -0.5848
vn 0.0193 0.8110 -0.5848
vn -0.0193 -0.8109 -0.5848
vn -0.0193 -0.8110 -0.5848
vn 0.5938 -0.0003 -0.8046
vn 0.5930 0.0001 -0.8052
vn -0.5923 0.0002 -0.8057
vn -0.5931 -0.0001 -0.8051
vn 0.8646 0.0006 -0.5025
vn 0.8299 -0.0606 -0.5546
vn 0.8320 0.0599 -0.5515
vn 0.8698 -0.0101 -0.4933
vn 0.0015 0.6084 -0.7937
vn 0.0335 0.6006 -0.7988
vn 0.8688 0.0006 -0.4951
vn -0.0006 -0.5997 -0.8002
vn -0.0338 -0.6068 -0.7941
vn -0.7850 -0.0002 -0.6194
vn -0.8304 -0.0939 -0.5491
vn -0.8282 0.0833 -0.5542
vn -0.7871 0.0034 -0.6168
vn -0.0008 -0.5954 -0.8034
vn -0.0326 -0.5846 -0.8107
vn -0.7788 -0.0002 -0.6273
vn -0.0012 0.6123 -0.7906
vn 0.0347 0.6237 -0.7809
vn 0.9843 -0.0000 -0.1768
vn -0.0000 -0.9833 -0.1818
vn -0.9834 -0.0000 -0.1813
vn -0.0000 0.9843 -0.1763
vn -0.0000 0.9836 -0.1806
vn 0.9837 -0.0000 -0.1796
vn -0.0000 -0.9842 -0.1769
vn -0.9840 -0.0000 -0.1779
vn -0.0000 0.9836 -0.1801
vn 0.9833 -0.0000 -0.1819
vn -0.0000 -0.9840 -0.1780
vn -0.9844 -0.0000 -0.1762
vn -0.0000 0.9835 -0.1811
vn -0.0000 -0.9842 -0.1770
vn -0.9844 -0.0000 -0.1757
vn 0.9832 -0.0000 -0.1824
vn -0.0000 -0.9841 -0.1775
vn -0.9843 -0.0000 -0.1768
vn 0.9834 -0.0000 -0.1814
vn -0.9844 -0.0000 -0.1758
vn -0.0000 0.9837 -0.1796
vn 0.9832 -0.0000 -0.1823
vn -0.0000 -0.9839 -0.1785
vn 0.0059 0.8734 -0.4870
vn 0.0833 0.8286 -0.5536
vn -0.0863 0.8296 -0.5516
vn -0.0039 0.8745 -0.4849
vn -0.5918 0.0029 -0.8060
vn -0.5894 0.0140 -0.8077
vn -0.0000 0.8821 -0.4711
vn 0.5919 0.0076 -0.8059
vn 0.5965 -0.0142 -0.8025
vn -0.0013 -0.8635 -0.5044
vn -0.0595 -0.8302 -0.5543
vn 0.0599 -0.8310 -0.5530
vn -0.0026 -0.8658 -0.5004
vn 0.5944 0.0046 -0.8042
vn 0.5901 -0.0140 -0.8072
vn 0.0003 -0.8685 -0.4956
vn -0.5888 -0.0165 -0.8081
vn -0.5961 0.0142 -0.8028
vn 0.9833 -0.0000 -0.1818
vn -0.0000 -0.9839 -0.1786
vn -0.9843 -0.0000 -0.1763
vn -0.0000 0.9838 -0.1795
vn -0.9835 -0.0000 -0.1810
vn -0.0000 0.9834 -0.1814
vn 0.9842 -0.0000 -0.1773
vn -0.0000 -0.9841 -0.1777
vn -0.9837 -0.0000 -0.1797
vn 0.9839 -0.0000 -0.1786
vn 0.9416 -0.0000 -0.3369
vn 0.9310 -0.0071 -0.3650
vn -0.9398 -0.0000 -0.3416
vn -0.9292 0.0070 -0.3696
vn -0.1321 -0.9238 -0.3593
vn -0.1388 -0.9308 -0.3382
vn 0.1384 0.9280 -0.3461
vn 0.1317 0.9208 -0.3670
vn -0.9742 0.1393 -0.1777
vn 0.1393 0.9738 -0.1797
vn 0.9736 -0.1393 -0.1806
vn -0.1393 -0.9740 -0.1786
vn 0.1392 0.9736 -0.1810
vn 0.9735 -0.1392 -0.1814
vn -0.1394 -0.9742 -0.1773
vn -0.9743 0.1393 -0.1769
vn 0.9332 -0.0000 -0.3592
vn 0.9410 -0.0056 -0.3382
vn -0.9382 0.0056 -0.3461
vn -0.9302 -0.0000 -0.3670
vt 2.062988 0.995606
vt -0.409912 0.373535
vt 2.499512 0.373535
vt 0.068359 0.995606
vt 2.000000 1.000000
vt 0.000000 0.500000
vt 2.000000 0.500000
vt 0.000000 1.000000
vt 2.000000 1.500000
vt 0.000000 1.500000
vt 6.841797 1.030762
vt 4.259277 -0.013672
vt 7.227295 -0.013672
vt 4.644775 1.030762
vt 4.597900 1.030762
vt 6.888672 1.030762
vt 3.683350 1.041748
vt 3.636963 0.373535
vt 3.683350 0.373535
vt 3.636963 0.949219
vt 2.850098 1.041748
vt 2.896484 0.373535
vt 2.896484 0.949219
vt 2.850098 0.373535
vt 2.803711 0.373535
vt 2.803711 1.041748
vt 5.611084 0.373535
vt 4.748047 0.949219
vt 3.885010 0.373535
vt 3.729736 0.373535
vt 3.729736 1.041748
vt 0.328857 1.000000
vt 0.535156 0.050049
vt 0.100586 0.050049
vt 0.100830 0.050049
vt 0.329102 1.000000
vt 0.534912 0.050049
vt 0.639160 0.050049
vt -0.003418 0.050049
vt 0.334473 1.000000
vt 0.722900 0.050049
vt -0.198486 0.050049
vt 0.255859 1.000000
vt 0.177490 0.029785
vt -0.649170 0.029785
vt -0.238770 0.979736
vt 0.613525 0.050049
vt -0.145264 0.050049
vt 0.195068 1.006348
vt 0.075928 0.050049
vt 0.924072 0.050049
vt 0.494385 1.000000
vt 4.062500 1.062500
vt 4.000000 0.000000
vt 4.062500 0.000000
vt 4.000000 0.937500
vt 2.937500 1.062500
vt 3.000000 0.000000
vt 3.000000 0.937500
vt 2.937500 0.000000
vt 2.875000 0.000000
vt 2.875000 1.062500
vt 6.259277 -0.013672
vt 5.500000 0.973145
vt 4.740723 -0.013672
vt 4.125000 0.000000
vt 4.125000 1.062500
vt 0.220215 1.000000
vt 0.746582 0.050049
vt -0.110596 0.050049
vt 0.100098 0.050049
vt 0.535645 0.050049
vt 0.094482 0.050049
vt 0.548584 0.050049
vt 0.328125 1.000000
vt 2.390137 0.557861
vt 1.074951 0.985352
vt 1.073975 0.557861
vt 2.389160 0.985352
vt 2.388916 0.985352
vt 1.075195 0.985352
s 0
usemtl mt_town_yane_A.001
f 3/1/1 2/2/1 1/3/1
f 4/4/2 2/2/2 3/1/2
f 5/2/3 4/1/3 3/4/3
f 6/3/4 4/1/4 5/2/4
f 9/5/5 8/6/5 7/7/5
f 10/8/6 8/6/6 9/5/6
f 10/8/7 12/9/7 11/10/7
f 9/5/8 12/9/8 10/8/8
f 15/11/9 14/12/9 13/13/9
f 16/14/10 14/12/10 15/11/10
f 18/13/11 15/15/11 17/12/11
f 16/16/12 15/15/12 18/13/12
f 21/17/13 20/18/13 19/19/13
f 22/20/14 20/18/14 21/17/14
f 21/21/15 23/22/15 22/23/15
f 24/24/16 23/22/16 21/21/16
f 21/21/17 6/25/17 24/24/17
f 4/26/18 6/25/18 21/21/18
f 20/27/19 22/28/19 23/29/19
f 2/30/20 21/17/20 19/19/20
f 4/31/21 21/17/21 2/30/21
f 27/17/22 26/18/22 25/19/22
f 28/20/23 26/18/23 27/17/23
f 27/21/24 29/22/24 28/23/24
f 30/24/25 29/22/25 27/21/25
f 27/21/26 1/25/26 30/24/26
f 3/26/27 1/25/27 27/21/27
f 26/29/28 28/28/28 29/27/28
f 5/30/29 27/17/29 25/19/29
f 3/31/30 27/17/30 5/30/30
f 33/32/31 32/33/31 31/34/31
f 31/35/32 34/33/32 33/36/32
f 34/35/33 35/37/33 33/36/33
f 35/34/34 32/33/34 33/32/34
f 38/38/35 37/39/35 36/40/35
f 36/40/36 37/38/36 39/39/36
f 39/38/37 40/39/37 36/40/37
f 40/39/38 38/38/38 36/40/38
f 43/41/39 42/42/39 41/43/39
f 41/43/40 42/41/40 44/42/40
f 44/41/41 45/42/41 41/43/41
f 45/42/42 43/41/42 41/43/42
f 48/44/43 47/45/43 46/46/43
f 50/44/44 49/45/44 46/46/44
f 49/45/45 48/44/45 46/46/45
f 46/46/46 47/44/46 50/45/46
f 53/47/35 52/48/35 51/49/35
f 55/47/47 54/48/47 51/49/47
f 54/48/48 53/47/48 51/49/48
f 51/49/49 52/48/49 55/47/49
f 58/50/50 57/51/50 56/52/50
f 57/51/51 59/50/51 56/52/51
f 56/52/52 59/51/52 60/50/52
f 60/51/53 58/50/53 56/52/53
f 63/53/54 62/54/54 61/55/54
f 64/56/55 62/54/55 63/53/55
f 63/57/56 65/58/56 64/59/56
f 66/60/57 65/58/57 63/57/57
f 63/57/58 18/61/58 66/60/58
f 16/62/59 18/61/59 63/57/59
f 62/63/60 64/64/60 65/65/60
f 14/66/61 63/53/61 61/55/61
f 16/67/62 63/53/62 14/66/62
f 69/53/63 68/54/63 67/55/63
f 70/56/64 68/54/64 69/53/64
f 69/57/65 71/58/65 70/59/65
f 72/60/66 71/58/66 69/57/66
f 69/57/67 13/61/67 72/60/67
f 15/62/68 13/61/68 69/57/68
f 68/65/69 70/64/69 71/63/69
f 17/66/70 69/53/70 67/55/70
f 15/67/71 69/53/71 17/66/71
f 75/68/72 74/69/72 73/70/72
f 73/69/73 76/70/73 75/68/73
f 76/70/74 77/69/74 75/68/74
f 77/69/75 74/70/75 75/68/75
f 80/71/76 79/72/76 78/32/76
f 79/71/77 81/72/77 78/32/77
f 78/32/78 81/72/78 82/71/78
f 82/71/37 80/72/37 78/32/37
f 85/73/79 84/74/79 83/75/79
f 84/73/80 86/74/80 83/75/80
f 86/73/35 87/74/35 83/75/35
f 83/75/81 87/74/81 85/73/81
f 90/76/82 89/77/82 88/78/82
f 91/79/83 89/77/83 90/76/83
f 93/76/84 91/77/84 92/78/84
f 89/79/85 91/77/85 93/76/85
f 96/80/86 95/78/86 94/76/86
f 97/81/87 95/78/87 96/80/87
f 98/78/88 97/80/88 96/81/88
f 99/76/89 97/80/89 98/78/89
f 102/73/90 101/74/90 100/75/90
f 101/73/91 103/74/91 100/75/91
f 103/73/92 104/74/92 100/75/92
f 100/75/93 104/74/93 102/73/93
f 107/71/94 106/72/94 105/32/94
f 106/71/95 108/72/95 105/32/95
f 105/32/96 108/72/96 109/71/96
f 109/71/97 107/72/97 105/32/97
f 112/80/98 111/78/98 110/76/98
f 113/81/99 111/78/99 112/80/99
f 114/78/100 113/80/100 112/81/100
f 115/76/101 113/80/101 114/78/101
f 118/73/79 117/74/79 116/75/79
f 117/73/80 119/74/80 116/75/80
f 119/73/35 120/74/35 116/75/35
f 116/75/81 120/74/81 118/73/81
f 123/71/76 122/72/76 121/32/76
f 122/71/77 124/72/77 121/32/77
f 121/32/78 124/72/78 125/71/78
f 125/71/37 123/72/37 121/32/37
