# Blender 4.1.1
# www.blender.org
mtllib polygon148.mtl
o polygon148
v 8314.254883 -12748.238281 131.001709
v 8203.283203 -12821.759766 131.001709
v 8310.642578 -12845.559570 -68.998222
v 8106.248535 -13190.278320 131.001755
v 8208.527344 -13211.679688 -68.998184
v 7991.415527 -13497.250000 -68.998146
v 8116.467285 -13544.849609 -340.464539
v 7979.259277 -13763.769531 -243.971924
v 8395.500977 -13691.809570 -347.378906
v 8290.316406 -13911.540039 -194.694931
v 8505.362305 -13813.669922 -68.998108
v 8249.929688 -14013.129883 -68.998077
v 8531.291992 -13872.599609 131.001846
v 8243.938477 -14075.540039 131.001877
v 8519.359375 -11731.830078 131.001602
v 8436.772461 -11964.488281 131.001617
v 8576.540039 -11810.339844 -68.998344
v 8518.669922 -11936.250000 -68.998322
v 8711.088867 -11950.259766 -274.797333
v 8542.762695 -12059.410156 -68.998322
v 8732.773438 -12126.879883 -68.998306
v 8708.056641 -12204.200195 131.001648
v 8900.083008 -12016.269531 -68.998322
v 8955.444336 -12052.459961 131.001617
v 8990.513672 -11768.790039 -68.998352
v 9054.725586 -11792.149414 131.001602
v 9047.719727 -11606.889648 131.001572
v 6032.268555 -14455.139648 -407.440704
v 6002.342773 -14289.799805 -384.358093
v 6090.623047 -14319.778320 -42.829433
v 6164.382812 -14252.649414 -42.829437
v 6156.719238 -14231.719727 131.001892
v 6208.076660 -14260.889648 -42.829426
v 6269.629395 -14243.669922 131.001892
v 6272.069824 -14254.469727 -42.829437
v 6320.806641 -14305.370117 -42.829430
v 6364.644043 -14290.568359 -225.172592
v 6265.527344 -14454.269531 -42.829403
v 6295.806641 -14512.609375 -184.467453
v 6999.440918 -14624.318359 -503.190613
v 6931.275391 -14363.519531 -508.839294
v 6819.262207 -14664.559570 -527.799316
v 6648.556641 -14357.939453 -462.951172
v 6556.917480 -14599.609375 -462.377441
v 6483.489258 -14304.129883 -400.789368
v 6397.949707 -14574.459961 -400.502441
v 6318.420898 -14250.309570 -387.462311
v 6238.984375 -14549.330078 -387.462280
v 6774.312500 -14348.238281 131.001907
v 6653.357910 -14366.910156 131.001892
v 6682.119141 -14384.238281 -43.036491
v 6597.533203 -14596.750000 -43.036472
v 6648.556641 -14357.939453 -243.862488
v 6556.917480 -14599.609375 -195.179855
v 6517.371582 -14338.500000 -283.946594
v 6439.725098 -14564.410156 -230.790756
v 6888.985352 -14453.318359 131.001923
v 6873.729004 -14452.139648 -43.036484
v 6833.601074 -14692.568359 131.001938
v 6819.262207 -14664.559570 -43.036453
v 6819.262207 -14664.559570 -192.176727
v 8602.094727 -11682.738281 -68.998360
v 8651.754883 -11567.189453 131.001556
v 8717.743164 -11650.250000 -68.998367
v 8814.479492 -11513.559570 -68.998383
v 8824.415039 -11772.399414 -302.075684
v 8964.842773 -11550.290039 -68.998383
v 6873.729004 -14452.139648 -197.161560
v 7027.516602 -14455.278320 -484.033386
v 6103.614258 -14400.419922 -42.829422
v 6078.366211 -14317.679688 131.001907
v 6138.826660 -14165.568359 -419.742920
v 7958.170898 -13340.169922 131.001770
v 7841.304688 -13624.349609 131.001816
v 7885.407715 -13860.459961 -68.998100
v 7830.982422 -13899.309570 131.001862
v 6913.143555 -14568.349609 -196.394455
v 8730.146484 -12926.568359 131.001724
v 8729.298828 -13015.059570 -68.998207
v 8790.952148 -13056.488281 131.001755
v 8795.958984 -13355.939453 131.001785
v 8734.299805 -13327.459961 -68.998169
v 8606.614258 -13303.969727 -241.719009
v 6089.353516 -14388.699219 131.001907
v 6283.169922 -14468.549805 131.001907
v 8514.452148 -12142.149414 131.001633
v 8843.350586 -11969.189453 -279.472748
v 8309.895508 -13227.769531 -217.364441
v 6349.547852 -14303.568359 131.001907
v 8986.829102 -11470.580078 131.001556
v 8779.715820 -11425.950195 131.001556
v 6550.899414 -14599.129883 131.001938
vn -0.0683 0.8976 -0.4355
vn -0.7421 0.4905 -0.4567
vn -0.2779 0.6524 -0.7051
vn -0.7696 0.4191 -0.4816
vn -0.7714 0.4052 -0.4906
vn -0.7966 0.4121 -0.4423
vn -0.4295 0.2316 -0.8729
vn -0.6446 -0.2519 -0.7219
vn 0.3617 -0.2839 -0.8880
vn 0.1779 -0.7280 -0.6620
vn 0.7386 -0.5565 -0.3805
vn 0.0942 -0.8889 -0.4483
vn 0.7313 -0.6246 -0.2739
vn 0.0874 -0.9524 -0.2922
vn -0.8630 0.4106 -0.2942
vn -0.9353 -0.0117 -0.3535
vn -0.8284 0.2539 -0.4993
vn -0.8494 0.1196 -0.5141
vn -0.4423 -0.2300 -0.8669
vn -0.6457 -0.5464 -0.5334
vn 0.1041 -0.8918 -0.4403
vn 0.0772 -0.9272 -0.3665
vn 0.7385 -0.5955 -0.3161
vn 0.7364 -0.5981 -0.3161
vn 0.9021 -0.0803 -0.4239
vn 0.9341 -0.1608 -0.3187
vn 0.9314 0.2010 -0.3035
vn -0.6432 -0.5371 -0.5457
vn -0.8892 0.2927 -0.3515
vn -0.9439 0.3187 0.0864
vn -0.2668 0.9617 0.0621
vn -0.3331 0.9356 -0.1171
vn 0.0828 0.9965 0.0106
vn 0.3549 0.9285 -0.1096
vn 0.3168 0.9482 0.0219
vn 0.9749 0.2111 0.0704
vn 0.6682 0.6183 0.4139
vn 0.4315 -0.8884 0.1568
vn 0.1069 -0.8012 0.5888
vn 0.7012 -0.5325 -0.4741
vn 0.3545 0.7462 -0.5635
vn -0.0522 -0.6927 -0.7194
vn -0.1070 0.7126 -0.6934
vn -0.3681 -0.6118 -0.7001
vn 0.1249 0.8020 -0.5842
vn -0.2510 -0.7348 -0.6301
vn 0.3045 0.7033 -0.6424
vn -0.2770 -0.7790 -0.5625
vn 0.2726 0.9428 -0.1920
vn -0.6203 0.7609 -0.1901
vn -0.4222 0.9053 -0.0470
vn -0.8786 -0.4771 -0.0189
vn -0.1955 0.9225 0.3328
vn -0.6290 -0.6466 0.4316
vn 0.2190 0.7603 0.6115
vn -0.1330 -0.6554 0.7435
vn 0.9548 0.2858 -0.0818
vn 0.8695 0.4933 -0.0249
vn 0.4811 -0.8620 -0.1600
vn 0.4357 -0.9001 -0.0075
vn 0.2182 -0.9733 0.0707
vn -0.6088 0.5622 -0.5597
vn -0.6683 0.6564 -0.3501
vn -0.5237 0.6112 -0.5934
vn -0.2548 0.7770 -0.5756
vn 0.0591 0.3278 -0.9429
vn 0.6224 0.5588 -0.5481
vn 0.7330 0.6341 0.2462
vn 0.9012 0.3010 -0.3117
vn -0.7594 -0.6397 0.1184
vn -0.9559 0.2849 -0.0720
vn -0.1140 0.8052 -0.5820
vn -0.6897 0.5094 -0.5147
vn -0.8834 0.2284 -0.4091
vn -0.7640 -0.4303 -0.4808
vn -0.7984 -0.5121 -0.3167
vn 0.9218 -0.2366 0.3073
vn 0.6109 0.7203 -0.3287
vn 0.6520 0.4603 -0.6024
vn 0.9490 0.1870 -0.2538
vn 0.9221 -0.2236 -0.3159
vn 0.8729 -0.1882 -0.4502
vn 0.4747 0.1062 -0.8737
vn -0.8049 -0.5928 -0.0261
vn 0.4292 -0.8973 -0.1030
vn -0.5951 -0.7093 -0.3777
vn 0.4382 -0.4695 -0.7665
vn -0.2965 0.4328 -0.8513
vn 0.9538 0.2542 -0.1603
vn 0.5647 0.7463 -0.3523
vn -0.2836 0.8593 -0.4257
vn -0.9000 -0.3599 -0.2461
vt 4.714355 2.006836
vt 4.714844 1.849365
vt 4.886963 1.963135
vt 4.029053 1.902100
vt 4.030762 2.051514
vt 3.444824 1.899658
vt 3.409180 2.093018
vt 2.971191 2.016357
vt 3.258057 2.544922
vt 2.831055 2.511963
vt 3.085938 2.754639
vt 2.636719 2.508057
vt 2.992188 2.819336
vt 2.524414 2.531006
vt 6.638184 1.850342
vt 6.312988 1.737793
vt 6.754150 1.733643
vt 6.394287 1.834717
vt 6.443848 2.102783
vt 6.187012 1.928955
vt 6.141357 2.220215
vt 5.995850 2.225342
vt 6.400391 2.391846
vt 6.358154 2.485107
vt 6.870605 2.390869
vt 6.854248 2.489746
vt 7.177490 2.387695
vt -0.993896 2.374756
vt -0.857178 2.918701
vt -1.187500 3.037598
vt -0.823731 2.308838
vt -0.954834 2.057129
vt -0.725830 2.279541
vt -0.734863 1.984619
vt -0.646729 2.246582
vt -0.453125 2.204834
vt -0.376221 2.478271
vt -0.706055 2.340332
vt -0.540771 2.762939
vt 0.695068 3.115479
vt 0.659912 2.641357
vt 0.929199 2.988037
vt 0.189941 2.697021
vt 0.233887 3.144531
vt -0.106201 2.723145
vt -0.034912 3.169189
vt -0.402588 2.749023
vt -0.303711 3.193604
vt -0.608643 3.314941
vt 0.084229 2.052490
vt -0.041504 1.805176
vt 0.127686 1.744629
vt 0.361816 2.041504
vt 0.099854 2.368896
vt 0.369141 2.541992
vt -0.092529 2.492920
vt -0.000732 2.763672
vt -2.362061 2.430420
vt -2.771729 2.878174
vt -2.843750 2.607910
vt -2.264404 2.712891
vt -2.024902 2.650635
vt -2.200684 2.958252
vt -1.920898 2.889404
vt -2.104248 3.516357
vt -1.806641 3.329102
vt 7.094971 1.830811
vt 6.872559 1.821289
vt 6.974121 1.961914
vt 7.251953 2.024658
vt 6.800293 2.167480
vt 7.245117 2.246826
vt 0.414551 1.960449
vt 0.366699 1.692139
vt 0.478027 2.191406
vt 0.850586 2.569336
vt -1.640869 2.798584
vt -1.508545 3.122803
vt -1.779053 2.915039
vt -1.364746 2.475830
vt -1.103516 2.108154
vt -0.717529 2.864258
vt 3.708252 1.776123
vt 3.163330 1.759521
vt 2.764893 1.937256
vt 2.675537 1.883057
vt -2.325439 3.615967
vt -2.394775 3.010986
vt -2.500000 3.677002
vt -2.699951 3.102295
vt 4.733398 2.616211
vt 4.577393 2.659424
vt 4.528076 2.763672
vt 4.003174 2.920166
vt 4.029541 2.822266
vt 4.021729 2.637451
vt -1.668945 3.182373
vt -1.397217 2.178711
vt -1.803955 2.285889
vt -1.687744 2.563721
vt 6.030518 1.931885
vt 6.461426 2.291504
vt 4.041504 2.197021
vt -0.447510 1.917236
vt -0.711182 1.787598
vt 7.394043 2.236816
vt 7.392822 1.933838
vt 0.079590 1.562012
vt -2.054199 2.351074
s 1
usemtl mt_gake.006
f 3/1/3 2/2/2 1/3/1
f 4/4/4 2/2/2 3/1/3
f 5/5/5 4/4/4 3/1/3
f 6/6/6 4/4/4 5/5/5
f 7/7/7 6/6/6 5/5/5
f 8/8/8 6/6/6 7/7/7
f 9/9/9 8/8/8 7/7/7
f 10/10/10 8/8/8 9/9/9
f 11/11/11 10/10/10 9/9/9
f 12/12/12 10/10/10 11/11/11
f 13/13/13 12/12/12 11/11/11
f 14/14/14 12/12/12 13/13/13
f 17/15/17 16/16/16 15/17/15
f 18/18/18 16/16/16 17/15/17
f 19/19/19 18/18/18 17/15/17
f 20/20/20 18/18/18 19/19/19
f 21/21/21 20/20/20 19/19/19
f 22/22/22 20/20/20 21/21/21
f 23/23/23 22/22/22 21/21/21
f 24/24/24 22/22/22 23/23/23
f 25/25/25 24/24/24 23/23/23
f 26/26/26 24/24/24 25/25/25
f 27/27/27 26/26/26 25/25/25
f 30/28/30 29/29/29 28/30/28
f 31/31/31 29/29/29 30/28/30
f 32/32/32 31/31/31 30/28/30
f 33/33/33 31/31/31 32/32/32
f 34/34/34 33/33/33 32/32/32
f 35/35/35 33/33/33 34/34/34
f 36/36/36 35/35/35 34/34/34
f 37/37/37 35/35/35 36/36/36
f 38/38/38 37/37/37 36/36/36
f 39/39/39 37/37/37 38/38/38
f 42/40/42 41/41/41 40/42/40
f 43/43/43 41/41/41 42/40/42
f 44/44/44 43/43/43 42/40/42
f 45/45/45 43/43/43 44/44/44
f 46/46/46 45/45/45 44/44/44
f 47/47/47 45/45/45 46/46/46
f 48/48/48 47/47/47 46/46/46
f 28/49/28 47/47/47 48/48/48
f 51/50/51 50/51/50 49/52/49
f 52/53/52 50/51/50 51/50/51
f 53/54/53 52/53/52 51/50/51
f 54/55/54 52/53/52 53/54/53
f 55/56/55 54/55/54 53/54/53
f 56/57/56 54/55/54 55/56/55
f 39/39/39 56/57/56 55/56/55
f 59/58/59 58/59/58 57/60/57
f 60/61/60 58/59/58 59/58/59
f 52/62/52 60/61/60 59/58/59
f 61/63/61 60/61/60 52/62/52
f 54/64/54 61/63/61 52/62/52
f 42/65/42 61/63/61 54/64/54
f 44/66/44 42/65/42 54/64/54
f 63/67/63 62/68/62 15/17/15
f 64/69/64 62/68/62 63/67/63
f 65/70/65 64/69/64 63/67/63
f 66/71/66 64/69/64 65/70/65
f 67/72/67 66/71/66 65/70/65
f 25/25/25 66/71/66 67/72/67
f 27/27/27 25/25/25 67/72/67
f 58/73/58 49/52/49 57/74/57
f 51/50/51 49/52/49 58/73/58
f 68/75/68 51/50/51 58/73/58
f 41/41/41 51/50/51 68/75/68
f 69/76/69 41/41/41 68/75/68
f 40/42/40 41/41/41 69/76/69
f 39/77/39 48/78/48 56/79/56
f 28/30/28 48/78/48 39/77/39
f 70/80/70 28/30/28 39/77/39
f 30/28/30 28/30/28 70/80/70
f 71/81/71 30/28/30 70/80/70
f 32/32/32 30/28/30 71/81/71
f 47/47/47 35/35/35 37/37/37
f 33/33/33 35/35/35 47/47/47
f 72/82/72 33/33/33 47/47/47
f 31/31/31 33/33/33 72/82/72
f 29/29/29 31/31/31 72/82/72
f 6/6/6 73/83/73 4/4/4
f 74/84/74 73/83/73 6/6/6
f 75/85/75 74/84/74 6/6/6
f 76/86/76 74/84/74 75/85/75
f 14/14/14 76/86/76 75/85/75
f 40/87/40 61/63/61 42/65/42
f 77/88/77 61/63/61 40/87/40
f 69/89/69 77/88/77 40/87/40
f 68/90/68 77/88/77 69/89/69
f 62/68/62 17/15/17 15/17/15
f 19/19/19 17/15/17 62/68/62
f 64/69/64 19/19/19 62/68/62
f 66/71/66 19/19/19 64/69/64
f 78/91/78 3/1/3 1/3/1
f 79/92/79 3/1/3 78/91/78
f 80/93/80 79/92/79 78/91/78
f 81/94/81 79/92/79 80/93/80
f 82/95/82 79/92/79 81/94/81
f 83/96/83 79/92/79 82/95/82
f 11/11/11 83/96/83 82/95/82
f 9/9/9 83/96/83 11/11/11
f 77/88/77 60/61/60 61/63/61
f 58/59/58 60/61/60 77/88/77
f 68/90/68 58/59/58 77/88/77
f 56/79/56 44/66/44 54/64/54
f 46/97/46 44/66/44 56/79/56
f 48/78/48 46/97/46 56/79/56
f 70/80/70 84/98/84 71/81/71
f 85/99/85 84/98/84 70/80/70
f 38/100/38 85/99/85 70/80/70
f 55/56/55 37/37/37 39/39/39
f 47/47/47 37/37/37 55/56/55
f 45/45/45 47/47/47 55/56/55
f 20/20/20 16/16/16 18/18/18
f 86/101/86 16/16/16 20/20/20
f 22/22/22 86/101/86 20/20/20
f 75/85/75 12/12/12 14/14/14
f 10/10/10 12/12/12 75/85/75
f 8/8/8 10/10/10 75/85/75
f 87/102/87 21/21/21 19/19/19
f 23/23/23 21/21/21 87/102/87
f 25/25/25 23/23/23 87/102/87
f 88/103/88 7/7/7 5/5/5
f 9/9/9 7/7/7 88/103/88
f 83/96/83 9/9/9 88/103/88
f 89/104/89 36/36/36 34/34/34
f 85/105/85 36/36/36 89/104/89
f 55/56/55 43/43/43 45/45/45
f 53/54/53 43/43/43 55/56/55
f 28/49/28 72/82/72 47/47/47
f 29/29/29 72/82/72 28/49/28
f 67/72/67 90/106/90 27/27/27
f 65/70/65 90/106/90 67/72/67
f 65/70/65 91/107/91 90/106/90
f 63/67/63 91/107/91 65/70/65
f 53/54/53 41/41/41 43/43/43
f 51/50/51 41/41/41 53/54/53
f 13/13/13 82/95/82 81/94/81
f 11/11/11 82/95/82 13/13/13
f 87/102/87 66/71/66 25/25/25
f 19/19/19 66/71/66 87/102/87
f 3/1/3 88/103/88 5/5/5
f 79/92/79 88/103/88 3/1/3
f 92/108/92 50/51/50 52/53/52
f 59/58/59 92/109/92 52/62/52
f 36/36/36 85/105/85 38/38/38
f 38/100/38 70/80/70 39/77/39
f 6/6/6 8/8/8 75/85/75
f 88/103/88 79/92/79 83/96/83
