# Blender 4.1.1
# www.blender.org
mtllib polygon1.012.mtl
o tugboat.001
v -8.708243 8.694242 -41.265560
v -8.679238 7.616471 -41.214710
v -8.689819 11.999513 -45.995117
v -8.665977 11.947423 -46.947453
v -8.899020 15.803344 -41.600800
v -8.928028 16.881111 -41.651428
v -15.456500 8.396955 -41.448795
v -15.427488 7.319183 -41.397945
v -15.438080 11.702223 -46.178349
v -15.414229 11.650143 -47.130688
v -15.676280 16.583822 -41.834671
v -14.362960 15.388763 -45.170570
v -14.295019 12.682583 -44.835907
v -9.474092 15.604214 -45.037910
v -9.406333 12.897804 -44.703247
v -14.197350 9.945761 -45.739304
v -9.308661 10.161213 -45.606640
v -14.273709 10.753825 -45.154018
v -14.265010 10.900884 -45.697121
v -13.976480 4.378483 -50.225620
v -13.977729 4.734477 -50.597385
v -14.928320 10.724934 -45.171669
v -14.631269 4.349587 -50.243267
v -14.919788 10.871984 -45.714977
v -14.632519 4.705581 -50.615040
v -14.446479 17.188423 -45.457161
v -14.433089 17.159193 -45.992237
v -15.101080 17.159534 -45.475025
v -15.087688 17.130293 -46.009880
v -14.922159 8.699368 -46.602406
v -15.082669 14.679073 -46.884323
v -14.879060 8.671532 -47.135067
v -15.039570 14.651244 -47.416977
v -15.917509 14.612404 -47.440773
v -15.757000 8.632927 -47.158852
v -14.916780 8.420534 -41.434044
v -14.898359 11.725804 -46.163597
v -14.887950 7.342993 -41.383411
v -14.874509 11.673954 -47.115944
v -15.107738 15.529864 -41.769287
v -15.136749 16.607405 -41.820129
v -15.647280 15.506054 -41.783817
v -9.305197 10.972745 -45.019054
v -9.007965 4.597403 -50.090649
v -9.296488 11.119802 -45.562359
v -9.009215 4.953398 -50.462410
v -8.650411 11.001645 -45.001400
v -8.353364 4.626300 -50.072788
v -8.641887 11.148693 -45.544498
v -8.354611 4.982293 -50.444759
v -9.477962 17.407114 -45.322392
v -9.464571 17.377884 -45.857258
v -8.823177 17.436016 -45.304531
v -8.809784 17.406784 -45.839615
v -8.476706 8.983247 -46.427414
v -8.493059 8.952868 -46.961758
v -8.637219 14.962953 -46.709328
v -8.653575 14.932583 -47.243458
v -7.775633 14.971183 -47.219669
v -7.615119 8.991476 -46.937759
v -9.055403 4.915778 -50.150848
v -9.195936 7.644902 -47.414383
v -13.944268 4.700327 -50.283504
v -14.084619 7.429450 -47.547035
v -8.168521 8.718052 -41.251022
v -8.150101 12.023324 -45.980370
v -8.139699 7.640280 -41.200176
v -8.126255 11.971234 -46.932907
v -14.391499 16.840553 -45.682697
v -9.502631 17.056004 -45.550041
v -8.359484 15.827153 -41.586048
v -8.388489 16.904924 -41.636894
vn -0.9993 -0.0280 -0.0235
vn -0.9993 -0.0278 -0.0235
vn -0.9993 -0.0280 -0.0234
vn 0.0365 -0.2291 -0.9727
vn 0.0226 0.1006 -0.9947
vn 0.0364 -0.2271 -0.9732
vn 0.0228 0.0961 -0.9951
vn 0.0041 0.4552 -0.8904
vn 0.0043 0.4524 -0.8918
vn 0.9993 0.0279 0.0236
vn 0.9993 0.0280 0.0234
vn 0.0064 -0.6224 0.7827
vn -0.9993 -0.0281 -0.0233
vn -0.9993 -0.0279 -0.0234
vn -0.0061 0.6220 -0.7830
vn -0.0063 0.6219 -0.7830
vn 0.9993 0.0279 0.0235
vn -0.9993 -0.0279 -0.0235
vn -0.9993 -0.0279 -0.0232
vn -0.0290 0.0463 0.9985
vn -0.0293 0.0463 0.9985
vn 0.0505 -0.7213 -0.6908
vn 0.0504 -0.7212 -0.6908
vn 0.0290 -0.0463 -0.9985
vn 0.0293 -0.0463 -0.9985
vn -0.0425 0.9976 -0.0556
vn -0.0425 0.9975 -0.0556
vn 0.9964 0.0305 0.0790
vn -0.5558 0.0243 0.8310
vn 0.0291 -0.0463 -0.9985
vn -0.0514 0.8187 0.5719
vn 0.9993 0.0278 0.0233
vn 0.9993 0.0280 0.0235
vn 0.0516 -0.7969 -0.6019
vn 0.0514 -0.7969 -0.6019
vn 0.9993 0.0278 0.0235
vn 0.0151 -0.7556 0.6548
vn 0.0157 -0.7556 0.6548
vn -0.0289 0.0461 0.9985
vn -0.0136 0.7313 -0.6819
vn -0.0289 0.0463 0.9985
vn -0.9993 -0.0279 -0.0236
vn 0.0064 -0.6223 0.7827
vn 0.0061 -0.6224 0.7827
vn 0.9993 0.0281 0.0233
vn 0.9993 0.0279 0.0234
vn -0.0061 0.6219 -0.7830
vn -0.0063 0.6220 -0.7830
vn 0.9993 0.0279 0.0232
vn 0.0505 -0.7212 -0.6908
vn 0.0507 -0.7215 -0.6906
vn 0.0289 -0.0463 -0.9985
vn -0.9992 -0.0253 0.0320
vn 0.5085 0.0542 0.8594
vn -0.0120 0.7077 -0.7064
vn -0.0078 0.6471 -0.7624
vn -0.0079 0.6483 -0.7614
vn -0.0515 0.8187 0.5719
vn -0.0517 0.8187 0.5719
vn 0.0402 -0.3317 -0.9425
vn 0.0154 -0.7556 0.6548
vn -0.0139 0.7313 -0.6819
vn -0.0293 0.0461 0.9985
vn -0.0426 0.9975 -0.0556
vn 0.0424 -0.9976 0.0556
vn 0.0424 -0.9976 0.0554
vn -0.0424 0.9976 -0.0554
vn -0.9993 -0.0280 -0.0233
vt -0.811279 1.456848
vt -0.802979 1.440186
vt -0.802979 1.456848
vt -0.811279 1.440186
vt -0.819641 1.456848
vt -0.819641 1.440186
vt -0.844604 1.456848
vt -0.852966 1.440186
vt -0.852966 1.456848
vt -0.844604 1.440186
vt -0.836304 1.440186
vt -0.856812 0.551086
vt -0.958618 0.589844
vt -0.958618 0.551086
vt -0.856812 0.589844
vt -0.958618 0.639587
vt -0.856812 0.639587
vt -0.819641 1.406799
vt -0.819641 1.423462
vt -0.836304 1.406799
vt -0.836304 1.423462
vt -0.836304 1.456848
vt -0.819641 1.390137
vt -0.836304 1.390137
vt -0.819641 1.398499
vt -0.836304 1.398499
vt -0.836304 1.431824
vt -0.819641 1.431824
vt -0.958618 0.754150
vt -0.856812 0.678589
vt -0.856812 0.754150
vt -0.958618 0.678589
vt -0.856812 0.519104
vt -0.958618 0.519104
s 0
usemtl mt_tugboat.001
f 3/1/1 2/2/1 1/3/1
f 4/4/1 2/2/1 3/1/1
f 5/5/2 4/4/2 3/1/2
f 6/6/3 4/4/3 5/5/3
f 9/7/1 8/8/1 7/9/1
f 10/10/1 8/8/1 9/7/1
f 11/11/2 10/10/2 9/7/2
s 1
f 14/12/4 13/13/5 12/14/6
f 15/15/7 13/13/5 14/12/4
f 15/15/7 16/16/8 13/13/5
f 17/17/9 16/16/8 15/15/7
s 0
f 20/18/10 19/19/10 18/18/10
f 21/19/11 19/19/11 20/18/11
f 23/20/12 18/18/12 22/20/12
f 20/18/12 18/18/12 23/20/12
f 25/21/13 22/20/13 24/21/13
f 23/20/14 22/20/14 25/21/14
f 21/19/15 24/21/15 19/19/15
f 25/21/16 24/21/16 21/19/16
f 19/2/10 26/5/10 18/3/10
f 27/6/17 26/5/17 19/2/17
f 29/11/18 22/9/18 28/22/18
f 24/8/19 22/9/19 29/11/19
f 26/23/20 22/20/20 18/18/20
f 28/24/21 22/20/21 26/23/21
f 20/18/22 25/21/22 21/19/22
f 23/20/23 25/21/23 20/18/23
f 19/19/24 29/11/24 27/6/24
f 24/21/25 29/11/25 19/19/25
f 27/6/26 28/22/26 26/5/26
f 29/11/27 28/22/27 27/6/27
f 32/2/28 31/5/28 30/3/28
f 33/6/28 31/5/28 32/2/28
f 35/8/29 31/23/29 34/11/29
f 30/18/29 31/23/29 35/8/29
f 32/19/30 34/11/30 33/6/30
f 35/21/30 34/11/30 32/19/30
f 37/25/31 7/20/31 36/18/31
f 9/26/31 7/20/31 37/25/31
f 38/2/32 37/1/32 36/3/32
f 39/4/33 37/1/33 38/2/33
f 38/19/34 10/27/34 39/28/34
f 8/21/35 10/27/35 38/19/35
f 39/4/36 40/5/36 37/1/36
f 41/6/11 40/5/11 39/4/11
f 40/23/37 9/26/37 37/25/37
f 42/24/38 9/26/38 40/23/38
f 36/18/39 8/21/39 38/19/39
f 7/20/21 8/21/21 36/18/21
f 39/28/40 11/11/40 41/6/40
f 10/27/40 11/11/40 39/28/40
f 41/6/41 42/22/41 40/5/41
f 11/11/41 42/22/41 41/6/41
f 45/19/42 44/18/42 43/18/42
f 46/19/3 44/18/3 45/19/3
f 43/18/43 48/20/43 47/20/43
f 44/18/44 48/20/44 43/18/44
f 47/20/45 50/21/45 49/21/45
f 48/20/46 50/21/46 47/20/46
f 49/21/47 46/19/47 45/19/47
f 50/21/48 46/19/48 49/21/48
f 51/5/42 45/2/42 43/3/42
f 52/6/18 45/2/18 51/5/18
f 47/9/17 54/11/17 53/22/17
f 49/8/49 54/11/49 47/9/49
f 47/20/20 51/23/20 43/18/20
f 53/24/21 51/23/21 47/20/21
f 50/21/50 44/18/50 46/19/50
f 48/20/51 44/18/51 50/21/51
f 54/11/52 45/19/52 52/6/52
f 49/21/25 45/19/25 54/11/25
f 53/22/27 52/6/27 51/5/27
f 54/11/27 52/6/27 53/22/27
f 57/5/53 56/2/53 55/3/53
f 58/6/53 56/2/53 57/5/53
f 57/23/54 60/8/54 59/11/54
f 55/18/54 60/8/54 57/23/54
s 1
f 63/29/55 62/30/56 61/31/55
f 64/32/57 62/30/56 63/29/55
s 0
f 59/11/30 56/19/30 58/6/30
f 60/21/25 56/19/25 59/11/25
s 1
f 17/17/9 64/32/57 16/16/8
f 62/30/56 64/32/57 17/17/9
s 0
f 67/8/32 66/7/32 65/9/32
f 68/10/33 66/7/33 67/8/33
f 65/20/58 3/25/58 1/18/58
f 66/26/59 3/25/59 65/20/59
s 1
f 70/33/60 12/14/6 69/34/60
f 14/12/4 12/14/6 70/33/60
s 0
f 68/27/35 2/19/35 4/28/35
f 67/21/35 2/19/35 68/27/35
f 66/7/11 72/11/11 71/22/11
f 68/10/17 72/11/17 66/7/17
f 66/26/61 5/23/61 3/25/61
f 71/24/61 5/23/61 66/26/61
f 67/21/41 1/18/41 2/19/41
f 65/20/41 1/18/41 67/21/41
f 72/11/62 4/28/62 6/6/62
f 68/27/62 4/28/62 72/11/62
f 71/22/63 6/6/63 5/5/63
f 72/11/41 6/6/41 71/22/41
f 31/5/64 33/6/64 34/11/64
f 32/19/65 30/18/65 35/21/65
f 56/19/66 60/21/66 55/18/66
f 57/5/67 59/11/67 58/6/67
f 42/22/68 11/11/68 9/7/68
