# Blender 4.1.1
# www.blender.org
mtllib polygon0.186.mtl
o WindmillA.006
v -13.031250 22.593752 7.999997
v -13.718750 20.187498 -7.843752
v -10.625001 21.968748 -7.843752
v -13.812500 19.906246 -9.593752
v -10.343750 21.906246 -9.593753
v -11.625001 20.125000 -11.343753
v -26.062500 0.000001 8.000000
v -24.343750 -1.781251 -7.843750
v -24.343750 1.781249 -7.843750
v -24.156250 -2.000001 -9.593750
v -24.156250 1.999999 -9.593749
v -23.218750 -0.000001 -11.343750
v -13.031250 -22.593746 8.000002
v -10.625001 -21.968750 -7.843748
v -13.718750 -20.187500 -7.843748
v -10.343750 -21.906252 -9.593746
v -13.812500 -19.906252 -9.593748
v -11.625001 -20.125004 -11.343746
v 13.031250 22.593752 7.999997
v 10.625001 21.968748 -7.843752
v 13.718750 20.187498 -7.843752
v 10.343750 21.906246 -9.593753
v 13.812500 19.906246 -9.593752
v 11.625001 20.125000 -11.343753
v 13.031250 -22.593746 8.000002
v 13.718750 -20.187500 -7.843748
v 10.625001 -21.968750 -7.843748
v 13.812500 -19.906252 -9.593748
v 10.343750 -21.906252 -9.593746
v 11.625001 -20.125004 -11.343746
v 26.062500 0.000001 8.000000
v 24.343750 1.781249 -7.843750
v 24.343750 -1.781251 -7.843750
v 24.156250 1.999999 -9.593749
v 24.156250 -2.000001 -9.593750
v 23.218750 -0.000001 -11.343750
v 0.000000 -0.000066 -552.000000
vn -0.4992 0.8650 -0.0501
vn -0.7044 0.7057 -0.0763
vn -0.2576 0.9632 -0.0767
vn -0.6904 0.6217 -0.3699
vn -0.1933 0.9089 -0.3696
vn -0.4570 0.7913 -0.4061
vn -0.9988 -0.0001 -0.0490
vn -0.9634 -0.2579 -0.0735
vn -0.9634 0.2578 -0.0735
vn -0.8834 -0.2862 -0.3711
vn -0.8832 0.2863 -0.3715
vn -0.9108 0.0001 -0.4128
vn -0.4992 -0.8650 -0.0502
vn -0.2575 -0.9632 -0.0766
vn -0.7045 -0.7056 -0.0761
vn -0.1932 -0.9089 -0.3697
vn -0.6905 -0.6218 -0.3697
vn -0.4569 -0.7914 -0.4061
vn 0.4992 0.8650 -0.0502
vn 0.2575 0.9632 -0.0766
vn 0.7045 0.7056 -0.0761
vn 0.1932 0.9089 -0.3697
vn 0.6905 0.6218 -0.3697
vn 0.4569 0.7914 -0.4061
vn 0.4992 -0.8650 -0.0501
vn 0.7044 -0.7057 -0.0763
vn 0.2576 -0.9632 -0.0767
vn 0.6904 -0.6217 -0.3699
vn 0.1933 -0.9089 -0.3696
vn 0.4570 -0.7913 -0.4061
vn 0.9988 0.0001 -0.0490
vn 0.9634 0.2579 -0.0735
vn 0.9634 -0.2578 -0.0735
vn 0.8834 0.2862 -0.3711
vn 0.8832 -0.2863 -0.3715
vn 0.9108 -0.0001 -0.4128
vn -0.0000 -0.0000 -1.0000
vt 0.721191 0.399902
vt 0.612305 0.399902
vt 0.666504 0.000000
vt 0.605957 0.444336
vt 0.727051 0.444336
vt 0.666504 0.514648
vt 4.049805 0.399902
vt 3.945313 0.399902
vt 4.000000 0.000000
vt 3.939453 0.444336
vt 4.055664 0.444336
vt 4.000000 0.514648
vt 3.387695 0.399902
vt 3.278809 0.399902
vt 3.333496 0.000000
vt 3.272949 0.444336
vt 3.394043 0.444336
vt 3.333496 0.514648
vt 1.387695 0.399902
vt 1.278809 0.399902
vt 1.333496 0.000000
vt 1.272949 0.444336
vt 1.394043 0.444336
vt 1.333496 0.514648
vt 2.721191 0.399902
vt 2.612305 0.399902
vt 2.666504 0.000000
vt 2.605957 0.444336
vt 2.727051 0.444336
vt 2.666504 0.514648
vt 2.054688 0.399902
vt 1.945313 0.399902
vt 2.000000 0.000000
vt 1.939453 0.444336
vt 2.060547 0.444336
vt 2.000000 0.514648
vt 0.054688 0.399902
vt 0.000000 0.000000
vt 0.060547 0.444336
vt 0.000000 0.514648
vt 0.333496 10.111330
vt 3.666504 10.111330
vt 3.000000 10.111330
vt 2.333496 10.111330
vt 1.666504 10.111330
vt 1.000000 10.111330
s 1
usemtl mt_Windmill
f 3/1/3 2/2/2 1/3/1
f 4/4/4 2/2/2 3/1/3
f 5/5/5 4/4/4 3/1/3
f 6/6/6 4/4/4 5/5/5
f 9/7/9 8/8/8 7/9/7
f 10/10/10 8/8/8 9/7/9
f 11/11/11 10/10/10 9/7/9
f 12/12/12 10/10/10 11/11/11
f 15/13/15 14/14/14 13/15/13
f 16/16/16 14/14/14 15/13/15
f 17/17/17 16/16/16 15/13/15
f 18/18/18 16/16/16 17/17/17
f 21/19/21 20/20/20 19/21/19
f 22/22/22 20/20/20 21/19/21
f 23/23/23 22/22/22 21/19/21
f 24/24/24 22/22/22 23/23/23
f 27/25/27 26/26/26 25/27/25
f 28/28/28 26/26/26 27/25/27
f 29/29/29 28/28/28 27/25/27
f 30/30/30 28/28/28 29/29/29
f 33/31/33 32/32/32 31/33/31
f 34/34/34 32/32/32 33/31/33
f 35/35/35 34/34/34 33/31/33
f 36/36/36 34/34/34 35/35/35
f 1/3/1 9/37/9 7/38/7
f 2/2/2 9/37/9 1/3/1
f 7/9/7 15/13/15 13/15/13
f 8/8/8 15/13/15 7/9/7
f 25/27/25 33/31/33 31/33/31
f 26/26/26 33/31/33 25/27/25
f 31/33/31 21/19/21 19/21/19
f 32/32/32 21/19/21 31/33/31
f 13/15/13 27/25/27 25/27/25
f 14/14/14 27/25/27 13/15/13
f 19/21/19 3/1/3 1/3/1
f 20/20/20 3/1/3 19/21/19
f 32/32/32 23/23/23 21/19/21
f 34/34/34 23/23/23 32/32/32
f 24/24/24 34/34/34 36/36/36
f 23/23/23 34/34/34 24/24/24
f 26/26/26 35/35/35 33/31/33
f 28/28/28 35/35/35 26/26/26
f 20/20/20 5/5/5 3/1/3
f 22/22/22 5/5/5 20/20/20
f 6/6/6 22/22/22 24/24/24
f 5/5/5 22/22/22 6/6/6
f 14/14/14 29/29/29 27/25/27
f 16/16/16 29/29/29 14/14/14
f 30/30/30 16/16/16 18/18/18
f 29/29/29 16/16/16 30/30/30
f 36/36/36 28/28/28 30/30/30
f 35/35/35 28/28/28 36/36/36
f 8/8/8 17/17/17 15/13/15
f 10/10/10 17/17/17 8/8/8
f 18/18/18 10/10/10 12/12/12
f 17/17/17 10/10/10 18/18/18
f 2/2/2 11/39/11 9/37/9
f 4/4/4 11/39/11 2/2/2
f 12/40/12 4/4/4 6/6/6
f 11/39/11 4/4/4 12/40/12
f 12/40/12 6/6/6 37/41/37
f 18/18/18 12/12/12 37/42/37
f 30/30/30 18/18/18 37/43/37
f 36/36/36 30/30/30 37/44/37
f 24/24/24 36/36/36 37/45/37
f 6/6/6 24/24/24 37/46/37
