# Blender 4.1.1
# www.blender.org
mtllib polygon661.mtl
o polygon661
v -4803.498047 -3432.478027 -651.452148
v -4797.418457 -3427.953125 -649.534973
v -4844.857422 -3329.359131 -647.796631
v -4833.520996 -3323.394043 -649.534973
v -4887.735352 -3250.934082 -634.513672
v -4876.657227 -3245.043213 -635.552673
v -4935.617188 -3170.010010 -622.703674
v -4924.848145 -3164.209473 -622.903320
v -4993.435059 -3069.971191 -612.495605
v -4982.139160 -3064.561035 -612.696106
v -5047.435059 -2947.534912 -605.202637
v -5034.808105 -2943.918945 -605.403076
v -5089.209473 -2833.575439 -602.841675
v -5075.749023 -2831.212158 -603.041199
v -5122.391113 -2725.892090 -600.006714
v -5109.268066 -2721.547119 -600.207092
v -5172.017090 -2622.616211 -601.898743
v -5160.440918 -2616.035889 -602.098450
v -5233.261230 -2525.918213 -611.576721
v -5222.938477 -2517.686035 -611.776978
v -5298.730957 -2422.588867 -623.492371
v -4982.678223 -2803.813965 -603.041260
v -4970.761230 -2800.042236 -605.812866
v -5018.099121 -2688.427246 -600.207031
v -5006.147461 -2683.104492 -602.245361
v -5071.766113 -2570.179932 -602.098389
v -5061.206055 -2563.568848 -604.573975
v -5134.752441 -2461.539795 -611.776917
v -5125.498047 -2453.979004 -613.762512
v -5215.109375 -2362.194824 -623.492371
v -5205.170898 -2353.673096 -626.459656
v -5274.337402 -2273.809814 -632.065125
v -5262.167480 -2265.922119 -635.874817
v -5328.194824 -2174.518066 -642.158813
v -5315.692871 -2167.037109 -645.726746
v -5376.911621 -2070.446045 -651.673218
v -5364.145996 -2063.289795 -656.185730
v -5422.424805 -1963.564087 -666.719177
v -5409.342773 -1956.797119 -669.656372
v -4370.843262 -4552.742188 -739.460938
v -4382.935059 -4555.475098 -739.660889
v -4367.506348 -4573.329102 -739.556396
v -4379.412109 -4575.916016 -739.756409
v -4337.533203 -4774.023438 -740.617554
v -4348.599121 -4775.438477 -740.817627
v -4492.856445 -4583.577637 -739.660889
v -4503.848145 -4586.198242 -739.460876
v -4488.479004 -4602.380371 -739.756470
v -4499.436035 -4604.919434 -739.556396
v -4453.465332 -4791.811035 -740.817627
v -4464.029297 -4793.449707 -740.617554
v -5419.512207 -2222.280762 -642.158813
v -5470.815430 -2115.993896 -651.673218
v -5484.085449 -2121.169922 -651.473816
v -5519.433105 -2006.452148 -666.719177
v -5533.969727 -2010.806030 -666.519653
v -4410.298340 -4432.676270 -732.096680
v -4398.779785 -4429.677246 -732.845825
v -4424.382324 -4311.691406 -722.930420
v -4433.179688 -4313.192871 -721.706665
v -4447.819824 -4195.785156 -715.113708
v -4457.298340 -4197.114746 -714.607605
v -4736.315918 -3271.108154 -648.039856
v -4781.947266 -3190.932129 -637.002747
v -4741.028320 -3273.693115 -647.796814
v -4787.963379 -3194.715820 -634.513489
v -5308.308105 -2431.462158 -623.292725
v -5373.290039 -2331.081787 -631.864746
v -5362.402832 -2324.357910 -632.065002
v -5431.726562 -2228.141846 -641.958801
v -4827.577148 -3110.756348 -625.458374
v -4836.414062 -3116.199463 -622.903259
v -4884.628418 -3013.842285 -615.882996
v -4894.402344 -3019.047119 -612.696106
v -4933.429688 -2903.653076 -608.566772
v -4944.697266 -2907.853027 -605.403015
v -4432.032227 -5003.566406 -731.753418
v -4432.931152 -4993.065430 -732.202881
v -4442.385254 -5003.645996 -731.553345
v -4443.294434 -4993.223145 -732.002869
v -4317.120117 -5002.668457 -731.553345
v -4317.896973 -4991.331055 -732.002869
v -4328.507324 -5002.757324 -731.753418
v -4329.375977 -4991.485352 -732.202759
v -5310.986328 -2433.307129 -600.969910
v -5231.381836 -2532.333984 -590.585205
v -5171.877441 -2626.267090 -581.383484
v -5123.625000 -2726.644043 -580.132263
v -5091.281250 -2831.516357 -583.779419
v -5045.790039 -2953.811035 -586.754822
v -4993.196289 -3073.032227 -594.858337
v -4936.741211 -3170.693115 -605.182007
v -4889.894043 -3249.819580 -617.625671
v -5433.746582 -2227.407959 -620.476196
v -5377.002441 -2327.393066 -610.176575
v -5533.123535 -2016.190063 -643.994385
v -5484.659180 -2123.281982 -631.270447
v -4805.056152 -3433.494141 -641.021667
v -4844.865234 -3332.083008 -631.754761
v -4197.331543 -3150.163086 -716.414673
v -4350.734375 -3332.019043 -711.761353
v -4327.712402 -3344.094482 -717.070923
v -4407.333008 -3517.572266 -708.330383
v -4393.656250 -3701.549072 -713.119995
v -4425.343262 -3704.229248 -706.081848
v -4359.974121 -3946.263184 -704.092285
v -4233.867188 -2470.151855 -725.253967
v -4251.542969 -2867.043213 -718.394226
v -4219.014160 -2864.534180 -720.619141
v -4164.859863 -3157.903076 -721.656921
v -4083.282959 -2061.696777 -693.393188
v -4113.967285 -2042.764038 -690.719421
v -4244.492188 -2275.269043 -727.299622
v -4276.539062 -2268.371826 -722.527588
v -4037.012207 -1778.325073 -622.454651
v -4008.263916 -1791.469238 -621.229248
v -4203.034180 -2468.089600 -725.652405
v -4320.874023 -3945.257080 -708.333069
v -4602.870117 -5796.536133 0.000690
v -4636.255371 -5603.127930 0.000667
v -4672.221191 -5823.859863 0.000693
v -4761.274414 -5634.129883 0.000671
v -4879.598145 -5698.684082 0.000678
v -4811.051270 -5453.072266 0.000649
v -5067.379395 -5502.428223 0.000655
v -4891.895020 -5270.719727 0.000627
v -5080.521484 -5257.409180 0.000626
v -4906.189453 -5068.834473 0.000603
v -5094.888184 -5041.503418 0.000600
v -4965.545898 -5757.389160 0.000685
v -4796.414062 -6023.500000 0.000717
v -4765.597168 -5910.513184 0.000704
v -4691.389160 -5421.621582 0.000645
v -4745.626465 -5271.321289 0.000627
v -5177.279785 -5052.878418 0.000601
v -5185.534668 -5280.119141 0.000628
v -5172.436035 -5543.199707 0.000660
v -4802.218262 -5042.044434 0.000600
v -7503.978516 -4946.307129 0.000589
v -7390.529297 -4904.756836 0.000584
v -7548.690918 -4902.817383 0.000583
v -7435.652344 -4860.693359 0.000578
v -7560.226074 -4726.687988 0.000562
v -7308.580078 -4770.252441 0.000568
v -7448.181152 -4626.608398 0.000551
v -7210.313477 -4693.645996 0.000559
v -7331.436035 -4566.885254 0.000543
v -7605.060059 -4681.516113 0.000557
v -7692.681152 -4807.009766 0.000572
v -7643.290039 -4846.284668 0.000577
v -7263.045898 -4814.892090 0.000573
v -7371.632812 -4521.859863 0.000538
v -7486.965332 -4581.509766 0.000545
v -7164.369141 -4738.859863 0.000564
vn 0.2156 0.1208 -0.9690
vn -0.1286 -0.0444 -0.9907
vn -0.6627 -0.2621 -0.7015
vn -0.1810 0.0680 -0.9811
vn -0.8130 -0.3090 -0.4934
vn -0.1345 0.0844 -0.9873
vn -0.7868 -0.3879 -0.4800
vn -0.0771 0.1091 -0.9910
vn -0.0558 0.0694 -0.9960
vn -0.0522 0.0720 -0.9960
vn -0.0381 0.0426 -0.9984
vn -0.0295 0.0475 -0.9984
vn -0.6605 -0.2090 -0.7211
vn -0.0196 0.0136 -0.9997
vn -0.8164 -0.3124 -0.4857
vn -0.0180 0.0173 -0.9997
vn -0.6278 -0.2435 -0.7393
vn -0.0149 -0.0006 -0.9999
vn -0.5709 -0.3649 -0.7354
vn 0.0122 -0.0509 -0.9986
vn -0.4916 -0.4441 -0.7491
vn 0.0437 -0.0790 -0.9959
vn 0.0439 -0.0708 -0.9965
vn -0.1495 -0.0473 -0.9876
vn -0.2113 -0.0477 -0.9763
vn -0.2118 -0.0480 -0.9761
vn -0.1480 -0.0493 -0.9878
vn -0.1489 -0.1269 -0.9807
vn -0.1467 -0.1305 -0.9805
vn -0.0854 -0.1558 -0.9841
vn -0.0841 -0.1585 -0.9838
vn -0.1196 -0.1966 -0.9732
vn -0.1237 -0.1973 -0.9725
vn -0.1693 -0.2014 -0.9648
vn -0.1705 -0.2016 -0.9645
vn -0.1702 -0.1790 -0.9690
vn -0.1723 -0.1790 -0.9686
vn -0.2161 -0.2102 -0.9535
vn -0.2138 -0.2114 -0.9537
vn -0.1339 -0.1812 -0.9743
vn -0.1273 -0.1775 -0.9759
vn 0.0151 0.0074 -0.9999
vn 0.0089 0.0341 -0.9994
vn 0.0062 0.0343 -0.9994
vn 0.0152 0.0074 -0.9999
vn 0.0198 -0.0148 -0.9997
vn 0.0200 -0.0150 -0.9997
vn -0.0186 0.0014 -0.9998
vn -0.0184 0.0008 -0.9998
vn -0.0186 0.0015 -0.9998
vn -0.0158 -0.0210 -0.9997
vn -0.0156 -0.0213 -0.9997
vn -0.6002 -0.3628 -0.7128
vn 0.0243 -0.1007 -0.9946
vn 0.0227 -0.0817 -0.9964
vn 0.0243 -0.1243 -0.9919
vn -0.5420 -0.3492 -0.7644
vn -0.0771 0.0514 -0.9957
vn -0.0782 0.0516 -0.9956
vn -0.1436 0.0482 -0.9885
vn -0.1434 0.0477 -0.9885
vn -0.0640 0.0480 -0.9968
vn -0.0600 0.0485 -0.9970
vn -0.1092 0.0753 -0.9912
vn -0.3459 -0.0555 -0.9366
vn -0.0961 0.0819 -0.9920
vn -0.3474 -0.0565 -0.9360
vn -0.5035 -0.4379 -0.7448
vn -0.5690 -0.4069 -0.7146
vn 0.0280 -0.0755 -0.9967
vn -0.5875 -0.3772 -0.7159
vn -0.2592 -0.0371 -0.9651
vn -0.2579 -0.0367 -0.9655
vn -0.2782 -0.0624 -0.9585
vn -0.2781 -0.0625 -0.9585
vn -0.2509 -0.0573 -0.9663
vn -0.2486 -0.0570 -0.9669
vn -0.0188 -0.0445 -0.9988
vn -0.0187 -0.0446 -0.9988
vn -0.0190 -0.0444 -0.9988
vn -0.0185 -0.0447 -0.9988
vn 0.0179 -0.0384 -0.9991
vn 0.0179 -0.0382 -0.9991
vn 0.0180 -0.0382 -0.9991
vn -0.8118 -0.5747 -0.1030
vn -0.7966 -0.5886 -0.1379
vn -0.8737 -0.4800 -0.0794
vn -0.9289 -0.3634 -0.0714
vn -0.9461 -0.3165 -0.0685
vn -0.9249 -0.3773 -0.0473
vn -0.8907 -0.4497 -0.0659
vn -0.8933 -0.4447 -0.0651
vn -0.8651 -0.4961 -0.0747
vn -0.8703 -0.4862 -0.0790
vn -0.8796 -0.4711 -0.0667
vn -0.8563 -0.5130 -0.0594
vn -0.9058 -0.4184 -0.0663
vn -0.8988 -0.4327 -0.0708
vn -0.9164 -0.3614 -0.1721
vn -0.9078 -0.4134 -0.0707
vn -0.9310 -0.3598 -0.0616
vn -0.1795 0.0761 -0.9808
vn -0.1846 0.0788 -0.9796
vn -0.1492 0.0356 -0.9882
vn -0.1492 0.0162 -0.9887
vn -0.2047 -0.0262 -0.9785
vn -0.2145 -0.0280 -0.9763
vn -0.1119 0.0172 -0.9936
vn -0.0688 -0.0172 -0.9975
vn -0.0669 -0.0170 -0.9976
vn -0.0199 -0.0121 -0.9997
vn -0.1518 0.0322 -0.9879
vn -0.1173 0.0939 -0.9886
vn 0.0364 0.2002 -0.9791
vn 0.0337 0.1930 -0.9806
vn -0.1260 0.0974 -0.9872
vn 0.1320 0.2122 -0.9683
vn 0.1373 0.2100 -0.9680
vn -0.0121 -0.0117 -0.9999
vn -0.1081 0.0092 -0.9941
vn -0.1096 0.0823 -0.9906
vn -0.0000 -0.0000 -1.0000
vt -0.828674 0.000000
vt -0.915161 1.000000
vt -0.915161 0.000000
vt -0.822205 1.000000
vt -0.701843 0.000000
vt -0.696106 1.000000
vt -0.577942 0.000000
vt -0.572510 1.000000
vt -0.401611 0.000000
vt -0.398071 1.000000
vt -0.227051 0.000000
vt -0.225525 1.000000
vt -0.062195 0.000000
vt -0.061523 1.000000
vt 0.102600 0.000000
vt 0.104248 1.000000
vt 0.262512 0.000000
vt 0.265259 1.000000
vt 0.422424 0.000000
vt 0.424988 1.000000
vt 0.589722 1.000000
vt -0.102783 1.000000
vt -0.248718 0.000000
vt -0.217590 1.000000
vt -0.112793 0.000000
vt 0.080872 1.000000
vt 0.047546 0.000000
vt 0.240784 1.000000
vt 0.207947 0.000000
vt 0.386169 1.000000
vt 0.352112 0.000000
vt 0.528625 1.000000
vt 0.496399 0.000000
vt 0.663635 1.000000
vt 0.633240 0.000000
vt 0.780945 1.000000
vt 0.770020 0.000000
vt 0.920471 1.000000
vt 0.906860 0.000000
vt 0.199036 0.000000
vt 0.115784 1.000000
vt 0.051819 0.000000
vt 0.194580 1.000000
vt 0.836792 0.000000
vt 0.901856 1.000000
vt 0.733581 1.000000
vt 0.901856 0.000000
vt 0.784607 0.000000
vt 0.051819 1.000000
vt 0.892822 0.000000
vt 0.895203 1.000000
vt 0.835083 1.000000
vt 0.953735 1.000000
vt 0.953735 0.000000
vt -0.306152 1.000000
vt -0.943970 0.000000
vt -0.943970 1.000000
vt -0.306457 0.000000
vt 0.406128 0.000000
vt 0.399719 1.000000
vt 0.956055 0.000000
vt 0.956055 1.000000
vt -0.908691 1.000000
vt -0.797119 0.000000
vt -0.908691 0.000000
vt -0.776367 1.000000
vt 0.584351 0.000000
vt 0.747498 0.000000
vt 0.750488 1.000000
vt 0.830750 0.000000
vt -0.684326 0.000000
vt -0.657471 1.000000
vt -0.534485 0.000000
vt -0.506104 1.000000
vt -0.384644 0.000000
vt -0.351685 1.000000
vt -0.311768 0.000000
vt -0.159912 1.000000
vt -0.311768 1.000000
vt -0.226379 0.000000
vt 0.888245 1.000000
vt 0.888245 0.000000
vt 0.899231 1.000000
vt 0.801148 0.000000
vt 0.863525 0.000000
vt 0.837280 1.000000
vt -0.307983 0.000000
vt -0.298645 1.000000
vt -0.675598 0.599976
vt -0.707153 1.000000
vt -0.378845 1.000000
vt -0.881531 1.000000
vt -0.942200 0.599976
vt -0.994324 1.000000
vt -0.997986 1.000000
vt -0.285400 0.599976
vt -0.338806 1.000000
vt -0.132080 1.000000
vt -0.330139 0.599976
vt -0.061584 0.599976
vt 0.252686 1.000000
vt 0.293518 0.599976
vt -0.109985 1.000000
vt 0.535523 0.599976
vt 0.495239 1.000000
vt -0.081604 0.599976
vt -0.934692 0.599976
vt -1.251343 1.000000
vt -0.233398 0.799988
vt 0.269348 1.000000
vt -0.233398 1.000000
vt 0.269348 0.799988
vt 0.520752 0.799988
vt 0.772156 0.799988
vt 1.274963 0.799988
vt 0.520752 1.000000
vt 0.772156 1.000000
vt 1.274963 1.000000
s 0
usemtl mt_gake_blend.009
f 3/1/1 2/2/1 1/3/1
f 4/4/2 2/2/2 3/1/2
s 1
f 5/5/3 4/4/4 3/1/5
f 6/6/6 4/4/4 5/5/3
f 7/7/7 6/6/6 5/5/3
f 8/8/8 6/6/6 7/7/7
s 0
f 9/9/9 8/8/9 7/7/9
f 10/10/10 8/8/10 9/9/10
f 11/11/11 10/10/11 9/9/11
f 12/12/12 10/10/12 11/11/12
s 1
f 13/13/13 12/12/14 11/11/15
f 14/14/16 12/12/14 13/13/13
f 15/15/17 14/14/16 13/13/13
f 16/16/18 14/14/16 15/15/17
f 17/17/19 16/16/18 15/15/17
f 18/18/20 16/16/18 17/17/19
f 19/19/21 18/18/20 17/17/19
f 20/20/22 18/18/20 19/19/21
f 21/21/23 20/20/22 19/19/21
f 24/22/24 23/23/25 22/24/26
f 25/25/27 23/23/25 24/22/24
f 26/26/28 25/25/27 24/22/24
f 27/27/29 25/25/27 26/26/28
f 28/28/30 27/27/29 26/26/28
f 29/29/31 27/27/29 28/28/30
f 30/30/32 29/29/31 28/28/30
f 31/31/33 29/29/31 30/30/32
f 32/32/34 31/31/33 30/30/32
f 33/33/35 31/31/33 32/32/34
f 34/34/36 33/33/35 32/32/34
f 35/35/37 33/33/35 34/34/36
f 36/36/38 35/35/37 34/34/36
f 37/37/39 35/35/37 36/36/38
f 38/38/40 37/37/39 36/36/38
f 39/39/41 37/37/39 38/38/40
f 42/40/42 41/41/43 40/42/44
f 43/43/45 41/41/43 42/40/42
f 44/44/46 43/43/45 42/40/42
f 45/45/47 43/43/45 44/44/46
f 48/46/48 47/47/49 46/45/49
f 49/48/50 47/47/49 48/46/48
f 50/49/51 49/48/50 48/46/48
f 51/42/52 49/48/50 50/49/51
f 54/50/53 53/51/54 52/52/55
f 55/53/56 53/51/54 54/50/53
f 56/54/57 55/53/56 54/50/53
f 57/55/58 40/56/44 41/57/43
f 58/58/59 40/56/44 57/55/58
f 59/59/60 58/58/59 57/55/58
f 60/60/61 59/59/60 57/55/58
f 61/61/62 59/59/60 60/60/61
f 62/62/63 61/61/62 60/60/61
f 65/63/64 64/64/65 63/65/66
f 66/66/67 64/64/65 65/63/64
f 67/67/68 21/21/23 19/19/21
f 68/68/69 21/21/23 67/67/68
f 68/68/69 69/69/70 21/21/23
f 70/70/71 69/69/70 68/68/69
f 70/70/71 52/52/55 69/69/70
f 54/50/53 52/52/55 70/70/71
f 66/66/67 71/71/72 64/64/65
f 72/72/73 71/71/72 66/66/67
f 72/72/73 73/73/74 71/71/72
f 74/74/75 73/73/74 72/72/73
f 74/74/75 75/75/76 73/73/74
f 76/76/77 75/75/76 74/74/75
f 76/76/77 23/23/25 75/75/76
f 22/24/26 23/23/25 76/76/77
f 79/77/78 78/78/79 77/79/80
f 80/80/81 78/78/79 79/77/78
f 50/81/51 80/80/81 51/82/52
f 78/78/79 80/80/81 50/81/51
f 83/83/82 82/84/83 81/85/82
f 84/86/84 82/84/83 83/83/82
f 84/86/84 44/87/46 82/84/83
f 45/88/47 44/87/46 84/86/84
f 19/19/21 86/20/85 85/21/86
f 87/18/87 86/20/85 19/19/21
f 17/17/19 87/18/87 19/19/21
f 88/16/88 87/18/87 17/17/19
f 15/15/17 88/16/88 17/17/19
f 89/14/89 88/16/88 15/15/17
f 13/13/13 89/14/89 15/15/17
f 90/12/90 89/14/89 13/13/13
f 11/11/15 90/12/90 13/13/13
f 91/10/91 90/12/90 11/11/15
f 9/9/92 91/10/91 11/11/15
f 92/8/93 91/10/91 9/9/92
f 7/7/7 92/8/93 9/9/92
f 93/6/94 92/8/93 7/7/7
f 5/5/3 93/6/94 7/7/7
f 70/70/71 94/52/95 54/50/53
f 95/69/96 94/52/95 70/70/71
f 68/68/69 95/69/96 70/70/71
f 85/21/86 95/69/96 68/68/69
f 67/67/68 85/21/86 68/68/69
f 19/19/21 85/21/86 67/67/68
f 54/50/53 96/53/97 56/54/57
f 97/51/98 96/53/97 54/50/53
f 94/52/95 97/51/98 54/50/53
s 0
f 98/2/99 3/1/99 1/3/99
s 1
f 99/4/100 3/1/5 98/2/101
f 99/4/100 5/5/3 3/1/5
f 93/6/94 5/5/3 99/4/100
f 102/89/102 101/90/103 100/91/104
f 103/92/105 101/90/103 102/89/102
f 104/93/106 103/92/105 102/89/102
f 105/94/107 103/92/105 104/93/106
f 106/95/108 105/94/107 104/93/106
f 109/96/109 108/97/110 107/98/111
f 100/91/104 108/97/110 109/96/109
f 110/99/112 100/91/104 109/96/109
f 102/89/102 100/91/104 110/99/112
f 113/100/113 112/101/114 111/102/115
f 114/103/116 112/101/114 113/100/113
f 107/98/111 114/103/116 113/100/113
f 116/104/117 112/101/114 115/105/118
f 111/102/115 112/101/114 116/104/117
f 117/106/119 107/98/111 113/100/113
f 109/96/109 107/98/111 117/106/119
f 106/95/108 118/107/120 61/108/121
f 104/93/106 118/107/120 106/95/108
s 0
f 121/109/122 120/110/122 119/111/122
f 122/112/122 120/110/122 121/109/122
f 123/112/122 122/112/122 121/109/122
f 124/113/122 122/112/122 123/112/122
f 125/113/122 124/113/122 123/112/122
f 126/114/122 124/113/122 125/113/122
f 127/114/122 126/114/122 125/113/122
f 128/115/122 126/114/122 127/114/122
f 129/115/122 128/115/122 127/114/122
f 123/112/122 131/111/122 130/110/122
f 132/109/122 131/111/122 123/112/122
f 121/109/122 132/109/122 123/112/122
f 122/112/122 133/116/122 120/110/122
f 124/113/122 133/116/122 122/112/122
f 124/113/122 134/117/122 133/116/122
f 126/114/122 134/117/122 124/113/122
f 129/115/122 136/117/122 135/118/122
f 127/114/122 136/117/122 129/115/122
f 127/114/122 137/116/122 136/117/122
f 125/113/122 137/116/122 127/114/122
f 125/113/122 130/110/122 137/116/122
f 123/112/122 130/110/122 125/113/122
f 138/118/122 126/114/122 128/115/122
f 134/117/122 126/114/122 138/118/122
f 141/109/122 140/110/122 139/111/122
f 142/112/122 140/110/122 141/109/122
f 143/112/122 142/112/122 141/109/122
f 144/114/122 142/112/122 143/112/122
f 145/114/122 144/114/122 143/112/122
f 146/115/122 144/114/122 145/114/122
f 147/115/122 146/115/122 145/114/122
f 143/112/122 149/111/122 148/110/122
f 150/109/122 149/111/122 143/112/122
f 141/109/122 150/109/122 143/112/122
f 142/112/122 151/117/122 140/110/122
f 144/114/122 151/117/122 142/112/122
f 147/115/122 153/117/122 152/118/122
f 145/114/122 153/117/122 147/115/122
f 145/114/122 148/110/122 153/117/122
f 143/112/122 148/110/122 145/114/122
f 154/118/122 144/114/122 146/115/122
f 151/117/122 144/114/122 154/118/122
