# Blender 4.1.1
# www.blender.org
mtllib polygon495.mtl
o polygon495
v -3186.893066 2762.897217 -306.223022
v -3172.223145 2780.751221 -289.588104
v -3177.392090 2780.751221 -306.223022
v -3186.892090 2798.604248 -306.223022
v -3187.184082 2798.056152 -325.087616
v -3205.859863 2798.604248 -306.223022
v -3214.777100 2780.751221 -325.087616
v -3215.359863 2780.751221 -306.223022
v -3205.859863 2762.897217 -306.223022
v -3208.443115 2758.036133 -289.588135
v -3208.443115 2803.465820 -289.588104
v -3187.184082 2763.445801 -325.087616
v -3184.309570 2758.036133 -289.588135
v -3211.528076 2752.228027 -276.579773
v -3181.224854 2752.228027 -276.579773
v -3178.089844 2746.326172 -258.443939
v -3159.772217 2780.751221 -258.443909
v -3156.383057 2780.751221 -239.470337
v -3178.089844 2815.175781 -258.443939
v -3176.396240 2818.363037 -239.470337
v -3214.663086 2815.175781 -258.443939
v -3216.356201 2818.363037 -239.470337
v -3236.369873 2780.751221 -239.470337
v -3236.528076 2780.751221 -220.240036
v -3212.806152 2780.751221 -387.888611
v -3218.368164 2780.751221 -369.545105
v -3204.584229 2765.300049 -387.888611
v -3207.363037 2760.069092 -369.545105
v -3188.168945 2765.300049 -387.888611
v -3185.389893 2760.069092 -369.545105
v -3174.385254 2780.751221 -369.545105
v -3185.645264 2760.548096 -350.480988
v -3174.895264 2780.751221 -350.480988
v -3186.724854 2762.581787 -334.617889
v -3177.057129 2780.751221 -334.617889
v -3178.549072 2780.751221 -315.917786
v -3186.724854 2798.919922 -334.617889
v -3220.530029 2780.751221 -289.588104
v -3226.705811 2780.751221 -276.579742
v -3232.979980 2780.751221 -258.443909
v -3214.663086 2746.326172 -258.443939
v -3216.356201 2743.138184 -239.470322
v -3216.434814 2742.989990 -220.240021
v -3185.645264 2800.954102 -350.480988
v -3185.389893 2801.433105 -369.545105
v -3188.167969 2796.202148 -387.888611
v -3207.363037 2801.433105 -369.545105
v -3204.584229 2796.202148 -387.888611
v -3166.047119 2780.751221 -276.579742
v -3184.309570 2803.465820 -289.588104
v -3181.224854 2809.273926 -276.579742
v -3211.528076 2809.273926 -276.579742
v -3207.108154 2800.954102 -350.480988
v -3217.858154 2780.751221 -350.480988
v -3216.434814 2818.511230 -220.240051
v -3176.318115 2818.511230 -220.240051
v -3156.224854 2780.751221 -220.240036
v -3176.396240 2743.138184 -239.470322
v -3176.318115 2742.989990 -220.240021
v -3206.028076 2762.581787 -334.617889
v -3207.108154 2760.548096 -350.480988
v -3205.292236 2797.409912 -310.249939
v -3187.062012 2798.284912 -328.266418
v -3177.997070 2780.751221 -309.560089
v -3215.021240 2780.751221 -328.266418
v -3205.721191 2763.156250 -310.537598
v -3205.310791 2797.512207 -316.607391
v -3215.695801 2780.751221 -334.617889
v -3205.342041 2763.903076 -316.895325
v -3187.062012 2763.217041 -328.266418
v -3206.028076 2798.919922 -334.617889
v -3179.947021 2780.751221 -387.888611
v -3196.376221 2780.751221 -396.757385
vn 0.5087 -0.8411 -0.1837
vn 0.9286 -0.0000 -0.3712
vn 0.9782 -0.0000 -0.2079
vn 0.5087 0.8411 -0.1837
vn 0.5030 0.8633 0.0415
vn -0.5016 0.8286 -0.2486
vn -0.9990 0.0181 0.0400
vn -0.9850 -0.0000 -0.1723
vn -0.5079 -0.8397 -0.1919
vn -0.4763 -0.7870 -0.3921
vn -0.4763 0.7870 -0.3921
vn 0.5223 -0.8515 0.0464
vn 0.4763 -0.7870 -0.3921
vn -0.4748 -0.7880 -0.3919
vn 0.4748 -0.7880 -0.3919
vn 0.4969 -0.8279 -0.2602
vn 0.9691 -0.0000 -0.2467
vn 0.9959 -0.0000 -0.0901
vn 0.4969 0.8279 -0.2602
vn 0.5114 0.8540 -0.0953
vn -0.4969 0.8279 -0.2602
vn -0.5114 0.8540 -0.0953
vn -0.9959 -0.0000 -0.0901
vn -1.0000 -0.0000 -0.0082
vn -0.8135 -0.0000 -0.5816
vn -0.9918 -0.0000 -0.1275
vn -0.4162 -0.6898 -0.5924
vn -0.5082 -0.8507 -0.1341
vn 0.4162 -0.6898 -0.5924
vn 0.5082 -0.8507 -0.1341
vn 0.9918 -0.0000 -0.1275
vn 0.5123 -0.8546 0.0845
vn 0.9968 -0.0000 0.0797
vn 0.5117 -0.8505 0.1218
vn 0.9941 -0.0000 0.1082
vn 0.9995 -0.0000 -0.0327
vn 0.5114 0.8506 0.1223
vn -0.9286 -0.0000 -0.3712
vn -0.9279 -0.0000 -0.3728
vn -0.9691 -0.0000 -0.2467
vn -0.4969 -0.8279 -0.2602
vn -0.5114 -0.8540 -0.0953
vn -0.5148 -0.8573 -0.0087
vn 0.5123 0.8546 0.0845
vn 0.5082 0.8507 -0.1341
vn 0.4162 0.6898 -0.5924
vn -0.5082 0.8507 -0.1341
vn -0.4162 0.6898 -0.5924
vn 0.9279 -0.0000 -0.3728
vn 0.4763 0.7870 -0.3921
vn 0.4748 0.7880 -0.3919
vn -0.4748 0.7880 -0.3919
vn -0.5123 0.8546 0.0845
vn -0.9968 -0.0000 0.0798
vn -0.5148 0.8573 -0.0087
vn 0.5147 0.8573 -0.0087
vn 1.0000 -0.0000 -0.0082
vn 0.5114 -0.8540 -0.0953
vn 0.5147 -0.8573 -0.0087
vn -0.5120 -0.8513 0.1147
vn -0.5123 -0.8546 0.0845
vn -0.5172 0.8251 -0.2275
vn 0.5108 0.8543 0.0958
vn 0.9887 -0.0000 -0.1498
vn -0.9961 0.0037 0.0881
vn -0.5149 -0.8536 -0.0793
vn -0.5153 0.8560 0.0407
vn -0.9934 0.0003 0.1148
vn -0.5205 -0.8517 -0.0609
vn 0.5149 -0.8524 0.0908
vn -0.5118 0.8512 0.1164
vn 0.8135 -0.0000 -0.5816
vn -0.0000 -0.0000 -1.0000
vt 0.403809 0.983521
vt 0.403809 0.744629
vt 1.018433 0.983521
vt -0.210815 0.983521
vt -0.210815 1.254517
vt -0.765259 0.983521
vt 1.572998 0.983521
vt 2.187622 0.983521
vt 2.187622 1.254517
vt 1.572998 0.744629
vt -1.379883 0.983521
vt -1.379883 1.254517
vt -0.765259 0.744629
vt 1.018433 1.254517
vt 1.018433 0.744629
vt 1.572998 0.557861
vt 1.018433 0.557861
vt 1.018433 0.297363
vt 0.403809 0.297363
vt 0.403809 0.024902
vt -0.210815 0.297363
vt -0.210815 0.024902
vt -0.765259 0.297363
vt -0.765259 0.024902
vt -1.379883 0.024902
vt -1.379883 -0.251343
vt 1.572998 2.156372
vt 2.187622 1.892944
vt 2.187622 2.156372
vt 1.572998 1.892944
vt 1.018433 2.156372
vt 1.018433 1.892944
vt 0.403809 1.892944
vt 1.018433 1.619141
vt 0.403809 1.619141
vt 1.018433 1.391357
vt 0.403809 1.391357
vt 0.403809 1.163208
vt -0.210815 1.391357
vt 2.187622 0.744629
vt 2.187622 0.557861
vt 2.187622 0.297363
vt 1.572998 0.297363
vt 2.187622 0.024902
vt 1.572998 0.024902
vt 2.187622 -0.251343
vt 1.572998 -0.251343
vt -0.210815 1.619141
vt -0.210815 1.892944
vt -0.210815 2.156372
vt -0.765259 1.892944
vt -0.765259 2.156372
vt -1.379883 1.892944
vt -1.379883 2.156372
vt 0.403809 0.557861
vt -0.210815 0.744629
vt -0.210815 0.557861
vt -0.765259 0.557861
vt -1.379883 0.557861
vt -1.379883 0.297363
vt -0.765259 1.619141
vt -1.379883 1.619141
vt -0.765259 -0.251343
vt -0.210815 -0.251343
vt 0.403809 -0.251343
vt 1.018433 0.024902
vt 1.018433 -0.251343
vt 1.572998 1.391357
vt 1.572998 1.619141
vt 2.187622 1.619141
vt -0.765259 1.071899
vt -0.210815 1.300171
vt 0.403809 1.071899
vt 1.572998 1.071899
vt 2.187622 1.300171
vt -0.765259 1.163208
vt 1.572998 1.163208
vt 2.187622 1.391357
vt 1.018433 1.300171
vt -0.765259 1.391357
vt -1.379883 0.744629
vt -1.379883 1.300171
vt -1.379883 1.391357
vt 0.403809 2.156372
vt 0.403809 2.365601
vt 1.018433 2.365601
vt 0.687866 2.732788
vt 1.288696 2.751221
vt 1.572998 2.365601
vt 1.857910 2.735352
vt 2.187622 2.365601
vt -1.379883 2.365601
vt -0.765259 2.365601
vt -1.035645 2.722168
vt -0.210815 2.365601
vt -0.484863 2.743286
vt 0.096436 2.753418
s 1
usemtl mt_toudai
f 3/1/3 2/2/2 1/3/1
f 4/4/4 2/2/2 3/1/3
f 5/5/5 4/4/4 3/1/3
f 6/6/6 4/4/4 5/5/5
f 9/7/9 8/8/8 7/9/7
f 10/10/10 8/8/8 9/7/9
f 1/3/1 10/10/10 9/7/9
f 8/11/8 6/6/6 7/12/7
f 11/13/11 6/6/6 8/11/8
f 12/14/12 1/3/1 9/7/9
f 3/1/3 1/3/1 12/14/12
f 11/13/11 4/4/4 6/6/6
f 13/15/13 10/10/10 1/3/1
f 14/16/14 10/10/10 13/15/13
f 15/17/15 14/16/14 13/15/13
f 16/18/16 14/16/14 15/17/15
f 17/19/17 16/18/16 15/17/15
f 18/20/18 16/18/16 17/19/17
f 19/21/19 18/20/18 17/19/17
f 20/22/20 18/20/18 19/21/19
f 21/23/21 20/22/20 19/21/19
f 22/24/22 20/22/20 21/23/21
f 23/25/23 22/24/22 21/23/21
f 24/26/24 22/24/22 23/25/23
f 27/27/27 26/28/26 25/29/25
f 28/30/28 26/28/26 27/27/27
f 29/31/29 28/30/28 27/27/27
f 30/32/30 28/30/28 29/31/29
f 31/33/31 30/32/30 29/31/29
f 32/34/32 30/32/30 31/33/31
f 33/35/33 32/34/32 31/33/31
f 34/36/34 32/34/32 33/35/33
f 35/37/35 34/36/34 33/35/33
f 36/38/36 34/36/34 35/37/35
f 37/39/37 36/38/36 35/37/35
f 10/10/10 38/40/38 8/8/8
f 39/41/39 38/40/38 10/10/10
f 14/16/14 39/41/39 10/10/10
f 40/42/40 39/41/39 14/16/14
f 41/43/41 40/42/40 14/16/14
f 23/44/23 40/42/40 41/43/41
f 42/45/42 23/44/23 41/43/41
f 24/46/24 23/44/23 42/45/42
f 43/47/43 24/46/24 42/45/42
f 33/35/33 37/39/37 35/37/35
f 44/48/44 37/39/37 33/35/33
f 31/33/31 44/48/44 33/35/33
f 45/49/45 44/48/44 31/33/31
f 46/50/46 45/49/45 31/33/31
f 47/51/47 45/49/45 46/50/46
f 48/52/48 47/51/47 46/50/46
f 26/53/26 47/51/47 48/52/48
f 25/54/25 26/53/26 48/52/48
f 2/2/2 13/15/13 1/3/1
f 49/55/49 13/15/13 2/2/2
f 50/56/50 49/55/49 2/2/2
f 51/57/51 49/55/49 50/56/50
f 11/13/11 51/57/51 50/56/50
f 52/58/52 51/57/51 11/13/11
f 39/59/39 52/58/52 11/13/11
f 40/60/40 52/58/52 39/59/39
f 49/55/49 15/17/15 13/15/13
f 17/19/17 15/17/15 49/55/49
f 51/57/51 17/19/17 49/55/49
f 19/21/19 17/19/17 51/57/51
f 21/23/21 19/21/19 51/57/51
f 47/51/47 44/48/44 45/49/45
f 53/61/53 44/48/44 47/51/47
f 26/53/26 53/61/53 47/51/47
f 54/62/54 53/61/53 26/53/26
f 55/63/55 22/24/22 24/26/24
f 20/22/20 22/24/22 55/63/55
f 56/64/56 20/22/20 55/63/55
f 57/65/57 20/22/20 56/64/56
f 16/18/16 41/43/41 14/16/14
f 58/66/58 41/43/41 16/18/16
f 18/20/18 58/66/58 16/18/16
f 59/67/59 58/66/58 18/20/18
f 60/68/60 32/34/32 34/36/34
f 61/69/61 32/34/32 60/68/60
f 54/70/54 61/69/61 60/68/60
f 26/28/26 61/69/61 54/70/54
f 5/5/5 62/71/62 6/6/6
f 63/72/63 62/71/62 5/5/5
f 64/73/64 63/72/63 5/5/5
f 66/74/66 7/9/7 65/75/65
f 9/7/9 7/9/7 66/74/66
f 12/14/12 9/7/9 66/74/66
f 63/72/63 67/76/67 62/71/62
f 37/39/37 67/76/67 63/72/63
f 36/38/36 37/39/37 63/72/63
f 69/77/69 65/75/65 68/78/68
f 66/74/66 65/75/65 69/77/69
f 70/79/70 66/74/66 69/77/69
f 21/23/21 40/60/40 23/25/23
f 52/58/52 40/60/40 21/23/21
f 51/57/51 52/58/52 21/23/21
f 58/66/58 42/45/42 41/43/41
f 43/47/43 42/45/42 58/66/58
f 59/67/59 43/47/43 58/66/58
f 60/68/60 68/78/68 54/70/54
f 69/77/69 68/78/68 60/68/60
f 34/36/34 69/77/69 60/68/60
f 61/69/61 30/32/30 32/34/32
f 28/30/28 30/32/30 61/69/61
f 26/28/26 28/30/28 61/69/61
f 71/80/71 53/61/53 54/62/54
f 44/48/44 53/61/53 71/80/71
f 37/39/37 44/48/44 71/80/71
f 38/81/38 11/13/11 8/11/8
f 39/59/39 11/13/11 38/81/38
f 7/12/7 62/71/62 65/82/65
f 6/6/6 62/71/62 7/12/7
f 3/1/3 64/73/64 5/5/5
f 12/14/12 64/73/64 3/1/3
f 70/79/70 12/14/12 66/74/66
f 64/73/64 12/14/12 70/79/70
f 65/82/65 67/76/67 68/83/68
f 62/71/62 67/76/67 65/82/65
f 64/73/64 36/38/36 63/72/63
f 70/79/70 36/38/36 64/73/64
f 34/36/34 70/79/70 69/77/69
f 36/38/36 70/79/70 34/36/34
f 72/84/72 31/33/31 29/31/29
f 46/50/46 31/33/31 72/84/72
f 4/4/4 50/56/50 2/2/2
f 11/13/11 50/56/50 4/4/4
f 57/65/57 18/20/18 20/22/20
f 59/67/59 18/20/18 57/65/57
f 68/83/68 71/80/71 54/62/54
f 67/76/67 71/80/71 68/83/68
f 72/85/72 29/86/29 73/87/73
f 73/88/73 29/86/29 27/89/27
f 73/90/73 27/89/27 25/91/25
f 25/92/25 48/93/48 73/94/73
f 48/93/48 46/95/46 73/96/73
f 73/97/73 46/95/46 72/85/72
f 67/76/67 37/39/37 71/80/71
