# Blender 4.1.1
# www.blender.org
mtllib polygon556.mtl
o polygon556
v -1933.473022 3335.846191 -110.569992
v -1933.473022 3104.597168 -110.569969
v -1933.473022 3335.846191 -111.500397
v -1933.473022 3104.597168 -111.500374
v -2266.599121 3335.846191 -110.569992
v -2266.599121 3335.846191 -111.500397
v -2266.599121 3104.597168 -110.569969
v -2266.599121 3104.597168 -111.500374
v -1932.354004 3103.566162 -110.569962
v -1932.354004 3336.877197 -110.569992
v -2267.718018 3336.877197 -110.569992
v -2267.718018 3103.566162 -110.569962
v -1932.354004 3336.877197 -111.500397
v -1932.354004 3103.566162 -111.500366
v -2267.718018 3336.877197 -111.500397
v -2267.718018 3103.566162 -111.500366
v -1933.473022 3335.846191 -90.172737
v -1933.473022 3104.597168 -90.172714
v -1933.473022 3335.846191 -91.104767
v -1933.473022 3104.597168 -91.104759
v -2266.599121 3335.846191 -90.172737
v -2266.599121 3335.846191 -91.104782
v -2266.599121 3104.597168 -90.172714
v -2266.599121 3104.597168 -91.104752
v -1932.354004 3103.566162 -90.172707
v -1932.354004 3336.877197 -90.172737
v -2267.718018 3336.877197 -90.172737
v -2267.718018 3103.566162 -90.172707
v -1932.354004 3336.877197 -91.104767
v -1932.354004 3103.566162 -91.104752
v -2267.718018 3336.877197 -91.104782
v -2267.718018 3103.566162 -91.104744
v -2267.609131 3103.666260 -110.585655
v -2267.609131 3103.666260 -70.504684
v -2266.707031 3103.666260 -110.585655
v -2266.707031 3103.666260 -70.504684
v -2266.707031 3104.497070 -110.585663
v -2266.707031 3104.497070 -70.504692
v -2267.609131 3104.497070 -110.585663
v -2267.609131 3104.497070 -70.504692
v -1932.463135 3104.497070 -110.585663
v -1932.463135 3104.497070 -70.504692
v -1933.364014 3104.497070 -110.585663
v -1933.364014 3104.497070 -70.504692
v -1933.364014 3103.666260 -110.585655
v -1933.364014 3103.666260 -70.504684
v -1932.463135 3103.666260 -110.585655
v -1932.463135 3103.666260 -70.504684
v -2267.609131 3335.945801 -110.585686
v -2267.609131 3335.945801 -70.504723
v -2266.707031 3335.945801 -110.585686
v -2266.707031 3335.945801 -70.504723
v -2266.707031 3336.777100 -110.585686
v -2266.707031 3336.777100 -70.504723
v -2267.609131 3336.777100 -110.585686
v -2267.609131 3336.777100 -70.504723
v -1932.388062 3162.576172 -110.585381
v -1932.388062 3162.576172 -70.768494
v -1933.448120 3162.133057 -110.585381
v -1933.448120 3162.133057 -70.768494
v -1932.388062 3161.598145 -110.585381
v -1932.388062 3161.598145 -70.768494
v -1932.381958 3278.433105 -110.585403
v -1932.381958 3278.433105 -70.768509
v -1933.443115 3277.989258 -110.585403
v -1933.443115 3277.989258 -70.768509
v -1932.381958 3277.454102 -110.585403
v -1932.381958 3277.454102 -70.768509
v -1932.381958 3249.447998 -110.585396
v -1932.381958 3249.447998 -70.768509
v -1933.443115 3249.003906 -110.585396
v -1933.443115 3249.003906 -70.768509
v -1932.381958 3248.469238 -110.585396
v -1932.381958 3248.469238 -70.768509
v -1932.389038 3220.489258 -110.585388
v -1932.389038 3220.489258 -70.768501
v -1933.449951 3220.046143 -110.585388
v -1933.449951 3220.046143 -70.768501
v -1932.389038 3219.511230 -110.585388
v -1932.389038 3219.511230 -70.768501
v -1932.380005 3191.562988 -110.585388
v -1932.380005 3191.562988 -70.768501
v -1933.441040 3191.119873 -110.585388
v -1933.441040 3191.119873 -70.768501
v -1932.380005 3190.585205 -110.585388
v -1932.380005 3190.585205 -70.768501
v -1932.380005 3133.593018 -110.585388
v -1932.380005 3133.593018 -70.768494
v -1933.441040 3133.148926 -110.585388
v -1933.441040 3133.148926 -70.768494
v -1932.380005 3132.614258 -110.585388
v -1932.380005 3132.614258 -70.768494
v -1999.667114 3335.876221 -110.585403
v -1999.667114 3335.876221 -70.768517
v -1999.144043 3336.855225 -110.585403
v -1999.144043 3336.855225 -70.768517
v -2000.204956 3336.855225 -110.585403
v -2000.204956 3336.855225 -70.768517
v -1966.245117 3335.842041 -110.585403
v -1966.245117 3335.842041 -70.768517
v -1965.722046 3336.820801 -110.585403
v -1965.722046 3336.820801 -70.768517
v -1966.783081 3336.820801 -110.585403
v -1966.783081 3336.820801 -70.768517
v -2267.692139 3132.562988 -110.585388
v -2267.692139 3132.562988 -70.768494
v -2266.631104 3133.007080 -110.585388
v -2266.631104 3133.007080 -70.768494
v -2267.692139 3133.542236 -110.585388
v -2267.692139 3133.542236 -70.768494
v -2267.683105 3277.546143 -110.585403
v -2267.683105 3277.546143 -70.768509
v -2266.622070 3277.989990 -110.585403
v -2266.622070 3277.989990 -70.768509
v -2267.683105 3278.524902 -110.585403
v -2267.683105 3278.524902 -70.768509
v -2267.692139 3161.552979 -110.585381
v -2267.692139 3161.552979 -70.768494
v -2266.631104 3161.997070 -110.585381
v -2266.631104 3161.997070 -70.768494
v -2267.692139 3162.532227 -110.585381
v -2267.692139 3162.532227 -70.768494
v -2267.686035 3190.503906 -110.585388
v -2267.686035 3190.503906 -70.768501
v -2266.625000 3190.947998 -110.585388
v -2266.625000 3190.947998 -70.768501
v -2267.686035 3191.483154 -110.585388
v -2267.686035 3191.483154 -70.768501
v -2267.691162 3219.514893 -110.585388
v -2267.691162 3219.514893 -70.768501
v -2266.629883 3219.958008 -110.585388
v -2266.629883 3219.958008 -70.768501
v -2267.691162 3220.493164 -110.585388
v -2267.691162 3220.493164 -70.768501
v -2267.691162 3248.519043 -110.585396
v -2267.691162 3248.519043 -70.768509
v -2266.629883 3248.963135 -110.585396
v -2266.629883 3248.963135 -70.768509
v -2267.691162 3249.498047 -110.585396
v -2267.691162 3249.498047 -70.768509
v -2267.683105 3306.526123 -110.585411
v -2267.683105 3306.526123 -70.768517
v -2266.622070 3306.969238 -110.585411
v -2266.622070 3306.969238 -70.768517
v -2267.683105 3307.503906 -110.585411
v -2267.683105 3307.503906 -70.768517
v -1932.381958 3307.435791 -110.585411
v -1932.381958 3307.435791 -70.768517
v -1933.443115 3306.993164 -110.585411
v -1933.443115 3306.993164 -70.768517
v -1932.381958 3306.458008 -110.585411
v -1932.381958 3306.458008 -70.768517
v -1999.794067 3104.572021 -110.585381
v -1999.794067 3104.572021 -70.768486
v -2000.316040 3103.594238 -110.585373
v -2000.316040 3103.594238 -70.768478
v -1999.255127 3103.594238 -110.585373
v -1999.255127 3103.594238 -70.768478
v -2200.216064 3104.569580 -110.585381
v -2200.216064 3104.569580 -70.768486
v -2200.738037 3103.590820 -110.585373
v -2200.738037 3103.590820 -70.768478
v -2199.677002 3103.590820 -110.585373
v -2199.677002 3103.590820 -70.768478
v -1966.359985 3104.569580 -110.585381
v -1966.359985 3104.569580 -70.768486
v -1966.881958 3103.590820 -110.585373
v -1966.881958 3103.590820 -70.768478
v -1965.821045 3103.590820 -110.585373
v -1965.821045 3103.590820 -70.768478
v -2033.198120 3104.572021 -110.585381
v -2033.198120 3104.572021 -70.768486
v -2033.719971 3103.594238 -110.585373
v -2033.719971 3103.594238 -70.768478
v -2032.659058 3103.594238 -110.585373
v -2032.659058 3103.594238 -70.768478
v -2100.008057 3104.572998 -110.585381
v -2100.008057 3104.572998 -70.768486
v -2100.531006 3103.594238 -110.585373
v -2100.531006 3103.594238 -70.768478
v -2099.469971 3103.594238 -110.585373
v -2099.469971 3103.594238 -70.768478
v -2066.586182 3104.574219 -110.585381
v -2066.586182 3104.574219 -70.768486
v -2067.108154 3103.595215 -110.585373
v -2067.108154 3103.595215 -70.768478
v -2066.048096 3103.595215 -110.585373
v -2066.048096 3103.595215 -70.768478
v -2133.394043 3104.566162 -110.585381
v -2133.394043 3104.566162 -70.768486
v -2133.916992 3103.588135 -110.585373
v -2133.916992 3103.588135 -70.768478
v -2132.856201 3103.588135 -110.585373
v -2132.856201 3103.588135 -70.768478
v -2166.832031 3104.570801 -110.585381
v -2166.832031 3104.570801 -70.768486
v -2167.354004 3103.593018 -110.585373
v -2167.354004 3103.593018 -70.768478
v -2166.294189 3103.593018 -110.585373
v -2166.294189 3103.593018 -70.768478
v -2233.652100 3104.569580 -110.585381
v -2233.652100 3104.569580 -70.768486
v -2234.174072 3103.590820 -110.585373
v -2234.174072 3103.590820 -70.768478
v -2233.113037 3103.590820 -110.585373
v -2233.113037 3103.590820 -70.768478
v -2235.336182 3335.874268 -110.585403
v -2235.336182 3335.874268 -70.768517
v -2234.814209 3336.853027 -110.585403
v -2234.814209 3336.853027 -70.768517
v -2235.875000 3336.853027 -110.585403
v -2235.875000 3336.853027 -70.768517
v -2099.997070 3335.871094 -110.585403
v -2099.997070 3335.871094 -70.768517
v -2099.474121 3336.849854 -110.585403
v -2099.474121 3336.849854 -70.768517
v -2100.535156 3336.849854 -110.585403
v -2100.535156 3336.849854 -70.768517
v -2201.098145 3335.874268 -110.585403
v -2201.098145 3335.874268 -70.768517
v -2200.576172 3336.853027 -110.585403
v -2200.576172 3336.853027 -70.768517
v -2201.637207 3336.853027 -110.585403
v -2201.637207 3336.853027 -70.768517
v -2167.621094 3335.874268 -110.585403
v -2167.621094 3335.874268 -70.768517
v -2167.099121 3336.853027 -110.585403
v -2167.099121 3336.853027 -70.768517
v -2168.159912 3336.853027 -110.585403
v -2168.159912 3336.853027 -70.768517
v -2066.607178 3335.871094 -110.585403
v -2066.607178 3335.871094 -70.768517
v -2066.083984 3336.849854 -110.585403
v -2066.083984 3336.849854 -70.768517
v -2067.145020 3336.849854 -110.585403
v -2067.145020 3336.849854 -70.768517
v -2132.963135 3335.873047 -110.585403
v -2132.963135 3335.873047 -70.768517
v -2132.439941 3336.850830 -110.585403
v -2132.439941 3336.850830 -70.768517
v -2133.501221 3336.850830 -110.585403
v -2133.501221 3336.850830 -70.768517
v -2033.128052 3335.872070 -110.585403
v -2033.128052 3335.872070 -70.768517
v -2032.605103 3336.850830 -110.585403
v -2032.605103 3336.850830 -70.768517
v -2033.666016 3336.850830 -110.585403
v -2033.666016 3336.850830 -70.768517
v -1932.463135 3336.777100 -110.585686
v -1932.463135 3336.777100 -70.504723
v -1933.364014 3336.777100 -110.585686
v -1933.364014 3336.777100 -70.504723
v -1933.364014 3335.945801 -110.585686
v -1933.364014 3335.945801 -70.504723
v -1932.123047 3335.631104 -70.715462
v -1932.463135 3335.945801 -110.585686
vn -0.3015 -0.3015 0.9045
vn -0.3015 0.3015 0.9045
vn -0.3015 -0.3015 -0.9045
vn -0.3015 0.3015 -0.9045
vn 0.3015 -0.3015 0.9045
vn 0.3015 -0.3015 -0.9045
vn 0.3015 0.3015 0.9045
vn 0.3015 0.3015 -0.9045
vn 0.5773 -0.5773 0.5774
vn 0.5773 0.5773 0.5774
vn -0.5773 0.5773 0.5774
vn -0.5773 -0.5773 0.5774
vn 0.5773 0.5773 -0.5774
vn 0.5773 -0.5773 -0.5774
vn -0.5773 0.5773 -0.5774
vn -0.5773 -0.5773 -0.5774
vn -0.7071 -0.7071 -0.0000
vn 0.7071 -0.7071 -0.0000
vn 0.7071 0.7071 -0.0000
vn -0.7071 0.7071 -0.0000
vn 0.5541 0.8324 -0.0000
vn 0.5544 0.8323 -0.0000
vn -0.9994 0.0356 -0.0000
vn -0.9994 0.0360 -0.0000
vn 0.5242 -0.8516 -0.0000
vn 0.5241 -0.8517 -0.0000
vn -0.9994 0.0355 -0.0000
vn -0.9994 0.0353 -0.0000
vn 0.5244 -0.8515 -0.0000
vn 0.5539 0.8326 -0.0000
vn -0.9994 0.0352 -0.0000
vn -0.9994 0.0350 -0.0000
vn 0.5245 -0.8514 -0.0000
vn 0.5542 0.8324 -0.0000
vn -0.9994 0.0354 -0.0000
vn -0.9994 0.0358 -0.0000
vn 0.5543 0.8323 -0.0000
vn 0.5545 0.8322 -0.0000
vn -0.9994 0.0357 -0.0000
vn 0.5243 -0.8515 -0.0000
vn 0.0060 -1.0000 -0.0000
vn 0.0057 -1.0000 -0.0000
vn 0.8576 0.5143 -0.0000
vn 0.8577 0.5141 -0.0000
vn -0.8607 0.5091 -0.0000
vn -0.8606 0.5092 -0.0000
vn 0.0059 -1.0000 -0.0000
vn -0.5540 -0.8325 -0.0000
vn -0.5541 -0.8324 -0.0000
vn 0.9994 -0.0354 -0.0000
vn 0.9994 -0.0355 -0.0000
vn -0.5242 0.8516 -0.0000
vn 0.9994 -0.0352 -0.0000
vn -0.5244 0.8514 -0.0000
vn -0.5539 -0.8326 -0.0000
vn -0.5243 0.8515 -0.0000
vn -0.5546 -0.8321 -0.0000
vn -0.5543 -0.8323 -0.0000
vn 0.9994 -0.0360 -0.0000
vn 0.9994 -0.0356 -0.0000
vn -0.5243 0.8516 -0.0000
vn 0.9994 -0.0351 -0.0000
vn 0.9994 -0.0353 -0.0000
vn -0.5245 0.8514 -0.0000
vn -0.5545 -0.8322 -0.0000
vn -0.5542 -0.8324 -0.0000
vn 0.9994 -0.0357 -0.0000
vn 0.5548 0.8320 -0.0000
vn -0.9993 0.0363 -0.0000
vn -0.0068 1.0000 -0.0000
vn -0.0066 1.0000 -0.0000
vn -0.8576 -0.5143 -0.0000
vn 0.8610 -0.5085 -0.0000
vn 0.8610 -0.5086 -0.0000
vn -0.0069 1.0000 -0.0000
vn -0.8575 -0.5146 -0.0000
vn -0.8575 -0.5144 -0.0000
vn 0.8609 -0.5088 -0.0000
vn -0.0065 1.0000 -0.0000
vn 0.8610 -0.5087 -0.0000
vn -0.0067 1.0000 -0.0000
vn -0.8576 -0.5144 -0.0000
vn 0.8611 -0.5085 -0.0000
vn -0.0060 1.0000 -0.0000
vn -0.8577 -0.5142 -0.0000
vn 0.8607 -0.5090 -0.0000
vn 0.8608 -0.5090 -0.0000
vn -0.0064 1.0000 -0.0000
vn -0.8574 -0.5146 -0.0000
vn 0.8607 -0.5091 -0.0000
vn -0.0059 1.0000 -0.0000
vn -0.8578 -0.5140 -0.0000
vn -0.0062 1.0000 -0.0000
vn 0.8608 -0.5089 -0.0000
vn 0.0070 -1.0000 -0.0000
vn 0.0063 -1.0000 -0.0000
vn 0.8574 0.5146 -0.0000
vn 0.8576 0.5144 -0.0000
vn -0.8610 0.5086 -0.0000
vn -0.8608 0.5089 -0.0000
vn 0.8577 0.5142 -0.0000
vn -0.8607 0.5090 -0.0000
vn -0.8608 0.5090 -0.0000
vn 0.0071 -1.0000 -0.0000
vn 0.0064 -1.0000 -0.0000
vn -0.8609 0.5088 -0.0000
vn 0.0058 -1.0000 -0.0000
vn 0.8578 0.5139 -0.0000
vn 0.0056 -1.0000 -0.0000
vn 0.8578 0.5140 -0.0000
vn 0.7052 0.7090 -0.0059
vn 0.5624 0.8269 -0.0000
vn -0.7089 -0.7053 -0.0055
vn -0.8146 -0.5801 -0.0000
vn 0.7252 -0.6885 -0.0002
vn 0.7069 -0.7072 -0.0116
vt 5.620117 0.000000
vt -4.911133 -1.000000
vt 5.620117 -1.000000
vt -4.911133 0.000000
vt 7.524414 0.000000
vt -6.535156 -1.000000
vt 7.524414 -1.000000
vt -6.535156 0.000000
vt 5.594727 0.000000
vt -4.936523 -1.000000
vt 5.594727 -1.000000
vt -4.936523 0.000000
vt 7.528320 0.000000
vt -6.531250 -1.000000
vt 7.528320 -1.000000
vt -6.531250 0.000000
vt -4.735352 -0.500000
vt 5.444824 -0.500000
vt -6.371582 -0.500000
vt 7.360840 -0.500000
vt -4.760742 -0.500000
vt 5.419434 -0.500000
vt -6.367676 -0.500000
vt 7.364746 -0.500000
vt 0.750000 0.969238
vt 1.000000 0.000000
vt 1.000000 0.969238
vt 0.750000 0.000000
vt 0.500000 0.969238
vt 0.500000 0.000000
vt 0.250000 0.969238
vt 0.250000 0.000000
vt 0.000000 0.969238
vt 0.000000 0.000000
s 1
usemtl mt_toudai.008
f 3/1/3 2/2/2 1/3/1
f 4/4/4 2/2/2 3/1/3
f 6/5/6 1/6/1 5/7/5
f 3/8/3 1/6/1 6/5/6
f 8/9/8 5/10/5 7/11/7
f 6/12/6 5/10/5 8/9/8
f 4/13/4 7/14/7 2/15/2
f 8/16/8 7/14/7 4/13/4
f 10/1/10 2/17/2 9/4/9
f 1/18/1 2/17/2 10/1/10
f 11/5/11 1/19/1 10/8/10
f 5/20/5 1/19/1 11/5/11
f 12/9/12 5/21/5 11/12/11
f 7/22/7 5/21/5 12/9/12
f 9/13/9 7/23/7 12/16/12
f 2/24/2 7/23/7 9/13/9
f 9/2/9 13/1/13 10/3/10
f 14/4/14 13/1/13 9/2/9
f 10/6/10 15/5/15 11/7/11
f 13/8/13 15/5/15 10/6/10
f 11/10/11 16/9/16 12/11/12
f 15/12/15 16/9/16 11/10/11
f 12/14/12 14/13/14 9/15/9
f 16/16/16 14/13/14 12/14/12
f 14/4/14 3/18/3 13/1/13
f 4/17/4 3/18/3 14/4/14
f 13/8/13 6/20/6 15/5/15
f 3/19/3 6/20/6 13/8/13
f 15/12/15 8/22/8 16/9/16
f 6/21/6 8/22/8 15/12/15
f 16/16/16 4/24/4 14/13/14
f 8/23/8 4/24/4 16/16/16
f 19/1/3 18/2/2 17/3/1
f 20/4/4 18/2/2 19/1/3
f 22/5/6 17/6/1 21/7/5
f 19/8/3 17/6/1 22/5/6
f 24/9/8 21/10/5 23/11/7
f 22/12/6 21/10/5 24/9/8
f 20/13/4 23/14/7 18/15/2
f 24/16/8 23/14/7 20/13/4
f 26/1/10 18/17/2 25/4/9
f 17/18/1 18/17/2 26/1/10
f 27/5/11 17/19/1 26/8/10
f 21/20/5 17/19/1 27/5/11
f 28/9/12 21/21/5 27/12/11
f 23/22/7 21/21/5 28/9/12
f 25/13/9 23/23/7 28/16/12
f 18/24/2 23/23/7 25/13/9
f 25/2/9 29/1/13 26/3/10
f 30/4/14 29/1/13 25/2/9
f 26/6/10 31/5/15 27/7/11
f 29/8/13 31/5/15 26/6/10
f 27/10/11 32/9/16 28/11/12
f 31/12/15 32/9/16 27/10/11
f 28/14/12 30/13/14 25/15/9
f 32/16/16 30/13/14 28/14/12
f 30/4/14 19/18/3 29/1/13
f 20/17/4 19/18/3 30/4/14
f 29/8/13 22/20/6 31/5/15
f 19/19/3 22/20/6 29/8/13
f 31/12/15 24/22/8 32/9/16
f 22/21/6 24/22/8 31/12/15
f 32/16/16 20/24/4 30/13/14
f 24/23/8 20/24/4 32/16/16
f 35/25/18 34/26/17 33/27/17
f 36/28/18 34/26/17 35/25/18
f 37/29/19 36/28/18 35/25/18
f 38/30/19 36/28/18 37/29/19
f 39/31/20 38/30/19 37/29/19
f 40/32/20 38/30/19 39/31/20
f 33/33/17 40/32/20 39/31/20
f 34/34/17 40/32/20 33/33/17
f 43/25/20 42/26/19 41/27/19
f 44/28/20 42/26/19 43/25/20
f 45/29/17 44/28/20 43/25/20
f 46/30/17 44/28/20 45/29/17
f 47/31/18 46/30/17 45/29/17
f 48/32/18 46/30/17 47/31/18
f 41/33/19 48/32/18 47/31/18
f 42/34/19 48/32/18 41/33/19
f 51/25/18 50/26/17 49/27/17
f 52/28/18 50/26/17 51/25/18
f 53/29/19 52/28/18 51/25/18
f 54/30/19 52/28/18 53/29/19
f 55/31/20 54/30/19 53/29/19
f 56/32/20 54/30/19 55/31/20
f 49/33/17 56/32/20 55/31/20
f 50/34/17 56/32/20 49/33/17
f 59/25/23 58/26/22 57/27/21
f 60/28/24 58/26/22 59/25/23
f 61/31/25 60/28/24 59/25/23
f 62/32/26 60/28/24 61/31/25
f 57/33/21 62/32/26 61/31/25
f 58/34/22 62/32/26 57/33/21
f 65/25/27 64/26/21 63/27/21
f 66/28/28 64/26/21 65/25/27
f 67/31/25 66/28/28 65/25/27
f 68/32/29 66/28/28 67/31/25
f 63/33/21 68/32/29 67/31/25
f 64/34/21 68/32/29 63/33/21
f 71/25/31 70/26/30 69/27/21
f 72/28/32 70/26/30 71/25/31
f 73/31/33 72/28/32 71/25/31
f 74/32/29 72/28/32 73/31/33
f 69/33/21 74/32/29 73/31/33
f 70/34/30 74/32/29 69/33/21
f 77/25/35 76/26/22 75/27/34
f 78/28/36 76/26/22 77/25/35
f 79/31/29 78/28/36 77/25/35
f 80/32/25 78/28/36 79/31/29
f 75/33/34 80/32/25 79/31/29
f 76/34/22 80/32/25 75/33/34
f 83/25/27 82/26/38 81/27/37
f 84/28/39 82/26/38 83/25/27
f 85/31/40 84/28/39 83/25/27
f 86/32/33 84/28/39 85/31/40
f 81/33/37 86/32/33 85/31/40
f 82/34/38 86/32/33 81/33/37
f 89/25/31 88/26/30 87/27/21
f 90/28/32 88/26/30 89/25/31
f 91/31/33 90/28/32 89/25/31
f 92/32/40 90/28/32 91/31/33
f 87/33/21 92/32/40 91/31/33
f 88/34/30 92/32/40 87/33/21
f 95/25/43 94/32/42 93/31/41
f 96/28/44 94/32/42 95/25/43
f 97/29/45 96/28/44 95/25/43
f 98/30/46 96/28/44 97/29/45
f 93/31/41 98/30/46 97/29/45
f 94/32/42 98/30/46 93/31/41
f 101/25/44 100/32/47 99/31/47
f 102/28/44 100/32/47 101/25/44
f 103/29/45 102/28/44 101/25/44
f 104/30/45 102/28/44 103/29/45
f 99/31/47 104/30/45 103/29/45
f 100/32/47 104/30/45 99/31/47
f 107/25/50 106/26/49 105/27/48
f 108/28/51 106/26/49 107/25/50
f 109/31/52 108/28/51 107/25/50
f 110/32/52 108/28/51 109/31/52
f 105/33/48 110/32/52 109/31/52
f 106/34/49 110/32/52 105/33/48
f 113/25/53 112/26/49 111/27/49
f 114/28/51 112/26/49 113/25/53
f 115/31/54 114/28/51 113/25/53
f 116/32/52 114/28/51 115/31/54
f 111/33/49 116/32/52 115/31/54
f 112/34/49 116/32/52 111/33/49
f 119/25/50 118/26/55 117/27/49
f 120/28/53 118/26/55 119/25/50
f 121/31/56 120/28/53 119/25/50
f 122/32/52 120/28/53 121/31/56
f 117/33/49 122/32/52 121/31/56
f 118/34/55 122/32/52 117/33/49
f 125/25/53 124/26/49 123/27/55
f 126/28/50 124/26/49 125/25/53
f 127/31/52 126/28/50 125/25/53
f 128/32/56 126/28/50 127/31/52
f 123/33/55 128/32/56 127/31/52
f 124/34/49 128/32/56 123/33/55
f 131/25/59 130/26/58 129/27/57
f 132/28/60 130/26/58 131/25/59
f 133/31/52 132/28/60 131/25/59
f 134/32/61 132/28/60 133/31/52
f 129/33/57 134/32/61 133/31/52
f 130/34/58 134/32/61 129/33/57
f 137/25/62 136/26/48 135/27/48
f 138/28/63 136/26/48 137/25/62
f 139/31/64 138/28/63 137/25/62
f 140/32/61 138/28/63 139/31/64
f 135/33/48 140/32/61 139/31/64
f 136/34/48 140/32/61 135/33/48
f 143/25/67 142/26/66 141/27/65
f 144/28/50 142/26/66 143/25/67
f 145/31/64 144/28/50 143/25/67
f 146/32/64 144/28/50 145/31/64
f 141/33/65 146/32/64 145/31/64
f 142/34/66 146/32/64 141/33/65
f 149/25/39 148/26/68 147/27/37
f 150/28/69 148/26/68 149/25/39
f 151/31/25 150/28/69 149/25/39
f 152/32/25 150/28/69 151/31/25
f 147/33/37 152/32/25 151/31/25
f 148/34/68 152/32/25 147/33/37
f 155/25/72 154/32/71 153/31/70
f 156/28/72 154/32/71 155/25/72
f 157/29/73 156/28/72 155/25/72
f 158/30/74 156/28/72 157/29/73
f 153/31/70 158/30/74 157/29/73
f 154/32/71 158/30/74 153/31/70
f 161/25/76 160/32/71 159/31/75
f 162/28/77 160/32/71 161/25/76
f 163/29/74 162/28/77 161/25/76
f 164/30/78 162/28/77 163/29/74
f 159/31/75 164/30/78 163/29/74
f 160/32/71 164/30/78 159/31/75
f 167/25/76 166/32/79 165/31/75
f 168/28/77 166/32/79 167/25/76
f 169/29/80 168/28/77 167/25/76
f 170/30/78 168/28/77 169/29/80
f 165/31/75 170/30/78 169/29/80
f 166/32/79 170/30/78 165/31/75
f 173/25/82 172/32/81 171/31/75
f 174/28/72 172/32/81 173/25/82
f 175/29/83 174/28/72 173/25/82
f 176/30/73 174/28/72 175/29/83
f 171/31/75 176/30/73 175/29/83
f 172/32/81 176/30/73 171/31/75
f 179/25/85 178/32/84 177/31/84
f 180/28/85 178/32/84 179/25/85
f 181/29/86 180/28/85 179/25/85
f 182/30/87 180/28/85 181/29/86
f 177/31/84 182/30/87 181/29/86
f 178/32/84 182/30/87 177/31/84
f 185/25/76 184/32/88 183/31/88
f 186/28/89 184/32/88 185/25/76
f 187/29/90 186/28/89 185/25/76
f 188/30/90 186/28/89 187/29/90
f 183/31/88 188/30/90 187/29/90
f 184/32/88 188/30/90 183/31/88
f 191/25/92 190/32/91 189/31/91
f 192/28/92 190/32/91 191/25/92
f 193/29/87 192/28/92 191/25/92
f 194/30/87 192/28/92 193/29/87
f 189/31/91 194/30/87 193/29/87
f 190/32/91 194/30/87 189/31/91
f 197/25/72 196/32/88 195/31/93
f 198/28/82 196/32/88 197/25/72
f 199/29/87 198/28/82 197/25/72
f 200/30/94 198/28/82 199/29/87
f 195/31/93 200/30/94 199/29/87
f 196/32/88 200/30/94 195/31/93
f 203/25/76 202/32/71 201/31/75
f 204/28/77 202/32/71 203/25/76
f 205/29/74 204/28/77 203/25/76
f 206/30/78 204/28/77 205/29/74
f 201/31/75 206/30/78 205/29/74
f 202/32/71 206/30/78 201/31/75
f 209/25/97 208/32/96 207/31/95
f 210/28/98 208/32/96 209/25/97
f 211/29/99 210/28/98 209/25/97
f 212/30/100 210/28/98 211/29/99
f 207/31/95 212/30/100 211/29/99
f 208/32/96 212/30/100 207/31/95
f 215/25/101 214/32/41 213/31/41
f 216/28/101 214/32/41 215/25/101
f 217/29/102 216/28/101 215/25/101
f 218/30/103 216/28/101 217/29/102
f 213/31/41 218/30/103 217/29/102
f 214/32/41 218/30/103 213/31/41
f 221/25/97 220/32/105 219/31/104
f 222/28/98 220/32/105 221/25/97
f 223/29/99 222/28/98 221/25/97
f 224/30/106 222/28/98 223/29/99
f 219/31/104 224/30/106 223/29/99
f 220/32/105 224/30/106 219/31/104
f 227/25/97 226/32/96 225/31/95
f 228/28/98 226/32/96 227/25/97
f 229/29/99 228/28/98 227/25/97
f 230/30/100 228/28/98 229/29/99
f 225/31/95 230/30/100 229/29/99
f 226/32/96 230/30/100 225/31/95
f 233/25/44 232/32/107 231/31/107
f 234/28/44 232/32/107 233/25/44
f 235/29/45 234/28/44 233/25/44
f 236/30/45 234/28/44 235/29/45
f 231/31/107 236/30/45 235/29/45
f 232/32/107 236/30/45 231/31/107
f 239/25/108 238/32/47 237/31/47
f 240/28/108 238/32/47 239/25/108
f 241/29/100 240/28/108 239/25/108
f 242/30/100 240/28/108 241/29/100
f 237/31/47 242/30/100 241/29/100
f 238/32/47 242/30/100 237/31/47
f 245/25/110 244/32/96 243/31/109
f 246/28/43 244/32/96 245/25/110
f 247/29/46 246/28/43 245/25/110
f 248/30/100 246/28/43 247/29/46
f 243/31/109 248/30/100 247/29/46
f 244/32/96 248/30/100 243/31/109
f 251/25/20 250/26/112 249/27/111
f 252/28/20 250/26/112 251/25/20
f 253/29/113 252/28/20 251/25/20
f 254/30/114 252/28/20 253/29/113
f 255/32/115 254/30/114 253/29/113
f 255/32/115 249/33/111 250/34/112
f 256/31/116 249/33/111 255/32/115
f 253/29/113 256/31/116 255/32/115
