# Blender 4.1.1
# www.blender.org
mtllib polygon413.mtl
o polygon413
v -10410.790039 -7754.799805 -543.800659
v -10410.809570 -7744.492188 -543.800598
v -10410.790039 -7754.016602 -547.745789
v -10410.809570 -7744.492188 -547.745544
v -10410.790039 -7751.781250 -551.090454
v -10410.809570 -7744.492188 -551.090698
v -10410.799805 -7748.437500 -553.324890
v -10410.809570 -7744.492188 -553.324646
v -10410.809570 -7744.492188 -554.109863
v -10410.819336 -7740.547363 -553.324890
v -10439.059570 -7801.049805 -535.758972
v -10432.689453 -7801.037109 -535.758972
v -10439.059570 -7801.049805 -552.425598
v -10432.689453 -7801.037109 -552.425598
v -10426.330078 -7801.024414 -552.425598
v -10426.330078 -7801.024414 -535.758972
v -10410.719727 -7786.355469 -534.239685
v -10410.740234 -7779.991211 -534.239685
v -10410.719727 -7786.355469 -550.906250
v -10410.740234 -7779.992188 -550.906250
v -10410.750000 -7773.627441 -550.906250
v -10410.750000 -7773.627441 -534.239685
v -10410.790039 -7754.799805 -524.892700
v -10410.809570 -7744.492188 -524.892578
v -10410.830078 -7734.183594 -524.892700
v -10410.830078 -7734.183594 -543.800659
v -10410.819336 -7737.201660 -551.090454
v -10410.830078 -7734.967773 -547.745789
v -10486.759766 -7768.782715 -535.941650
v -10486.750000 -7775.145996 -535.941650
v -10486.759766 -7768.782715 -552.608398
v -10486.750000 -7775.145996 -552.608398
v -10486.729492 -7781.509766 -552.608398
v -10486.729492 -7781.509766 -535.941650
v -10486.818359 -7736.782715 -535.941650
v -10486.809570 -7743.145996 -535.941650
v -10486.818359 -7736.782715 -552.608398
v -10486.809570 -7743.145996 -552.608398
v -10486.799805 -7749.509766 -552.608398
v -10486.799805 -7749.509766 -535.941650
v -10458.500000 -7719.089355 -537.061462
v -10464.859375 -7719.102539 -537.061462
v -10458.500000 -7719.089355 -553.728149
v -10464.859375 -7719.102539 -553.728149
v -10471.219727 -7719.114746 -553.728149
v -10471.219727 -7719.114746 -537.061462
v -10426.500000 -7719.024414 -537.061462
v -10432.859375 -7719.037109 -537.061462
v -10426.500000 -7719.024414 -553.728149
v -10432.859375 -7719.037109 -553.728149
v -10439.219727 -7719.049316 -553.728149
v -10439.219727 -7719.049316 -537.061462
vn 1.0000 0.0019 0.0004
vn 1.0000 0.0021 -0.0000
vn 1.0000 0.0021 0.0015
vn 1.0000 0.0027 -0.0000
vn 1.0000 0.0025 -0.0000
vn 0.0021 -1.0000 -0.0000
vn 0.0019 -1.0000 -0.0000
vn 1.0000 0.0032 -0.0000
vn 1.0000 0.0015 -0.0000
vn 1.0000 0.0019 -0.0000
vn 1.0000 0.0020 -0.0000
vn 1.0000 0.0013 -0.0019
vn 1.0000 0.0013 -0.0000
vn 1.0000 0.0022 0.0020
vn 1.0000 0.0022 -0.0000
vn 1.0000 0.0020 -0.0004
vn -1.0000 -0.0015 -0.0000
vn -1.0000 -0.0032 -0.0000
vn -1.0000 -0.0014 -0.0000
vn -0.0019 1.0000 -0.0000
vn -0.0022 1.0000 -0.0000
vn -0.0021 1.0000 -0.0000
vn -0.0018 1.0000 -0.0000
vt 0.666260 0.447266
vt 0.499756 0.406250
vt 0.678955 0.406250
vt 0.499756 0.447266
vt 0.632324 0.500000
vt 0.499756 0.500000
vt 0.571289 0.544434
vt 0.499756 0.544434
vt 0.499756 0.557129
vt -1.312500 0.937500
vt -1.437500 0.687500
vt -1.312500 0.687500
vt -1.437500 0.937500
vt 4.500000 0.406250
vt 4.687500 0.034668
vt 4.687500 0.406250
vt 4.500000 0.034668
vt 2.500000 0.406250
vt 2.312500 0.031250
vt 2.500000 0.031250
vt 2.312500 0.406250
s 0
usemtl mt_house.003
f 3/1/1 2/2/1 1/3/1
f 4/4/2 2/2/2 3/1/2
f 5/5/3 4/4/3 3/1/3
f 6/6/4 4/4/4 5/5/4
f 7/7/4 6/6/4 5/5/4
f 8/8/5 6/6/5 7/7/5
f 9/9/5 8/8/5 7/7/5
f 10/7/5 8/8/5 9/9/5
f 13/10/6 12/11/6 11/12/6
f 14/13/7 12/11/7 13/10/7
f 16/12/7 14/13/7 15/10/7
f 12/11/6 14/13/6 16/12/6
f 19/10/8 18/11/8 17/12/8
f 20/13/8 18/11/8 19/10/8
f 22/12/9 20/13/9 21/10/9
f 18/11/9 20/13/9 22/12/9
f 2/14/10 23/15/10 1/16/10
f 24/17/10 23/15/10 2/14/10
f 2/18/11 25/19/11 24/20/11
f 26/21/11 25/19/11 2/18/11
f 10/7/5 6/6/5 8/8/5
f 27/5/12 6/6/12 10/7/12
f 27/5/13 4/4/13 6/6/13
f 28/1/14 4/4/14 27/5/14
f 28/1/15 2/2/15 4/4/15
f 26/3/16 2/2/16 28/1/16
f 31/10/17 30/11/17 29/12/17
f 32/13/17 30/11/17 31/10/17
f 34/12/18 32/13/18 33/10/18
f 30/11/18 32/13/18 34/12/18
f 37/10/19 36/11/19 35/12/19
f 38/13/19 36/11/19 37/10/19
f 40/12/17 38/13/17 39/10/17
f 36/11/17 38/13/17 40/12/17
f 43/10/20 42/11/20 41/12/20
f 44/13/21 42/11/21 43/10/21
f 46/12/22 44/13/22 45/10/22
f 42/11/23 44/13/23 46/12/23
f 49/10/22 48/11/22 47/12/22
f 50/13/20 48/11/20 49/10/20
f 52/12/20 50/13/20 51/10/20
f 48/11/20 50/13/20 52/12/20
