# Blender 4.1.1
# www.blender.org
mtllib Object_2.mtl
o Object_5
v 1096110.375000 1116737.750000 4170.358398
v 1096942.375000 1117023.750000 4170.358398
v 1096110.375000 1117023.750000 4170.358398
v 1096942.375000 1116737.750000 4170.358398
v 1096110.375000 1117678.000000 4170.358887
v 1096942.375000 1117964.000000 4170.358887
v 1096110.375000 1117964.000000 4170.358887
v 1096942.375000 1117678.000000 4170.358887
v 1096431.875000 1117196.000000 4170.358398
v 1096620.875000 1117511.000000 4170.358887
v 1096431.875000 1117511.000000 4170.358887
v 1096620.875000 1117196.000000 4170.358398
vn -0.0000 -0.0000 1.0000
vt 1.052124 0.059448
vt -0.052124 0.430542
vt 1.052124 0.430542
vt -0.052124 0.059448
vt 0.141113 0.555603
vt 0.892090 0.931091
vt 0.892090 0.555603
vt 0.141113 0.931091
s 0
usemtl Material_179_1
f 1/1/1 2/2/1 3/3/1
f 1/1/1 4/4/1 2/2/1
f 5/2/1 6/1/1 7/4/1
f 5/2/1 8/3/1 6/1/1
f 9/5/1 10/6/1 11/7/1
f 9/5/1 12/8/1 10/6/1
