# Blender 4.1.1
# www.blender.org
mtllib polygon629.mtl
o polygon629
v -3006.858154 -1184.555176 -835.718750
v -2976.009033 -1257.103149 -842.599365
v -2965.237061 -1252.543213 -844.880859
v -2942.999023 -1320.036133 -847.167053
v -2933.732178 -1313.230103 -848.821777
v -2908.269043 -1365.358154 -848.999512
v -2898.856201 -1357.625366 -850.986816
v -2871.542969 -1396.809204 -848.999512
v -2862.955811 -1387.877197 -851.319519
v -2823.557129 -1427.353149 -848.754578
v -2816.393066 -1417.539185 -851.395935
v -2772.512207 -1450.909180 -848.509766
v -2767.722168 -1440.688232 -850.517883
v -2723.769043 -1468.901245 -846.171387
v -2720.081787 -1457.343140 -848.380066
v -2670.003174 -1470.692139 -847.941895
v -3027.512939 -727.571594 -793.075867
v -3036.709961 -786.116211 -799.261719
v -3030.225830 -787.122131 -799.233337
v -3038.919922 -876.081238 -805.409973
v -3031.256104 -876.570068 -807.275635
v -3035.162109 -949.616821 -816.345398
v -3025.908936 -947.960876 -817.212280
v -3031.104248 -1033.848145 -821.857910
v -3020.479248 -1031.712158 -823.858276
v -3020.969971 -1100.188232 -826.248291
v -3008.533936 -1096.442139 -827.723938
v -2993.658936 -1180.894165 -837.446472
v -3113.437012 -871.681335 -808.657288
v -3117.185791 -959.674133 -817.867676
v -3106.860840 -959.153381 -816.345398
v -3110.614258 -1044.856201 -824.424377
v -3096.843018 -1041.887207 -821.857910
v -3096.136230 -1116.168213 -829.314697
v -3084.329590 -1113.230103 -826.248291
v -3060.447998 -1199.136230 -835.718811
v -2296.770996 -1471.260010 -813.222168
v -2374.965088 -1476.534058 -823.708130
v -2375.134033 -1484.303101 -822.082581
v -2453.159180 -1481.808105 -830.194153
v -2454.511230 -1488.855103 -828.271179
v -2545.035156 -1479.093140 -839.027588
v -2545.293213 -1488.961304 -836.853577
v -2608.376221 -1487.330200 -839.775513
v -2004.151978 -1431.559082 -768.999573
v -2010.414062 -1424.767090 -770.020081
v -2080.709961 -1448.140015 -780.083374
v -2082.635010 -1439.213013 -781.321960
v -2152.956055 -1460.176147 -791.167053
v -2154.193115 -1452.341064 -792.623901
v -2224.421143 -1462.266113 -804.177673
v -3072.738037 -1205.094238 -838.112122
v -3040.969971 -1281.844238 -845.468811
v -3030.569580 -1276.912231 -842.599365
v -2999.167236 -1355.029175 -850.771667
v -2989.425781 -1348.391235 -847.167053
v -3107.434814 -710.341553 -793.075867
v -3108.685791 -774.950806 -799.576965
v -3101.552979 -776.057312 -799.545837
v -3105.772217 -872.170166 -805.825623
v -2223.804199 -1470.903076 -802.784973
v -2295.864990 -1479.289795 -811.893921
v -2607.839844 -1476.661133 -842.916870
v -2671.512207 -1481.872192 -843.833191
v -5422.424805 -1963.564087 -666.719177
v -5409.342773 -1956.797119 -669.656372
v -5460.159180 -1873.492920 -682.438782
v -5446.986328 -1867.409058 -686.015320
v -5491.998047 -1783.915039 -699.389404
v -5478.750977 -1778.401123 -703.587585
v -5509.824219 -1697.079956 -717.867737
v -5500.435059 -1693.416138 -721.162659
v -5531.214355 -1594.594116 -740.041626
v -5526.456055 -1593.150024 -743.356262
v -3083.563965 -683.522705 -790.696716
v -3075.122070 -685.720276 -790.696716
v -3072.876221 -669.185486 -790.497009
v -3057.784912 -690.232727 -790.696716
v -3051.722168 -674.521179 -790.497009
v -3048.333008 -696.117676 -790.870972
v -3034.508057 -683.585815 -790.497009
v -3029.197021 -697.674133 -790.496765
v -3097.762207 -691.584534 -791.614807
v -3103.934814 -678.220276 -790.496826
v -3095.484863 -669.407532 -790.497009
v -3046.619873 -700.495178 -791.074768
v -3032.122070 -726.578003 -793.275940
v -5569.757812 -1915.401123 -682.904968
v -5555.951172 -1912.069092 -680.792114
v -5599.976074 -1821.377075 -698.235168
v -5588.422852 -1818.898071 -696.370728
v -5624.212402 -1736.521118 -715.434204
v -5637.601074 -1740.977051 -716.771912
v -5669.132812 -1639.386108 -738.310181
v -5674.715332 -1640.856079 -739.773621
v -5519.433105 -2006.452148 -666.719177
v -5533.969727 -2010.806030 -666.519653
v -5533.123535 -2016.190063 -643.994385
v -5570.712402 -1916.316040 -659.984802
v -5602.362793 -1816.963135 -677.059082
v -5638.898438 -1738.829102 -697.078125
v -5675.060059 -1640.997070 -726.667297
v -3904.916260 -1542.697144 -588.815430
v -3884.462158 -1564.415161 -591.466187
v -3738.103027 -1464.631226 -570.080322
v -3732.346191 -1497.369141 -574.825378
v -3556.457031 -1499.076172 -553.042847
v -4008.263916 -1791.469238 -621.239258
v -4037.012207 -1778.325073 -622.464722
v -3566.642090 -1463.935181 -550.024109
v -3425.655273 -1354.314209 -528.084229
v -3303.537109 -1190.895996 -489.312592
v -3286.906250 -1237.679077 -499.739197
v -3404.790039 -1378.821167 -531.787659
v -1988.159058 -1252.377075 -347.809540
v -1932.958984 -1312.486084 -354.645630
v -1917.725098 -1282.963013 -350.855865
v -1842.352051 -1337.947021 -358.105835
v -1868.123047 -1353.716064 -356.013336
v -1776.436035 -1547.992065 -366.895599
v -1877.636963 -1787.476074 -369.009583
v -1806.991943 -1552.096069 -369.009613
v -931.462219 -1249.683105 -259.999634
v -928.004272 -1262.588013 -259.999634
v -666.946167 -1179.517090 -259.999634
v -662.751099 -1195.173096 -259.999634
v -919.760986 -1330.209839 -259.999634
v -644.806213 -1255.988892 -259.999634
v -916.608032 -1341.976929 -259.999634
v -641.620361 -1267.877930 -259.999634
vn -0.1964 -0.0111 -0.9805
vn -0.2020 -0.0128 -0.9793
vn -0.1509 0.0638 -0.9865
vn -0.1481 -0.0419 -0.9881
vn -0.1485 -0.0404 -0.9881
vn -0.1283 -0.0953 -0.9871
vn -0.1288 -0.0995 -0.9867
vn -0.1104 -0.1467 -0.9830
vn -0.1109 -0.1509 -0.9823
vn -0.1012 -0.1868 -0.9772
vn -0.0986 -0.1875 -0.9773
vn -0.0431 -0.1765 -0.9834
vn -0.0400 -0.1744 -0.9839
vn -0.0292 -0.1911 -0.9811
vn -0.0289 -0.1787 -0.9835
vn -0.0013 -0.3335 -0.9427
vn 0.0105 0.0842 -0.9964
vn 0.0176 0.0856 -0.9962
vn 0.0202 0.1019 -0.9946
vn -0.2228 0.1090 -0.9687
vn -0.2239 0.1123 -0.9681
vn -0.1129 0.0919 -0.9893
vn -0.1138 0.0966 -0.9888
vn -0.1911 0.0492 -0.9803
vn -0.1909 0.0508 -0.9803
vn -0.1403 0.0638 -0.9880
vn -0.1355 0.0601 -0.9890
vn -0.1469 0.0655 -0.9870
vn 0.1480 0.0923 -0.9847
vn 0.1407 0.0918 -0.9858
vn 0.3348 0.0782 -0.9390
vn 0.1620 0.0932 -0.9824
vn 0.1666 0.0924 -0.9817
vn 0.2101 0.1312 -0.9688
vn 0.2185 0.1312 -0.9670
vn 0.1315 0.1391 -0.9815
vn 0.1179 -0.2061 -0.9714
vn 0.1202 -0.2058 -0.9712
vn 0.1382 -0.1484 -0.9792
vn 0.0877 -0.2756 -0.9573
vn 0.0871 -0.2756 -0.9573
vn 0.0658 -0.2217 -0.9729
vn 0.0659 -0.2163 -0.9741
vn 0.0423 -0.2807 -0.9589
vn 0.1693 -0.0964 -0.9808
vn 0.1478 -0.0188 -0.9888
vn 0.1462 -0.0138 -0.9892
vn 0.1705 -0.1012 -0.9801
vn 0.1808 -0.1497 -0.9721
vn 0.1813 -0.1520 -0.9716
vn 0.1615 -0.1461 -0.9760
vn 0.1243 0.1383 -0.9826
vn 0.1840 0.1664 -0.9687
vn 0.1896 0.1678 -0.9674
vn 0.2203 0.1887 -0.9570
vn 0.2241 0.1901 -0.9558
vn 0.0285 0.0945 -0.9951
vn 0.0193 0.0964 -0.9952
vn 0.0198 0.0997 -0.9948
vn 0.3498 0.0770 -0.9336
vn 0.1606 -0.1459 -0.9762
vn 0.1381 -0.1465 -0.9795
vn 0.0428 -0.2881 -0.9567
vn 0.0010 -0.3413 -0.9400
vn -0.1488 -0.2361 -0.9603
vn -0.1110 -0.2166 -0.9699
vn -0.1071 -0.2143 -0.9709
vn -0.1531 -0.2381 -0.9591
vn -0.1941 -0.2492 -0.9488
vn -0.1981 -0.2493 -0.9480
vn -0.2295 -0.2520 -0.9401
vn -0.2359 -0.2535 -0.9381
vn -0.4668 -0.3041 -0.8304
vn -0.4797 -0.3065 -0.8221
vn 0.0020 0.0124 -0.9999
vn 0.0030 0.0117 -0.9999
vn 0.0023 0.0272 -0.9996
vn -0.0029 0.0138 -0.9999
vn 0.0031 0.0147 -0.9999
vn 0.0121 0.0267 -0.9996
vn 0.0150 0.0133 -0.9998
vn 0.0218 0.0561 -0.9982
vn 0.0002 0.0526 -0.9986
vn 0.0019 0.0842 -0.9964
vn -0.0059 0.0807 -0.9967
vn -0.0050 0.0100 -0.9999
vn 0.0215 0.0714 -0.9972
vn 0.0506 0.0905 -0.9946
vn 0.0624 0.0893 -0.9941
vn -0.5444 -0.3636 -0.7559
vn 0.1681 -0.1046 -0.9802
vn -0.5705 -0.3228 -0.7552
vn 0.1831 -0.1197 -0.9758
vn 0.1515 -0.1570 -0.9759
vn -0.5721 -0.4000 -0.7160
vn 0.2709 -0.1184 -0.9553
vn -0.4922 -0.3641 -0.7907
vn -0.6703 -0.3511 -0.6537
vn 0.0275 -0.1370 -0.9902
vn -0.9395 -0.3385 -0.0518
vn -0.9320 -0.3589 -0.0508
vn -0.9286 -0.3702 -0.0275
vn -0.9194 -0.3929 -0.0177
vn -0.9352 -0.3531 -0.0279
vn 0.0834 0.1545 -0.9845
vn 0.0281 0.1432 -0.9893
vn 0.0258 0.1450 -0.9891
vn 0.0813 0.1570 -0.9843
vn 0.0910 0.1193 -0.9887
vn 0.0766 0.0893 -0.9931
vn 0.0815 0.0857 -0.9930
vn 0.0927 0.1119 -0.9894
vn 0.0300 0.1733 -0.9844
vn 0.0153 0.2189 -0.9756
vn 0.0127 0.2218 -0.9750
vn 0.0272 0.1720 -0.9847
vn 0.0044 0.1251 -0.9921
vn -0.0019 0.1079 -0.9942
vn 0.0101 0.1222 -0.9925
vn -0.0646 0.0098 -0.9979
vn -0.0640 -0.0163 -0.9978
vn 0.0556 0.0347 -0.9979
vn 0.0654 0.0270 -0.9975
vn 0.0719 -0.0216 -0.9972
vn -0.0000 -0.0000 -1.0000
vt -5.281250 1.000000
vt -5.265137 0.000000
vt -6.045898 0.000000
vt -4.571777 0.000000
vt -4.613281 1.000000
vt -3.684082 0.000000
vt -3.641113 1.000000
vt -3.208496 0.000000
vt -3.179199 1.000000
vt -2.640625 0.000000
vt -2.627441 1.000000
vt -2.080566 0.000000
vt -2.090332 1.000000
vt -1.568359 0.000000
vt -1.594238 1.000000
vt -1.093750 1.000000
vt -9.944824 1.000000
vt -9.971680 0.000000
vt -10.519529 1.000000
vt -9.108398 0.000000
vt -9.083496 1.000000
vt -8.388184 0.000000
vt -8.380371 1.000000
vt -7.563965 0.000000
vt -7.557129 1.000000
vt -6.896973 0.000000
vt -6.901367 1.000000
vt -6.046875 1.000000
vt 9.354980 0.000000
vt 9.333008 1.000000
vt 8.493164 1.000000
vt 10.172850 1.000000
vt 10.180180 0.000000
vt 10.899409 1.000000
vt 10.901370 0.000000
vt 11.792970 0.000000
vt 2.067871 0.000000
vt 2.089355 1.000000
vt 2.858398 1.000000
vt 1.320313 1.000000
vt 1.289063 0.000000
vt 0.439941 1.000000
vt 0.412109 0.000000
vt -0.192871 0.000000
vt 5.005371 0.000000
vt 5.744629 1.000000
vt 5.787598 0.000000
vt 5.009766 1.000000
vt 4.276367 0.000000
vt 4.284668 1.000000
vt 3.580566 1.000000
vt 11.818850 1.000000
vt 12.642580 1.000000
vt 12.621580 0.000000
vt 13.457520 1.000000
vt 13.418460 1.000000
vt 7.600098 0.000000
vt 7.570801 1.000000
vt 6.956055 1.000000
vt 8.517578 0.000000
vt 3.563965 0.000000
vt 2.846191 0.000000
vt -0.160156 1.000000
vt -1.051270 0.000000
vt 0.263184 1.000000
vt 0.026367 0.000000
vt 0.026367 1.000000
vt 0.263184 0.000000
vt 0.510254 1.000000
vt 0.500000 0.000000
vt 0.689453 1.000000
vt 0.742188 0.000000
vt 0.974609 1.000000
vt 0.974609 0.000000
vt 0.448242 0.000000
vt 0.406250 1.000000
vt 0.288574 1.000000
vt 0.647461 1.000000
vt 0.742676 0.000000
vt 0.778809 1.000000
vt 0.843750 0.000000
vt 0.917969 0.000000
vt 0.035156 0.000000
vt 0.090820 1.000000
vt 0.022461 1.000000
vt 0.133789 0.000000
vt 0.802734 1.000000
vt 0.972168 1.000000
vt 0.463867 1.000000
vt 0.708008 0.000000
vt 0.976562 1.000000
vt 0.974121 0.000000
vt 1.116699 1.000000
vt 0.836426 0.700195
vt 0.813477 1.000000
vt 1.111328 0.700195
vt 1.393066 0.700195
vt 0.495117 1.000000
vt 0.535645 0.600098
vt 1.392578 1.000000
vt 1.668457 1.000000
vt 1.943848 0.700195
vt 1.937988 1.000000
vt 1.690918 0.700195
vt 2.251953 1.000000
vt 2.021484 0.600098
vt 2.414551 1.000000
vt 1.822754 1.000000
vt 1.699219 0.600098
vt 0.181641 1.000000
vt 0.149414 0.600098
vt -1.689453 1.000000
vt -0.233398 1.000000
vt 1.274902 0.799805
vt 1.274902 1.000000
vt -0.233398 0.799805
s 1
usemtl mt_gake_blend.007
f 3/1/1 2/2/2 1/3/3
f 4/4/4 2/2/2 3/1/1
f 5/5/5 4/4/4 3/1/1
f 6/6/6 4/4/4 5/5/5
f 7/7/7 6/6/6 5/5/5
f 8/8/8 6/6/6 7/7/7
f 9/9/9 8/8/8 7/7/7
f 10/10/10 8/8/8 9/9/9
f 11/11/11 10/10/10 9/9/9
f 12/12/12 10/10/10 11/11/11
f 13/13/13 12/12/12 11/11/11
f 14/14/14 12/12/12 13/13/13
f 15/15/15 14/14/14 13/13/13
f 16/16/16 14/14/14 15/15/15
f 19/17/17 18/18/18 17/19/19
f 20/20/20 18/18/18 19/17/17
f 21/21/21 20/20/20 19/17/17
f 22/22/22 20/20/20 21/21/21
f 23/23/23 22/22/22 21/21/21
f 24/24/24 22/22/22 23/23/23
f 25/25/25 24/24/24 23/23/23
f 26/26/26 24/24/24 25/25/25
f 27/27/27 26/26/26 25/25/25
f 28/28/28 26/26/26 27/27/27
f 31/29/29 30/30/30 29/31/31
f 32/32/32 30/30/30 31/29/29
f 33/33/33 32/32/32 31/29/29
f 34/34/34 32/32/32 33/33/33
f 35/35/35 34/34/34 33/33/33
f 36/36/36 34/34/34 35/35/35
f 39/37/37 38/38/38 37/39/39
f 40/40/40 38/38/38 39/37/37
f 41/41/41 40/40/40 39/37/37
f 42/42/42 40/40/40 41/41/41
f 43/43/43 42/42/42 41/41/41
f 44/44/44 42/42/42 43/43/43
f 47/45/45 46/46/46 45/47/47
f 48/48/48 46/46/46 47/45/45
f 49/49/49 48/48/48 47/45/45
f 50/50/50 48/48/48 49/49/49
f 51/51/51 50/50/50 49/49/49
f 36/36/36 52/52/52 34/34/34
f 53/53/53 52/52/52 36/36/36
f 54/54/54 53/53/53 36/36/36
f 55/55/55 53/53/53 54/54/54
f 56/56/56 55/55/55 54/54/54
f 59/57/57 58/58/58 57/59/59
f 29/31/31 58/58/58 59/57/57
f 60/60/60 29/31/31 59/57/57
f 31/29/29 29/31/31 60/60/60
f 61/61/61 51/51/51 49/49/49
f 37/39/39 51/51/51 61/61/61
f 62/62/62 37/39/39 61/61/61
f 39/37/37 37/39/39 62/62/62
f 44/44/44 63/63/63 42/42/42
f 64/64/64 63/63/63 44/44/44
f 64/64/64 16/16/16 63/63/63
f 14/14/14 16/16/16 64/64/64
f 28/28/28 1/3/3 26/26/26
f 3/1/1 1/3/3 28/28/28
f 67/65/65 66/66/66 65/67/67
f 68/68/68 66/66/66 67/65/65
f 69/69/69 68/68/68 67/65/65
f 70/70/70 68/68/68 69/69/69
f 71/71/71 70/70/70 69/69/69
f 72/72/72 70/70/70 71/71/71
f 73/73/73 72/72/72 71/71/71
f 74/74/74 72/72/72 73/73/73
f 77/75/75 76/76/76 75/77/77
f 78/78/78 76/76/76 77/75/75
f 79/79/79 78/78/78 77/75/75
f 80/80/80 78/78/78 79/79/79
f 81/81/81 80/80/80 79/79/79
f 82/82/82 80/80/80 81/81/81
f 84/83/83 83/84/84 57/85/85
f 75/77/77 83/84/84 84/83/83
f 85/86/86 75/77/77 84/83/83
f 77/75/75 75/77/77 85/86/86
f 82/82/82 86/87/87 80/80/80
f 87/88/88 86/87/87 82/82/82
f 17/88/89 87/88/88 82/82/82
f 90/70/90 89/65/91 88/68/92
f 91/89/93 89/65/91 90/70/90
f 92/71/94 91/89/93 90/70/90
f 93/90/95 92/71/94 90/70/90
f 94/91/96 92/71/94 93/90/95
f 95/92/97 94/91/96 93/90/95
f 97/66/98 89/65/91 96/67/99
f 88/68/92 89/65/91 97/66/98
f 99/65/100 97/66/98 98/67/101
f 88/68/92 97/66/98 99/65/100
f 90/70/90 88/68/92 99/65/100
f 100/89/102 90/70/90 99/65/100
f 101/71/103 90/70/90 100/89/102
f 101/71/103 93/90/95 90/70/90
f 102/91/104 93/90/95 101/71/103
f 95/92/97 93/90/95 102/91/104
f 105/93/105 104/94/106 103/95/107
f 106/96/108 104/94/106 105/93/105
f 107/97/109 106/96/108 105/93/105
f 109/98/110 104/94/106 108/99/111
f 103/95/107 104/94/106 109/98/110
f 110/100/112 107/97/109 105/93/105
f 111/101/113 107/97/109 110/100/112
f 113/102/114 111/101/113 112/103/115
f 114/104/116 111/101/113 113/102/114
f 111/101/113 114/104/116 107/97/109
f 117/105/117 116/106/118 115/107/119
f 118/108/120 116/106/118 117/105/117
f 118/108/120 119/109/121 116/106/118
f 120/110/122 119/109/121 118/108/120
f 122/111/123 120/110/122 121/112/124
f 119/109/121 120/110/122 122/111/123
s 0
f 125/113/125 124/114/125 123/115/125
f 126/116/125 124/114/125 125/113/125
f 126/116/125 127/114/125 124/114/125
f 128/116/125 127/114/125 126/116/125
f 128/116/125 129/115/125 127/114/125
f 130/113/125 129/115/125 128/116/125
