# Blender 4.1.1
# www.blender.org
mtllib polygon0.520.mtl
o FlagA3
v 23.900900 -1.352733 14.058239
v 17.416780 0.527328 10.737140
v 25.614729 -1.674881 20.077379
v 18.571770 0.171176 16.756279
v 27.055119 -1.844312 26.096508
v 20.375969 -0.392589 22.775419
v 26.924028 -1.833044 32.115650
v 21.203487 -0.642611 28.794550
v 25.339600 -1.631510 38.134781
v 20.308569 -0.371841 34.813690
v 11.477519 1.817479 7.416043
v 11.738109 1.790431 13.435180
v 13.381939 1.546668 19.454319
v 14.927629 1.214690 25.473450
v 14.982240 1.201394 31.492590
v 6.059931 1.604360 4.094944
v 5.350410 1.472528 10.114079
v 6.356272 1.653066 16.133209
v 8.171058 1.862251 22.152348
v 9.159327 1.907624 28.171488
v -0.006411 -0.002014 0.000065
v -0.484259 -0.151973 6.792982
v 0.177957 0.055901 13.508520
v 1.148016 0.358526 18.831249
v 1.399031 0.435660 23.767090
v 23.900900 -1.352733 14.058239
v 25.614729 -1.674881 20.077379
v 17.416780 0.527328 10.737140
v 18.571770 0.171176 16.756279
v 11.477519 1.817479 7.416043
v 11.738109 1.790431 13.435180
v 6.059931 1.604360 4.094944
v 5.350410 1.472528 10.114079
v -0.006411 -0.002014 0.000065
v -0.484259 -0.151973 6.792982
v 27.055119 -1.844312 26.096508
v 20.375969 -0.392589 22.775419
v 13.381939 1.546668 19.454319
v 6.356272 1.653066 16.133209
v 0.177957 0.055901 13.508520
v 26.924028 -1.833044 32.115650
v 21.203487 -0.642611 28.794550
v 14.927629 1.214690 25.473450
v 8.171058 1.862251 22.152348
v 1.148016 0.358526 18.831249
v 25.339600 -1.631510 38.134781
v 20.308569 -0.371841 34.813690
v 14.982240 1.201394 31.492590
v 9.159327 1.907624 28.171488
v 1.399031 0.435660 23.767090
vn -0.2936 -0.9554 0.0325
vn -0.2210 -0.9752 -0.0114
vn -0.2708 -0.9622 0.0306
vn -0.2309 -0.9729 -0.0138
vn -0.2199 -0.9755 0.0006
vn -0.2283 -0.9735 -0.0142
vn -0.1979 -0.9801 -0.0141
vn -0.2396 -0.9708 -0.0047
vn -0.2181 -0.9759 -0.0067
vn -0.2609 -0.9653 0.0045
vn -0.0421 -0.9991 -0.0057
vn -0.0738 -0.9970 -0.0218
vn -0.1357 -0.9907 -0.0077
vn -0.1957 -0.9806 0.0080
vn -0.2276 -0.9737 0.0041
vn 0.1800 -0.9837 0.0012
vn 0.1690 -0.9855 -0.0111
vn 0.1205 -0.9927 -0.0040
vn 0.0437 -0.9989 0.0172
vn -0.0390 -0.9991 0.0171
vn 0.2608 -0.9654 0.0026
vn 0.2667 -0.9638 -0.0030
vn 0.2422 -0.9702 0.0007
vn 0.1999 -0.9798 0.0103
vn 0.1830 -0.9831 0.0061
vn 0.2936 0.9554 -0.0325
vn 0.2708 0.9622 -0.0306
vn 0.2210 0.9752 0.0114
vn 0.2309 0.9729 0.0138
vn 0.0421 0.9991 0.0057
vn 0.0738 0.9970 0.0218
vn -0.1800 0.9837 -0.0012
vn -0.1690 0.9855 0.0111
vn -0.2608 0.9654 -0.0026
vn -0.2667 0.9638 0.0030
vn 0.2199 0.9755 -0.0006
vn 0.2283 0.9735 0.0142
vn 0.1357 0.9907 0.0077
vn -0.1205 0.9927 0.0040
vn -0.2422 0.9702 -0.0007
vn 0.1979 0.9801 0.0141
vn 0.2396 0.9708 0.0047
vn 0.1957 0.9806 -0.0080
vn -0.0437 0.9989 -0.0172
vn -0.1999 0.9798 -0.0103
vn 0.2181 0.9759 0.0067
vn 0.2609 0.9653 -0.0045
vn 0.2276 0.9737 -0.0041
vn 0.0390 0.9991 -0.0171
vn -0.1830 0.9831 -0.0061
vt -0.019653 0.750427
vt 0.236450 1.000000
vt -0.019653 1.000000
vt 0.236450 0.750427
vt -0.019653 0.500000
vt 0.236450 0.500000
vt -0.019653 0.249573
vt 0.236450 0.249573
vt -0.019653 0.000000
vt 0.236450 0.000000
vt 0.496338 1.000000
vt 0.496338 0.750427
vt 0.496338 0.500000
vt 0.496338 0.249573
vt 0.496338 0.000000
vt 0.756226 1.000000
vt 0.756226 0.750427
vt 0.756226 0.500000
vt 0.756226 0.249573
vt 0.756226 0.000000
vt 1.087646 1.000000
vt 1.029358 0.750427
vt 1.006042 0.500000
vt 1.029358 0.249573
vt 1.087646 0.000000
vt 0.755249 1.000000
vt 1.015137 0.749878
vt 1.015137 1.000000
vt 0.755249 0.749878
vt 0.495361 1.000000
vt 0.495361 0.749878
vt 0.235474 1.000000
vt 0.235474 0.749878
vt -0.092163 1.000000
vt -0.033875 0.749878
vt 1.015137 0.500000
vt 0.755249 0.500000
vt 0.495361 0.500000
vt 0.235474 0.500000
vt -0.010559 0.500000
vt 1.015137 0.250122
vt 0.755249 0.250122
vt 0.495361 0.250122
vt 0.235474 0.250122
vt -0.033875 0.250122
vt 1.015137 0.000000
vt 0.755249 0.000000
vt 0.495361 0.000000
vt 0.235474 0.000000
vt -0.092163 0.000000
s 1
usemtl M_FlagA.001
f 3/1/3 2/2/2 1/3/1
f 4/4/4 2/2/2 3/1/3
f 5/5/5 4/4/4 3/1/3
f 6/6/6 4/4/4 5/5/5
f 7/7/7 6/6/6 5/5/5
f 8/8/8 6/6/6 7/7/7
f 9/9/9 8/8/8 7/7/7
f 10/10/10 8/8/8 9/9/9
f 4/4/4 11/11/11 2/2/2
f 12/12/12 11/11/11 4/4/4
f 6/6/6 12/12/12 4/4/4
f 13/13/13 12/12/12 6/6/6
f 8/8/8 13/13/13 6/6/6
f 14/14/14 13/13/13 8/8/8
f 10/10/10 14/14/14 8/8/8
f 15/15/15 14/14/14 10/10/10
f 12/12/12 16/16/16 11/11/11
f 17/17/17 16/16/16 12/12/12
f 13/13/13 17/17/17 12/12/12
f 18/18/18 17/17/17 13/13/13
f 14/14/14 18/18/18 13/13/13
f 19/19/19 18/18/18 14/14/14
f 15/15/15 19/19/19 14/14/14
f 20/20/20 19/19/19 15/15/15
f 17/17/17 21/21/21 16/16/16
f 22/22/22 21/21/21 17/17/17
f 18/18/18 22/22/22 17/17/17
f 23/23/23 22/22/22 18/18/18
f 19/19/19 23/23/23 18/18/18
f 24/24/24 23/23/23 19/19/19
f 20/20/20 24/24/24 19/19/19
f 25/25/25 24/24/24 20/20/20
f 28/26/28 27/27/27 26/28/26
f 29/29/29 27/27/27 28/26/28
f 30/30/30 29/29/29 28/26/28
f 31/31/31 29/29/29 30/30/30
f 32/32/32 31/31/31 30/30/30
f 33/33/33 31/31/31 32/32/32
f 34/34/34 33/33/33 32/32/32
f 35/35/35 33/33/33 34/34/34
f 29/29/29 36/36/36 27/27/27
f 37/37/37 36/36/36 29/29/29
f 31/31/31 37/37/37 29/29/29
f 38/38/38 37/37/37 31/31/31
f 33/33/33 38/38/38 31/31/31
f 39/39/39 38/38/38 33/33/33
f 35/35/35 39/39/39 33/33/33
f 40/40/40 39/39/39 35/35/35
f 37/37/37 41/41/41 36/36/36
f 42/42/42 41/41/41 37/37/37
f 38/38/38 42/42/42 37/37/37
f 43/43/43 42/42/42 38/38/38
f 39/39/39 43/43/43 38/38/38
f 44/44/44 43/43/43 39/39/39
f 40/40/40 44/44/44 39/39/39
f 45/45/45 44/44/44 40/40/40
f 42/42/42 46/46/46 41/41/41
f 47/47/47 46/46/46 42/42/42
f 43/43/43 47/47/47 42/42/42
f 48/48/48 47/47/47 43/43/43
f 44/44/44 48/48/48 43/43/43
f 49/49/49 48/48/48 44/44/44
f 45/45/45 49/49/49 44/44/44
f 50/50/50 49/49/49 45/45/45
