# Blender 4.1.1
# www.blender.org
mtllib polygon1.001.mtl
o polygon1
v -2844.684814 -6290.956055 -371.319519
v -2910.039062 -6296.737793 -355.687134
v -2909.867188 -6305.341309 -357.242554
v -2967.253174 -6302.554199 -344.881592
v -2967.395020 -6310.451172 -346.647278
v -3024.467041 -6308.369141 -334.076111
v -3024.923096 -6315.562500 -336.052002
v -3084.182129 -6308.556152 -329.146790
v -3084.771240 -6315.518066 -330.674408
v -3143.897217 -6308.742188 -324.217438
v -3144.619873 -6315.474121 -325.296906
v -3211.899902 -6309.315430 -327.772797
v -3212.171143 -6315.749023 -328.761963
v -3279.904053 -6309.889160 -331.328217
v -3279.723145 -6316.024414 -332.226990
v -3340.876221 -6309.632812 -342.929596
v -3340.836182 -6316.123535 -343.888489
v -3401.848145 -6309.377930 -354.530884
v -3401.949951 -6316.221191 -355.549896
v -3444.955811 -6307.387207 -365.539154
v -3445.812988 -6315.891602 -366.687592
v -3488.063965 -6305.395996 -376.547394
v -3489.674805 -6315.562500 -377.825226
v -3531.173096 -6303.404297 -387.555695
v -3533.538086 -6315.232910 -388.962860
v -3574.281250 -6301.413086 -398.563995
v -3577.401123 -6314.902832 -400.100555
v -3651.426270 -6250.649414 -416.340271
v -3657.784912 -6262.574707 -421.540283
v -3766.812012 -6229.692383 -436.346313
v 336.891479 -6204.634766 -403.973022
v 132.162094 -6247.277832 -403.865295
v 136.737503 -6264.560059 -400.050964
v -57.677948 -6346.581055 -400.701813
v -51.241070 -6363.315918 -396.948425
v -245.914383 -6454.125488 -393.171295
v -237.533386 -6471.839844 -389.705902
v -405.233459 -6515.663086 -386.467224
v -401.391205 -6535.022461 -381.204773
v -549.564758 -6541.004395 -385.548889
v -551.020508 -6562.249023 -379.484741
v -678.622620 -6527.004395 -387.709106
v -682.185913 -6549.531250 -380.976685
v -839.492554 -6497.954102 -385.409882
v 978.879272 -6248.705078 -399.689087
v 983.608887 -6227.894043 -403.431366
v 768.693359 -6213.803223 -400.962921
v 770.736023 -6193.542480 -404.924255
v 562.402588 -6197.578125 -402.331116
v 563.059021 -6174.438477 -407.405151
v 333.651276 -6184.929199 -408.065521
v 358.698853 -6395.192383 -403.973022
v 556.175781 -6406.500977 -405.674042
v 557.867004 -6384.411133 -402.331116
v 753.317261 -6424.355957 -407.285706
v 755.869690 -6404.456055 -400.962891
v 954.612000 -6456.955078 -404.864532
v 958.819885 -6436.034180 -399.689056
v -2723.565186 -6379.209961 -392.016998
v -2741.458008 -6361.435059 -389.794037
v -2907.070801 -6379.209961 -379.447113
v -2905.612061 -6361.458496 -375.809418
v -3071.333008 -6379.209961 -371.945251
v -3069.874268 -6362.931641 -371.745117
v -3239.634033 -6362.083496 -378.169830
v -2620.298096 -6194.438477 -399.619232
v -2630.358154 -6183.217285 -395.427338
v -2779.502197 -6276.569824 -385.396423
v -2783.167969 -6267.949707 -384.173950
v -2846.603027 -6282.344238 -369.930542
v -831.986450 -6477.290039 -389.836090
v -950.618713 -6401.322754 -390.149323
v -962.320129 -6417.054199 -386.149933
v -1096.455078 -6314.632324 -391.709503
v 188.061478 -6443.241211 -400.050903
v 193.781082 -6460.814453 -403.219421
v 362.249176 -6416.806641 -407.681824
v -168.855774 -6641.761230 -391.079681
v 31.895168 -6537.493164 -400.190796
v -174.073395 -6629.604004 -389.705872
v 22.692438 -6520.786621 -396.948395
v -1087.281006 -6299.229980 -395.546326
v -1228.236084 -6231.699219 -401.230865
v -1220.332886 -6215.639160 -403.871521
v -1353.111084 -6186.158203 -415.028259
v -1348.479004 -6168.782227 -417.868134
v -1463.554932 -6159.996582 -426.081970
v -1461.543091 -6143.822754 -427.401855
v -1582.471069 -6141.809082 -437.135651
v -2502.528076 -5941.479004 -423.031311
v -2524.504150 -5934.859863 -414.363983
v -3658.166260 -6371.554688 -424.939941
v -3570.299805 -6379.209961 -411.758789
v -3659.616211 -6363.371582 -423.585327
v -3400.839844 -6362.500977 -389.662811
v -3399.857178 -6379.209961 -389.862823
v -3241.093018 -6379.209961 -378.369843
v -1583.568970 -6126.934082 -436.935699
v -2491.996094 -5523.023438 -445.646515
v -3763.434814 -6215.309082 -432.311829
v -4066.780029 -6214.659180 -471.938019
v -3705.001221 -6699.935547 0.000798
v -3376.385254 -6611.809082 0.000787
v -3630.442139 -6549.826172 0.000780
v -3348.760010 -6507.944336 0.000775
v -3349.377930 -6377.602539 0.000759
v -3067.078125 -6497.270996 0.000774
v -3067.593018 -6376.732910 0.000759
v -2729.907959 -6504.729004 0.000774
v -2785.807129 -6365.665527 0.000758
v -3358.511230 -6269.533203 0.000746
v -3759.757080 -6246.600098 0.000744
v -3631.164062 -6372.804199 0.000759
v -3049.902100 -6601.841309 0.000786
v -2670.952148 -6235.273438 0.000742
v -3067.691162 -6257.502930 0.000745
v -2426.775146 -6661.226074 0.000793
v 248.940872 -4272.117676 -1467.304443
v 203.579391 -4610.752930 -1548.032593
v 251.567398 -4273.279297 -1487.199463
v 199.988495 -4653.945801 -1572.899414
v 227.949173 -4534.705566 -1554.984619
v 216.140091 -4665.417969 -1588.639404
v 234.549484 -4535.643555 -1554.984619
v 290.531799 -3961.850098 -1407.609497
v 288.948578 -3995.687988 -1413.930542
v 296.569305 -3959.229980 -1422.699463
v 271.368195 -4276.096191 -1487.673462
v 191.922012 -4640.467773 -1556.190552
v 120.637596 -4656.380859 -1600.700562
v 316.895447 -3959.229980 -1423.199463
v 960.935364 -5628.281250 -1857.899414
v 962.906555 -5602.018066 -1857.978394
v 720.122009 -5599.105469 -1804.099365
v 720.012878 -5571.887695 -1802.969360
v 526.361755 -5527.993164 -1765.099365
v 536.287537 -5506.432129 -1764.765503
v 406.652985 -5430.049316 -1739.199341
v 419.859161 -5414.673340 -1737.838379
v 301.687286 -5304.922363 -1714.352173
v 517.389587 -5546.344238 -1750.390503
v 691.618652 -5610.807129 -1785.142456
v 743.773315 -5616.950195 -1785.717529
v 964.354492 -5646.288574 -1830.723267
v 286.713593 -5317.167480 -1701.899292
v 271.746796 -5329.906250 -1683.101318
v 385.765503 -5437.154785 -1718.592529
v 395.221863 -5446.732910 -1721.741455
v 409.553772 -5460.261230 -1725.970459
vn -0.2200 0.1714 -0.9603
vn -0.2228 0.1665 -0.9606
vn -0.2393 0.1024 -0.9655
vn -0.1990 0.2150 -0.9561
vn -0.1989 0.2194 -0.9551
vn -0.1420 0.2682 -0.9528
vn -0.1368 0.2686 -0.9535
vn -0.0839 0.2223 -0.9714
vn -0.0842 0.2184 -0.9722
vn -0.0235 0.1628 -0.9864
vn -0.0144 0.1597 -0.9871
vn 0.0502 0.1498 -0.9874
vn 0.0502 0.1496 -0.9875
vn 0.1185 0.1474 -0.9819
vn 0.1177 0.1472 -0.9821
vn 0.1854 0.1448 -0.9719
vn 0.1854 0.1446 -0.9720
vn 0.2178 0.1407 -0.9658
vn 0.2189 0.1385 -0.9659
vn 0.2482 0.1067 -0.9628
vn 0.2479 0.1034 -0.9633
vn 0.2481 0.0834 -0.9651
vn 0.2479 0.0806 -0.9654
vn 0.2480 0.0666 -0.9665
vn 0.2478 0.0642 -0.9667
vn 0.2514 0.0529 -0.9664
vn 0.2576 0.0604 -0.9644
vn 0.2940 0.2328 -0.9270
vn 0.2887 0.2492 -0.9244
vn 0.1641 0.2332 -0.9585
vn 0.0651 -0.1984 -0.9779
vn 0.0615 -0.1993 -0.9780
vn 0.0263 -0.1997 -0.9795
vn 0.0772 -0.1900 -0.9787
vn 0.0757 -0.1895 -0.9790
vn 0.0433 -0.1729 -0.9840
vn 0.0435 -0.1752 -0.9836
vn 0.0426 -0.2515 -0.9669
vn 0.0429 -0.2552 -0.9659
vn 0.0143 -0.2745 -0.9615
vn 0.0107 -0.2758 -0.9612
vn -0.0402 -0.2762 -0.9603
vn -0.0393 -0.2804 -0.9591
vn -0.0765 -0.1867 -0.9794
vn -0.0162 -0.1897 -0.9817
vn -0.0227 -0.1731 -0.9846
vn -0.0226 -0.1720 -0.9848
vn -0.0160 -0.1912 -0.9814
vn 0.0029 -0.2136 -0.9769
vn 0.0028 -0.2139 -0.9769
vn 0.0261 -0.1992 -0.9796
vn 0.0039 0.1547 -0.9879
vn 0.0027 0.1501 -0.9887
vn -0.0331 0.1629 -0.9861
vn 0.0469 0.2918 -0.9553
vn 0.0475 0.2947 -0.9544
vn 0.0433 0.2360 -0.9708
vn 0.0422 0.2319 -0.9718
vn -0.0626 0.2003 -0.9777
vn -0.0690 0.0629 -0.9956
vn -0.0682 0.0559 -0.9961
vn -0.0642 0.1996 -0.9778
vn 0.0076 0.0181 -0.9998
vn 0.0047 0.0119 -0.9999
vn 0.0541 0.0074 -0.9985
vn -0.1708 0.0708 -0.9828
vn -0.2583 0.1247 -0.9580
vn -0.2530 0.1313 -0.9585
vn -0.1736 0.0681 -0.9825
vn -0.2400 0.1023 -0.9654
vn -0.0794 -0.1811 -0.9802
vn -0.1010 -0.1743 -0.9795
vn -0.1007 -0.1741 -0.9796
vn -0.0804 -0.1952 -0.9775
vn -0.0776 0.1523 -0.9853
vn -0.0772 0.1525 -0.9853
vn -0.0329 0.1638 -0.9859
vn -0.0858 0.0788 -0.9932
vn -0.0969 0.1367 -0.9859
vn -0.0846 0.0760 -0.9935
vn -0.0980 0.1375 -0.9856
vn -0.0776 -0.1943 -0.9779
vn 0.0044 -0.1670 -0.9860
vn 0.0060 -0.1646 -0.9863
vn 0.0503 -0.1745 -0.9834
vn 0.0511 -0.1702 -0.9841
vn 0.0706 -0.0942 -0.9931
vn 0.0717 -0.0857 -0.9937
vn 0.0804 0.0111 -0.9967
vn -0.3614 0.0190 -0.9322
vn -0.3624 0.0171 -0.9319
vn 0.1582 0.1650 -0.9735
vn 0.1309 -0.0007 -0.9914
vn 0.1618 0.1890 -0.9686
vn 0.1003 0.0170 -0.9948
vn 0.0983 0.0173 -0.9950
vn 0.0560 0.0069 -0.9984
vn 0.0805 0.0193 -0.9966
vn -0.3771 -0.0405 -0.9253
vn 0.1689 0.2292 -0.9586
vn 0.1262 0.2403 -0.9625
vn -0.0000 -0.0000 -1.0000
vn -0.9767 0.1639 -0.1385
vn -0.9755 0.1650 -0.1457
vn -0.5837 0.2528 -0.7716
vn -0.5776 0.2521 -0.7764
vn 0.0350 0.2462 -0.9686
vn -0.9293 0.1094 -0.3528
vn -0.5814 0.2426 -0.7766
vn -0.9751 0.1692 -0.1436
vn -0.2523 0.2277 -0.9405
vn 0.0039 0.2006 -0.9797
vn -0.6314 0.4257 -0.6482
vn 0.1592 0.8345 -0.5275
vn 0.1736 0.8058 -0.5662
vn 0.1563 0.8399 -0.5197
vn 0.1428 0.8638 -0.4831
vn 0.0124 0.2499 -0.9682
vn -0.0241 0.2027 -0.9790
vn -0.9760 0.1680 -0.1387
vn -0.2492 -0.2419 -0.9377
vn -0.2165 0.0151 -0.9762
vn -0.2463 -0.4673 -0.8491
vn -0.1968 0.0418 -0.9796
vn -0.3130 -0.2112 -0.9260
vn -0.1558 0.0911 -0.9836
vn -0.2935 -0.0763 -0.9529
vn -0.0792 0.1552 -0.9847
vn -0.4680 -0.2228 -0.8552
vn -0.4179 -0.4350 -0.7976
vn -0.3394 -0.4818 -0.8078
vn -0.0981 -0.7742 -0.6253
vn -0.2163 -0.8261 -0.5204
vn -0.2163 -0.8248 -0.5224
vn -0.5457 -0.3246 -0.7726
vn -0.5811 -0.3796 -0.7199
vn -0.5951 -0.3496 -0.7237
vn -0.5697 -0.3749 -0.7314
vn -0.4876 -0.3891 -0.7816
vt 0.548584 1.000000
vt 0.545776 0.000000
vt 0.649475 1.000000
vt 0.395264 0.000000
vt 0.405335 1.000000
vt 0.290100 0.000000
vt 0.307373 1.000000
vt 0.216797 0.000000
vt 0.225037 1.000000
vt 0.083008 0.000000
vt 0.082214 1.000000
vt -0.039185 0.000000
vt -0.046204 1.000000
vt -0.161377 0.000000
vt -0.174683 1.000000
vt -0.304810 0.000000
vt -0.319580 1.000000
vt -0.448181 0.000000
vt -0.464478 1.000000
vt -0.521729 0.000000
vt -0.532776 1.000000
vt -0.595276 0.000000
vt -0.601074 1.000000
vt -0.668762 0.000000
vt -0.669434 1.000000
vt -0.742310 0.000000
vt -0.737732 1.000000
vt -0.814331 0.000000
vt -0.822144 1.000000
vt -0.929932 1.000000
vt -0.538391 1.000000
vt -0.535950 0.000000
vt -0.627869 1.000000
vt -0.445679 0.000000
vt -0.451416 1.000000
vt -0.312134 0.000000
vt -0.319519 1.000000
vt -0.221680 0.000000
vt -0.227173 1.000000
vt -0.116516 0.000000
vt -0.121643 1.000000
vt 0.008484 0.000000
vt 0.004150 1.000000
vt 0.125488 1.000000
vt -0.841797 1.000000
vt -0.926331 0.000000
vt -0.927551 1.000000
vt -0.839478 0.000000
vt -0.747375 1.000000
vt -0.746399 0.000000
vt -0.627502 0.000000
vt 0.320984 1.000000
vt 0.305176 0.000000
vt -0.011841 1.000000
vt 0.612305 0.000000
vt 0.630859 1.000000
vt 0.933716 0.000000
vt 0.933716 1.000000
vt 0.239319 1.000000
vt 0.561585 0.000000
vt 0.576294 1.000000
vt 0.236694 0.000000
vt 0.035095 1.000000
vt 0.040894 0.000000
vt -0.248413 0.000000
vt 0.734009 1.000000
vt 0.895020 0.000000
vt 0.888611 1.000000
vt 0.730530 0.000000
vt 0.646362 0.000000
vt 0.127991 0.000000
vt 0.281372 0.000000
vt 0.283203 1.000000
vt 0.428589 1.000000
vt -0.383423 0.000000
vt -0.406250 1.000000
vt -0.018433 0.000000
vt -0.933350 1.000000
vt -0.691711 0.000000
vt -0.933350 0.000000
vt -0.709473 1.000000
vt 0.426941 0.000000
vt 0.558899 1.000000
vt 0.559448 0.000000
vt 0.688477 1.000000
vt 0.689636 0.000000
vt 0.783020 1.000000
vt 0.784912 0.000000
vt 0.885864 1.000000
vt -0.929565 0.000000
vt -0.472534 1.000000
vt -0.929565 1.000000
vt -0.463623 0.000000
vt -0.928406 0.000000
vt -0.797974 1.000000
vt -0.931885 1.000000
vt -0.537720 0.000000
vt -0.543884 1.000000
vt -0.250061 1.000000
vt 0.888428 0.000000
vt 0.269348 0.000000
vt -0.929932 0.000000
vt 0.560303 1.000000
vt -0.116821 0.000000
vt 0.555481 0.000000
vt -0.233398 0.799988
vt 0.269348 1.000000
vt -0.233398 1.000000
vt 0.269348 0.799988
vt 0.772156 0.799988
vt 1.274963 0.799988
vt 0.772156 1.000000
vt 1.274963 1.000000
vt 0.618652 0.000000
vt 0.129211 1.000000
vt 0.634827 1.000000
vt 0.054016 0.000000
vt 0.247131 0.864197
vt 0.061401 1.000000
vt 0.245911 1.000000
vt 1.209106 0.000000
vt 1.151855 1.000000
vt 1.214478 1.000000
vt 0.618713 0.000000
vt 0.614929 1.000000
vt 0.063049 1.000000
vt -0.088440 1.000000
vt 1.220825 1.000000
vt 0.634888 1.000000
vt 0.143249 0.000000
vt -0.229492 1.000000
vt -0.233154 0.000000
vt 0.143677 1.000000
vt 0.442322 0.000000
vt 0.438660 1.000000
vt 0.671143 0.000000
vt 0.651672 1.000000
vt 1.042847 1.000000
vt 0.447876 1.000000
vt 0.178772 1.000000
vt 0.106628 1.000000
vt -0.238098 1.000000
vt 1.067932 0.000000
vt 1.087585 1.000000
vt 0.710510 1.000000
vt 0.687805 1.000000
vt 0.653015 1.000000
s 1
usemtl mt_gake_blend.004
f 3/1/1 2/2/2 1/3/3
f 4/4/4 2/2/2 3/1/1
f 5/5/5 4/4/4 3/1/1
f 6/6/6 4/4/4 5/5/5
f 7/7/7 6/6/6 5/5/5
f 8/8/8 6/6/6 7/7/7
f 9/9/9 8/8/8 7/7/7
f 10/10/10 8/8/8 9/9/9
f 11/11/11 10/10/10 9/9/9
f 12/12/12 10/10/10 11/11/11
f 13/13/13 12/12/12 11/11/11
f 14/14/14 12/12/12 13/13/13
f 15/15/15 14/14/14 13/13/13
f 16/16/16 14/14/14 15/15/15
f 17/17/17 16/16/16 15/15/15
f 18/18/18 16/16/16 17/17/17
f 19/19/19 18/18/18 17/17/17
f 20/20/20 18/18/18 19/19/19
f 21/21/21 20/20/20 19/19/19
f 22/22/22 20/20/20 21/21/21
f 23/23/23 22/22/22 21/21/21
f 24/24/24 22/22/22 23/23/23
f 25/25/25 24/24/24 23/23/23
f 26/26/26 24/24/24 25/25/25
f 27/27/27 26/26/26 25/25/25
f 28/28/28 26/26/26 27/27/27
f 29/29/29 28/28/28 27/27/27
f 30/30/30 28/28/28 29/29/29
f 33/31/31 32/32/32 31/33/33
f 34/34/34 32/32/32 33/31/31
f 35/35/35 34/34/34 33/31/31
f 36/36/36 34/34/34 35/35/35
f 37/37/37 36/36/36 35/35/35
f 38/38/38 36/36/36 37/37/37
f 39/39/39 38/38/38 37/37/37
f 40/40/40 38/38/38 39/39/39
f 41/41/41 40/40/40 39/39/39
f 42/42/42 40/40/40 41/41/41
f 43/43/43 42/42/42 41/41/41
f 44/44/44 42/42/42 43/43/43
f 47/45/45 46/46/46 45/47/47
f 48/48/48 46/46/46 47/45/45
f 49/49/49 48/48/48 47/45/45
f 50/50/50 48/48/48 49/49/49
f 31/33/33 50/50/50 49/49/49
f 51/51/51 50/50/50 31/33/33
f 32/32/32 51/51/51 31/33/33
f 54/52/52 53/53/53 52/54/54
f 55/55/55 53/53/53 54/52/52
f 56/56/56 55/55/55 54/52/52
f 57/57/57 55/55/55 56/56/56
f 58/58/58 57/57/57 56/56/56
f 61/59/59 60/60/60 59/61/61
f 62/62/62 60/60/60 61/59/59
f 63/63/63 62/62/62 61/59/59
f 64/64/64 62/62/62 63/63/63
f 65/65/65 64/64/64 63/63/63
f 68/66/66 67/67/67 66/68/68
f 69/69/69 67/67/67 68/66/66
f 1/3/3 69/69/69 68/66/66
f 70/70/70 69/69/69 1/3/3
f 2/2/2 70/70/70 1/3/3
f 44/44/44 71/71/71 42/42/42
f 72/72/72 71/71/71 44/44/44
f 73/73/73 72/72/72 44/44/44
f 74/74/74 72/72/72 73/73/73
f 52/54/54 76/75/75 75/76/76
f 77/77/77 76/75/75 52/54/54
f 53/53/53 77/77/77 52/54/54
f 80/78/78 79/79/79 78/80/80
f 81/81/81 79/79/79 80/78/78
f 81/81/81 76/75/75 79/79/79
f 75/76/76 76/75/75 81/81/81
f 74/74/74 82/82/82 72/72/72
f 83/83/83 82/82/82 74/74/74
f 83/83/83 84/84/84 82/82/82
f 85/85/85 84/84/84 83/83/83
f 85/85/85 86/86/86 84/84/84
f 87/87/87 86/86/86 85/85/85
f 87/87/87 88/88/88 86/86/86
f 89/89/89 88/88/88 87/87/87
f 67/90/67 90/91/90 66/92/68
f 91/93/91 90/91/90 67/90/67
f 94/94/92 93/95/93 92/96/94
f 95/97/95 93/95/93 94/94/92
f 95/97/95 96/98/96 93/95/93
f 65/65/65 96/98/96 95/97/95
f 65/65/65 97/99/97 96/98/96
f 63/63/63 97/99/97 65/65/65
f 98/100/98 88/88/88 89/89/89
f 90/91/90 91/93/91 99/101/99
f 28/28/28 30/30/30 100/102/100
f 30/103/30 101/104/101 100/105/100
s 0
f 104/106/102 103/107/102 102/108/102
f 105/109/102 103/107/102 104/106/102
f 106/109/102 105/109/102 104/106/102
f 107/110/102 105/109/102 106/109/102
f 108/110/102 107/110/102 106/109/102
f 109/111/102 107/110/102 108/110/102
f 110/111/102 109/111/102 108/110/102
f 106/109/102 112/108/102 111/107/102
f 113/106/102 112/108/102 106/109/102
f 104/106/102 113/106/102 106/109/102
f 105/109/102 114/112/102 103/107/102
f 107/110/102 114/112/102 105/109/102
f 110/111/102 116/112/102 115/113/102
f 108/110/102 116/112/102 110/111/102
f 108/110/102 111/107/102 116/112/102
f 106/109/102 111/107/102 108/110/102
f 117/113/102 107/110/102 109/111/102
f 114/112/102 107/110/102 117/113/102
f 120/114/103 119/115/103 118/116/103
f 121/117/104 119/115/104 120/114/104
f 122/118/105 121/117/105 120/114/105
f 123/119/106 121/117/106 122/118/106
f 124/120/107 123/119/107 122/118/107
f 127/121/108 126/122/108 125/123/108
s 1
f 120/124/109 126/122/110 127/121/111
f 128/125/112 120/124/109 127/121/111
s 0
f 121/117/113 129/126/113 119/115/113
s 1
f 130/127/114 129/126/115 121/117/116
f 123/119/117 130/127/114 121/117/116
s 0
f 128/125/118 122/118/118 120/114/118
f 124/120/107 122/118/107 128/125/107
s 1
f 131/128/119 128/125/112 127/121/111
f 118/129/120 126/122/110 120/124/109
f 134/130/121 133/131/122 132/132/123
f 135/133/124 133/131/122 134/130/121
f 136/134/125 135/133/124 134/130/121
f 137/135/126 135/133/124 136/134/125
f 138/136/127 137/135/126 136/134/125
f 139/137/128 137/135/126 138/136/127
f 140/138/129 139/137/128 138/136/127
f 136/134/125 141/139/130 138/136/127
f 142/140/131 141/139/130 136/134/125
f 134/130/121 142/140/131 136/134/125
s 0
f 143/141/132 142/140/132 134/130/132
s 1
f 144/142/133 143/141/134 134/130/121
f 138/136/127 145/143/135 140/138/129
f 146/144/136 145/143/135 138/136/127
f 147/145/136 146/144/136 138/136/127
s 0
f 138/136/137 148/146/137 147/145/137
f 149/147/138 148/146/138 138/136/138
s 1
f 141/139/130 149/147/139 138/136/127
f 132/132/123 144/142/133 134/130/121
