# Blender 4.1.1
# www.blender.org
mtllib polygon750.mtl
o polygon750
v 3392.412109 -4514.987793 -499.199127
v 3382.888916 -4505.183105 -498.999115
v 3288.760010 -4635.788086 -516.824768
v 3275.307129 -4621.748047 -518.181335
v 3172.526123 -4732.456543 -525.080017
v 3160.104248 -4721.369141 -526.518555
v 3066.657227 -4841.967773 -537.462952
v 3052.021240 -4831.025391 -539.024353
v 2972.427979 -4986.631348 -562.216614
v 2956.117188 -4979.016602 -564.420654
v 2915.338135 -5135.403809 -582.844971
v 2894.604248 -5130.089355 -585.290161
v 2856.905029 -5332.824219 -590.068604
v 2836.779053 -5328.026367 -592.435059
v 2820.433105 -5500.527832 -598.736755
v 2799.312988 -5497.627441 -602.590027
v 2791.092041 -5671.172852 -598.303589
v 2770.335205 -5667.189453 -603.739319
v 2755.114014 -5846.839844 -597.783691
v 2736.063965 -5839.580078 -601.824219
v 2680.068115 -6020.402344 -590.790283
v 2662.403076 -6008.500000 -593.436462
v 2543.092041 -6111.889160 -582.872620
v 3176.358154 -4934.717285 -541.830444
v 3086.729248 -5040.933105 -562.216614
v 3102.850830 -5050.308105 -566.229492
v 3036.104248 -5175.616211 -582.844971
v 3051.077148 -5182.269043 -585.903442
v 2986.079102 -5363.764648 -590.068604
v 3005.308105 -5368.131348 -593.535156
v 2957.261230 -5528.466309 -598.736816
v 2976.577148 -5532.179688 -601.911194
v 2928.696777 -5701.795898 -598.303589
v 2946.191162 -5706.330078 -600.857361
v 2895.715820 -5896.306641 -597.783569
v 2910.709229 -5901.641113 -600.131470
v 2804.451172 -6102.768066 -590.790283
v 2819.477051 -6115.256348 -592.156677
v 2661.704102 -6280.284668 -576.792358
v 2005.353027 -6301.369141 -488.708801
v 2003.616943 -6284.311035 -493.023132
v 1798.091064 -6322.069336 -453.449463
v 1797.307129 -6304.083496 -457.513702
v 1582.092896 -6322.853516 -421.130402
v 1581.833130 -6305.746094 -424.596985
v 1375.169067 -6303.938477 -405.764984
v 1377.948120 -6283.407227 -410.732025
v 1183.865112 -6260.911133 -405.459167
v 3383.809570 -4734.928223 -517.841125
v 3371.197021 -4721.512207 -515.010315
v 3271.417969 -4828.598145 -529.835754
v 3259.097168 -4818.500000 -526.236572
v 3163.699951 -4923.186523 -537.462891
v 1359.229980 -6486.969727 -406.065002
v 1357.390015 -6504.741211 -409.144928
v 1582.149048 -6504.229004 -421.130432
v 1580.511108 -6521.855469 -426.344482
v 1814.136108 -6497.439941 -453.449493
v 1814.316040 -6516.469238 -459.651733
v 2028.500000 -6496.071289 -494.161133
v 2554.780762 -6130.534668 -577.851685
v 2393.800049 -6192.123535 -567.156982
v 2401.535156 -6211.351074 -562.325684
v 2217.893066 -6263.879395 -532.675781
v 4217.577148 -2404.887207 -336.740326
v 4200.112305 -2407.045166 -334.642303
v 4206.083984 -2405.527100 -419.679810
v 4194.769043 -2407.045166 -420.315613
v 4209.395996 -2405.526855 -465.771820
v 4203.183105 -2407.044922 -468.033112
v 2026.306030 -6477.212402 -488.708832
v 2255.708008 -6438.824219 -532.675720
v 2260.873047 -6458.424316 -536.210022
v 2462.829102 -6389.661621 -564.166382
v 1180.806030 -6281.959961 -400.784271
v 983.608887 -6227.894043 -403.431366
v 978.879272 -6248.705078 -399.689087
v 2213.187988 -6245.520996 -537.692383
v 1245.969971 -6494.589355 -407.445129
v 1248.368042 -6475.339844 -403.184540
v 1153.121094 -6486.127930 -406.028534
v 1155.983032 -6465.648438 -400.784271
v 3478.116211 -4603.233398 -499.199158
v 3487.638916 -4613.039062 -498.999146
v 2651.435059 -6262.795898 -575.264038
v 2455.117188 -6369.904297 -562.325623
v 954.612000 -6456.955078 -404.864532
v 958.819885 -6436.034180 -399.689056
v 4472.994141 -2407.045166 -335.714813
v 4479.291992 -2405.829834 -419.403015
v 4490.190918 -2407.045166 -334.642303
v 4495.534180 -2407.046143 -420.315613
v 4478.075195 -2405.829590 -464.741211
v 4487.120117 -2407.044922 -468.033112
v 2327.055176 -452.144806 -153.376236
v 2423.645020 -716.870361 -200.927307
v 2411.992188 -415.839325 -155.158157
v 2594.616211 -623.944214 -224.131821
v 2501.587158 -384.802612 -159.267853
v 2737.839111 -561.406067 -241.553329
v 2602.474121 -354.089050 -164.441757
v 2713.584229 -327.937683 -170.833130
v 2885.806152 -546.761963 -276.075989
v 2825.507080 -308.348602 -179.812988
v 6261.533203 -14452.519531 -3.367377
v 6425.364746 -14529.309570 -3.367368
v 6276.679199 -14412.669922 -3.367382
v 6440.699707 -14488.969727 -3.367373
v 6467.869141 -14382.919922 -3.367385
v 6663.145996 -14424.799805 -3.367380
v 6678.335449 -14383.448242 -3.367385
v 6483.084473 -14341.410156 -3.367390
v 6322.581055 -14309.699219 -3.367394
v 6307.354004 -14351.290039 -3.367388
v 6608.936035 -14556.290039 -3.367364
v 6593.223145 -14597.599609 -3.367360
v 3275.539062 -3572.996582 -2016.099609
v 3250.585205 -3574.519775 -2016.599609
v 3268.281250 -3687.694336 -2021.899414
v 3243.326172 -3689.186523 -2022.412598
v 3264.931152 -3842.927490 -2043.399414
v 3239.917969 -3843.452393 -2043.899414
v 3251.644043 -4002.534424 -2070.099854
v 3226.666260 -4000.999756 -2070.599854
v 3209.159912 -4184.310547 -2107.999512
v 3184.409912 -4180.637695 -2107.997559
v 3128.513916 -4402.346680 -2148.131348
v 3104.174072 -4396.523926 -2148.508545
v 3037.826172 -4587.116699 -2176.235596
v 3014.158936 -4578.962891 -2176.821533
v 2932.443115 -4776.607910 -2194.599609
v 2915.454834 -4762.084473 -2195.099609
v 2904.724854 -4782.072754 -2194.999512
v 1938.938965 -5458.776855 -2104.075439
v 2113.383057 -5382.460449 -2147.699219
v 2103.192139 -5362.419434 -2146.672363
v 2236.579102 -5304.291992 -2172.499023
v 2226.241211 -5284.957520 -2171.976074
v 2383.773193 -5208.905762 -2189.599365
v 2373.368896 -5190.096680 -2190.099365
v 2507.808105 -5127.481934 -2194.599365
v 2495.348145 -5110.260254 -2195.099609
v 2522.837158 -5110.771973 -2194.999512
v 964.354492 -5646.288574 -1830.723267
v 990.211304 -5643.346191 -1836.061401
v 960.935364 -5628.281250 -1857.899414
v 1283.938110 -5636.139160 -1909.882324
v 1288.896118 -5620.825195 -1939.199341
v 1306.010010 -5631.834473 -1914.539185
v 1572.499023 -5580.720215 -2011.799316
v 1560.845093 -5595.245117 -1981.019165
v 1578.593994 -5590.819336 -1984.431519
v 1772.917114 -5517.069824 -2063.475098
v 1779.434937 -5541.277832 -2063.999023
v 1948.718994 -5481.839844 -2105.099365
v 2117.427002 -5382.036621 -2126.564209
v 2235.139160 -5307.271973 -2151.274170
v 2239.333008 -5305.477539 -2153.259033
v 2923.126221 -4794.702637 -2194.599609
v 2935.123047 -4776.729492 -2173.218506
v 3037.267090 -4592.922852 -2156.143555
v 3126.157959 -4410.921875 -2133.566650
v 3130.729248 -4405.362793 -2133.694336
v 3279.509277 -3577.124756 -1998.377808
v 3271.819092 -3685.733398 -2007.776489
v 3270.610840 -3700.136475 -2008.576660
v 3267.682129 -3850.664307 -2027.145508
v 3254.864258 -4003.450195 -2053.302490
v 3213.842041 -4178.176758 -2090.802490
v 3210.260010 -4190.785645 -2093.337646
v 1598.424072 -5583.979492 -1986.054321
v 1782.356079 -5547.616211 -2037.925415
v 1569.308105 -5555.877930 -2012.281372
v 1287.214111 -5595.383301 -1939.475464
v 962.906555 -5602.018066 -1857.978394
v 3293.088135 -3569.383545 -2000.499634
v 3281.708008 -3548.342529 -2015.999634
v 2521.901855 -5125.625488 -2194.599365
v 2504.951172 -5132.989746 -2175.435303
v 2385.449219 -5211.604492 -2169.606445
v 2380.678223 -5214.042969 -2168.401367
v 1962.837036 -5475.686523 -2081.442139
v 1947.722046 -5483.656738 -2077.297363
v 1937.177124 -5492.832520 -2077.168457
vn 0.1087 0.0114 -0.9940
vn 0.0737 0.0825 -0.9939
vn 0.0682 0.0865 -0.9939
vn 0.1111 0.0098 -0.9938
vn 0.1034 -0.0124 -0.9946
vn 0.1049 -0.0111 -0.9944
vn 0.1324 0.0353 -0.9906
vn 0.1337 0.0370 -0.9903
vn 0.1644 0.0679 -0.9840
vn 0.1635 0.0685 -0.9842
vn 0.1289 0.0429 -0.9907
vn 0.1268 0.0387 -0.9912
vn 0.1198 0.0130 -0.9927
vn 0.1223 0.0131 -0.9924
vn 0.1765 -0.0058 -0.9843
vn 0.1814 -0.0081 -0.9834
vn 0.2423 -0.0441 -0.9692
vn 0.2432 -0.0440 -0.9690
vn 0.1793 -0.0813 -0.9804
vn 0.1755 -0.0779 -0.9814
vn 0.0727 -0.1237 -0.9897
vn 0.0667 -0.1212 -0.9904
vn 0.0558 -0.2238 -0.9730
vn -0.1087 0.2263 -0.9680
vn -0.1071 0.2303 -0.9672
vn -0.1094 0.2434 -0.9637
vn -0.1384 0.1408 -0.9803
vn -0.1416 0.1319 -0.9811
vn -0.1595 0.0797 -0.9840
vn -0.1589 0.0795 -0.9841
vn -0.1530 0.0504 -0.9869
vn -0.1521 0.0494 -0.9871
vn -0.1401 0.0198 -0.9899
vn -0.1396 0.0198 -0.9900
vn -0.1452 0.0264 -0.9890
vn -0.1438 0.0259 -0.9893
vn -0.0931 0.0001 -0.9957
vn -0.0917 -0.0013 -0.9958
vn -0.0991 0.0277 -0.9947
vn -0.1437 -0.2250 -0.9637
vn -0.1471 -0.2557 -0.9555
vn -0.1456 -0.2576 -0.9552
vn -0.1440 -0.2235 -0.9640
vn -0.1192 -0.1996 -0.9726
vn -0.1179 -0.1997 -0.9727
vn -0.0710 -0.2242 -0.9720
vn -0.0720 -0.2253 -0.9716
vn -0.0468 -0.2107 -0.9764
vn -0.1023 0.2162 -0.9710
vn -0.0336 0.1740 -0.9842
vn -0.0347 0.1750 -0.9840
vn -0.1061 0.2178 -0.9702
vn -0.1129 0.2411 -0.9639
vn -0.0971 0.2879 -0.9527
vn -0.0293 0.1791 -0.9834
vn -0.0303 0.1737 -0.9843
vn -0.0952 0.2908 -0.9520
vn -0.1605 0.3028 -0.9394
vn -0.1605 0.3045 -0.9389
vn -0.2018 0.2483 -0.9474
vn 0.0549 -0.2269 -0.9724
vn -0.0247 -0.2537 -0.9670
vn -0.0270 -0.2538 -0.9669
vn -0.1091 -0.2876 -0.9515
vn -0.1322 0.9912 -0.0001
vn -0.1226 0.9924 0.0091
vn -0.1216 0.9925 0.0092
vn -0.1374 0.9905 -0.0020
vn -0.2117 0.9767 -0.0355
vn -0.2236 0.9739 -0.0394
vn -0.1877 0.1264 -0.9741
vn -0.2017 0.2503 -0.9469
vn -0.1872 0.1263 -0.9742
vn -0.1277 0.0453 -0.9908
vn -0.0463 -0.2087 -0.9769
vn -0.0340 -0.1722 -0.9845
vn -0.0333 -0.1696 -0.9850
vn -0.1080 -0.2867 -0.9519
vn 0.0004 0.2137 -0.9769
vn 0.0017 0.2182 -0.9759
vn 0.0187 0.2434 -0.9697
vn 0.0195 0.2451 -0.9693
vn 0.0740 0.0675 -0.9950
vn 0.0817 0.0591 -0.9949
vn -0.1028 0.0272 -0.9943
vn -0.1259 0.0432 -0.9911
vn 0.0289 0.2352 -0.9715
vn 0.0288 0.2346 -0.9717
vn 0.0083 0.9999 0.0133
vn 0.0700 0.9975 0.0021
vn -0.0009 0.9999 0.0145
vn 0.0783 0.9969 -0.0001
vn 0.1159 0.9931 -0.0184
vn 0.1252 0.9919 -0.0221
vn -0.1246 0.1722 -0.9771
vn -0.1810 0.1410 -0.9733
vn -0.0834 0.1466 -0.9857
vn -0.1934 0.1692 -0.9664
vn -0.1366 0.2272 -0.9642
vn -0.1892 0.2602 -0.9469
vn -0.1266 0.2722 -0.9539
vn -0.1224 0.2761 -0.9533
vn -0.1662 0.2877 -0.9432
vn -0.2450 0.3091 -0.9189
vn -0.0000 -0.0000 -1.0000
vn 0.5373 0.0510 -0.8419
vn 0.0171 0.0494 -0.9986
vn 0.6196 0.0010 -0.7849
vn 0.0150 0.0963 -0.9952
vn 0.6592 0.0829 -0.7474
vn 0.0172 0.1513 -0.9883
vn 0.6679 0.0297 -0.7437
vn 0.0307 0.1817 -0.9829
vn 0.5585 -0.0104 -0.8294
vn 0.0281 0.1832 -0.9827
vn 0.6034 -0.1185 -0.7886
vn 0.0506 0.1441 -0.9883
vn 0.6345 -0.2352 -0.7363
vn 0.0576 0.0925 -0.9940
vn 0.6363 -0.2817 -0.7182
vn 0.0782 0.0572 -0.9953
vn 0.0172 -0.0143 -0.9997
vn -0.1943 -0.0499 -0.9797
vn 0.2183 -0.6315 -0.7440
vn -0.2203 -0.0501 -0.9741
vn 0.2468 -0.5797 -0.7765
vn -0.1292 -0.0444 -0.9906
vn 0.2985 -0.5547 -0.7767
vn -0.0458 -0.0521 -0.9976
vn 0.3052 -0.5149 -0.8011
vn -0.0149 -0.0398 -0.9991
vn 0.0031 -0.0268 -0.9996
vn -0.0187 -0.8345 -0.5506
vn -0.0975 -0.8753 -0.4737
vn -0.0975 -0.8755 -0.4733
vn -0.2135 -0.3874 -0.8969
vn -0.1752 -0.4861 -0.8562
vn 0.0782 -0.8890 -0.4512
vn -0.1398 -0.4815 -0.8652
vn 0.0209 -0.9074 -0.4197
vn 0.0206 -0.9072 -0.4203
vn 0.1564 -0.9148 -0.3724
vn -0.0112 -0.6423 -0.7664
vn -0.2305 -0.0412 -0.9722
vn 0.0515 -0.5348 -0.8434
vn 0.5109 -0.8559 -0.0805
vn 0.5217 -0.8490 -0.0838
vn 0.3477 -0.9315 -0.1072
vn 0.0161 -0.0083 -0.9998
vn 0.8834 -0.4548 -0.1133
vn 0.8730 -0.4746 -0.1122
vn 0.8850 -0.4532 -0.1065
vn 0.8986 -0.4258 -0.1053
vn 0.7462 -0.6194 -0.2439
vn 0.9706 -0.0494 -0.2356
vn 0.9721 -0.0490 -0.2292
vn 0.9700 -0.0684 -0.2334
vn 0.9832 -0.0288 -0.1803
vn 0.9853 0.0019 -0.1706
vn 0.9750 -0.1103 -0.1930
vn 0.9631 -0.1839 -0.1966
vn 0.9557 -0.2361 -0.1760
vn 0.2725 -0.8814 -0.3859
vn 0.1839 -0.9502 -0.2515
vn 0.1214 -0.9621 -0.2440
vn -0.2388 -0.0495 -0.9698
vn -0.2437 -0.0272 -0.9695
vn -0.2410 0.0133 -0.9704
vn 0.4378 -0.8490 -0.2959
vn 0.6740 -0.1657 -0.7199
vn 0.0201 -0.0010 -0.9998
vn 0.0036 -0.0272 -0.9996
vn 0.1262 -0.9582 -0.2566
vn 0.5374 -0.8284 -0.1579
vn 0.5374 -0.8286 -0.1569
vn 0.4178 -0.8951 -0.1559
vn 0.5290 -0.8390 -0.1273
vn 0.5293 -0.8390 -0.1261
vn 0.5007 -0.8624 -0.0745
vn 0.4571 -0.8884 -0.0417
vn 0.6560 -0.7543 -0.0258
vn 0.2639 -0.9297 -0.2569
vn 0.9295 -0.3058 -0.2064
vn 0.9297 -0.3060 -0.2049
vt 0.069946 1.000000
vt 0.013184 0.000000
vt 0.013184 0.849976
vt 0.062439 0.000000
vt 0.098877 1.000000
vt 0.091553 0.000000
vt 0.142273 1.000000
vt 0.135193 0.000000
vt 0.215759 1.000000
vt 0.211731 0.000000
vt 0.280335 1.000000
vt 0.279785 0.000000
vt 0.355896 1.000000
vt 0.355835 0.000000
vt 0.417297 1.000000
vt 0.419434 0.000000
vt 0.479309 1.000000
vt 0.481873 0.000000
vt 0.539429 1.000000
vt 0.545960 0.000000
vt 0.666626 1.000000
vt 0.667358 0.000000
vt 0.760132 0.000000
vt 0.007080 0.000000
vt 0.012573 0.849976
vt -0.038757 0.000000
vt 0.044006 1.000000
vt 0.037292 0.000000
vt 0.067932 1.000000
vt 0.059937 0.000000
vt 0.093262 1.000000
vt 0.087280 0.000000
vt 0.124451 1.000000
vt 0.117493 0.000000
vt 0.154297 1.000000
vt 0.146667 0.000000
vt 0.175049 1.000000
vt 0.167725 0.000000
vt 0.216614 0.000000
vt 0.359375 1.000000
vt 0.137207 0.000000
vt 0.137207 1.000000
vt 0.359924 0.000000
vt 0.494324 1.000000
vt 0.494934 0.000000
vt 0.671936 1.000000
vt 0.672852 0.000000
vt 0.746338 0.000000
vt -0.065796 0.000000
vt -0.090332 1.000000
vt -0.092773 0.000000
vt -0.062805 1.000000
vt -0.035278 1.000000
vt 0.647522 1.000000
vt 0.699707 0.000000
vt 0.701721 1.000000
vt 0.647339 0.000000
vt 0.585327 1.000000
vt 0.584045 0.000000
vt 0.498474 0.000000
vt 0.760010 1.000000
vt 0.802490 0.000000
vt 0.801758 1.000000
vt 0.845337 1.000000
vt 0.564148 1.000000
vt 0.365418 0.000000
vt 0.368652 1.000000
vt 0.566040 0.000000
vt 0.659424 1.000000
vt 0.666382 0.000000
vt 0.386780 1.000000
vt 0.500000 1.000000
vt 0.385986 0.000000
vt 0.302063 0.000000
vt 0.746643 1.000000
vt 0.816162 0.000000
vt 0.816162 1.000000
vt 0.845459 0.000000
vt 0.897339 1.000000
vt 0.896973 0.000000
vt 0.732788 1.000000
vt 0.731628 0.000000
vt 0.758728 1.000000
vt 0.758301 0.000000
vt -0.155090 0.000000
vt -0.152283 1.000000
vt 0.221863 1.000000
vt 0.304199 1.000000
vt 0.871887 1.000000
vt 0.873779 0.000000
vt 0.365051 0.000000
vt 0.565613 1.000000
vt 0.364868 1.000000
vt 0.565796 0.000000
vt 0.666016 1.000000
vt 0.666138 0.000000
vt 0.303589 1.000000
vt 0.331787 0.599976
vt 0.098206 1.000000
vt 0.745239 0.599976
vt 0.520264 1.000000
vt 1.091553 0.799988
vt 0.764221 1.000000
vt 1.032898 1.000000
vt 1.303528 1.000000
vt 1.449341 1.000000
vt -0.233398 0.799988
vt 0.269348 1.000000
vt -0.233398 1.000000
vt 0.269348 0.799988
vt 1.274963 0.799988
vt 1.274963 1.000000
vt 1.179932 0.000000
vt 1.233459 1.000000
vt 1.234680 0.000000
vt 1.178711 1.000000
vt 1.105957 0.000000
vt 1.105164 1.000000
vt 1.029724 0.000000
vt 1.029907 1.000000
vt 0.942261 0.000000
vt 0.943481 1.000000
vt 0.836731 0.000000
vt 0.838989 1.000000
vt 0.746826 0.000000
vt 0.750244 1.000000
vt 0.654358 0.000000
vt 0.660950 1.000000
vt 0.651184 1.000000
vt 0.279419 1.000000
vt 0.280579 0.000000
vt 0.198120 1.000000
vt 0.342407 0.000000
vt 0.341065 1.000000
vt 0.416565 0.000000
vt 0.415100 1.000000
vt 0.479187 0.000000
vt 0.476685 1.000000
vt 0.487793 1.000000
vt -0.225525 0.000000
vt -0.215820 1.000000
vt -0.226807 1.000000
vt -0.095093 1.000000
vt -0.090759 0.000000
vt -0.085449 1.000000
vt 0.030701 0.000000
vt 0.023804 1.000000
vt 0.031677 1.000000
vt 0.120911 0.000000
vt 0.121826 1.000000
vt 0.198669 0.000000
vt 0.282288 1.000000
vt 0.341370 1.000000
vt 0.343323 1.000000
vt 0.645569 1.000000
vt 0.654358 1.000000
vt 0.744080 1.000000
vt 0.832581 1.000000
vt 0.835327 1.000000
vt 1.180969 1.000000
vt 1.232788 1.000000
vt 1.174072 1.000000
vt 1.102356 1.000000
vt 1.029358 1.000000
vt 0.945252 1.000000
vt 0.939209 1.000000
vt 0.040771 1.000000
vt 0.121155 1.000000
vt 0.033081 1.000000
vt -0.087708 1.000000
vt -0.220764 1.000000
vt 1.236938 1.000000
vt 1.246582 1.000000
vt 0.485229 1.000000
vt 0.477234 1.000000
vt 0.416809 1.000000
vt 0.414490 1.000000
vt 0.205383 1.000000
vt 0.197998 1.000000
vt 0.192383 1.000000
s 1
usemtl mt_gake_blend.005
f 3/1/1 2/2/2 1/3/3
f 4/4/4 2/2/2 3/1/1
f 5/5/5 4/4/4 3/1/1
f 6/6/6 4/4/4 5/5/5
f 7/7/7 6/6/6 5/5/5
f 8/8/8 6/6/6 7/7/7
f 9/9/9 8/8/8 7/7/7
f 10/10/10 8/8/8 9/9/9
f 11/11/11 10/10/10 9/9/9
f 12/12/12 10/10/10 11/11/11
f 13/13/13 12/12/12 11/11/11
f 14/14/14 12/12/12 13/13/13
f 15/15/15 14/14/14 13/13/13
f 16/16/16 14/14/14 15/15/15
f 17/17/17 16/16/16 15/15/15
f 18/18/18 16/16/16 17/17/17
f 19/19/19 18/18/18 17/17/17
f 20/20/20 18/18/18 19/19/19
f 21/21/21 20/20/20 19/19/19
f 22/22/22 20/20/20 21/21/21
f 23/23/23 22/22/22 21/21/21
f 26/24/24 25/25/25 24/26/26
f 27/27/27 25/25/25 26/24/24
f 28/28/28 27/27/27 26/24/24
f 29/29/29 27/27/27 28/28/28
f 30/30/30 29/29/29 28/28/28
f 31/31/31 29/29/29 30/30/30
f 32/32/32 31/31/31 30/30/30
f 33/33/33 31/31/31 32/32/32
f 34/34/34 33/33/33 32/32/32
f 35/35/35 33/33/33 34/34/34
f 36/36/36 35/35/35 34/34/34
f 37/37/37 35/35/35 36/36/36
f 38/38/38 37/37/37 36/36/36
f 39/39/39 37/37/37 38/38/38
f 42/40/40 41/41/41 40/42/42
f 43/43/43 41/41/41 42/40/40
f 44/44/44 43/43/43 42/40/40
f 45/45/45 43/43/43 44/44/44
f 46/46/46 45/45/45 44/44/44
f 47/47/47 45/45/45 46/46/46
f 48/48/48 47/47/47 46/46/46
f 51/49/49 50/50/50 49/51/51
f 52/52/52 50/50/50 51/49/49
f 24/26/26 52/52/52 51/49/49
f 53/53/53 52/52/52 24/26/26
f 25/25/25 53/53/53 24/26/26
f 56/54/54 55/55/55 54/56/56
f 57/57/57 55/55/55 56/54/54
f 58/58/58 57/57/57 56/54/54
f 59/59/59 57/57/57 58/58/58
f 60/60/60 59/59/59 58/58/58
f 61/61/61 23/23/23 21/21/21
f 62/62/62 23/23/23 61/61/61
f 63/63/63 62/62/62 61/61/61
f 64/64/64 62/62/62 63/63/63
f 67/65/65 66/66/66 65/67/67
f 68/68/68 66/66/66 67/65/65
f 69/69/69 68/68/68 67/65/65
f 70/70/70 68/68/68 69/69/69
f 72/71/71 60/60/60 71/72/72
f 73/73/73 60/60/60 72/71/71
f 74/74/74 73/73/73 72/71/71
f 75/75/75 48/48/48 46/46/46
f 76/76/76 48/48/48 75/75/75
f 77/77/77 76/76/76 75/75/75
f 78/78/78 40/79/42 41/80/41
f 64/64/64 40/79/42 78/78/78
f 62/62/62 64/64/64 78/78/78
f 80/81/79 55/55/55 79/82/80
f 54/56/56 55/55/55 80/81/79
f 82/83/81 79/82/80 81/84/82
f 80/81/79 79/82/80 82/83/81
f 84/85/83 50/50/50 83/86/84
f 49/51/51 50/50/50 84/85/83
f 39/39/39 85/87/85 37/37/37
f 74/74/74 85/87/85 39/39/39
f 74/74/74 86/88/86 85/87/85
f 72/71/71 86/88/86 74/74/74
f 88/89/87 81/84/82 87/90/88
f 82/83/81 81/84/82 88/89/87
f 91/91/89 90/92/90 89/93/91
f 92/94/92 90/92/90 91/91/89
f 92/94/92 93/95/93 90/92/90
f 94/96/94 93/95/93 92/94/92
f 60/60/60 58/58/58 71/72/72
f 97/97/95 96/98/96 95/99/97
f 98/100/98 96/98/96 97/97/95
f 99/101/99 98/100/98 97/97/95
f 100/102/100 98/100/98 99/101/99
f 101/103/101 100/102/100 99/101/99
f 102/104/102 100/102/100 101/103/101
f 100/102/100 104/105/103 103/106/104
f 102/104/102 104/105/103 100/102/100
s 0
f 107/107/105 106/108/105 105/109/105
f 108/110/105 106/108/105 107/107/105
f 109/110/105 108/110/105 107/107/105
f 110/111/105 108/110/105 109/110/105
f 111/112/105 110/111/105 109/110/105
f 109/110/105 112/108/105 111/112/105
f 113/109/105 112/108/105 109/110/105
f 114/107/105 113/109/105 109/110/105
f 115/111/105 108/110/105 110/111/105
f 116/112/105 108/110/105 115/111/105
f 116/112/105 106/108/105 108/110/105
f 114/107/105 109/110/105 107/107/105
s 1
f 119/113/106 118/114/107 117/115/108
f 120/116/109 118/114/107 119/113/106
f 121/117/110 120/116/109 119/113/106
f 122/118/111 120/116/109 121/117/110
f 123/119/112 122/118/111 121/117/110
f 124/120/113 122/118/111 123/119/112
f 125/121/114 124/120/113 123/119/112
f 126/122/115 124/120/113 125/121/114
f 127/123/116 126/122/115 125/121/114
f 128/124/117 126/122/115 127/123/116
f 129/125/118 128/124/117 127/123/116
f 130/126/119 128/124/117 129/125/118
f 131/127/120 130/126/119 129/125/118
f 132/128/121 130/126/119 131/127/120
s 0
f 133/129/122 132/128/122 131/127/122
s 1
f 136/130/123 135/131/124 134/132/125
f 137/133/126 135/131/124 136/130/123
f 138/134/127 137/133/126 136/130/123
f 139/135/128 137/133/126 138/134/127
f 140/136/129 139/135/128 138/134/127
f 141/137/130 139/135/128 140/136/129
f 142/138/131 141/137/130 140/136/129
s 0
f 143/139/132 141/137/132 142/138/132
f 146/140/133 145/141/133 144/142/133
s 1
f 147/143/134 145/141/135 146/140/136
f 148/144/137 147/143/134 146/140/136
s 0
f 149/145/138 147/143/138 148/144/138
s 1
f 150/146/139 149/145/140 148/144/137
f 151/147/141 149/145/140 150/146/139
s 0
f 152/148/142 151/147/142 150/146/142
s 1
f 134/132/125 154/149/143 153/150/144
f 155/151/145 154/149/143 134/132/125
f 135/131/124 155/151/145 134/132/125
f 156/152/146 155/151/145 135/131/124
f 137/133/126 156/152/146 135/131/124
f 157/153/147 156/152/146 137/133/126
s 0
f 158/154/148 157/153/148 137/133/148
f 131/127/149 159/155/149 133/129/149
f 160/156/150 159/155/150 131/127/150
s 1
f 129/125/118 160/156/151 131/127/120
f 161/157/152 160/156/151 129/125/118
f 127/123/116 161/157/152 129/125/118
f 162/158/153 161/157/152 127/123/116
s 0
f 163/159/154 162/158/154 127/123/154
s 1
f 165/160/155 117/115/108 164/161/156
f 119/113/106 117/115/108 165/160/155
s 0
f 166/162/157 119/113/157 165/160/157
s 1
f 167/163/158 119/113/106 166/162/159
f 168/164/160 123/119/112 121/117/110
f 125/121/114 123/119/112 168/164/160
f 169/165/161 125/121/114 168/164/160
s 0
f 170/166/162 125/121/162 169/165/162
f 150/146/163 171/167/163 152/148/163
s 1
f 172/168/164 171/167/165 150/146/139
f 154/149/143 172/168/164 150/146/139
f 150/146/139 153/150/144 154/149/143
f 173/169/166 153/150/144 150/146/139
f 174/170/167 173/169/166 150/146/139
f 148/144/137 174/170/167 150/146/139
f 175/171/168 174/170/167 148/144/137
f 146/140/136 175/171/168 148/144/137
s 0
f 117/115/169 176/172/169 164/161/169
f 177/173/170 176/172/170 117/115/170
f 118/114/171 177/173/171 117/115/171
f 178/174/172 141/137/172 143/139/172
f 179/175/173 141/137/173 178/174/173
s 1
f 179/175/174 139/135/128 141/137/130
f 180/176/175 139/135/128 179/175/174
s 0
f 181/177/176 139/135/176 180/176/176
s 1
f 158/154/177 139/135/128 181/177/178
f 182/178/179 155/151/145 156/152/146
s 0
f 183/179/180 155/151/180 182/178/180
f 184/180/181 155/151/181 183/179/181
s 1
f 172/168/164 155/151/145 184/180/182
f 167/163/158 121/117/110 119/113/106
f 168/164/160 121/117/110 167/163/158
f 163/159/183 125/121/114 170/166/184
f 127/123/116 125/121/114 163/159/183
f 158/154/177 137/133/126 139/135/128
f 154/149/143 155/151/145 172/168/164
