# Blender 4.1.1
# www.blender.org
mtllib polygon175.mtl
o polygon175
v -1134.729980 3094.327148 8.004437
v -1134.729980 3094.327148 -3.557780
v -1044.332031 3094.327148 8.004434
v -1044.332031 3094.327148 -3.557780
v -1018.398010 2790.153076 7.909131
v -1018.398010 2790.153076 -3.653086
v -927.999817 2790.153076 7.909127
v -927.999817 2790.153076 -3.653086
v -1134.729980 3068.302002 8.004440
v -1134.729980 3068.302002 -3.557777
v -1044.332031 3068.302002 8.004436
v -1044.332031 3068.302002 -3.557777
v -1018.398010 2764.128906 7.909134
v -1018.398010 2764.128906 -3.653084
v -927.999817 2764.128906 7.909130
v -927.999817 2764.128906 -3.653084
v -1018.398010 2788.612061 -42.245922
v -1018.398010 2788.612061 -31.657911
v -1008.177002 2788.612061 -42.199749
v -1008.057007 2788.612061 -31.584291
v -927.999817 2788.612061 -15.700744
v -927.999817 2788.612061 -5.480682
v -928.000061 2766.153076 -5.480680
v -928.000061 2766.153076 -15.700740
v -1005.736023 2766.153076 -30.827339
v -1005.736023 2766.153076 -41.392914
v -1134.729980 3092.786133 -42.245960
v -1134.729980 3092.786133 -31.657948
v -1124.509033 3092.786133 -42.199787
v -1124.389038 3092.786133 -31.584328
v -1044.332031 3092.786133 -15.700779
v -1044.332031 3092.786133 -5.480719
v -1044.332031 3070.184082 -5.480715
v -1044.332031 3070.184082 -15.700777
v -1122.173096 3070.184082 -30.861465
v -1122.173096 3070.184082 -41.427540
v -1111.410034 3033.701172 -44.900028
v -1084.807007 2964.032959 -32.475784
v -1084.807007 2964.032959 -44.907673
v -1058.203003 2894.365234 -32.483421
v -1058.203003 2894.365234 -44.915321
v -1031.599976 2824.696777 -32.491051
v -1031.599976 2824.696777 -44.922951
v -1018.298035 2789.863037 -44.926781
v -1124.712036 3068.534912 -44.896202
v -1124.712036 3068.534912 -32.464336
v -1111.410034 3033.701172 -32.468151
v -1588.663086 3522.954834 -72.000694
v -1588.663086 3522.954834 -84.432579
v -1605.797119 3522.954834 -72.000694
v -1605.797119 3522.954834 -84.432587
v -790.702393 3383.209229 -32.550404
v -790.701294 3383.209229 -44.976730
v -764.490784 3383.209229 -32.550404
v -764.489990 3383.209229 -44.976719
v -923.492615 3383.209229 -32.550404
v -923.490479 3383.209229 -44.976765
v -850.548035 3383.209229 -32.550404
v -850.546387 3383.209229 -44.976738
v -1155.612061 3383.208008 -32.550404
v -1155.608032 3383.208008 -44.976833
v -1091.373047 3383.208008 -32.550404
v -1091.369995 3383.208008 -44.976814
v -671.999756 3446.252930 -32.550411
v -671.999756 3446.252930 -45.007149
v -671.999756 3460.923096 -32.550411
v -671.999756 3460.923096 -45.014240
v -671.999512 3383.209961 -32.550404
v -671.999512 3383.209961 -44.976692
v -671.999573 3393.944824 -32.550404
v -671.999573 3393.944824 -44.981884
v -708.997803 3383.209961 -44.976700
v -708.998108 3383.209961 -32.550404
v -1458.068970 3522.954834 -72.000648
v -1458.068970 3522.954834 -84.432533
v -1477.072021 3522.954834 -72.000656
v -1477.072021 3522.954834 -84.432541
v -672.000000 3522.958008 -32.550415
v -672.000000 3522.958008 -45.044209
v -676.340515 3522.958008 -32.550415
v -676.340515 3522.958008 -45.044228
v -891.024963 2445.993164 -84.432236
v -957.835205 2627.149902 -84.432259
v -891.024963 2445.993164 -72.000351
v -957.835205 2627.149902 -72.000374
v -1004.995972 2755.029053 -44.930595
v -1004.995972 2755.029053 -32.498692
v -1138.014038 3103.368896 -44.892395
v -1308.496094 3286.118896 -44.945606
v -1138.014038 3103.368896 -32.460506
v -1308.496094 3286.118896 -32.513714
v -1402.221069 3383.207031 -84.432503
v -1402.221069 3383.207031 -72.000603
v -1267.448975 3383.208008 -44.976868
v -1267.448975 3383.208008 -32.550404
v -1661.482910 3522.954834 -84.432602
v -1677.347046 3522.954834 -84.432610
v -1661.482910 3522.954834 -72.000717
v -1677.347046 3522.954834 -72.000725
v -672.000000 3513.378906 -45.039589
v -672.000000 3513.378906 -32.550419
v -1402.222046 3522.954834 -84.432518
v -1402.222046 3522.954834 -72.000626
v -1267.449951 3522.955811 -45.044426
v -1267.449951 3522.955811 -32.550415
v -1018.298035 2789.863037 -32.494881
v -895.960510 3855.802002 -92.467453
v -895.960510 3855.802002 -82.067459
v -952.260376 3907.324219 -92.467484
v -952.260376 3907.324219 -82.067482
v -1017.367004 3933.416992 -82.067482
v -1017.367004 3933.416992 -92.467484
v -1060.416016 3940.104248 -82.067482
v -1060.416016 3940.104248 -92.467484
v -1416.201050 3773.714844 -92.467506
v -1661.924927 3773.512939 -92.467484
v -1416.201050 3773.714844 -82.067497
v -1661.924927 3773.512939 -82.067497
v -1018.151062 3781.612061 -82.067459
v -954.351990 3805.552979 -82.067459
v -1018.151062 3781.612061 -92.467453
v -954.351990 3805.552979 -92.467461
v -1416.201050 3942.862061 -82.067520
v -1662.448120 3942.659912 -82.067520
v -1416.201050 3942.862061 -92.467514
v -1662.448120 3942.659912 -92.467514
v -1703.336060 3933.262939 -82.067520
v -1703.336060 3933.262939 -92.467514
v -1717.614014 3926.137939 -82.067513
v -1717.614014 3926.137939 -92.467499
v -1726.578979 3913.475830 -82.067513
v -1726.578979 3913.475830 -92.467499
v -1739.751953 3859.134277 -82.067497
v -1739.751953 3859.134277 -92.467491
v -1726.115112 3806.524902 -82.067497
v -1726.115112 3806.524902 -92.467491
v -1717.279785 3793.557129 -82.067505
v -1717.279785 3793.557129 -92.467499
v -1703.213135 3785.691162 -82.067497
v -1703.213135 3785.691162 -92.467484
v -1024.905029 3517.588135 -46.986370
v -1024.905029 3569.087158 -57.057594
v -1024.905029 3519.917969 -35.420658
v -1024.905029 3571.416992 -45.491905
v -1024.905029 3620.585205 -67.128853
v -1024.905029 3672.083008 -77.200096
v -1024.905029 3622.915283 -55.563156
v -1024.905029 3674.413086 -65.634399
v -1057.262085 3517.588135 -46.986370
v -1057.262085 3519.917969 -35.420658
v -1057.262085 3775.079590 -97.342560
v -1057.262085 3777.408936 -85.776932
v -1024.905029 3723.582031 -87.271324
v -1024.905029 3775.079590 -97.342560
v -1024.905029 3725.911133 -75.705650
v -1024.905029 3777.408936 -85.776932
vn -0.0000 1.0000 -0.0000
vn -0.0000 -1.0000 -0.0000
vn -0.9342 -0.3567 -0.0000
vn -1.0000 -0.0000 -0.0000
vn -0.9382 -0.3460 -0.0000
vn -0.7312 -0.6821 -0.0000
vn 0.9342 0.3567 -0.0000
vn 0.9382 0.3460 -0.0000
vn 0.7312 0.6821 -0.0000
vn 0.7195 0.6945 -0.0000
vn 1.0000 -0.0000 -0.0000
vn 0.5322 0.8466 -0.0000
vn 0.6751 0.7377 -0.0000
vn 0.5328 0.8462 -0.0000
vn 0.3720 0.9282 -0.0000
vn 0.6523 -0.7580 -0.0000
vn -0.0008 1.0000 -0.0000
vn -0.4465 0.8948 -0.0000
vn -0.9719 0.2356 -0.0000
vn -1.0000 -0.0079 -0.0000
vn -0.9107 -0.4131 -0.0000
vn -0.8264 -0.5631 -0.0000
vn -0.2829 -0.9591 -0.0000
vn 0.1425 0.9898 -0.0000
vn 0.1308 0.9914 -0.0000
vn 0.2829 0.9592 -0.0000
vn 0.4881 0.8728 -0.0000
vn 0.4880 0.8728 -0.0000
vn 0.8162 -0.5778 -0.0000
vn 0.1131 -0.9936 -0.0000
vn 0.2240 -0.9746 -0.0000
vn 0.1146 -0.9934 -0.0000
vn 0.0008 -1.0000 -0.0000
vn -0.6523 0.7580 -0.0000
vn -0.9999 0.0158 -0.0000
vn -0.9999 0.0153 -0.0000
vn -0.3513 0.9363 -0.0000
vn -0.3513 0.9362 -0.0000
vn -0.2645 -0.9644 -0.0000
vn -0.3720 -0.9282 -0.0000
vn -0.2590 -0.9659 -0.0000
vn -0.1535 -0.9881 -0.0000
vn -0.6751 -0.7377 -0.0000
vt 1.541016 0.128906
vt -1.542969 0.250000
vt -1.542969 0.128906
vt 1.541016 0.250000
vt 1.548828 0.128906
vt -1.552734 0.250000
vt -1.552734 0.128906
vt 1.548828 0.250000
vt -0.300781 0.250000
vt 2.296875 0.250000
vt -0.300781 0.128906
vt -1.191406 0.128906
vt -1.195313 0.250000
vt 2.296875 0.128906
vt 2.294922 0.250000
vt -0.306641 0.128906
vt 2.294922 0.128906
vt -0.306641 0.250000
vt 40.691410 0.128906
vt 38.509769 0.128906
vt 38.509769 0.250000
vt 40.691410 0.250000
vt 42.957027 0.128906
vt 42.957027 0.250000
vt 36.287109 0.128906
vt 36.287109 0.250000
vt 1.816406 0.128906
vt 2.646484 0.250000
vt 2.646484 0.128906
vt 1.816406 0.250000
vt 4.365234 0.128906
vt 6.566406 0.250000
vt 6.566406 0.128906
vt 4.365234 0.250000
vt 12.314449 0.128906
vt 14.177730 0.250000
vt 14.179689 0.128906
vt 12.314449 0.250000
vt -3.609375 0.128906
vt -3.113281 0.250000
vt -3.113281 0.128906
vt -3.609375 0.250000
vt -1.412109 0.128906
vt -1.130859 0.250000
vt -1.130859 0.128906
vt -1.412109 0.250000
vt -0.027344 0.128906
vt -0.027344 0.250000
vt -5.775391 0.128906
vt -5.632813 0.250000
vt -5.632813 0.128906
vt -5.775391 0.250000
vt 49.300777 0.128906
vt 45.207027 0.250000
vt 49.300777 0.250000
vt 34.294918 0.128906
vt 26.341799 0.250000
vt 34.294918 0.250000
vt -38.783199 0.128906
vt -38.783199 0.250000
vt -38.308590 0.128906
vt -5.308594 0.128906
vt -5.308594 0.250000
vt -25.826170 0.250000
vt -30.152340 0.128906
vt -30.152340 0.250000
vt 44.046879 0.250000
vt 54.783199 0.128906
vt 54.783199 0.250000
vt 45.207027 0.128906
vt -36.130859 0.250000
vt -36.642578 0.128906
vt -36.130859 0.128906
vt -36.642578 0.250000
vt -31.826170 0.250000
vt -32.421879 0.128906
vt -31.826170 0.128906
vt -32.421879 0.250000
vt 35.197269 0.128906
vt 35.197269 0.250000
vt 26.341799 0.128906
vt 22.054689 0.128906
vt 22.054689 0.250000
vt 17.771479 0.250000
vt 17.771479 0.128906
vt -38.308590 0.250000
vt -25.826170 0.128906
vt 44.046879 0.128906
vt -0.001953 0.009766
vt 1.525391 0.009766
vt -0.001953 0.062500
vt -1.310547 0.009766
vt 3.083984 0.062500
vt 3.083984 0.009766
vt 3.845703 0.062500
vt -1.068359 0.009766
vt 3.845703 0.009766
vt -1.855469 0.062500
vt -2.185547 0.009766
vt -1.855469 0.009766
vt -2.185547 0.062500
vt -2.458984 0.062500
vt -3.462891 0.009766
vt -2.458984 0.009766
vt -3.462891 0.062500
vt -4.439453 0.009766
vt -4.439453 0.062500
vt -4.720703 0.009766
vt -4.720703 0.062500
vt -5.062500 0.009766
vt -5.062500 0.062500
vt -5.906250 0.009766
vt -5.906250 0.062500
vt -10.800779 0.009766
vt -10.800779 0.062500
vt -1.068359 0.062500
vt 1.525391 0.062500
vt 4.308594 0.062500
vt 4.308594 0.009766
vt -1.310547 0.062500
vt -2.296875 0.009766
vt -2.296875 0.062500
vt 4.037109 0.128906
vt 2.623047 0.250000
vt 4.037109 0.250000
vt 2.623047 0.128906
vt 1.207031 0.128906
vt -0.207031 0.250000
vt 1.207031 0.250000
vt -0.207031 0.128906
vt -3.037109 0.250000
vt -3.037109 0.128906
vt -1.623047 0.128906
vt -1.623047 0.250000
s 0
usemtl mt_town_n_kanban.004
f 7/1/1 6/2/1 5/3/1
f 8/4/1 6/2/1 7/1/1
f 11/5/1 10/6/1 9/7/1
f 12/8/1 10/6/1 11/5/1
f 16/4/1 14/2/1 15/1/1
f 14/2/2 15/1/2 13/3/2
f 2/6/2 3/5/2 1/7/2
f 4/8/2 3/5/2 2/6/2
f 26/9/2 24/10/2 25/11/2
f 30/12/2 28/7/2 29/13/2
f 31/8/2 30/12/2 29/13/2
f 32/5/2 30/12/2 31/8/2
f 18/3/1 19/13/1 17/2/1
f 20/12/1 19/13/1 18/3/1
f 20/12/1 21/4/1 19/13/1
f 22/1/1 21/4/1 20/12/1
f 24/10/1 25/11/1 23/14/1
f 34/15/1 35/16/1 33/17/1
f 36/18/1 35/16/1 34/15/1
f 28/7/1 29/13/1 27/6/1
f 40/19/3 38/20/3 39/21/3
f 41/22/3 40/19/3 39/21/3
f 42/23/3 40/19/3 41/22/3
f 43/24/3 42/23/3 41/22/3
f 38/20/3 47/25/3 37/26/3
f 54/27/1 53/28/1 52/29/1
f 55/30/1 53/28/1 54/27/1
f 58/31/1 57/32/1 56/33/1
f 59/34/1 57/32/1 58/31/1
f 62/35/1 61/36/1 60/37/1
f 63/38/1 61/36/1 62/35/1
f 66/39/4 65/40/4 64/41/4
f 67/42/4 65/40/4 66/39/4
f 70/43/4 69/44/4 68/45/4
f 71/46/4 69/44/4 70/43/4
f 73/47/1 69/44/1 72/48/1
f 80/49/2 79/50/2 78/51/2
f 81/52/2 79/50/2 80/49/2
f 85/53/5 86/54/5 83/55/5
f 90/56/6 89/57/6 88/58/6
f 99/59/2 97/60/2 98/61/2
f 101/62/4 79/50/4 100/63/4
f 104/64/2 103/65/2 102/66/2
f 39/21/7 37/26/7 38/20/7
f 44/67/7 43/24/7 42/23/7
f 83/55/8 84/68/8 82/69/8
f 85/53/8 84/68/8 83/55/8
f 87/70/8 85/53/8 86/54/8
f 49/71/1 50/72/1 48/73/1
f 51/74/1 50/72/1 49/71/1
f 68/45/2 73/47/2 69/44/2
f 75/75/1 76/76/1 74/77/1
f 77/78/1 76/76/1 75/75/1
f 46/79/7 37/26/7 45/80/7
f 47/25/7 37/26/7 46/79/7
f 91/81/9 90/56/9 89/57/9
f 93/82/10 89/57/10 92/83/10
f 91/81/10 89/57/10 93/82/10
f 94/84/2 93/82/2 92/83/2
f 95/85/2 93/82/2 94/84/2
f 97/60/1 98/61/1 96/86/1
f 78/51/11 101/62/11 79/50/11
f 105/87/1 104/64/1 103/65/1
f 44/67/7 42/23/7 106/88/7
s 1
f 110/89/12 108/90/13 109/91/14
f 111/92/15 110/89/12 109/91/14
f 122/93/16 108/90/16 120/94/16
f 125/95/17 124/96/17 123/97/17
f 128/98/18 129/99/18 127/100/18
f 130/101/18 129/99/18 128/98/18
f 132/102/19 133/103/20 131/104/19
f 134/105/20 133/103/20 132/102/19
f 134/105/20 135/106/21 133/103/20
f 136/107/21 135/106/21 134/105/20
f 136/107/21 137/108/22 135/106/21
f 138/109/22 137/108/22 136/107/21
f 139/110/23 140/111/23 118/112/23
f 116/113/24 117/114/17 115/115/17
f 118/112/25 117/114/17 116/113/24
f 140/111/26 118/112/25 116/113/24
f 138/109/27 139/110/27 140/111/28
f 137/108/27 139/110/27 138/109/27
f 130/101/29 131/104/29 132/102/29
f 129/99/29 131/104/29 130/101/29
f 126/116/30 127/100/31 128/98/31
f 124/96/32 127/100/31 126/116/30
f 125/95/33 124/96/32 126/116/30
f 122/93/34 108/90/35 107/117/36
f 121/118/37 120/94/38 122/93/38
f 119/119/37 120/94/38 121/118/37
f 112/120/39 109/91/40 111/92/41
f 113/121/42 112/120/39 111/92/41
f 114/122/42 112/120/39 113/121/42
f 108/90/35 109/91/43 107/117/36
s 0
f 143/123/4 142/124/4 141/125/4
f 144/126/4 142/124/4 143/123/4
f 147/127/4 146/128/4 145/129/4
f 148/130/4 146/128/4 147/127/4
f 151/131/11 150/123/11 149/125/11
f 152/132/11 150/123/11 151/131/11
f 155/133/4 154/131/4 153/134/4
f 156/132/11 155/133/11 154/131/11
