# Blender 4.1.1
# www.blender.org
mtllib polygon769.mtl
o polygon769
v 5589.139160 -1419.602905 -106.788521
v 5573.795410 -1652.134033 -106.588493
v 5692.679199 -1672.801025 -61.184418
v 5650.056641 -2110.149902 -61.184364
v 5797.350098 -2117.006104 -21.184317
v 5661.732422 -2544.511230 -61.184311
v 5762.381348 -2556.487061 -21.184315
v 5664.433105 -2934.809082 -21.184269
v 5697.543457 -2945.709961 -17.434269
v 5578.462402 -3214.625244 -17.434237
v 5674.652344 -3255.268066 -6.184227
v 5459.379883 -3483.540039 -17.434204
v 5552.428223 -3532.124268 -6.184195
v 5369.166016 -3797.434082 -6.184164
v 5037.794434 -4105.184082 -6.184126
v 5185.904297 -4062.743896 -6.184132
v 5121.609863 -3994.741211 -17.434143
v 5290.495117 -3739.141113 -17.434174
v 5428.364258 -3467.345215 -21.184204
v 5546.398438 -3201.077148 -21.184237
v 5504.422363 -3185.604248 -41.184238
v 5580.479492 -2903.864258 -61.184269
v 5414.625977 -3141.844238 -83.886223
v 5504.119141 -2878.076172 -106.588257
v 5462.141602 -687.203796 -106.588608
v 5533.312500 -937.137878 -106.588585
v 5876.154785 -674.439026 -61.184540
v 5759.429688 -1084.366089 -61.184486
v 5980.967285 -1179.296021 -21.184477
v 5870.479980 -1710.936035 -21.184364
v 5913.169434 -1718.681030 -17.434385
v 5835.619141 -2122.916992 -17.434336
v 5950.424805 -2140.653076 -6.184361
v 5801.134766 -2562.169922 -17.434315
v 5917.398438 -2579.221191 -6.184309
v 5796.875977 -2978.412109 -6.184260
v 2549.532227 -5833.313965 -1218.999146
v 2540.237793 -5827.259277 -1218.999146
v 2407.721191 -5878.965820 -1218.999268
v 2402.104004 -5870.677734 -1218.999268
v 2305.901123 -5969.667480 -1218.999268
v 2088.693115 -5907.466309 -1218.999268
v 2172.713135 -5962.571289 -1218.999268
v 2169.486084 -5972.413574 -1218.999268
v 2308.454102 -5979.818359 -1218.999268
v 5325.132812 -3405.612061 -61.184212
v 5184.845215 -3661.354248 -61.184181
v 5264.270996 -3719.709229 -21.184175
v 5100.178711 -3972.072998 -21.184147
v 4989.574219 -4054.182129 -14.621636
v 4889.685059 -4147.624023 -6.184122
v 2566.732178 -5701.647461 -1218.999146
v 2556.626221 -5701.809570 -1218.999146
v 2034.769043 -5786.188965 -1218.999146
v 2007.511963 -5558.987305 -1218.999390
v 1984.981079 -5755.953125 -1218.999146
v 1957.728027 -5709.223145 -1218.999146
v 1978.198120 -5761.877441 -1218.999146
v 1946.294922 -5711.936035 -1218.999146
v 6452.092285 -605.715027 -6.184544
v 6285.170898 -534.965210 -17.434557
v 6315.480957 -884.402222 -6.184510
v 6140.965332 -820.367310 -17.434521
v 6190.417480 -1212.864990 -6.184472
v 6033.330078 -1187.688110 -17.434481
v 6041.239258 -1741.916016 -6.184409
v 1997.431030 -5557.618164 -1218.999390
v 2001.692139 -5442.735840 -1218.999390
v 2514.372070 -5443.126465 -1218.999390
v 2382.435059 -5263.256348 -1218.999390
v 2389.325195 -5255.416504 -1218.999390
v 5604.482910 -1187.072021 -106.788551
v 5601.415039 -1233.577881 -106.588554
v 5596.811035 -1303.337036 -106.588539
v 5592.591309 -1367.283081 -106.588539
v 6229.531250 -511.381897 -21.184559
v 6082.793457 -799.022278 -21.184525
v 4973.500000 -4037.181152 -17.434139
v 5044.556152 -3917.095215 -61.184155
v 4846.822266 -4102.288086 -13.684132
v 4819.011230 -4074.799072 -33.684132
v 4593.465332 -4232.503418 -6.184112
v 5142.516113 -300.019379 -106.588654
v 5394.579102 -124.722504 -86.386612
v 5999.136230 -372.583252 -61.184570
v 5571.929199 -2530.851074 -106.588394
v 5503.323242 -2084.456055 -106.588448
v 5568.897461 -1062.105103 -106.588562
v 5586.689941 -1124.588013 -106.588570
v 4857.538086 -4113.622070 -11.809130
v 2026.386963 -5791.949219 -1218.999146
v 2080.750000 -5914.216309 -1218.999268
v 1991.457153 -5438.273926 -1218.999390
v 2198.315186 -5251.649902 -1218.999390
v 2204.728027 -5260.027344 -1218.999390
v 2523.842041 -5439.069824 -1218.999390
vn 0.2839 -0.0301 -0.9584
vn 0.3456 -0.0303 -0.9379
vn 0.3599 -0.0208 -0.9328
vn 0.2883 -0.0033 -0.9575
vn 0.1827 -0.0135 -0.9831
vn 0.3997 -0.0493 -0.9153
vn 0.2234 -0.0374 -0.9740
vn 0.2380 -0.0807 -0.9679
vn 0.1007 -0.0354 -0.9943
vn 0.0980 -0.0434 -0.9942
vn 0.0977 -0.0431 -0.9943
vn 0.0883 -0.0610 -0.9942
vn 0.0370 -0.1290 -0.9910
vn 0.0963 -0.0642 -0.9933
vn 0.1004 -0.0693 -0.9925
vn 0.1007 -0.0679 -0.9926
vn 0.0958 -0.0628 -0.9934
vn 0.0954 -0.0630 -0.9934
vn 0.0894 -0.0591 -0.9942
vn 0.0976 -0.0432 -0.9943
vn 0.0979 -0.0434 -0.9942
vn 0.2421 -0.1073 -0.9643
vn 0.3668 -0.1640 -0.9157
vn 0.4200 -0.1442 -0.8960
vn 0.3742 -0.1739 -0.9109
vn 0.4591 -0.1621 -0.8735
vn 0.1222 -0.0251 -0.9922
vn 0.1616 0.0091 -0.9868
vn 0.0986 0.0409 -0.9943
vn 0.1996 -0.0202 -0.9797
vn 0.1166 -0.0281 -0.9928
vn 0.1466 -0.0248 -0.9889
vn 0.0845 -0.0179 -0.9963
vn 0.0954 -0.0126 -0.9954
vn 0.0944 -0.0129 -0.9954
vn 0.0943 -0.0170 -0.9954
vn 0.0938 -0.0172 -0.9954
vn 0.0999 -0.0355 -0.9944
vn -0.0000 -0.0000 -1.0000
vn 0.2768 -0.1519 -0.9488
vn 0.3157 -0.2053 -0.9264
vn 0.0959 -0.0623 -0.9934
vn 0.2300 -0.1501 -0.9616
vn 0.2261 -0.1325 -0.9651
vn 0.0556 -0.0245 -0.9982
vn 0.0553 -0.0277 -0.9981
vn 0.0557 -0.0273 -0.9981
vn 0.0566 -0.0233 -0.9981
vn 0.0665 -0.0199 -0.9976
vn 0.0688 -0.0183 -0.9975
vn 0.0826 -0.0191 -0.9964
vn 0.2939 -0.0204 -0.9556
vn 0.2756 0.0110 -0.9612
vn 0.3135 -0.0311 -0.9491
vn 0.3542 -0.0229 -0.9349
vn 0.0983 -0.0459 -0.9941
vn 0.1098 -0.0412 -0.9931
vn 0.1987 -0.4372 -0.8772
vn 0.1987 -0.4371 -0.8772
vn 0.0635 0.0317 -0.9975
vn 0.0508 0.0419 -0.9978
vn 0.0842 -0.0343 -0.9959
vn 0.4322 -0.0300 -0.9013
vn 0.2947 -0.0055 -0.9556
vn 0.2388 0.0680 -0.9687
vn 0.2385 0.0694 -0.9687
vn 0.3772 -0.2386 -0.8949
vn 0.3322 -0.1822 -0.9254
vn 0.3738 -0.1657 -0.9126
vn 0.2818 -0.1434 -0.9487
vn 0.3420 -0.1952 -0.9192
vt 45.187500 13.669920
vt 44.259769 13.507810
vt 44.378910 11.691410
vt 44.855469 17.085939
vt 46.005859 17.140629
vt 44.945309 20.480469
vt 45.732418 20.574219
vt 44.966801 23.529299
vt 45.226559 23.615229
vt 44.294918 25.714840
vt 45.046879 26.033199
vt 43.365231 27.816410
vt 44.091801 28.195309
vt 42.660160 30.269529
vt 40.726559 31.810549
vt 41.228519 32.341801
vt 40.072269 32.673828
vt 42.044918 29.812500
vt 43.123051 27.689449
vt 44.044918 25.609379
vt 43.716801 25.488279
vt 44.310551 23.287109
vt 43.015629 25.146479
vt 43.714840 23.085939
vt 46.621090 5.871094
vt 43.943359 7.921875
vt 43.386719 5.970703
vt 45.708981 9.072266
vt 47.439449 9.814453
vt 46.576168 13.968750
vt 46.910160 14.029300
vt 46.304688 17.185549
vt 47.201168 17.324219
vt 46.035160 20.619139
vt 46.943359 20.751949
vt 46.001949 23.869139
vt 19.523439 46.531250
vt 20.558590 46.126949
vt 20.632809 46.173828
vt 19.480469 46.466801
vt 18.728519 47.238277
vt 17.031250 46.753910
vt 17.687500 47.183590
vt 17.662109 47.259769
vt 18.748049 47.318359
vt 41.220699 29.205080
vt 42.316410 27.207029
vt 41.839840 29.662109
vt 40.558590 31.632809
vt 39.695309 32.275391
vt 38.914059 33.003910
vt 20.765629 45.144527
vt 20.687500 45.146481
vt 16.609379 45.806641
vt 16.396479 44.031250
vt 16.220699 45.570309
vt 16.007809 45.205078
vt 16.167969 45.615231
vt 15.919920 45.226559
vt 50.052731 7.509766
vt 49.816410 4.781250
vt 51.121090 5.333984
vt 48.689449 7.009766
vt 49.076168 10.076170
vt 47.849609 9.880859
vt 47.910160 14.208980
vt 16.318359 44.019527
vt 16.351559 43.123051
vt 20.357420 43.125004
vt 19.326170 41.720699
vt 19.380859 41.658199
vt 44.474609 10.238279
vt 44.498051 9.875000
vt 44.439449 10.783199
vt 44.406250 11.283199
vt 49.382809 4.595703
vt 48.236328 6.843750
vt 39.568359 32.142578
vt 40.125000 31.203129
vt 38.580078 32.650391
vt 38.361328 32.435551
vt 36.599609 33.667969
vt 42.859379 1.576172
vt 40.888668 2.945313
vt 47.582027 3.511719
vt 44.244141 20.373049
vt 43.708981 16.886719
vt 44.220699 8.898438
vt 44.359379 9.386719
vt 38.664059 32.738277
vt 16.544920 45.851559
vt 16.968750 46.806641
vt 16.271479 43.087891
vt 17.888670 41.628910
vt 17.937500 41.695309
vt 20.431639 43.093750
s 1
usemtl mt_suna.007
f 3/1/1 2/2/2 1/3/3
f 4/4/4 2/2/2 3/1/1
f 5/5/5 4/4/4 3/1/1
f 6/6/6 4/4/4 5/5/5
f 7/7/7 6/6/6 5/5/5
f 8/8/8 6/6/6 7/7/7
f 9/9/9 8/8/8 7/7/7
f 10/10/10 8/8/8 9/9/9
f 11/11/10 10/10/10 9/9/9
s 0
f 12/12/10 10/10/10 11/11/10
f 13/13/11 12/12/11 11/11/11
f 14/14/12 12/12/12 13/13/12
f 17/15/13 16/16/13 15/17/13
s 1
f 14/14/14 16/16/15 17/15/16
f 18/18/17 14/14/14 17/15/16
s 0
f 12/12/18 14/14/18 18/18/18
f 19/19/19 12/12/19 18/18/19
f 10/10/20 12/12/20 19/19/20
f 20/20/21 10/10/21 19/19/21
s 1
f 8/8/8 10/10/10 20/20/22
f 21/21/23 8/8/8 20/20/22
f 22/22/24 8/8/8 21/21/23
f 23/23/25 22/22/24 21/21/23
f 24/24/26 22/22/24 23/23/25
f 27/25/27 26/26/28 25/27/29
f 28/28/30 26/26/28 27/25/27
f 29/29/31 28/28/30 27/25/27
f 30/30/32 28/28/30 29/29/31
f 31/31/33 30/30/32 29/29/31
f 32/32/34 30/30/32 31/31/33
f 33/33/35 32/32/34 31/31/33
f 34/34/36 32/32/34 33/33/35
f 35/35/37 34/34/36 33/33/35
f 36/36/38 34/34/36 35/35/37
s 0
f 39/37/39 38/38/39 37/39/39
f 40/40/39 38/38/39 39/37/39
f 41/41/39 40/40/39 39/37/39
f 42/42/39 40/40/39 41/41/39
f 43/43/39 42/42/39 41/41/39
f 44/44/39 42/42/39 43/43/39
f 41/41/39 44/44/39 43/43/39
f 45/45/39 44/44/39 41/41/39
f 39/37/39 45/45/39 41/41/39
s 1
f 9/9/9 36/36/38 11/11/10
f 34/34/36 36/36/38 9/9/9
f 7/7/7 34/34/36 9/9/9
f 32/32/34 34/34/36 7/7/7
f 5/5/5 32/32/34 7/7/7
f 30/30/32 32/32/34 5/5/5
f 3/1/1 30/30/32 5/5/5
f 28/28/30 30/30/32 3/1/1
s 0
f 19/19/40 47/46/40 46/47/40
f 48/48/41 47/46/41 19/19/41
f 18/18/42 48/48/42 19/19/42
s 1
f 49/49/43 48/48/44 18/18/17
f 17/15/16 49/49/43 18/18/17
s 0
f 50/50/13 49/49/13 17/15/13
f 15/17/13 50/50/13 17/15/13
f 51/51/13 50/50/13 15/17/13
f 38/38/39 52/52/39 37/39/39
f 53/53/39 52/52/39 38/38/39
f 54/54/39 53/53/39 38/38/39
f 55/55/39 53/53/39 54/54/39
f 56/56/39 55/55/39 54/54/39
f 57/57/39 55/55/39 56/56/39
f 58/58/39 57/57/39 56/56/39
f 59/59/39 57/57/39 58/58/39
s 1
f 62/60/45 61/61/46 60/62/47
f 63/63/48 61/61/46 62/60/45
f 64/64/49 63/63/48 62/60/45
f 65/65/50 63/63/48 64/64/49
f 66/66/51 65/65/50 64/64/49
f 31/31/33 65/65/50 66/66/51
f 33/33/35 31/31/33 66/66/51
s 0
f 67/67/39 57/57/39 59/59/39
f 55/55/39 57/57/39 67/67/39
f 68/68/39 55/55/39 67/67/39
f 69/69/39 55/55/39 68/68/39
f 70/70/39 69/69/39 68/68/39
f 71/71/39 69/69/39 70/70/39
s 1
f 28/28/30 73/72/52 72/73/53
f 74/74/54 73/72/52 28/28/30
f 3/1/1 74/74/54 28/28/30
f 75/75/55 74/74/54 3/1/1
f 1/3/3 75/75/55 3/1/1
f 63/63/48 76/76/56 61/61/46
f 77/77/57 76/76/56 63/63/48
f 65/65/50 77/77/57 63/63/48
f 29/29/31 77/77/57 65/65/50
f 31/31/33 29/29/31 65/65/50
s 0
f 78/78/13 49/49/13 50/50/13
f 79/79/58 49/49/58 78/78/58
f 80/80/59 79/79/59 78/78/59
f 81/81/59 79/79/59 80/80/59
f 82/82/58 81/81/58 80/80/58
s 1
f 84/83/60 25/27/29 83/84/61
f 27/25/27 25/27/29 84/83/60
f 85/85/62 27/25/27 84/83/60
f 76/76/56 27/25/27 85/85/62
f 86/86/63 6/6/6 24/24/26
f 4/4/4 6/6/6 86/86/63
f 87/87/64 4/4/4 86/86/63
f 2/2/2 4/4/4 87/87/64
f 28/28/30 88/88/65 26/26/28
f 89/89/66 88/88/65 28/28/30
f 72/73/53 89/89/66 28/28/30
s 0
f 90/90/13 50/50/13 51/51/13
f 78/78/13 50/50/13 90/90/13
f 80/80/13 78/78/13 90/90/13
f 54/54/39 42/42/39 91/91/39
f 40/40/39 42/42/39 54/54/39
f 38/38/39 40/40/39 54/54/39
s 1
f 48/48/44 79/79/67 47/46/68
f 49/49/43 79/79/67 48/48/44
s 0
f 19/19/69 21/21/69 20/20/69
f 46/47/70 21/21/70 19/19/70
s 1
f 22/22/24 6/6/6 8/8/8
f 24/24/26 6/6/6 22/22/24
f 77/77/57 27/25/27 76/76/56
f 29/29/31 27/25/27 77/77/57
s 0
f 82/82/13 90/90/13 51/51/13
f 80/80/13 90/90/13 82/82/13
f 92/92/39 42/42/39 44/44/39
f 91/91/39 42/42/39 92/92/39
f 56/56/39 91/91/39 58/58/39
f 54/54/39 91/91/39 56/56/39
f 93/93/39 68/68/39 67/67/39
f 94/94/39 68/68/39 93/93/39
f 95/95/39 68/68/39 94/94/39
f 70/70/39 68/68/39 95/95/39
f 96/96/39 69/69/39 71/71/39
f 52/52/39 69/69/39 96/96/39
f 53/53/39 69/69/39 52/52/39
f 55/55/39 69/69/39 53/53/39
f 23/23/71 21/21/71 46/47/71
